<?xml version="1.0" encoding="UTF-8" standalone="no"?>
<!DOCTYPE svg PUBLIC "-//W3C//DTD SVG 1.1//EN"
 "http://www.w3.org/Graphics/SVG/1.1/DTD/svg11.dtd">
<!-- Generated by graphviz version 14.0.5 (0)
 -->
<!-- Title: main/bluebox.c Pages: 1 -->
<svg width="2586pt" height="196pt"
 viewBox="0.00 0.00 2586.00 196.00" xmlns="http://www.w3.org/2000/svg" xmlns:xlink="http://www.w3.org/1999/xlink">
<g id="graph0" class="graph" transform="scale(1 1) rotate(0) translate(4 192)">
<title>main/bluebox.c</title>
<!-- Node1 -->
<g id="Node000001" class="node">
<title>Node1</title>
<g id="a_Node000001"><a xlink:title="BlueBox Bluetooth sink and i2s source for RetroBox.">
<polygon fill="#999999" stroke="#666666" points="1115.5,-188 1033.5,-188 1033.5,-168 1115.5,-168 1115.5,-188"/>
<text xml:space="preserve" text-anchor="middle" x="1074.5" y="-174.5" font-family="Helvetica,sans-Serif" font-size="10.00">main/bluebox.c</text>
</a>
</g>
</g>
<!-- Node2 -->
<g id="Node000002" class="node">
<title>Node2</title>
<g id="a_Node000002"><a xlink:href="string_8h.html" target="_top" xlink:title=" ">
<polygon fill="white" stroke="#666666" points="58.62,-132 10.38,-132 10.38,-112 58.62,-112 58.62,-132"/>
<text xml:space="preserve" text-anchor="middle" x="34.5" y="-118.5" font-family="Helvetica,sans-Serif" font-size="10.00">string.h</text>
</a>
</g>
</g>
<!-- Node1&#45;&gt;Node2 -->
<g id="edge1_Node000001_Node000002" class="edge">
<title>Node1&#45;&gt;Node2</title>
<g id="a_edge1_Node000001_Node000002"><a xlink:title=" ">
<path fill="none" stroke="#63b8ff" d="M1033.05,-176.37C871.11,-173.73 280.11,-162.31 70.08,-131.99"/>
<polygon fill="#63b8ff" stroke="#63b8ff" points="70.78,-128.56 60.37,-130.52 69.74,-135.48 70.78,-128.56"/>
</a>
</g>
</g>
<!-- Node5 -->
<g id="Node000005" class="node">
<title>Node5</title>
<g id="a_Node000005"><a xlink:href="esp__log_8h_source.html" target="_top" xlink:title=" ">
<polygon fill="white" stroke="#666666" points="134.5,-132 76.5,-132 76.5,-112 134.5,-112 134.5,-132"/>
<text xml:space="preserve" text-anchor="middle" x="105.5" y="-118.5" font-family="Helvetica,sans-Serif" font-size="10.00">esp_log.h</text>
</a>
</g>
</g>
<!-- Node1&#45;&gt;Node5 -->
<g id="edge4_Node000001_Node000005" class="edge">
<title>Node1&#45;&gt;Node5</title>
<g id="a_edge4_Node000001_Node000005"><a xlink:title=" ">
<path fill="none" stroke="#63b8ff" d="M1033.04,-176.01C879.25,-172.19 340.66,-157.41 146.07,-132.05"/>
<polygon fill="#63b8ff" stroke="#63b8ff" points="146.74,-128.6 136.36,-130.72 145.79,-135.54 146.74,-128.6"/>
</a>
</g>
</g>
<!-- Node7 -->
<g id="Node000007" class="node">
<title>Node7</title>
<g id="a_Node000007"><a xlink:title=" ">
<polygon fill="#e0e0e0" stroke="#999999" points="206.25,-132 152.75,-132 152.75,-112 206.25,-112 206.25,-132"/>
<text xml:space="preserve" text-anchor="middle" x="179.5" y="-118.5" font-family="Helvetica,sans-Serif" font-size="10.00">esp_bt.h</text>
</a>
</g>
</g>
<!-- Node1&#45;&gt;Node7 -->
<g id="edge6_Node000001_Node000007" class="edge">
<title>Node1&#45;&gt;Node7</title>
<g id="a_edge6_Node000001_Node000007"><a xlink:title=" ">
<path fill="none" stroke="#63b8ff" d="M1033.09,-177.64C910.06,-178.96 536.03,-178.68 217.81,-132.03"/>
<polygon fill="#63b8ff" stroke="#63b8ff" points="218.42,-128.58 208.01,-130.57 217.39,-135.5 218.42,-128.58"/>
</a>
</g>
</g>
<!-- Node8 -->
<g id="Node000008" class="node">
<title>Node8</title>
<g id="a_Node000008"><a xlink:title=" ">
<polygon fill="#e0e0e0" stroke="#999999" points="304.38,-132 224.62,-132 224.62,-112 304.38,-112 304.38,-132"/>
<text xml:space="preserve" text-anchor="middle" x="264.5" y="-118.5" font-family="Helvetica,sans-Serif" font-size="10.00">esp_bt_main.h</text>
</a>
</g>
</g>
<!-- Node1&#45;&gt;Node8 -->
<g id="edge7_Node000001_Node000008" class="edge">
<title>Node1&#45;&gt;Node8</title>
<g id="a_edge7_Node000001_Node000008"><a xlink:title=" ">
<path fill="none" stroke="#63b8ff" d="M1033.09,-176.33C919.88,-174.13 595.5,-165.29 315.99,-132.15"/>
<polygon fill="#63b8ff" stroke="#63b8ff" points="316.67,-128.71 306.32,-130.99 315.83,-135.66 316.67,-128.71"/>
</a>
</g>
</g>
<!-- Node9 -->
<g id="Node000009" class="node">
<title>Node9</title>
<g id="a_Node000009"><a xlink:title=" ">
<polygon fill="#e0e0e0" stroke="#999999" points="410.12,-132 322.88,-132 322.88,-112 410.12,-112 410.12,-132"/>
<text xml:space="preserve" text-anchor="middle" x="366.5" y="-118.5" font-family="Helvetica,sans-Serif" font-size="10.00">esp_bt_device.h</text>
</a>
</g>
</g>
<!-- Node1&#45;&gt;Node9 -->
<g id="edge8_Node000001_Node000009" class="edge">
<title>Node1&#45;&gt;Node9</title>
<g id="a_edge8_Node000001_Node000009"><a xlink:title=" ">
<path fill="none" stroke="#63b8ff" d="M1033.36,-175.6C931.53,-171.82 659.36,-159.88 421.7,-132.14"/>
<polygon fill="#63b8ff" stroke="#63b8ff" points="422.26,-128.68 411.91,-130.98 421.43,-135.63 422.26,-128.68"/>
</a>
</g>
</g>
<!-- Node10 -->
<g id="Node000010" class="node">
<title>Node10</title>
<g id="a_Node000010"><a xlink:title=" ">
<polygon fill="#e0e0e0" stroke="#999999" points="520.75,-132 428.25,-132 428.25,-112 520.75,-112 520.75,-132"/>
<text xml:space="preserve" text-anchor="middle" x="474.5" y="-118.5" font-family="Helvetica,sans-Serif" font-size="10.00">esp_gap_bt_api.h</text>
</a>
</g>
</g>
<!-- Node1&#45;&gt;Node10 -->
<g id="edge9_Node000001_Node000010" class="edge">
<title>Node1&#45;&gt;Node10</title>
<g id="a_edge9_Node000001_Node000010"><a xlink:title=" ">
<path fill="none" stroke="#63b8ff" d="M1033.02,-174.71C943.5,-169.52 725.3,-155.56 532.19,-132.24"/>
<polygon fill="#63b8ff" stroke="#63b8ff" points="532.83,-128.79 522.48,-131.06 531.98,-135.74 532.83,-128.79"/>
</a>
</g>
</g>
<!-- Node11 -->
<g id="Node000011" class="node">
<title>Node11</title>
<g id="a_Node000011"><a xlink:title=" ">
<polygon fill="#e0e0e0" stroke="#999999" points="622.62,-132 538.38,-132 538.38,-112 622.62,-112 622.62,-132"/>
<text xml:space="preserve" text-anchor="middle" x="580.5" y="-118.5" font-family="Helvetica,sans-Serif" font-size="10.00">esp_a2dp_api.h</text>
</a>
</g>
</g>
<!-- Node1&#45;&gt;Node11 -->
<g id="edge10_Node000001_Node000011" class="edge">
<title>Node1&#45;&gt;Node11</title>
<g id="a_edge10_Node000001_Node000011"><a xlink:title=" ">
<path fill="none" stroke="#63b8ff" d="M1033.15,-173.82C956.49,-167.7 786.9,-153.14 634.02,-132.26"/>
<polygon fill="#63b8ff" stroke="#63b8ff" points="634.92,-128.85 624.54,-130.95 633.97,-135.79 634.92,-128.85"/>
</a>
</g>
</g>
<!-- Node12 -->
<g id="Node000012" class="node">
<title>Node12</title>
<g id="a_Node000012"><a xlink:title=" ">
<polygon fill="#e0e0e0" stroke="#999999" points="722.5,-132 640.5,-132 640.5,-112 722.5,-112 722.5,-132"/>
<text xml:space="preserve" text-anchor="middle" x="681.5" y="-118.5" font-family="Helvetica,sans-Serif" font-size="10.00">esp_avrc_api.h</text>
</a>
</g>
</g>
<!-- Node1&#45;&gt;Node12 -->
<g id="edge11_Node000001_Node000012" class="edge">
<title>Node1&#45;&gt;Node12</title>
<g id="a_edge11_Node000001_Node000012"><a xlink:title=" ">
<path fill="none" stroke="#63b8ff" d="M1033.08,-171.89C969.3,-163.93 843.22,-147.83 736.5,-132 735.67,-131.88 734.84,-131.75 734,-131.63"/>
<polygon fill="#63b8ff" stroke="#63b8ff" points="734.84,-128.21 724.42,-130.15 733.77,-135.13 734.84,-128.21"/>
</a>
</g>
</g>
<!-- Node13 -->
<g id="Node000013" class="node">
<title>Node13</title>
<g id="a_Node000013"><a xlink:title=" ">
<polygon fill="#e0e0e0" stroke="#999999" points="1427.75,-76 1335.25,-76 1335.25,-56 1427.75,-56 1427.75,-76"/>
<text xml:space="preserve" text-anchor="middle" x="1381.5" y="-62.5" font-family="Helvetica,sans-Serif" font-size="10.00">esp_peripherals.h</text>
</a>
</g>
</g>
<!-- Node1&#45;&gt;Node13 -->
<g id="edge12_Node000001_Node000013" class="edge">
<title>Node1&#45;&gt;Node13</title>
<g id="a_edge12_Node000001_Node000013"><a xlink:title=" ">
<path fill="none" stroke="#63b8ff" d="M1033.14,-177.26C957.85,-176.76 803.08,-170.9 769.5,-132 763.69,-125.27 763.45,-118.51 769.5,-112 806.74,-71.92 1178.33,-67.19 1323.66,-66.88"/>
<polygon fill="#63b8ff" stroke="#63b8ff" points="1323.45,-70.38 1333.45,-66.87 1323.45,-63.38 1323.45,-70.38"/>
</a>
</g>
</g>
<!-- Node14 -->
<g id="Node000014" class="node">
<title>Node14</title>
<g id="a_Node000014"><a xlink:title=" ">
<polygon fill="#e0e0e0" stroke="#999999" points="846,-132 779,-132 779,-112 846,-112 846,-132"/>
<text xml:space="preserve" text-anchor="middle" x="812.5" y="-118.5" font-family="Helvetica,sans-Serif" font-size="10.00">esp_timer.h</text>
</a>
</g>
</g>
<!-- Node1&#45;&gt;Node14 -->
<g id="edge13_Node000001_Node000014" class="edge">
<title>Node1&#45;&gt;Node14</title>
<g id="a_edge13_Node000001_Node000014"><a xlink:title=" ">
<path fill="none" stroke="#63b8ff" d="M1033.32,-168.59C991.62,-160.05 924.95,-146.39 857.56,-132.42"/>
<polygon fill="#63b8ff" stroke="#63b8ff" points="858.28,-129 847.78,-130.39 856.86,-135.85 858.28,-129"/>
</a>
</g>
</g>
<!-- Node15 -->
<g id="Node000015" class="node">
<title>Node15</title>
<g id="a_Node000015"><a xlink:title=" ">
<polygon fill="#e0e0e0" stroke="#999999" points="930.62,-132 864.38,-132 864.38,-112 930.62,-112 930.62,-132"/>
<text xml:space="preserve" text-anchor="middle" x="897.5" y="-118.5" font-family="Helvetica,sans-Serif" font-size="10.00">nvs_flash.h</text>
</a>
</g>
</g>
<!-- Node1&#45;&gt;Node15 -->
<g id="edge14_Node000001_Node000015" class="edge">
<title>Node1&#45;&gt;Node15</title>
<g id="a_edge14_Node000001_Node000015"><a xlink:title=" ">
<path fill="none" stroke="#63b8ff" d="M1043.67,-167.59C1014.79,-158.78 971.39,-145.54 939.38,-135.78"/>
<polygon fill="#63b8ff" stroke="#63b8ff" points="940.61,-132.49 930.02,-132.92 938.56,-139.19 940.61,-132.49"/>
</a>
</g>
</g>
<!-- Node16 -->
<g id="Node000016" class="node">
<title>Node16</title>
<g id="a_Node000016"><a xlink:title=" ">
<polygon fill="#e0e0e0" stroke="#999999" points="1016.75,-132 948.25,-132 948.25,-112 1016.75,-112 1016.75,-132"/>
<text xml:space="preserve" text-anchor="middle" x="982.5" y="-118.5" font-family="Helvetica,sans-Serif" font-size="10.00">esp_spiffs.h</text>
</a>
</g>
</g>
<!-- Node1&#45;&gt;Node16 -->
<g id="edge15_Node000001_Node000016" class="edge">
<title>Node1&#45;&gt;Node16</title>
<g id="a_edge15_Node000001_Node000016"><a xlink:title=" ">
<path fill="none" stroke="#63b8ff" d="M1058.47,-167.59C1044.71,-159.51 1024.6,-147.71 1008.52,-138.27"/>
<polygon fill="#63b8ff" stroke="#63b8ff" points="1010.35,-135.29 999.96,-133.25 1006.81,-141.33 1010.35,-135.29"/>
</a>
</g>
</g>
<!-- Node17 -->
<g id="Node000017" class="node">
<title>Node17</title>
<g id="a_Node000017"><a xlink:title=" ">
<polygon fill="#e0e0e0" stroke="#999999" points="1114,-132 1035,-132 1035,-112 1114,-112 1114,-132"/>
<text xml:space="preserve" text-anchor="middle" x="1074.5" y="-118.5" font-family="Helvetica,sans-Serif" font-size="10.00">periph_spiffs.h</text>
</a>
</g>
</g>
<!-- Node1&#45;&gt;Node17 -->
<g id="edge16_Node000001_Node000017" class="edge">
<title>Node1&#45;&gt;Node17</title>
<g id="a_edge16_Node000001_Node000017"><a xlink:title=" ">
<path fill="none" stroke="#63b8ff" d="M1074.5,-167.59C1074.5,-161.01 1074.5,-151.96 1074.5,-143.73"/>
<polygon fill="#63b8ff" stroke="#63b8ff" points="1078,-143.81 1074.5,-133.81 1071,-143.81 1078,-143.81"/>
</a>
</g>
</g>
<!-- Node18 -->
<g id="Node000018" class="node">
<title>Node18</title>
<g id="a_Node000018"><a xlink:title=" ">
<polygon fill="#e0e0e0" stroke="#999999" points="1206.75,-132 1132.25,-132 1132.25,-112 1206.75,-112 1206.75,-132"/>
<text xml:space="preserve" text-anchor="middle" x="1169.5" y="-118.5" font-family="Helvetica,sans-Serif" font-size="10.00">audio_mem.h</text>
</a>
</g>
</g>
<!-- Node1&#45;&gt;Node18 -->
<g id="edge17_Node000001_Node000018" class="edge">
<title>Node1&#45;&gt;Node18</title>
<g id="a_edge17_Node000001_Node000018"><a xlink:title=" ">
<path fill="none" stroke="#63b8ff" d="M1091.05,-167.59C1105.4,-159.44 1126.43,-147.48 1143.1,-138"/>
<polygon fill="#63b8ff" stroke="#63b8ff" points="1144.54,-141.21 1151.51,-133.23 1141.08,-135.13 1144.54,-141.21"/>
</a>
</g>
</g>
<!-- Node19 -->
<g id="Node000019" class="node">
<title>Node19</title>
<g id="a_Node000019"><a xlink:title=" ">
<polygon fill="#e0e0e0" stroke="#999999" points="1312.12,-132 1224.88,-132 1224.88,-112 1312.12,-112 1312.12,-132"/>
<text xml:space="preserve" text-anchor="middle" x="1268.5" y="-118.5" font-family="Helvetica,sans-Serif" font-size="10.00">audio_element.h</text>
</a>
</g>
</g>
<!-- Node1&#45;&gt;Node19 -->
<g id="edge18_Node000001_Node000019" class="edge">
<title>Node1&#45;&gt;Node19</title>
<g id="a_edge18_Node000001_Node000019"><a xlink:title=" ">
<path fill="none" stroke="#63b8ff" d="M1108.29,-167.59C1140.23,-158.71 1188.35,-145.31 1223.52,-135.52"/>
<polygon fill="#63b8ff" stroke="#63b8ff" points="1224.29,-138.94 1232.99,-132.89 1222.41,-132.2 1224.29,-138.94"/>
</a>
</g>
</g>
<!-- Node20 -->
<g id="Node000020" class="node">
<title>Node20</title>
<g id="a_Node000020"><a xlink:title=" ">
<polygon fill="#e0e0e0" stroke="#999999" points="1416.38,-132 1330.62,-132 1330.62,-112 1416.38,-112 1416.38,-132"/>
<text xml:space="preserve" text-anchor="middle" x="1373.5" y="-118.5" font-family="Helvetica,sans-Serif" font-size="10.00">audio_pipeline.h</text>
</a>
</g>
</g>
<!-- Node1&#45;&gt;Node20 -->
<g id="edge19_Node000001_Node000020" class="edge">
<title>Node1&#45;&gt;Node20</title>
<g id="a_edge19_Node000001_Node000020"><a xlink:title=" ">
<path fill="none" stroke="#63b8ff" d="M1115.76,-169.55C1168.63,-160 1260.42,-143.42 1318.99,-132.84"/>
<polygon fill="#63b8ff" stroke="#63b8ff" points="1319.53,-136.3 1328.75,-131.08 1318.29,-129.41 1319.53,-136.3"/>
</a>
</g>
</g>
<!-- Node21 -->
<g id="Node000021" class="node">
<title>Node21</title>
<g id="a_Node000021"><a xlink:title=" ">
<polygon fill="#e0e0e0" stroke="#999999" points="1537,-132 1434,-132 1434,-112 1537,-112 1537,-132"/>
<text xml:space="preserve" text-anchor="middle" x="1485.5" y="-118.5" font-family="Helvetica,sans-Serif" font-size="10.00">audio_event_iface.h</text>
</a>
</g>
</g>
<!-- Node1&#45;&gt;Node21 -->
<g id="edge20_Node000001_Node000021" class="edge">
<title>Node1&#45;&gt;Node21</title>
<g id="a_edge20_Node000001_Node000021"><a xlink:title=" ">
<path fill="none" stroke="#63b8ff" d="M1115.87,-171.99C1179.5,-164.21 1305.49,-148.57 1422.51,-132.39"/>
<polygon fill="#63b8ff" stroke="#63b8ff" points="1422.88,-135.88 1432.3,-131.03 1421.91,-128.94 1422.88,-135.88"/>
</a>
</g>
</g>
<!-- Node22 -->
<g id="Node000022" class="node">
<title>Node22</title>
<g id="a_Node000022"><a xlink:title=" ">
<polygon fill="#e0e0e0" stroke="#999999" points="1655.88,-132 1555.12,-132 1555.12,-112 1655.88,-112 1655.88,-132"/>
<text xml:space="preserve" text-anchor="middle" x="1605.5" y="-118.5" font-family="Helvetica,sans-Serif" font-size="10.00">bluetooth_service.h</text>
</a>
</g>
</g>
<!-- Node1&#45;&gt;Node22 -->
<g id="edge21_Node000001_Node000022" class="edge">
<title>Node1&#45;&gt;Node22</title>
<g id="a_edge21_Node000001_Node000022"><a xlink:title=" ">
<path fill="none" stroke="#63b8ff" d="M1115.85,-173.8C1196.07,-167.43 1378.68,-152.14 1543.46,-132.18"/>
<polygon fill="#63b8ff" stroke="#63b8ff" points="1543.78,-135.67 1553.28,-130.99 1542.93,-128.72 1543.78,-135.67"/>
</a>
</g>
</g>
<!-- Node23 -->
<g id="Node000023" class="node">
<title>Node23</title>
<g id="a_Node000023"><a xlink:title=" ">
<polygon fill="#e0e0e0" stroke="#999999" points="1746.62,-132 1674.38,-132 1674.38,-112 1746.62,-112 1746.62,-132"/>
<text xml:space="preserve" text-anchor="middle" x="1710.5" y="-118.5" font-family="Helvetica,sans-Serif" font-size="10.00">i2s_stream.h</text>
</a>
</g>
</g>
<!-- Node1&#45;&gt;Node23 -->
<g id="edge22_Node000001_Node000023" class="edge">
<title>Node1&#45;&gt;Node23</title>
<g id="a_edge22_Node000001_Node000023"><a xlink:title=" ">
<path fill="none" stroke="#63b8ff" d="M1115.8,-175.51C1210.55,-171.75 1450.98,-160.17 1662.58,-132.08"/>
<polygon fill="#63b8ff" stroke="#63b8ff" points="1662.96,-135.56 1672.41,-130.76 1662.03,-128.63 1662.96,-135.56"/>
</a>
</g>
</g>
<!-- Node24 -->
<g id="Node000024" class="node">
<title>Node24</title>
<g id="a_Node000024"><a xlink:title=" ">
<polygon fill="#e0e0e0" stroke="#999999" points="1847.88,-132 1765.12,-132 1765.12,-112 1847.88,-112 1847.88,-132"/>
<text xml:space="preserve" text-anchor="middle" x="1806.5" y="-118.5" font-family="Helvetica,sans-Serif" font-size="10.00">spiffs_stream.h</text>
</a>
</g>
</g>
<!-- Node1&#45;&gt;Node24 -->
<g id="edge23_Node000001_Node000024" class="edge">
<title>Node1&#45;&gt;Node24</title>
<g id="a_edge23_Node000001_Node000024"><a xlink:title=" ">
<path fill="none" stroke="#63b8ff" d="M1115.71,-175.84C1220.41,-172.55 1505.27,-161.53 1753.39,-132.11"/>
<polygon fill="#63b8ff" stroke="#63b8ff" points="1753.79,-135.59 1763.3,-130.92 1752.96,-128.64 1753.79,-135.59"/>
</a>
</g>
</g>
<!-- Node25 -->
<g id="Node000025" class="node">
<title>Node25</title>
<g id="a_Node000025"><a xlink:title=" ">
<polygon fill="#e0e0e0" stroke="#999999" points="1953.5,-132 1865.5,-132 1865.5,-112 1953.5,-112 1953.5,-132"/>
<text xml:space="preserve" text-anchor="middle" x="1909.5" y="-118.5" font-family="Helvetica,sans-Serif" font-size="10.00">filter_resample.h</text>
</a>
</g>
</g>
<!-- Node1&#45;&gt;Node25 -->
<g id="edge24_Node000001_Node000025" class="edge">
<title>Node1&#45;&gt;Node25</title>
<g id="a_edge24_Node000001_Node000025"><a xlink:title=" ">
<path fill="none" stroke="#63b8ff" d="M1115.76,-176.23C1230.92,-173.75 1565.78,-164.21 1853.93,-132.17"/>
<polygon fill="#63b8ff" stroke="#63b8ff" points="1853.97,-135.69 1863.51,-131.09 1853.19,-128.73 1853.97,-135.69"/>
</a>
</g>
</g>
<!-- Node26 -->
<g id="Node000026" class="node">
<title>Node26</title>
<g id="a_Node000026"><a xlink:title=" ">
<polygon fill="#e0e0e0" stroke="#999999" points="2053.88,-132 1971.12,-132 1971.12,-112 2053.88,-112 2053.88,-132"/>
<text xml:space="preserve" text-anchor="middle" x="2012.5" y="-118.5" font-family="Helvetica,sans-Serif" font-size="10.00">mp3_decoder.h</text>
</a>
</g>
</g>
<!-- Node1&#45;&gt;Node26 -->
<g id="edge25_Node000001_Node000026" class="edge">
<title>Node1&#45;&gt;Node26</title>
<g id="a_edge25_Node000001_Node000026"><a xlink:title=" ">
<path fill="none" stroke="#63b8ff" d="M1115.82,-176.77C1241.27,-175.69 1628.93,-169.44 1959.57,-132.19"/>
<polygon fill="#63b8ff" stroke="#63b8ff" points="1959.77,-135.69 1969.31,-131.08 1958.98,-128.74 1959.77,-135.69"/>
</a>
</g>
</g>
<!-- Node27 -->
<g id="Node000027" class="node">
<title>Node27</title>
<g id="a_Node000027"><a xlink:title=" ">
<polygon fill="#e0e0e0" stroke="#999999" points="2151.38,-132 2071.62,-132 2071.62,-112 2151.38,-112 2151.38,-132"/>
<text xml:space="preserve" text-anchor="middle" x="2111.5" y="-118.5" font-family="Helvetica,sans-Serif" font-size="10.00">periph_touch.h</text>
</a>
</g>
</g>
<!-- Node1&#45;&gt;Node27 -->
<g id="edge26_Node000001_Node000027" class="edge">
<title>Node1&#45;&gt;Node27</title>
<g id="a_edge26_Node000001_Node000027"><a xlink:title=" ">
<path fill="none" stroke="#63b8ff" d="M1115.6,-177.13C1249.9,-177.12 1688.1,-173.76 2059.93,-132.13"/>
<polygon fill="#63b8ff" stroke="#63b8ff" points="2060.14,-135.63 2069.68,-131.02 2059.35,-128.67 2060.14,-135.63"/>
</a>
</g>
</g>
<!-- Node28 -->
<g id="Node000028" class="node">
<title>Node28</title>
<g id="a_Node000028"><a xlink:href="board_8h_source.html" target="_top" xlink:title=" ">
<polygon fill="white" stroke="#666666" points="2217.62,-132 2169.38,-132 2169.38,-112 2217.62,-112 2217.62,-132"/>
<text xml:space="preserve" text-anchor="middle" x="2193.5" y="-118.5" font-family="Helvetica,sans-Serif" font-size="10.00">board.h</text>
</a>
</g>
</g>
<!-- Node1&#45;&gt;Node28 -->
<g id="edge27_Node000001_Node000028" class="edge">
<title>Node1&#45;&gt;Node28</title>
<g id="a_edge27_Node000001_Node000028"><a xlink:title=" ">
<path fill="none" stroke="#63b8ff" d="M1115.93,-176.53C1285.96,-174.4 1931.58,-164.43 2158.02,-131.97"/>
<polygon fill="#63b8ff" stroke="#63b8ff" points="2158.26,-135.47 2167.63,-130.53 2157.22,-128.55 2158.26,-135.47"/>
</a>
</g>
</g>
<!-- Node37 -->
<g id="Node000037" class="node">
<title>Node37</title>
<g id="a_Node000037"><a xlink:title=" ">
<polygon fill="#e0e0e0" stroke="#999999" points="2315.75,-132 2235.25,-132 2235.25,-112 2315.75,-112 2315.75,-132"/>
<text xml:space="preserve" text-anchor="middle" x="2275.5" y="-118.5" font-family="Helvetica,sans-Serif" font-size="10.00">a2dp_stream.h</text>
</a>
</g>
</g>
<!-- Node1&#45;&gt;Node37 -->
<g id="edge37_Node000001_Node000037" class="edge">
<title>Node1&#45;&gt;Node37</title>
<g id="a_edge37_Node000001_Node000037"><a xlink:title=" ">
<path fill="none" stroke="#63b8ff" d="M1115.99,-177.51C1264.74,-178.89 1785.31,-179.87 2223.61,-132.16"/>
<polygon fill="#63b8ff" stroke="#63b8ff" points="2223.86,-135.65 2233.42,-131.08 2223.1,-128.69 2223.86,-135.65"/>
</a>
</g>
</g>
<!-- Node3 -->
<g id="Node000003" class="node">
<title>Node3</title>
<g id="a_Node000003"><a xlink:href="common_8h.html" target="_top" xlink:title=" ">
<polygon fill="white" stroke="#666666" points="64.38,-76 2.62,-76 2.62,-56 64.38,-56 64.38,-76"/>
<text xml:space="preserve" text-anchor="middle" x="33.5" y="-62.5" font-family="Helvetica,sans-Serif" font-size="10.00">common.h</text>
</a>
</g>
</g>
<!-- Node2&#45;&gt;Node3 -->
<g id="edge2_Node000002_Node000003" class="edge">
<title>Node2&#45;&gt;Node3</title>
<g id="a_edge2_Node000002_Node000003"><a xlink:title=" ">
<path fill="none" stroke="#63b8ff" d="M34.33,-111.59C34.2,-105.01 34.04,-95.96 33.88,-87.73"/>
<polygon fill="#63b8ff" stroke="#63b8ff" points="37.38,-87.75 33.7,-77.81 30.39,-87.87 37.38,-87.75"/>
</a>
</g>
</g>
<!-- Node4 -->
<g id="Node000004" class="node">
<title>Node4</title>
<g id="a_Node000004"><a xlink:title=" ">
<polygon fill="#e0e0e0" stroke="#999999" points="67,-20 0,-20 0,0 67,0 67,-20"/>
<text xml:space="preserve" text-anchor="middle" x="33.5" y="-6.5" font-family="Helvetica,sans-Serif" font-size="10.00">sys/types.h</text>
</a>
</g>
</g>
<!-- Node3&#45;&gt;Node4 -->
<g id="edge3_Node000003_Node000004" class="edge">
<title>Node3&#45;&gt;Node4</title>
<g id="a_edge3_Node000003_Node000004"><a xlink:title=" ">
<path fill="none" stroke="#63b8ff" d="M33.5,-55.59C33.5,-49.01 33.5,-39.96 33.5,-31.73"/>
<polygon fill="#63b8ff" stroke="#63b8ff" points="37,-31.81 33.5,-21.81 30,-31.81 37,-31.81"/>
</a>
</g>
</g>
<!-- Node6 -->
<g id="Node000006" class="node">
<title>Node6</title>
<g id="a_Node000006"><a xlink:title=" ">
<polygon fill="#e0e0e0" stroke="#999999" points="130.25,-76 82.75,-76 82.75,-56 130.25,-56 130.25,-76"/>
<text xml:space="preserve" text-anchor="middle" x="106.5" y="-62.5" font-family="Helvetica,sans-Serif" font-size="10.00">stdlib.h</text>
</a>
</g>
</g>
<!-- Node5&#45;&gt;Node6 -->
<g id="edge5_Node000005_Node000006" class="edge">
<title>Node5&#45;&gt;Node6</title>
<g id="a_edge5_Node000005_Node000006"><a xlink:title=" ">
<path fill="none" stroke="#63b8ff" d="M105.67,-111.59C105.8,-105.01 105.96,-95.96 106.12,-87.73"/>
<polygon fill="#63b8ff" stroke="#63b8ff" points="109.61,-87.87 106.3,-77.81 102.62,-87.75 109.61,-87.87"/>
</a>
</g>
</g>
<!-- Node28&#45;&gt;Node13 -->
<g id="edge36_Node000028_Node000013" class="edge">
<title>Node28&#45;&gt;Node13</title>
<g id="a_edge36_Node000028_Node000013"><a xlink:title=" ">
<path fill="none" stroke="#63b8ff" d="M2169.12,-113.74C2166.23,-113.06 2163.31,-112.46 2160.5,-112 1893.48,-68.37 1568.96,-65.43 1439.18,-66.24"/>
<polygon fill="#63b8ff" stroke="#63b8ff" points="1439.45,-62.74 1429.48,-66.31 1439.5,-69.74 1439.45,-62.74"/>
</a>
</g>
</g>
<!-- Node29 -->
<g id="Node000029" class="node">
<title>Node29</title>
<g id="a_Node000029"><a xlink:title=" ">
<polygon fill="#e0e0e0" stroke="#999999" points="2142.25,-76 2076.75,-76 2076.75,-56 2142.25,-56 2142.25,-76"/>
<text xml:space="preserve" text-anchor="middle" x="2109.5" y="-62.5" font-family="Helvetica,sans-Serif" font-size="10.00">audio_hal.h</text>
</a>
</g>
</g>
<!-- Node28&#45;&gt;Node29 -->
<g id="edge28_Node000028_Node000029" class="edge">
<title>Node28&#45;&gt;Node29</title>
<g id="a_edge28_Node000028_Node000029"><a xlink:title=" ">
<path fill="none" stroke="#63b8ff" d="M2178.87,-111.59C2166.42,-103.59 2148.28,-91.93 2133.68,-82.54"/>
<polygon fill="#63b8ff" stroke="#63b8ff" points="2135.82,-79.76 2125.52,-77.3 2132.04,-85.65 2135.82,-79.76"/>
</a>
</g>
</g>
<!-- Node30 -->
<g id="Node000030" class="node">
<title>Node30</title>
<g id="a_Node000030"><a xlink:href="board__def_8h_source.html" target="_top" xlink:title=" ">
<polygon fill="white" stroke="#666666" points="2227,-76 2160,-76 2160,-56 2227,-56 2227,-76"/>
<text xml:space="preserve" text-anchor="middle" x="2193.5" y="-62.5" font-family="Helvetica,sans-Serif" font-size="10.00">board_def.h</text>
</a>
</g>
</g>
<!-- Node28&#45;&gt;Node30 -->
<g id="edge29_Node000028_Node000030" class="edge">
<title>Node28&#45;&gt;Node30</title>
<g id="a_edge29_Node000028_Node000030"><a xlink:title=" ">
<path fill="none" stroke="#63b8ff" d="M2193.5,-111.59C2193.5,-105.01 2193.5,-95.96 2193.5,-87.73"/>
<polygon fill="#63b8ff" stroke="#63b8ff" points="2197,-87.81 2193.5,-77.81 2190,-87.81 2197,-87.81"/>
</a>
</g>
</g>
<!-- Node31 -->
<g id="Node000031" class="node">
<title>Node31</title>
<g id="a_Node000031"><a xlink:href="board__pins__config_8h_source.html" target="_top" xlink:title=" ">
<polygon fill="white" stroke="#666666" points="2348,-76 2245,-76 2245,-56 2348,-56 2348,-76"/>
<text xml:space="preserve" text-anchor="middle" x="2296.5" y="-62.5" font-family="Helvetica,sans-Serif" font-size="10.00">board_pins_config.h</text>
</a>
</g>
</g>
<!-- Node28&#45;&gt;Node31 -->
<g id="edge30_Node000028_Node000031" class="edge">
<title>Node28&#45;&gt;Node31</title>
<g id="a_edge30_Node000028_Node000031"><a xlink:title=" ">
<path fill="none" stroke="#63b8ff" d="M2211.44,-111.59C2227.15,-103.36 2250.23,-91.26 2268.39,-81.74"/>
<polygon fill="#63b8ff" stroke="#63b8ff" points="2269.85,-84.93 2277.08,-77.18 2266.6,-78.73 2269.85,-84.93"/>
</a>
</g>
</g>
<!-- Node32 -->
<g id="Node000032" class="node">
<title>Node32</title>
<g id="a_Node000032"><a xlink:title=" ">
<polygon fill="#e0e0e0" stroke="#999999" points="2143.5,-20 2079.5,-20 2079.5,0 2143.5,0 2143.5,-20"/>
<text xml:space="preserve" text-anchor="middle" x="2111.5" y="-6.5" font-family="Helvetica,sans-Serif" font-size="10.00">driver/i2c.h</text>
</a>
</g>
</g>
<!-- Node31&#45;&gt;Node32 -->
<g id="edge31_Node000031_Node000032" class="edge">
<title>Node31&#45;&gt;Node32</title>
<g id="a_edge31_Node000031_Node000032"><a xlink:title=" ">
<path fill="none" stroke="#63b8ff" d="M2264.28,-55.59C2233.95,-46.74 2188.33,-33.43 2154.83,-23.65"/>
<polygon fill="#63b8ff" stroke="#63b8ff" points="2156.01,-20.35 2145.43,-20.9 2154.05,-27.07 2156.01,-20.35"/>
</a>
</g>
</g>
<!-- Node33 -->
<g id="Node000033" class="node">
<title>Node33</title>
<g id="a_Node000033"><a xlink:title=" ">
<polygon fill="#e0e0e0" stroke="#999999" points="2225.5,-20 2161.5,-20 2161.5,0 2225.5,0 2225.5,-20"/>
<text xml:space="preserve" text-anchor="middle" x="2193.5" y="-6.5" font-family="Helvetica,sans-Serif" font-size="10.00">driver/i2s.h</text>
</a>
</g>
</g>
<!-- Node31&#45;&gt;Node33 -->
<g id="edge32_Node000031_Node000033" class="edge">
<title>Node31&#45;&gt;Node33</title>
<g id="a_edge32_Node000031_Node000033"><a xlink:title=" ">
<path fill="none" stroke="#63b8ff" d="M2278.56,-55.59C2262.85,-47.36 2239.77,-35.26 2221.61,-25.74"/>
<polygon fill="#63b8ff" stroke="#63b8ff" points="2223.4,-22.73 2212.92,-21.18 2220.15,-28.93 2223.4,-22.73"/>
</a>
</g>
</g>
<!-- Node34 -->
<g id="Node000034" class="node">
<title>Node34</title>
<g id="a_Node000034"><a xlink:title=" ">
<polygon fill="#e0e0e0" stroke="#999999" points="2349.88,-20 2243.12,-20 2243.12,0 2349.88,0 2349.88,-20"/>
<text xml:space="preserve" text-anchor="middle" x="2296.5" y="-6.5" font-family="Helvetica,sans-Serif" font-size="10.00">driver/spi_common.h</text>
</a>
</g>
</g>
<!-- Node31&#45;&gt;Node34 -->
<g id="edge33_Node000031_Node000034" class="edge">
<title>Node31&#45;&gt;Node34</title>
<g id="a_edge33_Node000031_Node000034"><a xlink:title=" ">
<path fill="none" stroke="#63b8ff" d="M2296.5,-55.59C2296.5,-49.01 2296.5,-39.96 2296.5,-31.73"/>
<polygon fill="#63b8ff" stroke="#63b8ff" points="2300,-31.81 2296.5,-21.81 2293,-31.81 2300,-31.81"/>
</a>
</g>
</g>
<!-- Node35 -->
<g id="Node000035" class="node">
<title>Node35</title>
<g id="a_Node000035"><a xlink:title=" ">
<polygon fill="#e0e0e0" stroke="#999999" points="2467.12,-20 2367.88,-20 2367.88,0 2467.12,0 2467.12,-20"/>
<text xml:space="preserve" text-anchor="middle" x="2417.5" y="-6.5" font-family="Helvetica,sans-Serif" font-size="10.00">driver/spi_master.h</text>
</a>
</g>
</g>
<!-- Node31&#45;&gt;Node35 -->
<g id="edge34_Node000031_Node000035" class="edge">
<title>Node31&#45;&gt;Node35</title>
<g id="a_edge34_Node000031_Node000035"><a xlink:title=" ">
<path fill="none" stroke="#63b8ff" d="M2317.58,-55.59C2336.46,-47.17 2364.42,-34.69 2385.96,-25.07"/>
<polygon fill="#63b8ff" stroke="#63b8ff" points="2387.17,-28.37 2394.88,-21.1 2384.32,-21.98 2387.17,-28.37"/>
</a>
</g>
</g>
<!-- Node36 -->
<g id="Node000036" class="node">
<title>Node36</title>
<g id="a_Node000036"><a xlink:title=" ">
<polygon fill="#e0e0e0" stroke="#999999" points="2577.75,-20 2485.25,-20 2485.25,0 2577.75,0 2577.75,-20"/>
<text xml:space="preserve" text-anchor="middle" x="2531.5" y="-6.5" font-family="Helvetica,sans-Serif" font-size="10.00">driver/spi_slave.h</text>
</a>
</g>
</g>
<!-- Node31&#45;&gt;Node36 -->
<g id="edge35_Node000031_Node000036" class="edge">
<title>Node31&#45;&gt;Node36</title>
<g id="a_edge35_Node000031_Node000036"><a xlink:title=" ">
<path fill="none" stroke="#63b8ff" d="M2337.7,-55.53C2377.1,-46.48 2436.65,-32.8 2479.33,-22.99"/>
<polygon fill="#63b8ff" stroke="#63b8ff" points="2479.91,-26.45 2488.87,-20.8 2478.34,-19.62 2479.91,-26.45"/>
</a>
</g>
</g>
</g>
</svg>
