<?xml version="1.0" encoding="UTF-8" standalone="no"?>
<!DOCTYPE svg PUBLIC "-//W3C//DTD SVG 1.1//EN"
 "http://www.w3.org/Graphics/SVG/1.1/DTD/svg11.dtd">
<!-- Generated by graphviz version 14.0.5 (0)
 -->
<!-- Title: shrpx::Http2DownstreamConnection Pages: 1 -->
<svg width="283pt" height="187pt"
 viewBox="0.00 0.00 283.00 187.00" xmlns="http://www.w3.org/2000/svg" xmlns:xlink="http://www.w3.org/1999/xlink">
<g id="graph0" class="graph" transform="scale(1 1) rotate(0) translate(4 183)">
<title>shrpx::Http2DownstreamConnection</title>
<!-- Node1 -->
<g id="Node000001" class="node">
<title>Node1</title>
<g id="a_Node000001"><a xlink:title=" ">
<polygon fill="#999999" stroke="#666666" points="193.12,-27 18.12,-27 18.12,-7 193.12,-7 193.12,-27"/>
<text xml:space="preserve" text-anchor="middle" x="105.62" y="-13.5" font-family="Helvetica,sans-Serif" font-size="10.00">shrpx::Http2DownstreamConnection</text>
</a>
</g>
</g>
<!-- Node1&#45;&gt;Node1 -->
<g id="edge5_Node000001_Node000001" class="edge">
<title>Node1&#45;&gt;Node1</title>
<g id="a_edge5_Node000001_Node000001"><a xlink:title=" ">
<path fill="none" stroke="#9a32cd" stroke-dasharray="5,2" d="M204.71,-20.98C208.77,-19.95 211.12,-18.62 211.12,-17 211.12,-14.19 204.08,-12.27 193.34,-11.24"/>
<polygon fill="#9a32cd" stroke="#9a32cd" points="204.18,-17.52 194.84,-22.52 205.26,-24.44 204.18,-17.52"/>
</a>
</g>
<text xml:space="preserve" text-anchor="start" x="214.12" y="-21.5" font-family="Helvetica,sans-Serif" font-size="10.00" fill="grey">dlnext</text>
<text xml:space="preserve" text-anchor="start" x="214.12" y="-5.5" font-family="Helvetica,sans-Serif" font-size="10.00" fill="grey">dlprev</text>
</g>
<!-- Node2 -->
<g id="Node000002" class="node">
<title>Node2</title>
<g id="a_Node000002"><a xlink:href="classshrpx_1_1DownstreamConnection.html" target="_top" xlink:title=" ">
<polygon fill="white" stroke="#bfbfbf" points="181.12,-91 30.12,-91 30.12,-71 181.12,-71 181.12,-91"/>
<text xml:space="preserve" text-anchor="middle" x="105.62" y="-77.5" font-family="Helvetica,sans-Serif" font-size="10.00">shrpx::DownstreamConnection</text>
</a>
</g>
</g>
<!-- Node2&#45;&gt;Node1 -->
<g id="edge1_Node000001_Node000002" class="edge">
<title>Node2&#45;&gt;Node1</title>
<g id="a_edge1_Node000001_Node000002"><a xlink:title=" ">
<path fill="none" stroke="#63b8ff" d="M105.62,-59.4C105.62,-48.46 105.62,-35.56 105.62,-27.1"/>
<polygon fill="#63b8ff" stroke="#63b8ff" points="102.13,-59.07 105.63,-69.07 109.13,-59.07 102.13,-59.07"/>
</a>
</g>
</g>
<!-- Node3 -->
<g id="Node000003" class="node">
<title>Node3</title>
<g id="a_Node000003"><a xlink:href="classshrpx_1_1ClientHandler.html" target="_top" xlink:title=" ">
<polygon fill="white" stroke="#bfbfbf" points="105.25,-172 0,-172 0,-152 105.25,-152 105.25,-172"/>
<text xml:space="preserve" text-anchor="middle" x="52.62" y="-158.5" font-family="Helvetica,sans-Serif" font-size="10.00">shrpx::ClientHandler</text>
</a>
</g>
</g>
<!-- Node3&#45;&gt;Node2 -->
<g id="edge2_Node000002_Node000003" class="edge">
<title>Node3&#45;&gt;Node2</title>
<g id="a_edge2_Node000002_Node000003"><a xlink:title=" ">
<path fill="none" stroke="#9a32cd" stroke-dasharray="5,2" d="M54.64,-140.54C56.45,-130.33 59.88,-118.23 66.38,-109 71.52,-101.7 79.31,-95.75 86.59,-91.31"/>
<polygon fill="#9a32cd" stroke="#9a32cd" points="51.2,-139.86 53.34,-150.23 58.14,-140.79 51.2,-139.86"/>
</a>
</g>
<text xml:space="preserve" text-anchor="start" x="69.38" y="-114.5" font-family="Helvetica,sans-Serif" font-size="10.00" fill="grey">client_handler_</text>
</g>
<!-- Node4 -->
<g id="Node000004" class="node">
<title>Node4</title>
<g id="a_Node000004"><a xlink:href="classshrpx_1_1Downstream.html" target="_top" xlink:title=" ">
<polygon fill="white" stroke="#bfbfbf" points="224.38,-172 122.88,-172 122.88,-152 224.38,-152 224.38,-172"/>
<text xml:space="preserve" text-anchor="middle" x="173.62" y="-158.5" font-family="Helvetica,sans-Serif" font-size="10.00">shrpx::Downstream</text>
</a>
</g>
</g>
<!-- Node4&#45;&gt;Node2 -->
<g id="edge3_Node000002_Node000004" class="edge">
<title>Node4&#45;&gt;Node2</title>
<g id="a_edge3_Node000002_Node000004"><a xlink:title=" ">
<path fill="none" stroke="#9a32cd" stroke-dasharray="5,2" d="M162.2,-141.99C155.61,-131.73 146.83,-119.13 137.62,-109 131.76,-102.55 124.36,-96.21 118.16,-91.3"/>
<polygon fill="#9a32cd" stroke="#9a32cd" points="159.14,-143.7 167.39,-150.34 165.08,-140 159.14,-143.7"/>
</a>
</g>
<text xml:space="preserve" text-anchor="start" x="154.74" y="-114.5" font-family="Helvetica,sans-Serif" font-size="10.00" fill="grey">downstream_</text>
</g>
<!-- Node4&#45;&gt;Node4 -->
<g id="edge4_Node000004_Node000004" class="edge">
<title>Node4&#45;&gt;Node4</title>
<g id="a_edge4_Node000004_Node000004"><a xlink:title=" ">
<path fill="none" stroke="#9a32cd" stroke-dasharray="5,2" d="M235.8,-167.89C239.9,-166.52 242.38,-164.56 242.38,-162 242.38,-157.57 234.96,-154.93 224.59,-154.06"/>
<polygon fill="#9a32cd" stroke="#9a32cd" points="235.29,-164.43 226.08,-169.66 236.55,-171.31 235.29,-164.43"/>
</a>
</g>
<text xml:space="preserve" text-anchor="start" x="245.38" y="-166.5" font-family="Helvetica,sans-Serif" font-size="10.00" fill="grey">dlnext</text>
<text xml:space="preserve" text-anchor="start" x="245.38" y="-150.5" font-family="Helvetica,sans-Serif" font-size="10.00" fill="grey">dlprev</text>
</g>
</g>
</svg>
