<?xml version="1.0" encoding="UTF-8" standalone="no"?>
<!DOCTYPE svg PUBLIC "-//W3C//DTD SVG 1.1//EN"
 "http://www.w3.org/Graphics/SVG/1.1/DTD/svg11.dtd">
<!-- Generated by graphviz version 14.0.5 (0)
 -->
<!-- Title: shrpx::DownstreamConnection Pages: 1 -->
<svg width="370pt" height="192pt"
 viewBox="0.00 0.00 370.00 192.00" xmlns="http://www.w3.org/2000/svg" xmlns:xlink="http://www.w3.org/1999/xlink">
<g id="graph0" class="graph" transform="scale(1 1) rotate(0) translate(4 188)">
<title>shrpx::DownstreamConnection</title>
<!-- Node1 -->
<g id="Node000001" class="node">
<title>Node1</title>
<g id="a_Node000001"><a xlink:title=" ">
<polygon fill="#999999" stroke="#666666" points="151,-96 0,-96 0,-76 151,-76 151,-96"/>
<text xml:space="preserve" text-anchor="middle" x="75.5" y="-82.5" font-family="Helvetica,sans-Serif" font-size="10.00">shrpx::DownstreamConnection</text>
</a>
</g>
</g>
<!-- Node2 -->
<g id="Node000002" class="node">
<title>Node2</title>
<g id="a_Node000002"><a xlink:href="classshrpx_1_1APIDownstreamConnection.html" target="_top" xlink:title=" ">
<polygon fill="white" stroke="#bfbfbf" points="358.25,-184 190.75,-184 190.75,-164 358.25,-164 358.25,-184"/>
<text xml:space="preserve" text-anchor="middle" x="274.5" y="-170.5" font-family="Helvetica,sans-Serif" font-size="10.00">shrpx::APIDownstreamConnection</text>
</a>
</g>
</g>
<!-- Node1&#45;&gt;Node2 -->
<g id="edge1_Node000001_Node000002" class="edge">
<title>Node1&#45;&gt;Node2</title>
<g id="a_edge1_Node000001_Node000002"><a xlink:title=" ">
<path fill="none" stroke="#63b8ff" d="M98.85,-103.18C120.33,-118.9 154.28,-141.66 187,-155 195.26,-158.37 204.21,-161.18 213.13,-163.53"/>
<polygon fill="#63b8ff" stroke="#63b8ff" points="100.96,-100.39 90.85,-97.22 96.77,-106 100.96,-100.39"/>
</a>
</g>
</g>
<!-- Node3 -->
<g id="Node000003" class="node">
<title>Node3</title>
<g id="a_Node000003"><a xlink:href="classshrpx_1_1HealthMonitorDownstreamConnection.html" target="_top" xlink:title=" ">
<polygon fill="white" stroke="#bfbfbf" points="355.62,-146 193.38,-146 193.38,-114 355.62,-114 355.62,-146"/>
<text xml:space="preserve" text-anchor="start" x="201.38" y="-132.5" font-family="Helvetica,sans-Serif" font-size="10.00">shrpx::HealthMonitorDownstream</text>
<text xml:space="preserve" text-anchor="middle" x="274.5" y="-120.5" font-family="Helvetica,sans-Serif" font-size="10.00">Connection</text>
</a>
</g>
</g>
<!-- Node1&#45;&gt;Node3 -->
<g id="edge2_Node000001_Node000003" class="edge">
<title>Node1&#45;&gt;Node3</title>
<g id="a_edge2_Node000001_Node000003"><a xlink:title=" ">
<path fill="none" stroke="#63b8ff" d="M134.51,-98.96C155.02,-103.54 178.36,-108.75 199.98,-113.58"/>
<polygon fill="#63b8ff" stroke="#63b8ff" points="135.44,-95.58 124.91,-96.81 133.91,-102.41 135.44,-95.58"/>
</a>
</g>
</g>
<!-- Node4 -->
<g id="Node000004" class="node">
<title>Node4</title>
<g id="a_Node000004"><a xlink:href="classshrpx_1_1Http2DownstreamConnection.html" target="_top" xlink:title=" ">
<polygon fill="white" stroke="#bfbfbf" points="362,-96 187,-96 187,-76 362,-76 362,-96"/>
<text xml:space="preserve" text-anchor="middle" x="274.5" y="-82.5" font-family="Helvetica,sans-Serif" font-size="10.00">shrpx::Http2DownstreamConnection</text>
</a>
</g>
</g>
<!-- Node1&#45;&gt;Node4 -->
<g id="edge3_Node000001_Node000004" class="edge">
<title>Node1&#45;&gt;Node4</title>
<g id="a_edge3_Node000001_Node000004"><a xlink:title=" ">
<path fill="none" stroke="#63b8ff" d="M162.74,-86C170.65,-86 178.66,-86 186.57,-86"/>
<polygon fill="#63b8ff" stroke="#63b8ff" points="162.77,-82.5 152.77,-86 162.77,-89.5 162.77,-82.5"/>
</a>
</g>
</g>
<!-- Node5 -->
<g id="Node000005" class="node">
<title>Node5</title>
<g id="a_Node000005"><a xlink:href="classshrpx_1_1HttpDownstreamConnection.html" target="_top" xlink:title=" ">
<polygon fill="white" stroke="#bfbfbf" points="359.38,-58 189.62,-58 189.62,-38 359.38,-38 359.38,-58"/>
<text xml:space="preserve" text-anchor="middle" x="274.5" y="-44.5" font-family="Helvetica,sans-Serif" font-size="10.00">shrpx::HttpDownstreamConnection</text>
</a>
</g>
</g>
<!-- Node1&#45;&gt;Node5 -->
<g id="edge4_Node000001_Node000005" class="edge">
<title>Node1&#45;&gt;Node5</title>
<g id="a_edge4_Node000001_Node000005"><a xlink:title=" ">
<path fill="none" stroke="#63b8ff" d="M142.11,-73.34C167.18,-68.51 195.45,-63.06 219.32,-58.45"/>
<polygon fill="#63b8ff" stroke="#63b8ff" points="141.49,-69.9 132.34,-75.23 142.82,-76.77 141.49,-69.9"/>
</a>
</g>
</g>
<!-- Node6 -->
<g id="Node000006" class="node">
<title>Node6</title>
<g id="a_Node000006"><a xlink:href="classshrpx_1_1NullDownstreamConnection.html" target="_top" xlink:title=" ">
<polygon fill="white" stroke="#bfbfbf" points="358.62,-20 190.38,-20 190.38,0 358.62,0 358.62,-20"/>
<text xml:space="preserve" text-anchor="middle" x="274.5" y="-6.5" font-family="Helvetica,sans-Serif" font-size="10.00">shrpx::NullDownstreamConnection</text>
</a>
</g>
</g>
<!-- Node1&#45;&gt;Node6 -->
<g id="edge5_Node000001_Node000006" class="edge">
<title>Node1&#45;&gt;Node6</title>
<g id="a_edge5_Node000001_Node000006"><a xlink:title=" ">
<path fill="none" stroke="#63b8ff" d="M102.94,-69.87C124.79,-57.15 156.99,-39.83 187,-29 196.26,-25.66 206.29,-22.8 216.14,-20.4"/>
<polygon fill="#63b8ff" stroke="#63b8ff" points="101.23,-66.81 94.41,-74.92 104.79,-72.84 101.23,-66.81"/>
</a>
</g>
</g>
</g>
</svg>
