<?xml version="1.0" encoding="UTF-8" standalone="no"?>
<!DOCTYPE svg PUBLIC "-//W3C//DTD SVG 1.1//EN"
 "http://www.w3.org/Graphics/SVG/1.1/DTD/svg11.dtd">
<!-- Generated by graphviz version 14.0.5 (0)
 -->
<!-- Title: shrpx::Http3Upstream Pages: 1 -->
<svg width="356pt" height="208pt"
 viewBox="0.00 0.00 356.00 208.00" xmlns="http://www.w3.org/2000/svg" xmlns:xlink="http://www.w3.org/1999/xlink">
<g id="graph0" class="graph" transform="scale(1 1) rotate(0) translate(4 204)">
<title>shrpx::Http3Upstream</title>
<!-- Node1 -->
<g id="Node000001" class="node">
<title>Node1</title>
<g id="a_Node000001"><a xlink:title=" ">
<polygon fill="#999999" stroke="#666666" points="217.75,-20 105,-20 105,0 217.75,0 217.75,-20"/>
<text xml:space="preserve" text-anchor="middle" x="161.38" y="-6.5" font-family="Helvetica,sans-Serif" font-size="10.00">shrpx::Http3Upstream</text>
</a>
</g>
</g>
<!-- Node2 -->
<g id="Node000002" class="node">
<title>Node2</title>
<g id="a_Node000002"><a xlink:href="classshrpx_1_1Upstream.html" target="_top" xlink:title=" ">
<polygon fill="white" stroke="#bfbfbf" points="88.75,-110 0,-110 0,-90 88.75,-90 88.75,-110"/>
<text xml:space="preserve" text-anchor="middle" x="44.38" y="-96.5" font-family="Helvetica,sans-Serif" font-size="10.00">shrpx::Upstream</text>
</a>
</g>
</g>
<!-- Node2&#45;&gt;Node1 -->
<g id="edge1_Node000001_Node000002" class="edge">
<title>Node2&#45;&gt;Node1</title>
<g id="a_edge1_Node000001_Node000002"><a xlink:title=" ">
<path fill="none" stroke="#63b8ff" d="M66.07,-82.68C90.46,-64.34 129.21,-35.19 148.94,-20.35"/>
<polygon fill="#63b8ff" stroke="#63b8ff" points="63.99,-79.86 58.11,-88.67 68.2,-85.46 63.99,-79.86"/>
</a>
</g>
</g>
<!-- Node3 -->
<g id="Node000003" class="node">
<title>Node3</title>
<g id="a_Node000003"><a xlink:href="structshrpx_1_1UpstreamAddr.html" target="_top" xlink:title=" ">
<polygon fill="white" stroke="#bfbfbf" points="215.88,-110 106.88,-110 106.88,-90 215.88,-90 215.88,-110"/>
<text xml:space="preserve" text-anchor="middle" x="161.38" y="-96.5" font-family="Helvetica,sans-Serif" font-size="10.00">shrpx::UpstreamAddr</text>
</a>
</g>
</g>
<!-- Node3&#45;&gt;Node1 -->
<g id="edge2_Node000001_Node000003" class="edge">
<title>Node3&#45;&gt;Node1</title>
<g id="a_edge2_Node000001_Node000003"><a xlink:title=" ">
<path fill="none" stroke="#9a32cd" stroke-dasharray="5,2" d="M161.38,-78.09C161.38,-59.77 161.38,-34.01 161.38,-20.35"/>
<polygon fill="#9a32cd" stroke="#9a32cd" points="157.88,-78.07 161.38,-88.07 164.88,-78.07 157.88,-78.07"/>
</a>
</g>
<text xml:space="preserve" text-anchor="start" x="164.38" y="-51.5" font-family="Helvetica,sans-Serif" font-size="10.00" fill="grey">faddr</text>
</g>
<!-- Node4 -->
<g id="Node000004" class="node">
<title>Node4</title>
<g id="a_Node000004"><a xlink:href="classnghttp2_1_1StringRef.html" target="_top" xlink:title=" ">
<polygon fill="white" stroke="#bfbfbf" points="207.12,-200 111.62,-200 111.62,-180 207.12,-180 207.12,-200"/>
<text xml:space="preserve" text-anchor="middle" x="159.38" y="-186.5" font-family="Helvetica,sans-Serif" font-size="10.00">nghttp2::StringRef</text>
</a>
</g>
</g>
<!-- Node4&#45;&gt;Node3 -->
<g id="edge3_Node000003_Node000004" class="edge">
<title>Node4&#45;&gt;Node3</title>
<g id="a_edge3_Node000003_Node000004"><a xlink:title=" ">
<path fill="none" stroke="#9a32cd" stroke-dasharray="5,2" d="M159.85,-168.09C160.27,-149.77 160.85,-124.01 161.16,-110.35"/>
<polygon fill="#9a32cd" stroke="#9a32cd" points="156.35,-167.99 159.62,-178.07 163.35,-168.15 156.35,-167.99"/>
</a>
</g>
<text xml:space="preserve" text-anchor="start" x="163.73" y="-149.5" font-family="Helvetica,sans-Serif" font-size="10.00" fill="grey">host</text>
<text xml:space="preserve" text-anchor="start" x="163.73" y="-133.5" font-family="Helvetica,sans-Serif" font-size="10.00" fill="grey">hostport</text>
</g>
<!-- Node5 -->
<g id="Node000005" class="node">
<title>Node5</title>
<g id="a_Node000005"><a xlink:href="structnghttp2_1_1Address.html" target="_top" xlink:title=" ">
<polygon fill="white" stroke="#bfbfbf" points="327.5,-110 237.25,-110 237.25,-90 327.5,-90 327.5,-110"/>
<text xml:space="preserve" text-anchor="middle" x="282.38" y="-96.5" font-family="Helvetica,sans-Serif" font-size="10.00">nghttp2::Address</text>
</a>
</g>
</g>
<!-- Node5&#45;&gt;Node1 -->
<g id="edge4_Node000001_Node000005" class="edge">
<title>Node5&#45;&gt;Node1</title>
<g id="a_edge4_Node000001_Node000005"><a xlink:title=" ">
<path fill="none" stroke="#9a32cd" stroke-dasharray="5,2" d="M260.27,-82.93C235.08,-64.6 194.73,-35.26 174.23,-20.35"/>
<polygon fill="#9a32cd" stroke="#9a32cd" points="258.06,-85.64 268.2,-88.69 262.17,-79.98 258.06,-85.64"/>
</a>
</g>
<text xml:space="preserve" text-anchor="start" x="246.24" y="-59.5" font-family="Helvetica,sans-Serif" font-size="10.00" fill="grey">local_addr</text>
<text xml:space="preserve" text-anchor="start" x="246.24" y="-43.5" font-family="Helvetica,sans-Serif" font-size="10.00" fill="grey">remote_addr</text>
</g>
<!-- Node6 -->
<g id="Node000006" class="node">
<title>Node6</title>
<g id="a_Node000006"><a xlink:href="unionnghttp2_1_1sockaddr__union.html" target="_top" xlink:title=" ">
<polygon fill="white" stroke="#bfbfbf" points="347.62,-200 225.12,-200 225.12,-180 347.62,-180 347.62,-200"/>
<text xml:space="preserve" text-anchor="middle" x="286.38" y="-186.5" font-family="Helvetica,sans-Serif" font-size="10.00">nghttp2::sockaddr_union</text>
</a>
</g>
</g>
<!-- Node6&#45;&gt;Node5 -->
<g id="edge5_Node000005_Node000006" class="edge">
<title>Node6&#45;&gt;Node5</title>
<g id="a_edge5_Node000005_Node000006"><a xlink:title=" ">
<path fill="none" stroke="#9a32cd" stroke-dasharray="5,2" d="M285.42,-168.09C284.59,-149.77 283.42,-124.01 282.8,-110.35"/>
<polygon fill="#9a32cd" stroke="#9a32cd" points="281.93,-168.24 285.88,-178.07 288.92,-167.92 281.93,-168.24"/>
</a>
</g>
<text xml:space="preserve" text-anchor="start" x="288.08" y="-141.5" font-family="Helvetica,sans-Serif" font-size="10.00" fill="grey">su</text>
</g>
</g>
</svg>
