<?xml version="1.0" encoding="UTF-8" standalone="no"?>
<!DOCTYPE svg PUBLIC "-//W3C//DTD SVG 1.1//EN"
 "http://www.w3.org/Graphics/SVG/1.1/DTD/svg11.dtd">
<!-- Generated by graphviz version 14.0.5 (0)
 -->
<!-- Title: h2load::Session Pages: 1 -->
<svg width="374pt" height="84pt"
 viewBox="0.00 0.00 374.00 84.00" xmlns="http://www.w3.org/2000/svg" xmlns:xlink="http://www.w3.org/1999/xlink">
<g id="graph0" class="graph" transform="scale(1 1) rotate(0) translate(4 80)">
<title>h2load::Session</title>
<!-- Node1 -->
<g id="Node000001" class="node">
<title>Node1</title>
<g id="a_Node000001"><a xlink:title=" ">
<polygon fill="#999999" stroke="#666666" points="225.75,-76 140,-76 140,-56 225.75,-56 225.75,-76"/>
<text xml:space="preserve" text-anchor="middle" x="182.88" y="-62.5" font-family="Helvetica,sans-Serif" font-size="10.00">h2load::Session</text>
</a>
</g>
</g>
<!-- Node2 -->
<g id="Node000002" class="node">
<title>Node2</title>
<g id="a_Node000002"><a xlink:href="classh2load_1_1Http1Session.html" target="_top" xlink:title=" ">
<polygon fill="white" stroke="#bfbfbf" points="109.75,-20 0,-20 0,0 109.75,0 109.75,-20"/>
<text xml:space="preserve" text-anchor="middle" x="54.88" y="-6.5" font-family="Helvetica,sans-Serif" font-size="10.00">h2load::Http1Session</text>
</a>
</g>
</g>
<!-- Node1&#45;&gt;Node2 -->
<g id="edge1_Node000001_Node000002" class="edge">
<title>Node1&#45;&gt;Node2</title>
<g id="a_edge1_Node000001_Node000002"><a xlink:title=" ">
<path fill="none" stroke="#63b8ff" d="M150.02,-51.14C127.23,-41.52 97.47,-28.97 77.34,-20.48"/>
<polygon fill="#63b8ff" stroke="#63b8ff" points="148.61,-54.34 159.18,-55.01 151.33,-47.89 148.61,-54.34"/>
</a>
</g>
</g>
<!-- Node3 -->
<g id="Node000003" class="node">
<title>Node3</title>
<g id="a_Node000003"><a xlink:href="classh2load_1_1Http2Session.html" target="_top" xlink:title=" ">
<polygon fill="white" stroke="#bfbfbf" points="237.75,-20 128,-20 128,0 237.75,0 237.75,-20"/>
<text xml:space="preserve" text-anchor="middle" x="182.88" y="-6.5" font-family="Helvetica,sans-Serif" font-size="10.00">h2load::Http2Session</text>
</a>
</g>
</g>
<!-- Node1&#45;&gt;Node3 -->
<g id="edge2_Node000001_Node000003" class="edge">
<title>Node1&#45;&gt;Node3</title>
<g id="a_edge2_Node000001_Node000003"><a xlink:title=" ">
<path fill="none" stroke="#63b8ff" d="M182.88,-44.13C182.88,-35.9 182.88,-26.85 182.88,-20.3"/>
<polygon fill="#63b8ff" stroke="#63b8ff" points="179.38,-44.08 182.88,-54.08 186.38,-44.08 179.38,-44.08"/>
</a>
</g>
</g>
<!-- Node4 -->
<g id="Node000004" class="node">
<title>Node4</title>
<g id="a_Node000004"><a xlink:href="classh2load_1_1Http3Session.html" target="_top" xlink:title=" ">
<polygon fill="white" stroke="#bfbfbf" points="365.75,-20 256,-20 256,0 365.75,0 365.75,-20"/>
<text xml:space="preserve" text-anchor="middle" x="310.88" y="-6.5" font-family="Helvetica,sans-Serif" font-size="10.00">h2load::Http3Session</text>
</a>
</g>
</g>
<!-- Node1&#45;&gt;Node4 -->
<g id="edge3_Node000001_Node000004" class="edge">
<title>Node1&#45;&gt;Node4</title>
<g id="a_edge3_Node000001_Node000004"><a xlink:title=" ">
<path fill="none" stroke="#63b8ff" d="M215.73,-51.14C238.52,-41.52 268.28,-28.97 288.41,-20.48"/>
<polygon fill="#63b8ff" stroke="#63b8ff" points="214.42,-47.89 206.57,-55.01 217.14,-54.34 214.42,-47.89"/>
</a>
</g>
</g>
</g>
</svg>
