<?xml version="1.0" encoding="UTF-8" standalone="no"?>
<!DOCTYPE svg PUBLIC "-//W3C//DTD SVG 1.1//EN"
 "http://www.w3.org/Graphics/SVG/1.1/DTD/svg11.dtd">
<!-- Generated by graphviz version 14.0.5 (0)
 -->
<!-- Title: shrpx::APIDownstreamConnection Pages: 1 -->
<svg width="283pt" height="173pt"
 viewBox="0.00 0.00 283.00 173.00" xmlns="http://www.w3.org/2000/svg" xmlns:xlink="http://www.w3.org/1999/xlink">
<g id="graph0" class="graph" transform="scale(1 1) rotate(0) translate(4 169)">
<title>shrpx::APIDownstreamConnection</title>
<!-- Node1 -->
<g id="Node000001" class="node">
<title>Node1</title>
<g id="a_Node000001"><a xlink:title=" ">
<polygon fill="#999999" stroke="#666666" points="189.38,-20 21.88,-20 21.88,0 189.38,0 189.38,-20"/>
<text xml:space="preserve" text-anchor="middle" x="105.62" y="-6.5" font-family="Helvetica,sans-Serif" font-size="10.00">shrpx::APIDownstreamConnection</text>
</a>
</g>
</g>
<!-- Node2 -->
<g id="Node000002" class="node">
<title>Node2</title>
<g id="a_Node000002"><a xlink:href="classshrpx_1_1DownstreamConnection.html" target="_top" xlink:title=" ">
<polygon fill="white" stroke="#bfbfbf" points="181.12,-77 30.12,-77 30.12,-57 181.12,-57 181.12,-77"/>
<text xml:space="preserve" text-anchor="middle" x="105.62" y="-63.5" font-family="Helvetica,sans-Serif" font-size="10.00">shrpx::DownstreamConnection</text>
</a>
</g>
</g>
<!-- Node2&#45;&gt;Node1 -->
<g id="edge1_Node000001_Node000002" class="edge">
<title>Node2&#45;&gt;Node1</title>
<g id="a_edge1_Node000001_Node000002"><a xlink:title=" ">
<path fill="none" stroke="#63b8ff" d="M105.62,-45.69C105.62,-36.97 105.62,-27.22 105.62,-20.28"/>
<polygon fill="#63b8ff" stroke="#63b8ff" points="102.13,-45.4 105.63,-55.4 109.13,-45.4 102.13,-45.4"/>
</a>
</g>
</g>
<!-- Node3 -->
<g id="Node000003" class="node">
<title>Node3</title>
<g id="a_Node000003"><a xlink:href="classshrpx_1_1ClientHandler.html" target="_top" xlink:title=" ">
<polygon fill="white" stroke="#bfbfbf" points="105.25,-158 0,-158 0,-138 105.25,-138 105.25,-158"/>
<text xml:space="preserve" text-anchor="middle" x="52.62" y="-144.5" font-family="Helvetica,sans-Serif" font-size="10.00">shrpx::ClientHandler</text>
</a>
</g>
</g>
<!-- Node3&#45;&gt;Node2 -->
<g id="edge2_Node000002_Node000003" class="edge">
<title>Node3&#45;&gt;Node2</title>
<g id="a_edge2_Node000002_Node000003"><a xlink:title=" ">
<path fill="none" stroke="#9a32cd" stroke-dasharray="5,2" d="M54.64,-126.54C56.45,-116.33 59.88,-104.23 66.38,-95 71.52,-87.7 79.31,-81.75 86.59,-77.31"/>
<polygon fill="#9a32cd" stroke="#9a32cd" points="51.2,-125.86 53.34,-136.23 58.14,-126.79 51.2,-125.86"/>
</a>
</g>
<text xml:space="preserve" text-anchor="start" x="69.38" y="-100.5" font-family="Helvetica,sans-Serif" font-size="10.00" fill="grey">client_handler_</text>
</g>
<!-- Node4 -->
<g id="Node000004" class="node">
<title>Node4</title>
<g id="a_Node000004"><a xlink:href="classshrpx_1_1Downstream.html" target="_top" xlink:title=" ">
<polygon fill="white" stroke="#bfbfbf" points="224.38,-158 122.88,-158 122.88,-138 224.38,-138 224.38,-158"/>
<text xml:space="preserve" text-anchor="middle" x="173.62" y="-144.5" font-family="Helvetica,sans-Serif" font-size="10.00">shrpx::Downstream</text>
</a>
</g>
</g>
<!-- Node4&#45;&gt;Node2 -->
<g id="edge3_Node000002_Node000004" class="edge">
<title>Node4&#45;&gt;Node2</title>
<g id="a_edge3_Node000002_Node000004"><a xlink:title=" ">
<path fill="none" stroke="#9a32cd" stroke-dasharray="5,2" d="M162.2,-127.99C155.61,-117.73 146.83,-105.13 137.62,-95 131.76,-88.55 124.36,-82.21 118.16,-77.3"/>
<polygon fill="#9a32cd" stroke="#9a32cd" points="159.14,-129.7 167.39,-136.34 165.08,-126 159.14,-129.7"/>
</a>
</g>
<text xml:space="preserve" text-anchor="start" x="154.74" y="-100.5" font-family="Helvetica,sans-Serif" font-size="10.00" fill="grey">downstream_</text>
</g>
<!-- Node4&#45;&gt;Node4 -->
<g id="edge4_Node000004_Node000004" class="edge">
<title>Node4&#45;&gt;Node4</title>
<g id="a_edge4_Node000004_Node000004"><a xlink:title=" ">
<path fill="none" stroke="#9a32cd" stroke-dasharray="5,2" d="M235.8,-153.89C239.9,-152.52 242.38,-150.56 242.38,-148 242.38,-143.57 234.96,-140.93 224.59,-140.06"/>
<polygon fill="#9a32cd" stroke="#9a32cd" points="235.29,-150.43 226.08,-155.66 236.55,-157.31 235.29,-150.43"/>
</a>
</g>
<text xml:space="preserve" text-anchor="start" x="245.38" y="-152.5" font-family="Helvetica,sans-Serif" font-size="10.00" fill="grey">dlnext</text>
<text xml:space="preserve" text-anchor="start" x="245.38" y="-136.5" font-family="Helvetica,sans-Serif" font-size="10.00" fill="grey">dlprev</text>
</g>
</g>
</svg>
