<?xml version="1.0" encoding="UTF-8" standalone="no"?>
<!DOCTYPE svg PUBLIC "-//W3C//DTD SVG 1.1//EN"
 "http://www.w3.org/Graphics/SVG/1.1/DTD/svg11.dtd">
<!-- Generated by graphviz version 14.0.5 (0)
 -->
<!-- Title: shrpx::Upstream Pages: 1 -->
<svg width="383pt" height="84pt"
 viewBox="0.00 0.00 383.00 84.00" xmlns="http://www.w3.org/2000/svg" xmlns:xlink="http://www.w3.org/1999/xlink">
<g id="graph0" class="graph" transform="scale(1 1) rotate(0) translate(4 80)">
<title>shrpx::Upstream</title>
<!-- Node1 -->
<g id="Node000001" class="node">
<title>Node1</title>
<g id="a_Node000001"><a xlink:title=" ">
<polygon fill="#999999" stroke="#666666" points="231.75,-76 143,-76 143,-56 231.75,-56 231.75,-76"/>
<text xml:space="preserve" text-anchor="middle" x="187.38" y="-62.5" font-family="Helvetica,sans-Serif" font-size="10.00">shrpx::Upstream</text>
</a>
</g>
</g>
<!-- Node2 -->
<g id="Node000002" class="node">
<title>Node2</title>
<g id="a_Node000002"><a xlink:href="classshrpx_1_1Http2Upstream.html" target="_top" xlink:title=" ">
<polygon fill="white" stroke="#bfbfbf" points="112.75,-20 0,-20 0,0 112.75,0 112.75,-20"/>
<text xml:space="preserve" text-anchor="middle" x="56.38" y="-6.5" font-family="Helvetica,sans-Serif" font-size="10.00">shrpx::Http2Upstream</text>
</a>
</g>
</g>
<!-- Node1&#45;&gt;Node2 -->
<g id="edge1_Node000001_Node000002" class="edge">
<title>Node1&#45;&gt;Node2</title>
<g id="a_edge1_Node000001_Node000002"><a xlink:title=" ">
<path fill="none" stroke="#63b8ff" d="M154.07,-51.27C130.7,-41.64 100.06,-29.01 79.37,-20.48"/>
<polygon fill="#63b8ff" stroke="#63b8ff" points="152.58,-54.44 163.16,-55.02 155.25,-47.97 152.58,-54.44"/>
</a>
</g>
</g>
<!-- Node3 -->
<g id="Node000003" class="node">
<title>Node3</title>
<g id="a_Node000003"><a xlink:href="classshrpx_1_1Http3Upstream.html" target="_top" xlink:title=" ">
<polygon fill="white" stroke="#bfbfbf" points="243.75,-20 131,-20 131,0 243.75,0 243.75,-20"/>
<text xml:space="preserve" text-anchor="middle" x="187.38" y="-6.5" font-family="Helvetica,sans-Serif" font-size="10.00">shrpx::Http3Upstream</text>
</a>
</g>
</g>
<!-- Node1&#45;&gt;Node3 -->
<g id="edge2_Node000001_Node000003" class="edge">
<title>Node1&#45;&gt;Node3</title>
<g id="a_edge2_Node000001_Node000003"><a xlink:title=" ">
<path fill="none" stroke="#63b8ff" d="M187.38,-44.13C187.38,-35.9 187.38,-26.85 187.38,-20.3"/>
<polygon fill="#63b8ff" stroke="#63b8ff" points="183.88,-44.08 187.38,-54.08 190.88,-44.08 183.88,-44.08"/>
</a>
</g>
</g>
<!-- Node4 -->
<g id="Node000004" class="node">
<title>Node4</title>
<g id="a_Node000004"><a xlink:href="classshrpx_1_1HttpsUpstream.html" target="_top" xlink:title=" ">
<polygon fill="white" stroke="#bfbfbf" points="374.75,-20 262,-20 262,0 374.75,0 374.75,-20"/>
<text xml:space="preserve" text-anchor="middle" x="318.38" y="-6.5" font-family="Helvetica,sans-Serif" font-size="10.00">shrpx::HttpsUpstream</text>
</a>
</g>
</g>
<!-- Node1&#45;&gt;Node4 -->
<g id="edge3_Node000001_Node000004" class="edge">
<title>Node1&#45;&gt;Node4</title>
<g id="a_edge3_Node000001_Node000004"><a xlink:title=" ">
<path fill="none" stroke="#63b8ff" d="M220.68,-51.27C244.05,-41.64 274.69,-29.01 295.38,-20.48"/>
<polygon fill="#63b8ff" stroke="#63b8ff" points="219.5,-47.97 211.59,-55.02 222.17,-54.44 219.5,-47.97"/>
</a>
</g>
</g>
</g>
</svg>
