<?xml version="1.0" encoding="UTF-8" standalone="no"?>
<!DOCTYPE svg PUBLIC "-//W3C//DTD SVG 1.1//EN"
 "http://www.w3.org/Graphics/SVG/1.1/DTD/svg11.dtd">
<!-- Generated by graphviz version 14.0.5 (0)
 -->
<!-- Title: shrpx::HealthMonitorDownstreamConnection Pages: 1 -->
<svg width="283pt" height="185pt"
 viewBox="0.00 0.00 283.00 185.00" xmlns="http://www.w3.org/2000/svg" xmlns:xlink="http://www.w3.org/1999/xlink">
<g id="graph0" class="graph" transform="scale(1 1) rotate(0) translate(4 181)">
<title>shrpx::HealthMonitorDownstreamConnection</title>
<!-- Node1 -->
<g id="Node000001" class="node">
<title>Node1</title>
<g id="a_Node000001"><a xlink:title=" ">
<polygon fill="#999999" stroke="#666666" points="186.75,-32 24.5,-32 24.5,0 186.75,0 186.75,-32"/>
<text xml:space="preserve" text-anchor="start" x="32.5" y="-18.5" font-family="Helvetica,sans-Serif" font-size="10.00">shrpx::HealthMonitorDownstream</text>
<text xml:space="preserve" text-anchor="middle" x="105.62" y="-6.5" font-family="Helvetica,sans-Serif" font-size="10.00">Connection</text>
</a>
</g>
</g>
<!-- Node2 -->
<g id="Node000002" class="node">
<title>Node2</title>
<g id="a_Node000002"><a xlink:href="classshrpx_1_1DownstreamConnection.html" target="_top" xlink:title=" ">
<polygon fill="white" stroke="#bfbfbf" points="181.12,-89 30.12,-89 30.12,-69 181.12,-69 181.12,-89"/>
<text xml:space="preserve" text-anchor="middle" x="105.62" y="-75.5" font-family="Helvetica,sans-Serif" font-size="10.00">shrpx::DownstreamConnection</text>
</a>
</g>
</g>
<!-- Node2&#45;&gt;Node1 -->
<g id="edge1_Node000001_Node000002" class="edge">
<title>Node2&#45;&gt;Node1</title>
<g id="a_edge1_Node000001_Node000002"><a xlink:title=" ">
<path fill="none" stroke="#63b8ff" d="M105.62,-57.36C105.62,-49.07 105.62,-39.69 105.62,-32.06"/>
<polygon fill="#63b8ff" stroke="#63b8ff" points="102.13,-57.22 105.63,-67.22 109.13,-57.22 102.13,-57.22"/>
</a>
</g>
</g>
<!-- Node3 -->
<g id="Node000003" class="node">
<title>Node3</title>
<g id="a_Node000003"><a xlink:href="classshrpx_1_1ClientHandler.html" target="_top" xlink:title=" ">
<polygon fill="white" stroke="#bfbfbf" points="105.25,-170 0,-170 0,-150 105.25,-150 105.25,-170"/>
<text xml:space="preserve" text-anchor="middle" x="52.62" y="-156.5" font-family="Helvetica,sans-Serif" font-size="10.00">shrpx::ClientHandler</text>
</a>
</g>
</g>
<!-- Node3&#45;&gt;Node2 -->
<g id="edge2_Node000002_Node000003" class="edge">
<title>Node3&#45;&gt;Node2</title>
<g id="a_edge2_Node000002_Node000003"><a xlink:title=" ">
<path fill="none" stroke="#9a32cd" stroke-dasharray="5,2" d="M54.64,-138.54C56.45,-128.33 59.88,-116.23 66.38,-107 71.52,-99.7 79.31,-93.75 86.59,-89.31"/>
<polygon fill="#9a32cd" stroke="#9a32cd" points="51.2,-137.86 53.34,-148.23 58.14,-138.79 51.2,-137.86"/>
</a>
</g>
<text xml:space="preserve" text-anchor="start" x="69.38" y="-112.5" font-family="Helvetica,sans-Serif" font-size="10.00" fill="grey">client_handler_</text>
</g>
<!-- Node4 -->
<g id="Node000004" class="node">
<title>Node4</title>
<g id="a_Node000004"><a xlink:href="classshrpx_1_1Downstream.html" target="_top" xlink:title=" ">
<polygon fill="white" stroke="#bfbfbf" points="224.38,-170 122.88,-170 122.88,-150 224.38,-150 224.38,-170"/>
<text xml:space="preserve" text-anchor="middle" x="173.62" y="-156.5" font-family="Helvetica,sans-Serif" font-size="10.00">shrpx::Downstream</text>
</a>
</g>
</g>
<!-- Node4&#45;&gt;Node2 -->
<g id="edge3_Node000002_Node000004" class="edge">
<title>Node4&#45;&gt;Node2</title>
<g id="a_edge3_Node000002_Node000004"><a xlink:title=" ">
<path fill="none" stroke="#9a32cd" stroke-dasharray="5,2" d="M162.2,-139.99C155.61,-129.73 146.83,-117.13 137.62,-107 131.76,-100.55 124.36,-94.21 118.16,-89.3"/>
<polygon fill="#9a32cd" stroke="#9a32cd" points="159.14,-141.7 167.39,-148.34 165.08,-138 159.14,-141.7"/>
</a>
</g>
<text xml:space="preserve" text-anchor="start" x="154.74" y="-112.5" font-family="Helvetica,sans-Serif" font-size="10.00" fill="grey">downstream_</text>
</g>
<!-- Node4&#45;&gt;Node4 -->
<g id="edge4_Node000004_Node000004" class="edge">
<title>Node4&#45;&gt;Node4</title>
<g id="a_edge4_Node000004_Node000004"><a xlink:title=" ">
<path fill="none" stroke="#9a32cd" stroke-dasharray="5,2" d="M235.8,-165.89C239.9,-164.52 242.38,-162.56 242.38,-160 242.38,-155.57 234.96,-152.93 224.59,-152.06"/>
<polygon fill="#9a32cd" stroke="#9a32cd" points="235.29,-162.43 226.08,-167.66 236.55,-169.31 235.29,-162.43"/>
</a>
</g>
<text xml:space="preserve" text-anchor="start" x="245.38" y="-164.5" font-family="Helvetica,sans-Serif" font-size="10.00" fill="grey">dlnext</text>
<text xml:space="preserve" text-anchor="start" x="245.38" y="-148.5" font-family="Helvetica,sans-Serif" font-size="10.00" fill="grey">dlprev</text>
</g>
</g>
</svg>
