<?xml version="1.0" encoding="UTF-8" standalone="no"?>
<!DOCTYPE svg PUBLIC "-//W3C//DTD SVG 1.1//EN"
 "http://www.w3.org/Graphics/SVG/1.1/DTD/svg11.dtd">
<!-- Generated by graphviz version 14.0.5 (0)
 -->
<!-- Title: managed_components/espressif__nghttp/nghttp2/third&#45;party/mruby/include/mruby/compile.h Pages: 1 -->
<svg width="766pt" height="288pt"
 viewBox="0.00 0.00 766.00 288.00" xmlns="http://www.w3.org/2000/svg" xmlns:xlink="http://www.w3.org/1999/xlink">
<g id="graph0" class="graph" transform="scale(1 1) rotate(0) translate(4 284)">
<title>managed_components/espressif__nghttp/nghttp2/third&#45;party/mruby/include/mruby/compile.h</title>
<!-- Node1 -->
<g id="Node000001" class="node">
<title>Node1</title>
<g id="a_Node000001"><a xlink:title=" ">
<polygon fill="#999999" stroke="#666666" points="206.42,-280 74.92,-280 74.92,-224 206.42,-224 206.42,-280"/>
<text xml:space="preserve" text-anchor="start" x="82.92" y="-266.5" font-family="Helvetica,sans-Serif" font-size="10.00">managed_components</text>
<text xml:space="preserve" text-anchor="start" x="82.92" y="-254.5" font-family="Helvetica,sans-Serif" font-size="10.00">/espressif__nghttp/nghttp2</text>
<text xml:space="preserve" text-anchor="start" x="82.92" y="-242.5" font-family="Helvetica,sans-Serif" font-size="10.00">/third&#45;party/mruby/include</text>
<text xml:space="preserve" text-anchor="middle" x="140.67" y="-230.5" font-family="Helvetica,sans-Serif" font-size="10.00">/mruby/compile.h</text>
</a>
</g>
</g>
<!-- Node2 -->
<g id="Node000002" class="node">
<title>Node2</title>
<g id="a_Node000002"><a xlink:href="common_8h.html" target="_top" xlink:title=" ">
<polygon fill="white" stroke="#666666" points="83.55,-76 21.8,-76 21.8,-56 83.55,-56 83.55,-76"/>
<text xml:space="preserve" text-anchor="middle" x="52.67" y="-62.5" font-family="Helvetica,sans-Serif" font-size="10.00">common.h</text>
</a>
</g>
</g>
<!-- Node1&#45;&gt;Node2 -->
<g id="edge1_Node000001_Node000002" class="edge">
<title>Node1&#45;&gt;Node2</title>
<g id="a_edge1_Node000001_Node000002"><a xlink:title=" ">
<path fill="none" stroke="#63b8ff" d="M90.99,-223.53C59.26,-202.94 20.79,-171.55 2.67,-132 -5.8,-113.5 10.77,-95.39 27.07,-83.01"/>
<polygon fill="#63b8ff" stroke="#63b8ff" points="29.04,-85.9 35.2,-77.29 25.01,-80.18 29.04,-85.9"/>
</a>
</g>
</g>
<!-- Node4 -->
<g id="Node000004" class="node">
<title>Node4</title>
<g id="a_Node000004"><a xlink:href="mruby_8h.html" target="_top" xlink:title=" ">
<polygon fill="white" stroke="#666666" points="386.92,-188 336.42,-188 336.42,-168 386.92,-168 386.92,-188"/>
<text xml:space="preserve" text-anchor="middle" x="361.67" y="-174.5" font-family="Helvetica,sans-Serif" font-size="10.00">mruby.h</text>
</a>
</g>
</g>
<!-- Node1&#45;&gt;Node4 -->
<g id="edge3_Node000001_Node000004" class="edge">
<title>Node1&#45;&gt;Node4</title>
<g id="a_edge3_Node000001_Node000004"><a xlink:title=" ">
<path fill="none" stroke="#63b8ff" d="M206.68,-229.5C245.59,-216.82 293.34,-201.26 325.47,-190.79"/>
<polygon fill="#63b8ff" stroke="#63b8ff" points="326.28,-194.21 334.71,-187.79 324.11,-187.56 326.28,-194.21"/>
</a>
</g>
</g>
<!-- Node3 -->
<g id="Node000003" class="node">
<title>Node3</title>
<g id="a_Node000003"><a xlink:title=" ">
<polygon fill="#e0e0e0" stroke="#999999" points="86.17,-20 19.17,-20 19.17,0 86.17,0 86.17,-20"/>
<text xml:space="preserve" text-anchor="middle" x="52.67" y="-6.5" font-family="Helvetica,sans-Serif" font-size="10.00">sys/types.h</text>
</a>
</g>
</g>
<!-- Node2&#45;&gt;Node3 -->
<g id="edge2_Node000002_Node000003" class="edge">
<title>Node2&#45;&gt;Node3</title>
<g id="a_edge2_Node000002_Node000003"><a xlink:title=" ">
<path fill="none" stroke="#63b8ff" d="M52.67,-55.59C52.67,-49.01 52.67,-39.96 52.67,-31.73"/>
<polygon fill="#63b8ff" stroke="#63b8ff" points="56.17,-31.81 52.67,-21.81 49.17,-31.81 56.17,-31.81"/>
</a>
</g>
</g>
<!-- Node4&#45;&gt;Node2 -->
<g id="edge10_Node000004_Node000002" class="edge">
<title>Node4&#45;&gt;Node2</title>
<g id="a_edge10_Node000004_Node000002"><a xlink:title=" ">
<path fill="none" stroke="#63b8ff" d="M336.11,-175.63C259.07,-171.24 33.12,-156.38 11.67,-132 -1.56,-116.95 14.84,-97.19 30.67,-83.42"/>
<polygon fill="#63b8ff" stroke="#63b8ff" points="32.49,-86.45 38.03,-77.42 28.07,-81.02 32.49,-86.45"/>
</a>
</g>
</g>
<!-- Node5 -->
<g id="Node000005" class="node">
<title>Node5</title>
<g id="a_Node000005"><a xlink:title=" ">
<polygon fill="#e0e0e0" stroke="#999999" points="353.3,-132 302.05,-132 302.05,-112 353.3,-112 353.3,-132"/>
<text xml:space="preserve" text-anchor="middle" x="327.67" y="-118.5" font-family="Helvetica,sans-Serif" font-size="10.00">stdarg.h</text>
</a>
</g>
</g>
<!-- Node4&#45;&gt;Node5 -->
<g id="edge4_Node000004_Node000005" class="edge">
<title>Node4&#45;&gt;Node5</title>
<g id="a_edge4_Node000004_Node000005"><a xlink:title=" ">
<path fill="none" stroke="#63b8ff" d="M355.75,-167.59C351.31,-160.55 345.09,-150.67 339.64,-142"/>
<polygon fill="#63b8ff" stroke="#63b8ff" points="342.62,-140.18 334.33,-133.58 336.7,-143.91 342.62,-140.18"/>
</a>
</g>
</g>
<!-- Node6 -->
<g id="Node000006" class="node">
<title>Node6</title>
<g id="a_Node000006"><a xlink:title=" ">
<polygon fill="#e0e0e0" stroke="#999999" points="419.8,-132 371.55,-132 371.55,-112 419.8,-112 419.8,-132"/>
<text xml:space="preserve" text-anchor="middle" x="395.67" y="-118.5" font-family="Helvetica,sans-Serif" font-size="10.00">stdint.h</text>
</a>
</g>
</g>
<!-- Node4&#45;&gt;Node6 -->
<g id="edge5_Node000004_Node000006" class="edge">
<title>Node4&#45;&gt;Node6</title>
<g id="a_edge5_Node000004_Node000006"><a xlink:title=" ">
<path fill="none" stroke="#63b8ff" d="M367.59,-167.59C372.03,-160.55 378.25,-150.67 383.71,-142"/>
<polygon fill="#63b8ff" stroke="#63b8ff" points="386.64,-143.91 389.01,-133.58 380.72,-140.18 386.64,-143.91"/>
</a>
</g>
</g>
<!-- Node7 -->
<g id="Node000007" class="node">
<title>Node7</title>
<g id="a_Node000007"><a xlink:title=" ">
<polygon fill="#e0e0e0" stroke="#999999" points="489.3,-132 438.05,-132 438.05,-112 489.3,-112 489.3,-132"/>
<text xml:space="preserve" text-anchor="middle" x="463.67" y="-118.5" font-family="Helvetica,sans-Serif" font-size="10.00">stddef.h</text>
</a>
</g>
</g>
<!-- Node4&#45;&gt;Node7 -->
<g id="edge6_Node000004_Node000007" class="edge">
<title>Node4&#45;&gt;Node7</title>
<g id="a_edge6_Node000004_Node000007"><a xlink:title=" ">
<path fill="none" stroke="#63b8ff" d="M379.44,-167.59C394.99,-159.36 417.85,-147.26 435.83,-137.74"/>
<polygon fill="#63b8ff" stroke="#63b8ff" points="437.23,-140.96 444.43,-133.19 433.95,-134.77 437.23,-140.96"/>
</a>
</g>
</g>
<!-- Node8 -->
<g id="Node000008" class="node">
<title>Node8</title>
<g id="a_Node000008"><a xlink:title=" ">
<polygon fill="#e0e0e0" stroke="#999999" points="554.42,-132 506.92,-132 506.92,-112 554.42,-112 554.42,-132"/>
<text xml:space="preserve" text-anchor="middle" x="530.67" y="-118.5" font-family="Helvetica,sans-Serif" font-size="10.00">limits.h</text>
</a>
</g>
</g>
<!-- Node4&#45;&gt;Node8 -->
<g id="edge7_Node000004_Node000008" class="edge">
<title>Node4&#45;&gt;Node8</title>
<g id="a_edge7_Node000004_Node000008"><a xlink:title=" ">
<path fill="none" stroke="#63b8ff" d="M387.34,-168.8C416.33,-159.53 463.67,-144.41 495.95,-134.1"/>
<polygon fill="#63b8ff" stroke="#63b8ff" points="496.78,-137.5 505.24,-131.13 494.65,-130.84 496.78,-137.5"/>
</a>
</g>
</g>
<!-- Node9 -->
<g id="Node000009" class="node">
<title>Node9</title>
<g id="a_Node000009"><a xlink:href="mrbconf_8h_source.html" target="_top" xlink:title=" ">
<polygon fill="white" stroke="#666666" points="632.42,-132 572.92,-132 572.92,-112 632.42,-112 632.42,-132"/>
<text xml:space="preserve" text-anchor="middle" x="602.67" y="-118.5" font-family="Helvetica,sans-Serif" font-size="10.00">mrbconf.h</text>
</a>
</g>
</g>
<!-- Node4&#45;&gt;Node9 -->
<g id="edge8_Node000004_Node000009" class="edge">
<title>Node4&#45;&gt;Node9</title>
<g id="a_edge8_Node000004_Node000009"><a xlink:title=" ">
<path fill="none" stroke="#63b8ff" d="M387.2,-171.38C423.59,-163.35 492.76,-148.04 561.43,-132.5"/>
<polygon fill="#63b8ff" stroke="#63b8ff" points="561.99,-135.96 570.97,-130.33 560.44,-129.13 561.99,-135.96"/>
</a>
</g>
</g>
<!-- Node11 -->
<g id="Node000011" class="node">
<title>Node11</title>
<g id="a_Node000011"><a xlink:href="value_8h.html" target="_top" xlink:title=" ">
<polygon fill="white" stroke="#666666" points="284.42,-132 206.92,-132 206.92,-112 284.42,-112 284.42,-132"/>
<text xml:space="preserve" text-anchor="middle" x="245.67" y="-118.5" font-family="Helvetica,sans-Serif" font-size="10.00">mruby/value.h</text>
</a>
</g>
</g>
<!-- Node4&#45;&gt;Node11 -->
<g id="edge11_Node000004_Node000011" class="edge">
<title>Node4&#45;&gt;Node11</title>
<g id="a_edge11_Node000004_Node000011"><a xlink:title=" ">
<path fill="none" stroke="#63b8ff" d="M341.47,-167.59C323.45,-159.21 296.81,-146.8 276.19,-137.21"/>
<polygon fill="#63b8ff" stroke="#63b8ff" points="277.95,-134.17 267.41,-133.12 275,-140.51 277.95,-134.17"/>
</a>
</g>
</g>
<!-- Node15 -->
<g id="Node000015" class="node">
<title>Node15</title>
<g id="a_Node000015"><a xlink:href="gc_8h.html" target="_top" xlink:title=" ">
<polygon fill="white" stroke="#666666" points="85.05,-132 20.3,-132 20.3,-112 85.05,-112 85.05,-132"/>
<text xml:space="preserve" text-anchor="middle" x="52.67" y="-118.5" font-family="Helvetica,sans-Serif" font-size="10.00">mruby/gc.h</text>
</a>
</g>
</g>
<!-- Node4&#45;&gt;Node15 -->
<g id="edge16_Node000004_Node000015" class="edge">
<title>Node4&#45;&gt;Node15</title>
<g id="a_edge16_Node000004_Node000015"><a xlink:title=" ">
<path fill="none" stroke="#63b8ff" d="M336.1,-173.14C290.15,-166.11 190.36,-150.43 96.44,-132.46"/>
<polygon fill="#63b8ff" stroke="#63b8ff" points="97.28,-129.06 86.8,-130.61 95.96,-135.93 97.28,-129.06"/>
</a>
</g>
</g>
<!-- Node16 -->
<g id="Node000016" class="node">
<title>Node16</title>
<g id="a_Node000016"><a xlink:href="version_8h.html" target="_top" xlink:title=" ">
<polygon fill="white" stroke="#666666" points="188.55,-132 102.8,-132 102.8,-112 188.55,-112 188.55,-132"/>
<text xml:space="preserve" text-anchor="middle" x="145.67" y="-118.5" font-family="Helvetica,sans-Serif" font-size="10.00">mruby/version.h</text>
</a>
</g>
</g>
<!-- Node4&#45;&gt;Node16 -->
<g id="edge18_Node000004_Node000016" class="edge">
<title>Node4&#45;&gt;Node16</title>
<g id="a_edge18_Node000004_Node000016"><a xlink:title=" ">
<path fill="none" stroke="#63b8ff" d="M336.05,-170.59C301.3,-161.91 238.54,-146.22 194.62,-135.24"/>
<polygon fill="#63b8ff" stroke="#63b8ff" points="195.62,-131.88 185.07,-132.85 193.92,-138.67 195.62,-131.88"/>
</a>
</g>
</g>
<!-- Node17 -->
<g id="Node000017" class="node">
<title>Node17</title>
<g id="a_Node000017"><a xlink:title=" ">
<polygon fill="#e0e0e0" stroke="#999999" points="696.67,-132 650.67,-132 650.67,-112 696.67,-112 696.67,-132"/>
<text xml:space="preserve" text-anchor="middle" x="673.67" y="-118.5" font-family="Helvetica,sans-Serif" font-size="10.00">math.h</text>
</a>
</g>
</g>
<!-- Node4&#45;&gt;Node17 -->
<g id="edge20_Node000004_Node000017" class="edge">
<title>Node4&#45;&gt;Node17</title>
<g id="a_edge20_Node000004_Node000017"><a xlink:title=" ">
<path fill="none" stroke="#63b8ff" d="M387.34,-173.88C435.06,-167.86 540.86,-153.52 639.3,-132.31"/>
<polygon fill="#63b8ff" stroke="#63b8ff" points="639.83,-135.78 648.85,-130.22 638.34,-128.94 639.83,-135.78"/>
</a>
</g>
</g>
<!-- Node18 -->
<g id="Node000018" class="node">
<title>Node18</title>
<g id="a_Node000018"><a xlink:title=" ">
<polygon fill="#e0e0e0" stroke="#999999" points="758.17,-132 715.17,-132 715.17,-112 758.17,-112 758.17,-132"/>
<text xml:space="preserve" text-anchor="middle" x="736.67" y="-118.5" font-family="Helvetica,sans-Serif" font-size="10.00">float.h</text>
</a>
</g>
</g>
<!-- Node4&#45;&gt;Node18 -->
<g id="edge21_Node000004_Node000018" class="edge">
<title>Node4&#45;&gt;Node18</title>
<g id="a_edge21_Node000004_Node000018"><a xlink:title=" ">
<path fill="none" stroke="#63b8ff" d="M387.36,-174.99C443.16,-170.33 579.74,-157.4 703.59,-132.13"/>
<polygon fill="#63b8ff" stroke="#63b8ff" points="704.2,-135.58 713.28,-130.12 702.78,-128.73 704.2,-135.58"/>
</a>
</g>
</g>
<!-- Node10 -->
<g id="Node000010" class="node">
<title>Node10</title>
<g id="a_Node000010"><a xlink:title=" ">
<polygon fill="#e0e0e0" stroke="#999999" points="625.3,-76 580.05,-76 580.05,-56 625.3,-56 625.3,-76"/>
<text xml:space="preserve" text-anchor="middle" x="602.67" y="-62.5" font-family="Helvetica,sans-Serif" font-size="10.00">stdio.h</text>
</a>
</g>
</g>
<!-- Node9&#45;&gt;Node10 -->
<g id="edge9_Node000009_Node000010" class="edge">
<title>Node9&#45;&gt;Node10</title>
<g id="a_edge9_Node000009_Node000010"><a xlink:title=" ">
<path fill="none" stroke="#63b8ff" d="M602.67,-111.59C602.67,-105.01 602.67,-95.96 602.67,-87.73"/>
<polygon fill="#63b8ff" stroke="#63b8ff" points="606.17,-87.81 602.67,-77.81 599.17,-87.81 606.17,-87.81"/>
</a>
</g>
</g>
<!-- Node11&#45;&gt;Node2 -->
<g id="edge12_Node000011_Node000002" class="edge">
<title>Node11&#45;&gt;Node2</title>
<g id="a_edge12_Node000011_Node000002"><a xlink:title=" ">
<path fill="none" stroke="#63b8ff" d="M212.05,-111.59C179.5,-102.49 130.05,-88.65 94.87,-78.81"/>
<polygon fill="#63b8ff" stroke="#63b8ff" points="96.02,-75.49 85.45,-76.17 94.13,-82.24 96.02,-75.49"/>
</a>
</g>
</g>
<!-- Node12 -->
<g id="Node000012" class="node">
<title>Node12</title>
<g id="a_Node000012"><a xlink:title=" ">
<polygon fill="#e0e0e0" stroke="#999999" points="187.05,-76 128.3,-76 128.3,-56 187.05,-56 187.05,-76"/>
<text xml:space="preserve" text-anchor="middle" x="157.67" y="-62.5" font-family="Helvetica,sans-Serif" font-size="10.00">inttypes.h</text>
</a>
</g>
</g>
<!-- Node11&#45;&gt;Node12 -->
<g id="edge13_Node000011_Node000012" class="edge">
<title>Node11&#45;&gt;Node12</title>
<g id="a_edge13_Node000011_Node000012"><a xlink:title=" ">
<path fill="none" stroke="#63b8ff" d="M230.34,-111.59C217.18,-103.51 197.94,-91.71 182.56,-82.27"/>
<polygon fill="#63b8ff" stroke="#63b8ff" points="184.76,-79.52 174.41,-77.27 181.1,-85.48 184.76,-79.52"/>
</a>
</g>
</g>
<!-- Node13 -->
<g id="Node000013" class="node">
<title>Node13</title>
<g id="a_Node000013"><a xlink:href="object_8h.html" target="_top" xlink:title=" ">
<polygon fill="white" stroke="#666666" points="285.92,-76 205.42,-76 205.42,-56 285.92,-56 285.92,-76"/>
<text xml:space="preserve" text-anchor="middle" x="245.67" y="-62.5" font-family="Helvetica,sans-Serif" font-size="10.00">mruby/object.h</text>
</a>
</g>
</g>
<!-- Node11&#45;&gt;Node13 -->
<g id="edge14_Node000011_Node000013" class="edge">
<title>Node11&#45;&gt;Node13</title>
<g id="a_edge14_Node000011_Node000013"><a xlink:title=" ">
<path fill="none" stroke="#63b8ff" d="M245.67,-111.59C245.67,-105.01 245.67,-95.96 245.67,-87.73"/>
<polygon fill="#63b8ff" stroke="#63b8ff" points="249.17,-87.81 245.67,-77.81 242.17,-87.81 249.17,-87.81"/>
</a>
</g>
</g>
<!-- Node14 -->
<g id="Node000014" class="node">
<title>Node14</title>
<g id="a_Node000014"><a xlink:href="boxing__no_8h.html" target="_top" xlink:title=" ">
<polygon fill="white" stroke="#666666" points="372.92,-76 304.42,-76 304.42,-56 372.92,-56 372.92,-76"/>
<text xml:space="preserve" text-anchor="middle" x="338.67" y="-62.5" font-family="Helvetica,sans-Serif" font-size="10.00">boxing_no.h</text>
</a>
</g>
</g>
<!-- Node11&#45;&gt;Node14 -->
<g id="edge15_Node000011_Node000014" class="edge">
<title>Node11&#45;&gt;Node14</title>
<g id="a_edge15_Node000011_Node000014"><a xlink:title=" ">
<path fill="none" stroke="#63b8ff" d="M261.87,-111.59C275.92,-103.44 296.51,-91.48 312.83,-82"/>
<polygon fill="#63b8ff" stroke="#63b8ff" points="314.15,-85.29 321.04,-77.24 310.63,-79.23 314.15,-85.29"/>
</a>
</g>
</g>
<!-- Node15&#45;&gt;Node2 -->
<g id="edge17_Node000015_Node000002" class="edge">
<title>Node15&#45;&gt;Node2</title>
<g id="a_edge17_Node000015_Node000002"><a xlink:title=" ">
<path fill="none" stroke="#63b8ff" d="M52.67,-111.59C52.67,-105.01 52.67,-95.96 52.67,-87.73"/>
<polygon fill="#63b8ff" stroke="#63b8ff" points="56.17,-87.81 52.67,-77.81 49.17,-87.81 56.17,-87.81"/>
</a>
</g>
</g>
<!-- Node16&#45;&gt;Node2 -->
<g id="edge19_Node000016_Node000002" class="edge">
<title>Node16&#45;&gt;Node2</title>
<g id="a_edge19_Node000016_Node000002"><a xlink:title=" ">
<path fill="none" stroke="#63b8ff" d="M129.47,-111.59C115.42,-103.44 94.84,-91.48 78.51,-82"/>
<polygon fill="#63b8ff" stroke="#63b8ff" points="80.71,-79.23 70.31,-77.24 77.2,-85.29 80.71,-79.23"/>
</a>
</g>
</g>
</g>
</svg>
