<?xml version="1.0" encoding="UTF-8" standalone="no"?>
<!DOCTYPE svg PUBLIC "-//W3C//DTD SVG 1.1//EN"
 "http://www.w3.org/Graphics/SVG/1.1/DTD/svg11.dtd">
<!-- Generated by graphviz version 14.0.5 (0)
 -->
<!-- Title: managed_components/espressif__esp&#45;dsp/modules/matrix Pages: 1 -->
<svg width="473pt" height="128pt"
 viewBox="0.00 0.00 473.00 128.00" xmlns="http://www.w3.org/2000/svg" xmlns:xlink="http://www.w3.org/1999/xlink">
<g id="graph0" class="graph" transform="scale(1 1) rotate(0) translate(4 124)">
<title>managed_components/espressif__esp&#45;dsp/modules/matrix</title>
<g id="clust1" class="cluster">
<title>clusterdir_3bf3a97e32185532199c0772cc9a670c</title>
<g id="a_clust1"><a xlink:href="dir_3bf3a97e32185532199c0772cc9a670c.html" target="_top" xlink:title="modules">
<polygon fill="#edf0f7" stroke="#7f7f7f" stroke-dasharray="5,2" points="8,-40 8,-112 457,-112 457,-40 8,-40"/>
<text xml:space="preserve" text-anchor="middle" x="232.5" y="-98.5" font-family="Helvetica,sans-Serif" font-size="10.00">modules</text>
</a>
</g>
</g>
<g id="clust2" class="cluster">
<title>clusterdir_cabc96c1b2ff51b7d4bec4ff54a5d0df</title>
<g id="a_clust2"><a xlink:href="dir_cabc96c1b2ff51b7d4bec4ff54a5d0df.html" target="_top">
<polygon fill="#edf0f7" stroke="#404040" stroke-width="2" points="16,-48 16,-84 449,-84 449,-48 16,-48"/>
</a>
</g>
</g>
<!-- dir_cabc96c1b2ff51b7d4bec4ff54a5d0df -->
<g id="node1" class="node">
<title>dir_cabc96c1b2ff51b7d4bec4ff54a5d0df</title>
<text xml:space="preserve" text-anchor="middle" x="46" y="-62.5" font-family="Helvetica,sans-Serif" font-size="10.00">matrix</text>
</g>
<!-- dir_0c19f1922a34cfba5034e85d159b8921 -->
<g id="node2" class="node">
<title>dir_0c19f1922a34cfba5034e85d159b8921</title>
<g id="a_node2"><a xlink:href="dir_0c19f1922a34cfba5034e85d159b8921.html" target="_top" xlink:title="add">
<polygon fill="#a2b4d6" stroke="#404040" points="116.88,-76 85.12,-76 85.12,-56 116.88,-56 116.88,-76"/>
<text xml:space="preserve" text-anchor="middle" x="101" y="-62.5" font-family="Helvetica,sans-Serif" font-size="10.00">add</text>
</a>
</g>
</g>
<!-- dir_9daa05842a3b93b9b84970416d2aacb6 -->
<g id="node9" class="node">
<title>dir_9daa05842a3b93b9b84970416d2aacb6</title>
<g id="a_node9"><a xlink:href="dir_9daa05842a3b93b9b84970416d2aacb6.html" target="_top" xlink:title="espressif__nghttp">
<polygon fill="#edf0f7" stroke="red" stroke-dasharray="5,2" points="342.62,-20 249.38,-20 249.38,0 342.62,0 342.62,-20"/>
<text xml:space="preserve" text-anchor="middle" x="296" y="-6.5" font-family="Helvetica,sans-Serif" font-size="10.00">espressif__nghttp</text>
</a>
</g>
</g>
<!-- dir_0c19f1922a34cfba5034e85d159b8921&#45;&gt;dir_9daa05842a3b93b9b84970416d2aacb6 -->
<g id="edge1" class="edge">
<title>dir_0c19f1922a34cfba5034e85d159b8921&#45;&gt;dir_9daa05842a3b93b9b84970416d2aacb6</title>
<g id="a_edge1"><a xlink:href="dir_000019_000077.html" target="_top">
<path fill="none" stroke="#63b8ff" d="M107.85,-55.7C112.38,-50.25 118.8,-43.72 126,-40 160.53,-22.15 203.76,-14.94 237.98,-12.18"/>
<polygon fill="#63b8ff" stroke="#63b8ff" points="237.97,-15.69 247.71,-11.51 237.49,-8.71 237.97,-15.69"/>
</a>
</g>
<g id="a_edge1&#45;headlabel"><a xlink:href="dir_000019_000077.html" target="_top" xlink:title="2">
<text xml:space="preserve" text-anchor="middle" x="236.09" y="-15.16" font-family="Helvetica,sans-Serif" font-size="10.00" fill="#63b8ff">2</text>
</a>
</g>
</g>
<!-- dir_a30bea5d03b41dfc5e95f5d40f37cf0f -->
<g id="node3" class="node">
<title>dir_a30bea5d03b41dfc5e95f5d40f37cf0f</title>
<g id="a_node3"><a xlink:href="dir_a30bea5d03b41dfc5e95f5d40f37cf0f.html" target="_top" xlink:title="addc">
<polygon fill="#a2b4d6" stroke="#404040" points="171.5,-76 134.5,-76 134.5,-56 171.5,-56 171.5,-76"/>
<text xml:space="preserve" text-anchor="middle" x="153" y="-62.5" font-family="Helvetica,sans-Serif" font-size="10.00">addc</text>
</a>
</g>
</g>
<!-- dir_a30bea5d03b41dfc5e95f5d40f37cf0f&#45;&gt;dir_9daa05842a3b93b9b84970416d2aacb6 -->
<g id="edge2" class="edge">
<title>dir_a30bea5d03b41dfc5e95f5d40f37cf0f&#45;&gt;dir_9daa05842a3b93b9b84970416d2aacb6</title>
<g id="a_edge2"><a xlink:href="dir_000021_000077.html" target="_top">
<path fill="none" stroke="#63b8ff" d="M161,-55.92C166.19,-50.55 173.4,-44.03 181,-40 198.48,-30.72 219.04,-24.33 237.91,-19.95"/>
<polygon fill="#63b8ff" stroke="#63b8ff" points="238.57,-23.39 247.61,-17.86 237.09,-16.55 238.57,-23.39"/>
</a>
</g>
<g id="a_edge2&#45;headlabel"><a xlink:href="dir_000021_000077.html" target="_top" xlink:title="1">
<text xml:space="preserve" text-anchor="middle" x="237.13" y="-23.1" font-family="Helvetica,sans-Serif" font-size="10.00" fill="#63b8ff">1</text>
</a>
</g>
</g>
<!-- dir_753ae6718ad319cb0ebdd71ea0ae9e8c -->
<g id="node4" class="node">
<title>dir_753ae6718ad319cb0ebdd71ea0ae9e8c</title>
<g id="a_node4"><a xlink:href="dir_753ae6718ad319cb0ebdd71ea0ae9e8c.html" target="_top" xlink:title="include">
<polygon fill="#a2b4d6" stroke="#404040" points="236.38,-76 189.62,-76 189.62,-56 236.38,-56 236.38,-76"/>
<text xml:space="preserve" text-anchor="middle" x="213" y="-62.5" font-family="Helvetica,sans-Serif" font-size="10.00">include</text>
</a>
</g>
</g>
<!-- dir_2d5d9227fcd12bf00290761a665ea50a -->
<g id="node5" class="node">
<title>dir_2d5d9227fcd12bf00290761a665ea50a</title>
<g id="a_node5"><a xlink:href="dir_2d5d9227fcd12bf00290761a665ea50a.html" target="_top" xlink:title="mat">
<polygon fill="#a2b4d6" stroke="#404040" points="287.25,-76 254.75,-76 254.75,-56 287.25,-56 287.25,-76"/>
<text xml:space="preserve" text-anchor="middle" x="271" y="-62.5" font-family="Helvetica,sans-Serif" font-size="10.00">mat</text>
</a>
</g>
</g>
<!-- dir_2d5d9227fcd12bf00290761a665ea50a&#45;&gt;dir_9daa05842a3b93b9b84970416d2aacb6 -->
<g id="edge3" class="edge">
<title>dir_2d5d9227fcd12bf00290761a665ea50a&#45;&gt;dir_9daa05842a3b93b9b84970416d2aacb6</title>
<g id="a_edge3"><a xlink:href="dir_000220_000077.html" target="_top">
<path fill="none" stroke="#63b8ff" d="M275.35,-55.59C278.55,-48.7 282.99,-39.1 286.94,-30.57"/>
<polygon fill="#63b8ff" stroke="#63b8ff" points="290.03,-32.22 291.06,-21.67 283.68,-29.28 290.03,-32.22"/>
</a>
</g>
<g id="a_edge3&#45;headlabel"><a xlink:href="dir_000220_000077.html" target="_top" xlink:title="1">
<text xml:space="preserve" text-anchor="middle" x="291.74" y="-31.8" font-family="Helvetica,sans-Serif" font-size="10.00" fill="#63b8ff">1</text>
</a>
</g>
</g>
<!-- dir_7b841bf46f65ffa2b05d178327cd13d1 -->
<g id="node6" class="node">
<title>dir_7b841bf46f65ffa2b05d178327cd13d1</title>
<g id="a_node6"><a xlink:href="dir_7b841bf46f65ffa2b05d178327cd13d1.html" target="_top" xlink:title="mul">
<polygon fill="#a2b4d6" stroke="#404040" points="336.88,-76 305.12,-76 305.12,-56 336.88,-56 336.88,-76"/>
<text xml:space="preserve" text-anchor="middle" x="321" y="-62.5" font-family="Helvetica,sans-Serif" font-size="10.00">mul</text>
</a>
</g>
</g>
<!-- dir_7b841bf46f65ffa2b05d178327cd13d1&#45;&gt;dir_9daa05842a3b93b9b84970416d2aacb6 -->
<g id="edge4" class="edge">
<title>dir_7b841bf46f65ffa2b05d178327cd13d1&#45;&gt;dir_9daa05842a3b93b9b84970416d2aacb6</title>
<g id="a_edge4"><a xlink:href="dir_000290_000077.html" target="_top">
<path fill="none" stroke="#63b8ff" d="M316.65,-55.59C313.45,-48.7 309.01,-39.1 305.06,-30.57"/>
<polygon fill="#63b8ff" stroke="#63b8ff" points="308.32,-29.28 300.94,-21.67 301.97,-32.22 308.32,-29.28"/>
</a>
</g>
<g id="a_edge4&#45;headlabel"><a xlink:href="dir_000290_000077.html" target="_top" xlink:title="12">
<text xml:space="preserve" text-anchor="middle" x="311.77" y="-26.47" font-family="Helvetica,sans-Serif" font-size="10.00" fill="#63b8ff">12</text>
</a>
</g>
</g>
<!-- dir_19b304f49ae48d266d114c1bf4fa1f89 -->
<g id="node7" class="node">
<title>dir_19b304f49ae48d266d114c1bf4fa1f89</title>
<g id="a_node7"><a xlink:href="dir_19b304f49ae48d266d114c1bf4fa1f89.html" target="_top" xlink:title="mulc">
<polygon fill="#a2b4d6" stroke="#404040" points="391.5,-76 354.5,-76 354.5,-56 391.5,-56 391.5,-76"/>
<text xml:space="preserve" text-anchor="middle" x="373" y="-62.5" font-family="Helvetica,sans-Serif" font-size="10.00">mulc</text>
</a>
</g>
</g>
<!-- dir_19b304f49ae48d266d114c1bf4fa1f89&#45;&gt;dir_9daa05842a3b93b9b84970416d2aacb6 -->
<g id="edge5" class="edge">
<title>dir_19b304f49ae48d266d114c1bf4fa1f89&#45;&gt;dir_9daa05842a3b93b9b84970416d2aacb6</title>
<g id="a_edge5"><a xlink:href="dir_000292_000077.html" target="_top">
<path fill="none" stroke="#63b8ff" d="M363.95,-55.67C358.91,-50.72 352.37,-44.71 346,-40 339.2,-34.97 331.45,-30.11 324.13,-25.86"/>
<polygon fill="#63b8ff" stroke="#63b8ff" points="325.94,-22.86 315.51,-21.02 322.52,-28.97 325.94,-22.86"/>
</a>
</g>
<g id="a_edge5&#45;headlabel"><a xlink:href="dir_000292_000077.html" target="_top" xlink:title="1">
<text xml:space="preserve" text-anchor="middle" x="329.15" y="-17.9" font-family="Helvetica,sans-Serif" font-size="10.00" fill="#63b8ff">1</text>
</a>
</g>
</g>
<!-- dir_be912442ebf04680230b883778f43a7b -->
<g id="node8" class="node">
<title>dir_be912442ebf04680230b883778f43a7b</title>
<g id="a_node8"><a xlink:href="dir_be912442ebf04680230b883778f43a7b.html" target="_top" xlink:title="sub">
<polygon fill="#a2b4d6" stroke="#404040" points="440.88,-76 409.12,-76 409.12,-56 440.88,-56 440.88,-76"/>
<text xml:space="preserve" text-anchor="middle" x="425" y="-62.5" font-family="Helvetica,sans-Serif" font-size="10.00">sub</text>
</a>
</g>
</g>
<!-- dir_be912442ebf04680230b883778f43a7b&#45;&gt;dir_9daa05842a3b93b9b84970416d2aacb6 -->
<g id="edge6" class="edge">
<title>dir_be912442ebf04680230b883778f43a7b&#45;&gt;dir_9daa05842a3b93b9b84970416d2aacb6</title>
<g id="a_edge6"><a xlink:href="dir_000355_000077.html" target="_top">
<path fill="none" stroke="#63b8ff" d="M418.36,-55.95C413.99,-50.59 407.82,-44.07 401,-40 386.75,-31.5 369.93,-25.42 353.98,-21.1"/>
<polygon fill="#63b8ff" stroke="#63b8ff" points="355.13,-17.78 344.58,-18.75 353.43,-24.57 355.13,-17.78"/>
</a>
</g>
<g id="a_edge6&#45;headlabel"><a xlink:href="dir_000355_000077.html" target="_top" xlink:title="1">
<text xml:space="preserve" text-anchor="middle" x="357.84" y="-12.03" font-family="Helvetica,sans-Serif" font-size="10.00" fill="#63b8ff">1</text>
</a>
</g>
</g>
</g>
</svg>
