<?xml version="1.0" encoding="UTF-8" standalone="no"?>
<!DOCTYPE svg PUBLIC "-//W3C//DTD SVG 1.1//EN"
 "http://www.w3.org/Graphics/SVG/1.1/DTD/svg11.dtd">
<!-- Generated by graphviz version 14.0.5 (0)
 -->
<!-- Title: managed_components/espressif__esp&#45;dsp/modules/math Pages: 1 -->
<svg width="468pt" height="128pt"
 viewBox="0.00 0.00 468.00 128.00" xmlns="http://www.w3.org/2000/svg" xmlns:xlink="http://www.w3.org/1999/xlink">
<g id="graph0" class="graph" transform="scale(1 1) rotate(0) translate(4 124)">
<title>managed_components/espressif__esp&#45;dsp/modules/math</title>
<g id="clust1" class="cluster">
<title>clusterdir_3bf3a97e32185532199c0772cc9a670c</title>
<g id="a_clust1"><a xlink:href="dir_3bf3a97e32185532199c0772cc9a670c.html" target="_top" xlink:title="modules">
<polygon fill="#edf0f7" stroke="#7f7f7f" stroke-dasharray="5,2" points="8,-40 8,-112 452,-112 452,-40 8,-40"/>
<text xml:space="preserve" text-anchor="middle" x="230" y="-98.5" font-family="Helvetica,sans-Serif" font-size="10.00">modules</text>
</a>
</g>
</g>
<g id="clust2" class="cluster">
<title>clusterdir_f2f8f0c07abc31f661c7868ee2541c99</title>
<g id="a_clust2"><a xlink:href="dir_f2f8f0c07abc31f661c7868ee2541c99.html" target="_top">
<polygon fill="#edf0f7" stroke="#404040" stroke-width="2" points="16,-48 16,-84 444,-84 444,-48 16,-48"/>
</a>
</g>
</g>
<!-- dir_f2f8f0c07abc31f661c7868ee2541c99 -->
<g id="node1" class="node">
<title>dir_f2f8f0c07abc31f661c7868ee2541c99</title>
<text xml:space="preserve" text-anchor="middle" x="43" y="-62.5" font-family="Helvetica,sans-Serif" font-size="10.00">math</text>
</g>
<!-- dir_cd24311e3a76efdc2b932d491e00c791 -->
<g id="node2" class="node">
<title>dir_cd24311e3a76efdc2b932d491e00c791</title>
<g id="a_node2"><a xlink:href="dir_cd24311e3a76efdc2b932d491e00c791.html" target="_top" xlink:title="add">
<polygon fill="#a2b4d6" stroke="#404040" points="111.88,-76 80.12,-76 80.12,-56 111.88,-56 111.88,-76"/>
<text xml:space="preserve" text-anchor="middle" x="96" y="-62.5" font-family="Helvetica,sans-Serif" font-size="10.00">add</text>
</a>
</g>
</g>
<!-- dir_9daa05842a3b93b9b84970416d2aacb6 -->
<g id="node9" class="node">
<title>dir_9daa05842a3b93b9b84970416d2aacb6</title>
<g id="a_node9"><a xlink:href="dir_9daa05842a3b93b9b84970416d2aacb6.html" target="_top" xlink:title="espressif__nghttp">
<polygon fill="#edf0f7" stroke="red" stroke-dasharray="5,2" points="337.62,-20 244.38,-20 244.38,0 337.62,0 337.62,-20"/>
<text xml:space="preserve" text-anchor="middle" x="291" y="-6.5" font-family="Helvetica,sans-Serif" font-size="10.00">espressif__nghttp</text>
</a>
</g>
</g>
<!-- dir_cd24311e3a76efdc2b932d491e00c791&#45;&gt;dir_9daa05842a3b93b9b84970416d2aacb6 -->
<g id="edge1" class="edge">
<title>dir_cd24311e3a76efdc2b932d491e00c791&#45;&gt;dir_9daa05842a3b93b9b84970416d2aacb6</title>
<g id="a_edge1"><a xlink:href="dir_000018_000077.html" target="_top">
<path fill="none" stroke="#63b8ff" d="M102.85,-55.7C107.38,-50.25 113.8,-43.72 121,-40 155.53,-22.15 198.76,-14.94 232.98,-12.18"/>
<polygon fill="#63b8ff" stroke="#63b8ff" points="232.97,-15.69 242.71,-11.51 232.49,-8.71 232.97,-15.69"/>
</a>
</g>
<g id="a_edge1&#45;headlabel"><a xlink:href="dir_000018_000077.html" target="_top" xlink:title="6">
<text xml:space="preserve" text-anchor="middle" x="231.09" y="-15.16" font-family="Helvetica,sans-Serif" font-size="10.00" fill="#63b8ff">6</text>
</a>
</g>
</g>
<!-- dir_4959b686ec042fac7dd4ecf530f41fd0 -->
<g id="node3" class="node">
<title>dir_4959b686ec042fac7dd4ecf530f41fd0</title>
<g id="a_node3"><a xlink:href="dir_4959b686ec042fac7dd4ecf530f41fd0.html" target="_top" xlink:title="addc">
<polygon fill="#a2b4d6" stroke="#404040" points="166.5,-76 129.5,-76 129.5,-56 166.5,-56 166.5,-76"/>
<text xml:space="preserve" text-anchor="middle" x="148" y="-62.5" font-family="Helvetica,sans-Serif" font-size="10.00">addc</text>
</a>
</g>
</g>
<!-- dir_4959b686ec042fac7dd4ecf530f41fd0&#45;&gt;dir_9daa05842a3b93b9b84970416d2aacb6 -->
<g id="edge2" class="edge">
<title>dir_4959b686ec042fac7dd4ecf530f41fd0&#45;&gt;dir_9daa05842a3b93b9b84970416d2aacb6</title>
<g id="a_edge2"><a xlink:href="dir_000020_000077.html" target="_top">
<path fill="none" stroke="#63b8ff" d="M156,-55.92C161.19,-50.55 168.4,-44.03 176,-40 193.48,-30.72 214.04,-24.33 232.91,-19.95"/>
<polygon fill="#63b8ff" stroke="#63b8ff" points="233.57,-23.39 242.61,-17.86 232.09,-16.55 233.57,-23.39"/>
</a>
</g>
<g id="a_edge2&#45;headlabel"><a xlink:href="dir_000020_000077.html" target="_top" xlink:title="1">
<text xml:space="preserve" text-anchor="middle" x="232.13" y="-23.1" font-family="Helvetica,sans-Serif" font-size="10.00" fill="#63b8ff">1</text>
</a>
</g>
</g>
<!-- dir_3d77a6d5f71a74280036ab9e4428a051 -->
<g id="node4" class="node">
<title>dir_3d77a6d5f71a74280036ab9e4428a051</title>
<g id="a_node4"><a xlink:href="dir_3d77a6d5f71a74280036ab9e4428a051.html" target="_top" xlink:title="include">
<polygon fill="#a2b4d6" stroke="#404040" points="231.38,-76 184.62,-76 184.62,-56 231.38,-56 231.38,-76"/>
<text xml:space="preserve" text-anchor="middle" x="208" y="-62.5" font-family="Helvetica,sans-Serif" font-size="10.00">include</text>
</a>
</g>
</g>
<!-- dir_a3df4d165d41147f839b80de3f419011 -->
<g id="node5" class="node">
<title>dir_a3df4d165d41147f839b80de3f419011</title>
<g id="a_node5"><a xlink:href="dir_a3df4d165d41147f839b80de3f419011.html" target="_top" xlink:title="mul">
<polygon fill="#a2b4d6" stroke="#404040" points="280.88,-76 249.12,-76 249.12,-56 280.88,-56 280.88,-76"/>
<text xml:space="preserve" text-anchor="middle" x="265" y="-62.5" font-family="Helvetica,sans-Serif" font-size="10.00">mul</text>
</a>
</g>
</g>
<!-- dir_a3df4d165d41147f839b80de3f419011&#45;&gt;dir_9daa05842a3b93b9b84970416d2aacb6 -->
<g id="edge3" class="edge">
<title>dir_a3df4d165d41147f839b80de3f419011&#45;&gt;dir_9daa05842a3b93b9b84970416d2aacb6</title>
<g id="a_edge3"><a xlink:href="dir_000289_000077.html" target="_top">
<path fill="none" stroke="#63b8ff" d="M269.53,-55.59C272.85,-48.7 277.47,-39.1 281.58,-30.57"/>
<polygon fill="#63b8ff" stroke="#63b8ff" points="284.68,-32.19 285.87,-21.66 278.37,-29.15 284.68,-32.19"/>
</a>
</g>
<g id="a_edge3&#45;headlabel"><a xlink:href="dir_000289_000077.html" target="_top" xlink:title="6">
<text xml:space="preserve" text-anchor="middle" x="286.34" y="-31.8" font-family="Helvetica,sans-Serif" font-size="10.00" fill="#63b8ff">6</text>
</a>
</g>
</g>
<!-- dir_863ba71b417c0f6a0d6478b90061160e -->
<g id="node6" class="node">
<title>dir_863ba71b417c0f6a0d6478b90061160e</title>
<g id="a_node6"><a xlink:href="dir_863ba71b417c0f6a0d6478b90061160e.html" target="_top" xlink:title="mulc">
<polygon fill="#a2b4d6" stroke="#404040" points="335.5,-76 298.5,-76 298.5,-56 335.5,-56 335.5,-76"/>
<text xml:space="preserve" text-anchor="middle" x="317" y="-62.5" font-family="Helvetica,sans-Serif" font-size="10.00">mulc</text>
</a>
</g>
</g>
<!-- dir_863ba71b417c0f6a0d6478b90061160e&#45;&gt;dir_9daa05842a3b93b9b84970416d2aacb6 -->
<g id="edge4" class="edge">
<title>dir_863ba71b417c0f6a0d6478b90061160e&#45;&gt;dir_9daa05842a3b93b9b84970416d2aacb6</title>
<g id="a_edge4"><a xlink:href="dir_000291_000077.html" target="_top">
<path fill="none" stroke="#63b8ff" d="M312.47,-55.59C309.15,-48.7 304.53,-39.1 300.42,-30.57"/>
<polygon fill="#63b8ff" stroke="#63b8ff" points="303.63,-29.15 296.13,-21.66 297.32,-32.19 303.63,-29.15"/>
</a>
</g>
<g id="a_edge4&#45;headlabel"><a xlink:href="dir_000291_000077.html" target="_top" xlink:title="3">
<text xml:space="preserve" text-anchor="middle" x="307.09" y="-26.3" font-family="Helvetica,sans-Serif" font-size="10.00" fill="#63b8ff">3</text>
</a>
</g>
</g>
<!-- dir_795fdf6cfe04e9d891b9433a7dd4ba04 -->
<g id="node7" class="node">
<title>dir_795fdf6cfe04e9d891b9433a7dd4ba04</title>
<g id="a_node7"><a xlink:href="dir_795fdf6cfe04e9d891b9433a7dd4ba04.html" target="_top" xlink:title="sqrt">
<polygon fill="#a2b4d6" stroke="#404040" points="386.25,-76 353.75,-76 353.75,-56 386.25,-56 386.25,-76"/>
<text xml:space="preserve" text-anchor="middle" x="370" y="-62.5" font-family="Helvetica,sans-Serif" font-size="10.00">sqrt</text>
</a>
</g>
</g>
<!-- dir_795fdf6cfe04e9d891b9433a7dd4ba04&#45;&gt;dir_9daa05842a3b93b9b84970416d2aacb6 -->
<g id="edge5" class="edge">
<title>dir_795fdf6cfe04e9d891b9433a7dd4ba04&#45;&gt;dir_9daa05842a3b93b9b84970416d2aacb6</title>
<g id="a_edge5"><a xlink:href="dir_000310_000077.html" target="_top">
<path fill="none" stroke="#63b8ff" d="M361.79,-55.54C357.17,-50.55 351.11,-44.54 345,-40 337.95,-34.76 329.84,-29.89 322.08,-25.69"/>
<polygon fill="#63b8ff" stroke="#63b8ff" points="323.69,-22.58 313.2,-21.1 320.48,-28.8 323.69,-22.58"/>
</a>
</g>
<g id="a_edge5&#45;headlabel"><a xlink:href="dir_000310_000077.html" target="_top" xlink:title="1">
<text xml:space="preserve" text-anchor="middle" x="326.84" y="-17.51" font-family="Helvetica,sans-Serif" font-size="10.00" fill="#63b8ff">1</text>
</a>
</g>
</g>
<!-- dir_51ab95c0c1752364bb597d00479fa671 -->
<g id="node8" class="node">
<title>dir_51ab95c0c1752364bb597d00479fa671</title>
<g id="a_node8"><a xlink:href="dir_51ab95c0c1752364bb597d00479fa671.html" target="_top" xlink:title="sub">
<polygon fill="#a2b4d6" stroke="#404040" points="435.88,-76 404.12,-76 404.12,-56 435.88,-56 435.88,-76"/>
<text xml:space="preserve" text-anchor="middle" x="420" y="-62.5" font-family="Helvetica,sans-Serif" font-size="10.00">sub</text>
</a>
</g>
</g>
<!-- dir_51ab95c0c1752364bb597d00479fa671&#45;&gt;dir_9daa05842a3b93b9b84970416d2aacb6 -->
<g id="edge6" class="edge">
<title>dir_51ab95c0c1752364bb597d00479fa671&#45;&gt;dir_9daa05842a3b93b9b84970416d2aacb6</title>
<g id="a_edge6"><a xlink:href="dir_000354_000077.html" target="_top">
<path fill="none" stroke="#63b8ff" d="M413.01,-55.96C408.42,-50.61 402,-44.09 395,-40 381.06,-31.86 364.74,-25.91 349.21,-21.61"/>
<polygon fill="#63b8ff" stroke="#63b8ff" points="350.1,-18.23 339.55,-19.13 348.36,-25.01 350.1,-18.23"/>
</a>
</g>
<g id="a_edge6&#45;headlabel"><a xlink:href="dir_000354_000077.html" target="_top" xlink:title="6">
<text xml:space="preserve" text-anchor="middle" x="352.83" y="-12.49" font-family="Helvetica,sans-Serif" font-size="10.00" fill="#63b8ff">6</text>
</a>
</g>
</g>
</g>
</svg>
