<?xml version="1.0" encoding="UTF-8" standalone="no"?>
<!DOCTYPE svg PUBLIC "-//W3C//DTD SVG 1.1//EN"
 "http://www.w3.org/Graphics/SVG/1.1/DTD/svg11.dtd">
<!-- Generated by graphviz version 14.0.5 (0)
 -->
<!-- Title: managed_components/espressif__esp&#45;dsp/examples Pages: 1 -->
<svg width="1033pt" height="129pt"
 viewBox="0.00 0.00 1033.00 129.00" xmlns="http://www.w3.org/2000/svg" xmlns:xlink="http://www.w3.org/1999/xlink">
<g id="graph0" class="graph" transform="scale(1 1) rotate(0) translate(4 124.5)">
<title>managed_components/espressif__esp&#45;dsp/examples</title>
<g id="clust1" class="cluster">
<title>clusterdir_d664d8157ae9d72e0e60106055df655c</title>
<g id="a_clust1"><a xlink:href="dir_d664d8157ae9d72e0e60106055df655c.html" target="_top" xlink:title="espressif__esp&#45;dsp">
<polygon fill="#edf0f7" stroke="#7f7f7f" stroke-dasharray="5,2" points="8,-40.5 8,-112.5 1017,-112.5 1017,-40.5 8,-40.5"/>
<text xml:space="preserve" text-anchor="middle" x="512.5" y="-99" font-family="Helvetica,sans-Serif" font-size="10.00">espressif__esp&#45;dsp</text>
</a>
</g>
</g>
<g id="clust2" class="cluster">
<title>clusterdir_e2bb5d766a2833f3129ff261f1c9d240</title>
<g id="a_clust2"><a xlink:href="dir_e2bb5d766a2833f3129ff261f1c9d240.html" target="_top">
<polygon fill="#edf0f7" stroke="#404040" stroke-width="2" points="16,-48.5 16,-84.5 1009,-84.5 1009,-48.5 16,-48.5"/>
</a>
</g>
</g>
<!-- dir_e2bb5d766a2833f3129ff261f1c9d240 -->
<g id="node1" class="node">
<title>dir_e2bb5d766a2833f3129ff261f1c9d240</title>
<text xml:space="preserve" text-anchor="middle" x="53" y="-63" font-family="Helvetica,sans-Serif" font-size="10.00">examples</text>
</g>
<!-- dir_ddad3b6dfd1b4a84674e7152a389cc16 -->
<g id="node2" class="node">
<title>dir_ddad3b6dfd1b4a84674e7152a389cc16</title>
<g id="a_node2"><a xlink:href="dir_ddad3b6dfd1b4a84674e7152a389cc16.html" target="_top" xlink:title="applications">
<polygon fill="#a2b4d6" stroke="#404040" points="167.88,-76.5 100.12,-76.5 100.12,-56.5 167.88,-56.5 167.88,-76.5"/>
<text xml:space="preserve" text-anchor="middle" x="134" y="-63" font-family="Helvetica,sans-Serif" font-size="10.00">applications</text>
</a>
</g>
</g>
<!-- dir_1abc8123c65a6820b7c22aa95e74e261 -->
<g id="node3" class="node">
<title>dir_1abc8123c65a6820b7c22aa95e74e261</title>
<g id="a_node3"><a xlink:href="dir_1abc8123c65a6820b7c22aa95e74e261.html" target="_top" xlink:title="apps">
<polygon fill="#a2b4d6" stroke="#404040" points="222.5,-76.5 185.5,-76.5 185.5,-56.5 222.5,-56.5 222.5,-76.5"/>
<text xml:space="preserve" text-anchor="middle" x="204" y="-63" font-family="Helvetica,sans-Serif" font-size="10.00">apps</text>
</a>
</g>
</g>
<!-- dir_25483ca9ad059ccb45d8533eee584249 -->
<g id="node4" class="node">
<title>dir_25483ca9ad059ccb45d8533eee584249</title>
<g id="a_node4"><a xlink:href="dir_25483ca9ad059ccb45d8533eee584249.html" target="_top" xlink:title="azure_board_apps">
<polygon fill="#a2b4d6" stroke="#404040" points="335.75,-76.5 240.25,-76.5 240.25,-56.5 335.75,-56.5 335.75,-76.5"/>
<text xml:space="preserve" text-anchor="middle" x="288" y="-63" font-family="Helvetica,sans-Serif" font-size="10.00">azure_board_apps</text>
</a>
</g>
</g>
<!-- dir_d5b24628c4f90f7eae468d7aaca41bc1 -->
<g id="node5" class="node">
<title>dir_d5b24628c4f90f7eae468d7aaca41bc1</title>
<g id="a_node5"><a xlink:href="dir_d5b24628c4f90f7eae468d7aaca41bc1.html" target="_top" xlink:title="basic_math">
<polygon fill="#a2b4d6" stroke="#404040" points="420.12,-76.5 353.88,-76.5 353.88,-56.5 420.12,-56.5 420.12,-76.5"/>
<text xml:space="preserve" text-anchor="middle" x="387" y="-63" font-family="Helvetica,sans-Serif" font-size="10.00">basic_math</text>
</a>
</g>
</g>
<!-- dir_9daa05842a3b93b9b84970416d2aacb6 -->
<g id="node15" class="node">
<title>dir_9daa05842a3b93b9b84970416d2aacb6</title>
<g id="a_node15"><a xlink:href="dir_9daa05842a3b93b9b84970416d2aacb6.html" target="_top" xlink:title="espressif__nghttp">
<polygon fill="#edf0f7" stroke="red" stroke-dasharray="5,2" points="656.62,-20.5 563.38,-20.5 563.38,-0.5 656.62,-0.5 656.62,-20.5"/>
<text xml:space="preserve" text-anchor="middle" x="610" y="-7" font-family="Helvetica,sans-Serif" font-size="10.00">espressif__nghttp</text>
</a>
</g>
</g>
<!-- dir_d5b24628c4f90f7eae468d7aaca41bc1&#45;&gt;dir_9daa05842a3b93b9b84970416d2aacb6 -->
<g id="edge1" class="edge">
<title>dir_d5b24628c4f90f7eae468d7aaca41bc1&#45;&gt;dir_9daa05842a3b93b9b84970416d2aacb6</title>
<g id="a_edge1"><a xlink:href="dir_000033_000077.html" target="_top">
<path fill="none" stroke="#63b8ff" d="M399.97,-56.03C407.96,-50.65 418.63,-44.26 429,-40.5 468.55,-26.16 515.52,-18.9 551.7,-15.22"/>
<polygon fill="#63b8ff" stroke="#63b8ff" points="551.91,-18.72 561.53,-14.3 551.25,-11.75 551.91,-18.72"/>
</a>
</g>
<g id="a_edge1&#45;headlabel"><a xlink:href="dir_000033_000077.html" target="_top" xlink:title="1">
<text xml:space="preserve" text-anchor="middle" x="550.1" y="-18.24" font-family="Helvetica,sans-Serif" font-size="10.00" fill="#63b8ff">1</text>
</a>
</g>
</g>
<!-- dir_b985312f4fc3c6b852f1ceb2f935692d -->
<g id="node6" class="node">
<title>dir_b985312f4fc3c6b852f1ceb2f935692d</title>
<g id="a_node6"><a xlink:href="dir_b985312f4fc3c6b852f1ceb2f935692d.html" target="_top" xlink:title="dotprod">
<polygon fill="#a2b4d6" stroke="#404040" points="486.12,-76.5 437.88,-76.5 437.88,-56.5 486.12,-56.5 486.12,-76.5"/>
<text xml:space="preserve" text-anchor="middle" x="462" y="-63" font-family="Helvetica,sans-Serif" font-size="10.00">dotprod</text>
</a>
</g>
</g>
<!-- dir_b985312f4fc3c6b852f1ceb2f935692d&#45;&gt;dir_9daa05842a3b93b9b84970416d2aacb6 -->
<g id="edge2" class="edge">
<title>dir_b985312f4fc3c6b852f1ceb2f935692d&#45;&gt;dir_9daa05842a3b93b9b84970416d2aacb6</title>
<g id="a_edge2"><a xlink:href="dir_000070_000077.html" target="_top">
<path fill="none" stroke="#63b8ff" d="M472.64,-56.01C479.02,-50.76 487.52,-44.51 496,-40.5 513.43,-32.26 533.51,-26.16 551.91,-21.73"/>
<polygon fill="#63b8ff" stroke="#63b8ff" points="552.66,-25.15 561.64,-19.52 551.11,-18.32 552.66,-25.15"/>
</a>
</g>
<g id="a_edge2&#45;headlabel"><a xlink:href="dir_000070_000077.html" target="_top" xlink:title="1">
<text xml:space="preserve" text-anchor="middle" x="551.26" y="-24.88" font-family="Helvetica,sans-Serif" font-size="10.00" fill="#63b8ff">1</text>
</a>
</g>
</g>
<!-- dir_e116c1a9ce5e1711575950679a4e804f -->
<g id="node7" class="node">
<title>dir_e116c1a9ce5e1711575950679a4e804f</title>
<g id="a_node7"><a xlink:href="dir_e116c1a9ce5e1711575950679a4e804f.html" target="_top" xlink:title="fft">
<polygon fill="#a2b4d6" stroke="#404040" points="533.4,-76.5 504.6,-76.5 504.6,-56.5 533.4,-56.5 533.4,-76.5"/>
<text xml:space="preserve" text-anchor="middle" x="519" y="-63" font-family="Helvetica,sans-Serif" font-size="10.00">fft</text>
</a>
</g>
</g>
<!-- dir_e116c1a9ce5e1711575950679a4e804f&#45;&gt;dir_9daa05842a3b93b9b84970416d2aacb6 -->
<g id="edge3" class="edge">
<title>dir_e116c1a9ce5e1711575950679a4e804f&#45;&gt;dir_9daa05842a3b93b9b84970416d2aacb6</title>
<g id="a_edge3"><a xlink:href="dir_000085_000077.html" target="_top">
<path fill="none" stroke="#63b8ff" d="M525.88,-56.27C530.08,-51.11 535.83,-44.86 542,-40.5 550.45,-34.53 560.33,-29.44 569.89,-25.27"/>
<polygon fill="#63b8ff" stroke="#63b8ff" points="571.13,-28.55 579.06,-21.53 568.48,-22.07 571.13,-28.55"/>
</a>
</g>
<g id="a_edge3&#45;headlabel"><a xlink:href="dir_000085_000077.html" target="_top" xlink:title="1">
<text xml:space="preserve" text-anchor="middle" x="570.27" y="-28.47" font-family="Helvetica,sans-Serif" font-size="10.00" fill="#63b8ff">1</text>
</a>
</g>
</g>
<!-- dir_52c70609641a06106a381c30d4d0f866 -->
<g id="node8" class="node">
<title>dir_52c70609641a06106a381c30d4d0f866</title>
<g id="a_node8"><a xlink:href="dir_52c70609641a06106a381c30d4d0f866.html" target="_top" xlink:title="fft4real">
<polygon fill="#a2b4d6" stroke="#404040" points="596.62,-76.5 551.38,-76.5 551.38,-56.5 596.62,-56.5 596.62,-76.5"/>
<text xml:space="preserve" text-anchor="middle" x="574" y="-63" font-family="Helvetica,sans-Serif" font-size="10.00">fft4real</text>
</a>
</g>
</g>
<!-- dir_52c70609641a06106a381c30d4d0f866&#45;&gt;dir_9daa05842a3b93b9b84970416d2aacb6 -->
<g id="edge4" class="edge">
<title>dir_52c70609641a06106a381c30d4d0f866&#45;&gt;dir_9daa05842a3b93b9b84970416d2aacb6</title>
<g id="a_edge4"><a xlink:href="dir_000087_000077.html" target="_top">
<path fill="none" stroke="#63b8ff" d="M580.27,-56.09C585.02,-48.97 591.7,-38.95 597.52,-30.22"/>
<polygon fill="#63b8ff" stroke="#63b8ff" points="600.33,-32.32 602.96,-22.06 594.5,-28.44 600.33,-32.32"/>
</a>
</g>
<g id="a_edge4&#45;headlabel"><a xlink:href="dir_000087_000077.html" target="_top" xlink:title="1">
<text xml:space="preserve" text-anchor="middle" x="601.53" y="-32.13" font-family="Helvetica,sans-Serif" font-size="10.00" fill="#63b8ff">1</text>
</a>
</g>
</g>
<!-- dir_b605ca7679c19299ec87c3255c4bb3f7 -->
<g id="node9" class="node">
<title>dir_b605ca7679c19299ec87c3255c4bb3f7</title>
<g id="a_node9"><a xlink:href="dir_b605ca7679c19299ec87c3255c4bb3f7.html" target="_top" xlink:title="fft_window">
<polygon fill="#a2b4d6" stroke="#404040" points="677.25,-76.5 614.75,-76.5 614.75,-56.5 677.25,-56.5 677.25,-76.5"/>
<text xml:space="preserve" text-anchor="middle" x="646" y="-63" font-family="Helvetica,sans-Serif" font-size="10.00">fft_window</text>
</a>
</g>
</g>
<!-- dir_b605ca7679c19299ec87c3255c4bb3f7&#45;&gt;dir_9daa05842a3b93b9b84970416d2aacb6 -->
<g id="edge5" class="edge">
<title>dir_b605ca7679c19299ec87c3255c4bb3f7&#45;&gt;dir_9daa05842a3b93b9b84970416d2aacb6</title>
<g id="a_edge5"><a xlink:href="dir_000088_000077.html" target="_top">
<path fill="none" stroke="#63b8ff" d="M639.73,-56.09C634.98,-48.97 628.3,-38.95 622.48,-30.22"/>
<polygon fill="#63b8ff" stroke="#63b8ff" points="625.5,-28.44 617.04,-22.06 619.67,-32.32 625.5,-28.44"/>
</a>
</g>
<g id="a_edge5&#45;headlabel"><a xlink:href="dir_000088_000077.html" target="_top" xlink:title="1">
<text xml:space="preserve" text-anchor="middle" x="629.01" y="-25.09" font-family="Helvetica,sans-Serif" font-size="10.00" fill="#63b8ff">1</text>
</a>
</g>
</g>
<!-- dir_03a693232e567cc885934255746d230a -->
<g id="node10" class="node">
<title>dir_03a693232e567cc885934255746d230a</title>
<g id="a_node10"><a xlink:href="dir_03a693232e567cc885934255746d230a.html" target="_top" xlink:title="fir">
<polygon fill="#a2b4d6" stroke="#404040" points="724.4,-76.5 695.6,-76.5 695.6,-56.5 724.4,-56.5 724.4,-76.5"/>
<text xml:space="preserve" text-anchor="middle" x="710" y="-63" font-family="Helvetica,sans-Serif" font-size="10.00">fir</text>
</a>
</g>
</g>
<!-- dir_cf5b335ab94549f6c7dd29a57b2fe7ca -->
<g id="node11" class="node">
<title>dir_cf5b335ab94549f6c7dd29a57b2fe7ca</title>
<g id="a_node11"><a xlink:href="dir_cf5b335ab94549f6c7dd29a57b2fe7ca.html" target="_top" xlink:title="iir">
<polygon fill="#a2b4d6" stroke="#404040" points="771.4,-76.5 742.6,-76.5 742.6,-56.5 771.4,-56.5 771.4,-76.5"/>
<text xml:space="preserve" text-anchor="middle" x="757" y="-63" font-family="Helvetica,sans-Serif" font-size="10.00">iir</text>
</a>
</g>
</g>
<!-- dir_cf5b335ab94549f6c7dd29a57b2fe7ca&#45;&gt;dir_9daa05842a3b93b9b84970416d2aacb6 -->
<g id="edge6" class="edge">
<title>dir_cf5b335ab94549f6c7dd29a57b2fe7ca&#45;&gt;dir_9daa05842a3b93b9b84970416d2aacb6</title>
<g id="a_edge6"><a xlink:href="dir_000137_000077.html" target="_top">
<path fill="none" stroke="#63b8ff" d="M750.42,-56.36C746.06,-50.96 739.9,-44.44 733,-40.5 713.38,-29.3 689.63,-22.42 668.26,-18.19"/>
<polygon fill="#63b8ff" stroke="#63b8ff" points="668.96,-14.76 658.5,-16.43 667.72,-21.65 668.96,-14.76"/>
</a>
</g>
<g id="a_edge6&#45;headlabel"><a xlink:href="dir_000137_000077.html" target="_top" xlink:title="1">
<text xml:space="preserve" text-anchor="middle" x="671.51" y="-8.84" font-family="Helvetica,sans-Serif" font-size="10.00" fill="#63b8ff">1</text>
</a>
</g>
</g>
<!-- dir_575f7cd2ca72cd5074db6c9a2984a80d -->
<g id="node12" class="node">
<title>dir_575f7cd2ca72cd5074db6c9a2984a80d</title>
<g id="a_node12"><a xlink:href="dir_575f7cd2ca72cd5074db6c9a2984a80d.html" target="_top" xlink:title="kalman">
<polygon fill="#a2b4d6" stroke="#404040" points="836.75,-76.5 789.25,-76.5 789.25,-56.5 836.75,-56.5 836.75,-76.5"/>
<text xml:space="preserve" text-anchor="middle" x="813" y="-63" font-family="Helvetica,sans-Serif" font-size="10.00">kalman</text>
</a>
</g>
</g>
<!-- dir_575f7cd2ca72cd5074db6c9a2984a80d&#45;&gt;dir_9daa05842a3b93b9b84970416d2aacb6 -->
<g id="edge7" class="edge">
<title>dir_575f7cd2ca72cd5074db6c9a2984a80d&#45;&gt;dir_9daa05842a3b93b9b84970416d2aacb6</title>
<g id="a_edge7"><a xlink:href="dir_000184_000077.html" target="_top">
<path fill="none" stroke="#63b8ff" d="M803.4,-56.24C797.21,-50.8 788.71,-44.27 780,-40.5 744.58,-25.16 701.72,-17.92 667.89,-14.51"/>
<polygon fill="#63b8ff" stroke="#63b8ff" points="668.58,-11.05 658.3,-13.63 667.94,-18.02 668.58,-11.05"/>
</a>
</g>
<g id="a_edge7&#45;headlabel"><a xlink:href="dir_000184_000077.html" target="_top" xlink:title="1">
<text xml:space="preserve" text-anchor="middle" x="670.91" y="-4.92" font-family="Helvetica,sans-Serif" font-size="10.00" fill="#63b8ff">1</text>
</a>
</g>
</g>
<!-- dir_71c42555e688a5f6c5ef30b710fe7d9e -->
<g id="node13" class="node">
<title>dir_71c42555e688a5f6c5ef30b710fe7d9e</title>
<g id="a_node13"><a xlink:href="dir_71c42555e688a5f6c5ef30b710fe7d9e.html" target="_top" xlink:title="lyrat_board_app">
<polygon fill="#a2b4d6" stroke="#404040" points="939.5,-76.5 854.5,-76.5 854.5,-56.5 939.5,-56.5 939.5,-76.5"/>
<text xml:space="preserve" text-anchor="middle" x="897" y="-63" font-family="Helvetica,sans-Serif" font-size="10.00">lyrat_board_app</text>
</a>
</g>
</g>
<!-- dir_6c5d87ae45653b2a42617330d5004cf5 -->
<g id="node14" class="node">
<title>dir_6c5d87ae45653b2a42617330d5004cf5</title>
<g id="a_node14"><a xlink:href="dir_6c5d87ae45653b2a42617330d5004cf5.html" target="_top" xlink:title="matrix">
<polygon fill="#a2b4d6" stroke="#404040" points="1000.5,-76.5 957.5,-76.5 957.5,-56.5 1000.5,-56.5 1000.5,-76.5"/>
<text xml:space="preserve" text-anchor="middle" x="979" y="-63" font-family="Helvetica,sans-Serif" font-size="10.00">matrix</text>
</a>
</g>
</g>
<!-- dir_6c5d87ae45653b2a42617330d5004cf5&#45;&gt;dir_9daa05842a3b93b9b84970416d2aacb6 -->
<g id="edge8" class="edge">
<title>dir_6c5d87ae45653b2a42617330d5004cf5&#45;&gt;dir_9daa05842a3b93b9b84970416d2aacb6</title>
<g id="a_edge8"><a xlink:href="dir_000222_000077.html" target="_top">
<path fill="none" stroke="#63b8ff" d="M970.78,-56.23C965.23,-50.64 957.4,-43.95 949,-40.5 899.69,-20.23 751.37,-14.13 668.19,-12.29"/>
<polygon fill="#63b8ff" stroke="#63b8ff" points="668.48,-8.8 658.41,-12.09 668.34,-15.79 668.48,-8.8"/>
</a>
</g>
<g id="a_edge8&#45;headlabel"><a xlink:href="dir_000222_000077.html" target="_top" xlink:title="1">
<text xml:space="preserve" text-anchor="middle" x="670.62" y="-2.5" font-family="Helvetica,sans-Serif" font-size="10.00" fill="#63b8ff">1</text>
</a>
</g>
</g>
</g>
</svg>
