<?xml version="1.0" encoding="UTF-8" standalone="no"?>
<!DOCTYPE svg PUBLIC "-//W3C//DTD SVG 1.1//EN"
 "http://www.w3.org/Graphics/SVG/1.1/DTD/svg11.dtd">
<!-- Generated by graphviz version 14.0.5 (0)
 -->
<!-- Title: managed_components/espressif__esp&#45;dsp/modules Pages: 1 -->
<svg width="810pt" height="129pt"
 viewBox="0.00 0.00 810.00 129.00" xmlns="http://www.w3.org/2000/svg" xmlns:xlink="http://www.w3.org/1999/xlink">
<g id="graph0" class="graph" transform="scale(1 1) rotate(0) translate(4 124.82)">
<title>managed_components/espressif__esp&#45;dsp/modules</title>
<g id="clust1" class="cluster">
<title>clusterdir_d664d8157ae9d72e0e60106055df655c</title>
<g id="a_clust1"><a xlink:href="dir_d664d8157ae9d72e0e60106055df655c.html" target="_top" xlink:title="espressif__esp&#45;dsp">
<polygon fill="#edf0f7" stroke="#7f7f7f" stroke-dasharray="5,2" points="8,-40.82 8,-112.82 794,-112.82 794,-40.82 8,-40.82"/>
<text xml:space="preserve" text-anchor="middle" x="401" y="-99.32" font-family="Helvetica,sans-Serif" font-size="10.00">espressif__esp&#45;dsp</text>
</a>
</g>
</g>
<g id="clust2" class="cluster">
<title>clusterdir_3bf3a97e32185532199c0772cc9a670c</title>
<g id="a_clust2"><a xlink:href="dir_3bf3a97e32185532199c0772cc9a670c.html" target="_top">
<polygon fill="#edf0f7" stroke="#404040" stroke-width="2" points="16,-48.82 16,-84.82 786,-84.82 786,-48.82 16,-48.82"/>
</a>
</g>
</g>
<!-- dir_3bf3a97e32185532199c0772cc9a670c -->
<g id="node1" class="node">
<title>dir_3bf3a97e32185532199c0772cc9a670c</title>
<text xml:space="preserve" text-anchor="middle" x="50" y="-63.32" font-family="Helvetica,sans-Serif" font-size="10.00">modules</text>
</g>
<!-- dir_44b9bd0f56a9a584091a91231310c1ac -->
<g id="node2" class="node">
<title>dir_44b9bd0f56a9a584091a91231310c1ac</title>
<g id="a_node2"><a xlink:href="dir_44b9bd0f56a9a584091a91231310c1ac.html" target="_top" xlink:title="common">
<polygon fill="#a2b4d6" stroke="#404040" points="147.75,-76.82 94.25,-76.82 94.25,-56.82 147.75,-56.82 147.75,-76.82"/>
<text xml:space="preserve" text-anchor="middle" x="121" y="-63.32" font-family="Helvetica,sans-Serif" font-size="10.00">common</text>
</a>
</g>
</g>
<!-- dir_e30a895d37dd3330b4f0558789c817d7 -->
<g id="node3" class="node">
<title>dir_e30a895d37dd3330b4f0558789c817d7</title>
<g id="a_node3"><a xlink:href="dir_e30a895d37dd3330b4f0558789c817d7.html" target="_top" xlink:title="conv">
<polygon fill="#a2b4d6" stroke="#404040" points="202.5,-76.82 165.5,-76.82 165.5,-56.82 202.5,-56.82 202.5,-76.82"/>
<text xml:space="preserve" text-anchor="middle" x="184" y="-63.32" font-family="Helvetica,sans-Serif" font-size="10.00">conv</text>
</a>
</g>
</g>
<!-- dir_9daa05842a3b93b9b84970416d2aacb6 -->
<g id="node14" class="node">
<title>dir_9daa05842a3b93b9b84970416d2aacb6</title>
<g id="a_node14"><a xlink:href="dir_9daa05842a3b93b9b84970416d2aacb6.html" target="_top" xlink:title="espressif__nghttp">
<polygon fill="#edf0f7" stroke="red" stroke-dasharray="5,2" points="489.62,-20.82 396.38,-20.82 396.38,-0.82 489.62,-0.82 489.62,-20.82"/>
<text xml:space="preserve" text-anchor="middle" x="443" y="-7.32" font-family="Helvetica,sans-Serif" font-size="10.00">espressif__nghttp</text>
</a>
</g>
</g>
<!-- dir_e30a895d37dd3330b4f0558789c817d7&#45;&gt;dir_9daa05842a3b93b9b84970416d2aacb6 -->
<g id="edge1" class="edge">
<title>dir_e30a895d37dd3330b4f0558789c817d7&#45;&gt;dir_9daa05842a3b93b9b84970416d2aacb6</title>
<g id="a_edge1"><a xlink:href="dir_000060_000077.html" target="_top">
<path fill="none" stroke="#63b8ff" d="M191.49,-56.41C196.42,-50.91 203.36,-44.38 211,-40.82 240.89,-26.91 326.24,-18.98 384.64,-15.04"/>
<polygon fill="#63b8ff" stroke="#63b8ff" points="384.68,-18.54 394.43,-14.4 384.22,-11.56 384.68,-18.54"/>
</a>
</g>
<g id="a_edge1&#45;headlabel"><a xlink:href="dir_000060_000077.html" target="_top" xlink:title="6">
<text xml:space="preserve" text-anchor="middle" x="382.79" y="-18.01" font-family="Helvetica,sans-Serif" font-size="10.00" fill="#63b8ff">6</text>
</a>
</g>
</g>
<!-- dir_4d1c0af5c405760702fe3f896d4894a6 -->
<g id="node4" class="node">
<title>dir_4d1c0af5c405760702fe3f896d4894a6</title>
<g id="a_node4"><a xlink:href="dir_4d1c0af5c405760702fe3f896d4894a6.html" target="_top" xlink:title="dct">
<polygon fill="#a2b4d6" stroke="#404040" points="249.75,-76.82 220.25,-76.82 220.25,-56.82 249.75,-56.82 249.75,-76.82"/>
<text xml:space="preserve" text-anchor="middle" x="235" y="-63.32" font-family="Helvetica,sans-Serif" font-size="10.00">dct</text>
</a>
</g>
</g>
<!-- dir_4d1c0af5c405760702fe3f896d4894a6&#45;&gt;dir_9daa05842a3b93b9b84970416d2aacb6 -->
<g id="edge2" class="edge">
<title>dir_4d1c0af5c405760702fe3f896d4894a6&#45;&gt;dir_9daa05842a3b93b9b84970416d2aacb6</title>
<g id="a_edge2"><a xlink:href="dir_000065_000077.html" target="_top">
<path fill="none" stroke="#63b8ff" d="M241.48,-56.49C245.8,-51.03 251.96,-44.49 259,-40.82 297.84,-20.55 347.11,-13.61 384.88,-11.57"/>
<polygon fill="#63b8ff" stroke="#63b8ff" points="384.86,-15.07 394.7,-11.15 384.56,-8.08 384.86,-15.07"/>
</a>
</g>
<g id="a_edge2&#45;headlabel"><a xlink:href="dir_000065_000077.html" target="_top" xlink:title="1">
<text xml:space="preserve" text-anchor="middle" x="382.9" y="-14.5" font-family="Helvetica,sans-Serif" font-size="10.00" fill="#63b8ff">1</text>
</a>
</g>
</g>
<!-- dir_68807f76276551427f9ff60549bfb7bc -->
<g id="node5" class="node">
<title>dir_68807f76276551427f9ff60549bfb7bc</title>
<g id="a_node5"><a xlink:href="dir_68807f76276551427f9ff60549bfb7bc.html" target="_top" xlink:title="dotprod">
<polygon fill="#a2b4d6" stroke="#404040" points="316.12,-76.82 267.88,-76.82 267.88,-56.82 316.12,-56.82 316.12,-76.82"/>
<text xml:space="preserve" text-anchor="middle" x="292" y="-63.32" font-family="Helvetica,sans-Serif" font-size="10.00">dotprod</text>
</a>
</g>
</g>
<!-- dir_68807f76276551427f9ff60549bfb7bc&#45;&gt;dir_9daa05842a3b93b9b84970416d2aacb6 -->
<g id="edge3" class="edge">
<title>dir_68807f76276551427f9ff60549bfb7bc&#45;&gt;dir_9daa05842a3b93b9b84970416d2aacb6</title>
<g id="a_edge3"><a xlink:href="dir_000071_000077.html" target="_top">
<path fill="none" stroke="#63b8ff" d="M302.33,-56.55C308.74,-51.25 317.38,-44.86 326,-40.82 344.37,-32.2 365.61,-25.95 384.91,-21.51"/>
<polygon fill="#63b8ff" stroke="#63b8ff" points="385.51,-24.97 394.54,-19.43 384.02,-18.13 385.51,-24.97"/>
</a>
</g>
<g id="a_edge3&#45;headlabel"><a xlink:href="dir_000071_000077.html" target="_top" xlink:title="21">
<text xml:space="preserve" text-anchor="middle" x="384.08" y="-24.68" font-family="Helvetica,sans-Serif" font-size="10.00" fill="#63b8ff">21</text>
</a>
</g>
</g>
<!-- dir_4bb2f531d80d4afb0b27a3d46cc36310 -->
<g id="node6" class="node">
<title>dir_4bb2f531d80d4afb0b27a3d46cc36310</title>
<g id="a_node6"><a xlink:href="dir_4bb2f531d80d4afb0b27a3d46cc36310.html" target="_top" xlink:title="fft">
<polygon fill="#a2b4d6" stroke="#404040" points="363.4,-76.82 334.6,-76.82 334.6,-56.82 363.4,-56.82 363.4,-76.82"/>
<text xml:space="preserve" text-anchor="middle" x="349" y="-63.32" font-family="Helvetica,sans-Serif" font-size="10.00">fft</text>
</a>
</g>
</g>
<!-- dir_4bb2f531d80d4afb0b27a3d46cc36310&#45;&gt;dir_9daa05842a3b93b9b84970416d2aacb6 -->
<g id="edge4" class="edge">
<title>dir_4bb2f531d80d4afb0b27a3d46cc36310&#45;&gt;dir_9daa05842a3b93b9b84970416d2aacb6</title>
<g id="a_edge4"><a xlink:href="dir_000086_000077.html" target="_top">
<path fill="none" stroke="#63b8ff" d="M356.23,-56.58C360.64,-51.41 366.64,-45.16 373,-40.82 381.85,-34.77 392.17,-29.63 402.11,-25.44"/>
<polygon fill="#63b8ff" stroke="#63b8ff" points="403.25,-28.75 411.27,-21.82 400.68,-22.25 403.25,-28.75"/>
</a>
</g>
<g id="a_edge4&#45;headlabel"><a xlink:href="dir_000086_000077.html" target="_top" xlink:title="9">
<text xml:space="preserve" text-anchor="middle" x="402.36" y="-28.66" font-family="Helvetica,sans-Serif" font-size="10.00" fill="#63b8ff">9</text>
</a>
</g>
</g>
<!-- dir_5999d99c20b48d58ff07e38c2ca37fd5 -->
<g id="node7" class="node">
<title>dir_5999d99c20b48d58ff07e38c2ca37fd5</title>
<g id="a_node7"><a xlink:href="dir_5999d99c20b48d58ff07e38c2ca37fd5.html" target="_top" xlink:title="fir">
<polygon fill="#a2b4d6" stroke="#404040" points="410.4,-76.82 381.6,-76.82 381.6,-56.82 410.4,-56.82 410.4,-76.82"/>
<text xml:space="preserve" text-anchor="middle" x="396" y="-63.32" font-family="Helvetica,sans-Serif" font-size="10.00">fir</text>
</a>
</g>
</g>
<!-- dir_5999d99c20b48d58ff07e38c2ca37fd5&#45;&gt;dir_9daa05842a3b93b9b84970416d2aacb6 -->
<g id="edge5" class="edge">
<title>dir_5999d99c20b48d58ff07e38c2ca37fd5&#45;&gt;dir_9daa05842a3b93b9b84970416d2aacb6</title>
<g id="a_edge5"><a xlink:href="dir_000091_000077.html" target="_top">
<path fill="none" stroke="#63b8ff" d="M404.19,-56.41C410.59,-49.06 419.68,-38.62 427.45,-29.68"/>
<polygon fill="#63b8ff" stroke="#63b8ff" points="429.99,-32.1 433.91,-22.26 424.71,-27.5 429.99,-32.1"/>
</a>
</g>
<g id="a_edge5&#45;headlabel"><a xlink:href="dir_000091_000077.html" target="_top" xlink:title="6">
<text xml:space="preserve" text-anchor="middle" x="430.76" y="-32.03" font-family="Helvetica,sans-Serif" font-size="10.00" fill="#63b8ff">6</text>
</a>
</g>
</g>
<!-- dir_10f91588c7d488c9984247b47d54660e -->
<g id="node8" class="node">
<title>dir_10f91588c7d488c9984247b47d54660e</title>
<g id="a_node8"><a xlink:href="dir_10f91588c7d488c9984247b47d54660e.html" target="_top" xlink:title="iir">
<polygon fill="#a2b4d6" stroke="#404040" points="457.4,-76.82 428.6,-76.82 428.6,-56.82 457.4,-56.82 457.4,-76.82"/>
<text xml:space="preserve" text-anchor="middle" x="443" y="-63.32" font-family="Helvetica,sans-Serif" font-size="10.00">iir</text>
</a>
</g>
</g>
<!-- dir_10f91588c7d488c9984247b47d54660e&#45;&gt;dir_9daa05842a3b93b9b84970416d2aacb6 -->
<g id="edge6" class="edge">
<title>dir_10f91588c7d488c9984247b47d54660e&#45;&gt;dir_9daa05842a3b93b9b84970416d2aacb6</title>
<g id="a_edge6"><a xlink:href="dir_000138_000077.html" target="_top">
<path fill="none" stroke="#63b8ff" d="M443,-56.41C443,-49.83 443,-40.78 443,-32.55"/>
<polygon fill="#63b8ff" stroke="#63b8ff" points="446.5,-32.63 443,-22.63 439.5,-32.63 446.5,-32.63"/>
</a>
</g>
<g id="a_edge6&#45;headlabel"><a xlink:href="dir_000138_000077.html" target="_top" xlink:title="3">
<text xml:space="preserve" text-anchor="middle" x="449.34" y="-31.21" font-family="Helvetica,sans-Serif" font-size="10.00" fill="#63b8ff">3</text>
</a>
</g>
</g>
<!-- dir_ff0b3c8fbc3aa439bde484874690511b -->
<g id="node9" class="node">
<title>dir_ff0b3c8fbc3aa439bde484874690511b</title>
<g id="a_node9"><a xlink:href="dir_ff0b3c8fbc3aa439bde484874690511b.html" target="_top" xlink:title="kalman">
<polygon fill="#a2b4d6" stroke="#404040" points="522.75,-76.82 475.25,-76.82 475.25,-56.82 522.75,-56.82 522.75,-76.82"/>
<text xml:space="preserve" text-anchor="middle" x="499" y="-63.32" font-family="Helvetica,sans-Serif" font-size="10.00">kalman</text>
</a>
</g>
</g>
<!-- dir_ff0b3c8fbc3aa439bde484874690511b&#45;&gt;dir_9daa05842a3b93b9b84970416d2aacb6 -->
<g id="edge7" class="edge">
<title>dir_ff0b3c8fbc3aa439bde484874690511b&#45;&gt;dir_9daa05842a3b93b9b84970416d2aacb6</title>
<g id="a_edge7"><a xlink:href="dir_000185_000077.html" target="_top">
<path fill="none" stroke="#63b8ff" d="M489.25,-56.41C481.38,-48.83 470.1,-37.95 460.65,-28.84"/>
<polygon fill="#63b8ff" stroke="#63b8ff" points="463.36,-26.59 453.73,-22.17 458.5,-31.63 463.36,-26.59"/>
</a>
</g>
<g id="a_edge7&#45;headlabel"><a xlink:href="dir_000185_000077.html" target="_top" xlink:title="1">
<text xml:space="preserve" text-anchor="middle" x="466.83" y="-22.49" font-family="Helvetica,sans-Serif" font-size="10.00" fill="#63b8ff">1</text>
</a>
</g>
</g>
<!-- dir_f2f8f0c07abc31f661c7868ee2541c99 -->
<g id="node10" class="node">
<title>dir_f2f8f0c07abc31f661c7868ee2541c99</title>
<g id="a_node10"><a xlink:href="dir_f2f8f0c07abc31f661c7868ee2541c99.html" target="_top" xlink:title="math">
<polygon fill="#a2b4d6" stroke="#404040" points="578.88,-76.82 541.12,-76.82 541.12,-56.82 578.88,-56.82 578.88,-76.82"/>
<text xml:space="preserve" text-anchor="middle" x="560" y="-63.32" font-family="Helvetica,sans-Serif" font-size="10.00">math</text>
</a>
</g>
</g>
<!-- dir_f2f8f0c07abc31f661c7868ee2541c99&#45;&gt;dir_9daa05842a3b93b9b84970416d2aacb6 -->
<g id="edge8" class="edge">
<title>dir_f2f8f0c07abc31f661c7868ee2541c99&#45;&gt;dir_9daa05842a3b93b9b84970416d2aacb6</title>
<g id="a_edge8"><a xlink:href="dir_000221_000077.html" target="_top">
<path fill="none" stroke="#63b8ff" d="M551.42,-56.44C546.23,-51.23 539.23,-44.98 532,-40.82 520.56,-34.24 507.42,-28.92 494.81,-24.71"/>
<polygon fill="#63b8ff" stroke="#63b8ff" points="495.96,-21.41 485.37,-21.76 493.87,-28.09 495.96,-21.41"/>
</a>
</g>
<g id="a_edge8&#45;headlabel"><a xlink:href="dir_000221_000077.html" target="_top" xlink:title="23">
<text xml:space="preserve" text-anchor="middle" x="498.79" y="-15.82" font-family="Helvetica,sans-Serif" font-size="10.00" fill="#63b8ff">23</text>
</a>
</g>
</g>
<!-- dir_cabc96c1b2ff51b7d4bec4ff54a5d0df -->
<g id="node11" class="node">
<title>dir_cabc96c1b2ff51b7d4bec4ff54a5d0df</title>
<g id="a_node11"><a xlink:href="dir_cabc96c1b2ff51b7d4bec4ff54a5d0df.html" target="_top" xlink:title="matrix">
<polygon fill="#a2b4d6" stroke="#404040" points="639.5,-76.82 596.5,-76.82 596.5,-56.82 639.5,-56.82 639.5,-76.82"/>
<text xml:space="preserve" text-anchor="middle" x="618" y="-63.32" font-family="Helvetica,sans-Serif" font-size="10.00">matrix</text>
</a>
</g>
</g>
<!-- dir_cabc96c1b2ff51b7d4bec4ff54a5d0df&#45;&gt;dir_9daa05842a3b93b9b84970416d2aacb6 -->
<g id="edge9" class="edge">
<title>dir_cabc96c1b2ff51b7d4bec4ff54a5d0df&#45;&gt;dir_9daa05842a3b93b9b84970416d2aacb6</title>
<g id="a_edge9"><a xlink:href="dir_000223_000077.html" target="_top">
<path fill="none" stroke="#63b8ff" d="M609.13,-56.38C603.56,-51.01 595.95,-44.62 588,-40.82 561.05,-27.93 528.64,-20.77 501.3,-16.79"/>
<polygon fill="#63b8ff" stroke="#63b8ff" points="501.8,-13.32 491.42,-15.47 500.87,-20.26 501.8,-13.32"/>
</a>
</g>
<g id="a_edge9&#45;headlabel"><a xlink:href="dir_000223_000077.html" target="_top" xlink:title="18">
<text xml:space="preserve" text-anchor="middle" x="504.24" y="-7.28" font-family="Helvetica,sans-Serif" font-size="10.00" fill="#63b8ff">18</text>
</a>
</g>
</g>
<!-- dir_c94ca79d4ff4fc89ef46a1a378082beb -->
<g id="node12" class="node">
<title>dir_c94ca79d4ff4fc89ef46a1a378082beb</title>
<g id="a_node12"><a xlink:href="dir_c94ca79d4ff4fc89ef46a1a378082beb.html" target="_top" xlink:title="support">
<polygon fill="#a2b4d6" stroke="#404040" points="706.12,-76.82 657.88,-76.82 657.88,-56.82 706.12,-56.82 706.12,-76.82"/>
<text xml:space="preserve" text-anchor="middle" x="682" y="-63.32" font-family="Helvetica,sans-Serif" font-size="10.00">support</text>
</a>
</g>
</g>
<!-- dir_c94ca79d4ff4fc89ef46a1a378082beb&#45;&gt;dir_9daa05842a3b93b9b84970416d2aacb6 -->
<g id="edge10" class="edge">
<title>dir_c94ca79d4ff4fc89ef46a1a378082beb&#45;&gt;dir_9daa05842a3b93b9b84970416d2aacb6</title>
<g id="a_edge10"><a xlink:href="dir_000356_000077.html" target="_top">
<path fill="none" stroke="#63b8ff" d="M672.44,-56.47C666.26,-51 657.76,-44.46 649,-40.82 601.65,-21.13 543.46,-14.36 501.01,-12.24"/>
<polygon fill="#63b8ff" stroke="#63b8ff" points="501.41,-8.75 491.27,-11.83 501.11,-15.74 501.41,-8.75"/>
</a>
</g>
<g id="a_edge10&#45;headlabel"><a xlink:href="dir_000356_000077.html" target="_top" xlink:title="4">
<text xml:space="preserve" text-anchor="middle" x="503.61" y="-2.5" font-family="Helvetica,sans-Serif" font-size="10.00" fill="#63b8ff">4</text>
</a>
</g>
</g>
<!-- dir_864e14578504b0e26dee07420ce18a9f -->
<g id="node13" class="node">
<title>dir_864e14578504b0e26dee07420ce18a9f</title>
<g id="a_node13"><a xlink:href="dir_864e14578504b0e26dee07420ce18a9f.html" target="_top" xlink:title="windows">
<polygon fill="#a2b4d6" stroke="#404040" points="778.12,-76.82 723.88,-76.82 723.88,-56.82 778.12,-56.82 778.12,-76.82"/>
<text xml:space="preserve" text-anchor="middle" x="751" y="-63.32" font-family="Helvetica,sans-Serif" font-size="10.00">windows</text>
</a>
</g>
</g>
<!-- dir_864e14578504b0e26dee07420ce18a9f&#45;&gt;dir_9daa05842a3b93b9b84970416d2aacb6 -->
<g id="edge11" class="edge">
<title>dir_864e14578504b0e26dee07420ce18a9f&#45;&gt;dir_9daa05842a3b93b9b84970416d2aacb6</title>
<g id="a_edge11"><a xlink:href="dir_000409_000077.html" target="_top">
<path fill="none" stroke="#63b8ff" d="M740.47,-56.37C733.69,-50.86 724.41,-44.33 715,-40.82 677.14,-26.72 569.44,-18.55 501.47,-14.66"/>
<polygon fill="#63b8ff" stroke="#63b8ff" points="501.78,-11.17 491.61,-14.11 501.4,-18.16 501.78,-11.17"/>
</a>
</g>
<g id="a_edge11&#45;headlabel"><a xlink:href="dir_000409_000077.html" target="_top" xlink:title="1">
<text xml:space="preserve" text-anchor="middle" x="504.02" y="-4.95" font-family="Helvetica,sans-Serif" font-size="10.00" fill="#63b8ff">1</text>
</a>
</g>
</g>
</g>
</svg>
