<?xml version="1.0" encoding="UTF-8" standalone="no"?>
<!DOCTYPE svg PUBLIC "-//W3C//DTD SVG 1.1//EN"
 "http://www.w3.org/Graphics/SVG/1.1/DTD/svg11.dtd">
<!-- Generated by graphviz version 14.0.5 (0)
 -->
<!-- Title: managed_components/espressif__nghttp/nghttp2/third&#45;party/mruby/include/mruby/dump.h Pages: 1 -->
<svg width="949pt" height="400pt"
 viewBox="0.00 0.00 949.00 400.00" xmlns="http://www.w3.org/2000/svg" xmlns:xlink="http://www.w3.org/1999/xlink">
<g id="graph0" class="graph" transform="scale(1 1) rotate(0) translate(4 396)">
<title>managed_components/espressif__nghttp/nghttp2/third&#45;party/mruby/include/mruby/dump.h</title>
<!-- Node1 -->
<g id="Node000001" class="node">
<title>Node1</title>
<g id="a_Node000001"><a xlink:title=" ">
<polygon fill="#999999" stroke="#666666" points="492.61,-392 361.11,-392 361.11,-336 492.61,-336 492.61,-392"/>
<text xml:space="preserve" text-anchor="start" x="369.11" y="-378.5" font-family="Helvetica,sans-Serif" font-size="10.00">managed_components</text>
<text xml:space="preserve" text-anchor="start" x="369.11" y="-366.5" font-family="Helvetica,sans-Serif" font-size="10.00">/espressif__nghttp/nghttp2</text>
<text xml:space="preserve" text-anchor="start" x="369.11" y="-354.5" font-family="Helvetica,sans-Serif" font-size="10.00">/third&#45;party/mruby/include</text>
<text xml:space="preserve" text-anchor="middle" x="426.86" y="-342.5" font-family="Helvetica,sans-Serif" font-size="10.00">/mruby/dump.h</text>
</a>
</g>
</g>
<!-- Node2 -->
<g id="Node000002" class="node">
<title>Node2</title>
<g id="a_Node000002"><a xlink:href="mruby_8h.html" target="_top" xlink:title=" ">
<polygon fill="white" stroke="#666666" points="452.11,-188 401.61,-188 401.61,-168 452.11,-168 452.11,-188"/>
<text xml:space="preserve" text-anchor="middle" x="426.86" y="-174.5" font-family="Helvetica,sans-Serif" font-size="10.00">mruby.h</text>
</a>
</g>
</g>
<!-- Node1&#45;&gt;Node2 -->
<g id="edge1_Node000001_Node000002" class="edge">
<title>Node1&#45;&gt;Node2</title>
<g id="a_edge1_Node000001_Node000002"><a xlink:title=" ">
<path fill="none" stroke="#63b8ff" d="M426.86,-335.85C426.86,-298.78 426.86,-233.15 426.86,-199.76"/>
<polygon fill="#63b8ff" stroke="#63b8ff" points="430.36,-199.82 426.86,-189.82 423.36,-199.82 430.36,-199.82"/>
</a>
</g>
</g>
<!-- Node9 -->
<g id="Node000009" class="node">
<title>Node9</title>
<g id="a_Node000009"><a xlink:href="common_8h.html" target="_top" xlink:title=" ">
<polygon fill="white" stroke="#666666" points="351.74,-76 259.99,-76 259.99,-56 351.74,-56 351.74,-76"/>
<text xml:space="preserve" text-anchor="middle" x="305.86" y="-62.5" font-family="Helvetica,sans-Serif" font-size="10.00">mruby/common.h</text>
</a>
</g>
</g>
<!-- Node1&#45;&gt;Node9 -->
<g id="edge26_Node000001_Node000009" class="edge">
<title>Node1&#45;&gt;Node9</title>
<g id="a_edge26_Node000001_Node000009"><a xlink:title=" ">
<path fill="none" stroke="#63b8ff" d="M492.96,-350.38C586.4,-330.63 745.86,-289 745.86,-235 745.86,-235 745.86,-235 745.86,-177 745.86,-142.84 733.8,-130.15 704.86,-112 649.32,-77.16 459.98,-69.23 363.45,-67.47"/>
<polygon fill="#63b8ff" stroke="#63b8ff" points="363.73,-63.97 353.67,-67.31 363.61,-70.97 363.73,-63.97"/>
</a>
</g>
</g>
<!-- Node19 -->
<g id="Node000019" class="node">
<title>Node19</title>
<g id="a_Node000019"><a xlink:href="irep_8h.html" target="_top" xlink:title=" ">
<polygon fill="white" stroke="#666666" points="250.86,-300 180.86,-300 180.86,-280 250.86,-280 250.86,-300"/>
<text xml:space="preserve" text-anchor="middle" x="215.86" y="-286.5" font-family="Helvetica,sans-Serif" font-size="10.00">mruby/irep.h</text>
</a>
</g>
</g>
<!-- Node1&#45;&gt;Node19 -->
<g id="edge21_Node000001_Node000019" class="edge">
<title>Node1&#45;&gt;Node19</title>
<g id="a_edge21_Node000001_Node000019"><a xlink:title=" ">
<path fill="none" stroke="#63b8ff" d="M360.68,-340.42C325.64,-328.46 283.84,-314.2 254.18,-304.07"/>
<polygon fill="#63b8ff" stroke="#63b8ff" points="255.47,-300.82 244.87,-300.9 253.21,-307.44 255.47,-300.82"/>
</a>
</g>
</g>
<!-- Node3 -->
<g id="Node000003" class="node">
<title>Node3</title>
<g id="a_Node000003"><a xlink:title=" ">
<polygon fill="#e0e0e0" stroke="#999999" points="418.49,-132 367.24,-132 367.24,-112 418.49,-112 418.49,-132"/>
<text xml:space="preserve" text-anchor="middle" x="392.86" y="-118.5" font-family="Helvetica,sans-Serif" font-size="10.00">stdarg.h</text>
</a>
</g>
</g>
<!-- Node2&#45;&gt;Node3 -->
<g id="edge2_Node000002_Node000003" class="edge">
<title>Node2&#45;&gt;Node3</title>
<g id="a_edge2_Node000002_Node000003"><a xlink:title=" ">
<path fill="none" stroke="#63b8ff" d="M420.94,-167.59C416.5,-160.55 410.28,-150.67 404.83,-142"/>
<polygon fill="#63b8ff" stroke="#63b8ff" points="407.81,-140.18 399.52,-133.58 401.89,-143.91 407.81,-140.18"/>
</a>
</g>
</g>
<!-- Node4 -->
<g id="Node000004" class="node">
<title>Node4</title>
<g id="a_Node000004"><a xlink:title=" ">
<polygon fill="#e0e0e0" stroke="#999999" points="484.99,-132 436.74,-132 436.74,-112 484.99,-112 484.99,-132"/>
<text xml:space="preserve" text-anchor="middle" x="460.86" y="-118.5" font-family="Helvetica,sans-Serif" font-size="10.00">stdint.h</text>
</a>
</g>
</g>
<!-- Node2&#45;&gt;Node4 -->
<g id="edge3_Node000002_Node000004" class="edge">
<title>Node2&#45;&gt;Node4</title>
<g id="a_edge3_Node000002_Node000004"><a xlink:title=" ">
<path fill="none" stroke="#63b8ff" d="M432.79,-167.59C437.22,-160.55 443.44,-150.67 448.9,-142"/>
<polygon fill="#63b8ff" stroke="#63b8ff" points="451.84,-143.91 454.2,-133.58 445.91,-140.18 451.84,-143.91"/>
</a>
</g>
</g>
<!-- Node5 -->
<g id="Node000005" class="node">
<title>Node5</title>
<g id="a_Node000005"><a xlink:title=" ">
<polygon fill="#e0e0e0" stroke="#999999" points="679.49,-132 628.24,-132 628.24,-112 679.49,-112 679.49,-132"/>
<text xml:space="preserve" text-anchor="middle" x="653.86" y="-118.5" font-family="Helvetica,sans-Serif" font-size="10.00">stddef.h</text>
</a>
</g>
</g>
<!-- Node2&#45;&gt;Node5 -->
<g id="edge4_Node000002_Node000005" class="edge">
<title>Node2&#45;&gt;Node5</title>
<g id="a_edge4_Node000002_Node000005"><a xlink:title=" ">
<path fill="none" stroke="#63b8ff" d="M452.52,-171.27C487.53,-163.4 552.48,-148.61 616.75,-132.73"/>
<polygon fill="#63b8ff" stroke="#63b8ff" points="617.56,-136.13 626.43,-130.32 615.88,-129.34 617.56,-136.13"/>
</a>
</g>
</g>
<!-- Node6 -->
<g id="Node000006" class="node">
<title>Node6</title>
<g id="a_Node000006"><a xlink:title=" ">
<polygon fill="#e0e0e0" stroke="#999999" points="162.61,-132 115.11,-132 115.11,-112 162.61,-112 162.61,-132"/>
<text xml:space="preserve" text-anchor="middle" x="138.86" y="-118.5" font-family="Helvetica,sans-Serif" font-size="10.00">limits.h</text>
</a>
</g>
</g>
<!-- Node2&#45;&gt;Node6 -->
<g id="edge5_Node000002_Node000006" class="edge">
<title>Node2&#45;&gt;Node6</title>
<g id="a_edge5_Node000002_Node000006"><a xlink:title=" ">
<path fill="none" stroke="#63b8ff" d="M401.37,-173.29C357.15,-166.69 263.14,-151.92 174.07,-132.32"/>
<polygon fill="#63b8ff" stroke="#63b8ff" points="174.95,-128.93 164.43,-130.17 173.43,-135.76 174.95,-128.93"/>
</a>
</g>
</g>
<!-- Node7 -->
<g id="Node000007" class="node">
<title>Node7</title>
<g id="a_Node000007"><a xlink:href="mrbconf_8h_source.html" target="_top" xlink:title=" ">
<polygon fill="white" stroke="#666666" points="96.61,-132 37.11,-132 37.11,-112 96.61,-112 96.61,-132"/>
<text xml:space="preserve" text-anchor="middle" x="66.86" y="-118.5" font-family="Helvetica,sans-Serif" font-size="10.00">mrbconf.h</text>
</a>
</g>
</g>
<!-- Node2&#45;&gt;Node7 -->
<g id="edge6_Node000002_Node000007" class="edge">
<title>Node2&#45;&gt;Node7</title>
<g id="a_edge6_Node000002_Node000007"><a xlink:title=" ">
<path fill="none" stroke="#63b8ff" d="M401.36,-174.19C348.57,-168.22 223.3,-153.21 108.15,-132.28"/>
<polygon fill="#63b8ff" stroke="#63b8ff" points="109,-128.88 98.53,-130.51 107.73,-135.76 109,-128.88"/>
</a>
</g>
</g>
<!-- Node2&#45;&gt;Node9 -->
<g id="edge8_Node000002_Node000009" class="edge">
<title>Node2&#45;&gt;Node9</title>
<g id="a_edge8_Node000002_Node000009"><a xlink:title=" ">
<path fill="none" stroke="#63b8ff" d="M452.46,-176.61C512.34,-175.09 658.75,-167.73 688.86,-132 694.59,-125.2 694.77,-118.64 688.86,-112 667.63,-88.13 465.1,-74.83 363.46,-69.62"/>
<polygon fill="#63b8ff" stroke="#63b8ff" points="363.85,-66.13 353.69,-69.13 363.5,-73.13 363.85,-66.13"/>
</a>
</g>
</g>
<!-- Node11 -->
<g id="Node000011" class="node">
<title>Node11</title>
<g id="a_Node000011"><a xlink:href="value_8h.html" target="_top" xlink:title=" ">
<polygon fill="white" stroke="#666666" points="851.61,-132 774.11,-132 774.11,-112 851.61,-112 851.61,-132"/>
<text xml:space="preserve" text-anchor="middle" x="812.86" y="-118.5" font-family="Helvetica,sans-Serif" font-size="10.00">mruby/value.h</text>
</a>
</g>
</g>
<!-- Node2&#45;&gt;Node11 -->
<g id="edge10_Node000002_Node000011" class="edge">
<title>Node2&#45;&gt;Node11</title>
<g id="a_edge10_Node000002_Node000011"><a xlink:title=" ">
<path fill="none" stroke="#63b8ff" d="M452.49,-173.42C515.53,-164.6 679.07,-141.72 762.42,-130.06"/>
<polygon fill="#63b8ff" stroke="#63b8ff" points="762.71,-133.55 772.13,-128.7 761.74,-126.62 762.71,-133.55"/>
</a>
</g>
</g>
<!-- Node15 -->
<g id="Node000015" class="node">
<title>Node15</title>
<g id="a_Node000015"><a xlink:href="gc_8h.html" target="_top" xlink:title=" ">
<polygon fill="white" stroke="#666666" points="245.24,-132 180.49,-132 180.49,-112 245.24,-112 245.24,-132"/>
<text xml:space="preserve" text-anchor="middle" x="212.86" y="-118.5" font-family="Helvetica,sans-Serif" font-size="10.00">mruby/gc.h</text>
</a>
</g>
</g>
<!-- Node2&#45;&gt;Node15 -->
<g id="edge15_Node000002_Node000015" class="edge">
<title>Node2&#45;&gt;Node15</title>
<g id="a_edge15_Node000002_Node000015"><a xlink:title=" ">
<path fill="none" stroke="#63b8ff" d="M401.47,-170.59C365.8,-161.59 300.33,-145.07 256.69,-134.06"/>
<polygon fill="#63b8ff" stroke="#63b8ff" points="257.58,-130.67 247.02,-131.62 255.86,-137.46 257.58,-130.67"/>
</a>
</g>
</g>
<!-- Node16 -->
<g id="Node000016" class="node">
<title>Node16</title>
<g id="a_Node000016"><a xlink:href="version_8h.html" target="_top" xlink:title=" ">
<polygon fill="white" stroke="#666666" points="348.74,-132 262.99,-132 262.99,-112 348.74,-112 348.74,-132"/>
<text xml:space="preserve" text-anchor="middle" x="305.86" y="-118.5" font-family="Helvetica,sans-Serif" font-size="10.00">mruby/version.h</text>
</a>
</g>
</g>
<!-- Node2&#45;&gt;Node16 -->
<g id="edge17_Node000002_Node000016" class="edge">
<title>Node2&#45;&gt;Node16</title>
<g id="a_edge17_Node000002_Node000016"><a xlink:title=" ">
<path fill="none" stroke="#63b8ff" d="M405.79,-167.59C386.9,-159.17 358.94,-146.69 337.4,-137.07"/>
<polygon fill="#63b8ff" stroke="#63b8ff" points="339.04,-133.98 328.49,-133.1 336.19,-140.37 339.04,-133.98"/>
</a>
</g>
</g>
<!-- Node17 -->
<g id="Node000017" class="node">
<title>Node17</title>
<g id="a_Node000017"><a xlink:title=" ">
<polygon fill="#e0e0e0" stroke="#999999" points="548.86,-132 502.86,-132 502.86,-112 548.86,-112 548.86,-132"/>
<text xml:space="preserve" text-anchor="middle" x="525.86" y="-118.5" font-family="Helvetica,sans-Serif" font-size="10.00">math.h</text>
</a>
</g>
</g>
<!-- Node2&#45;&gt;Node17 -->
<g id="edge19_Node000002_Node000017" class="edge">
<title>Node2&#45;&gt;Node17</title>
<g id="a_edge19_Node000002_Node000017"><a xlink:title=" ">
<path fill="none" stroke="#63b8ff" d="M444.11,-167.59C459.2,-159.36 481.39,-147.26 498.84,-137.74"/>
<polygon fill="#63b8ff" stroke="#63b8ff" points="500.05,-141.07 507.16,-133.2 496.7,-134.92 500.05,-141.07"/>
</a>
</g>
</g>
<!-- Node18 -->
<g id="Node000018" class="node">
<title>Node18</title>
<g id="a_Node000018"><a xlink:title=" ">
<polygon fill="#e0e0e0" stroke="#999999" points="610.36,-132 567.36,-132 567.36,-112 610.36,-112 610.36,-132"/>
<text xml:space="preserve" text-anchor="middle" x="588.86" y="-118.5" font-family="Helvetica,sans-Serif" font-size="10.00">float.h</text>
</a>
</g>
</g>
<!-- Node2&#45;&gt;Node18 -->
<g id="edge20_Node000002_Node000018" class="edge">
<title>Node2&#45;&gt;Node18</title>
<g id="a_edge20_Node000002_Node000018"><a xlink:title=" ">
<path fill="none" stroke="#63b8ff" d="M452.53,-168.44C480.66,-159.07 525.84,-144.01 556.41,-133.82"/>
<polygon fill="#63b8ff" stroke="#63b8ff" points="557.13,-137.27 565.51,-130.78 554.92,-130.62 557.13,-137.27"/>
</a>
</g>
</g>
<!-- Node8 -->
<g id="Node000008" class="node">
<title>Node8</title>
<g id="a_Node000008"><a xlink:title=" ">
<polygon fill="#e0e0e0" stroke="#999999" points="89.49,-76 44.24,-76 44.24,-56 89.49,-56 89.49,-76"/>
<text xml:space="preserve" text-anchor="middle" x="66.86" y="-62.5" font-family="Helvetica,sans-Serif" font-size="10.00">stdio.h</text>
</a>
</g>
</g>
<!-- Node7&#45;&gt;Node8 -->
<g id="edge7_Node000007_Node000008" class="edge">
<title>Node7&#45;&gt;Node8</title>
<g id="a_edge7_Node000007_Node000008"><a xlink:title=" ">
<path fill="none" stroke="#63b8ff" d="M66.86,-111.59C66.86,-105.01 66.86,-95.96 66.86,-87.73"/>
<polygon fill="#63b8ff" stroke="#63b8ff" points="70.36,-87.81 66.86,-77.81 63.36,-87.81 70.36,-87.81"/>
</a>
</g>
</g>
<!-- Node10 -->
<g id="Node000010" class="node">
<title>Node10</title>
<g id="a_Node000010"><a xlink:title=" ">
<polygon fill="#e0e0e0" stroke="#999999" points="339.36,-20 272.36,-20 272.36,0 339.36,0 339.36,-20"/>
<text xml:space="preserve" text-anchor="middle" x="305.86" y="-6.5" font-family="Helvetica,sans-Serif" font-size="10.00">sys/types.h</text>
</a>
</g>
</g>
<!-- Node9&#45;&gt;Node10 -->
<g id="edge9_Node000009_Node000010" class="edge">
<title>Node9&#45;&gt;Node10</title>
<g id="a_edge9_Node000009_Node000010"><a xlink:title=" ">
<path fill="none" stroke="#63b8ff" d="M305.86,-55.59C305.86,-49.01 305.86,-39.96 305.86,-31.73"/>
<polygon fill="#63b8ff" stroke="#63b8ff" points="309.36,-31.81 305.86,-21.81 302.36,-31.81 309.36,-31.81"/>
</a>
</g>
</g>
<!-- Node11&#45;&gt;Node9 -->
<g id="edge11_Node000011_Node000009" class="edge">
<title>Node11&#45;&gt;Node9</title>
<g id="a_edge11_Node000011_Node000009"><a xlink:title=" ">
<path fill="none" stroke="#63b8ff" d="M773.84,-114.06C769.13,-113.31 764.4,-112.61 759.86,-112 617.83,-92.92 449.78,-78.33 363.44,-71.42"/>
<polygon fill="#63b8ff" stroke="#63b8ff" points="363.82,-67.94 353.57,-70.63 363.26,-74.92 363.82,-67.94"/>
</a>
</g>
</g>
<!-- Node12 -->
<g id="Node000012" class="node">
<title>Node12</title>
<g id="a_Node000012"><a xlink:title=" ">
<polygon fill="#e0e0e0" stroke="#999999" points="842.24,-76 783.49,-76 783.49,-56 842.24,-56 842.24,-76"/>
<text xml:space="preserve" text-anchor="middle" x="812.86" y="-62.5" font-family="Helvetica,sans-Serif" font-size="10.00">inttypes.h</text>
</a>
</g>
</g>
<!-- Node11&#45;&gt;Node12 -->
<g id="edge12_Node000011_Node000012" class="edge">
<title>Node11&#45;&gt;Node12</title>
<g id="a_edge12_Node000011_Node000012"><a xlink:title=" ">
<path fill="none" stroke="#63b8ff" d="M812.86,-111.59C812.86,-105.01 812.86,-95.96 812.86,-87.73"/>
<polygon fill="#63b8ff" stroke="#63b8ff" points="816.36,-87.81 812.86,-77.81 809.36,-87.81 816.36,-87.81"/>
</a>
</g>
</g>
<!-- Node13 -->
<g id="Node000013" class="node">
<title>Node13</title>
<g id="a_Node000013"><a xlink:href="object_8h.html" target="_top" xlink:title=" ">
<polygon fill="white" stroke="#666666" points="941.11,-76 860.61,-76 860.61,-56 941.11,-56 941.11,-76"/>
<text xml:space="preserve" text-anchor="middle" x="900.86" y="-62.5" font-family="Helvetica,sans-Serif" font-size="10.00">mruby/object.h</text>
</a>
</g>
</g>
<!-- Node11&#45;&gt;Node13 -->
<g id="edge13_Node000011_Node000013" class="edge">
<title>Node11&#45;&gt;Node13</title>
<g id="a_edge13_Node000011_Node000013"><a xlink:title=" ">
<path fill="none" stroke="#63b8ff" d="M828.19,-111.59C841.36,-103.51 860.6,-91.71 875.97,-82.27"/>
<polygon fill="#63b8ff" stroke="#63b8ff" points="877.43,-85.48 884.12,-77.27 873.77,-79.52 877.43,-85.48"/>
</a>
</g>
</g>
<!-- Node14 -->
<g id="Node000014" class="node">
<title>Node14</title>
<g id="a_Node000014"><a xlink:href="boxing__no_8h.html" target="_top" xlink:title=" ">
<polygon fill="white" stroke="#666666" points="765.11,-76 696.61,-76 696.61,-56 765.11,-56 765.11,-76"/>
<text xml:space="preserve" text-anchor="middle" x="730.86" y="-62.5" font-family="Helvetica,sans-Serif" font-size="10.00">boxing_no.h</text>
</a>
</g>
</g>
<!-- Node11&#45;&gt;Node14 -->
<g id="edge14_Node000011_Node000014" class="edge">
<title>Node11&#45;&gt;Node14</title>
<g id="a_edge14_Node000011_Node000014"><a xlink:title=" ">
<path fill="none" stroke="#63b8ff" d="M798.58,-111.59C786.43,-103.59 768.72,-91.93 754.47,-82.54"/>
<polygon fill="#63b8ff" stroke="#63b8ff" points="756.8,-79.89 746.52,-77.31 752.95,-85.73 756.8,-79.89"/>
</a>
</g>
</g>
<!-- Node15&#45;&gt;Node9 -->
<g id="edge16_Node000015_Node000009" class="edge">
<title>Node15&#45;&gt;Node9</title>
<g id="a_edge16_Node000015_Node000009"><a xlink:title=" ">
<path fill="none" stroke="#63b8ff" d="M229.06,-111.59C243.11,-103.44 263.7,-91.48 280.02,-82"/>
<polygon fill="#63b8ff" stroke="#63b8ff" points="281.34,-85.29 288.23,-77.24 277.82,-79.23 281.34,-85.29"/>
</a>
</g>
</g>
<!-- Node16&#45;&gt;Node9 -->
<g id="edge18_Node000016_Node000009" class="edge">
<title>Node16&#45;&gt;Node9</title>
<g id="a_edge18_Node000016_Node000009"><a xlink:title=" ">
<path fill="none" stroke="#63b8ff" d="M305.86,-111.59C305.86,-105.01 305.86,-95.96 305.86,-87.73"/>
<polygon fill="#63b8ff" stroke="#63b8ff" points="309.36,-87.81 305.86,-77.81 302.36,-87.81 309.36,-87.81"/>
</a>
</g>
</g>
<!-- Node19&#45;&gt;Node9 -->
<g id="edge22_Node000019_Node000009" class="edge">
<title>Node19&#45;&gt;Node9</title>
<g id="a_edge22_Node000019_Node000009"><a xlink:title=" ">
<path fill="none" stroke="#63b8ff" d="M188.1,-279.55C119.42,-254.75 -48.52,-184.73 13.86,-112 43.44,-77.51 171.92,-69.21 248.25,-67.36"/>
<polygon fill="#63b8ff" stroke="#63b8ff" points="248.13,-70.87 258.06,-67.16 247.99,-63.87 248.13,-70.87"/>
</a>
</g>
</g>
<!-- Node20 -->
<g id="Node000020" class="node">
<title>Node20</title>
<g id="a_Node000020"><a xlink:href="compile_8h.html" target="_top" xlink:title=" ">
<polygon fill="white" stroke="#666666" points="259.86,-244 171.86,-244 171.86,-224 259.86,-224 259.86,-244"/>
<text xml:space="preserve" text-anchor="middle" x="215.86" y="-230.5" font-family="Helvetica,sans-Serif" font-size="10.00">mruby/compile.h</text>
</a>
</g>
</g>
<!-- Node19&#45;&gt;Node20 -->
<g id="edge23_Node000019_Node000020" class="edge">
<title>Node19&#45;&gt;Node20</title>
<g id="a_edge23_Node000019_Node000020"><a xlink:title=" ">
<path fill="none" stroke="#63b8ff" d="M215.86,-279.59C215.86,-273.01 215.86,-263.96 215.86,-255.73"/>
<polygon fill="#63b8ff" stroke="#63b8ff" points="219.36,-255.81 215.86,-245.81 212.36,-255.81 219.36,-255.81"/>
</a>
</g>
</g>
<!-- Node20&#45;&gt;Node2 -->
<g id="edge25_Node000020_Node000002" class="edge">
<title>Node20&#45;&gt;Node2</title>
<g id="a_edge25_Node000020_Node000002"><a xlink:title=" ">
<path fill="none" stroke="#63b8ff" d="M252.62,-223.59C291.3,-213.69 351.84,-198.2 390.41,-188.33"/>
<polygon fill="#63b8ff" stroke="#63b8ff" points="390.86,-191.83 399.68,-185.96 389.13,-185.04 390.86,-191.83"/>
</a>
</g>
</g>
<!-- Node20&#45;&gt;Node9 -->
<g id="edge24_Node000020_Node000009" class="edge">
<title>Node20&#45;&gt;Node9</title>
<g id="a_edge24_Node000020_Node000009"><a xlink:title=" ">
<path fill="none" stroke="#63b8ff" d="M172.55,-223.55C103.47,-206.57 -19.31,-167.42 27.86,-112 55.61,-79.4 175.5,-70.34 248.47,-67.87"/>
<polygon fill="#63b8ff" stroke="#63b8ff" points="248.36,-71.38 258.25,-67.58 248.15,-64.38 248.36,-71.38"/>
</a>
</g>
</g>
</g>
</svg>
