<?xml version="1.0" encoding="UTF-8" standalone="no"?>
<!DOCTYPE svg PUBLIC "-//W3C//DTD SVG 1.1//EN"
 "http://www.w3.org/Graphics/SVG/1.1/DTD/svg11.dtd">
<!-- Generated by graphviz version 14.0.5 (0)
 -->
<!-- Title: components/audioboard/generic_i2s/generic_i2s.c Pages: 1 -->
<svg width="686pt" height="208pt"
 viewBox="0.00 0.00 686.00 208.00" xmlns="http://www.w3.org/2000/svg" xmlns:xlink="http://www.w3.org/1999/xlink">
<g id="graph0" class="graph" transform="scale(1 1) rotate(0) translate(4 204)">
<title>components/audioboard/generic_i2s/generic_i2s.c</title>
<!-- Node1 -->
<g id="Node000001" class="node">
<title>Node1</title>
<g id="a_Node000001"><a xlink:title="Generic driver for i2s.">
<polygon fill="#999999" stroke="#666666" points="241.62,-200 112.38,-200 112.38,-168 241.62,-168 241.62,-200"/>
<text xml:space="preserve" text-anchor="start" x="120.38" y="-186.5" font-family="Helvetica,sans-Serif" font-size="10.00">components/audioboard</text>
<text xml:space="preserve" text-anchor="middle" x="177" y="-174.5" font-family="Helvetica,sans-Serif" font-size="10.00">/generic_i2s/generic_i2s.c</text>
</a>
</g>
</g>
<!-- Node2 -->
<g id="Node000002" class="node">
<title>Node2</title>
<g id="a_Node000002"><a xlink:href="generic__i2s_8h_source.html" target="_top" xlink:title=" ">
<polygon fill="white" stroke="#666666" points="174.88,-132 101.12,-132 101.12,-112 174.88,-112 174.88,-132"/>
<text xml:space="preserve" text-anchor="middle" x="138" y="-118.5" font-family="Helvetica,sans-Serif" font-size="10.00">generic_i2s.h</text>
</a>
</g>
</g>
<!-- Node1&#45;&gt;Node2 -->
<g id="edge1_Node000001_Node000002" class="edge">
<title>Node1&#45;&gt;Node2</title>
<g id="a_edge1_Node000001_Node000002"><a xlink:title=" ">
<path fill="none" stroke="#63b8ff" d="M166.96,-167.55C161.88,-159.74 155.67,-150.19 150.31,-141.94"/>
<polygon fill="#63b8ff" stroke="#63b8ff" points="153.32,-140.15 144.94,-133.68 147.46,-143.97 153.32,-140.15"/>
</a>
</g>
</g>
<!-- Node6 -->
<g id="Node000006" class="node">
<title>Node6</title>
<g id="a_Node000006"><a xlink:href="board_8h_source.html" target="_top" xlink:title=" ">
<polygon fill="white" stroke="#666666" points="243.12,-132 194.88,-132 194.88,-112 243.12,-112 243.12,-132"/>
<text xml:space="preserve" text-anchor="middle" x="219" y="-118.5" font-family="Helvetica,sans-Serif" font-size="10.00">board.h</text>
</a>
</g>
</g>
<!-- Node1&#45;&gt;Node6 -->
<g id="edge5_Node000001_Node000006" class="edge">
<title>Node1&#45;&gt;Node6</title>
<g id="a_edge5_Node000001_Node000006"><a xlink:title=" ">
<path fill="none" stroke="#63b8ff" d="M187.82,-167.55C193.35,-159.65 200.12,-149.97 205.94,-141.66"/>
<polygon fill="#63b8ff" stroke="#63b8ff" points="208.68,-143.85 211.55,-133.65 202.94,-139.83 208.68,-143.85"/>
</a>
</g>
</g>
<!-- Node15 -->
<g id="Node000015" class="node">
<title>Node15</title>
<g id="a_Node000015"><a xlink:href="esp__log_8h_source.html" target="_top" xlink:title=" ">
<polygon fill="white" stroke="#666666" points="58,-132 0,-132 0,-112 58,-112 58,-132"/>
<text xml:space="preserve" text-anchor="middle" x="29" y="-118.5" font-family="Helvetica,sans-Serif" font-size="10.00">esp_log.h</text>
</a>
</g>
</g>
<!-- Node1&#45;&gt;Node15 -->
<g id="edge15_Node000001_Node000015" class="edge">
<title>Node1&#45;&gt;Node15</title>
<g id="a_edge15_Node000001_Node000015"><a xlink:title=" ">
<path fill="none" stroke="#63b8ff" d="M138.89,-167.55C115.33,-158 85.38,-145.86 62.7,-136.66"/>
<polygon fill="#63b8ff" stroke="#63b8ff" points="64.19,-133.49 53.61,-132.98 61.56,-139.98 64.19,-133.49"/>
</a>
</g>
</g>
<!-- Node16 -->
<g id="Node000016" class="node">
<title>Node16</title>
<g id="a_Node000016"><a xlink:title=" ">
<polygon fill="#e0e0e0" stroke="#999999" points="345.12,-132 260.88,-132 260.88,-112 345.12,-112 345.12,-132"/>
<text xml:space="preserve" text-anchor="middle" x="303" y="-118.5" font-family="Helvetica,sans-Serif" font-size="10.00">audio_volume.h</text>
</a>
</g>
</g>
<!-- Node1&#45;&gt;Node16 -->
<g id="edge17_Node000001_Node000016" class="edge">
<title>Node1&#45;&gt;Node16</title>
<g id="a_edge17_Node000001_Node000016"><a xlink:title=" ">
<path fill="none" stroke="#63b8ff" d="M209.45,-167.55C229.04,-158.22 253.84,-146.41 272.99,-137.29"/>
<polygon fill="#63b8ff" stroke="#63b8ff" points="274.35,-140.52 281.88,-133.06 271.34,-134.2 274.35,-140.52"/>
</a>
</g>
</g>
<!-- Node3 -->
<g id="Node000003" class="node">
<title>Node3</title>
<g id="a_Node000003"><a xlink:title=" ">
<polygon fill="#e0e0e0" stroke="#999999" points="170.75,-76 105.25,-76 105.25,-56 170.75,-56 170.75,-76"/>
<text xml:space="preserve" text-anchor="middle" x="138" y="-62.5" font-family="Helvetica,sans-Serif" font-size="10.00">audio_hal.h</text>
</a>
</g>
</g>
<!-- Node2&#45;&gt;Node3 -->
<g id="edge2_Node000002_Node000003" class="edge">
<title>Node2&#45;&gt;Node3</title>
<g id="a_edge2_Node000002_Node000003"><a xlink:title=" ">
<path fill="none" stroke="#63b8ff" d="M138,-111.59C138,-105.01 138,-95.96 138,-87.73"/>
<polygon fill="#63b8ff" stroke="#63b8ff" points="141.5,-87.81 138,-77.81 134.5,-87.81 141.5,-87.81"/>
</a>
</g>
</g>
<!-- Node4 -->
<g id="Node000004" class="node">
<title>Node4</title>
<g id="a_Node000004"><a xlink:href="esp__err_8h_source.html" target="_top" xlink:title=" ">
<polygon fill="white" stroke="#666666" points="87.25,-76 30.75,-76 30.75,-56 87.25,-56 87.25,-76"/>
<text xml:space="preserve" text-anchor="middle" x="59" y="-62.5" font-family="Helvetica,sans-Serif" font-size="10.00">esp_err.h</text>
</a>
</g>
</g>
<!-- Node2&#45;&gt;Node4 -->
<g id="edge3_Node000002_Node000004" class="edge">
<title>Node2&#45;&gt;Node4</title>
<g id="a_edge3_Node000002_Node000004"><a xlink:title=" ">
<path fill="none" stroke="#63b8ff" d="M124.24,-111.59C112.64,-103.67 95.8,-92.16 82.14,-82.82"/>
<polygon fill="#63b8ff" stroke="#63b8ff" points="84.35,-80.09 74.12,-77.33 80.4,-85.87 84.35,-80.09"/>
</a>
</g>
</g>
<!-- Node5 -->
<g id="Node000005" class="node">
<title>Node5</title>
<g id="a_Node000005"><a xlink:title=" ">
<polygon fill="#e0e0e0" stroke="#999999" points="54.75,-20 7.25,-20 7.25,0 54.75,0 54.75,-20"/>
<text xml:space="preserve" text-anchor="middle" x="31" y="-6.5" font-family="Helvetica,sans-Serif" font-size="10.00">stdlib.h</text>
</a>
</g>
</g>
<!-- Node4&#45;&gt;Node5 -->
<g id="edge4_Node000004_Node000005" class="edge">
<title>Node4&#45;&gt;Node5</title>
<g id="a_edge4_Node000004_Node000005"><a xlink:title=" ">
<path fill="none" stroke="#63b8ff" d="M54.12,-55.59C50.51,-48.63 45.46,-38.89 41,-30.29"/>
<polygon fill="#63b8ff" stroke="#63b8ff" points="44.23,-28.91 36.52,-21.64 38.01,-32.13 44.23,-28.91"/>
</a>
</g>
</g>
<!-- Node6&#45;&gt;Node3 -->
<g id="edge6_Node000006_Node000003" class="edge">
<title>Node6&#45;&gt;Node3</title>
<g id="a_edge6_Node000006_Node000003"><a xlink:title=" ">
<path fill="none" stroke="#63b8ff" d="M204.89,-111.59C193,-103.67 175.73,-92.16 161.72,-82.82"/>
<polygon fill="#63b8ff" stroke="#63b8ff" points="163.74,-79.95 153.48,-77.32 159.86,-85.78 163.74,-79.95"/>
</a>
</g>
</g>
<!-- Node7 -->
<g id="Node000007" class="node">
<title>Node7</title>
<g id="a_Node000007"><a xlink:href="board__def_8h_source.html" target="_top" xlink:title=" ">
<polygon fill="white" stroke="#666666" points="255.5,-76 188.5,-76 188.5,-56 255.5,-56 255.5,-76"/>
<text xml:space="preserve" text-anchor="middle" x="222" y="-62.5" font-family="Helvetica,sans-Serif" font-size="10.00">board_def.h</text>
</a>
</g>
</g>
<!-- Node6&#45;&gt;Node7 -->
<g id="edge7_Node000006_Node000007" class="edge">
<title>Node6&#45;&gt;Node7</title>
<g id="a_edge7_Node000006_Node000007"><a xlink:title=" ">
<path fill="none" stroke="#63b8ff" d="M219.52,-111.59C219.89,-105.01 220.39,-95.96 220.85,-87.73"/>
<polygon fill="#63b8ff" stroke="#63b8ff" points="224.34,-87.99 221.4,-77.81 217.35,-87.6 224.34,-87.99"/>
</a>
</g>
</g>
<!-- Node8 -->
<g id="Node000008" class="node">
<title>Node8</title>
<g id="a_Node000008"><a xlink:href="board__pins__config_8h_source.html" target="_top" xlink:title=" ">
<polygon fill="white" stroke="#666666" points="487.5,-76 384.5,-76 384.5,-56 487.5,-56 487.5,-76"/>
<text xml:space="preserve" text-anchor="middle" x="436" y="-62.5" font-family="Helvetica,sans-Serif" font-size="10.00">board_pins_config.h</text>
</a>
</g>
</g>
<!-- Node6&#45;&gt;Node8 -->
<g id="edge8_Node000006_Node000008" class="edge">
<title>Node6&#45;&gt;Node8</title>
<g id="a_edge8_Node000006_Node000008"><a xlink:title=" ">
<path fill="none" stroke="#63b8ff" d="M243.49,-114.24C246.36,-113.48 249.24,-112.71 252,-112 296.87,-100.4 348.09,-87.93 385.08,-79.07"/>
<polygon fill="#63b8ff" stroke="#63b8ff" points="385.7,-82.52 394.61,-76.79 384.07,-75.71 385.7,-82.52"/>
</a>
</g>
</g>
<!-- Node14 -->
<g id="Node000014" class="node">
<title>Node14</title>
<g id="a_Node000014"><a xlink:title=" ">
<polygon fill="#e0e0e0" stroke="#999999" points="366.25,-76 273.75,-76 273.75,-56 366.25,-56 366.25,-76"/>
<text xml:space="preserve" text-anchor="middle" x="320" y="-62.5" font-family="Helvetica,sans-Serif" font-size="10.00">esp_peripherals.h</text>
</a>
</g>
</g>
<!-- Node6&#45;&gt;Node14 -->
<g id="edge14_Node000006_Node000014" class="edge">
<title>Node6&#45;&gt;Node14</title>
<g id="a_edge14_Node000006_Node000014"><a xlink:title=" ">
<path fill="none" stroke="#63b8ff" d="M236.59,-111.59C251.92,-103.4 274.42,-91.37 292.19,-81.87"/>
<polygon fill="#63b8ff" stroke="#63b8ff" points="293.77,-84.99 300.94,-77.19 290.47,-78.82 293.77,-84.99"/>
</a>
</g>
</g>
<!-- Node9 -->
<g id="Node000009" class="node">
<title>Node9</title>
<g id="a_Node000009"><a xlink:title=" ">
<polygon fill="#e0e0e0" stroke="#999999" points="678,-20 614,-20 614,0 678,0 678,-20"/>
<text xml:space="preserve" text-anchor="middle" x="646" y="-6.5" font-family="Helvetica,sans-Serif" font-size="10.00">driver/i2c.h</text>
</a>
</g>
</g>
<!-- Node8&#45;&gt;Node9 -->
<g id="edge9_Node000008_Node000009" class="edge">
<title>Node8&#45;&gt;Node9</title>
<g id="a_edge9_Node000008_Node000009"><a xlink:title=" ">
<path fill="none" stroke="#63b8ff" d="M472.58,-55.59C508.84,-46.27 564.37,-31.99 602.79,-22.11"/>
<polygon fill="#63b8ff" stroke="#63b8ff" points="603.35,-25.58 612.16,-19.7 601.6,-18.8 603.35,-25.58"/>
</a>
</g>
</g>
<!-- Node10 -->
<g id="Node000010" class="node">
<title>Node10</title>
<g id="a_Node000010"><a xlink:title=" ">
<polygon fill="#e0e0e0" stroke="#999999" points="244,-20 180,-20 180,0 244,0 244,-20"/>
<text xml:space="preserve" text-anchor="middle" x="212" y="-6.5" font-family="Helvetica,sans-Serif" font-size="10.00">driver/i2s.h</text>
</a>
</g>
</g>
<!-- Node8&#45;&gt;Node10 -->
<g id="edge10_Node000008_Node000010" class="edge">
<title>Node8&#45;&gt;Node10</title>
<g id="a_edge10_Node000008_Node000010"><a xlink:title=" ">
<path fill="none" stroke="#63b8ff" d="M396.73,-55.53C357.16,-45.99 296.25,-31.31 255.31,-21.44"/>
<polygon fill="#63b8ff" stroke="#63b8ff" points="256.33,-18.09 245.79,-19.15 254.69,-24.89 256.33,-18.09"/>
</a>
</g>
</g>
<!-- Node11 -->
<g id="Node000011" class="node">
<title>Node11</title>
<g id="a_Node000011"><a xlink:title=" ">
<polygon fill="#e0e0e0" stroke="#999999" points="368.38,-20 261.62,-20 261.62,0 368.38,0 368.38,-20"/>
<text xml:space="preserve" text-anchor="middle" x="315" y="-6.5" font-family="Helvetica,sans-Serif" font-size="10.00">driver/spi_common.h</text>
</a>
</g>
</g>
<!-- Node8&#45;&gt;Node11 -->
<g id="edge11_Node000008_Node000011" class="edge">
<title>Node8&#45;&gt;Node11</title>
<g id="a_edge11_Node000008_Node000011"><a xlink:title=" ">
<path fill="none" stroke="#63b8ff" d="M414.92,-55.59C396.04,-47.17 368.08,-34.69 346.54,-25.07"/>
<polygon fill="#63b8ff" stroke="#63b8ff" points="348.18,-21.98 337.62,-21.1 345.33,-28.37 348.18,-21.98"/>
</a>
</g>
</g>
<!-- Node12 -->
<g id="Node000012" class="node">
<title>Node12</title>
<g id="a_Node000012"><a xlink:title=" ">
<polygon fill="#e0e0e0" stroke="#999999" points="485.62,-20 386.38,-20 386.38,0 485.62,0 485.62,-20"/>
<text xml:space="preserve" text-anchor="middle" x="436" y="-6.5" font-family="Helvetica,sans-Serif" font-size="10.00">driver/spi_master.h</text>
</a>
</g>
</g>
<!-- Node8&#45;&gt;Node12 -->
<g id="edge12_Node000008_Node000012" class="edge">
<title>Node8&#45;&gt;Node12</title>
<g id="a_edge12_Node000008_Node000012"><a xlink:title=" ">
<path fill="none" stroke="#63b8ff" d="M436,-55.59C436,-49.01 436,-39.96 436,-31.73"/>
<polygon fill="#63b8ff" stroke="#63b8ff" points="439.5,-31.81 436,-21.81 432.5,-31.81 439.5,-31.81"/>
</a>
</g>
</g>
<!-- Node13 -->
<g id="Node000013" class="node">
<title>Node13</title>
<g id="a_Node000013"><a xlink:title=" ">
<polygon fill="#e0e0e0" stroke="#999999" points="596.25,-20 503.75,-20 503.75,0 596.25,0 596.25,-20"/>
<text xml:space="preserve" text-anchor="middle" x="550" y="-6.5" font-family="Helvetica,sans-Serif" font-size="10.00">driver/spi_slave.h</text>
</a>
</g>
</g>
<!-- Node8&#45;&gt;Node13 -->
<g id="edge13_Node000008_Node000013" class="edge">
<title>Node8&#45;&gt;Node13</title>
<g id="a_edge13_Node000008_Node000013"><a xlink:title=" ">
<path fill="none" stroke="#63b8ff" d="M455.86,-55.59C473.49,-47.24 499.51,-34.92 519.73,-25.34"/>
<polygon fill="#63b8ff" stroke="#63b8ff" points="521.08,-28.57 528.62,-21.13 518.08,-22.25 521.08,-28.57"/>
</a>
</g>
</g>
<!-- Node15&#45;&gt;Node5 -->
<g id="edge16_Node000015_Node000005" class="edge">
<title>Node15&#45;&gt;Node5</title>
<g id="a_edge16_Node000015_Node000005"><a xlink:title=" ">
<path fill="none" stroke="#63b8ff" d="M26.8,-111.75C24.08,-99.15 20.03,-75.88 22,-56 22.8,-47.88 24.41,-39.05 26.04,-31.38"/>
<polygon fill="#63b8ff" stroke="#63b8ff" points="29.43,-32.23 28.26,-21.7 22.61,-30.67 29.43,-32.23"/>
</a>
</g>
</g>
</g>
</svg>
