<?xml version="1.0" encoding="UTF-8" standalone="no"?>
<!DOCTYPE svg PUBLIC "-//W3C//DTD SVG 1.1//EN"
 "http://www.w3.org/Graphics/SVG/1.1/DTD/svg11.dtd">
<!-- Generated by graphviz version 14.0.5 (0)
 -->
<!-- Title: Graphical Class Hierarchy Pages: 1 -->
<svg width="245pt" height="90pt"
 viewBox="0.00 0.00 245.00 90.00" xmlns="http://www.w3.org/2000/svg" xmlns:xlink="http://www.w3.org/1999/xlink">
<g id="graph0" class="graph" transform="scale(1 1) rotate(0) translate(4 86)">
<title>Graphical Class Hierarchy</title>
<!-- Node0 -->
<g id="Node000000" class="node">
<title>Node0</title>
<g id="a_Node000000"><a xlink:title=" ">
<polygon fill="#e0e0e0" stroke="#999999" points="55,-51 0,-51 0,-31 55,-31 55,-51"/>
<text xml:space="preserve" text-anchor="middle" x="27.5" y="-37.5" font-family="Helvetica,sans-Serif" font-size="10.00">Directive</text>
</a>
</g>
</g>
<!-- Node1 -->
<g id="Node000001" class="node">
<title>Node1</title>
<g id="a_Node000001"><a xlink:href="classrubydomain_1_1rubydomain_1_1RubyCurrentModule.html" target="_top" xlink:title=" ">
<polygon fill="white" stroke="#666666" points="236.75,-82 91,-82 91,-50 236.75,-50 236.75,-82"/>
<text xml:space="preserve" text-anchor="start" x="99" y="-68.5" font-family="Helvetica,sans-Serif" font-size="10.00">rubydomain.rubydomain.Ruby</text>
<text xml:space="preserve" text-anchor="middle" x="163.88" y="-56.5" font-family="Helvetica,sans-Serif" font-size="10.00">CurrentModule</text>
</a>
</g>
</g>
<!-- Node0&#45;&gt;Node1 -->
<g id="edge1_Node000000_Node000001" class="edge">
<title>Node0&#45;&gt;Node1</title>
<g id="a_edge1_Node000000_Node000001"><a xlink:title=" ">
<path fill="none" stroke="#63b8ff" d="M66.68,-48.1C74.24,-49.51 82.4,-51.03 90.67,-52.57"/>
<polygon fill="#63b8ff" stroke="#63b8ff" points="67.33,-44.66 56.86,-46.28 66.05,-51.55 67.33,-44.66"/>
</a>
</g>
</g>
<!-- Node2 -->
<g id="Node000002" class="node">
<title>Node2</title>
<g id="a_Node000002"><a xlink:href="classrubydomain_1_1rubydomain_1_1RubyModule.html" target="_top" xlink:title=" ">
<polygon fill="white" stroke="#666666" points="236.75,-32 91,-32 91,0 236.75,0 236.75,-32"/>
<text xml:space="preserve" text-anchor="start" x="99" y="-18.5" font-family="Helvetica,sans-Serif" font-size="10.00">rubydomain.rubydomain.Ruby</text>
<text xml:space="preserve" text-anchor="middle" x="163.88" y="-6.5" font-family="Helvetica,sans-Serif" font-size="10.00">Module</text>
</a>
</g>
</g>
<!-- Node0&#45;&gt;Node2 -->
<g id="edge2_Node000000_Node000002" class="edge">
<title>Node0&#45;&gt;Node2</title>
<g id="a_edge2_Node000000_Node000002"><a xlink:title=" ">
<path fill="none" stroke="#63b8ff" d="M66.68,-33.9C74.24,-32.49 82.4,-30.97 90.67,-29.43"/>
<polygon fill="#63b8ff" stroke="#63b8ff" points="66.05,-30.45 56.86,-35.72 67.33,-37.34 66.05,-30.45"/>
</a>
</g>
</g>
</g>
</svg>
