<?xml version="1.0" encoding="UTF-8" standalone="no"?>
<!DOCTYPE svg PUBLIC "-//W3C//DTD SVG 1.1//EN"
 "http://www.w3.org/Graphics/SVG/1.1/DTD/svg11.dtd">
<!-- Generated by graphviz version 14.0.5 (0)
 -->
<!-- Title: Graphical Class Hierarchy Pages: 1 -->
<svg width="466pt" height="240pt"
 viewBox="0.00 0.00 466.00 240.00" xmlns="http://www.w3.org/2000/svg" xmlns:xlink="http://www.w3.org/1999/xlink">
<g id="graph0" class="graph" transform="scale(1 1) rotate(0) translate(4 236)">
<title>Graphical Class Hierarchy</title>
<!-- Node0 -->
<g id="Node000000" class="node">
<title>Node0</title>
<g id="a_Node000000"><a xlink:title=" ">
<polygon fill="#e0e0e0" stroke="#999999" points="94,-126 0,-126 0,-106 94,-106 94,-126"/>
<text xml:space="preserve" text-anchor="middle" x="47" y="-112.5" font-family="Helvetica,sans-Serif" font-size="10.00">ObjectDescription</text>
</a>
</g>
</g>
<!-- Node1 -->
<g id="Node000001" class="node">
<title>Node1</title>
<g id="a_Node000001"><a xlink:href="classrubydomain_1_1rubydomain_1_1RubyObject.html" target="_top" xlink:title=" ">
<polygon fill="white" stroke="#666666" points="275.75,-132 130,-132 130,-100 275.75,-100 275.75,-132"/>
<text xml:space="preserve" text-anchor="start" x="138" y="-118.5" font-family="Helvetica,sans-Serif" font-size="10.00">rubydomain.rubydomain.Ruby</text>
<text xml:space="preserve" text-anchor="middle" x="202.88" y="-106.5" font-family="Helvetica,sans-Serif" font-size="10.00">Object</text>
</a>
</g>
</g>
<!-- Node0&#45;&gt;Node1 -->
<g id="edge9_Node000000_Node000001" class="edge">
<title>Node0&#45;&gt;Node1</title>
<g id="a_edge9_Node000000_Node000001"><a xlink:title=" ">
<path fill="none" stroke="#63b8ff" d="M105.44,-116C113.3,-116 121.46,-116 129.55,-116"/>
<polygon fill="#63b8ff" stroke="#63b8ff" points="105.68,-112.5 95.68,-116 105.68,-119.5 105.68,-112.5"/>
</a>
</g>
</g>
<!-- Node2 -->
<g id="Node000002" class="node">
<title>Node2</title>
<g id="a_Node000002"><a xlink:href="classrubydomain_1_1rubydomain_1_1RubyClasslike.html" target="_top" xlink:title=" ">
<polygon fill="white" stroke="#666666" points="457.5,-232 311.75,-232 311.75,-200 457.5,-200 457.5,-232"/>
<text xml:space="preserve" text-anchor="start" x="319.75" y="-218.5" font-family="Helvetica,sans-Serif" font-size="10.00">rubydomain.rubydomain.Ruby</text>
<text xml:space="preserve" text-anchor="middle" x="384.62" y="-206.5" font-family="Helvetica,sans-Serif" font-size="10.00">Classlike</text>
</a>
</g>
</g>
<!-- Node1&#45;&gt;Node2 -->
<g id="edge10_Node000001_Node000002" class="edge">
<title>Node1&#45;&gt;Node2</title>
<g id="a_edge10_Node000001_Node000002"><a xlink:title=" ">
<path fill="none" stroke="#63b8ff" d="M232.89,-139.45C253.86,-155.55 283.37,-176.54 311.75,-191 317.87,-194.12 324.47,-197 331.1,-199.62"/>
<polygon fill="#63b8ff" stroke="#63b8ff" points="235.13,-136.75 225.09,-133.36 230.83,-142.27 235.13,-136.75"/>
</a>
</g>
</g>
<!-- Node3 -->
<g id="Node000003" class="node">
<title>Node3</title>
<g id="a_Node000003"><a xlink:href="classrubydomain_1_1rubydomain_1_1RubyClassmember.html" target="_top" xlink:title=" ">
<polygon fill="white" stroke="#666666" points="457.5,-182 311.75,-182 311.75,-150 457.5,-150 457.5,-182"/>
<text xml:space="preserve" text-anchor="start" x="319.75" y="-168.5" font-family="Helvetica,sans-Serif" font-size="10.00">rubydomain.rubydomain.Ruby</text>
<text xml:space="preserve" text-anchor="middle" x="384.62" y="-156.5" font-family="Helvetica,sans-Serif" font-size="10.00">Classmember</text>
</a>
</g>
</g>
<!-- Node1&#45;&gt;Node3 -->
<g id="edge11_Node000001_Node000003" class="edge">
<title>Node1&#45;&gt;Node3</title>
<g id="a_edge11_Node000001_Node000003"><a xlink:title=" ">
<path fill="none" stroke="#63b8ff" d="M273.58,-135.39C290.34,-140.05 308.09,-144.99 324.33,-149.51"/>
<polygon fill="#63b8ff" stroke="#63b8ff" points="274.76,-132.09 264.19,-132.78 272.89,-138.83 274.76,-132.09"/>
</a>
</g>
</g>
<!-- Node4 -->
<g id="Node000004" class="node">
<title>Node4</title>
<g id="a_Node000004"><a xlink:href="classrubydomain_1_1rubydomain_1_1RubyEverywhere.html" target="_top" xlink:title=" ">
<polygon fill="white" stroke="#666666" points="457.5,-132 311.75,-132 311.75,-100 457.5,-100 457.5,-132"/>
<text xml:space="preserve" text-anchor="start" x="319.75" y="-118.5" font-family="Helvetica,sans-Serif" font-size="10.00">rubydomain.rubydomain.Ruby</text>
<text xml:space="preserve" text-anchor="middle" x="384.62" y="-106.5" font-family="Helvetica,sans-Serif" font-size="10.00">Everywhere</text>
</a>
</g>
</g>
<!-- Node1&#45;&gt;Node4 -->
<g id="edge12_Node000001_Node000004" class="edge">
<title>Node1&#45;&gt;Node4</title>
<g id="a_edge12_Node000001_Node000004"><a xlink:title=" ">
<path fill="none" stroke="#63b8ff" d="M287.46,-116C295.47,-116 303.55,-116 311.44,-116"/>
<polygon fill="#63b8ff" stroke="#63b8ff" points="287.72,-112.5 277.72,-116 287.72,-119.5 287.72,-112.5"/>
</a>
</g>
</g>
<!-- Node5 -->
<g id="Node000005" class="node">
<title>Node5</title>
<g id="a_Node000005"><a xlink:href="classrubydomain_1_1rubydomain_1_1RubyGloballevel.html" target="_top" xlink:title=" ">
<polygon fill="white" stroke="#666666" points="457.5,-82 311.75,-82 311.75,-50 457.5,-50 457.5,-82"/>
<text xml:space="preserve" text-anchor="start" x="319.75" y="-68.5" font-family="Helvetica,sans-Serif" font-size="10.00">rubydomain.rubydomain.Ruby</text>
<text xml:space="preserve" text-anchor="middle" x="384.62" y="-56.5" font-family="Helvetica,sans-Serif" font-size="10.00">Globallevel</text>
</a>
</g>
</g>
<!-- Node1&#45;&gt;Node5 -->
<g id="edge13_Node000001_Node000005" class="edge">
<title>Node1&#45;&gt;Node5</title>
<g id="a_edge13_Node000001_Node000005"><a xlink:title=" ">
<path fill="none" stroke="#63b8ff" d="M273.58,-96.61C290.34,-91.95 308.09,-87.01 324.33,-82.49"/>
<polygon fill="#63b8ff" stroke="#63b8ff" points="272.89,-93.17 264.19,-99.22 274.76,-99.91 272.89,-93.17"/>
</a>
</g>
</g>
<!-- Node6 -->
<g id="Node000006" class="node">
<title>Node6</title>
<g id="a_Node000006"><a xlink:href="classrubydomain_1_1rubydomain_1_1RubyModulelevel.html" target="_top" xlink:title=" ">
<polygon fill="white" stroke="#666666" points="457.5,-32 311.75,-32 311.75,0 457.5,0 457.5,-32"/>
<text xml:space="preserve" text-anchor="start" x="319.75" y="-18.5" font-family="Helvetica,sans-Serif" font-size="10.00">rubydomain.rubydomain.Ruby</text>
<text xml:space="preserve" text-anchor="middle" x="384.62" y="-6.5" font-family="Helvetica,sans-Serif" font-size="10.00">Modulelevel</text>
</a>
</g>
</g>
<!-- Node1&#45;&gt;Node6 -->
<g id="edge14_Node000001_Node000006" class="edge">
<title>Node1&#45;&gt;Node6</title>
<g id="a_edge14_Node000001_Node000006"><a xlink:title=" ">
<path fill="none" stroke="#63b8ff" d="M232.89,-92.55C253.86,-76.45 283.37,-55.46 311.75,-41 317.87,-37.88 324.47,-35 331.1,-32.38"/>
<polygon fill="#63b8ff" stroke="#63b8ff" points="230.83,-89.73 225.09,-98.64 235.13,-95.25 230.83,-89.73"/>
</a>
</g>
</g>
</g>
</svg>
