<?xml version="1.0" encoding="UTF-8" standalone="no"?>
<!DOCTYPE svg PUBLIC "-//W3C//DTD SVG 1.1//EN"
 "http://www.w3.org/Graphics/SVG/1.1/DTD/svg11.dtd">
<!-- Generated by graphviz version 14.0.5 (0)
 -->
<!-- Title: Graphical Class Hierarchy Pages: 1 -->
<svg width="240pt" height="104pt"
 viewBox="0.00 0.00 240.00 104.00" xmlns="http://www.w3.org/2000/svg" xmlns:xlink="http://www.w3.org/1999/xlink">
<g id="graph0" class="graph" transform="scale(1 1) rotate(0) translate(4 100)">
<title>Graphical Class Hierarchy</title>
<!-- Node0 -->
<g id="Node000000" class="node">
<title>Node0</title>
<g id="a_Node000000"><a xlink:href="classh2load_1_1Session.html" target="_top" xlink:title=" ">
<polygon fill="white" stroke="#666666" points="85.75,-58 0,-58 0,-38 85.75,-38 85.75,-58"/>
<text xml:space="preserve" text-anchor="middle" x="42.88" y="-44.5" font-family="Helvetica,sans-Serif" font-size="10.00">h2load::Session</text>
</a>
</g>
</g>
<!-- Node1 -->
<g id="Node000001" class="node">
<title>Node1</title>
<g id="a_Node000001"><a xlink:href="classh2load_1_1Http1Session.html" target="_top" xlink:title=" ">
<polygon fill="white" stroke="#666666" points="231.5,-96 121.75,-96 121.75,-76 231.5,-76 231.5,-96"/>
<text xml:space="preserve" text-anchor="middle" x="176.62" y="-82.5" font-family="Helvetica,sans-Serif" font-size="10.00">h2load::Http1Session</text>
</a>
</g>
</g>
<!-- Node0&#45;&gt;Node1 -->
<g id="edge5_Node000000_Node000001" class="edge">
<title>Node0&#45;&gt;Node1</title>
<g id="a_edge5_Node000000_Node000001"><a xlink:title=" ">
<path fill="none" stroke="#63b8ff" d="M90.95,-61.58C106.89,-66.18 124.43,-71.23 139.39,-75.55"/>
<polygon fill="#63b8ff" stroke="#63b8ff" points="92.26,-58.31 81.68,-58.9 90.32,-65.04 92.26,-58.31"/>
</a>
</g>
</g>
<!-- Node2 -->
<g id="Node000002" class="node">
<title>Node2</title>
<g id="a_Node000002"><a xlink:href="classh2load_1_1Http2Session.html" target="_top" xlink:title=" ">
<polygon fill="white" stroke="#666666" points="231.5,-58 121.75,-58 121.75,-38 231.5,-38 231.5,-58"/>
<text xml:space="preserve" text-anchor="middle" x="176.62" y="-44.5" font-family="Helvetica,sans-Serif" font-size="10.00">h2load::Http2Session</text>
</a>
</g>
</g>
<!-- Node0&#45;&gt;Node2 -->
<g id="edge6_Node000000_Node000002" class="edge">
<title>Node0&#45;&gt;Node2</title>
<g id="a_edge6_Node000000_Node000002"><a xlink:title=" ">
<path fill="none" stroke="#63b8ff" d="M97.34,-48C105.29,-48 113.49,-48 121.45,-48"/>
<polygon fill="#63b8ff" stroke="#63b8ff" points="97.44,-44.5 87.44,-48 97.44,-51.5 97.44,-44.5"/>
</a>
</g>
</g>
<!-- Node3 -->
<g id="Node000003" class="node">
<title>Node3</title>
<g id="a_Node000003"><a xlink:href="classh2load_1_1Http3Session.html" target="_top" xlink:title=" ">
<polygon fill="white" stroke="#666666" points="231.5,-20 121.75,-20 121.75,0 231.5,0 231.5,-20"/>
<text xml:space="preserve" text-anchor="middle" x="176.62" y="-6.5" font-family="Helvetica,sans-Serif" font-size="10.00">h2load::Http3Session</text>
</a>
</g>
</g>
<!-- Node0&#45;&gt;Node3 -->
<g id="edge7_Node000000_Node000003" class="edge">
<title>Node0&#45;&gt;Node3</title>
<g id="a_edge7_Node000000_Node000003"><a xlink:title=" ">
<path fill="none" stroke="#63b8ff" d="M90.95,-34.42C106.89,-29.82 124.43,-24.77 139.39,-20.45"/>
<polygon fill="#63b8ff" stroke="#63b8ff" points="90.32,-30.96 81.68,-37.1 92.26,-37.69 90.32,-30.96"/>
</a>
</g>
</g>
</g>
</svg>
