<?xml version="1.0" encoding="UTF-8" standalone="no"?>
<!DOCTYPE svg PUBLIC "-//W3C//DTD SVG 1.1//EN"
 "http://www.w3.org/Graphics/SVG/1.1/DTD/svg11.dtd">
<!-- Generated by graphviz version 14.0.5 (0)
 -->
<!-- Title: Graphical Class Hierarchy Pages: 1 -->
<svg width="246pt" height="104pt"
 viewBox="0.00 0.00 246.00 104.00" xmlns="http://www.w3.org/2000/svg" xmlns:xlink="http://www.w3.org/1999/xlink">
<g id="graph0" class="graph" transform="scale(1 1) rotate(0) translate(4 100)">
<title>Graphical Class Hierarchy</title>
<!-- Node0 -->
<g id="Node000000" class="node">
<title>Node0</title>
<g id="a_Node000000"><a xlink:href="classshrpx_1_1Upstream.html" target="_top" xlink:title=" ">
<polygon fill="white" stroke="#666666" points="88.75,-58 0,-58 0,-38 88.75,-38 88.75,-58"/>
<text xml:space="preserve" text-anchor="middle" x="44.38" y="-44.5" font-family="Helvetica,sans-Serif" font-size="10.00">shrpx::Upstream</text>
</a>
</g>
</g>
<!-- Node1 -->
<g id="Node000001" class="node">
<title>Node1</title>
<g id="a_Node000001"><a xlink:href="classshrpx_1_1Http2Upstream.html" target="_top" xlink:title=" ">
<polygon fill="white" stroke="#666666" points="237.5,-96 124.75,-96 124.75,-76 237.5,-76 237.5,-96"/>
<text xml:space="preserve" text-anchor="middle" x="181.12" y="-82.5" font-family="Helvetica,sans-Serif" font-size="10.00">shrpx::Http2Upstream</text>
</a>
</g>
</g>
<!-- Node0&#45;&gt;Node1 -->
<g id="edge20_Node000000_Node000001" class="edge">
<title>Node0&#45;&gt;Node1</title>
<g id="a_edge20_Node000000_Node000001"><a xlink:title=" ">
<path fill="none" stroke="#63b8ff" d="M93.52,-61.58C109.83,-66.18 127.77,-71.23 143.07,-75.55"/>
<polygon fill="#63b8ff" stroke="#63b8ff" points="94.58,-58.24 84.01,-58.9 92.68,-64.98 94.58,-58.24"/>
</a>
</g>
</g>
<!-- Node2 -->
<g id="Node000002" class="node">
<title>Node2</title>
<g id="a_Node000002"><a xlink:href="classshrpx_1_1Http3Upstream.html" target="_top" xlink:title=" ">
<polygon fill="white" stroke="#666666" points="237.5,-58 124.75,-58 124.75,-38 237.5,-38 237.5,-58"/>
<text xml:space="preserve" text-anchor="middle" x="181.12" y="-44.5" font-family="Helvetica,sans-Serif" font-size="10.00">shrpx::Http3Upstream</text>
</a>
</g>
</g>
<!-- Node0&#45;&gt;Node2 -->
<g id="edge21_Node000000_Node000002" class="edge">
<title>Node0&#45;&gt;Node2</title>
<g id="a_edge21_Node000000_Node000002"><a xlink:title=" ">
<path fill="none" stroke="#63b8ff" d="M100.44,-48C108.31,-48 116.42,-48 124.3,-48"/>
<polygon fill="#63b8ff" stroke="#63b8ff" points="100.64,-44.5 90.64,-48 100.64,-51.5 100.64,-44.5"/>
</a>
</g>
</g>
<!-- Node3 -->
<g id="Node000003" class="node">
<title>Node3</title>
<g id="a_Node000003"><a xlink:href="classshrpx_1_1HttpsUpstream.html" target="_top" xlink:title=" ">
<polygon fill="white" stroke="#666666" points="237.5,-20 124.75,-20 124.75,0 237.5,0 237.5,-20"/>
<text xml:space="preserve" text-anchor="middle" x="181.12" y="-6.5" font-family="Helvetica,sans-Serif" font-size="10.00">shrpx::HttpsUpstream</text>
</a>
</g>
</g>
<!-- Node0&#45;&gt;Node3 -->
<g id="edge22_Node000000_Node000003" class="edge">
<title>Node0&#45;&gt;Node3</title>
<g id="a_edge22_Node000000_Node000003"><a xlink:title=" ">
<path fill="none" stroke="#63b8ff" d="M93.52,-34.42C109.83,-29.82 127.77,-24.77 143.07,-20.45"/>
<polygon fill="#63b8ff" stroke="#63b8ff" points="92.68,-31.02 84.01,-37.1 94.58,-37.76 92.68,-31.02"/>
</a>
</g>
</g>
</g>
</svg>
