<?xml version="1.0" encoding="UTF-8" standalone="no"?>
<!DOCTYPE svg PUBLIC "-//W3C//DTD SVG 1.1//EN"
 "http://www.w3.org/Graphics/SVG/1.1/DTD/svg11.dtd">
<!-- Generated by graphviz version 14.0.5 (0)
 -->
<!-- Title: managed_components/espressif__nghttp/nghttp2/third&#45;party/mruby/include/mruby/irep.h Pages: 1 -->
<svg width="879pt" height="344pt"
 viewBox="0.00 0.00 879.00 344.00" xmlns="http://www.w3.org/2000/svg" xmlns:xlink="http://www.w3.org/1999/xlink">
<g id="graph0" class="graph" transform="scale(1 1) rotate(0) translate(4 340)">
<title>managed_components/espressif__nghttp/nghttp2/third&#45;party/mruby/include/mruby/irep.h</title>
<!-- Node1 -->
<g id="Node000001" class="node">
<title>Node1</title>
<g id="a_Node000001"><a xlink:title=" ">
<polygon fill="#999999" stroke="#666666" points="131.5,-336 0,-336 0,-280 131.5,-280 131.5,-336"/>
<text xml:space="preserve" text-anchor="start" x="8" y="-322.5" font-family="Helvetica,sans-Serif" font-size="10.00">managed_components</text>
<text xml:space="preserve" text-anchor="start" x="8" y="-310.5" font-family="Helvetica,sans-Serif" font-size="10.00">/espressif__nghttp/nghttp2</text>
<text xml:space="preserve" text-anchor="start" x="8" y="-298.5" font-family="Helvetica,sans-Serif" font-size="10.00">/third&#45;party/mruby/include</text>
<text xml:space="preserve" text-anchor="middle" x="65.75" y="-286.5" font-family="Helvetica,sans-Serif" font-size="10.00">/mruby/irep.h</text>
</a>
</g>
</g>
<!-- Node2 -->
<g id="Node000002" class="node">
<title>Node2</title>
<g id="a_Node000002"><a xlink:href="common_8h.html" target="_top" xlink:title=" ">
<polygon fill="white" stroke="#666666" points="166.62,-76 104.88,-76 104.88,-56 166.62,-56 166.62,-76"/>
<text xml:space="preserve" text-anchor="middle" x="135.75" y="-62.5" font-family="Helvetica,sans-Serif" font-size="10.00">common.h</text>
</a>
</g>
</g>
<!-- Node1&#45;&gt;Node2 -->
<g id="edge1_Node000001_Node000002" class="edge">
<title>Node1&#45;&gt;Node2</title>
<g id="a_edge1_Node000001_Node000002"><a xlink:title=" ">
<path fill="none" stroke="#63b8ff" d="M54.03,-279.6C48.61,-263.37 44.26,-242.44 48.75,-224 62.08,-169.26 99.98,-113.53 121.09,-85.51"/>
<polygon fill="#63b8ff" stroke="#63b8ff" points="123.78,-87.76 127.11,-77.7 118.23,-83.49 123.78,-87.76"/>
</a>
</g>
</g>
<!-- Node4 -->
<g id="Node000004" class="node">
<title>Node4</title>
<g id="a_Node000004"><a xlink:href="compile_8h.html" target="_top" xlink:title=" ">
<polygon fill="white" stroke="#666666" points="145.75,-244 57.75,-244 57.75,-224 145.75,-224 145.75,-244"/>
<text xml:space="preserve" text-anchor="middle" x="101.75" y="-230.5" font-family="Helvetica,sans-Serif" font-size="10.00">mruby/compile.h</text>
</a>
</g>
</g>
<!-- Node1&#45;&gt;Node4 -->
<g id="edge3_Node000001_Node000004" class="edge">
<title>Node1&#45;&gt;Node4</title>
<g id="a_edge3_Node000001_Node000004"><a xlink:title=" ">
<path fill="none" stroke="#63b8ff" d="M79.36,-279.78C83.53,-271.43 88.04,-262.41 91.91,-254.67"/>
<polygon fill="#63b8ff" stroke="#63b8ff" points="94.99,-256.34 96.34,-245.83 88.73,-253.21 94.99,-256.34"/>
</a>
</g>
</g>
<!-- Node3 -->
<g id="Node000003" class="node">
<title>Node3</title>
<g id="a_Node000003"><a xlink:title=" ">
<polygon fill="#e0e0e0" stroke="#999999" points="169.25,-20 102.25,-20 102.25,0 169.25,0 169.25,-20"/>
<text xml:space="preserve" text-anchor="middle" x="135.75" y="-6.5" font-family="Helvetica,sans-Serif" font-size="10.00">sys/types.h</text>
</a>
</g>
</g>
<!-- Node2&#45;&gt;Node3 -->
<g id="edge2_Node000002_Node000003" class="edge">
<title>Node2&#45;&gt;Node3</title>
<g id="a_edge2_Node000002_Node000003"><a xlink:title=" ">
<path fill="none" stroke="#63b8ff" d="M135.75,-55.59C135.75,-49.01 135.75,-39.96 135.75,-31.73"/>
<polygon fill="#63b8ff" stroke="#63b8ff" points="139.25,-31.81 135.75,-21.81 132.25,-31.81 139.25,-31.81"/>
</a>
</g>
</g>
<!-- Node4&#45;&gt;Node2 -->
<g id="edge4_Node000004_Node000002" class="edge">
<title>Node4&#45;&gt;Node2</title>
<g id="a_edge4_Node000004_Node000002"><a xlink:title=" ">
<path fill="none" stroke="#63b8ff" d="M101.72,-223.7C101.87,-203.15 103.46,-152.5 114.75,-112 117.18,-103.3 121.14,-94.18 124.97,-86.44"/>
<polygon fill="#63b8ff" stroke="#63b8ff" points="128.03,-88.12 129.59,-77.64 121.84,-84.87 128.03,-88.12"/>
</a>
</g>
</g>
<!-- Node5 -->
<g id="Node000005" class="node">
<title>Node5</title>
<g id="a_Node000005"><a xlink:href="mruby_8h.html" target="_top" xlink:title=" ">
<polygon fill="white" stroke="#666666" points="500,-188 449.5,-188 449.5,-168 500,-168 500,-188"/>
<text xml:space="preserve" text-anchor="middle" x="474.75" y="-174.5" font-family="Helvetica,sans-Serif" font-size="10.00">mruby.h</text>
</a>
</g>
</g>
<!-- Node4&#45;&gt;Node5 -->
<g id="edge5_Node000004_Node000005" class="edge">
<title>Node4&#45;&gt;Node5</title>
<g id="a_edge5_Node000004_Node000005"><a xlink:title=" ">
<path fill="none" stroke="#63b8ff" d="M146,-226.59C220.43,-215.82 369.28,-194.27 438.19,-184.29"/>
<polygon fill="#63b8ff" stroke="#63b8ff" points="438.42,-187.8 447.82,-182.9 437.42,-180.87 438.42,-187.8"/>
</a>
</g>
</g>
<!-- Node5&#45;&gt;Node2 -->
<g id="edge12_Node000005_Node000002" class="edge">
<title>Node5&#45;&gt;Node2</title>
<g id="a_edge12_Node000005_Node000002"><a xlink:title=" ">
<path fill="none" stroke="#63b8ff" d="M449.19,-175.63C372.15,-171.24 146.2,-156.38 124.75,-132 113.89,-119.66 118.68,-100.71 124.97,-86.45"/>
<polygon fill="#63b8ff" stroke="#63b8ff" points="128.06,-88.1 129.4,-77.59 121.8,-84.97 128.06,-88.1"/>
</a>
</g>
</g>
<!-- Node6 -->
<g id="Node000006" class="node">
<title>Node6</title>
<g id="a_Node000006"><a xlink:title=" ">
<polygon fill="#e0e0e0" stroke="#999999" points="466.38,-132 415.12,-132 415.12,-112 466.38,-112 466.38,-132"/>
<text xml:space="preserve" text-anchor="middle" x="440.75" y="-118.5" font-family="Helvetica,sans-Serif" font-size="10.00">stdarg.h</text>
</a>
</g>
</g>
<!-- Node5&#45;&gt;Node6 -->
<g id="edge6_Node000005_Node000006" class="edge">
<title>Node5&#45;&gt;Node6</title>
<g id="a_edge6_Node000005_Node000006"><a xlink:title=" ">
<path fill="none" stroke="#63b8ff" d="M468.83,-167.59C464.39,-160.55 458.17,-150.67 452.71,-142"/>
<polygon fill="#63b8ff" stroke="#63b8ff" points="455.7,-140.18 447.41,-133.58 449.78,-143.91 455.7,-140.18"/>
</a>
</g>
</g>
<!-- Node7 -->
<g id="Node000007" class="node">
<title>Node7</title>
<g id="a_Node000007"><a xlink:title=" ">
<polygon fill="#e0e0e0" stroke="#999999" points="532.88,-132 484.62,-132 484.62,-112 532.88,-112 532.88,-132"/>
<text xml:space="preserve" text-anchor="middle" x="508.75" y="-118.5" font-family="Helvetica,sans-Serif" font-size="10.00">stdint.h</text>
</a>
</g>
</g>
<!-- Node5&#45;&gt;Node7 -->
<g id="edge7_Node000005_Node000007" class="edge">
<title>Node5&#45;&gt;Node7</title>
<g id="a_edge7_Node000005_Node000007"><a xlink:title=" ">
<path fill="none" stroke="#63b8ff" d="M480.67,-167.59C485.11,-160.55 491.33,-150.67 496.79,-142"/>
<polygon fill="#63b8ff" stroke="#63b8ff" points="499.72,-143.91 502.09,-133.58 493.8,-140.18 499.72,-143.91"/>
</a>
</g>
</g>
<!-- Node8 -->
<g id="Node000008" class="node">
<title>Node8</title>
<g id="a_Node000008"><a xlink:title=" ">
<polygon fill="#e0e0e0" stroke="#999999" points="602.38,-132 551.12,-132 551.12,-112 602.38,-112 602.38,-132"/>
<text xml:space="preserve" text-anchor="middle" x="576.75" y="-118.5" font-family="Helvetica,sans-Serif" font-size="10.00">stddef.h</text>
</a>
</g>
</g>
<!-- Node5&#45;&gt;Node8 -->
<g id="edge8_Node000005_Node000008" class="edge">
<title>Node5&#45;&gt;Node8</title>
<g id="a_edge8_Node000005_Node000008"><a xlink:title=" ">
<path fill="none" stroke="#63b8ff" d="M492.52,-167.59C508.07,-159.36 530.93,-147.26 548.91,-137.74"/>
<polygon fill="#63b8ff" stroke="#63b8ff" points="550.31,-140.96 557.51,-133.19 547.03,-134.77 550.31,-140.96"/>
</a>
</g>
</g>
<!-- Node9 -->
<g id="Node000009" class="node">
<title>Node9</title>
<g id="a_Node000009"><a xlink:title=" ">
<polygon fill="#e0e0e0" stroke="#999999" points="667.5,-132 620,-132 620,-112 667.5,-112 667.5,-132"/>
<text xml:space="preserve" text-anchor="middle" x="643.75" y="-118.5" font-family="Helvetica,sans-Serif" font-size="10.00">limits.h</text>
</a>
</g>
</g>
<!-- Node5&#45;&gt;Node9 -->
<g id="edge9_Node000005_Node000009" class="edge">
<title>Node5&#45;&gt;Node9</title>
<g id="a_edge9_Node000005_Node000009"><a xlink:title=" ">
<path fill="none" stroke="#63b8ff" d="M500.42,-168.8C529.41,-159.53 576.75,-144.41 609.02,-134.1"/>
<polygon fill="#63b8ff" stroke="#63b8ff" points="609.86,-137.5 618.32,-131.13 607.73,-130.84 609.86,-137.5"/>
</a>
</g>
</g>
<!-- Node10 -->
<g id="Node000010" class="node">
<title>Node10</title>
<g id="a_Node000010"><a xlink:href="mrbconf_8h_source.html" target="_top" xlink:title=" ">
<polygon fill="white" stroke="#666666" points="745.5,-132 686,-132 686,-112 745.5,-112 745.5,-132"/>
<text xml:space="preserve" text-anchor="middle" x="715.75" y="-118.5" font-family="Helvetica,sans-Serif" font-size="10.00">mrbconf.h</text>
</a>
</g>
</g>
<!-- Node5&#45;&gt;Node10 -->
<g id="edge10_Node000005_Node000010" class="edge">
<title>Node5&#45;&gt;Node10</title>
<g id="a_edge10_Node000005_Node000010"><a xlink:title=" ">
<path fill="none" stroke="#63b8ff" d="M500.27,-171.38C536.66,-163.35 605.83,-148.04 674.51,-132.5"/>
<polygon fill="#63b8ff" stroke="#63b8ff" points="675.07,-135.96 684.05,-130.33 673.52,-129.13 675.07,-135.96"/>
</a>
</g>
</g>
<!-- Node12 -->
<g id="Node000012" class="node">
<title>Node12</title>
<g id="a_Node000012"><a xlink:href="value_8h.html" target="_top" xlink:title=" ">
<polygon fill="white" stroke="#666666" points="397.5,-132 320,-132 320,-112 397.5,-112 397.5,-132"/>
<text xml:space="preserve" text-anchor="middle" x="358.75" y="-118.5" font-family="Helvetica,sans-Serif" font-size="10.00">mruby/value.h</text>
</a>
</g>
</g>
<!-- Node5&#45;&gt;Node12 -->
<g id="edge13_Node000005_Node000012" class="edge">
<title>Node5&#45;&gt;Node12</title>
<g id="a_edge13_Node000005_Node000012"><a xlink:title=" ">
<path fill="none" stroke="#63b8ff" d="M454.54,-167.59C436.52,-159.21 409.88,-146.8 389.27,-137.21"/>
<polygon fill="#63b8ff" stroke="#63b8ff" points="391.03,-134.17 380.49,-133.12 388.07,-140.51 391.03,-134.17"/>
</a>
</g>
</g>
<!-- Node16 -->
<g id="Node000016" class="node">
<title>Node16</title>
<g id="a_Node000016"><a xlink:href="gc_8h.html" target="_top" xlink:title=" ">
<polygon fill="white" stroke="#666666" points="198.12,-132 133.38,-132 133.38,-112 198.12,-112 198.12,-132"/>
<text xml:space="preserve" text-anchor="middle" x="165.75" y="-118.5" font-family="Helvetica,sans-Serif" font-size="10.00">mruby/gc.h</text>
</a>
</g>
</g>
<!-- Node5&#45;&gt;Node16 -->
<g id="edge18_Node000005_Node000016" class="edge">
<title>Node5&#45;&gt;Node16</title>
<g id="a_edge18_Node000005_Node000016"><a xlink:title=" ">
<path fill="none" stroke="#63b8ff" d="M449.18,-173.14C403.23,-166.11 303.44,-150.43 209.52,-132.46"/>
<polygon fill="#63b8ff" stroke="#63b8ff" points="210.36,-129.06 199.88,-130.61 209.04,-135.93 210.36,-129.06"/>
</a>
</g>
</g>
<!-- Node17 -->
<g id="Node000017" class="node">
<title>Node17</title>
<g id="a_Node000017"><a xlink:href="version_8h.html" target="_top" xlink:title=" ">
<polygon fill="white" stroke="#666666" points="301.62,-132 215.88,-132 215.88,-112 301.62,-112 301.62,-132"/>
<text xml:space="preserve" text-anchor="middle" x="258.75" y="-118.5" font-family="Helvetica,sans-Serif" font-size="10.00">mruby/version.h</text>
</a>
</g>
</g>
<!-- Node5&#45;&gt;Node17 -->
<g id="edge20_Node000005_Node000017" class="edge">
<title>Node5&#45;&gt;Node17</title>
<g id="a_edge20_Node000005_Node000017"><a xlink:title=" ">
<path fill="none" stroke="#63b8ff" d="M449.12,-170.59C414.38,-161.91 351.62,-146.22 307.69,-135.24"/>
<polygon fill="#63b8ff" stroke="#63b8ff" points="308.7,-131.88 298.15,-132.85 307,-138.67 308.7,-131.88"/>
</a>
</g>
</g>
<!-- Node18 -->
<g id="Node000018" class="node">
<title>Node18</title>
<g id="a_Node000018"><a xlink:title=" ">
<polygon fill="#e0e0e0" stroke="#999999" points="809.75,-132 763.75,-132 763.75,-112 809.75,-112 809.75,-132"/>
<text xml:space="preserve" text-anchor="middle" x="786.75" y="-118.5" font-family="Helvetica,sans-Serif" font-size="10.00">math.h</text>
</a>
</g>
</g>
<!-- Node5&#45;&gt;Node18 -->
<g id="edge22_Node000005_Node000018" class="edge">
<title>Node5&#45;&gt;Node18</title>
<g id="a_edge22_Node000005_Node000018"><a xlink:title=" ">
<path fill="none" stroke="#63b8ff" d="M500.42,-173.88C548.14,-167.86 653.94,-153.52 752.37,-132.31"/>
<polygon fill="#63b8ff" stroke="#63b8ff" points="752.91,-135.78 761.93,-130.22 751.41,-128.94 752.91,-135.78"/>
</a>
</g>
</g>
<!-- Node19 -->
<g id="Node000019" class="node">
<title>Node19</title>
<g id="a_Node000019"><a xlink:title=" ">
<polygon fill="#e0e0e0" stroke="#999999" points="871.25,-132 828.25,-132 828.25,-112 871.25,-112 871.25,-132"/>
<text xml:space="preserve" text-anchor="middle" x="849.75" y="-118.5" font-family="Helvetica,sans-Serif" font-size="10.00">float.h</text>
</a>
</g>
</g>
<!-- Node5&#45;&gt;Node19 -->
<g id="edge23_Node000005_Node000019" class="edge">
<title>Node5&#45;&gt;Node19</title>
<g id="a_edge23_Node000005_Node000019"><a xlink:title=" ">
<path fill="none" stroke="#63b8ff" d="M500.44,-174.99C556.24,-170.33 692.82,-157.4 816.66,-132.13"/>
<polygon fill="#63b8ff" stroke="#63b8ff" points="817.28,-135.58 826.36,-130.12 815.85,-128.73 817.28,-135.58"/>
</a>
</g>
</g>
<!-- Node11 -->
<g id="Node000011" class="node">
<title>Node11</title>
<g id="a_Node000011"><a xlink:title=" ">
<polygon fill="#e0e0e0" stroke="#999999" points="738.38,-76 693.12,-76 693.12,-56 738.38,-56 738.38,-76"/>
<text xml:space="preserve" text-anchor="middle" x="715.75" y="-62.5" font-family="Helvetica,sans-Serif" font-size="10.00">stdio.h</text>
</a>
</g>
</g>
<!-- Node10&#45;&gt;Node11 -->
<g id="edge11_Node000010_Node000011" class="edge">
<title>Node10&#45;&gt;Node11</title>
<g id="a_edge11_Node000010_Node000011"><a xlink:title=" ">
<path fill="none" stroke="#63b8ff" d="M715.75,-111.59C715.75,-105.01 715.75,-95.96 715.75,-87.73"/>
<polygon fill="#63b8ff" stroke="#63b8ff" points="719.25,-87.81 715.75,-77.81 712.25,-87.81 719.25,-87.81"/>
</a>
</g>
</g>
<!-- Node12&#45;&gt;Node2 -->
<g id="edge14_Node000012_Node000002" class="edge">
<title>Node12&#45;&gt;Node2</title>
<g id="a_edge14_Node000012_Node000002"><a xlink:title=" ">
<path fill="none" stroke="#63b8ff" d="M319.65,-111.53C280,-101.93 218.83,-87.12 178.07,-77.25"/>
<polygon fill="#63b8ff" stroke="#63b8ff" points="178.9,-73.85 168.36,-74.9 177.25,-80.65 178.9,-73.85"/>
</a>
</g>
</g>
<!-- Node13 -->
<g id="Node000013" class="node">
<title>Node13</title>
<g id="a_Node000013"><a xlink:title=" ">
<polygon fill="#e0e0e0" stroke="#999999" points="300.12,-76 241.38,-76 241.38,-56 300.12,-56 300.12,-76"/>
<text xml:space="preserve" text-anchor="middle" x="270.75" y="-62.5" font-family="Helvetica,sans-Serif" font-size="10.00">inttypes.h</text>
</a>
</g>
</g>
<!-- Node12&#45;&gt;Node13 -->
<g id="edge15_Node000012_Node000013" class="edge">
<title>Node12&#45;&gt;Node13</title>
<g id="a_edge15_Node000012_Node000013"><a xlink:title=" ">
<path fill="none" stroke="#63b8ff" d="M343.42,-111.59C330.25,-103.51 311.02,-91.71 295.64,-82.27"/>
<polygon fill="#63b8ff" stroke="#63b8ff" points="297.84,-79.52 287.49,-77.27 294.18,-85.48 297.84,-79.52"/>
</a>
</g>
</g>
<!-- Node14 -->
<g id="Node000014" class="node">
<title>Node14</title>
<g id="a_Node000014"><a xlink:href="object_8h.html" target="_top" xlink:title=" ">
<polygon fill="white" stroke="#666666" points="399,-76 318.5,-76 318.5,-56 399,-56 399,-76"/>
<text xml:space="preserve" text-anchor="middle" x="358.75" y="-62.5" font-family="Helvetica,sans-Serif" font-size="10.00">mruby/object.h</text>
</a>
</g>
</g>
<!-- Node12&#45;&gt;Node14 -->
<g id="edge16_Node000012_Node000014" class="edge">
<title>Node12&#45;&gt;Node14</title>
<g id="a_edge16_Node000012_Node000014"><a xlink:title=" ">
<path fill="none" stroke="#63b8ff" d="M358.75,-111.59C358.75,-105.01 358.75,-95.96 358.75,-87.73"/>
<polygon fill="#63b8ff" stroke="#63b8ff" points="362.25,-87.81 358.75,-77.81 355.25,-87.81 362.25,-87.81"/>
</a>
</g>
</g>
<!-- Node15 -->
<g id="Node000015" class="node">
<title>Node15</title>
<g id="a_Node000015"><a xlink:href="boxing__no_8h.html" target="_top" xlink:title=" ">
<polygon fill="white" stroke="#666666" points="486,-76 417.5,-76 417.5,-56 486,-56 486,-76"/>
<text xml:space="preserve" text-anchor="middle" x="451.75" y="-62.5" font-family="Helvetica,sans-Serif" font-size="10.00">boxing_no.h</text>
</a>
</g>
</g>
<!-- Node12&#45;&gt;Node15 -->
<g id="edge17_Node000012_Node000015" class="edge">
<title>Node12&#45;&gt;Node15</title>
<g id="a_edge17_Node000012_Node000015"><a xlink:title=" ">
<path fill="none" stroke="#63b8ff" d="M374.95,-111.59C389,-103.44 409.58,-91.48 425.91,-82"/>
<polygon fill="#63b8ff" stroke="#63b8ff" points="427.22,-85.29 434.12,-77.24 423.71,-79.23 427.22,-85.29"/>
</a>
</g>
</g>
<!-- Node16&#45;&gt;Node2 -->
<g id="edge19_Node000016_Node000002" class="edge">
<title>Node16&#45;&gt;Node2</title>
<g id="a_edge19_Node000016_Node000002"><a xlink:title=" ">
<path fill="none" stroke="#63b8ff" d="M160.52,-111.59C156.65,-104.63 151.24,-94.89 146.47,-86.29"/>
<polygon fill="#63b8ff" stroke="#63b8ff" points="149.57,-84.66 141.65,-77.62 143.45,-88.06 149.57,-84.66"/>
</a>
</g>
</g>
<!-- Node17&#45;&gt;Node2 -->
<g id="edge21_Node000017_Node000002" class="edge">
<title>Node17&#45;&gt;Node2</title>
<g id="a_edge21_Node000017_Node000002"><a xlink:title=" ">
<path fill="none" stroke="#63b8ff" d="M237.33,-111.59C218.13,-103.17 189.71,-90.69 167.81,-81.07"/>
<polygon fill="#63b8ff" stroke="#63b8ff" points="169.29,-77.9 158.73,-77.09 166.48,-84.31 169.29,-77.9"/>
</a>
</g>
</g>
</g>
</svg>
