<?xml version="1.0" encoding="UTF-8" standalone="no"?>
<!DOCTYPE svg PUBLIC "-//W3C//DTD SVG 1.1//EN"
 "http://www.w3.org/Graphics/SVG/1.1/DTD/svg11.dtd">
<!-- Generated by graphviz version 14.0.5 (0)
 -->
<!-- Title: managed_components/espressif__nghttp/nghttp2/third&#45;party/mruby/include/mruby/khash.h Pages: 1 -->
<svg width="863pt" height="288pt"
 viewBox="0.00 0.00 863.00 288.00" xmlns="http://www.w3.org/2000/svg" xmlns:xlink="http://www.w3.org/1999/xlink">
<g id="graph0" class="graph" transform="scale(1 1) rotate(0) translate(4 284)">
<title>managed_components/espressif__nghttp/nghttp2/third&#45;party/mruby/include/mruby/khash.h</title>
<!-- Node1 -->
<g id="Node000001" class="node">
<title>Node1</title>
<g id="a_Node000001"><a xlink:title=" ">
<polygon fill="#999999" stroke="#666666" points="131.5,-280 0,-280 0,-224 131.5,-224 131.5,-280"/>
<text xml:space="preserve" text-anchor="start" x="8" y="-266.5" font-family="Helvetica,sans-Serif" font-size="10.00">managed_components</text>
<text xml:space="preserve" text-anchor="start" x="8" y="-254.5" font-family="Helvetica,sans-Serif" font-size="10.00">/espressif__nghttp/nghttp2</text>
<text xml:space="preserve" text-anchor="start" x="8" y="-242.5" font-family="Helvetica,sans-Serif" font-size="10.00">/third&#45;party/mruby/include</text>
<text xml:space="preserve" text-anchor="middle" x="65.75" y="-230.5" font-family="Helvetica,sans-Serif" font-size="10.00">/mruby/khash.h</text>
</a>
</g>
</g>
<!-- Node2 -->
<g id="Node000002" class="node">
<title>Node2</title>
<g id="a_Node000002"><a xlink:href="string_8h.html" target="_top" xlink:title=" ">
<polygon fill="white" stroke="#666666" points="89.88,-188 41.62,-188 41.62,-168 89.88,-168 89.88,-188"/>
<text xml:space="preserve" text-anchor="middle" x="65.75" y="-174.5" font-family="Helvetica,sans-Serif" font-size="10.00">string.h</text>
</a>
</g>
</g>
<!-- Node1&#45;&gt;Node2 -->
<g id="edge1_Node000001_Node000002" class="edge">
<title>Node1&#45;&gt;Node2</title>
<g id="a_edge1_Node000001_Node000002"><a xlink:title=" ">
<path fill="none" stroke="#63b8ff" d="M65.75,-223.78C65.75,-215.82 65.75,-207.25 65.75,-199.76"/>
<polygon fill="#63b8ff" stroke="#63b8ff" points="69.25,-199.99 65.75,-189.99 62.25,-199.99 69.25,-199.99"/>
</a>
</g>
</g>
<!-- Node3 -->
<g id="Node000003" class="node">
<title>Node3</title>
<g id="a_Node000003"><a xlink:href="common_8h.html" target="_top" xlink:title=" ">
<polygon fill="white" stroke="#666666" points="150.62,-76 88.88,-76 88.88,-56 150.62,-56 150.62,-76"/>
<text xml:space="preserve" text-anchor="middle" x="119.75" y="-62.5" font-family="Helvetica,sans-Serif" font-size="10.00">common.h</text>
</a>
</g>
</g>
<!-- Node1&#45;&gt;Node3 -->
<g id="edge23_Node000001_Node000003" class="edge">
<title>Node1&#45;&gt;Node3</title>
<g id="a_edge23_Node000001_Node000003"><a xlink:title=" ">
<path fill="none" stroke="#63b8ff" d="M45.33,-223.86C35.78,-207.9 27.53,-187.15 32.75,-168 40.35,-140.13 47.04,-134.02 65.75,-112 74.95,-101.18 86.94,-90.89 97.29,-82.9"/>
<polygon fill="#63b8ff" stroke="#63b8ff" points="99.07,-85.94 104.99,-77.15 94.88,-80.33 99.07,-85.94"/>
</a>
</g>
</g>
<!-- Node5 -->
<g id="Node000005" class="node">
<title>Node5</title>
<g id="a_Node000005"><a xlink:href="mruby_8h.html" target="_top" xlink:title=" ">
<polygon fill="white" stroke="#666666" points="484,-188 433.5,-188 433.5,-168 484,-168 484,-188"/>
<text xml:space="preserve" text-anchor="middle" x="458.75" y="-174.5" font-family="Helvetica,sans-Serif" font-size="10.00">mruby.h</text>
</a>
</g>
</g>
<!-- Node1&#45;&gt;Node5 -->
<g id="edge4_Node000001_Node000005" class="edge">
<title>Node1&#45;&gt;Node5</title>
<g id="a_edge4_Node000001_Node000005"><a xlink:title=" ">
<path fill="none" stroke="#63b8ff" d="M131.97,-238.87C215.34,-223.59 355.66,-197.89 421.95,-185.74"/>
<polygon fill="#63b8ff" stroke="#63b8ff" points="422.37,-189.22 431.57,-183.98 421.11,-182.34 422.37,-189.22"/>
</a>
</g>
</g>
<!-- Node2&#45;&gt;Node3 -->
<g id="edge2_Node000002_Node000003" class="edge">
<title>Node2&#45;&gt;Node3</title>
<g id="a_edge2_Node000002_Node000003"><a xlink:title=" ">
<path fill="none" stroke="#63b8ff" d="M65.44,-167.64C65.38,-154.5 66.67,-130.18 75.75,-112 81.13,-101.23 90.03,-91.4 98.42,-83.69"/>
<polygon fill="#63b8ff" stroke="#63b8ff" points="100.67,-86.37 105.99,-77.2 96.12,-81.05 100.67,-86.37"/>
</a>
</g>
</g>
<!-- Node4 -->
<g id="Node000004" class="node">
<title>Node4</title>
<g id="a_Node000004"><a xlink:title=" ">
<polygon fill="#e0e0e0" stroke="#999999" points="153.25,-20 86.25,-20 86.25,0 153.25,0 153.25,-20"/>
<text xml:space="preserve" text-anchor="middle" x="119.75" y="-6.5" font-family="Helvetica,sans-Serif" font-size="10.00">sys/types.h</text>
</a>
</g>
</g>
<!-- Node3&#45;&gt;Node4 -->
<g id="edge3_Node000003_Node000004" class="edge">
<title>Node3&#45;&gt;Node4</title>
<g id="a_edge3_Node000003_Node000004"><a xlink:title=" ">
<path fill="none" stroke="#63b8ff" d="M119.75,-55.59C119.75,-49.01 119.75,-39.96 119.75,-31.73"/>
<polygon fill="#63b8ff" stroke="#63b8ff" points="123.25,-31.81 119.75,-21.81 116.25,-31.81 123.25,-31.81"/>
</a>
</g>
</g>
<!-- Node5&#45;&gt;Node3 -->
<g id="edge11_Node000005_Node000003" class="edge">
<title>Node5&#45;&gt;Node3</title>
<g id="a_edge11_Node000005_Node000003"><a xlink:title=" ">
<path fill="none" stroke="#63b8ff" d="M433.19,-175.63C356.15,-171.24 130.2,-156.38 108.75,-132 97.89,-119.66 102.68,-100.71 108.97,-86.45"/>
<polygon fill="#63b8ff" stroke="#63b8ff" points="112.06,-88.1 113.4,-77.59 105.8,-84.97 112.06,-88.1"/>
</a>
</g>
</g>
<!-- Node6 -->
<g id="Node000006" class="node">
<title>Node6</title>
<g id="a_Node000006"><a xlink:title=" ">
<polygon fill="#e0e0e0" stroke="#999999" points="450.38,-132 399.12,-132 399.12,-112 450.38,-112 450.38,-132"/>
<text xml:space="preserve" text-anchor="middle" x="424.75" y="-118.5" font-family="Helvetica,sans-Serif" font-size="10.00">stdarg.h</text>
</a>
</g>
</g>
<!-- Node5&#45;&gt;Node6 -->
<g id="edge5_Node000005_Node000006" class="edge">
<title>Node5&#45;&gt;Node6</title>
<g id="a_edge5_Node000005_Node000006"><a xlink:title=" ">
<path fill="none" stroke="#63b8ff" d="M452.83,-167.59C448.39,-160.55 442.17,-150.67 436.71,-142"/>
<polygon fill="#63b8ff" stroke="#63b8ff" points="439.7,-140.18 431.41,-133.58 433.78,-143.91 439.7,-140.18"/>
</a>
</g>
</g>
<!-- Node7 -->
<g id="Node000007" class="node">
<title>Node7</title>
<g id="a_Node000007"><a xlink:title=" ">
<polygon fill="#e0e0e0" stroke="#999999" points="516.88,-132 468.62,-132 468.62,-112 516.88,-112 516.88,-132"/>
<text xml:space="preserve" text-anchor="middle" x="492.75" y="-118.5" font-family="Helvetica,sans-Serif" font-size="10.00">stdint.h</text>
</a>
</g>
</g>
<!-- Node5&#45;&gt;Node7 -->
<g id="edge6_Node000005_Node000007" class="edge">
<title>Node5&#45;&gt;Node7</title>
<g id="a_edge6_Node000005_Node000007"><a xlink:title=" ">
<path fill="none" stroke="#63b8ff" d="M464.67,-167.59C469.11,-160.55 475.33,-150.67 480.79,-142"/>
<polygon fill="#63b8ff" stroke="#63b8ff" points="483.72,-143.91 486.09,-133.58 477.8,-140.18 483.72,-143.91"/>
</a>
</g>
</g>
<!-- Node8 -->
<g id="Node000008" class="node">
<title>Node8</title>
<g id="a_Node000008"><a xlink:title=" ">
<polygon fill="#e0e0e0" stroke="#999999" points="586.38,-132 535.12,-132 535.12,-112 586.38,-112 586.38,-132"/>
<text xml:space="preserve" text-anchor="middle" x="560.75" y="-118.5" font-family="Helvetica,sans-Serif" font-size="10.00">stddef.h</text>
</a>
</g>
</g>
<!-- Node5&#45;&gt;Node8 -->
<g id="edge7_Node000005_Node000008" class="edge">
<title>Node5&#45;&gt;Node8</title>
<g id="a_edge7_Node000005_Node000008"><a xlink:title=" ">
<path fill="none" stroke="#63b8ff" d="M476.52,-167.59C492.07,-159.36 514.93,-147.26 532.91,-137.74"/>
<polygon fill="#63b8ff" stroke="#63b8ff" points="534.31,-140.96 541.51,-133.19 531.03,-134.77 534.31,-140.96"/>
</a>
</g>
</g>
<!-- Node9 -->
<g id="Node000009" class="node">
<title>Node9</title>
<g id="a_Node000009"><a xlink:title=" ">
<polygon fill="#e0e0e0" stroke="#999999" points="651.5,-132 604,-132 604,-112 651.5,-112 651.5,-132"/>
<text xml:space="preserve" text-anchor="middle" x="627.75" y="-118.5" font-family="Helvetica,sans-Serif" font-size="10.00">limits.h</text>
</a>
</g>
</g>
<!-- Node5&#45;&gt;Node9 -->
<g id="edge8_Node000005_Node000009" class="edge">
<title>Node5&#45;&gt;Node9</title>
<g id="a_edge8_Node000005_Node000009"><a xlink:title=" ">
<path fill="none" stroke="#63b8ff" d="M484.42,-168.8C513.41,-159.53 560.75,-144.41 593.02,-134.1"/>
<polygon fill="#63b8ff" stroke="#63b8ff" points="593.86,-137.5 602.32,-131.13 591.73,-130.84 593.86,-137.5"/>
</a>
</g>
</g>
<!-- Node10 -->
<g id="Node000010" class="node">
<title>Node10</title>
<g id="a_Node000010"><a xlink:href="mrbconf_8h_source.html" target="_top" xlink:title=" ">
<polygon fill="white" stroke="#666666" points="729.5,-132 670,-132 670,-112 729.5,-112 729.5,-132"/>
<text xml:space="preserve" text-anchor="middle" x="699.75" y="-118.5" font-family="Helvetica,sans-Serif" font-size="10.00">mrbconf.h</text>
</a>
</g>
</g>
<!-- Node5&#45;&gt;Node10 -->
<g id="edge9_Node000005_Node000010" class="edge">
<title>Node5&#45;&gt;Node10</title>
<g id="a_edge9_Node000005_Node000010"><a xlink:title=" ">
<path fill="none" stroke="#63b8ff" d="M484.27,-171.38C520.66,-163.35 589.83,-148.04 658.51,-132.5"/>
<polygon fill="#63b8ff" stroke="#63b8ff" points="659.07,-135.96 668.05,-130.33 657.52,-129.13 659.07,-135.96"/>
</a>
</g>
</g>
<!-- Node12 -->
<g id="Node000012" class="node">
<title>Node12</title>
<g id="a_Node000012"><a xlink:href="value_8h.html" target="_top" xlink:title=" ">
<polygon fill="white" stroke="#666666" points="381.5,-132 304,-132 304,-112 381.5,-112 381.5,-132"/>
<text xml:space="preserve" text-anchor="middle" x="342.75" y="-118.5" font-family="Helvetica,sans-Serif" font-size="10.00">mruby/value.h</text>
</a>
</g>
</g>
<!-- Node5&#45;&gt;Node12 -->
<g id="edge12_Node000005_Node000012" class="edge">
<title>Node5&#45;&gt;Node12</title>
<g id="a_edge12_Node000005_Node000012"><a xlink:title=" ">
<path fill="none" stroke="#63b8ff" d="M438.54,-167.59C420.52,-159.21 393.88,-146.8 373.27,-137.21"/>
<polygon fill="#63b8ff" stroke="#63b8ff" points="375.03,-134.17 364.49,-133.12 372.07,-140.51 375.03,-134.17"/>
</a>
</g>
</g>
<!-- Node16 -->
<g id="Node000016" class="node">
<title>Node16</title>
<g id="a_Node000016"><a xlink:href="gc_8h.html" target="_top" xlink:title=" ">
<polygon fill="white" stroke="#666666" points="182.12,-132 117.38,-132 117.38,-112 182.12,-112 182.12,-132"/>
<text xml:space="preserve" text-anchor="middle" x="149.75" y="-118.5" font-family="Helvetica,sans-Serif" font-size="10.00">mruby/gc.h</text>
</a>
</g>
</g>
<!-- Node5&#45;&gt;Node16 -->
<g id="edge17_Node000005_Node000016" class="edge">
<title>Node5&#45;&gt;Node16</title>
<g id="a_edge17_Node000005_Node000016"><a xlink:title=" ">
<path fill="none" stroke="#63b8ff" d="M433.18,-173.14C387.23,-166.11 287.44,-150.43 193.52,-132.46"/>
<polygon fill="#63b8ff" stroke="#63b8ff" points="194.36,-129.06 183.88,-130.61 193.04,-135.93 194.36,-129.06"/>
</a>
</g>
</g>
<!-- Node17 -->
<g id="Node000017" class="node">
<title>Node17</title>
<g id="a_Node000017"><a xlink:href="version_8h.html" target="_top" xlink:title=" ">
<polygon fill="white" stroke="#666666" points="285.62,-132 199.88,-132 199.88,-112 285.62,-112 285.62,-132"/>
<text xml:space="preserve" text-anchor="middle" x="242.75" y="-118.5" font-family="Helvetica,sans-Serif" font-size="10.00">mruby/version.h</text>
</a>
</g>
</g>
<!-- Node5&#45;&gt;Node17 -->
<g id="edge19_Node000005_Node000017" class="edge">
<title>Node5&#45;&gt;Node17</title>
<g id="a_edge19_Node000005_Node000017"><a xlink:title=" ">
<path fill="none" stroke="#63b8ff" d="M433.12,-170.59C398.38,-161.91 335.62,-146.22 291.69,-135.24"/>
<polygon fill="#63b8ff" stroke="#63b8ff" points="292.7,-131.88 282.15,-132.85 291,-138.67 292.7,-131.88"/>
</a>
</g>
</g>
<!-- Node18 -->
<g id="Node000018" class="node">
<title>Node18</title>
<g id="a_Node000018"><a xlink:title=" ">
<polygon fill="#e0e0e0" stroke="#999999" points="793.75,-132 747.75,-132 747.75,-112 793.75,-112 793.75,-132"/>
<text xml:space="preserve" text-anchor="middle" x="770.75" y="-118.5" font-family="Helvetica,sans-Serif" font-size="10.00">math.h</text>
</a>
</g>
</g>
<!-- Node5&#45;&gt;Node18 -->
<g id="edge21_Node000005_Node000018" class="edge">
<title>Node5&#45;&gt;Node18</title>
<g id="a_edge21_Node000005_Node000018"><a xlink:title=" ">
<path fill="none" stroke="#63b8ff" d="M484.42,-173.88C532.14,-167.86 637.94,-153.52 736.37,-132.31"/>
<polygon fill="#63b8ff" stroke="#63b8ff" points="736.91,-135.78 745.93,-130.22 735.41,-128.94 736.91,-135.78"/>
</a>
</g>
</g>
<!-- Node19 -->
<g id="Node000019" class="node">
<title>Node19</title>
<g id="a_Node000019"><a xlink:title=" ">
<polygon fill="#e0e0e0" stroke="#999999" points="855.25,-132 812.25,-132 812.25,-112 855.25,-112 855.25,-132"/>
<text xml:space="preserve" text-anchor="middle" x="833.75" y="-118.5" font-family="Helvetica,sans-Serif" font-size="10.00">float.h</text>
</a>
</g>
</g>
<!-- Node5&#45;&gt;Node19 -->
<g id="edge22_Node000005_Node000019" class="edge">
<title>Node5&#45;&gt;Node19</title>
<g id="a_edge22_Node000005_Node000019"><a xlink:title=" ">
<path fill="none" stroke="#63b8ff" d="M484.44,-174.99C540.24,-170.33 676.82,-157.4 800.66,-132.13"/>
<polygon fill="#63b8ff" stroke="#63b8ff" points="801.28,-135.58 810.36,-130.12 799.85,-128.73 801.28,-135.58"/>
</a>
</g>
</g>
<!-- Node11 -->
<g id="Node000011" class="node">
<title>Node11</title>
<g id="a_Node000011"><a xlink:title=" ">
<polygon fill="#e0e0e0" stroke="#999999" points="722.38,-76 677.12,-76 677.12,-56 722.38,-56 722.38,-76"/>
<text xml:space="preserve" text-anchor="middle" x="699.75" y="-62.5" font-family="Helvetica,sans-Serif" font-size="10.00">stdio.h</text>
</a>
</g>
</g>
<!-- Node10&#45;&gt;Node11 -->
<g id="edge10_Node000010_Node000011" class="edge">
<title>Node10&#45;&gt;Node11</title>
<g id="a_edge10_Node000010_Node000011"><a xlink:title=" ">
<path fill="none" stroke="#63b8ff" d="M699.75,-111.59C699.75,-105.01 699.75,-95.96 699.75,-87.73"/>
<polygon fill="#63b8ff" stroke="#63b8ff" points="703.25,-87.81 699.75,-77.81 696.25,-87.81 703.25,-87.81"/>
</a>
</g>
</g>
<!-- Node12&#45;&gt;Node3 -->
<g id="edge13_Node000012_Node000003" class="edge">
<title>Node12&#45;&gt;Node3</title>
<g id="a_edge13_Node000012_Node000003"><a xlink:title=" ">
<path fill="none" stroke="#63b8ff" d="M303.65,-111.53C264,-101.93 202.83,-87.12 162.07,-77.25"/>
<polygon fill="#63b8ff" stroke="#63b8ff" points="162.9,-73.85 152.36,-74.9 161.25,-80.65 162.9,-73.85"/>
</a>
</g>
</g>
<!-- Node13 -->
<g id="Node000013" class="node">
<title>Node13</title>
<g id="a_Node000013"><a xlink:title=" ">
<polygon fill="#e0e0e0" stroke="#999999" points="284.12,-76 225.38,-76 225.38,-56 284.12,-56 284.12,-76"/>
<text xml:space="preserve" text-anchor="middle" x="254.75" y="-62.5" font-family="Helvetica,sans-Serif" font-size="10.00">inttypes.h</text>
</a>
</g>
</g>
<!-- Node12&#45;&gt;Node13 -->
<g id="edge14_Node000012_Node000013" class="edge">
<title>Node12&#45;&gt;Node13</title>
<g id="a_edge14_Node000012_Node000013"><a xlink:title=" ">
<path fill="none" stroke="#63b8ff" d="M327.42,-111.59C314.25,-103.51 295.02,-91.71 279.64,-82.27"/>
<polygon fill="#63b8ff" stroke="#63b8ff" points="281.84,-79.52 271.49,-77.27 278.18,-85.48 281.84,-79.52"/>
</a>
</g>
</g>
<!-- Node14 -->
<g id="Node000014" class="node">
<title>Node14</title>
<g id="a_Node000014"><a xlink:href="object_8h.html" target="_top" xlink:title=" ">
<polygon fill="white" stroke="#666666" points="383,-76 302.5,-76 302.5,-56 383,-56 383,-76"/>
<text xml:space="preserve" text-anchor="middle" x="342.75" y="-62.5" font-family="Helvetica,sans-Serif" font-size="10.00">mruby/object.h</text>
</a>
</g>
</g>
<!-- Node12&#45;&gt;Node14 -->
<g id="edge15_Node000012_Node000014" class="edge">
<title>Node12&#45;&gt;Node14</title>
<g id="a_edge15_Node000012_Node000014"><a xlink:title=" ">
<path fill="none" stroke="#63b8ff" d="M342.75,-111.59C342.75,-105.01 342.75,-95.96 342.75,-87.73"/>
<polygon fill="#63b8ff" stroke="#63b8ff" points="346.25,-87.81 342.75,-77.81 339.25,-87.81 346.25,-87.81"/>
</a>
</g>
</g>
<!-- Node15 -->
<g id="Node000015" class="node">
<title>Node15</title>
<g id="a_Node000015"><a xlink:href="boxing__no_8h.html" target="_top" xlink:title=" ">
<polygon fill="white" stroke="#666666" points="470,-76 401.5,-76 401.5,-56 470,-56 470,-76"/>
<text xml:space="preserve" text-anchor="middle" x="435.75" y="-62.5" font-family="Helvetica,sans-Serif" font-size="10.00">boxing_no.h</text>
</a>
</g>
</g>
<!-- Node12&#45;&gt;Node15 -->
<g id="edge16_Node000012_Node000015" class="edge">
<title>Node12&#45;&gt;Node15</title>
<g id="a_edge16_Node000012_Node000015"><a xlink:title=" ">
<path fill="none" stroke="#63b8ff" d="M358.95,-111.59C373,-103.44 393.58,-91.48 409.91,-82"/>
<polygon fill="#63b8ff" stroke="#63b8ff" points="411.22,-85.29 418.12,-77.24 407.71,-79.23 411.22,-85.29"/>
</a>
</g>
</g>
<!-- Node16&#45;&gt;Node3 -->
<g id="edge18_Node000016_Node000003" class="edge">
<title>Node16&#45;&gt;Node3</title>
<g id="a_edge18_Node000016_Node000003"><a xlink:title=" ">
<path fill="none" stroke="#63b8ff" d="M144.52,-111.59C140.65,-104.63 135.24,-94.89 130.47,-86.29"/>
<polygon fill="#63b8ff" stroke="#63b8ff" points="133.57,-84.66 125.65,-77.62 127.45,-88.06 133.57,-84.66"/>
</a>
</g>
</g>
<!-- Node17&#45;&gt;Node3 -->
<g id="edge20_Node000017_Node000003" class="edge">
<title>Node17&#45;&gt;Node3</title>
<g id="a_edge20_Node000017_Node000003"><a xlink:title=" ">
<path fill="none" stroke="#63b8ff" d="M221.33,-111.59C202.13,-103.17 173.71,-90.69 151.81,-81.07"/>
<polygon fill="#63b8ff" stroke="#63b8ff" points="153.29,-77.9 142.73,-77.09 150.48,-84.31 153.29,-77.9"/>
</a>
</g>
</g>
</g>
</svg>
