<?xml version="1.0" encoding="UTF-8" standalone="no"?>
<!DOCTYPE svg PUBLIC "-//W3C//DTD SVG 1.1//EN"
 "http://www.w3.org/Graphics/SVG/1.1/DTD/svg11.dtd">
<!-- Generated by graphviz version 14.0.5 (0)
 -->
<!-- Title: managed_components/espressif__nghttp/nghttp2/third&#45;party/mruby/include/mruby.h Pages: 1 -->
<svg width="784pt" height="232pt"
 viewBox="0.00 0.00 784.00 232.00" xmlns="http://www.w3.org/2000/svg" xmlns:xlink="http://www.w3.org/1999/xlink">
<g id="graph0" class="graph" transform="scale(1 1) rotate(0) translate(4 228)">
<title>managed_components/espressif__nghttp/nghttp2/third&#45;party/mruby/include/mruby.h</title>
<!-- Node1 -->
<g id="Node000001" class="node">
<title>Node1</title>
<g id="a_Node000001"><a xlink:title=" ">
<polygon fill="#999999" stroke="#666666" points="424.38,-224 292.88,-224 292.88,-168 424.38,-168 424.38,-224"/>
<text xml:space="preserve" text-anchor="start" x="300.88" y="-210.5" font-family="Helvetica,sans-Serif" font-size="10.00">managed_components</text>
<text xml:space="preserve" text-anchor="start" x="300.88" y="-198.5" font-family="Helvetica,sans-Serif" font-size="10.00">/espressif__nghttp/nghttp2</text>
<text xml:space="preserve" text-anchor="start" x="300.88" y="-186.5" font-family="Helvetica,sans-Serif" font-size="10.00">/third&#45;party/mruby/include</text>
<text xml:space="preserve" text-anchor="middle" x="358.62" y="-174.5" font-family="Helvetica,sans-Serif" font-size="10.00">/mruby.h</text>
</a>
</g>
</g>
<!-- Node2 -->
<g id="Node000002" class="node">
<title>Node2</title>
<g id="a_Node000002"><a xlink:title=" ">
<polygon fill="#e0e0e0" stroke="#999999" points="51.25,-132 0,-132 0,-112 51.25,-112 51.25,-132"/>
<text xml:space="preserve" text-anchor="middle" x="25.62" y="-118.5" font-family="Helvetica,sans-Serif" font-size="10.00">stdarg.h</text>
</a>
</g>
</g>
<!-- Node1&#45;&gt;Node2 -->
<g id="edge1_Node000001_Node000002" class="edge">
<title>Node1&#45;&gt;Node2</title>
<g id="a_edge1_Node000001_Node000002"><a xlink:title=" ">
<path fill="none" stroke="#63b8ff" d="M292.46,-181.87C234.49,-170.17 147.71,-152.19 62.75,-132.42"/>
<polygon fill="#63b8ff" stroke="#63b8ff" points="63.6,-129.02 53.06,-130.15 62,-135.84 63.6,-129.02"/>
</a>
</g>
</g>
<!-- Node3 -->
<g id="Node000003" class="node">
<title>Node3</title>
<g id="a_Node000003"><a xlink:title=" ">
<polygon fill="#e0e0e0" stroke="#999999" points="117.75,-132 69.5,-132 69.5,-112 117.75,-112 117.75,-132"/>
<text xml:space="preserve" text-anchor="middle" x="93.62" y="-118.5" font-family="Helvetica,sans-Serif" font-size="10.00">stdint.h</text>
</a>
</g>
</g>
<!-- Node1&#45;&gt;Node3 -->
<g id="edge2_Node000001_Node000003" class="edge">
<title>Node1&#45;&gt;Node3</title>
<g id="a_edge2_Node000001_Node000003"><a xlink:title=" ">
<path fill="none" stroke="#63b8ff" d="M292.62,-177.1C248.82,-165.21 189.75,-149.17 129.08,-132.67"/>
<polygon fill="#63b8ff" stroke="#63b8ff" points="130.16,-129.33 119.59,-130.08 128.32,-136.09 130.16,-129.33"/>
</a>
</g>
</g>
<!-- Node4 -->
<g id="Node000004" class="node">
<title>Node4</title>
<g id="a_Node000004"><a xlink:title=" ">
<polygon fill="#e0e0e0" stroke="#999999" points="187.25,-132 136,-132 136,-112 187.25,-112 187.25,-132"/>
<text xml:space="preserve" text-anchor="middle" x="161.62" y="-118.5" font-family="Helvetica,sans-Serif" font-size="10.00">stddef.h</text>
</a>
</g>
</g>
<!-- Node1&#45;&gt;Node4 -->
<g id="edge3_Node000001_Node000004" class="edge">
<title>Node1&#45;&gt;Node4</title>
<g id="a_edge3_Node000001_Node000004"><a xlink:title=" ">
<path fill="none" stroke="#63b8ff" d="M292.48,-170.82C260.99,-159.31 224.53,-145.99 198.11,-136.33"/>
<polygon fill="#63b8ff" stroke="#63b8ff" points="199.46,-133.1 188.86,-132.95 197.05,-139.67 199.46,-133.1"/>
</a>
</g>
</g>
<!-- Node5 -->
<g id="Node000005" class="node">
<title>Node5</title>
<g id="a_Node000005"><a xlink:title=" ">
<polygon fill="#e0e0e0" stroke="#999999" points="252.38,-132 204.88,-132 204.88,-112 252.38,-112 252.38,-132"/>
<text xml:space="preserve" text-anchor="middle" x="228.62" y="-118.5" font-family="Helvetica,sans-Serif" font-size="10.00">limits.h</text>
</a>
</g>
</g>
<!-- Node1&#45;&gt;Node5 -->
<g id="edge4_Node000001_Node000005" class="edge">
<title>Node1&#45;&gt;Node5</title>
<g id="a_edge4_Node000001_Node000005"><a xlink:title=" ">
<path fill="none" stroke="#63b8ff" d="M309.11,-167.57C290.92,-157.5 271.01,-146.47 255.55,-137.91"/>
<polygon fill="#63b8ff" stroke="#63b8ff" points="257.39,-134.93 246.95,-133.15 254,-141.06 257.39,-134.93"/>
</a>
</g>
</g>
<!-- Node6 -->
<g id="Node000006" class="node">
<title>Node6</title>
<g id="a_Node000006"><a xlink:href="mrbconf_8h_source.html" target="_top" xlink:title=" ">
<polygon fill="white" stroke="#666666" points="330.38,-132 270.88,-132 270.88,-112 330.38,-112 330.38,-132"/>
<text xml:space="preserve" text-anchor="middle" x="300.62" y="-118.5" font-family="Helvetica,sans-Serif" font-size="10.00">mrbconf.h</text>
</a>
</g>
</g>
<!-- Node1&#45;&gt;Node6 -->
<g id="edge5_Node000001_Node000006" class="edge">
<title>Node1&#45;&gt;Node6</title>
<g id="a_edge5_Node000001_Node000006"><a xlink:title=" ">
<path fill="none" stroke="#63b8ff" d="M336.7,-167.78C329.58,-158.95 321.86,-149.36 315.4,-141.34"/>
<polygon fill="#63b8ff" stroke="#63b8ff" points="318.2,-139.24 309.21,-133.65 312.75,-143.63 318.2,-139.24"/>
</a>
</g>
</g>
<!-- Node8 -->
<g id="Node000008" class="node">
<title>Node8</title>
<g id="a_Node000008"><a xlink:href="common_8h.html" target="_top" xlink:title=" ">
<polygon fill="white" stroke="#666666" points="470.5,-76 378.75,-76 378.75,-56 470.5,-56 470.5,-76"/>
<text xml:space="preserve" text-anchor="middle" x="424.62" y="-62.5" font-family="Helvetica,sans-Serif" font-size="10.00">mruby/common.h</text>
</a>
</g>
</g>
<!-- Node1&#45;&gt;Node8 -->
<g id="edge7_Node000001_Node000008" class="edge">
<title>Node1&#45;&gt;Node8</title>
<g id="a_edge7_Node000001_Node000008"><a xlink:title=" ">
<path fill="none" stroke="#63b8ff" d="M360.85,-167.77C363.17,-150.83 367.92,-129.1 377.62,-112 383.83,-101.06 393.53,-91.13 402.51,-83.39"/>
<polygon fill="#63b8ff" stroke="#63b8ff" points="404.67,-86.14 410.25,-77.13 400.27,-80.7 404.67,-86.14"/>
</a>
</g>
</g>
<!-- Node10 -->
<g id="Node000010" class="node">
<title>Node10</title>
<g id="a_Node000010"><a xlink:href="value_8h.html" target="_top" xlink:title=" ">
<polygon fill="white" stroke="#666666" points="650.38,-132 572.88,-132 572.88,-112 650.38,-112 650.38,-132"/>
<text xml:space="preserve" text-anchor="middle" x="611.62" y="-118.5" font-family="Helvetica,sans-Serif" font-size="10.00">mruby/value.h</text>
</a>
</g>
</g>
<!-- Node1&#45;&gt;Node10 -->
<g id="edge9_Node000001_Node000010" class="edge">
<title>Node1&#45;&gt;Node10</title>
<g id="a_edge9_Node000001_Node000010"><a xlink:title=" ">
<path fill="none" stroke="#63b8ff" d="M424.77,-176.18C469.77,-163.37 528.09,-146.77 567.51,-135.55"/>
<polygon fill="#63b8ff" stroke="#63b8ff" points="568.24,-138.99 576.9,-132.88 566.32,-132.25 568.24,-138.99"/>
</a>
</g>
</g>
<!-- Node14 -->
<g id="Node000014" class="node">
<title>Node14</title>
<g id="a_Node000014"><a xlink:href="gc_8h.html" target="_top" xlink:title=" ">
<polygon fill="white" stroke="#666666" points="451,-132 386.25,-132 386.25,-112 451,-112 451,-132"/>
<text xml:space="preserve" text-anchor="middle" x="418.62" y="-118.5" font-family="Helvetica,sans-Serif" font-size="10.00">mruby/gc.h</text>
</a>
</g>
</g>
<!-- Node1&#45;&gt;Node14 -->
<g id="edge14_Node000001_Node000014" class="edge">
<title>Node1&#45;&gt;Node14</title>
<g id="a_edge14_Node000001_Node000014"><a xlink:title=" ">
<path fill="none" stroke="#63b8ff" d="M381.31,-167.78C388.75,-158.85 396.83,-149.15 403.57,-141.07"/>
<polygon fill="#63b8ff" stroke="#63b8ff" points="406.05,-143.56 409.76,-133.64 400.67,-139.08 406.05,-143.56"/>
</a>
</g>
</g>
<!-- Node15 -->
<g id="Node000015" class="node">
<title>Node15</title>
<g id="a_Node000015"><a xlink:href="version_8h.html" target="_top" xlink:title=" ">
<polygon fill="white" stroke="#666666" points="554.5,-132 468.75,-132 468.75,-112 554.5,-112 554.5,-132"/>
<text xml:space="preserve" text-anchor="middle" x="511.62" y="-118.5" font-family="Helvetica,sans-Serif" font-size="10.00">mruby/version.h</text>
</a>
</g>
</g>
<!-- Node1&#45;&gt;Node15 -->
<g id="edge16_Node000001_Node000015" class="edge">
<title>Node1&#45;&gt;Node15</title>
<g id="a_edge16_Node000001_Node000015"><a xlink:title=" ">
<path fill="none" stroke="#63b8ff" d="M416.9,-167.57C438.83,-157.26 462.87,-145.94 481.25,-137.3"/>
<polygon fill="#63b8ff" stroke="#63b8ff" points="482.69,-140.48 490.25,-133.06 479.71,-134.15 482.69,-140.48"/>
</a>
</g>
</g>
<!-- Node16 -->
<g id="Node000016" class="node">
<title>Node16</title>
<g id="a_Node000016"><a xlink:title=" ">
<polygon fill="#e0e0e0" stroke="#999999" points="714.62,-132 668.62,-132 668.62,-112 714.62,-112 714.62,-132"/>
<text xml:space="preserve" text-anchor="middle" x="691.62" y="-118.5" font-family="Helvetica,sans-Serif" font-size="10.00">math.h</text>
</a>
</g>
</g>
<!-- Node1&#45;&gt;Node16 -->
<g id="edge18_Node000001_Node000016" class="edge">
<title>Node1&#45;&gt;Node16</title>
<g id="a_edge18_Node000001_Node000016"><a xlink:title=" ">
<path fill="none" stroke="#63b8ff" d="M424.68,-182.51C483.35,-171.12 571.64,-153.23 657.28,-132.45"/>
<polygon fill="#63b8ff" stroke="#63b8ff" points="657.9,-135.9 666.78,-130.13 656.24,-129.1 657.9,-135.9"/>
</a>
</g>
</g>
<!-- Node17 -->
<g id="Node000017" class="node">
<title>Node17</title>
<g id="a_Node000017"><a xlink:title=" ">
<polygon fill="#e0e0e0" stroke="#999999" points="776.12,-132 733.12,-132 733.12,-112 776.12,-112 776.12,-132"/>
<text xml:space="preserve" text-anchor="middle" x="754.62" y="-118.5" font-family="Helvetica,sans-Serif" font-size="10.00">float.h</text>
</a>
</g>
</g>
<!-- Node1&#45;&gt;Node17 -->
<g id="edge19_Node000001_Node000017" class="edge">
<title>Node1&#45;&gt;Node17</title>
<g id="a_edge19_Node000001_Node000017"><a xlink:title=" ">
<path fill="none" stroke="#63b8ff" d="M424.67,-185.87C495.76,-175.53 612.27,-157.12 721.77,-132.21"/>
<polygon fill="#63b8ff" stroke="#63b8ff" points="722.25,-135.69 731.21,-130.04 720.68,-128.87 722.25,-135.69"/>
</a>
</g>
</g>
<!-- Node7 -->
<g id="Node000007" class="node">
<title>Node7</title>
<g id="a_Node000007"><a xlink:title=" ">
<polygon fill="#e0e0e0" stroke="#999999" points="323.25,-76 278,-76 278,-56 323.25,-56 323.25,-76"/>
<text xml:space="preserve" text-anchor="middle" x="300.62" y="-62.5" font-family="Helvetica,sans-Serif" font-size="10.00">stdio.h</text>
</a>
</g>
</g>
<!-- Node6&#45;&gt;Node7 -->
<g id="edge6_Node000006_Node000007" class="edge">
<title>Node6&#45;&gt;Node7</title>
<g id="a_edge6_Node000006_Node000007"><a xlink:title=" ">
<path fill="none" stroke="#63b8ff" d="M300.62,-111.59C300.62,-105.01 300.62,-95.96 300.62,-87.73"/>
<polygon fill="#63b8ff" stroke="#63b8ff" points="304.13,-87.81 300.63,-77.81 297.13,-87.81 304.13,-87.81"/>
</a>
</g>
</g>
<!-- Node9 -->
<g id="Node000009" class="node">
<title>Node9</title>
<g id="a_Node000009"><a xlink:title=" ">
<polygon fill="#e0e0e0" stroke="#999999" points="458.12,-20 391.12,-20 391.12,0 458.12,0 458.12,-20"/>
<text xml:space="preserve" text-anchor="middle" x="424.62" y="-6.5" font-family="Helvetica,sans-Serif" font-size="10.00">sys/types.h</text>
</a>
</g>
</g>
<!-- Node8&#45;&gt;Node9 -->
<g id="edge8_Node000008_Node000009" class="edge">
<title>Node8&#45;&gt;Node9</title>
<g id="a_edge8_Node000008_Node000009"><a xlink:title=" ">
<path fill="none" stroke="#63b8ff" d="M424.62,-55.59C424.62,-49.01 424.62,-39.96 424.62,-31.73"/>
<polygon fill="#63b8ff" stroke="#63b8ff" points="428.13,-31.81 424.63,-21.81 421.13,-31.81 428.13,-31.81"/>
</a>
</g>
</g>
<!-- Node10&#45;&gt;Node8 -->
<g id="edge10_Node000010_Node000008" class="edge">
<title>Node10&#45;&gt;Node8</title>
<g id="a_edge10_Node000010_Node000008"><a xlink:title=" ">
<path fill="none" stroke="#63b8ff" d="M579.05,-111.59C548.4,-102.74 502.28,-89.43 468.42,-79.65"/>
<polygon fill="#63b8ff" stroke="#63b8ff" points="469.48,-76.31 458.91,-76.9 467.54,-83.04 469.48,-76.31"/>
</a>
</g>
</g>
<!-- Node11 -->
<g id="Node000011" class="node">
<title>Node11</title>
<g id="a_Node000011"><a xlink:title=" ">
<polygon fill="#e0e0e0" stroke="#999999" points="553,-76 494.25,-76 494.25,-56 553,-56 553,-76"/>
<text xml:space="preserve" text-anchor="middle" x="523.62" y="-62.5" font-family="Helvetica,sans-Serif" font-size="10.00">inttypes.h</text>
</a>
</g>
</g>
<!-- Node10&#45;&gt;Node11 -->
<g id="edge11_Node000010_Node000011" class="edge">
<title>Node10&#45;&gt;Node11</title>
<g id="a_edge11_Node000010_Node000011"><a xlink:title=" ">
<path fill="none" stroke="#63b8ff" d="M596.3,-111.59C583.13,-103.51 563.89,-91.71 548.52,-82.27"/>
<polygon fill="#63b8ff" stroke="#63b8ff" points="550.72,-79.52 540.36,-77.27 547.06,-85.48 550.72,-79.52"/>
</a>
</g>
</g>
<!-- Node12 -->
<g id="Node000012" class="node">
<title>Node12</title>
<g id="a_Node000012"><a xlink:href="object_8h.html" target="_top" xlink:title=" ">
<polygon fill="white" stroke="#666666" points="651.88,-76 571.38,-76 571.38,-56 651.88,-56 651.88,-76"/>
<text xml:space="preserve" text-anchor="middle" x="611.62" y="-62.5" font-family="Helvetica,sans-Serif" font-size="10.00">mruby/object.h</text>
</a>
</g>
</g>
<!-- Node10&#45;&gt;Node12 -->
<g id="edge12_Node000010_Node000012" class="edge">
<title>Node10&#45;&gt;Node12</title>
<g id="a_edge12_Node000010_Node000012"><a xlink:title=" ">
<path fill="none" stroke="#63b8ff" d="M611.62,-111.59C611.62,-105.01 611.62,-95.96 611.62,-87.73"/>
<polygon fill="#63b8ff" stroke="#63b8ff" points="615.13,-87.81 611.63,-77.81 608.13,-87.81 615.13,-87.81"/>
</a>
</g>
</g>
<!-- Node13 -->
<g id="Node000013" class="node">
<title>Node13</title>
<g id="a_Node000013"><a xlink:href="boxing__no_8h.html" target="_top" xlink:title=" ">
<polygon fill="white" stroke="#666666" points="738.88,-76 670.38,-76 670.38,-56 738.88,-56 738.88,-76"/>
<text xml:space="preserve" text-anchor="middle" x="704.62" y="-62.5" font-family="Helvetica,sans-Serif" font-size="10.00">boxing_no.h</text>
</a>
</g>
</g>
<!-- Node10&#45;&gt;Node13 -->
<g id="edge13_Node000010_Node000013" class="edge">
<title>Node10&#45;&gt;Node13</title>
<g id="a_edge13_Node000010_Node000013"><a xlink:title=" ">
<path fill="none" stroke="#63b8ff" d="M627.82,-111.59C641.87,-103.44 662.46,-91.48 678.78,-82"/>
<polygon fill="#63b8ff" stroke="#63b8ff" points="680.1,-85.29 686.99,-77.24 676.58,-79.23 680.1,-85.29"/>
</a>
</g>
</g>
<!-- Node14&#45;&gt;Node8 -->
<g id="edge15_Node000014_Node000008" class="edge">
<title>Node14&#45;&gt;Node8</title>
<g id="a_edge15_Node000014_Node000008"><a xlink:title=" ">
<path fill="none" stroke="#63b8ff" d="M419.67,-111.59C420.4,-105.01 421.41,-95.96 422.32,-87.73"/>
<polygon fill="#63b8ff" stroke="#63b8ff" points="425.8,-88.13 423.42,-77.8 418.84,-87.35 425.8,-88.13"/>
</a>
</g>
</g>
<!-- Node15&#45;&gt;Node8 -->
<g id="edge17_Node000015_Node000008" class="edge">
<title>Node15&#45;&gt;Node8</title>
<g id="a_edge17_Node000015_Node000008"><a xlink:title=" ">
<path fill="none" stroke="#63b8ff" d="M496.47,-111.59C483.58,-103.59 464.79,-91.93 449.67,-82.54"/>
<polygon fill="#63b8ff" stroke="#63b8ff" points="451.53,-79.58 441.18,-77.28 447.83,-85.53 451.53,-79.58"/>
</a>
</g>
</g>
</g>
</svg>
