<?xml version="1.0" encoding="UTF-8" standalone="no"?>
<!DOCTYPE svg PUBLIC "-//W3C//DTD SVG 1.1//EN"
 "http://www.w3.org/Graphics/SVG/1.1/DTD/svg11.dtd">
<!-- Generated by graphviz version 14.0.5 (0)
 -->
<!-- Title: managed_components/espressif__nghttp/nghttp2/third&#45;party/mruby/include/mruby/proc.h Pages: 1 -->
<svg width="964pt" height="400pt"
 viewBox="0.00 0.00 964.00 400.00" xmlns="http://www.w3.org/2000/svg" xmlns:xlink="http://www.w3.org/1999/xlink">
<g id="graph0" class="graph" transform="scale(1 1) rotate(0) translate(4 396)">
<title>managed_components/espressif__nghttp/nghttp2/third&#45;party/mruby/include/mruby/proc.h</title>
<!-- Node1 -->
<g id="Node000001" class="node">
<title>Node1</title>
<g id="a_Node000001"><a xlink:title=" ">
<polygon fill="#999999" stroke="#666666" points="151.75,-392 20.25,-392 20.25,-336 151.75,-336 151.75,-392"/>
<text xml:space="preserve" text-anchor="start" x="28.25" y="-378.5" font-family="Helvetica,sans-Serif" font-size="10.00">managed_components</text>
<text xml:space="preserve" text-anchor="start" x="28.25" y="-366.5" font-family="Helvetica,sans-Serif" font-size="10.00">/espressif__nghttp/nghttp2</text>
<text xml:space="preserve" text-anchor="start" x="28.25" y="-354.5" font-family="Helvetica,sans-Serif" font-size="10.00">/third&#45;party/mruby/include</text>
<text xml:space="preserve" text-anchor="middle" x="86" y="-342.5" font-family="Helvetica,sans-Serif" font-size="10.00">/mruby/proc.h</text>
</a>
</g>
</g>
<!-- Node2 -->
<g id="Node000002" class="node">
<title>Node2</title>
<g id="a_Node000002"><a xlink:href="common_8h.html" target="_top" xlink:title=" ">
<polygon fill="white" stroke="#666666" points="182.88,-76 121.12,-76 121.12,-56 182.88,-56 182.88,-76"/>
<text xml:space="preserve" text-anchor="middle" x="152" y="-62.5" font-family="Helvetica,sans-Serif" font-size="10.00">common.h</text>
</a>
</g>
</g>
<!-- Node1&#45;&gt;Node2 -->
<g id="edge1_Node000001_Node000002" class="edge">
<title>Node1&#45;&gt;Node2</title>
<g id="a_edge1_Node000001_Node000002"><a xlink:title=" ">
<path fill="none" stroke="#63b8ff" d="M53.49,-335.52C29.13,-311.71 0,-274.89 0,-235 0,-235 0,-235 0,-177 0,-122.5 64.93,-92.25 109.92,-77.83"/>
<polygon fill="#63b8ff" stroke="#63b8ff" points="110.88,-81.2 119.43,-74.94 108.84,-74.5 110.88,-81.2"/>
</a>
</g>
</g>
<!-- Node4 -->
<g id="Node000004" class="node">
<title>Node4</title>
<g id="a_Node000004"><a xlink:href="irep_8h.html" target="_top" xlink:title=" ">
<polygon fill="white" stroke="#666666" points="121,-300 51,-300 51,-280 121,-280 121,-300"/>
<text xml:space="preserve" text-anchor="middle" x="86" y="-286.5" font-family="Helvetica,sans-Serif" font-size="10.00">mruby/irep.h</text>
</a>
</g>
</g>
<!-- Node1&#45;&gt;Node4 -->
<g id="edge3_Node000001_Node000004" class="edge">
<title>Node1&#45;&gt;Node4</title>
<g id="a_edge3_Node000001_Node000004"><a xlink:title=" ">
<path fill="none" stroke="#63b8ff" d="M86,-335.78C86,-327.82 86,-319.25 86,-311.76"/>
<polygon fill="#63b8ff" stroke="#63b8ff" points="89.5,-311.99 86,-301.99 82.5,-311.99 89.5,-311.99"/>
</a>
</g>
</g>
<!-- Node21 -->
<g id="Node000021" class="node">
<title>Node21</title>
<g id="a_Node000021"><a xlink:href="khash_8h.html" target="_top" xlink:title=" ">
<polygon fill="white" stroke="#666666" points="252.25,-244 171.75,-244 171.75,-224 252.25,-224 252.25,-244"/>
<text xml:space="preserve" text-anchor="middle" x="212" y="-230.5" font-family="Helvetica,sans-Serif" font-size="10.00">mruby/khash.h</text>
</a>
</g>
</g>
<!-- Node1&#45;&gt;Node21 -->
<g id="edge26_Node000001_Node000021" class="edge">
<title>Node1&#45;&gt;Node21</title>
<g id="a_edge26_Node000001_Node000021"><a xlink:title=" ">
<path fill="none" stroke="#63b8ff" d="M113.03,-335.54C137.83,-310.34 173.82,-273.79 194.88,-252.4"/>
<polygon fill="#63b8ff" stroke="#63b8ff" points="197.33,-254.89 201.85,-245.31 192.34,-249.98 197.33,-254.89"/>
</a>
</g>
</g>
<!-- Node3 -->
<g id="Node000003" class="node">
<title>Node3</title>
<g id="a_Node000003"><a xlink:title=" ">
<polygon fill="#e0e0e0" stroke="#999999" points="185.5,-20 118.5,-20 118.5,0 185.5,0 185.5,-20"/>
<text xml:space="preserve" text-anchor="middle" x="152" y="-6.5" font-family="Helvetica,sans-Serif" font-size="10.00">sys/types.h</text>
</a>
</g>
</g>
<!-- Node2&#45;&gt;Node3 -->
<g id="edge2_Node000002_Node000003" class="edge">
<title>Node2&#45;&gt;Node3</title>
<g id="a_edge2_Node000002_Node000003"><a xlink:title=" ">
<path fill="none" stroke="#63b8ff" d="M152,-55.59C152,-49.01 152,-39.96 152,-31.73"/>
<polygon fill="#63b8ff" stroke="#63b8ff" points="155.5,-31.81 152,-21.81 148.5,-31.81 155.5,-31.81"/>
</a>
</g>
</g>
<!-- Node4&#45;&gt;Node2 -->
<g id="edge4_Node000004_Node000002" class="edge">
<title>Node4&#45;&gt;Node2</title>
<g id="a_edge4_Node000004_Node000002"><a xlink:title=" ">
<path fill="none" stroke="#63b8ff" d="M77.78,-279.8C70.71,-271.23 61.04,-257.73 57,-244 43.95,-199.67 60.35,-154 90,-112 98.57,-99.86 111.47,-89.75 123.28,-82.2"/>
<polygon fill="#63b8ff" stroke="#63b8ff" points="124.76,-85.4 131.54,-77.26 121.16,-79.39 124.76,-85.4"/>
</a>
</g>
</g>
<!-- Node5 -->
<g id="Node000005" class="node">
<title>Node5</title>
<g id="a_Node000005"><a xlink:href="compile_8h.html" target="_top" xlink:title=" ">
<polygon fill="white" stroke="#666666" points="154,-244 66,-244 66,-224 154,-224 154,-244"/>
<text xml:space="preserve" text-anchor="middle" x="110" y="-230.5" font-family="Helvetica,sans-Serif" font-size="10.00">mruby/compile.h</text>
</a>
</g>
</g>
<!-- Node4&#45;&gt;Node5 -->
<g id="edge5_Node000004_Node000005" class="edge">
<title>Node4&#45;&gt;Node5</title>
<g id="a_edge5_Node000004_Node000005"><a xlink:title=" ">
<path fill="none" stroke="#63b8ff" d="M90.18,-279.59C93.24,-272.7 97.51,-263.1 101.3,-254.57"/>
<polygon fill="#63b8ff" stroke="#63b8ff" points="104.39,-256.24 105.25,-245.68 97.99,-253.4 104.39,-256.24"/>
</a>
</g>
</g>
<!-- Node5&#45;&gt;Node2 -->
<g id="edge6_Node000005_Node000002" class="edge">
<title>Node5&#45;&gt;Node2</title>
<g id="a_edge6_Node000005_Node000002"><a xlink:title=" ">
<path fill="none" stroke="#63b8ff" d="M106.26,-223.67C98.44,-202.63 82.48,-150.34 100,-112 105.38,-100.23 115.52,-90.36 125.43,-82.9"/>
<polygon fill="#63b8ff" stroke="#63b8ff" points="127.22,-85.91 133.45,-77.35 123.24,-80.16 127.22,-85.91"/>
</a>
</g>
</g>
<!-- Node6 -->
<g id="Node000006" class="node">
<title>Node6</title>
<g id="a_Node000006"><a xlink:href="mruby_8h.html" target="_top" xlink:title=" ">
<polygon fill="white" stroke="#666666" points="550.25,-188 499.75,-188 499.75,-168 550.25,-168 550.25,-188"/>
<text xml:space="preserve" text-anchor="middle" x="525" y="-174.5" font-family="Helvetica,sans-Serif" font-size="10.00">mruby.h</text>
</a>
</g>
</g>
<!-- Node5&#45;&gt;Node6 -->
<g id="edge7_Node000005_Node000006" class="edge">
<title>Node5&#45;&gt;Node6</title>
<g id="a_edge7_Node000005_Node000006"><a xlink:title=" ">
<path fill="none" stroke="#63b8ff" d="M154.22,-225.34C157.19,-224.87 160.14,-224.42 163,-224 281.56,-206.57 422.63,-190.32 488.16,-183.03"/>
<polygon fill="#63b8ff" stroke="#63b8ff" points="488.43,-186.52 497.99,-181.94 487.66,-179.56 488.43,-186.52"/>
</a>
</g>
</g>
<!-- Node6&#45;&gt;Node2 -->
<g id="edge14_Node000006_Node000002" class="edge">
<title>Node6&#45;&gt;Node2</title>
<g id="a_edge14_Node000006_Node000002"><a xlink:title=" ">
<path fill="none" stroke="#63b8ff" d="M499.29,-175.63C433.22,-171.75 259.19,-159.17 209,-132 189.27,-121.32 173.14,-100.94 163.14,-85.84"/>
<polygon fill="#63b8ff" stroke="#63b8ff" points="166.31,-84.31 158.03,-77.69 160.38,-88.03 166.31,-84.31"/>
</a>
</g>
</g>
<!-- Node7 -->
<g id="Node000007" class="node">
<title>Node7</title>
<g id="a_Node000007"><a xlink:title=" ">
<polygon fill="#e0e0e0" stroke="#999999" points="550.62,-132 499.38,-132 499.38,-112 550.62,-112 550.62,-132"/>
<text xml:space="preserve" text-anchor="middle" x="525" y="-118.5" font-family="Helvetica,sans-Serif" font-size="10.00">stdarg.h</text>
</a>
</g>
</g>
<!-- Node6&#45;&gt;Node7 -->
<g id="edge8_Node000006_Node000007" class="edge">
<title>Node6&#45;&gt;Node7</title>
<g id="a_edge8_Node000006_Node000007"><a xlink:title=" ">
<path fill="none" stroke="#63b8ff" d="M525,-167.59C525,-161.01 525,-151.96 525,-143.73"/>
<polygon fill="#63b8ff" stroke="#63b8ff" points="528.5,-143.81 525,-133.81 521.5,-143.81 528.5,-143.81"/>
</a>
</g>
</g>
<!-- Node8 -->
<g id="Node000008" class="node">
<title>Node8</title>
<g id="a_Node000008"><a xlink:title=" ">
<polygon fill="#e0e0e0" stroke="#999999" points="617.12,-132 568.88,-132 568.88,-112 617.12,-112 617.12,-132"/>
<text xml:space="preserve" text-anchor="middle" x="593" y="-118.5" font-family="Helvetica,sans-Serif" font-size="10.00">stdint.h</text>
</a>
</g>
</g>
<!-- Node6&#45;&gt;Node8 -->
<g id="edge9_Node000006_Node000008" class="edge">
<title>Node6&#45;&gt;Node8</title>
<g id="a_edge9_Node000006_Node000008"><a xlink:title=" ">
<path fill="none" stroke="#63b8ff" d="M536.84,-167.59C546.69,-159.77 560.93,-148.46 572.61,-139.19"/>
<polygon fill="#63b8ff" stroke="#63b8ff" points="574.45,-142.2 580.11,-133.24 570.1,-136.72 574.45,-142.2"/>
</a>
</g>
</g>
<!-- Node9 -->
<g id="Node000009" class="node">
<title>Node9</title>
<g id="a_Node000009"><a xlink:title=" ">
<polygon fill="#e0e0e0" stroke="#999999" points="686.62,-132 635.38,-132 635.38,-112 686.62,-112 686.62,-132"/>
<text xml:space="preserve" text-anchor="middle" x="661" y="-118.5" font-family="Helvetica,sans-Serif" font-size="10.00">stddef.h</text>
</a>
</g>
</g>
<!-- Node6&#45;&gt;Node9 -->
<g id="edge10_Node000006_Node000009" class="edge">
<title>Node6&#45;&gt;Node9</title>
<g id="a_edge10_Node000006_Node000009"><a xlink:title=" ">
<path fill="none" stroke="#63b8ff" d="M548.69,-167.59C570.2,-159.05 602.2,-146.35 626.54,-136.68"/>
<polygon fill="#63b8ff" stroke="#63b8ff" points="627.72,-139.98 635.72,-133.04 625.13,-133.48 627.72,-139.98"/>
</a>
</g>
</g>
<!-- Node10 -->
<g id="Node000010" class="node">
<title>Node10</title>
<g id="a_Node000010"><a xlink:title=" ">
<polygon fill="#e0e0e0" stroke="#999999" points="751.75,-132 704.25,-132 704.25,-112 751.75,-112 751.75,-132"/>
<text xml:space="preserve" text-anchor="middle" x="728" y="-118.5" font-family="Helvetica,sans-Serif" font-size="10.00">limits.h</text>
</a>
</g>
</g>
<!-- Node6&#45;&gt;Node10 -->
<g id="edge11_Node000006_Node000010" class="edge">
<title>Node6&#45;&gt;Node10</title>
<g id="a_edge11_Node000006_Node000010"><a xlink:title=" ">
<path fill="none" stroke="#63b8ff" d="M550.53,-170.42C581.96,-162.3 637.24,-147.91 693.1,-132.76"/>
<polygon fill="#63b8ff" stroke="#63b8ff" points="693.71,-136.22 702.44,-130.22 691.87,-129.47 693.71,-136.22"/>
</a>
</g>
</g>
<!-- Node11 -->
<g id="Node000011" class="node">
<title>Node11</title>
<g id="a_Node000011"><a xlink:href="mrbconf_8h_source.html" target="_top" xlink:title=" ">
<polygon fill="white" stroke="#666666" points="829.75,-132 770.25,-132 770.25,-112 829.75,-112 829.75,-132"/>
<text xml:space="preserve" text-anchor="middle" x="800" y="-118.5" font-family="Helvetica,sans-Serif" font-size="10.00">mrbconf.h</text>
</a>
</g>
</g>
<!-- Node6&#45;&gt;Node11 -->
<g id="edge12_Node000006_Node000011" class="edge">
<title>Node6&#45;&gt;Node11</title>
<g id="a_edge12_Node000006_Node000011"><a xlink:title=" ">
<path fill="none" stroke="#63b8ff" d="M550.56,-172.46C592.02,-165.02 676.79,-149.52 758.54,-132.45"/>
<polygon fill="#63b8ff" stroke="#63b8ff" points="759.24,-135.88 768.31,-130.4 757.8,-129.03 759.24,-135.88"/>
</a>
</g>
</g>
<!-- Node13 -->
<g id="Node000013" class="node">
<title>Node13</title>
<g id="a_Node000013"><a xlink:href="value_8h.html" target="_top" xlink:title=" ">
<polygon fill="white" stroke="#666666" points="481.75,-132 404.25,-132 404.25,-112 481.75,-112 481.75,-132"/>
<text xml:space="preserve" text-anchor="middle" x="443" y="-118.5" font-family="Helvetica,sans-Serif" font-size="10.00">mruby/value.h</text>
</a>
</g>
</g>
<!-- Node6&#45;&gt;Node13 -->
<g id="edge15_Node000006_Node000013" class="edge">
<title>Node6&#45;&gt;Node13</title>
<g id="a_edge15_Node000006_Node000013"><a xlink:title=" ">
<path fill="none" stroke="#63b8ff" d="M510.72,-167.59C498.56,-159.59 480.86,-147.93 466.6,-138.54"/>
<polygon fill="#63b8ff" stroke="#63b8ff" points="468.94,-135.89 458.66,-133.31 465.09,-141.73 468.94,-135.89"/>
</a>
</g>
</g>
<!-- Node17 -->
<g id="Node000017" class="node">
<title>Node17</title>
<g id="a_Node000017"><a xlink:href="gc_8h.html" target="_top" xlink:title=" ">
<polygon fill="white" stroke="#666666" points="282.38,-132 217.62,-132 217.62,-112 282.38,-112 282.38,-132"/>
<text xml:space="preserve" text-anchor="middle" x="250" y="-118.5" font-family="Helvetica,sans-Serif" font-size="10.00">mruby/gc.h</text>
</a>
</g>
</g>
<!-- Node6&#45;&gt;Node17 -->
<g id="edge20_Node000006_Node000017" class="edge">
<title>Node6&#45;&gt;Node17</title>
<g id="a_edge20_Node000006_Node000017"><a xlink:title=" ">
<path fill="none" stroke="#63b8ff" d="M499.33,-172.29C458.08,-164.67 374.19,-148.98 293.5,-132.48"/>
<polygon fill="#63b8ff" stroke="#63b8ff" points="294.64,-129.14 284.14,-130.55 293.23,-135.99 294.64,-129.14"/>
</a>
</g>
</g>
<!-- Node18 -->
<g id="Node000018" class="node">
<title>Node18</title>
<g id="a_Node000018"><a xlink:href="version_8h.html" target="_top" xlink:title=" ">
<polygon fill="white" stroke="#666666" points="385.88,-132 300.12,-132 300.12,-112 385.88,-112 385.88,-132"/>
<text xml:space="preserve" text-anchor="middle" x="343" y="-118.5" font-family="Helvetica,sans-Serif" font-size="10.00">mruby/version.h</text>
</a>
</g>
</g>
<!-- Node6&#45;&gt;Node18 -->
<g id="edge22_Node000006_Node000018" class="edge">
<title>Node6&#45;&gt;Node18</title>
<g id="a_edge22_Node000006_Node000018"><a xlink:title=" ">
<path fill="none" stroke="#63b8ff" d="M499.31,-169.38C469.87,-160.64 421.15,-146.19 385.92,-135.73"/>
<polygon fill="#63b8ff" stroke="#63b8ff" points="387.03,-132.41 376.44,-132.92 385.03,-139.12 387.03,-132.41"/>
</a>
</g>
</g>
<!-- Node19 -->
<g id="Node000019" class="node">
<title>Node19</title>
<g id="a_Node000019"><a xlink:title=" ">
<polygon fill="#e0e0e0" stroke="#999999" points="894,-132 848,-132 848,-112 894,-112 894,-132"/>
<text xml:space="preserve" text-anchor="middle" x="871" y="-118.5" font-family="Helvetica,sans-Serif" font-size="10.00">math.h</text>
</a>
</g>
</g>
<!-- Node6&#45;&gt;Node19 -->
<g id="edge24_Node000006_Node000019" class="edge">
<title>Node6&#45;&gt;Node19</title>
<g id="a_edge24_Node000006_Node000019"><a xlink:title=" ">
<path fill="none" stroke="#63b8ff" d="M550.43,-174.51C602.4,-169.16 724.64,-155.36 836.53,-132.28"/>
<polygon fill="#63b8ff" stroke="#63b8ff" points="837.12,-135.73 846.19,-130.26 835.68,-128.88 837.12,-135.73"/>
</a>
</g>
</g>
<!-- Node20 -->
<g id="Node000020" class="node">
<title>Node20</title>
<g id="a_Node000020"><a xlink:title=" ">
<polygon fill="#e0e0e0" stroke="#999999" points="955.5,-132 912.5,-132 912.5,-112 955.5,-112 955.5,-132"/>
<text xml:space="preserve" text-anchor="middle" x="934" y="-118.5" font-family="Helvetica,sans-Serif" font-size="10.00">float.h</text>
</a>
</g>
</g>
<!-- Node6&#45;&gt;Node20 -->
<g id="edge25_Node000006_Node000020" class="edge">
<title>Node6&#45;&gt;Node20</title>
<g id="a_edge25_Node000006_Node000020"><a xlink:title=" ">
<path fill="none" stroke="#63b8ff" d="M550.44,-175.42C610.05,-171.41 763.47,-159.32 900.96,-132.09"/>
<polygon fill="#63b8ff" stroke="#63b8ff" points="901.5,-135.55 910.61,-130.14 900.12,-128.69 901.5,-135.55"/>
</a>
</g>
</g>
<!-- Node12 -->
<g id="Node000012" class="node">
<title>Node12</title>
<g id="a_Node000012"><a xlink:title=" ">
<polygon fill="#e0e0e0" stroke="#999999" points="822.62,-76 777.38,-76 777.38,-56 822.62,-56 822.62,-76"/>
<text xml:space="preserve" text-anchor="middle" x="800" y="-62.5" font-family="Helvetica,sans-Serif" font-size="10.00">stdio.h</text>
</a>
</g>
</g>
<!-- Node11&#45;&gt;Node12 -->
<g id="edge13_Node000011_Node000012" class="edge">
<title>Node11&#45;&gt;Node12</title>
<g id="a_edge13_Node000011_Node000012"><a xlink:title=" ">
<path fill="none" stroke="#63b8ff" d="M800,-111.59C800,-105.01 800,-95.96 800,-87.73"/>
<polygon fill="#63b8ff" stroke="#63b8ff" points="803.5,-87.81 800,-77.81 796.5,-87.81 803.5,-87.81"/>
</a>
</g>
</g>
<!-- Node13&#45;&gt;Node2 -->
<g id="edge16_Node000013_Node000002" class="edge">
<title>Node13&#45;&gt;Node2</title>
<g id="a_edge16_Node000013_Node000002"><a xlink:title=" ">
<path fill="none" stroke="#63b8ff" d="M403.97,-113.67C400.93,-113.11 397.92,-112.54 395,-112 324.67,-98.89 242.86,-83.77 194.37,-74.82"/>
<polygon fill="#63b8ff" stroke="#63b8ff" points="195.03,-71.38 184.56,-73.01 193.76,-78.26 195.03,-71.38"/>
</a>
</g>
</g>
<!-- Node14 -->
<g id="Node000014" class="node">
<title>Node14</title>
<g id="a_Node000014"><a xlink:title=" ">
<polygon fill="#e0e0e0" stroke="#999999" points="384.38,-76 325.62,-76 325.62,-56 384.38,-56 384.38,-76"/>
<text xml:space="preserve" text-anchor="middle" x="355" y="-62.5" font-family="Helvetica,sans-Serif" font-size="10.00">inttypes.h</text>
</a>
</g>
</g>
<!-- Node13&#45;&gt;Node14 -->
<g id="edge17_Node000013_Node000014" class="edge">
<title>Node13&#45;&gt;Node14</title>
<g id="a_edge17_Node000013_Node000014"><a xlink:title=" ">
<path fill="none" stroke="#63b8ff" d="M427.67,-111.59C414.5,-103.51 395.27,-91.71 379.89,-82.27"/>
<polygon fill="#63b8ff" stroke="#63b8ff" points="382.09,-79.52 371.74,-77.27 378.43,-85.48 382.09,-79.52"/>
</a>
</g>
</g>
<!-- Node15 -->
<g id="Node000015" class="node">
<title>Node15</title>
<g id="a_Node000015"><a xlink:href="object_8h.html" target="_top" xlink:title=" ">
<polygon fill="white" stroke="#666666" points="483.25,-76 402.75,-76 402.75,-56 483.25,-56 483.25,-76"/>
<text xml:space="preserve" text-anchor="middle" x="443" y="-62.5" font-family="Helvetica,sans-Serif" font-size="10.00">mruby/object.h</text>
</a>
</g>
</g>
<!-- Node13&#45;&gt;Node15 -->
<g id="edge18_Node000013_Node000015" class="edge">
<title>Node13&#45;&gt;Node15</title>
<g id="a_edge18_Node000013_Node000015"><a xlink:title=" ">
<path fill="none" stroke="#63b8ff" d="M443,-111.59C443,-105.01 443,-95.96 443,-87.73"/>
<polygon fill="#63b8ff" stroke="#63b8ff" points="446.5,-87.81 443,-77.81 439.5,-87.81 446.5,-87.81"/>
</a>
</g>
</g>
<!-- Node16 -->
<g id="Node000016" class="node">
<title>Node16</title>
<g id="a_Node000016"><a xlink:href="boxing__no_8h.html" target="_top" xlink:title=" ">
<polygon fill="white" stroke="#666666" points="570.25,-76 501.75,-76 501.75,-56 570.25,-56 570.25,-76"/>
<text xml:space="preserve" text-anchor="middle" x="536" y="-62.5" font-family="Helvetica,sans-Serif" font-size="10.00">boxing_no.h</text>
</a>
</g>
</g>
<!-- Node13&#45;&gt;Node16 -->
<g id="edge19_Node000013_Node000016" class="edge">
<title>Node13&#45;&gt;Node16</title>
<g id="a_edge19_Node000013_Node000016"><a xlink:title=" ">
<path fill="none" stroke="#63b8ff" d="M459.2,-111.59C473.25,-103.44 493.83,-91.48 510.16,-82"/>
<polygon fill="#63b8ff" stroke="#63b8ff" points="511.47,-85.29 518.37,-77.24 507.96,-79.23 511.47,-85.29"/>
</a>
</g>
</g>
<!-- Node17&#45;&gt;Node2 -->
<g id="edge21_Node000017_Node000002" class="edge">
<title>Node17&#45;&gt;Node2</title>
<g id="a_edge21_Node000017_Node000002"><a xlink:title=" ">
<path fill="none" stroke="#63b8ff" d="M232.93,-111.59C218.12,-103.44 196.43,-91.48 179.23,-82"/>
<polygon fill="#63b8ff" stroke="#63b8ff" points="180.98,-78.97 170.53,-77.21 177.6,-85.1 180.98,-78.97"/>
</a>
</g>
</g>
<!-- Node18&#45;&gt;Node2 -->
<g id="edge23_Node000018_Node000002" class="edge">
<title>Node18&#45;&gt;Node2</title>
<g id="a_edge23_Node000018_Node000002"><a xlink:title=" ">
<path fill="none" stroke="#63b8ff" d="M309.73,-111.59C277.61,-102.51 228.87,-88.73 194.07,-78.9"/>
<polygon fill="#63b8ff" stroke="#63b8ff" points="195.34,-75.62 184.76,-76.26 193.43,-82.35 195.34,-75.62"/>
</a>
</g>
</g>
<!-- Node21&#45;&gt;Node2 -->
<g id="edge30_Node000021_Node000002" class="edge">
<title>Node21&#45;&gt;Node2</title>
<g id="a_edge30_Node000021_Node000002"><a xlink:title=" ">
<path fill="none" stroke="#63b8ff" d="M193.29,-223.6C180.28,-215.96 163.92,-203.84 156,-188 139.92,-155.83 143.55,-112.61 147.72,-87.49"/>
<polygon fill="#63b8ff" stroke="#63b8ff" points="151.11,-88.4 149.51,-77.93 144.23,-87.11 151.11,-88.4"/>
</a>
</g>
</g>
<!-- Node21&#45;&gt;Node6 -->
<g id="edge29_Node000021_Node000006" class="edge">
<title>Node21&#45;&gt;Node6</title>
<g id="a_edge29_Node000021_Node000006"><a xlink:title=" ">
<path fill="none" stroke="#63b8ff" d="M252.6,-226C314.01,-215.4 429.58,-195.46 488.48,-185.3"/>
<polygon fill="#63b8ff" stroke="#63b8ff" points="488.72,-188.81 497.98,-183.66 487.53,-181.91 488.72,-188.81"/>
</a>
</g>
</g>
<!-- Node22 -->
<g id="Node000022" class="node">
<title>Node22</title>
<g id="a_Node000022"><a xlink:href="string_8h.html" target="_top" xlink:title=" ">
<polygon fill="white" stroke="#666666" points="213.12,-188 164.88,-188 164.88,-168 213.12,-168 213.12,-188"/>
<text xml:space="preserve" text-anchor="middle" x="189" y="-174.5" font-family="Helvetica,sans-Serif" font-size="10.00">string.h</text>
</a>
</g>
</g>
<!-- Node21&#45;&gt;Node22 -->
<g id="edge27_Node000021_Node000022" class="edge">
<title>Node21&#45;&gt;Node22</title>
<g id="a_edge27_Node000021_Node000022"><a xlink:title=" ">
<path fill="none" stroke="#63b8ff" d="M207.99,-223.59C205.09,-216.78 201.06,-207.32 197.46,-198.86"/>
<polygon fill="#63b8ff" stroke="#63b8ff" points="200.69,-197.52 193.55,-189.69 194.25,-200.26 200.69,-197.52"/>
</a>
</g>
</g>
<!-- Node22&#45;&gt;Node2 -->
<g id="edge28_Node000022_Node000002" class="edge">
<title>Node22&#45;&gt;Node2</title>
<g id="a_edge28_Node000022_Node000002"><a xlink:title=" ">
<path fill="none" stroke="#63b8ff" d="M185.85,-167.62C179.87,-149.84 166.76,-110.88 158.73,-87"/>
<polygon fill="#63b8ff" stroke="#63b8ff" points="162.13,-86.15 155.63,-77.79 155.5,-88.38 162.13,-86.15"/>
</a>
</g>
</g>
</g>
</svg>
