<?xml version="1.0" encoding="UTF-8" standalone="no"?>
<!DOCTYPE svg PUBLIC "-//W3C//DTD SVG 1.1//EN"
 "http://www.w3.org/Graphics/SVG/1.1/DTD/svg11.dtd">
<!-- Generated by graphviz version 14.0.5 (0)
 -->
<!-- Title: build/esp&#45;idf/mbedtls/mbedtls/library/ssl_debug_helpers_generated.c Pages: 1 -->
<svg width="149pt" height="164pt"
 viewBox="0.00 0.00 149.00 164.00" xmlns="http://www.w3.org/2000/svg" xmlns:xlink="http://www.w3.org/1999/xlink">
<g id="graph0" class="graph" transform="scale(1 1) rotate(0) translate(4 160)">
<title>build/esp&#45;idf/mbedtls/mbedtls/library/ssl_debug_helpers_generated.c</title>
<!-- Node1 -->
<g id="Node000001" class="node">
<title>Node1</title>
<g id="a_Node000001"><a xlink:title="Automatically generated helper functions for debugging.">
<polygon fill="#999999" stroke="#666666" points="140.5,-156 0,-156 0,-112 140.5,-112 140.5,-156"/>
<text xml:space="preserve" text-anchor="start" x="8" y="-142.5" font-family="Helvetica,sans-Serif" font-size="10.00">build/esp&#45;idf/mbedtls</text>
<text xml:space="preserve" text-anchor="start" x="8" y="-130.5" font-family="Helvetica,sans-Serif" font-size="10.00">/mbedtls/library/ssl</text>
<text xml:space="preserve" text-anchor="middle" x="70.25" y="-118.5" font-family="Helvetica,sans-Serif" font-size="10.00">_debug_helpers_generated.c</text>
</a>
</g>
</g>
<!-- Node2 -->
<g id="Node000002" class="node">
<title>Node2</title>
<g id="a_Node000002"><a xlink:href="common_8h.html" target="_top" xlink:title=" ">
<polygon fill="white" stroke="#666666" points="101.12,-76 39.38,-76 39.38,-56 101.12,-56 101.12,-76"/>
<text xml:space="preserve" text-anchor="middle" x="70.25" y="-62.5" font-family="Helvetica,sans-Serif" font-size="10.00">common.h</text>
</a>
</g>
</g>
<!-- Node1&#45;&gt;Node2 -->
<g id="edge1_Node000001_Node000002" class="edge">
<title>Node1&#45;&gt;Node2</title>
<g id="a_edge1_Node000001_Node000002"><a xlink:title=" ">
<path fill="none" stroke="#63b8ff" d="M70.25,-111.75C70.25,-104.13 70.25,-95.53 70.25,-87.93"/>
<polygon fill="#63b8ff" stroke="#63b8ff" points="73.75,-87.93 70.25,-77.93 66.75,-87.93 73.75,-87.93"/>
</a>
</g>
</g>
<!-- Node3 -->
<g id="Node000003" class="node">
<title>Node3</title>
<g id="a_Node000003"><a xlink:title=" ">
<polygon fill="#e0e0e0" stroke="#999999" points="103.75,-20 36.75,-20 36.75,0 103.75,0 103.75,-20"/>
<text xml:space="preserve" text-anchor="middle" x="70.25" y="-6.5" font-family="Helvetica,sans-Serif" font-size="10.00">sys/types.h</text>
</a>
</g>
</g>
<!-- Node2&#45;&gt;Node3 -->
<g id="edge2_Node000002_Node000003" class="edge">
<title>Node2&#45;&gt;Node3</title>
<g id="a_edge2_Node000002_Node000003"><a xlink:title=" ">
<path fill="none" stroke="#63b8ff" d="M70.25,-55.59C70.25,-49.01 70.25,-39.96 70.25,-31.73"/>
<polygon fill="#63b8ff" stroke="#63b8ff" points="73.75,-31.81 70.25,-21.81 66.75,-31.81 73.75,-31.81"/>
</a>
</g>
</g>
</g>
</svg>
