<?xml version="1.0" encoding="UTF-8" standalone="no"?>
<!DOCTYPE svg PUBLIC "-//W3C//DTD SVG 1.1//EN"
 "http://www.w3.org/Graphics/SVG/1.1/DTD/svg11.dtd">
<!-- Generated by graphviz version 14.0.5 (0)
 -->
<!-- Title: managed_components/espressif__nghttp/nghttp2/third&#45;party/mruby/include/mruby/string.h Pages: 1 -->
<svg width="1130pt" height="328pt"
 viewBox="0.00 0.00 1130.00 328.00" xmlns="http://www.w3.org/2000/svg" xmlns:xlink="http://www.w3.org/1999/xlink">
<g id="graph0" class="graph" transform="scale(1 1) rotate(0) translate(4 324)">
<title>managed_components/espressif__nghttp/nghttp2/third&#45;party/mruby/include/mruby/string.h</title>
<!-- Node1 -->
<g id="Node000001" class="node">
<title>Node1</title>
<g id="a_Node000001"><a xlink:title=" ">
<polygon fill="#999999" stroke="#666666" points="606.75,-320 475.25,-320 475.25,-264 606.75,-264 606.75,-320"/>
<text xml:space="preserve" text-anchor="start" x="483.25" y="-306.5" font-family="Helvetica,sans-Serif" font-size="10.00">managed_components</text>
<text xml:space="preserve" text-anchor="start" x="483.25" y="-294.5" font-family="Helvetica,sans-Serif" font-size="10.00">/espressif__nghttp/nghttp2</text>
<text xml:space="preserve" text-anchor="start" x="483.25" y="-282.5" font-family="Helvetica,sans-Serif" font-size="10.00">/third&#45;party/mruby/include</text>
<text xml:space="preserve" text-anchor="middle" x="541" y="-270.5" font-family="Helvetica,sans-Serif" font-size="10.00">/mruby/string.h</text>
</a>
</g>
</g>
<!-- Node2 -->
<g id="Node000002" class="node">
<title>Node2</title>
<g id="a_Node000002"><a xlink:href="bluebox_8c.html" target="_top" xlink:title="BlueBox Bluetooth sink and i2s source for RetroBox.">
<polygon fill="white" stroke="#666666" points="82,-210 0,-210 0,-190 82,-190 82,-210"/>
<text xml:space="preserve" text-anchor="middle" x="41" y="-196.5" font-family="Helvetica,sans-Serif" font-size="10.00">main/bluebox.c</text>
</a>
</g>
</g>
<!-- Node1&#45;&gt;Node2 -->
<g id="edge1_Node000001_Node000002" class="edge">
<title>Node1&#45;&gt;Node2</title>
<g id="a_edge1_Node000001_Node000002"><a xlink:title=" ">
<path fill="none" stroke="#63b8ff" d="M463.55,-288.48C372.37,-283.64 217.33,-269.46 91,-228 78.25,-223.82 64.94,-216.46 55.26,-210.48"/>
<polygon fill="#63b8ff" stroke="#63b8ff" points="463.22,-291.97 473.39,-288.98 463.57,-284.98 463.22,-291.97"/>
</a>
</g>
</g>
<!-- Node3 -->
<g id="Node000003" class="node">
<title>Node3</title>
<g id="a_Node000003"><a xlink:href="nghttp2__helper_8h_source.html" target="_top" xlink:title=" ">
<polygon fill="white" stroke="#666666" points="231.75,-222 100.25,-222 100.25,-178 231.75,-178 231.75,-222"/>
<text xml:space="preserve" text-anchor="start" x="108.25" y="-208.5" font-family="Helvetica,sans-Serif" font-size="10.00">managed_components</text>
<text xml:space="preserve" text-anchor="start" x="108.25" y="-196.5" font-family="Helvetica,sans-Serif" font-size="10.00">/espressif__nghttp/nghttp2</text>
<text xml:space="preserve" text-anchor="middle" x="166" y="-184.5" font-family="Helvetica,sans-Serif" font-size="10.00">/lib/nghttp2_helper.h</text>
</a>
</g>
</g>
<!-- Node1&#45;&gt;Node3 -->
<g id="edge2_Node000001_Node000003" class="edge">
<title>Node1&#45;&gt;Node3</title>
<g id="a_edge2_Node000001_Node000003"><a xlink:title=" ">
<path fill="none" stroke="#63b8ff" d="M463.73,-277.82C402.72,-266.69 315.71,-249.18 241,-228 235.14,-226.34 229.08,-224.45 223.06,-222.46"/>
<polygon fill="#63b8ff" stroke="#63b8ff" points="462.86,-281.22 473.33,-279.56 464.11,-274.33 462.86,-281.22"/>
</a>
</g>
</g>
<!-- Node4 -->
<g id="Node000004" class="node">
<title>Node4</title>
<g id="a_Node000004"><a xlink:href="tests_2munit_2munit_8h_source.html" target="_top" xlink:title=" ">
<polygon fill="white" stroke="#666666" points="381.75,-222 250.25,-222 250.25,-178 381.75,-178 381.75,-222"/>
<text xml:space="preserve" text-anchor="start" x="258.25" y="-208.5" font-family="Helvetica,sans-Serif" font-size="10.00">managed_components</text>
<text xml:space="preserve" text-anchor="start" x="258.25" y="-196.5" font-family="Helvetica,sans-Serif" font-size="10.00">/espressif__nghttp/nghttp2</text>
<text xml:space="preserve" text-anchor="middle" x="316" y="-184.5" font-family="Helvetica,sans-Serif" font-size="10.00">/tests/munit/munit.h</text>
</a>
</g>
</g>
<!-- Node1&#45;&gt;Node4 -->
<g id="edge3_Node000001_Node000004" class="edge">
<title>Node1&#45;&gt;Node4</title>
<g id="a_edge3_Node000001_Node000004"><a xlink:title=" ">
<path fill="none" stroke="#63b8ff" d="M464.59,-260.44C433.33,-247.93 397.92,-233.77 369.51,-222.4"/>
<polygon fill="#63b8ff" stroke="#63b8ff" points="463.02,-263.58 473.61,-264.04 465.62,-257.08 463.02,-263.58"/>
</a>
</g>
</g>
<!-- Node6 -->
<g id="Node000006" class="node">
<title>Node6</title>
<g id="a_Node000006"><a xlink:href="istruct_8h.html" target="_top" xlink:title=" ">
<polygon fill="white" stroke="#666666" points="531.75,-228 400.25,-228 400.25,-172 531.75,-172 531.75,-228"/>
<text xml:space="preserve" text-anchor="start" x="408.25" y="-214.5" font-family="Helvetica,sans-Serif" font-size="10.00">managed_components</text>
<text xml:space="preserve" text-anchor="start" x="408.25" y="-202.5" font-family="Helvetica,sans-Serif" font-size="10.00">/espressif__nghttp/nghttp2</text>
<text xml:space="preserve" text-anchor="start" x="408.25" y="-190.5" font-family="Helvetica,sans-Serif" font-size="10.00">/third&#45;party/mruby/include</text>
<text xml:space="preserve" text-anchor="middle" x="466" y="-178.5" font-family="Helvetica,sans-Serif" font-size="10.00">/mruby/istruct.h</text>
</a>
</g>
</g>
<!-- Node1&#45;&gt;Node6 -->
<g id="edge5_Node000001_Node000006" class="edge">
<title>Node1&#45;&gt;Node6</title>
<g id="a_edge5_Node000001_Node000006"><a xlink:title=" ">
<path fill="none" stroke="#63b8ff" d="M510.89,-254.87C503.51,-246.01 495.74,-236.69 488.77,-228.32"/>
<polygon fill="#63b8ff" stroke="#63b8ff" points="508.03,-256.9 517.12,-262.35 513.41,-252.42 508.03,-256.9"/>
</a>
</g>
</g>
<!-- Node7 -->
<g id="Node000007" class="node">
<title>Node7</title>
<g id="a_Node000007"><a xlink:href="khash_8h.html" target="_top" xlink:title=" ">
<polygon fill="white" stroke="#666666" points="681.75,-228 550.25,-228 550.25,-172 681.75,-172 681.75,-228"/>
<text xml:space="preserve" text-anchor="start" x="558.25" y="-214.5" font-family="Helvetica,sans-Serif" font-size="10.00">managed_components</text>
<text xml:space="preserve" text-anchor="start" x="558.25" y="-202.5" font-family="Helvetica,sans-Serif" font-size="10.00">/espressif__nghttp/nghttp2</text>
<text xml:space="preserve" text-anchor="start" x="558.25" y="-190.5" font-family="Helvetica,sans-Serif" font-size="10.00">/third&#45;party/mruby/include</text>
<text xml:space="preserve" text-anchor="middle" x="616" y="-178.5" font-family="Helvetica,sans-Serif" font-size="10.00">/mruby/khash.h</text>
</a>
</g>
</g>
<!-- Node1&#45;&gt;Node7 -->
<g id="edge6_Node000001_Node000007" class="edge">
<title>Node1&#45;&gt;Node7</title>
<g id="a_edge6_Node000001_Node000007"><a xlink:title=" ">
<path fill="none" stroke="#63b8ff" d="M571.11,-254.87C578.49,-246.01 586.26,-236.69 593.23,-228.32"/>
<polygon fill="#63b8ff" stroke="#63b8ff" points="568.59,-252.42 564.88,-262.35 573.97,-256.9 568.59,-252.42"/>
</a>
</g>
</g>
<!-- Node10 -->
<g id="Node000010" class="node">
<title>Node10</title>
<g id="a_Node000010"><a xlink:href="disable_8h.html" target="_top" xlink:title=" ">
<polygon fill="white" stroke="#666666" points="831.75,-228 700.25,-228 700.25,-172 831.75,-172 831.75,-228"/>
<text xml:space="preserve" text-anchor="start" x="708.25" y="-214.5" font-family="Helvetica,sans-Serif" font-size="10.00">managed_components</text>
<text xml:space="preserve" text-anchor="start" x="708.25" y="-202.5" font-family="Helvetica,sans-Serif" font-size="10.00">/espressif__nghttp/nghttp2</text>
<text xml:space="preserve" text-anchor="start" x="708.25" y="-190.5" font-family="Helvetica,sans-Serif" font-size="10.00">/third&#45;party/mruby/include</text>
<text xml:space="preserve" text-anchor="middle" x="766" y="-178.5" font-family="Helvetica,sans-Serif" font-size="10.00">/mruby/presym/disable.h</text>
</a>
</g>
</g>
<!-- Node1&#45;&gt;Node10 -->
<g id="edge9_Node000001_Node000010" class="edge">
<title>Node1&#45;&gt;Node10</title>
<g id="a_edge9_Node000001_Node000010"><a xlink:title=" ">
<path fill="none" stroke="#63b8ff" d="M617.48,-260.41C644.29,-249.68 674.14,-237.74 700.01,-227.39"/>
<polygon fill="#63b8ff" stroke="#63b8ff" points="616.38,-257.08 608.39,-264.04 618.98,-263.58 616.38,-257.08"/>
</a>
</g>
</g>
<!-- Node11 -->
<g id="Node000011" class="node">
<title>Node11</title>
<g id="a_Node000011"><a xlink:href="third-party_2urlparse_2munit_2munit_8h_source.html" target="_top" xlink:title=" ">
<polygon fill="white" stroke="#666666" points="981.75,-228 850.25,-228 850.25,-172 981.75,-172 981.75,-228"/>
<text xml:space="preserve" text-anchor="start" x="858.25" y="-214.5" font-family="Helvetica,sans-Serif" font-size="10.00">managed_components</text>
<text xml:space="preserve" text-anchor="start" x="858.25" y="-202.5" font-family="Helvetica,sans-Serif" font-size="10.00">/espressif__nghttp/nghttp2</text>
<text xml:space="preserve" text-anchor="start" x="858.25" y="-190.5" font-family="Helvetica,sans-Serif" font-size="10.00">/third&#45;party/urlparse/munit</text>
<text xml:space="preserve" text-anchor="middle" x="916" y="-178.5" font-family="Helvetica,sans-Serif" font-size="10.00">/munit.h</text>
</a>
</g>
</g>
<!-- Node1&#45;&gt;Node11 -->
<g id="edge10_Node000001_Node000011" class="edge">
<title>Node1&#45;&gt;Node11</title>
<g id="a_edge10_Node000001_Node000011"><a xlink:title=" ">
<path fill="none" stroke="#63b8ff" d="M618.27,-277.82C679.28,-266.69 766.29,-249.18 841,-228 843.93,-227.17 846.91,-226.28 849.91,-225.35"/>
<polygon fill="#63b8ff" stroke="#63b8ff" points="617.89,-274.33 608.67,-279.56 619.14,-281.22 617.89,-274.33"/>
</a>
</g>
</g>
<!-- Node13 -->
<g id="Node000013" class="node">
<title>Node13</title>
<g id="a_Node000013"><a xlink:href="config_8h_source.html" target="_top" xlink:title=" ">
<polygon fill="white" stroke="#666666" points="1121.88,-222 1000.12,-222 1000.12,-178 1121.88,-178 1121.88,-222"/>
<text xml:space="preserve" text-anchor="start" x="1008.12" y="-208.5" font-family="Helvetica,sans-Serif" font-size="10.00">managed_components</text>
<text xml:space="preserve" text-anchor="start" x="1008.12" y="-196.5" font-family="Helvetica,sans-Serif" font-size="10.00">/espressif__nghttp/port</text>
<text xml:space="preserve" text-anchor="middle" x="1061" y="-184.5" font-family="Helvetica,sans-Serif" font-size="10.00">/private_include/config.h</text>
</a>
</g>
</g>
<!-- Node1&#45;&gt;Node13 -->
<g id="edge12_Node000001_Node000013" class="edge">
<title>Node1&#45;&gt;Node13</title>
<g id="a_edge12_Node000001_Node000013"><a xlink:title=" ">
<path fill="none" stroke="#63b8ff" d="M618.39,-285.58C708.89,-278.01 862.66,-261.26 991,-228 997.05,-226.43 1003.3,-224.5 1009.45,-222.4"/>
<polygon fill="#63b8ff" stroke="#63b8ff" points="618.32,-282.07 608.64,-286.38 618.89,-289.05 618.32,-282.07"/>
</a>
</g>
</g>
<!-- Node5 -->
<g id="Node000005" class="node">
<title>Node5</title>
<g id="a_Node000005"><a xlink:href="tests_2munit_2munitxx_8h_source.html" target="_top" xlink:title=" ">
<polygon fill="white" stroke="#666666" points="381.75,-130 250.25,-130 250.25,-86 381.75,-86 381.75,-130"/>
<text xml:space="preserve" text-anchor="start" x="258.25" y="-116.5" font-family="Helvetica,sans-Serif" font-size="10.00">managed_components</text>
<text xml:space="preserve" text-anchor="start" x="258.25" y="-104.5" font-family="Helvetica,sans-Serif" font-size="10.00">/espressif__nghttp/nghttp2</text>
<text xml:space="preserve" text-anchor="middle" x="316" y="-92.5" font-family="Helvetica,sans-Serif" font-size="10.00">/tests/munit/munitxx.h</text>
</a>
</g>
</g>
<!-- Node4&#45;&gt;Node5 -->
<g id="edge4_Node000004_Node000005" class="edge">
<title>Node4&#45;&gt;Node5</title>
<g id="a_edge4_Node000004_Node000005"><a xlink:title=" ">
<path fill="none" stroke="#63b8ff" d="M316,-166.3C316,-154.37 316,-141.19 316,-130.49"/>
<polygon fill="#63b8ff" stroke="#63b8ff" points="312.5,-166.16 316,-176.16 319.5,-166.16 312.5,-166.16"/>
</a>
</g>
</g>
<!-- Node8 -->
<g id="Node000008" class="node">
<title>Node8</title>
<g id="a_Node000008"><a xlink:href="proc_8h.html" target="_top" xlink:title=" ">
<polygon fill="white" stroke="#666666" points="681.75,-136 550.25,-136 550.25,-80 681.75,-80 681.75,-136"/>
<text xml:space="preserve" text-anchor="start" x="558.25" y="-122.5" font-family="Helvetica,sans-Serif" font-size="10.00">managed_components</text>
<text xml:space="preserve" text-anchor="start" x="558.25" y="-110.5" font-family="Helvetica,sans-Serif" font-size="10.00">/espressif__nghttp/nghttp2</text>
<text xml:space="preserve" text-anchor="start" x="558.25" y="-98.5" font-family="Helvetica,sans-Serif" font-size="10.00">/third&#45;party/mruby/include</text>
<text xml:space="preserve" text-anchor="middle" x="616" y="-86.5" font-family="Helvetica,sans-Serif" font-size="10.00">/mruby/proc.h</text>
</a>
</g>
</g>
<!-- Node7&#45;&gt;Node8 -->
<g id="edge7_Node000007_Node000008" class="edge">
<title>Node7&#45;&gt;Node8</title>
<g id="a_edge7_Node000007_Node000008"><a xlink:title=" ">
<path fill="none" stroke="#63b8ff" d="M616,-160.09C616,-152.08 616,-143.81 616,-136.32"/>
<polygon fill="#63b8ff" stroke="#63b8ff" points="612.5,-159.99 616,-169.99 619.5,-159.99 612.5,-159.99"/>
</a>
</g>
</g>
<!-- Node9 -->
<g id="Node000009" class="node">
<title>Node9</title>
<g id="a_Node000009"><a xlink:href="shrpx__mruby_8h_source.html" target="_top" xlink:title=" ">
<polygon fill="white" stroke="#666666" points="681.75,-44 550.25,-44 550.25,0 681.75,0 681.75,-44"/>
<text xml:space="preserve" text-anchor="start" x="558.25" y="-30.5" font-family="Helvetica,sans-Serif" font-size="10.00">managed_components</text>
<text xml:space="preserve" text-anchor="start" x="558.25" y="-18.5" font-family="Helvetica,sans-Serif" font-size="10.00">/espressif__nghttp/nghttp2</text>
<text xml:space="preserve" text-anchor="middle" x="616" y="-6.5" font-family="Helvetica,sans-Serif" font-size="10.00">/src/shrpx_mruby.h</text>
</a>
</g>
</g>
<!-- Node8&#45;&gt;Node9 -->
<g id="edge8_Node000008_Node000009" class="edge">
<title>Node8&#45;&gt;Node9</title>
<g id="a_edge8_Node000008_Node000009"><a xlink:title=" ">
<path fill="none" stroke="#63b8ff" d="M616,-68.5C616,-60.22 616,-51.75 616,-44.4"/>
<polygon fill="#63b8ff" stroke="#63b8ff" points="612.5,-68.45 616,-78.45 619.5,-68.45 612.5,-68.45"/>
</a>
</g>
</g>
<!-- Node12 -->
<g id="Node000012" class="node">
<title>Node12</title>
<g id="a_Node000012"><a xlink:href="third-party_2urlparse_2munit_2munitxx_8h_source.html" target="_top" xlink:title=" ">
<polygon fill="white" stroke="#666666" points="981.75,-136 850.25,-136 850.25,-80 981.75,-80 981.75,-136"/>
<text xml:space="preserve" text-anchor="start" x="858.25" y="-122.5" font-family="Helvetica,sans-Serif" font-size="10.00">managed_components</text>
<text xml:space="preserve" text-anchor="start" x="858.25" y="-110.5" font-family="Helvetica,sans-Serif" font-size="10.00">/espressif__nghttp/nghttp2</text>
<text xml:space="preserve" text-anchor="start" x="858.25" y="-98.5" font-family="Helvetica,sans-Serif" font-size="10.00">/third&#45;party/urlparse/munit</text>
<text xml:space="preserve" text-anchor="middle" x="916" y="-86.5" font-family="Helvetica,sans-Serif" font-size="10.00">/munitxx.h</text>
</a>
</g>
</g>
<!-- Node11&#45;&gt;Node12 -->
<g id="edge11_Node000011_Node000012" class="edge">
<title>Node11&#45;&gt;Node12</title>
<g id="a_edge11_Node000011_Node000012"><a xlink:title=" ">
<path fill="none" stroke="#63b8ff" d="M916,-160.09C916,-152.08 916,-143.81 916,-136.32"/>
<polygon fill="#63b8ff" stroke="#63b8ff" points="912.5,-159.99 916,-169.99 919.5,-159.99 912.5,-159.99"/>
</a>
</g>
</g>
</g>
</svg>
