<?xml version="1.0" encoding="UTF-8" standalone="no"?>
<!DOCTYPE svg PUBLIC "-//W3C//DTD SVG 1.1//EN"
 "http://www.w3.org/Graphics/SVG/1.1/DTD/svg11.dtd">
<!-- Generated by graphviz version 14.0.5 (0)
 -->
<!-- Title: nghttp2::Stream Pages: 1 -->
<svg width="470pt" height="338pt"
 viewBox="0.00 0.00 470.00 338.00" xmlns="http://www.w3.org/2000/svg" xmlns:xlink="http://www.w3.org/1999/xlink">
<g id="graph0" class="graph" transform="scale(1 1) rotate(0) translate(4 334)">
<title>nghttp2::Stream</title>
<!-- Node1 -->
<g id="Node000001" class="node">
<title>Node1</title>
<g id="a_Node000001"><a xlink:title=" ">
<polygon fill="#999999" stroke="#666666" points="462,-137 376.25,-137 376.25,-117 462,-117 462,-137"/>
<text xml:space="preserve" text-anchor="middle" x="419.12" y="-123.5" font-family="Helvetica,sans-Serif" font-size="10.00">nghttp2::Stream</text>
</a>
</g>
</g>
<!-- Node2 -->
<g id="Node000002" class="node">
<title>Node2</title>
<g id="a_Node000002"><a xlink:href="structnghttp2_1_1BlockAllocator.html" target="_top" xlink:title=" ">
<polygon fill="white" stroke="#bfbfbf" points="300.12,-270 182.88,-270 182.88,-250 300.12,-250 300.12,-270"/>
<text xml:space="preserve" text-anchor="middle" x="241.5" y="-256.5" font-family="Helvetica,sans-Serif" font-size="10.00">nghttp2::BlockAllocator</text>
</a>
</g>
</g>
<!-- Node2&#45;&gt;Node1 -->
<g id="edge1_Node000001_Node000002" class="edge">
<title>Node2&#45;&gt;Node1</title>
<g id="a_edge1_Node000001_Node000002"><a xlink:title=" ">
<path fill="none" stroke="#9a32cd" stroke-dasharray="5,2" d="M265.31,-242.73C302.32,-214.7 374.33,-160.17 404.41,-137.39"/>
<polygon fill="#9a32cd" stroke="#9a32cd" points="263.35,-239.82 257.49,-248.65 267.57,-245.4 263.35,-239.82"/>
</a>
</g>
<text xml:space="preserve" text-anchor="start" x="326.75" y="-202.99" font-family="Helvetica,sans-Serif" font-size="10.00" fill="grey">balloc</text>
</g>
<!-- Node3 -->
<g id="Node000003" class="node">
<title>Node3</title>
<g id="a_Node000003"><a xlink:href="structnghttp2_1_1MemBlock.html" target="_top" xlink:title=" ">
<polygon fill="white" stroke="#bfbfbf" points="100.75,-294 0,-294 0,-274 100.75,-274 100.75,-294"/>
<text xml:space="preserve" text-anchor="middle" x="50.38" y="-280.5" font-family="Helvetica,sans-Serif" font-size="10.00">nghttp2::MemBlock</text>
</a>
</g>
</g>
<!-- Node3&#45;&gt;Node2 -->
<g id="edge2_Node000002_Node000003" class="edge">
<title>Node3&#45;&gt;Node2</title>
<g id="a_edge2_Node000002_Node000003"><a xlink:title=" ">
<path fill="none" stroke="#9a32cd" stroke-dasharray="5,2" d="M112.2,-276.28C134.71,-273.42 160.16,-270.2 182.42,-267.37"/>
<polygon fill="#9a32cd" stroke="#9a32cd" points="112.05,-272.77 102.57,-277.5 112.93,-279.72 112.05,-272.77"/>
</a>
</g>
<text xml:space="preserve" text-anchor="start" x="128.5" y="-296.36" font-family="Helvetica,sans-Serif" font-size="10.00" fill="grey">head</text>
<text xml:space="preserve" text-anchor="start" x="128.5" y="-280.36" font-family="Helvetica,sans-Serif" font-size="10.00" fill="grey">retain</text>
</g>
<!-- Node3&#45;&gt;Node3 -->
<g id="edge3_Node000003_Node000003" class="edge">
<title>Node3&#45;&gt;Node3</title>
<g id="a_edge3_Node000003_Node000003"><a xlink:title=" ">
<path fill="none" stroke="#9a32cd" stroke-dasharray="5,2" d="M34.45,-305.44C36.5,-309.3 41.81,-312 50.38,-312 66.04,-312 70.81,-302.98 64.69,-294.34"/>
<polygon fill="#9a32cd" stroke="#9a32cd" points="37.87,-306.24 35.84,-295.84 30.94,-305.23 37.87,-306.24"/>
</a>
</g>
<text xml:space="preserve" text-anchor="start" x="41" y="-317.5" font-family="Helvetica,sans-Serif" font-size="10.00" fill="grey">next</text>
</g>
<!-- Node4 -->
<g id="Node000004" class="node">
<title>Node4</title>
<g id="a_Node000004"><a xlink:href="structnghttp2_1_1RequestHeader.html" target="_top" xlink:title=" ">
<polygon fill="white" stroke="#bfbfbf" points="302.75,-157 180.25,-157 180.25,-137 302.75,-137 302.75,-157"/>
<text xml:space="preserve" text-anchor="middle" x="241.5" y="-143.5" font-family="Helvetica,sans-Serif" font-size="10.00">nghttp2::RequestHeader</text>
</a>
</g>
</g>
<!-- Node4&#45;&gt;Node1 -->
<g id="edge4_Node000001_Node000004" class="edge">
<title>Node4&#45;&gt;Node1</title>
<g id="a_edge4_Node000001_Node000004"><a xlink:title=" ">
<path fill="none" stroke="#9a32cd" stroke-dasharray="5,2" d="M314.1,-138.85C335.07,-136.46 357.33,-133.92 375.85,-131.81"/>
<polygon fill="#9a32cd" stroke="#9a32cd" points="313.98,-135.34 304.44,-139.95 314.78,-142.29 313.98,-135.34"/>
</a>
</g>
<text xml:space="preserve" text-anchor="start" x="324.88" y="-143.1" font-family="Helvetica,sans-Serif" font-size="10.00" fill="grey">header</text>
</g>
<!-- Node5 -->
<g id="Node000005" class="node">
<title>Node5</title>
<g id="a_Node000005"><a xlink:href="classnghttp2_1_1StringRef.html" target="_top" xlink:title=" ">
<polygon fill="white" stroke="#bfbfbf" points="98.12,-157 2.62,-157 2.62,-137 98.12,-137 98.12,-157"/>
<text xml:space="preserve" text-anchor="middle" x="50.38" y="-143.5" font-family="Helvetica,sans-Serif" font-size="10.00">nghttp2::StringRef</text>
</a>
</g>
</g>
<!-- Node5&#45;&gt;Node4 -->
<g id="edge5_Node000004_Node000005" class="edge">
<title>Node5&#45;&gt;Node4</title>
<g id="a_edge5_Node000004_Node000005"><a xlink:title=" ">
<path fill="none" stroke="#9a32cd" stroke-dasharray="5,2" d="M109.92,-147C132.16,-147 157.52,-147 179.94,-147"/>
<polygon fill="#9a32cd" stroke="#9a32cd" points="110.12,-143.5 100.12,-147 110.12,-150.5 110.12,-143.5"/>
</a>
</g>
<text xml:space="preserve" text-anchor="start" x="121.75" y="-248.5" font-family="Helvetica,sans-Serif" font-size="10.00" fill="grey">authority</text>
<text xml:space="preserve" text-anchor="start" x="121.75" y="-232.5" font-family="Helvetica,sans-Serif" font-size="10.00" fill="grey">expect</text>
<text xml:space="preserve" text-anchor="start" x="121.75" y="-216.5" font-family="Helvetica,sans-Serif" font-size="10.00" fill="grey">host</text>
<text xml:space="preserve" text-anchor="start" x="121.75" y="-200.5" font-family="Helvetica,sans-Serif" font-size="10.00" fill="grey">ims</text>
<text xml:space="preserve" text-anchor="start" x="121.75" y="-184.5" font-family="Helvetica,sans-Serif" font-size="10.00" fill="grey">method</text>
<text xml:space="preserve" text-anchor="start" x="121.75" y="-168.5" font-family="Helvetica,sans-Serif" font-size="10.00" fill="grey">path</text>
<text xml:space="preserve" text-anchor="start" x="121.75" y="-152.5" font-family="Helvetica,sans-Serif" font-size="10.00" fill="grey">scheme</text>
</g>
<!-- Node6 -->
<g id="Node000006" class="node">
<title>Node6</title>
<g id="a_Node000006"><a xlink:href="structnghttp2__rcbuf.html" target="_top" xlink:title=" ">
<polygon fill="white" stroke="#bfbfbf" points="88,-20 12.75,-20 12.75,0 88,0 88,-20"/>
<text xml:space="preserve" text-anchor="middle" x="50.38" y="-6.5" font-family="Helvetica,sans-Serif" font-size="10.00">nghttp2_rcbuf</text>
</a>
</g>
</g>
<!-- Node6&#45;&gt;Node4 -->
<g id="edge6_Node000004_Node000006" class="edge">
<title>Node6&#45;&gt;Node4</title>
<g id="a_edge6_Node000004_Node000006"><a xlink:title=" ">
<path fill="none" stroke="#9a32cd" stroke-dasharray="5,2" d="M99.8,-6.54C121.61,-7.65 146.04,-13.02 162.25,-29 193.47,-59.79 151.69,-92.73 180.25,-126 184,-130.37 188.72,-133.83 193.85,-136.57"/>
<polygon fill="#9a32cd" stroke="#9a32cd" points="99.94,-3.04 89.88,-6.35 99.81,-10.04 99.94,-3.04"/>
</a>
</g>
<text xml:space="preserve" text-anchor="start" x="121.75" y="-130.5" font-family="Helvetica,sans-Serif" font-size="10.00" fill="grey">authority</text>
<text xml:space="preserve" text-anchor="start" x="121.75" y="-114.5" font-family="Helvetica,sans-Serif" font-size="10.00" fill="grey">expect</text>
<text xml:space="preserve" text-anchor="start" x="121.75" y="-98.5" font-family="Helvetica,sans-Serif" font-size="10.00" fill="grey">host</text>
<text xml:space="preserve" text-anchor="start" x="121.75" y="-82.5" font-family="Helvetica,sans-Serif" font-size="10.00" fill="grey">ims</text>
<text xml:space="preserve" text-anchor="start" x="121.75" y="-66.5" font-family="Helvetica,sans-Serif" font-size="10.00" fill="grey">method</text>
<text xml:space="preserve" text-anchor="start" x="121.75" y="-50.5" font-family="Helvetica,sans-Serif" font-size="10.00" fill="grey">path</text>
<text xml:space="preserve" text-anchor="start" x="121.75" y="-34.5" font-family="Helvetica,sans-Serif" font-size="10.00" fill="grey">scheme</text>
</g>
<!-- Node7 -->
<g id="Node000007" class="node">
<title>Node7</title>
<g id="a_Node000007"><a xlink:href="classnghttp2_1_1Http2Handler.html" target="_top" xlink:title=" ">
<polygon fill="white" stroke="#bfbfbf" points="297.5,-117 185.5,-117 185.5,-97 297.5,-97 297.5,-117"/>
<text xml:space="preserve" text-anchor="middle" x="241.5" y="-103.5" font-family="Helvetica,sans-Serif" font-size="10.00">nghttp2::Http2Handler</text>
</a>
</g>
</g>
<!-- Node7&#45;&gt;Node1 -->
<g id="edge7_Node000001_Node000007" class="edge">
<title>Node7&#45;&gt;Node1</title>
<g id="a_edge7_Node000001_Node000007"><a xlink:title=" ">
<path fill="none" stroke="#9a32cd" stroke-dasharray="5,2" d="M308.8,-107.56C325.04,-108.33 342.32,-109.68 358.25,-112 365.78,-113.09 373.74,-114.74 381.31,-116.54"/>
<polygon fill="#9a32cd" stroke="#9a32cd" points="309.41,-104.08 299.28,-107.17 309.13,-111.07 309.41,-104.08"/>
</a>
</g>
<text xml:space="preserve" text-anchor="start" x="323.75" y="-117.5" font-family="Helvetica,sans-Serif" font-size="10.00" fill="grey">handler</text>
</g>
<!-- Node8 -->
<g id="Node000008" class="node">
<title>Node8</title>
<g id="a_Node000008"><a xlink:href="structnghttp2_1_1FileEntry.html" target="_top" xlink:title=" ">
<polygon fill="white" stroke="#bfbfbf" points="288.12,-27 194.88,-27 194.88,-7 288.12,-7 288.12,-27"/>
<text xml:space="preserve" text-anchor="middle" x="241.5" y="-13.5" font-family="Helvetica,sans-Serif" font-size="10.00">nghttp2::FileEntry</text>
</a>
</g>
</g>
<!-- Node8&#45;&gt;Node1 -->
<g id="edge8_Node000001_Node000008" class="edge">
<title>Node8&#45;&gt;Node1</title>
<g id="a_edge8_Node000001_Node000008"><a xlink:title=" ">
<path fill="none" stroke="#9a32cd" stroke-dasharray="5,2" d="M270.48,-33.02C294.11,-46.7 328.72,-67.11 358.25,-86 373.96,-96.05 391.52,-108.18 403.53,-116.63"/>
<polygon fill="#9a32cd" stroke="#9a32cd" points="272.48,-30.13 262.07,-28.17 268.98,-36.19 272.48,-30.13"/>
</a>
</g>
<text xml:space="preserve" text-anchor="start" x="323.75" y="-91.5" font-family="Helvetica,sans-Serif" font-size="10.00" fill="grey">file_ent</text>
</g>
<!-- Node8&#45;&gt;Node8 -->
<g id="edge9_Node000008_Node000008" class="edge">
<title>Node8&#45;&gt;Node8</title>
<g id="a_edge9_Node000008_Node000008"><a xlink:title=" ">
<path fill="none" stroke="#9a32cd" stroke-dasharray="5,2" d="M224.18,-38.44C226.41,-42.3 232.18,-45 241.5,-45 258.54,-45 263.73,-35.98 257.07,-27.34"/>
<polygon fill="#9a32cd" stroke="#9a32cd" points="227.59,-39.26 225.69,-28.83 220.68,-38.17 227.59,-39.26"/>
</a>
</g>
<text xml:space="preserve" text-anchor="start" x="228.38" y="-66.5" font-family="Helvetica,sans-Serif" font-size="10.00" fill="grey">dlnext</text>
<text xml:space="preserve" text-anchor="start" x="228.38" y="-50.5" font-family="Helvetica,sans-Serif" font-size="10.00" fill="grey">dlprev</text>
</g>
</g>
</svg>
