<?xml version="1.0" encoding="UTF-8" standalone="no"?>
<!DOCTYPE svg PUBLIC "-//W3C//DTD SVG 1.1//EN"
 "http://www.w3.org/Graphics/SVG/1.1/DTD/svg11.dtd">
<!-- Generated by graphviz version 14.0.5 (0)
 -->
<!-- Title: RString Pages: 1 -->
<svg width="137pt" height="102pt"
 viewBox="0.00 0.00 137.00 102.00" xmlns="http://www.w3.org/2000/svg" xmlns:xlink="http://www.w3.org/1999/xlink">
<g id="graph0" class="graph" transform="scale(1 1) rotate(0) translate(4 98)">
<title>RString</title>
<!-- Node1 -->
<g id="Node000001" class="node">
<title>Node1</title>
<g id="a_Node000001"><a xlink:title=" ">
<polygon fill="#999999" stroke="#666666" points="72.62,-20 23.62,-20 23.62,0 72.62,0 72.62,-20"/>
<text xml:space="preserve" text-anchor="middle" x="48.12" y="-6.5" font-family="Helvetica,sans-Serif" font-size="10.00">RString</text>
</a>
</g>
</g>
<!-- Node1&#45;&gt;Node1 -->
<g id="edge2_Node000001_Node000001" class="edge">
<title>Node1&#45;&gt;Node1</title>
<g id="a_edge2_Node000001_Node000001"><a xlink:title=" ">
<path fill="none" stroke="#9a32cd" stroke-dasharray="5,2" d="M84.17,-15.81C88.09,-14.7 90.62,-12.76 90.62,-10 90.62,-5.09 82.63,-2.78 73.01,-3.09"/>
<polygon fill="#9a32cd" stroke="#9a32cd" points="84.12,-12.3 74.51,-16.76 84.81,-19.27 84.12,-12.3"/>
</a>
</g>
<text xml:space="preserve" text-anchor="start" x="93.62" y="-6.5" font-family="Helvetica,sans-Serif" font-size="10.00" fill="grey">fshared</text>
</g>
<!-- Node2 -->
<g id="Node000002" class="node">
<title>Node2</title>
<g id="a_Node000002"><a xlink:href="structmrb__shared__string.html" target="_top" xlink:title=" ">
<polygon fill="white" stroke="#bfbfbf" points="96.25,-94 0,-94 0,-74 96.25,-74 96.25,-94"/>
<text xml:space="preserve" text-anchor="middle" x="48.12" y="-80.5" font-family="Helvetica,sans-Serif" font-size="10.00">mrb_shared_string</text>
</a>
</g>
</g>
<!-- Node2&#45;&gt;Node1 -->
<g id="edge1_Node000001_Node000002" class="edge">
<title>Node2&#45;&gt;Node1</title>
<g id="a_edge1_Node000001_Node000002"><a xlink:title=" ">
<path fill="none" stroke="#9a32cd" stroke-dasharray="5,2" d="M48.12,-62.18C48.12,-48.29 48.12,-30.71 48.12,-20.19"/>
<polygon fill="#9a32cd" stroke="#9a32cd" points="44.63,-62.07 48.13,-72.07 51.63,-62.07 44.63,-62.07"/>
</a>
</g>
<text xml:space="preserve" text-anchor="start" x="51.12" y="-43.5" font-family="Helvetica,sans-Serif" font-size="10.00" fill="grey">shared</text>
</g>
</g>
</svg>
