<?xml version="1.0" encoding="UTF-8" standalone="no"?>
<!DOCTYPE svg PUBLIC "-//W3C//DTD SVG 1.1//EN"
 "http://www.w3.org/Graphics/SVG/1.1/DTD/svg11.dtd">
<!-- Generated by graphviz version 14.0.5 (0)
 -->
<!-- Title: nghttp2::PeekMemchunks&lt; Memchunk &gt; Pages: 1 -->
<svg width="250pt" height="334pt"
 viewBox="0.00 0.00 250.00 334.00" xmlns="http://www.w3.org/2000/svg" xmlns:xlink="http://www.w3.org/1999/xlink">
<g id="graph0" class="graph" transform="scale(1 1) rotate(0) translate(4 330)">
<title>nghttp2::PeekMemchunks&lt; Memchunk &gt;</title>
<!-- Node1 -->
<g id="Node000001" class="node">
<title>Node1</title>
<g id="a_Node000001"><a xlink:title=" ">
<polygon fill="#999999" stroke="#666666" points="130,-32 0,-32 0,0 130,0 130,-32"/>
<text xml:space="preserve" text-anchor="start" x="8" y="-18.5" font-family="Helvetica,sans-Serif" font-size="10.00">nghttp2::PeekMemchunks</text>
<text xml:space="preserve" text-anchor="middle" x="65" y="-6.5" font-family="Helvetica,sans-Serif" font-size="10.00">&lt; Memchunk &gt;</text>
</a>
</g>
</g>
<!-- Node2 -->
<g id="Node000002" class="node">
<title>Node2</title>
<g id="a_Node000002"><a xlink:href="structnghttp2_1_1Memchunks.html" target="_top" xlink:title=" ">
<polygon fill="white" stroke="#bfbfbf" points="183.12,-118 62.88,-118 62.88,-86 183.12,-86 183.12,-118"/>
<text xml:space="preserve" text-anchor="start" x="70.88" y="-104.5" font-family="Helvetica,sans-Serif" font-size="10.00">nghttp2::Memchunks</text>
<text xml:space="preserve" text-anchor="middle" x="123" y="-92.5" font-family="Helvetica,sans-Serif" font-size="10.00">&lt; nghttp2::Memchunk &gt;</text>
</a>
</g>
</g>
<!-- Node2&#45;&gt;Node1 -->
<g id="edge1_Node000001_Node000002" class="edge">
<title>Node2&#45;&gt;Node1</title>
<g id="a_edge1_Node000001_Node000002"><a xlink:title=" ">
<path fill="none" stroke="#9a32cd" stroke-dasharray="5,2" d="M105.98,-76.34C96.13,-62.09 84.05,-44.6 75.57,-32.31"/>
<polygon fill="#9a32cd" stroke="#9a32cd" points="102.94,-78.11 111.5,-84.35 108.7,-74.13 102.94,-78.11"/>
</a>
</g>
<text xml:space="preserve" text-anchor="start" x="102.19" y="-55.5" font-family="Helvetica,sans-Serif" font-size="10.00" fill="grey">memchunks</text>
</g>
<!-- Node3 -->
<g id="Node000003" class="node">
<title>Node3</title>
<g id="a_Node000003"><a xlink:href="structnghttp2_1_1Pool.html" target="_top" xlink:title=" ">
<polygon fill="white" stroke="#bfbfbf" points="241.5,-213 126.5,-213 126.5,-181 241.5,-181 241.5,-213"/>
<text xml:space="preserve" text-anchor="start" x="134.5" y="-199.5" font-family="Helvetica,sans-Serif" font-size="10.00">nghttp2::Pool&lt; nghttp2</text>
<text xml:space="preserve" text-anchor="middle" x="184" y="-187.5" font-family="Helvetica,sans-Serif" font-size="10.00">::Memchunk &gt;</text>
</a>
</g>
</g>
<!-- Node3&#45;&gt;Node2 -->
<g id="edge2_Node000002_Node000003" class="edge">
<title>Node3&#45;&gt;Node2</title>
<g id="a_edge2_Node000002_Node000003"><a xlink:title=" ">
<path fill="none" stroke="#9a32cd" stroke-dasharray="5,2" d="M167.87,-171.4C156.83,-154.58 142.54,-132.79 133.09,-118.38"/>
<polygon fill="#9a32cd" stroke="#9a32cd" points="164.69,-172.94 173.1,-179.38 170.54,-169.1 164.69,-172.94"/>
</a>
</g>
<text xml:space="preserve" text-anchor="start" x="158.33" y="-141.5" font-family="Helvetica,sans-Serif" font-size="10.00" fill="grey">pool</text>
</g>
<!-- Node4 -->
<g id="Node000004" class="node">
<title>Node4</title>
<g id="a_Node000004"><a xlink:href="structnghttp2_1_1Memchunk.html" target="_top" xlink:title=" ">
<polygon fill="white" stroke="#bfbfbf" points="144.88,-319 17.12,-319 17.12,-299 144.88,-299 144.88,-319"/>
<text xml:space="preserve" text-anchor="middle" x="81" y="-305.5" font-family="Helvetica,sans-Serif" font-size="10.00">nghttp2::Memchunk&lt; N &gt;</text>
</a>
</g>
</g>
<!-- Node4&#45;&gt;Node1 -->
<g id="edge6_Node000001_Node000004" class="edge">
<title>Node4&#45;&gt;Node1</title>
<g id="a_edge6_Node000001_Node000004"><a xlink:title=" ">
<path fill="none" stroke="#9a32cd" stroke-dasharray="5,2" d="M75.78,-287.66C66.37,-248.66 48.09,-160.58 54,-86 55.48,-67.38 59.16,-46.19 61.86,-32.26"/>
<polygon fill="#9a32cd" stroke="#9a32cd" points="72.35,-288.39 78.16,-297.25 79.15,-286.7 72.35,-288.39"/>
</a>
</g>
<text xml:space="preserve" text-anchor="start" x="57.1" y="-141.5" font-family="Helvetica,sans-Serif" font-size="10.00" fill="grey">cur</text>
</g>
<!-- Node4&#45;&gt;Node2 -->
<g id="edge5_Node000002_Node000004" class="edge">
<title>Node4&#45;&gt;Node2</title>
<g id="a_edge5_Node000002_Node000004"><a xlink:title=" ">
<path fill="none" stroke="#9a32cd" stroke-dasharray="5,2" d="M80.03,-287.15C79.31,-260.13 79.87,-211.75 90.25,-172 95.34,-152.5 105.93,-131.83 113.7,-118.26"/>
<polygon fill="#9a32cd" stroke="#9a32cd" points="76.53,-287.2 80.39,-297.06 83.52,-286.94 76.53,-287.2"/>
</a>
</g>
<text xml:space="preserve" text-anchor="start" x="93.25" y="-209.5" font-family="Helvetica,sans-Serif" font-size="10.00" fill="grey">head</text>
<text xml:space="preserve" text-anchor="start" x="93.25" y="-193.5" font-family="Helvetica,sans-Serif" font-size="10.00" fill="grey">mark</text>
<text xml:space="preserve" text-anchor="start" x="93.25" y="-177.5" font-family="Helvetica,sans-Serif" font-size="10.00" fill="grey">tail</text>
</g>
<!-- Node4&#45;&gt;Node3 -->
<g id="edge3_Node000003_Node000004" class="edge">
<title>Node4&#45;&gt;Node3</title>
<g id="a_edge3_Node000003_Node000004"><a xlink:title=" ">
<path fill="none" stroke="#9a32cd" stroke-dasharray="5,2" d="M97.44,-290.44C117.42,-269.11 150.79,-233.47 169.73,-213.24"/>
<polygon fill="#9a32cd" stroke="#9a32cd" points="95.1,-287.82 90.82,-297.52 100.21,-292.61 95.1,-287.82"/>
</a>
</g>
<text xml:space="preserve" text-anchor="start" x="144.73" y="-261.5" font-family="Helvetica,sans-Serif" font-size="10.00" fill="grey">freelist</text>
<text xml:space="preserve" text-anchor="start" x="144.73" y="-245.5" font-family="Helvetica,sans-Serif" font-size="10.00" fill="grey">pool</text>
</g>
<!-- Node4&#45;&gt;Node4 -->
<g id="edge4_Node000004_Node000004" class="edge">
<title>Node4&#45;&gt;Node4</title>
<g id="a_edge4_Node000004_Node000004"><a xlink:title=" ">
<path fill="none" stroke="#9a32cd" stroke-dasharray="5,2" d="M156.41,-315.47C160.47,-313.89 162.88,-311.73 162.88,-309 162.88,-304.28 155.67,-301.27 145.19,-299.98"/>
<polygon fill="#9a32cd" stroke="#9a32cd" points="155.64,-312.06 146.67,-317.69 157.19,-318.88 155.64,-312.06"/>
</a>
</g>
<text xml:space="preserve" text-anchor="start" x="165.88" y="-313.5" font-family="Helvetica,sans-Serif" font-size="10.00" fill="grey">knext</text>
<text xml:space="preserve" text-anchor="start" x="165.88" y="-297.5" font-family="Helvetica,sans-Serif" font-size="10.00" fill="grey">next</text>
</g>
</g>
</svg>
