<?xml version="1.0" encoding="UTF-8" standalone="no"?>
<!DOCTYPE svg PUBLIC "-//W3C//DTD SVG 1.1//EN"
 "http://www.w3.org/Graphics/SVG/1.1/DTD/svg11.dtd">
<!-- Generated by graphviz version 14.0.5 (0)
 -->
<!-- Title: mrb_pool Pages: 1 -->
<svg width="968pt" height="1080pt"
 viewBox="0.00 0.00 968.00 1080.00" xmlns="http://www.w3.org/2000/svg" xmlns:xlink="http://www.w3.org/1999/xlink">
<g id="graph0" class="graph" transform="scale(1 1) rotate(0) translate(4 1076)">
<title>mrb_pool</title>
<!-- Node1 -->
<g id="Node000001" class="node">
<title>Node1</title>
<g id="a_Node000001"><a xlink:title=" ">
<polygon fill="#999999" stroke="#666666" points="676.38,-20 620.62,-20 620.62,0 676.38,0 676.38,-20"/>
<text xml:space="preserve" text-anchor="middle" x="648.5" y="-6.5" font-family="Helvetica,sans-Serif" font-size="10.00">mrb_pool</text>
</a>
</g>
</g>
<!-- Node2 -->
<g id="Node000002" class="node">
<title>Node2</title>
<g id="a_Node000002"><a xlink:href="structmrb__state.html" target="_top" xlink:title=" ">
<polygon fill="white" stroke="#bfbfbf" points="610.25,-94 550.75,-94 550.75,-74 610.25,-74 610.25,-94"/>
<text xml:space="preserve" text-anchor="middle" x="580.5" y="-80.5" font-family="Helvetica,sans-Serif" font-size="10.00">mrb_state</text>
</a>
</g>
</g>
<!-- Node2&#45;&gt;Node1 -->
<g id="edge1_Node000001_Node000002" class="edge">
<title>Node2&#45;&gt;Node1</title>
<g id="a_edge1_Node000001_Node000002"><a xlink:title=" ">
<path fill="none" stroke="#9a32cd" stroke-dasharray="5,2" d="M597.03,-65.5C610.53,-51.21 629.07,-31.57 639.82,-20.19"/>
<polygon fill="#9a32cd" stroke="#9a32cd" points="594.75,-62.81 590.43,-72.49 599.84,-67.62 594.75,-62.81"/>
</a>
</g>
<text xml:space="preserve" text-anchor="start" x="625.59" y="-43.5" font-family="Helvetica,sans-Serif" font-size="10.00" fill="grey">mrb</text>
</g>
<!-- Node2&#45;&gt;Node2 -->
<g id="edge3_Node000002_Node000002" class="edge">
<title>Node2&#45;&gt;Node2</title>
<g id="a_edge3_Node000002_Node000002"><a xlink:title=" ">
<path fill="none" stroke="#9a32cd" stroke-dasharray="5,2" d="M621.76,-89.61C625.73,-88.47 628.25,-86.6 628.25,-84 628.25,-79.38 620.29,-77.06 610.34,-77.06"/>
<polygon fill="#9a32cd" stroke="#9a32cd" points="621.38,-86.13 611.85,-90.76 622.18,-93.08 621.38,-86.13"/>
</a>
</g>
<text xml:space="preserve" text-anchor="start" x="631.25" y="-80.5" font-family="Helvetica,sans-Serif" font-size="10.00" fill="grey">allocf</text>
</g>
<!-- Node3 -->
<g id="Node000003" class="node">
<title>Node3</title>
<g id="a_Node000003"><a xlink:href="structmrb__jmpbuf.html" target="_top" xlink:title=" ">
<polygon fill="white" stroke="#bfbfbf" points="192,-247 125,-247 125,-227 192,-227 192,-247"/>
<text xml:space="preserve" text-anchor="middle" x="158.5" y="-233.5" font-family="Helvetica,sans-Serif" font-size="10.00">mrb_jmpbuf</text>
</a>
</g>
</g>
<!-- Node3&#45;&gt;Node2 -->
<g id="edge2_Node000002_Node000003" class="edge">
<title>Node3&#45;&gt;Node2</title>
<g id="a_edge2_Node000002_Node000003"><a xlink:title=" ">
<path fill="none" stroke="#9a32cd" stroke-dasharray="5,2" d="M164.76,-215.76C171.46,-196.61 183.61,-167.91 201.5,-148 221.59,-125.64 230.24,-121.53 258.75,-112 312.38,-94.08 481.31,-87.63 550.5,-85.71"/>
<polygon fill="#9a32cd" stroke="#9a32cd" points="161.49,-214.5 161.68,-225.1 168.14,-216.69 161.49,-214.5"/>
</a>
</g>
<text xml:space="preserve" text-anchor="start" x="261.75" y="-117.5" font-family="Helvetica,sans-Serif" font-size="10.00" fill="grey">jmp</text>
</g>
<!-- Node4 -->
<g id="Node000004" class="node">
<title>Node4</title>
<g id="a_Node000004"><a xlink:href="structmrb__context.html" target="_top" xlink:title=" ">
<polygon fill="white" stroke="#bfbfbf" points="419.5,-908 349.5,-908 349.5,-888 419.5,-888 419.5,-908"/>
<text xml:space="preserve" text-anchor="middle" x="384.5" y="-894.5" font-family="Helvetica,sans-Serif" font-size="10.00">mrb_context</text>
</a>
</g>
</g>
<!-- Node4&#45;&gt;Node2 -->
<g id="edge4_Node000002_Node000004" class="edge">
<title>Node4&#45;&gt;Node2</title>
<g id="a_edge4_Node000002_Node000004"><a xlink:title=" ">
<path fill="none" stroke="#9a32cd" stroke-dasharray="5,2" d="M358,-880.76C354.63,-877.6 351.63,-874 349.5,-870 302.73,-781.9 335.5,-745.75 335.5,-646 335.5,-646 335.5,-646 335.5,-236 335.5,-136.07 485.04,-100.12 550.46,-89.17"/>
<polygon fill="#9a32cd" stroke="#9a32cd" points="355.62,-883.33 365.64,-886.77 359.95,-877.83 355.62,-883.33"/>
</a>
</g>
<text xml:space="preserve" text-anchor="start" x="338.5" y="-589.5" font-family="Helvetica,sans-Serif" font-size="10.00" fill="grey">c</text>
<text xml:space="preserve" text-anchor="start" x="338.5" y="-573.5" font-family="Helvetica,sans-Serif" font-size="10.00" fill="grey">root_c</text>
</g>
<!-- Node4&#45;&gt;Node4 -->
<g id="edge5_Node000004_Node000004" class="edge">
<title>Node4&#45;&gt;Node4</title>
<g id="a_edge5_Node000004_Node000004"><a xlink:title=" ">
<path fill="none" stroke="#9a32cd" stroke-dasharray="5,2" d="M430.77,-904.67C434.91,-903.27 437.5,-901.05 437.5,-898 437.5,-892.73 429.74,-889.93 419.67,-889.6"/>
<polygon fill="#9a32cd" stroke="#9a32cd" points="430.5,-901.17 421.16,-906.17 431.58,-908.08 430.5,-901.17"/>
</a>
</g>
<text xml:space="preserve" text-anchor="start" x="440.5" y="-894.5" font-family="Helvetica,sans-Serif" font-size="10.00" fill="grey">prev</text>
</g>
<!-- Node19 -->
<g id="Node000019" class="node">
<title>Node19</title>
<g id="a_Node000019"><a xlink:href="structREnv.html" target="_top" xlink:title=" ">
<polygon fill="white" stroke="#666666" points="512.88,-818 472.12,-818 472.12,-798 512.88,-798 512.88,-818"/>
<text xml:space="preserve" text-anchor="middle" x="492.5" y="-804.5" font-family="Helvetica,sans-Serif" font-size="10.00">REnv</text>
</a>
</g>
</g>
<!-- Node4&#45;&gt;Node19 -->
<g id="edge29_Node000019_Node000004" class="edge">
<title>Node4&#45;&gt;Node19</title>
<g id="a_edge29_Node000019_Node000004"><a xlink:title=" ">
<path fill="none" stroke="#9a32cd" stroke-dasharray="5,2" d="M421.83,-882.79C428.77,-879.21 435.67,-874.95 441.5,-870 455.5,-858.11 453.17,-850.05 465,-836 470.26,-829.76 476.75,-823.33 482.1,-818.32"/>
<polygon fill="#9a32cd" stroke="#9a32cd" points="420.67,-879.47 413.11,-886.9 423.65,-885.8 420.67,-879.47"/>
</a>
</g>
<text xml:space="preserve" text-anchor="start" x="468" y="-849.5" font-family="Helvetica,sans-Serif" font-size="10.00" fill="grey">cxt</text>
</g>
<!-- Node20 -->
<g id="Node000020" class="node">
<title>Node20</title>
<g id="a_Node000020"><a xlink:href="structRFiber.html" target="_top" xlink:title=" ">
<polygon fill="white" stroke="#bfbfbf" points="402.12,-818 356.88,-818 356.88,-798 402.12,-798 402.12,-818"/>
<text xml:space="preserve" text-anchor="middle" x="379.5" y="-804.5" font-family="Helvetica,sans-Serif" font-size="10.00">RFiber</text>
</a>
</g>
</g>
<!-- Node4&#45;&gt;Node20 -->
<g id="edge34_Node000020_Node000004" class="edge">
<title>Node4&#45;&gt;Node20</title>
<g id="a_edge34_Node000020_Node000004"><a xlink:title=" ">
<path fill="none" stroke="#9a32cd" stroke-dasharray="5,2" d="M363.7,-879.42C361.39,-876.52 359.37,-873.36 358,-870 352.28,-856.01 353.01,-850.26 358,-836 360.37,-829.21 365.24,-822.86 369.75,-818.02"/>
<polygon fill="#9a32cd" stroke="#9a32cd" points="361.18,-881.85 370.65,-886.6 366.21,-876.98 361.18,-881.85"/>
</a>
</g>
<text xml:space="preserve" text-anchor="start" x="361" y="-849.5" font-family="Helvetica,sans-Serif" font-size="10.00" fill="grey">cxt</text>
</g>
<!-- Node5 -->
<g id="Node000005" class="node">
<title>Node5</title>
<g id="a_Node000005"><a xlink:href="structmrb__value.html" target="_top" xlink:title=" ">
<polygon fill="white" stroke="#bfbfbf" points="558,-998 497,-998 497,-978 558,-978 558,-998"/>
<text xml:space="preserve" text-anchor="middle" x="527.5" y="-984.5" font-family="Helvetica,sans-Serif" font-size="10.00">mrb_value</text>
</a>
</g>
</g>
<!-- Node5&#45;&gt;Node4 -->
<g id="edge6_Node000004_Node000005" class="edge">
<title>Node5&#45;&gt;Node4</title>
<g id="a_edge6_Node000004_Node000005"><a xlink:title=" ">
<path fill="none" stroke="#9a32cd" stroke-dasharray="5,2" d="M485.87,-976.26C473.59,-972.15 460.45,-966.78 449.25,-960 425.46,-945.61 403.11,-921.3 391.94,-908.13"/>
<polygon fill="#9a32cd" stroke="#9a32cd" points="484.79,-979.59 495.38,-979.23 486.88,-972.91 484.79,-979.59"/>
</a>
</g>
<text xml:space="preserve" text-anchor="start" x="452.25" y="-947.5" font-family="Helvetica,sans-Serif" font-size="10.00" fill="grey">stbase</text>
<text xml:space="preserve" text-anchor="start" x="452.25" y="-931.5" font-family="Helvetica,sans-Serif" font-size="10.00" fill="grey">stend</text>
</g>
<!-- Node7 -->
<g id="Node000007" class="node">
<title>Node7</title>
<g id="a_Node000007"><a xlink:href="structmrb__callinfo.html" target="_top" xlink:title=" ">
<polygon fill="white" stroke="#bfbfbf" points="514.75,-247 446.25,-247 446.25,-227 514.75,-227 514.75,-247"/>
<text xml:space="preserve" text-anchor="middle" x="480.5" y="-233.5" font-family="Helvetica,sans-Serif" font-size="10.00">mrb_callinfo</text>
</a>
</g>
</g>
<!-- Node5&#45;&gt;Node7 -->
<g id="edge30_Node000007_Node000005" class="edge">
<title>Node5&#45;&gt;Node7</title>
<g id="a_edge30_Node000007_Node000005"><a xlink:title=" ">
<path fill="none" stroke="#9a32cd" stroke-dasharray="5,2" d="M485.32,-980.24C417.19,-968.13 290.5,-940.08 290.5,-899 290.5,-899 290.5,-899 290.5,-436 290.5,-339.05 410.56,-271.12 459.8,-247.33"/>
<polygon fill="#9a32cd" stroke="#9a32cd" points="484.57,-983.67 495.03,-981.93 485.77,-976.77 484.57,-983.67"/>
</a>
</g>
<text xml:space="preserve" text-anchor="start" x="293.5" y="-693.5" font-family="Helvetica,sans-Serif" font-size="10.00" fill="grey">stack</text>
</g>
<!-- Node8 -->
<g id="Node000008" class="node">
<title>Node8</title>
<g id="a_Node000008"><a xlink:href="structRProc.html" target="_top" xlink:title=" ">
<polygon fill="white" stroke="#bfbfbf" points="591.38,-744 547.62,-744 547.62,-724 591.38,-724 591.38,-744"/>
<text xml:space="preserve" text-anchor="middle" x="569.5" y="-730.5" font-family="Helvetica,sans-Serif" font-size="10.00">RProc</text>
</a>
</g>
</g>
<!-- Node5&#45;&gt;Node8 -->
<g id="edge17_Node000008_Node000005" class="edge">
<title>Node5&#45;&gt;Node8</title>
<g id="a_edge17_Node000008_Node000005"><a xlink:title=" ">
<path fill="none" stroke="#9a32cd" stroke-dasharray="5,2" d="M531.56,-966.63C534.69,-950.7 539.05,-927.97 542.5,-908 553.27,-845.7 564.36,-770.43 568.14,-744.39"/>
<polygon fill="#9a32cd" stroke="#9a32cd" points="528.15,-965.8 529.65,-976.29 535.02,-967.16 528.15,-965.8"/>
</a>
</g>
<text xml:space="preserve" text-anchor="start" x="557.18" y="-849.5" font-family="Helvetica,sans-Serif" font-size="10.00" fill="grey">func</text>
</g>
<!-- Node16 -->
<g id="Node000016" class="node">
<title>Node16</title>
<g id="a_Node000016"><a xlink:href="structiv__tbl.html" target="_top" xlink:title=" ">
<polygon fill="white" stroke="#bfbfbf" points="820.12,-543 780.88,-543 780.88,-523 820.12,-523 820.12,-543"/>
<text xml:space="preserve" text-anchor="middle" x="800.5" y="-529.5" font-family="Helvetica,sans-Serif" font-size="10.00">iv_tbl</text>
</a>
</g>
</g>
<!-- Node5&#45;&gt;Node16 -->
<g id="edge21_Node000016_Node000005" class="edge">
<title>Node5&#45;&gt;Node16</title>
<g id="a_edge21_Node000016_Node000005"><a xlink:title=" ">
<path fill="none" stroke="#9a32cd" stroke-dasharray="5,2" d="M569.66,-986.68C610.5,-985.12 673.55,-979.38 724.5,-960 770.01,-942.69 815.5,-947.69 815.5,-899 815.5,-899 815.5,-899 815.5,-644 815.5,-606.42 806.8,-562.27 802.65,-543.36"/>
<polygon fill="#9a32cd" stroke="#9a32cd" points="569.65,-983.18 559.76,-986.98 569.86,-990.17 569.65,-983.18"/>
</a>
</g>
<text xml:space="preserve" text-anchor="start" x="818.5" y="-767.5" font-family="Helvetica,sans-Serif" font-size="10.00" fill="grey">ptr</text>
</g>
<!-- Node18 -->
<g id="Node000018" class="node">
<title>Node18</title>
<g id="a_Node000018"><a xlink:href="unionmt__ptr.html" target="_top" xlink:title=" ">
<polygon fill="white" stroke="#bfbfbf" points="683.38,-655 639.62,-655 639.62,-635 683.38,-635 683.38,-655"/>
<text xml:space="preserve" text-anchor="middle" x="661.5" y="-641.5" font-family="Helvetica,sans-Serif" font-size="10.00">mt_ptr</text>
</a>
</g>
</g>
<!-- Node5&#45;&gt;Node18 -->
<g id="edge25_Node000018_Node000005" class="edge">
<title>Node5&#45;&gt;Node18</title>
<g id="a_edge25_Node000018_Node000005"><a xlink:title=" ">
<path fill="none" stroke="#9a32cd" stroke-dasharray="5,2" d="M569.52,-985.86C622.09,-981.91 710.2,-966.36 751.5,-908 812.34,-822.02 703.22,-691.41 670.41,-655.45"/>
<polygon fill="#9a32cd" stroke="#9a32cd" points="569.51,-982.36 559.75,-986.48 569.95,-989.34 569.51,-982.36"/>
</a>
</g>
<text xml:space="preserve" text-anchor="start" x="769.02" y="-804.5" font-family="Helvetica,sans-Serif" font-size="10.00" fill="grey">func</text>
</g>
<!-- Node5&#45;&gt;Node19 -->
<g id="edge28_Node000019_Node000005" class="edge">
<title>Node5&#45;&gt;Node19</title>
<g id="a_edge28_Node000019_Node000005"><a xlink:title=" ">
<path fill="none" stroke="#9a32cd" stroke-dasharray="5,2" d="M523.51,-966.68C515.93,-928.17 499.75,-845.9 494.32,-818.27"/>
<polygon fill="#9a32cd" stroke="#9a32cd" points="520.06,-967.31 525.42,-976.44 526.93,-965.96 520.06,-967.31"/>
</a>
</g>
<text xml:space="preserve" text-anchor="start" x="514.75" y="-894.5" font-family="Helvetica,sans-Serif" font-size="10.00" fill="grey">stack</text>
</g>
<!-- Node6 -->
<g id="Node000006" class="node">
<title>Node6</title>
<g id="a_Node000006"><a xlink:href="unionmrb__value__union.html" target="_top" xlink:title=" ">
<polygon fill="white" stroke="#bfbfbf" points="572.25,-1072 482.75,-1072 482.75,-1052 572.25,-1052 572.25,-1072"/>
<text xml:space="preserve" text-anchor="middle" x="527.5" y="-1058.5" font-family="Helvetica,sans-Serif" font-size="10.00">mrb_value_union</text>
</a>
</g>
</g>
<!-- Node6&#45;&gt;Node5 -->
<g id="edge7_Node000005_Node000006" class="edge">
<title>Node6&#45;&gt;Node5</title>
<g id="a_edge7_Node000005_Node000006"><a xlink:title=" ">
<path fill="none" stroke="#9a32cd" stroke-dasharray="5,2" d="M527.5,-1040.18C527.5,-1026.29 527.5,-1008.71 527.5,-998.19"/>
<polygon fill="#9a32cd" stroke="#9a32cd" points="524,-1040.07 527.5,-1050.07 531,-1040.07 524,-1040.07"/>
</a>
</g>
<text xml:space="preserve" text-anchor="start" x="530.5" y="-1021.5" font-family="Helvetica,sans-Serif" font-size="10.00" fill="grey">value</text>
</g>
<!-- Node7&#45;&gt;Node4 -->
<g id="edge8_Node000004_Node000007" class="edge">
<title>Node7&#45;&gt;Node4</title>
<g id="a_edge8_Node000004_Node000007"><a xlink:title=" ">
<path fill="none" stroke="#9a32cd" stroke-dasharray="5,2" d="M470.98,-257.38C454.76,-292.23 423.5,-368.19 423.5,-436 423.5,-586 423.5,-586 423.5,-586 423.5,-689.25 422.03,-715.29 411.5,-818 409.12,-841.26 412.24,-848.31 403.5,-870 400.93,-876.38 396.59,-882.71 392.71,-887.64"/>
<polygon fill="#9a32cd" stroke="#9a32cd" points="474.03,-259.1 475.18,-248.57 467.72,-256.09 474.03,-259.1"/>
</a>
</g>
<text xml:space="preserve" text-anchor="start" x="426.42" y="-657.5" font-family="Helvetica,sans-Serif" font-size="10.00" fill="grey">ci</text>
<text xml:space="preserve" text-anchor="start" x="426.42" y="-641.5" font-family="Helvetica,sans-Serif" font-size="10.00" fill="grey">cibase</text>
<text xml:space="preserve" text-anchor="start" x="426.42" y="-625.5" font-family="Helvetica,sans-Serif" font-size="10.00" fill="grey">ciend</text>
</g>
<!-- Node8&#45;&gt;Node7 -->
<g id="edge9_Node000007_Node000008" class="edge">
<title>Node8&#45;&gt;Node7</title>
<g id="a_edge9_Node000007_Node000008"><a xlink:title=" ">
<path fill="none" stroke="#9a32cd" stroke-dasharray="5,2" d="M565.8,-712.4C550.51,-627.4 492.66,-305.63 482.14,-247.15"/>
<polygon fill="#9a32cd" stroke="#9a32cd" points="562.32,-712.84 567.53,-722.06 569.21,-711.6 562.32,-712.84"/>
</a>
</g>
<text xml:space="preserve" text-anchor="start" x="538.89" y="-537.5" font-family="Helvetica,sans-Serif" font-size="10.00" fill="grey">blk</text>
<text xml:space="preserve" text-anchor="start" x="538.89" y="-521.5" font-family="Helvetica,sans-Serif" font-size="10.00" fill="grey">proc</text>
</g>
<!-- Node8&#45;&gt;Node8 -->
<g id="edge18_Node000008_Node000008" class="edge">
<title>Node8&#45;&gt;Node8</title>
<g id="a_edge18_Node000008_Node000008"><a xlink:title=" ">
<path fill="none" stroke="#9a32cd" stroke-dasharray="5,2" d="M602.82,-739.96C606.79,-738.87 609.38,-736.89 609.38,-734 609.38,-728.87 601.2,-726.58 591.64,-727.15"/>
<polygon fill="#9a32cd" stroke="#9a32cd" points="602.84,-736.44 593.15,-740.73 603.4,-743.42 602.84,-736.44"/>
</a>
</g>
<text xml:space="preserve" text-anchor="start" x="612.38" y="-730.5" font-family="Helvetica,sans-Serif" font-size="10.00" fill="grey">upper</text>
</g>
<!-- Node8&#45;&gt;Node18 -->
<g id="edge24_Node000018_Node000008" class="edge">
<title>Node8&#45;&gt;Node18</title>
<g id="a_edge24_Node000018_Node000008"><a xlink:title=" ">
<path fill="none" stroke="#9a32cd" stroke-dasharray="5,2" d="M587.59,-715.89C606.81,-697.72 636.48,-669.66 651.73,-655.24"/>
<polygon fill="#9a32cd" stroke="#9a32cd" points="585.31,-713.24 580.45,-722.65 590.12,-718.32 585.31,-713.24"/>
</a>
</g>
<text xml:space="preserve" text-anchor="start" x="618.5" y="-693.5" font-family="Helvetica,sans-Serif" font-size="10.00" fill="grey">proc</text>
</g>
<!-- Node9 -->
<g id="Node000009" class="node">
<title>Node9</title>
<g id="a_Node000009"><a xlink:href="structmrb__irep.html" target="_top" xlink:title=" ">
<polygon fill="white" stroke="#bfbfbf" points="672.25,-818 618.75,-818 618.75,-798 672.25,-798 672.25,-818"/>
<text xml:space="preserve" text-anchor="middle" x="645.5" y="-804.5" font-family="Helvetica,sans-Serif" font-size="10.00">mrb_irep</text>
</a>
</g>
</g>
<!-- Node9&#45;&gt;Node8 -->
<g id="edge10_Node000008_Node000009" class="edge">
<title>Node9&#45;&gt;Node8</title>
<g id="a_edge10_Node000008_Node000009"><a xlink:title=" ">
<path fill="none" stroke="#9a32cd" stroke-dasharray="5,2" d="M627.45,-789.9C612.33,-775.58 591.33,-755.68 579.2,-744.19"/>
<polygon fill="#9a32cd" stroke="#9a32cd" points="624.8,-792.21 634.47,-796.55 629.61,-787.13 624.8,-792.21"/>
</a>
</g>
<text xml:space="preserve" text-anchor="start" x="619.54" y="-767.5" font-family="Helvetica,sans-Serif" font-size="10.00" fill="grey">irep</text>
</g>
<!-- Node9&#45;&gt;Node9 -->
<g id="edge13_Node000009_Node000009" class="edge">
<title>Node9&#45;&gt;Node9</title>
<g id="a_edge13_Node000009_Node000009"><a xlink:title=" ">
<path fill="none" stroke="#9a32cd" stroke-dasharray="5,2" d="M683.81,-813.71C687.74,-812.59 690.25,-810.68 690.25,-808 690.25,-803.23 682.32,-800.92 672.59,-801.07"/>
<polygon fill="#9a32cd" stroke="#9a32cd" points="683.66,-810.21 674.09,-814.77 684.41,-817.17 683.66,-810.21"/>
</a>
</g>
<text xml:space="preserve" text-anchor="start" x="693.25" y="-804.5" font-family="Helvetica,sans-Serif" font-size="10.00" fill="grey">reps</text>
</g>
<!-- Node10 -->
<g id="Node000010" class="node">
<title>Node10</title>
<g id="a_Node000010"><a xlink:href="structmrb__pool__value.html" target="_top" xlink:title=" ">
<polygon fill="white" stroke="#bfbfbf" points="668.62,-908 584.38,-908 584.38,-888 668.62,-888 668.62,-908"/>
<text xml:space="preserve" text-anchor="middle" x="626.5" y="-894.5" font-family="Helvetica,sans-Serif" font-size="10.00">mrb_pool_value</text>
</a>
</g>
</g>
<!-- Node10&#45;&gt;Node9 -->
<g id="edge11_Node000009_Node000010" class="edge">
<title>Node10&#45;&gt;Node9</title>
<g id="a_edge11_Node000009_Node000010"><a xlink:title=" ">
<path fill="none" stroke="#9a32cd" stroke-dasharray="5,2" d="M630.96,-876.35C634.92,-858.02 640.52,-832.07 643.48,-818.35"/>
<polygon fill="#9a32cd" stroke="#9a32cd" points="627.54,-875.59 628.85,-886.1 634.38,-877.07 627.54,-875.59"/>
</a>
</g>
<text xml:space="preserve" text-anchor="start" x="642.35" y="-849.5" font-family="Helvetica,sans-Serif" font-size="10.00" fill="grey">pool</text>
</g>
<!-- Node11 -->
<g id="Node000011" class="node">
<title>Node11</title>
<g id="a_Node000011"><a xlink:href="classmrb__sym.html" target="_top" xlink:title=" ">
<polygon fill="white" stroke="#666666" points="742.75,-908 686.25,-908 686.25,-888 742.75,-888 742.75,-908"/>
<text xml:space="preserve" text-anchor="middle" x="714.5" y="-894.5" font-family="Helvetica,sans-Serif" font-size="10.00">mrb_sym</text>
</a>
</g>
</g>
<!-- Node11&#45;&gt;Node9 -->
<g id="edge12_Node000009_Node000011" class="edge">
<title>Node11&#45;&gt;Node9</title>
<g id="a_edge12_Node000009_Node000011"><a xlink:title=" ">
<path fill="none" stroke="#9a32cd" stroke-dasharray="5,2" d="M700.63,-878.73C691.34,-866.56 678.79,-850.24 667.5,-836 662.84,-830.12 657.54,-823.61 653.3,-818.45"/>
<polygon fill="#9a32cd" stroke="#9a32cd" points="697.81,-880.81 706.65,-886.64 703.38,-876.56 697.81,-880.81"/>
</a>
</g>
<text xml:space="preserve" text-anchor="start" x="696.23" y="-857.5" font-family="Helvetica,sans-Serif" font-size="10.00" fill="grey">lv</text>
<text xml:space="preserve" text-anchor="start" x="696.23" y="-841.5" font-family="Helvetica,sans-Serif" font-size="10.00" fill="grey">syms</text>
</g>
<!-- Node12 -->
<g id="Node000012" class="node">
<title>Node12</title>
<g id="a_Node000012"><a xlink:href="structmrb__irep__debug__info.html" target="_top" xlink:title=" ">
<polygon fill="white" stroke="#bfbfbf" points="949.5,-908 843.5,-908 843.5,-888 949.5,-888 949.5,-908"/>
<text xml:space="preserve" text-anchor="middle" x="896.5" y="-894.5" font-family="Helvetica,sans-Serif" font-size="10.00">mrb_irep_debug_info</text>
</a>
</g>
</g>
<!-- Node12&#45;&gt;Node9 -->
<g id="edge14_Node000009_Node000012" class="edge">
<title>Node12&#45;&gt;Node9</title>
<g id="a_edge14_Node000009_Node000012"><a xlink:title=" ">
<path fill="none" stroke="#9a32cd" stroke-dasharray="5,2" d="M860.71,-883.75C826.57,-871.19 773.66,-851.93 727.5,-836 709.22,-829.69 688.54,-822.89 672.53,-817.69"/>
<polygon fill="#9a32cd" stroke="#9a32cd" points="859.08,-886.88 869.68,-887.05 861.5,-880.31 859.08,-886.88"/>
</a>
</g>
<text xml:space="preserve" text-anchor="start" x="822.6" y="-849.5" font-family="Helvetica,sans-Serif" font-size="10.00" fill="grey">debug_info</text>
</g>
<!-- Node13 -->
<g id="Node000013" class="node">
<title>Node13</title>
<g id="a_Node000013"><a xlink:href="structmrb__irep__debug__info__file.html" target="_top" xlink:title=" ">
<polygon fill="white" stroke="#bfbfbf" points="958.5,-998 834.5,-998 834.5,-978 958.5,-978 958.5,-998"/>
<text xml:space="preserve" text-anchor="middle" x="896.5" y="-984.5" font-family="Helvetica,sans-Serif" font-size="10.00">mrb_irep_debug_info_file</text>
</a>
</g>
</g>
<!-- Node13&#45;&gt;Node12 -->
<g id="edge15_Node000012_Node000013" class="edge">
<title>Node13&#45;&gt;Node12</title>
<g id="a_edge15_Node000012_Node000013"><a xlink:title=" ">
<path fill="none" stroke="#9a32cd" stroke-dasharray="5,2" d="M896.5,-966.09C896.5,-947.77 896.5,-922.01 896.5,-908.35"/>
<polygon fill="#9a32cd" stroke="#9a32cd" points="893,-966.07 896.5,-976.07 900,-966.07 893,-966.07"/>
</a>
</g>
<text xml:space="preserve" text-anchor="start" x="899.5" y="-939.5" font-family="Helvetica,sans-Serif" font-size="10.00" fill="grey">files</text>
</g>
<!-- Node14 -->
<g id="Node000014" class="node">
<title>Node14</title>
<g id="a_Node000014"><a xlink:href="structmrb__irep__debug__info__line.html" target="_top" xlink:title=" ">
<polygon fill="white" stroke="#bfbfbf" points="959.62,-1072 833.38,-1072 833.38,-1052 959.62,-1052 959.62,-1072"/>
<text xml:space="preserve" text-anchor="middle" x="896.5" y="-1058.5" font-family="Helvetica,sans-Serif" font-size="10.00">mrb_irep_debug_info_line</text>
</a>
</g>
</g>
<!-- Node14&#45;&gt;Node13 -->
<g id="edge16_Node000013_Node000014" class="edge">
<title>Node14&#45;&gt;Node13</title>
<g id="a_edge16_Node000013_Node000014"><a xlink:title=" ">
<path fill="none" stroke="#9a32cd" stroke-dasharray="5,2" d="M896.5,-1040.18C896.5,-1026.29 896.5,-1008.71 896.5,-998.19"/>
<polygon fill="#9a32cd" stroke="#9a32cd" points="893,-1040.07 896.5,-1050.07 900,-1040.07 893,-1040.07"/>
</a>
</g>
<text xml:space="preserve" text-anchor="start" x="899.5" y="-1021.5" font-family="Helvetica,sans-Serif" font-size="10.00" fill="grey">flat_map</text>
</g>
<!-- Node15 -->
<g id="Node000015" class="node">
<title>Node15</title>
<g id="a_Node000015"><a xlink:href="structRClass.html" target="_top" xlink:title=" ">
<polygon fill="white" stroke="#666666" points="670,-447 621,-447 621,-427 670,-427 670,-447"/>
<text xml:space="preserve" text-anchor="middle" x="645.5" y="-433.5" font-family="Helvetica,sans-Serif" font-size="10.00">RClass</text>
</a>
</g>
</g>
<!-- Node15&#45;&gt;Node2 -->
<g id="edge38_Node000002_Node000015" class="edge">
<title>Node15&#45;&gt;Node2</title>
<g id="a_edge38_Node000002_Node000015"><a xlink:title=" ">
<path fill="none" stroke="#9a32cd" stroke-dasharray="5,2" d="M647.87,-415.31C652.7,-367.3 661.09,-245.03 634.5,-148 629.77,-130.75 627.96,-125.73 616.5,-112 610.79,-105.16 603.03,-99.06 596.17,-94.39"/>
<polygon fill="#9a32cd" stroke="#9a32cd" points="644.41,-414.74 646.82,-425.06 651.37,-415.49 644.41,-414.74"/>
</a>
</g>
<text xml:space="preserve" text-anchor="start" x="656.04" y="-313.5" font-family="Helvetica,sans-Serif" font-size="10.00" fill="grey">array_class</text>
<text xml:space="preserve" text-anchor="start" x="656.04" y="-297.5" font-family="Helvetica,sans-Serif" font-size="10.00" fill="grey">class_class</text>
<text xml:space="preserve" text-anchor="start" x="656.04" y="-281.5" font-family="Helvetica,sans-Serif" font-size="10.00" fill="grey">eException_class</text>
<text xml:space="preserve" text-anchor="start" x="656.04" y="-265.5" font-family="Helvetica,sans-Serif" font-size="10.00" fill="grey">eStandardError_class</text>
<text xml:space="preserve" text-anchor="start" x="656.04" y="-249.5" font-family="Helvetica,sans-Serif" font-size="10.00" fill="grey">false_class</text>
<text xml:space="preserve" text-anchor="start" x="656.04" y="-233.5" font-family="Helvetica,sans-Serif" font-size="10.00" fill="grey">float_class</text>
<text xml:space="preserve" text-anchor="start" x="656.04" y="-217.5" font-family="Helvetica,sans-Serif" font-size="10.00" fill="grey">hash_class</text>
<text xml:space="preserve" text-anchor="start" x="656.04" y="-201.5" font-family="Helvetica,sans-Serif" font-size="10.00" fill="grey">integer_class</text>
<text xml:space="preserve" text-anchor="start" x="656.04" y="-185.5" font-family="Helvetica,sans-Serif" font-size="10.00" fill="grey">kernel_module</text>
<text xml:space="preserve" text-anchor="start" x="656.04" y="-169.5" font-family="Helvetica,sans-Serif" font-size="10.00" fill="grey">module_class</text>
<text xml:space="preserve" text-anchor="start" x="656.04" y="-153.5" font-family="Helvetica,sans-Serif" font-size="10.00" fill="grey"> &#160;...</text>
</g>
<!-- Node15&#45;&gt;Node7 -->
<g id="edge32_Node000007_Node000015" class="edge">
<title>Node15&#45;&gt;Node7</title>
<g id="a_edge32_Node000007_Node000015"><a xlink:title=" ">
<path fill="none" stroke="#9a32cd" stroke-dasharray="5,2" d="M609.94,-426.39C591.17,-419.83 568.85,-409.46 553.25,-394 541.79,-382.64 497.88,-279.39 484.43,-247.4"/>
<polygon fill="#9a32cd" stroke="#9a32cd" points="608.76,-429.69 619.35,-429.45 610.92,-423.03 608.76,-429.69"/>
</a>
</g>
<text xml:space="preserve" text-anchor="start" x="556.25" y="-365.5" font-family="Helvetica,sans-Serif" font-size="10.00" fill="grey">target_class</text>
</g>
<!-- Node15&#45;&gt;Node8 -->
<g id="edge19_Node000008_Node000015" class="edge">
<title>Node15&#45;&gt;Node8</title>
<g id="a_edge19_Node000008_Node000015"><a xlink:title=" ">
<path fill="none" stroke="#9a32cd" stroke-dasharray="5,2" d="M635.96,-457.47C624.11,-482.46 604.15,-527.44 593.25,-568 577.7,-625.85 571.77,-698.03 570.07,-723.54"/>
<polygon fill="#9a32cd" stroke="#9a32cd" points="639.06,-459.09 640.25,-448.56 632.76,-456.05 639.06,-459.09"/>
</a>
</g>
<text xml:space="preserve" text-anchor="start" x="596.25" y="-581.5" font-family="Helvetica,sans-Serif" font-size="10.00" fill="grey">target_class</text>
</g>
<!-- Node15&#45;&gt;Node15 -->
<g id="edge26_Node000015_Node000015" class="edge">
<title>Node15&#45;&gt;Node15</title>
<g id="a_edge26_Node000015_Node000015"><a xlink:title=" ">
<path fill="none" stroke="#9a32cd" stroke-dasharray="5,2" d="M681.54,-445.17C685.47,-443.61 688,-440.88 688,-437 688,-430.09 680,-426.86 670.38,-427.29"/>
<polygon fill="#9a32cd" stroke="#9a32cd" points="681.31,-441.67 671.88,-446.5 682.27,-448.6 681.31,-441.67"/>
</a>
</g>
<text xml:space="preserve" text-anchor="start" x="691" y="-433.5" font-family="Helvetica,sans-Serif" font-size="10.00" fill="grey">super</text>
</g>
<!-- Node25 -->
<g id="Node000025" class="node">
<title>Node25</title>
<g id="a_Node000025"><a xlink:href="structmrb__cache__entry.html" target="_top" xlink:title=" ">
<polygon fill="white" stroke="#bfbfbf" points="626,-247 535,-247 535,-227 626,-227 626,-247"/>
<text xml:space="preserve" text-anchor="middle" x="580.5" y="-233.5" font-family="Helvetica,sans-Serif" font-size="10.00">mrb_cache_entry</text>
</a>
</g>
</g>
<!-- Node15&#45;&gt;Node25 -->
<g id="edge45_Node000025_Node000015" class="edge">
<title>Node15&#45;&gt;Node25</title>
<g id="a_edge45_Node000025_Node000015"><a xlink:title=" ">
<path fill="none" stroke="#9a32cd" stroke-dasharray="5,2" d="M638.92,-415.97C625.13,-373.95 593.63,-278 583.62,-247.49"/>
<polygon fill="#9a32cd" stroke="#9a32cd" points="635.54,-416.87 641.98,-425.28 642.19,-414.68 635.54,-416.87"/>
</a>
</g>
<text xml:space="preserve" text-anchor="start" x="634.46" y="-373.5" font-family="Helvetica,sans-Serif" font-size="10.00" fill="grey">c</text>
<text xml:space="preserve" text-anchor="start" x="634.46" y="-357.5" font-family="Helvetica,sans-Serif" font-size="10.00" fill="grey">c0</text>
</g>
<!-- Node16&#45;&gt;Node2 -->
<g id="edge35_Node000002_Node000016" class="edge">
<title>Node16&#45;&gt;Node2</title>
<g id="a_edge35_Node000002_Node000016"><a xlink:title=" ">
<path fill="none" stroke="#9a32cd" stroke-dasharray="5,2" d="M798.45,-511.53C790.55,-433.03 762.23,-155.22 756.5,-148 720.9,-103.12 650.73,-90.18 610.58,-86.47"/>
<polygon fill="#9a32cd" stroke="#9a32cd" points="794.94,-511.6 799.42,-521.2 801.9,-510.9 794.94,-511.6"/>
</a>
</g>
<text xml:space="preserve" text-anchor="start" x="789.05" y="-365.5" font-family="Helvetica,sans-Serif" font-size="10.00" fill="grey">globals</text>
</g>
<!-- Node16&#45;&gt;Node15 -->
<g id="edge20_Node000015_Node000016" class="edge">
<title>Node16&#45;&gt;Node15</title>
<g id="a_edge20_Node000015_Node000016"><a xlink:title=" ">
<path fill="none" stroke="#9a32cd" stroke-dasharray="5,2" d="M775.43,-516.79C743.03,-497.15 687.63,-463.55 660.87,-447.32"/>
<polygon fill="#9a32cd" stroke="#9a32cd" points="773.41,-519.67 783.78,-521.86 777.04,-513.68 773.41,-519.67"/>
</a>
</g>
<text xml:space="preserve" text-anchor="start" x="744.44" y="-485.5" font-family="Helvetica,sans-Serif" font-size="10.00" fill="grey">iv</text>
</g>
<!-- Node21 -->
<g id="Node000021" class="node">
<title>Node21</title>
<g id="a_Node000021"><a xlink:href="structRObject.html" target="_top" xlink:title=" ">
<polygon fill="white" stroke="#bfbfbf" points="884.5,-379 832.5,-379 832.5,-359 884.5,-359 884.5,-379"/>
<text xml:space="preserve" text-anchor="middle" x="858.5" y="-365.5" font-family="Helvetica,sans-Serif" font-size="10.00">RObject</text>
</a>
</g>
</g>
<!-- Node16&#45;&gt;Node21 -->
<g id="edge37_Node000021_Node000016" class="edge">
<title>Node16&#45;&gt;Node21</title>
<g id="a_edge37_Node000021_Node000016"><a xlink:title=" ">
<path fill="none" stroke="#9a32cd" stroke-dasharray="5,2" d="M807.64,-512.05C820.23,-476.91 845.89,-405.23 855.11,-379.48"/>
<polygon fill="#9a32cd" stroke="#9a32cd" points="804.37,-510.81 804.29,-521.4 810.96,-513.17 804.37,-510.81"/>
</a>
</g>
<text xml:space="preserve" text-anchor="start" x="821.56" y="-485.5" font-family="Helvetica,sans-Serif" font-size="10.00" fill="grey">iv</text>
</g>
<!-- Node17 -->
<g id="Node000017" class="node">
<title>Node17</title>
<g id="a_Node000017"><a xlink:href="structmt__tbl.html" target="_top" xlink:title=" ">
<polygon fill="white" stroke="#bfbfbf" points="675,-543 632,-543 632,-523 675,-523 675,-543"/>
<text xml:space="preserve" text-anchor="middle" x="653.5" y="-529.5" font-family="Helvetica,sans-Serif" font-size="10.00">mt_tbl</text>
</a>
</g>
</g>
<!-- Node17&#45;&gt;Node15 -->
<g id="edge22_Node000015_Node000017" class="edge">
<title>Node17&#45;&gt;Node15</title>
<g id="a_edge22_Node000015_Node000017"><a xlink:title=" ">
<path fill="none" stroke="#9a32cd" stroke-dasharray="5,2" d="M651.75,-511.4C650.05,-491.46 647.55,-462.14 646.29,-447.32"/>
<polygon fill="#9a32cd" stroke="#9a32cd" points="648.24,-511.47 652.58,-521.14 655.21,-510.87 648.24,-511.47"/>
</a>
</g>
<text xml:space="preserve" text-anchor="start" x="653.45" y="-485.5" font-family="Helvetica,sans-Serif" font-size="10.00" fill="grey">mt</text>
</g>
<!-- Node18&#45;&gt;Node17 -->
<g id="edge23_Node000017_Node000018" class="edge">
<title>Node18&#45;&gt;Node17</title>
<g id="a_edge23_Node000017_Node000018"><a xlink:title=" ">
<path fill="none" stroke="#9a32cd" stroke-dasharray="5,2" d="M660,-623.31C658.25,-599.36 655.46,-560.95 654.18,-543.35"/>
<polygon fill="#9a32cd" stroke="#9a32cd" points="656.49,-623.39 660.71,-633.11 663.47,-622.88 656.49,-623.39"/>
</a>
</g>
<text xml:space="preserve" text-anchor="start" x="661.22" y="-581.5" font-family="Helvetica,sans-Serif" font-size="10.00" fill="grey">ptr</text>
</g>
<!-- Node19&#45;&gt;Node7 -->
<g id="edge31_Node000007_Node000019" class="edge">
<title>Node19&#45;&gt;Node7</title>
<g id="a_edge31_Node000007_Node000019"><a xlink:title=" ">
<path fill="none" stroke="#9a32cd" stroke-dasharray="5,2" d="M492.06,-786.12C490.08,-692.34 482.06,-311.8 480.7,-247.31"/>
<polygon fill="#9a32cd" stroke="#9a32cd" points="488.56,-786.16 492.27,-796.09 495.56,-786.01 488.56,-786.16"/>
</a>
</g>
<text xml:space="preserve" text-anchor="start" x="491.11" y="-581.5" font-family="Helvetica,sans-Serif" font-size="10.00" fill="grey">env</text>
</g>
<!-- Node19&#45;&gt;Node8 -->
<g id="edge27_Node000008_Node000019" class="edge">
<title>Node19&#45;&gt;Node8</title>
<g id="a_edge27_Node000008_Node000019"><a xlink:title=" ">
<path fill="none" stroke="#9a32cd" stroke-dasharray="5,2" d="M501.72,-787.79C506.53,-779.17 513.03,-769.31 520.75,-762 528.48,-754.68 538.57,-748.67 547.56,-744.19"/>
<polygon fill="#9a32cd" stroke="#9a32cd" points="498.74,-785.94 497.26,-796.43 504.96,-789.15 498.74,-785.94"/>
</a>
</g>
<text xml:space="preserve" text-anchor="start" x="523.75" y="-767.5" font-family="Helvetica,sans-Serif" font-size="10.00" fill="grey">env</text>
</g>
<!-- Node20&#45;&gt;Node4 -->
<g id="edge33_Node000004_Node000020" class="edge">
<title>Node20&#45;&gt;Node4</title>
<g id="a_edge33_Node000004_Node000020"><a xlink:title=" ">
<path fill="none" stroke="#9a32cd" stroke-dasharray="5,2" d="M380.68,-829.82C381.72,-848.12 383.19,-873.89 383.96,-887.58"/>
<polygon fill="#9a32cd" stroke="#9a32cd" points="384.18,-829.65 380.12,-819.86 377.19,-830.04 384.18,-829.65"/>
</a>
</g>
<text xml:space="preserve" text-anchor="start" x="385.88" y="-849.5" font-family="Helvetica,sans-Serif" font-size="10.00" fill="grey">fib</text>
</g>
<!-- Node21&#45;&gt;Node2 -->
<g id="edge36_Node000002_Node000021" class="edge">
<title>Node21&#45;&gt;Node2</title>
<g id="a_edge36_Node000002_Node000021"><a xlink:title=" ">
<path fill="none" stroke="#9a32cd" stroke-dasharray="5,2" d="M861.27,-347.54C866.62,-298.6 872.46,-174.23 804.5,-112 800.95,-108.75 670.88,-94.58 610.6,-88.17"/>
<polygon fill="#9a32cd" stroke="#9a32cd" points="857.82,-346.9 860.08,-357.25 864.77,-347.75 857.82,-346.9"/>
</a>
</g>
<text xml:space="preserve" text-anchor="start" x="867.25" y="-257.5" font-family="Helvetica,sans-Serif" font-size="10.00" fill="grey">exc</text>
<text xml:space="preserve" text-anchor="start" x="867.25" y="-241.5" font-family="Helvetica,sans-Serif" font-size="10.00" fill="grey">nomem_err</text>
<text xml:space="preserve" text-anchor="start" x="867.25" y="-225.5" font-family="Helvetica,sans-Serif" font-size="10.00" fill="grey">stack_err</text>
<text xml:space="preserve" text-anchor="start" x="867.25" y="-209.5" font-family="Helvetica,sans-Serif" font-size="10.00" fill="grey">top_self</text>
</g>
<!-- Node22 -->
<g id="Node000022" class="node">
<title>Node22</title>
<g id="a_Node000022"><a xlink:href="structmrb__gc.html" target="_top" xlink:title=" ">
<polygon fill="white" stroke="#bfbfbf" points="258.62,-247 210.38,-247 210.38,-227 258.62,-227 258.62,-247"/>
<text xml:space="preserve" text-anchor="middle" x="234.5" y="-233.5" font-family="Helvetica,sans-Serif" font-size="10.00">mrb_gc</text>
</a>
</g>
</g>
<!-- Node22&#45;&gt;Node2 -->
<g id="edge39_Node000002_Node000022" class="edge">
<title>Node22&#45;&gt;Node2</title>
<g id="a_edge39_Node000002_Node000022"><a xlink:title=" ">
<path fill="none" stroke="#9a32cd" stroke-dasharray="5,2" d="M239.64,-215.86C248.07,-187.4 267.73,-136.2 305,-112 344.91,-86.09 487.89,-84.11 550.63,-84.54"/>
<polygon fill="#9a32cd" stroke="#9a32cd" points="236.3,-214.81 237.02,-225.38 243.05,-216.66 236.3,-214.81"/>
</a>
</g>
<text xml:space="preserve" text-anchor="start" x="308" y="-117.5" font-family="Helvetica,sans-Serif" font-size="10.00" fill="grey">gc</text>
</g>
<!-- Node23 -->
<g id="Node000023" class="node">
<title>Node23</title>
<g id="a_Node000023"><a xlink:href="structmrb__heap__page.html" target="_top" xlink:title=" ">
<polygon fill="white" stroke="#bfbfbf" points="85,-447 0,-447 0,-427 85,-427 85,-447"/>
<text xml:space="preserve" text-anchor="middle" x="42.5" y="-433.5" font-family="Helvetica,sans-Serif" font-size="10.00">mrb_heap_page</text>
</a>
</g>
</g>
<!-- Node23&#45;&gt;Node22 -->
<g id="edge40_Node000022_Node000023" class="edge">
<title>Node23&#45;&gt;Node22</title>
<g id="a_edge40_Node000022_Node000023"><a xlink:title=" ">
<path fill="none" stroke="#9a32cd" stroke-dasharray="5,2" d="M52.78,-416.86C65.21,-395.62 88.18,-361.98 117.5,-344 149.68,-324.26 171.82,-350.54 200.5,-326 224.64,-305.34 231.72,-265.46 233.73,-247.35"/>
<polygon fill="#9a32cd" stroke="#9a32cd" points="49.84,-414.94 48,-425.37 55.95,-418.36 49.84,-414.94"/>
</a>
</g>
<text xml:space="preserve" text-anchor="start" x="120.5" y="-381.5" font-family="Helvetica,sans-Serif" font-size="10.00" fill="grey">free_heaps</text>
<text xml:space="preserve" text-anchor="start" x="120.5" y="-365.5" font-family="Helvetica,sans-Serif" font-size="10.00" fill="grey">heaps</text>
<text xml:space="preserve" text-anchor="start" x="120.5" y="-349.5" font-family="Helvetica,sans-Serif" font-size="10.00" fill="grey">sweeps</text>
</g>
<!-- Node23&#45;&gt;Node23 -->
<g id="edge42_Node000023_Node000023" class="edge">
<title>Node23&#45;&gt;Node23</title>
<g id="a_edge42_Node000023_Node000023"><a xlink:title=" ">
<path fill="none" stroke="#9a32cd" stroke-dasharray="5,2" d="M96.46,-444.28C100.51,-442.66 103,-440.23 103,-437 103,-431.41 95.55,-428.23 85.46,-427.44"/>
<polygon fill="#9a32cd" stroke="#9a32cd" points="96.03,-440.8 86.94,-446.25 97.44,-447.65 96.03,-440.8"/>
</a>
</g>
<text xml:space="preserve" text-anchor="start" x="106" y="-441.5" font-family="Helvetica,sans-Serif" font-size="10.00" fill="grey">free_next</text>
<text xml:space="preserve" text-anchor="start" x="106" y="-425.5" font-family="Helvetica,sans-Serif" font-size="10.00" fill="grey">next</text>
</g>
<!-- Node24 -->
<g id="Node000024" class="node">
<title>Node24</title>
<g id="a_Node000024"><a xlink:href="structRBasic.html" target="_top" xlink:title=" ">
<polygon fill="white" stroke="#bfbfbf" points="161.62,-543 113.38,-543 113.38,-523 161.62,-523 161.62,-543"/>
<text xml:space="preserve" text-anchor="middle" x="137.5" y="-529.5" font-family="Helvetica,sans-Serif" font-size="10.00">RBasic</text>
</a>
</g>
</g>
<!-- Node24&#45;&gt;Node22 -->
<g id="edge43_Node000022_Node000024" class="edge">
<title>Node24&#45;&gt;Node22</title>
<g id="a_edge43_Node000022_Node000024"><a xlink:title=" ">
<path fill="none" stroke="#9a32cd" stroke-dasharray="5,2" d="M144.13,-511.92C163.23,-454.02 217.91,-288.28 231.44,-247.27"/>
<polygon fill="#9a32cd" stroke="#9a32cd" points="140.9,-510.52 141.09,-521.11 147.55,-512.71 140.9,-510.52"/>
</a>
</g>
<text xml:space="preserve" text-anchor="start" x="179.36" y="-449.5" font-family="Helvetica,sans-Serif" font-size="10.00" fill="grey">arena</text>
<text xml:space="preserve" text-anchor="start" x="179.36" y="-433.5" font-family="Helvetica,sans-Serif" font-size="10.00" fill="grey">atomic_gray_list</text>
<text xml:space="preserve" text-anchor="start" x="179.36" y="-417.5" font-family="Helvetica,sans-Serif" font-size="10.00" fill="grey">gray_list</text>
</g>
<!-- Node24&#45;&gt;Node23 -->
<g id="edge41_Node000023_Node000024" class="edge">
<title>Node24&#45;&gt;Node23</title>
<g id="a_edge41_Node000023_Node000024"><a xlink:title=" ">
<path fill="none" stroke="#9a32cd" stroke-dasharray="5,2" d="M120.02,-514.7C99.95,-494.84 67.75,-462.99 51.92,-447.32"/>
<polygon fill="#9a32cd" stroke="#9a32cd" points="117.4,-517.03 126.97,-521.58 122.32,-512.06 117.4,-517.03"/>
</a>
</g>
<text xml:space="preserve" text-anchor="start" x="104.3" y="-485.5" font-family="Helvetica,sans-Serif" font-size="10.00" fill="grey">freelist</text>
</g>
<!-- Node25&#45;&gt;Node2 -->
<g id="edge44_Node000002_Node000025" class="edge">
<title>Node25&#45;&gt;Node2</title>
<g id="a_edge44_Node000002_Node000025"><a xlink:title=" ">
<path fill="none" stroke="#9a32cd" stroke-dasharray="5,2" d="M580.5,-215.09C580.5,-181.88 580.5,-118.38 580.5,-94.44"/>
<polygon fill="#9a32cd" stroke="#9a32cd" points="577,-215.04 580.5,-225.04 584,-215.04 577,-215.04"/>
</a>
</g>
<text xml:space="preserve" text-anchor="start" x="583.5" y="-117.5" font-family="Helvetica,sans-Serif" font-size="10.00" fill="grey">cache</text>
</g>
<!-- Node26 -->
<g id="Node000026" class="node">
<title>Node26</title>
<g id="a_Node000026"><a xlink:href="structmrb__pool__page.html" target="_top" xlink:title=" ">
<polygon fill="white" stroke="#bfbfbf" points="757.5,-94 675.5,-94 675.5,-74 757.5,-74 757.5,-94"/>
<text xml:space="preserve" text-anchor="middle" x="716.5" y="-80.5" font-family="Helvetica,sans-Serif" font-size="10.00">mrb_pool_page</text>
</a>
</g>
</g>
<!-- Node26&#45;&gt;Node1 -->
<g id="edge46_Node000001_Node000026" class="edge">
<title>Node26&#45;&gt;Node1</title>
<g id="a_edge46_Node000001_Node000026"><a xlink:title=" ">
<path fill="none" stroke="#9a32cd" stroke-dasharray="5,2" d="M699.97,-65.5C686.47,-51.21 667.93,-31.57 657.18,-20.19"/>
<polygon fill="#9a32cd" stroke="#9a32cd" points="697.16,-67.62 706.57,-72.49 702.25,-62.81 697.16,-67.62"/>
</a>
</g>
<text xml:space="preserve" text-anchor="start" x="693.59" y="-43.5" font-family="Helvetica,sans-Serif" font-size="10.00" fill="grey">pages</text>
</g>
<!-- Node26&#45;&gt;Node26 -->
<g id="edge47_Node000026_Node000026" class="edge">
<title>Node26&#45;&gt;Node26</title>
<g id="a_edge47_Node000026_Node000026"><a xlink:title=" ">
<path fill="none" stroke="#9a32cd" stroke-dasharray="5,2" d="M769.23,-89.15C773.12,-87.99 775.5,-86.28 775.5,-84 775.5,-79.95 767.97,-77.68 757.85,-77.17"/>
<polygon fill="#9a32cd" stroke="#9a32cd" points="768.73,-85.68 759.35,-90.61 769.76,-92.61 768.73,-85.68"/>
</a>
</g>
<text xml:space="preserve" text-anchor="start" x="778.5" y="-80.5" font-family="Helvetica,sans-Serif" font-size="10.00" fill="grey">next</text>
</g>
</g>
</svg>
