<?xml version="1.0" encoding="UTF-8" standalone="no"?>
<!DOCTYPE svg PUBLIC "-//W3C//DTD SVG 1.1//EN"
 "http://www.w3.org/Graphics/SVG/1.1/DTD/svg11.dtd">
<!-- Generated by graphviz version 14.0.5 (0)
 -->
<!-- Title: shrpx::DownstreamQueue::HostEntry Pages: 1 -->
<svg width="308pt" height="318pt"
 viewBox="0.00 0.00 308.00 318.00" xmlns="http://www.w3.org/2000/svg" xmlns:xlink="http://www.w3.org/1999/xlink">
<g id="graph0" class="graph" transform="scale(1 1) rotate(0) translate(4 314)">
<title>shrpx::DownstreamQueue::HostEntry</title>
<!-- Node1 -->
<g id="Node000001" class="node">
<title>Node1</title>
<g id="a_Node000001"><a xlink:title=" ">
<polygon fill="#999999" stroke="#666666" points="149.75,-32 19.75,-32 19.75,0 149.75,0 149.75,-32"/>
<text xml:space="preserve" text-anchor="start" x="27.75" y="-18.5" font-family="Helvetica,sans-Serif" font-size="10.00">shrpx::DownstreamQueue</text>
<text xml:space="preserve" text-anchor="middle" x="84.75" y="-6.5" font-family="Helvetica,sans-Serif" font-size="10.00">::HostEntry</text>
</a>
</g>
</g>
<!-- Node2 -->
<g id="Node000002" class="node">
<title>Node2</title>
<g id="a_Node000002"><a xlink:href="classnghttp2_1_1ImmutableString.html" target="_top" xlink:title=" ">
<polygon fill="white" stroke="#bfbfbf" points="125.5,-112 0,-112 0,-92 125.5,-92 125.5,-112"/>
<text xml:space="preserve" text-anchor="middle" x="62.75" y="-98.5" font-family="Helvetica,sans-Serif" font-size="10.00">nghttp2::ImmutableString</text>
</a>
</g>
</g>
<!-- Node2&#45;&gt;Node1 -->
<g id="edge1_Node000001_Node000002" class="edge">
<title>Node2&#45;&gt;Node1</title>
<g id="a_edge1_Node000001_Node000002"><a xlink:title=" ">
<path fill="none" stroke="#9a32cd" stroke-dasharray="5,2" d="M68.09,-80.61C71.99,-65.72 77.19,-45.86 80.74,-32.32"/>
<polygon fill="#9a32cd" stroke="#9a32cd" points="64.72,-79.66 65.57,-90.23 71.49,-81.44 64.72,-79.66"/>
</a>
</g>
<text xml:space="preserve" text-anchor="start" x="78.72" y="-55.5" font-family="Helvetica,sans-Serif" font-size="10.00" fill="grey">key</text>
</g>
<!-- Node3 -->
<g id="Node000003" class="node">
<title>Node3</title>
<g id="a_Node000003"><a xlink:href="structnghttp2_1_1DList.html" target="_top" xlink:title=" ">
<polygon fill="white" stroke="#bfbfbf" points="254,-118 143.5,-118 143.5,-86 254,-86 254,-118"/>
<text xml:space="preserve" text-anchor="start" x="151.5" y="-104.5" font-family="Helvetica,sans-Serif" font-size="10.00">nghttp2::DList&lt; shrpx</text>
<text xml:space="preserve" text-anchor="middle" x="198.75" y="-92.5" font-family="Helvetica,sans-Serif" font-size="10.00">::BlockedLink &gt;</text>
</a>
</g>
</g>
<!-- Node3&#45;&gt;Node1 -->
<g id="edge2_Node000001_Node000003" class="edge">
<title>Node3&#45;&gt;Node1</title>
<g id="a_edge2_Node000001_Node000003"><a xlink:title=" ">
<path fill="none" stroke="#9a32cd" stroke-dasharray="5,2" d="M168.59,-78.78C148.7,-64.12 123.16,-45.31 105.53,-32.31"/>
<polygon fill="#9a32cd" stroke="#9a32cd" points="166.5,-81.58 176.62,-84.7 170.65,-75.95 166.5,-81.58"/>
</a>
</g>
<text xml:space="preserve" text-anchor="start" x="154.96" y="-55.5" font-family="Helvetica,sans-Serif" font-size="10.00" fill="grey">blocked</text>
</g>
<!-- Node4 -->
<g id="Node000004" class="node">
<title>Node4</title>
<g id="a_Node000004"><a xlink:href="structshrpx_1_1BlockedLink.html" target="_top" xlink:title=" ">
<polygon fill="white" stroke="#bfbfbf" points="248.38,-215 149.12,-215 149.12,-195 248.38,-195 248.38,-215"/>
<text xml:space="preserve" text-anchor="middle" x="198.75" y="-201.5" font-family="Helvetica,sans-Serif" font-size="10.00">shrpx::BlockedLink</text>
</a>
</g>
</g>
<!-- Node4&#45;&gt;Node3 -->
<g id="edge3_Node000003_Node000004" class="edge">
<title>Node4&#45;&gt;Node3</title>
<g id="a_edge3_Node000003_Node000004"><a xlink:title=" ">
<path fill="none" stroke="#9a32cd" stroke-dasharray="5,2" d="M198.75,-183.22C198.75,-163.86 198.75,-135.45 198.75,-118.15"/>
<polygon fill="#9a32cd" stroke="#9a32cd" points="195.25,-183.17 198.75,-193.17 202.25,-183.17 195.25,-183.17"/>
</a>
</g>
<text xml:space="preserve" text-anchor="start" x="201.75" y="-157.5" font-family="Helvetica,sans-Serif" font-size="10.00" fill="grey">head</text>
<text xml:space="preserve" text-anchor="start" x="201.75" y="-141.5" font-family="Helvetica,sans-Serif" font-size="10.00" fill="grey">tail</text>
</g>
<!-- Node4&#45;&gt;Node4 -->
<g id="edge6_Node000004_Node000004" class="edge">
<title>Node4&#45;&gt;Node4</title>
<g id="a_edge6_Node000004_Node000004"><a xlink:title=" ">
<path fill="none" stroke="#9a32cd" stroke-dasharray="5,2" d="M259.79,-210.93C263.89,-209.56 266.38,-207.58 266.38,-205 266.38,-200.53 258.93,-197.88 248.59,-197.04"/>
<polygon fill="#9a32cd" stroke="#9a32cd" points="259.29,-207.46 250.08,-212.69 260.54,-214.35 259.29,-207.46"/>
</a>
</g>
<text xml:space="preserve" text-anchor="start" x="269.38" y="-209.5" font-family="Helvetica,sans-Serif" font-size="10.00" fill="grey">dlnext</text>
<text xml:space="preserve" text-anchor="start" x="269.38" y="-193.5" font-family="Helvetica,sans-Serif" font-size="10.00" fill="grey">dlprev</text>
</g>
<!-- Node5 -->
<g id="Node000005" class="node">
<title>Node5</title>
<g id="a_Node000005"><a xlink:href="classshrpx_1_1Downstream.html" target="_top" xlink:title=" ">
<polygon fill="white" stroke="#bfbfbf" points="249.5,-303 148,-303 148,-283 249.5,-283 249.5,-303"/>
<text xml:space="preserve" text-anchor="middle" x="198.75" y="-289.5" font-family="Helvetica,sans-Serif" font-size="10.00">shrpx::Downstream</text>
</a>
</g>
</g>
<!-- Node5&#45;&gt;Node4 -->
<g id="edge4_Node000004_Node000005" class="edge">
<title>Node5&#45;&gt;Node4</title>
<g id="a_edge4_Node000004_Node000005"><a xlink:title=" ">
<path fill="none" stroke="#9a32cd" stroke-dasharray="5,2" d="M198.75,-271.37C198.75,-253.6 198.75,-228.76 198.75,-215.4"/>
<polygon fill="#9a32cd" stroke="#9a32cd" points="195.25,-271.28 198.75,-281.28 202.25,-271.28 195.25,-271.28"/>
</a>
</g>
<text xml:space="preserve" text-anchor="start" x="201.75" y="-245.5" font-family="Helvetica,sans-Serif" font-size="10.00" fill="grey">downstream</text>
</g>
<!-- Node5&#45;&gt;Node5 -->
<g id="edge5_Node000005_Node000005" class="edge">
<title>Node5&#45;&gt;Node5</title>
<g id="a_edge5_Node000005_Node000005"><a xlink:title=" ">
<path fill="none" stroke="#9a32cd" stroke-dasharray="5,2" d="M260.93,-298.89C265.02,-297.52 267.5,-295.56 267.5,-293 267.5,-288.57 260.08,-285.93 249.72,-285.06"/>
<polygon fill="#9a32cd" stroke="#9a32cd" points="260.42,-295.43 251.21,-300.66 261.67,-302.31 260.42,-295.43"/>
</a>
</g>
<text xml:space="preserve" text-anchor="start" x="270.5" y="-297.5" font-family="Helvetica,sans-Serif" font-size="10.00" fill="grey">dlnext</text>
<text xml:space="preserve" text-anchor="start" x="270.5" y="-281.5" font-family="Helvetica,sans-Serif" font-size="10.00" fill="grey">dlprev</text>
</g>
</g>
</svg>
