<?xml version="1.0" encoding="UTF-8" standalone="no"?>
<!DOCTYPE svg PUBLIC "-//W3C//DTD SVG 1.1//EN"
 "http://www.w3.org/Graphics/SVG/1.1/DTD/svg11.dtd">
<!-- Generated by graphviz version 14.0.5 (0)
 -->
<!-- Title: nghttp2_priority Pages: 1 -->
<svg width="230pt" height="102pt"
 viewBox="0.00 0.00 230.00 102.00" xmlns="http://www.w3.org/2000/svg" xmlns:xlink="http://www.w3.org/1999/xlink">
<g id="graph0" class="graph" transform="scale(1 1) rotate(0) translate(4 98)">
<title>nghttp2_priority</title>
<!-- Node1 -->
<g id="Node000001" class="node">
<title>Node1</title>
<g id="a_Node000001"><a xlink:title=" ">
<polygon fill="#999999" stroke="#666666" points="148.38,-20 65.62,-20 65.62,0 148.38,0 148.38,-20"/>
<text xml:space="preserve" text-anchor="middle" x="107" y="-6.5" font-family="Helvetica,sans-Serif" font-size="10.00">nghttp2_priority</text>
</a>
</g>
</g>
<!-- Node2 -->
<g id="Node000002" class="node">
<title>Node2</title>
<g id="a_Node000002"><a xlink:href="structnghttp2__frame__hd.html" target="_top" xlink:title=" ">
<polygon fill="white" stroke="#666666" points="94,-94 0,-94 0,-74 94,-74 94,-94"/>
<text xml:space="preserve" text-anchor="middle" x="47" y="-80.5" font-family="Helvetica,sans-Serif" font-size="10.00">nghttp2_frame_hd</text>
</a>
</g>
</g>
<!-- Node2&#45;&gt;Node1 -->
<g id="edge1_Node000001_Node000002" class="edge">
<title>Node2&#45;&gt;Node1</title>
<g id="a_edge1_Node000001_Node000002"><a xlink:title=" ">
<path fill="none" stroke="#9a32cd" stroke-dasharray="5,2" d="M61.92,-65.09C73.8,-50.84 89.95,-31.46 99.34,-20.19"/>
<polygon fill="#9a32cd" stroke="#9a32cd" points="59.53,-62.5 55.81,-72.42 64.9,-66.98 59.53,-62.5"/>
</a>
</g>
<text xml:space="preserve" text-anchor="start" x="87.14" y="-43.5" font-family="Helvetica,sans-Serif" font-size="10.00" fill="grey">hd</text>
</g>
<!-- Node3 -->
<g id="Node000003" class="node">
<title>Node3</title>
<g id="a_Node000003"><a xlink:href="structnghttp2__priority__spec.html" target="_top" xlink:title=" ">
<polygon fill="white" stroke="#bfbfbf" points="221.5,-94 112.5,-94 112.5,-74 221.5,-74 221.5,-94"/>
<text xml:space="preserve" text-anchor="middle" x="167" y="-80.5" font-family="Helvetica,sans-Serif" font-size="10.00">nghttp2_priority_spec</text>
</a>
</g>
</g>
<!-- Node3&#45;&gt;Node1 -->
<g id="edge2_Node000001_Node000003" class="edge">
<title>Node3&#45;&gt;Node1</title>
<g id="a_edge2_Node000001_Node000003"><a xlink:title=" ">
<path fill="none" stroke="#9a32cd" stroke-dasharray="5,2" d="M152.08,-65.09C140.2,-50.84 124.05,-31.46 114.66,-20.19"/>
<polygon fill="#9a32cd" stroke="#9a32cd" points="149.1,-66.98 158.19,-72.42 154.47,-62.5 149.1,-66.98"/>
</a>
</g>
<text xml:space="preserve" text-anchor="start" x="147.14" y="-43.5" font-family="Helvetica,sans-Serif" font-size="10.00" fill="grey">pri_spec</text>
</g>
</g>
</svg>
