<?xml version="1.0" encoding="UTF-8" standalone="no"?>
<!DOCTYPE svg PUBLIC "-//W3C//DTD SVG 1.1//EN"
 "http://www.w3.org/Graphics/SVG/1.1/DTD/svg11.dtd">
<!-- Generated by graphviz version 14.0.5 (0)
 -->
<!-- Title: shrpx::MemcachedSendbuf Pages: 1 -->
<svg width="276pt" height="102pt"
 viewBox="0.00 0.00 276.00 102.00" xmlns="http://www.w3.org/2000/svg" xmlns:xlink="http://www.w3.org/1999/xlink">
<g id="graph0" class="graph" transform="scale(1 1) rotate(0) translate(4 98)">
<title>shrpx::MemcachedSendbuf</title>
<!-- Node1 -->
<g id="Node000001" class="node">
<title>Node1</title>
<g id="a_Node000001"><a xlink:title=" ">
<polygon fill="#999999" stroke="#666666" points="195.38,-20 60.12,-20 60.12,0 195.38,0 195.38,-20"/>
<text xml:space="preserve" text-anchor="middle" x="127.75" y="-6.5" font-family="Helvetica,sans-Serif" font-size="10.00">shrpx::MemcachedSendbuf</text>
</a>
</g>
</g>
<!-- Node2 -->
<g id="Node000002" class="node">
<title>Node2</title>
<g id="a_Node000002"><a xlink:href="structnghttp2_1_1Buffer.html" target="_top" xlink:title=" ">
<polygon fill="white" stroke="#bfbfbf" points="113.5,-94 0,-94 0,-74 113.5,-74 113.5,-94"/>
<text xml:space="preserve" text-anchor="middle" x="56.75" y="-80.5" font-family="Helvetica,sans-Serif" font-size="10.00">nghttp2::Buffer&lt; 512 &gt;</text>
</a>
</g>
</g>
<!-- Node2&#45;&gt;Node1 -->
<g id="edge1_Node000001_Node000002" class="edge">
<title>Node2&#45;&gt;Node1</title>
<g id="a_edge1_Node000001_Node000002"><a xlink:title=" ">
<path fill="none" stroke="#9a32cd" stroke-dasharray="5,2" d="M74.01,-65.5C88.1,-51.21 107.47,-31.57 118.69,-20.19"/>
<polygon fill="#9a32cd" stroke="#9a32cd" points="71.62,-62.93 67.09,-72.51 76.61,-67.85 71.62,-62.93"/>
</a>
</g>
<text xml:space="preserve" text-anchor="start" x="103.7" y="-43.5" font-family="Helvetica,sans-Serif" font-size="10.00" fill="grey">headbuf</text>
</g>
<!-- Node3 -->
<g id="Node000003" class="node">
<title>Node3</title>
<g id="a_Node000003"><a xlink:href="structshrpx_1_1MemcachedRequest.html" target="_top" xlink:title=" ">
<polygon fill="white" stroke="#bfbfbf" points="267.75,-94 131.75,-94 131.75,-74 267.75,-74 267.75,-94"/>
<text xml:space="preserve" text-anchor="middle" x="199.75" y="-80.5" font-family="Helvetica,sans-Serif" font-size="10.00">shrpx::MemcachedRequest</text>
</a>
</g>
</g>
<!-- Node3&#45;&gt;Node1 -->
<g id="edge2_Node000001_Node000003" class="edge">
<title>Node3&#45;&gt;Node1</title>
<g id="a_edge2_Node000001_Node000003"><a xlink:title=" ">
<path fill="none" stroke="#9a32cd" stroke-dasharray="5,2" d="M182.25,-65.5C167.96,-51.21 148.32,-31.57 136.94,-20.19"/>
<polygon fill="#9a32cd" stroke="#9a32cd" points="179.72,-67.92 189.27,-72.52 184.67,-62.97 179.72,-67.92"/>
</a>
</g>
<text xml:space="preserve" text-anchor="start" x="175.32" y="-43.5" font-family="Helvetica,sans-Serif" font-size="10.00" fill="grey">req</text>
</g>
</g>
</svg>
