<?xml version="1.0" encoding="UTF-8" standalone="no"?>
<!DOCTYPE svg PUBLIC "-//W3C//DTD SVG 1.1//EN"
 "http://www.w3.org/Graphics/SVG/1.1/DTD/svg11.dtd">
<!-- Generated by graphviz version 14.0.5 (0)
 -->
<!-- Title: shrpx::DownstreamConfig Pages: 1 -->
<svg width="297pt" height="192pt"
 viewBox="0.00 0.00 297.00 192.00" xmlns="http://www.w3.org/2000/svg" xmlns:xlink="http://www.w3.org/1999/xlink">
<g id="graph0" class="graph" transform="scale(1 1) rotate(0) translate(4 188)">
<title>shrpx::DownstreamConfig</title>
<!-- Node1 -->
<g id="Node000001" class="node">
<title>Node1</title>
<g id="a_Node000001"><a xlink:title=" ">
<polygon fill="#999999" stroke="#666666" points="192.38,-20 62.38,-20 62.38,0 192.38,0 192.38,-20"/>
<text xml:space="preserve" text-anchor="middle" x="127.38" y="-6.5" font-family="Helvetica,sans-Serif" font-size="10.00">shrpx::DownstreamConfig</text>
</a>
</g>
</g>
<!-- Node2 -->
<g id="Node000002" class="node">
<title>Node2</title>
<g id="a_Node000002"><a xlink:href="structnghttp2_1_1BlockAllocator.html" target="_top" xlink:title=" ">
<polygon fill="white" stroke="#bfbfbf" points="122,-94 4.75,-94 4.75,-74 122,-74 122,-94"/>
<text xml:space="preserve" text-anchor="middle" x="63.38" y="-80.5" font-family="Helvetica,sans-Serif" font-size="10.00">nghttp2::BlockAllocator</text>
</a>
</g>
</g>
<!-- Node2&#45;&gt;Node1 -->
<g id="edge1_Node000001_Node000002" class="edge">
<title>Node2&#45;&gt;Node1</title>
<g id="a_edge1_Node000001_Node000002"><a xlink:title=" ">
<path fill="none" stroke="#9a32cd" stroke-dasharray="5,2" d="M79.29,-65.09C91.97,-50.84 109.19,-31.46 119.21,-20.19"/>
<polygon fill="#9a32cd" stroke="#9a32cd" points="76.78,-62.66 72.75,-72.46 82.01,-67.31 76.78,-62.66"/>
</a>
</g>
<text xml:space="preserve" text-anchor="start" x="105.99" y="-43.5" font-family="Helvetica,sans-Serif" font-size="10.00" fill="grey">balloc</text>
</g>
<!-- Node3 -->
<g id="Node000003" class="node">
<title>Node3</title>
<g id="a_Node000003"><a xlink:href="structnghttp2_1_1MemBlock.html" target="_top" xlink:title=" ">
<polygon fill="white" stroke="#bfbfbf" points="100.75,-184 0,-184 0,-164 100.75,-164 100.75,-184"/>
<text xml:space="preserve" text-anchor="middle" x="50.38" y="-170.5" font-family="Helvetica,sans-Serif" font-size="10.00">nghttp2::MemBlock</text>
</a>
</g>
</g>
<!-- Node3&#45;&gt;Node2 -->
<g id="edge2_Node000002_Node000003" class="edge">
<title>Node3&#45;&gt;Node2</title>
<g id="a_edge2_Node000002_Node000003"><a xlink:title=" ">
<path fill="none" stroke="#9a32cd" stroke-dasharray="5,2" d="M53.43,-152.35C56.13,-134.02 59.97,-108.07 61.99,-94.35"/>
<polygon fill="#9a32cd" stroke="#9a32cd" points="49.99,-151.68 51.99,-162.09 56.91,-152.7 49.99,-151.68"/>
</a>
</g>
<text xml:space="preserve" text-anchor="start" x="62.17" y="-133.5" font-family="Helvetica,sans-Serif" font-size="10.00" fill="grey">head</text>
<text xml:space="preserve" text-anchor="start" x="62.17" y="-117.5" font-family="Helvetica,sans-Serif" font-size="10.00" fill="grey">retain</text>
</g>
<!-- Node3&#45;&gt;Node3 -->
<g id="edge3_Node000003_Node000003" class="edge">
<title>Node3&#45;&gt;Node3</title>
<g id="a_edge3_Node000003_Node000003"><a xlink:title=" ">
<path fill="none" stroke="#9a32cd" stroke-dasharray="5,2" d="M112.21,-180.02C116.28,-178.62 118.75,-176.62 118.75,-174 118.75,-169.47 111.37,-166.77 101.07,-165.88"/>
<polygon fill="#9a32cd" stroke="#9a32cd" points="111.74,-176.55 102.55,-181.84 113.03,-183.43 111.74,-176.55"/>
</a>
</g>
<text xml:space="preserve" text-anchor="start" x="121.75" y="-170.5" font-family="Helvetica,sans-Serif" font-size="10.00" fill="grey">next</text>
</g>
<!-- Node4 -->
<g id="Node000004" class="node">
<title>Node4</title>
<g id="a_Node000004"><a xlink:href="structshrpx_1_1RouterConfig.html" target="_top" xlink:title=" ">
<polygon fill="white" stroke="#bfbfbf" points="249.25,-94 145.5,-94 145.5,-74 249.25,-74 249.25,-94"/>
<text xml:space="preserve" text-anchor="middle" x="197.38" y="-80.5" font-family="Helvetica,sans-Serif" font-size="10.00">shrpx::RouterConfig</text>
</a>
</g>
</g>
<!-- Node4&#45;&gt;Node1 -->
<g id="edge4_Node000001_Node000004" class="edge">
<title>Node4&#45;&gt;Node1</title>
<g id="a_edge4_Node000001_Node000004"><a xlink:title=" ">
<path fill="none" stroke="#9a32cd" stroke-dasharray="5,2" d="M180.36,-65.5C166.46,-51.21 147.37,-31.57 136.31,-20.19"/>
<polygon fill="#9a32cd" stroke="#9a32cd" points="177.69,-67.77 187.17,-72.5 182.71,-62.89 177.69,-67.77"/>
</a>
</g>
<text xml:space="preserve" text-anchor="start" x="173.7" y="-43.5" font-family="Helvetica,sans-Serif" font-size="10.00" fill="grey">router</text>
</g>
<!-- Node5 -->
<g id="Node000005" class="node">
<title>Node5</title>
<g id="a_Node000005"><a xlink:href="classshrpx_1_1Router.html" target="_top" xlink:title=" ">
<polygon fill="white" stroke="#bfbfbf" points="237,-184 161.75,-184 161.75,-164 237,-164 237,-184"/>
<text xml:space="preserve" text-anchor="middle" x="199.38" y="-170.5" font-family="Helvetica,sans-Serif" font-size="10.00">shrpx::Router</text>
</a>
</g>
</g>
<!-- Node5&#45;&gt;Node4 -->
<g id="edge5_Node000004_Node000005" class="edge">
<title>Node5&#45;&gt;Node4</title>
<g id="a_edge5_Node000004_Node000005"><a xlink:title=" ">
<path fill="none" stroke="#9a32cd" stroke-dasharray="5,2" d="M198.9,-152.09C198.48,-133.77 197.9,-108.01 197.59,-94.35"/>
<polygon fill="#9a32cd" stroke="#9a32cd" points="195.4,-152.15 199.13,-162.07 202.4,-151.99 195.4,-152.15"/>
</a>
</g>
<text xml:space="preserve" text-anchor="start" x="201.73" y="-133.5" font-family="Helvetica,sans-Serif" font-size="10.00" fill="grey">rev_wildcard_router</text>
<text xml:space="preserve" text-anchor="start" x="201.73" y="-117.5" font-family="Helvetica,sans-Serif" font-size="10.00" fill="grey">router</text>
</g>
</g>
</svg>
