<?xml version="1.0" encoding="UTF-8" standalone="no"?>
<!DOCTYPE svg PUBLIC "-//W3C//DTD SVG 1.1//EN"
 "http://www.w3.org/Graphics/SVG/1.1/DTD/svg11.dtd">
<!-- Generated by graphviz version 14.0.5 (0)
 -->
<!-- Title: mrb_callinfo Pages: 1 -->
<svg width="757pt" height="682pt"
 viewBox="0.00 0.00 757.00 682.00" xmlns="http://www.w3.org/2000/svg" xmlns:xlink="http://www.w3.org/1999/xlink">
<g id="graph0" class="graph" transform="scale(1 1) rotate(0) translate(4 678)">
<title>mrb_callinfo</title>
<!-- Node1 -->
<g id="Node000001" class="node">
<title>Node1</title>
<g id="a_Node000001"><a xlink:title=" ">
<polygon fill="#999999" stroke="#666666" points="550.38,-519 481.88,-519 481.88,-499 550.38,-499 550.38,-519"/>
<text xml:space="preserve" text-anchor="middle" x="516.12" y="-505.5" font-family="Helvetica,sans-Serif" font-size="10.00">mrb_callinfo</text>
</a>
</g>
</g>
<!-- Node16 -->
<g id="Node000016" class="node">
<title>Node16</title>
<g id="a_Node000016"><a xlink:href="structmrb__context.html" target="_top" xlink:title=" ">
<polygon fill="white" stroke="#bfbfbf" points="538.12,-406 468.12,-406 468.12,-386 538.12,-386 538.12,-406"/>
<text xml:space="preserve" text-anchor="middle" x="503.12" y="-392.5" font-family="Helvetica,sans-Serif" font-size="10.00">mrb_context</text>
</a>
</g>
</g>
<!-- Node1&#45;&gt;Node16 -->
<g id="edge25_Node000016_Node000001" class="edge">
<title>Node1&#45;&gt;Node16</title>
<g id="a_edge25_Node000016_Node000001"><a xlink:title=" ">
<path fill="none" stroke="#9a32cd" stroke-dasharray="5,2" d="M513.68,-487.12C510.85,-462.96 506.31,-424.2 504.23,-406.44"/>
<polygon fill="#9a32cd" stroke="#9a32cd" points="510.2,-487.51 514.84,-497.03 517.15,-486.69 510.2,-487.51"/>
</a>
</g>
<text xml:space="preserve" text-anchor="start" x="514.92" y="-461.5" font-family="Helvetica,sans-Serif" font-size="10.00" fill="grey">ci</text>
<text xml:space="preserve" text-anchor="start" x="514.92" y="-445.5" font-family="Helvetica,sans-Serif" font-size="10.00" fill="grey">cibase</text>
<text xml:space="preserve" text-anchor="start" x="514.92" y="-429.5" font-family="Helvetica,sans-Serif" font-size="10.00" fill="grey">ciend</text>
</g>
<!-- Node2 -->
<g id="Node000002" class="node">
<title>Node2</title>
<g id="a_Node000002"><a xlink:href="structRProc.html" target="_top" xlink:title=" ">
<polygon fill="white" stroke="#bfbfbf" points="474,-242 430.25,-242 430.25,-222 474,-222 474,-242"/>
<text xml:space="preserve" text-anchor="middle" x="452.12" y="-228.5" font-family="Helvetica,sans-Serif" font-size="10.00">RProc</text>
</a>
</g>
</g>
<!-- Node2&#45;&gt;Node1 -->
<g id="edge1_Node000001_Node000002" class="edge">
<title>Node2&#45;&gt;Node1</title>
<g id="a_edge1_Node000001_Node000002"><a xlink:title=" ">
<path fill="none" stroke="#9a32cd" stroke-dasharray="5,2" d="M484.81,-245.61C507.87,-256 537.95,-272.8 557.12,-296 584.27,-328.83 582.68,-344.05 590.12,-386 598.57,-433.56 551.21,-479.45 528.17,-498.62"/>
<polygon fill="#9a32cd" stroke="#9a32cd" points="486.41,-242.49 475.84,-241.75 483.65,-248.92 486.41,-242.49"/>
</a>
</g>
<text xml:space="preserve" text-anchor="start" x="590.06" y="-355.5" font-family="Helvetica,sans-Serif" font-size="10.00" fill="grey">blk</text>
<text xml:space="preserve" text-anchor="start" x="590.06" y="-339.5" font-family="Helvetica,sans-Serif" font-size="10.00" fill="grey">proc</text>
</g>
<!-- Node2&#45;&gt;Node2 -->
<g id="edge11_Node000002_Node000002" class="edge">
<title>Node2&#45;&gt;Node2</title>
<g id="a_edge11_Node000002_Node000002"><a xlink:title=" ">
<path fill="none" stroke="#9a32cd" stroke-dasharray="5,2" d="M485.45,-237.96C489.41,-236.87 492,-234.89 492,-232 492,-226.87 483.82,-224.58 474.27,-225.15"/>
<polygon fill="#9a32cd" stroke="#9a32cd" points="485.46,-234.44 475.78,-238.73 486.02,-241.42 485.46,-234.44"/>
</a>
</g>
<text xml:space="preserve" text-anchor="start" x="495" y="-228.5" font-family="Helvetica,sans-Serif" font-size="10.00" fill="grey">upper</text>
</g>
<!-- Node14 -->
<g id="Node000014" class="node">
<title>Node14</title>
<g id="a_Node000014"><a xlink:href="unionmt__ptr.html" target="_top" xlink:title=" ">
<polygon fill="white" stroke="#bfbfbf" points="570,-168 526.25,-168 526.25,-148 570,-148 570,-168"/>
<text xml:space="preserve" text-anchor="middle" x="548.12" y="-154.5" font-family="Helvetica,sans-Serif" font-size="10.00">mt_ptr</text>
</a>
</g>
</g>
<!-- Node2&#45;&gt;Node14 -->
<g id="edge17_Node000014_Node000002" class="edge">
<title>Node2&#45;&gt;Node14</title>
<g id="a_edge17_Node000014_Node000002"><a xlink:title=" ">
<path fill="none" stroke="#9a32cd" stroke-dasharray="5,2" d="M473.8,-214.74C492.85,-200.46 519.9,-180.17 535.57,-168.42"/>
<polygon fill="#9a32cd" stroke="#9a32cd" points="471.79,-211.88 465.89,-220.68 475.99,-217.48 471.79,-211.88"/>
</a>
</g>
<text xml:space="preserve" text-anchor="start" x="514.55" y="-191.5" font-family="Helvetica,sans-Serif" font-size="10.00" fill="grey">proc</text>
</g>
<!-- Node3 -->
<g id="Node000003" class="node">
<title>Node3</title>
<g id="a_Node000003"><a xlink:href="structmrb__irep.html" target="_top" xlink:title=" ">
<polygon fill="white" stroke="#bfbfbf" points="307.88,-316 254.38,-316 254.38,-296 307.88,-296 307.88,-316"/>
<text xml:space="preserve" text-anchor="middle" x="281.12" y="-302.5" font-family="Helvetica,sans-Serif" font-size="10.00">mrb_irep</text>
</a>
</g>
</g>
<!-- Node3&#45;&gt;Node2 -->
<g id="edge2_Node000002_Node000003" class="edge">
<title>Node3&#45;&gt;Node2</title>
<g id="a_edge2_Node000002_Node000003"><a xlink:title=" ">
<path fill="none" stroke="#9a32cd" stroke-dasharray="5,2" d="M313.83,-291.23C347.85,-276.91 400.19,-254.87 429.76,-242.42"/>
<polygon fill="#9a32cd" stroke="#9a32cd" points="312.73,-287.89 304.88,-295 315.45,-294.35 312.73,-287.89"/>
</a>
</g>
<text xml:space="preserve" text-anchor="start" x="389.97" y="-265.5" font-family="Helvetica,sans-Serif" font-size="10.00" fill="grey">irep</text>
</g>
<!-- Node3&#45;&gt;Node3 -->
<g id="edge5_Node000003_Node000003" class="edge">
<title>Node3&#45;&gt;Node3</title>
<g id="a_edge5_Node000003_Node000003"><a xlink:title=" ">
<path fill="none" stroke="#9a32cd" stroke-dasharray="5,2" d="M319.44,-311.71C323.37,-310.59 325.88,-308.68 325.88,-306 325.88,-301.23 317.94,-298.92 308.21,-299.07"/>
<polygon fill="#9a32cd" stroke="#9a32cd" points="319.28,-308.21 309.72,-312.77 320.04,-315.17 319.28,-308.21"/>
</a>
</g>
<text xml:space="preserve" text-anchor="start" x="328.88" y="-302.5" font-family="Helvetica,sans-Serif" font-size="10.00" fill="grey">reps</text>
</g>
<!-- Node4 -->
<g id="Node000004" class="node">
<title>Node4</title>
<g id="a_Node000004"><a xlink:href="structmrb__pool__value.html" target="_top" xlink:title=" ">
<polygon fill="white" stroke="#bfbfbf" points="280.25,-406 196,-406 196,-386 280.25,-386 280.25,-406"/>
<text xml:space="preserve" text-anchor="middle" x="238.12" y="-392.5" font-family="Helvetica,sans-Serif" font-size="10.00">mrb_pool_value</text>
</a>
</g>
</g>
<!-- Node4&#45;&gt;Node3 -->
<g id="edge3_Node000003_Node000004" class="edge">
<title>Node4&#45;&gt;Node3</title>
<g id="a_edge3_Node000003_Node000004"><a xlink:title=" ">
<path fill="none" stroke="#9a32cd" stroke-dasharray="5,2" d="M247.7,-375.4C256.68,-357.02 269.72,-330.34 276.56,-316.35"/>
<polygon fill="#9a32cd" stroke="#9a32cd" points="244.64,-373.7 243.39,-384.22 250.93,-376.77 244.64,-373.7"/>
</a>
</g>
<text xml:space="preserve" text-anchor="start" x="270.22" y="-347.5" font-family="Helvetica,sans-Serif" font-size="10.00" fill="grey">pool</text>
</g>
<!-- Node5 -->
<g id="Node000005" class="node">
<title>Node5</title>
<g id="a_Node000005"><a xlink:href="classmrb__sym.html" target="_top" xlink:title=" ">
<polygon fill="white" stroke="#666666" points="354.38,-406 297.88,-406 297.88,-386 354.38,-386 354.38,-406"/>
<text xml:space="preserve" text-anchor="middle" x="326.12" y="-392.5" font-family="Helvetica,sans-Serif" font-size="10.00">mrb_sym</text>
</a>
</g>
</g>
<!-- Node5&#45;&gt;Node3 -->
<g id="edge4_Node000003_Node000005" class="edge">
<title>Node5&#45;&gt;Node3</title>
<g id="a_edge4_Node000003_Node000005"><a xlink:title=" ">
<path fill="none" stroke="#9a32cd" stroke-dasharray="5,2" d="M316.37,-375.71C310.29,-363.7 302.28,-347.94 295.12,-334 292.13,-328.18 288.76,-321.66 286.07,-316.49"/>
<polygon fill="#9a32cd" stroke="#9a32cd" points="313.2,-377.2 320.84,-384.54 319.45,-374.04 313.2,-377.2"/>
</a>
</g>
<text xml:space="preserve" text-anchor="start" x="315.04" y="-355.5" font-family="Helvetica,sans-Serif" font-size="10.00" fill="grey">lv</text>
<text xml:space="preserve" text-anchor="start" x="315.04" y="-339.5" font-family="Helvetica,sans-Serif" font-size="10.00" fill="grey">syms</text>
</g>
<!-- Node6 -->
<g id="Node000006" class="node">
<title>Node6</title>
<g id="a_Node000006"><a xlink:href="structmrb__irep__debug__info.html" target="_top" xlink:title=" ">
<polygon fill="white" stroke="#bfbfbf" points="117.12,-406 11.12,-406 11.12,-386 117.12,-386 117.12,-406"/>
<text xml:space="preserve" text-anchor="middle" x="64.12" y="-392.5" font-family="Helvetica,sans-Serif" font-size="10.00">mrb_irep_debug_info</text>
</a>
</g>
</g>
<!-- Node6&#45;&gt;Node3 -->
<g id="edge6_Node000003_Node000006" class="edge">
<title>Node6&#45;&gt;Node3</title>
<g id="a_edge6_Node000003_Node000006"><a xlink:title=" ">
<path fill="none" stroke="#9a32cd" stroke-dasharray="5,2" d="M92.38,-380.48C118.54,-367.36 158.75,-348.01 194.88,-334 214.33,-326.45 236.85,-319.46 254,-314.48"/>
<polygon fill="#9a32cd" stroke="#9a32cd" points="91.1,-377.2 83.76,-384.84 94.26,-383.45 91.1,-377.2"/>
</a>
</g>
<text xml:space="preserve" text-anchor="start" x="197.88" y="-347.5" font-family="Helvetica,sans-Serif" font-size="10.00" fill="grey">debug_info</text>
</g>
<!-- Node7 -->
<g id="Node000007" class="node">
<title>Node7</title>
<g id="a_Node000007"><a xlink:href="structmrb__irep__debug__info__file.html" target="_top" xlink:title=" ">
<polygon fill="white" stroke="#bfbfbf" points="125.12,-519 1.12,-519 1.12,-499 125.12,-499 125.12,-519"/>
<text xml:space="preserve" text-anchor="middle" x="63.12" y="-505.5" font-family="Helvetica,sans-Serif" font-size="10.00">mrb_irep_debug_info_file</text>
</a>
</g>
</g>
<!-- Node7&#45;&gt;Node6 -->
<g id="edge7_Node000006_Node000007" class="edge">
<title>Node7&#45;&gt;Node6</title>
<g id="a_edge7_Node000006_Node000007"><a xlink:title=" ">
<path fill="none" stroke="#9a32cd" stroke-dasharray="5,2" d="M63.31,-487.12C63.53,-462.96 63.88,-424.2 64.04,-406.44"/>
<polygon fill="#9a32cd" stroke="#9a32cd" points="59.81,-486.99 63.22,-497.02 66.81,-487.05 59.81,-486.99"/>
</a>
</g>
<text xml:space="preserve" text-anchor="start" x="66.86" y="-445.5" font-family="Helvetica,sans-Serif" font-size="10.00" fill="grey">files</text>
</g>
<!-- Node8 -->
<g id="Node000008" class="node">
<title>Node8</title>
<g id="a_Node000008"><a xlink:href="structmrb__irep__debug__info__line.html" target="_top" xlink:title=" ">
<polygon fill="white" stroke="#bfbfbf" points="126.25,-600 0,-600 0,-580 126.25,-580 126.25,-600"/>
<text xml:space="preserve" text-anchor="middle" x="63.12" y="-586.5" font-family="Helvetica,sans-Serif" font-size="10.00">mrb_irep_debug_info_line</text>
</a>
</g>
</g>
<!-- Node8&#45;&gt;Node7 -->
<g id="edge8_Node000007_Node000008" class="edge">
<title>Node8&#45;&gt;Node7</title>
<g id="a_edge8_Node000007_Node000008"><a xlink:title=" ">
<path fill="none" stroke="#9a32cd" stroke-dasharray="5,2" d="M63.12,-568.32C63.12,-552.48 63.12,-531.35 63.12,-519.36"/>
<polygon fill="#9a32cd" stroke="#9a32cd" points="59.63,-568.11 63.13,-578.11 66.63,-568.11 59.63,-568.11"/>
</a>
</g>
<text xml:space="preserve" text-anchor="start" x="66.12" y="-549.5" font-family="Helvetica,sans-Serif" font-size="10.00" fill="grey">flat_map</text>
</g>
<!-- Node9 -->
<g id="Node000009" class="node">
<title>Node9</title>
<g id="a_Node000009"><a xlink:href="structmrb__value.html" target="_top" xlink:title=" ">
<polygon fill="white" stroke="#bfbfbf" points="502.62,-600 441.62,-600 441.62,-580 502.62,-580 502.62,-600"/>
<text xml:space="preserve" text-anchor="middle" x="472.12" y="-586.5" font-family="Helvetica,sans-Serif" font-size="10.00">mrb_value</text>
</a>
</g>
</g>
<!-- Node9&#45;&gt;Node1 -->
<g id="edge28_Node000001_Node000009" class="edge">
<title>Node9&#45;&gt;Node1</title>
<g id="a_edge28_Node000001_Node000009"><a xlink:title=" ">
<path fill="none" stroke="#9a32cd" stroke-dasharray="5,2" d="M482.86,-569.72C491.76,-553.74 504.03,-531.71 510.91,-519.36"/>
<polygon fill="#9a32cd" stroke="#9a32cd" points="479.89,-567.87 478.08,-578.31 486.01,-571.27 479.89,-567.87"/>
</a>
</g>
<text xml:space="preserve" text-anchor="start" x="499.76" y="-549.5" font-family="Helvetica,sans-Serif" font-size="10.00" fill="grey">stack</text>
</g>
<!-- Node9&#45;&gt;Node2 -->
<g id="edge9_Node000002_Node000009" class="edge">
<title>Node9&#45;&gt;Node2</title>
<g id="a_edge9_Node000002_Node000009"><a xlink:title=" ">
<path fill="none" stroke="#9a32cd" stroke-dasharray="5,2" d="M429.98,-587.35C343.31,-582.8 153.12,-566.39 153.12,-510 153.12,-510 153.12,-510 153.12,-305 153.12,-248 361.09,-236 430.14,-233.58"/>
<polygon fill="#9a32cd" stroke="#9a32cd" points="429.58,-590.83 439.74,-587.83 429.92,-583.84 429.58,-590.83"/>
</a>
</g>
<text xml:space="preserve" text-anchor="start" x="156.12" y="-392.5" font-family="Helvetica,sans-Serif" font-size="10.00" fill="grey">func</text>
</g>
<!-- Node12 -->
<g id="Node000012" class="node">
<title>Node12</title>
<g id="a_Node000012"><a xlink:href="structiv__tbl.html" target="_top" xlink:title=" ">
<polygon fill="white" stroke="#bfbfbf" points="748.75,-459 709.5,-459 709.5,-439 748.75,-439 748.75,-459"/>
<text xml:space="preserve" text-anchor="middle" x="729.12" y="-445.5" font-family="Helvetica,sans-Serif" font-size="10.00">iv_tbl</text>
</a>
</g>
</g>
<!-- Node9&#45;&gt;Node12 -->
<g id="edge14_Node000012_Node000009" class="edge">
<title>Node9&#45;&gt;Node12</title>
<g id="a_edge14_Node000012_Node000009"><a xlink:title=" ">
<path fill="none" stroke="#9a32cd" stroke-dasharray="5,2" d="M514.39,-589.45C572.34,-589.18 672.32,-585.21 699.12,-562 729.86,-535.38 730.77,-481.04 729.79,-459.29"/>
<polygon fill="#9a32cd" stroke="#9a32cd" points="514.57,-585.95 504.57,-589.46 514.57,-592.95 514.57,-585.95"/>
</a>
</g>
<text xml:space="preserve" text-anchor="start" x="716.05" y="-549.5" font-family="Helvetica,sans-Serif" font-size="10.00" fill="grey">ptr</text>
</g>
<!-- Node9&#45;&gt;Node14 -->
<g id="edge18_Node000014_Node000009" class="edge">
<title>Node9&#45;&gt;Node14</title>
<g id="a_edge18_Node000014_Node000009"><a xlink:title=" ">
<path fill="none" stroke="#9a32cd" stroke-dasharray="5,2" d="M514.1,-582.21C576.16,-570.98 685.12,-546.11 685.12,-510 685.12,-510 685.12,-510 685.12,-231 685.12,-179.81 609.26,-164.94 570.44,-160.68"/>
<polygon fill="#9a32cd" stroke="#9a32cd" points="513.83,-578.71 504.59,-583.89 515.04,-585.6 513.83,-578.71"/>
</a>
</g>
<text xml:space="preserve" text-anchor="start" x="688.12" y="-347.5" font-family="Helvetica,sans-Serif" font-size="10.00" fill="grey">func</text>
</g>
<!-- Node15 -->
<g id="Node000015" class="node">
<title>Node15</title>
<g id="a_Node000015"><a xlink:href="structREnv.html" target="_top" xlink:title=" ">
<polygon fill="white" stroke="#666666" points="450.5,-316 409.75,-316 409.75,-296 450.5,-296 450.5,-316"/>
<text xml:space="preserve" text-anchor="middle" x="430.12" y="-302.5" font-family="Helvetica,sans-Serif" font-size="10.00">REnv</text>
</a>
</g>
</g>
<!-- Node9&#45;&gt;Node15 -->
<g id="edge21_Node000015_Node000009" class="edge">
<title>Node9&#45;&gt;Node15</title>
<g id="a_edge21_Node000015_Node000009"><a xlink:title=" ">
<path fill="none" stroke="#9a32cd" stroke-dasharray="5,2" d="M449.25,-572.47C445.86,-569.28 442.66,-565.76 440.12,-562 417.07,-527.88 417.65,-514.66 411.12,-474 401.55,-414.36 419.88,-341.98 427.25,-316.46"/>
<polygon fill="#9a32cd" stroke="#9a32cd" points="446.72,-574.92 456.63,-578.66 451.22,-569.55 446.72,-574.92"/>
</a>
</g>
<text xml:space="preserve" text-anchor="start" x="414.12" y="-445.5" font-family="Helvetica,sans-Serif" font-size="10.00" fill="grey">stack</text>
</g>
<!-- Node9&#45;&gt;Node16 -->
<g id="edge24_Node000016_Node000009" class="edge">
<title>Node9&#45;&gt;Node16</title>
<g id="a_edge24_Node000016_Node000009"><a xlink:title=" ">
<path fill="none" stroke="#9a32cd" stroke-dasharray="5,2" d="M458.17,-570.51C445.27,-551.1 429.3,-519.62 437.88,-492 448.91,-456.46 478.35,-422.41 493.63,-406.45"/>
<polygon fill="#9a32cd" stroke="#9a32cd" points="455.17,-572.33 463.79,-578.48 460.89,-568.29 455.17,-572.33"/>
</a>
</g>
<text xml:space="preserve" text-anchor="start" x="440.88" y="-513.5" font-family="Helvetica,sans-Serif" font-size="10.00" fill="grey">stbase</text>
<text xml:space="preserve" text-anchor="start" x="440.88" y="-497.5" font-family="Helvetica,sans-Serif" font-size="10.00" fill="grey">stend</text>
</g>
<!-- Node10 -->
<g id="Node000010" class="node">
<title>Node10</title>
<g id="a_Node000010"><a xlink:href="unionmrb__value__union.html" target="_top" xlink:title=" ">
<polygon fill="white" stroke="#bfbfbf" points="516.88,-674 427.38,-674 427.38,-654 516.88,-654 516.88,-674"/>
<text xml:space="preserve" text-anchor="middle" x="472.12" y="-660.5" font-family="Helvetica,sans-Serif" font-size="10.00">mrb_value_union</text>
</a>
</g>
</g>
<!-- Node10&#45;&gt;Node9 -->
<g id="edge10_Node000009_Node000010" class="edge">
<title>Node10&#45;&gt;Node9</title>
<g id="a_edge10_Node000009_Node000010"><a xlink:title=" ">
<path fill="none" stroke="#9a32cd" stroke-dasharray="5,2" d="M472.12,-642.18C472.12,-628.29 472.12,-610.71 472.12,-600.19"/>
<polygon fill="#9a32cd" stroke="#9a32cd" points="468.63,-642.07 472.13,-652.07 475.63,-642.07 468.63,-642.07"/>
</a>
</g>
<text xml:space="preserve" text-anchor="start" x="475.12" y="-623.5" font-family="Helvetica,sans-Serif" font-size="10.00" fill="grey">value</text>
</g>
<!-- Node11 -->
<g id="Node000011" class="node">
<title>Node11</title>
<g id="a_Node000011"><a xlink:href="structRClass.html" target="_top" xlink:title=" ">
<polygon fill="white" stroke="#666666" points="606.62,-20 557.62,-20 557.62,0 606.62,0 606.62,-20"/>
<text xml:space="preserve" text-anchor="middle" x="582.12" y="-6.5" font-family="Helvetica,sans-Serif" font-size="10.00">RClass</text>
</a>
</g>
</g>
<!-- Node11&#45;&gt;Node1 -->
<g id="edge30_Node000001_Node000011" class="edge">
<title>Node11&#45;&gt;Node1</title>
<g id="a_edge30_Node000001_Node000011"><a xlink:title=" ">
<path fill="none" stroke="#9a32cd" stroke-dasharray="5,2" d="M588.95,-30.72C593.3,-45.04 598.12,-64.99 598.12,-83 598.12,-196 598.12,-196 598.12,-196 598.12,-319.71 663.84,-379.39 584.12,-474 574.6,-485.3 560.39,-493.23 547.43,-498.56"/>
<polygon fill="#9a32cd" stroke="#9a32cd" points="592.41,-30.04 585.99,-21.61 585.75,-32.21 592.41,-30.04"/>
</a>
</g>
<text xml:space="preserve" text-anchor="start" x="603.86" y="-228.5" font-family="Helvetica,sans-Serif" font-size="10.00" fill="grey">target_class</text>
</g>
<!-- Node11&#45;&gt;Node2 -->
<g id="edge12_Node000002_Node000011" class="edge">
<title>Node11&#45;&gt;Node2</title>
<g id="a_edge12_Node000002_Node000011"><a xlink:title=" ">
<path fill="none" stroke="#9a32cd" stroke-dasharray="5,2" d="M560.65,-27.26C538.23,-45.43 503.75,-76.93 484.88,-112 464.67,-149.55 456.09,-200.63 453.27,-221.51"/>
<polygon fill="#9a32cd" stroke="#9a32cd" points="562.57,-30.2 568.25,-21.26 558.23,-24.71 562.57,-30.2"/>
</a>
</g>
<text xml:space="preserve" text-anchor="start" x="487.88" y="-117.5" font-family="Helvetica,sans-Serif" font-size="10.00" fill="grey">target_class</text>
</g>
<!-- Node11&#45;&gt;Node11 -->
<g id="edge19_Node000011_Node000011" class="edge">
<title>Node11&#45;&gt;Node11</title>
<g id="a_edge19_Node000011_Node000011"><a xlink:title=" ">
<path fill="none" stroke="#9a32cd" stroke-dasharray="5,2" d="M618.17,-15.81C622.09,-14.7 624.62,-12.76 624.62,-10 624.62,-5.09 616.63,-2.78 607.01,-3.09"/>
<polygon fill="#9a32cd" stroke="#9a32cd" points="618.12,-12.3 608.51,-16.76 618.81,-19.27 618.12,-12.3"/>
</a>
</g>
<text xml:space="preserve" text-anchor="start" x="627.62" y="-6.5" font-family="Helvetica,sans-Serif" font-size="10.00" fill="grey">super</text>
</g>
<!-- Node12&#45;&gt;Node11 -->
<g id="edge13_Node000011_Node000012" class="edge">
<title>Node12&#45;&gt;Node11</title>
<g id="a_edge13_Node000011_Node000012"><a xlink:title=" ">
<path fill="none" stroke="#9a32cd" stroke-dasharray="5,2" d="M729.8,-427.38C730.38,-407.94 731.12,-377.99 731.12,-352 731.12,-352 731.12,-352 731.12,-83 731.12,-28.56 649.48,-15.26 607.06,-12.03"/>
<polygon fill="#9a32cd" stroke="#9a32cd" points="726.31,-427.12 729.49,-437.22 733.31,-427.34 726.31,-427.12"/>
</a>
</g>
<text xml:space="preserve" text-anchor="start" x="734.12" y="-228.5" font-family="Helvetica,sans-Serif" font-size="10.00" fill="grey">iv</text>
</g>
<!-- Node13 -->
<g id="Node000013" class="node">
<title>Node13</title>
<g id="a_Node000013"><a xlink:href="structmt__tbl.html" target="_top" xlink:title=" ">
<polygon fill="white" stroke="#bfbfbf" points="569.62,-94 526.62,-94 526.62,-74 569.62,-74 569.62,-94"/>
<text xml:space="preserve" text-anchor="middle" x="548.12" y="-80.5" font-family="Helvetica,sans-Serif" font-size="10.00">mt_tbl</text>
</a>
</g>
</g>
<!-- Node13&#45;&gt;Node11 -->
<g id="edge15_Node000011_Node000013" class="edge">
<title>Node13&#45;&gt;Node11</title>
<g id="a_edge15_Node000011_Node000013"><a xlink:title=" ">
<path fill="none" stroke="#9a32cd" stroke-dasharray="5,2" d="M555.82,-63.09C559.03,-55.19 562.93,-46.07 566.88,-38 569.81,-32 573.47,-25.48 576.48,-20.35"/>
<polygon fill="#9a32cd" stroke="#9a32cd" points="552.67,-61.55 552.24,-72.14 559.18,-64.13 552.67,-61.55"/>
</a>
</g>
<text xml:space="preserve" text-anchor="start" x="569.88" y="-43.5" font-family="Helvetica,sans-Serif" font-size="10.00" fill="grey">mt</text>
</g>
<!-- Node14&#45;&gt;Node13 -->
<g id="edge16_Node000013_Node000014" class="edge">
<title>Node14&#45;&gt;Node13</title>
<g id="a_edge16_Node000013_Node000014"><a xlink:title=" ">
<path fill="none" stroke="#9a32cd" stroke-dasharray="5,2" d="M548.12,-136.18C548.12,-122.29 548.12,-104.71 548.12,-94.19"/>
<polygon fill="#9a32cd" stroke="#9a32cd" points="544.63,-136.07 548.13,-146.07 551.63,-136.07 544.63,-136.07"/>
</a>
</g>
<text xml:space="preserve" text-anchor="start" x="551.12" y="-117.5" font-family="Helvetica,sans-Serif" font-size="10.00" fill="grey">ptr</text>
</g>
<!-- Node15&#45;&gt;Node1 -->
<g id="edge29_Node000001_Node000015" class="edge">
<title>Node15&#45;&gt;Node1</title>
<g id="a_edge29_Node000001_Node000015"><a xlink:title=" ">
<path fill="none" stroke="#9a32cd" stroke-dasharray="5,2" d="M428.24,-327.82C427.16,-348.39 427.58,-380.39 437.38,-406 452.4,-445.28 487.83,-481.88 505.59,-498.55"/>
<polygon fill="#9a32cd" stroke="#9a32cd" points="431.73,-328.13 428.96,-317.9 424.75,-327.62 431.73,-328.13"/>
</a>
</g>
<text xml:space="preserve" text-anchor="start" x="440.38" y="-392.5" font-family="Helvetica,sans-Serif" font-size="10.00" fill="grey">env</text>
</g>
<!-- Node15&#45;&gt;Node2 -->
<g id="edge20_Node000002_Node000015" class="edge">
<title>Node15&#45;&gt;Node2</title>
<g id="a_edge20_Node000002_Node000015"><a xlink:title=" ">
<path fill="none" stroke="#9a32cd" stroke-dasharray="5,2" d="M436.36,-284.6C440.62,-270.65 446.07,-252.82 449.32,-242.19"/>
<polygon fill="#9a32cd" stroke="#9a32cd" points="433.02,-283.55 433.44,-294.14 439.71,-285.6 433.02,-283.55"/>
</a>
</g>
<text xml:space="preserve" text-anchor="start" x="446.74" y="-265.5" font-family="Helvetica,sans-Serif" font-size="10.00" fill="grey">env</text>
</g>
<!-- Node16&#45;&gt;Node15 -->
<g id="edge22_Node000015_Node000016" class="edge">
<title>Node16&#45;&gt;Node15</title>
<g id="a_edge22_Node000015_Node000016"><a xlink:title=" ">
<path fill="none" stroke="#9a32cd" stroke-dasharray="5,2" d="M484.06,-377.87C480.81,-374.69 477.54,-371.32 474.62,-368 459.56,-350.87 444.42,-328.85 436.26,-316.49"/>
<polygon fill="#9a32cd" stroke="#9a32cd" points="481.6,-380.35 491.28,-384.65 486.39,-375.25 481.6,-380.35"/>
</a>
</g>
<text xml:space="preserve" text-anchor="start" x="477.62" y="-347.5" font-family="Helvetica,sans-Serif" font-size="10.00" fill="grey">cxt</text>
</g>
<!-- Node16&#45;&gt;Node16 -->
<g id="edge23_Node000016_Node000016" class="edge">
<title>Node16&#45;&gt;Node16</title>
<g id="a_edge23_Node000016_Node000016"><a xlink:title=" ">
<path fill="none" stroke="#9a32cd" stroke-dasharray="5,2" d="M549.4,-402.67C553.53,-401.27 556.12,-399.05 556.12,-396 556.12,-390.73 548.36,-387.93 538.29,-387.6"/>
<polygon fill="#9a32cd" stroke="#9a32cd" points="549.13,-399.17 539.79,-404.17 550.21,-406.08 549.13,-399.17"/>
</a>
</g>
<text xml:space="preserve" text-anchor="start" x="559.12" y="-392.5" font-family="Helvetica,sans-Serif" font-size="10.00" fill="grey">prev</text>
</g>
<!-- Node17 -->
<g id="Node000017" class="node">
<title>Node17</title>
<g id="a_Node000017"><a xlink:href="structRFiber.html" target="_top" xlink:title=" ">
<polygon fill="white" stroke="#bfbfbf" points="547.75,-316 502.5,-316 502.5,-296 547.75,-296 547.75,-316"/>
<text xml:space="preserve" text-anchor="middle" x="525.12" y="-302.5" font-family="Helvetica,sans-Serif" font-size="10.00">RFiber</text>
</a>
</g>
</g>
<!-- Node16&#45;&gt;Node17 -->
<g id="edge27_Node000017_Node000016" class="edge">
<title>Node16&#45;&gt;Node17</title>
<g id="a_edge27_Node000017_Node000016"><a xlink:title=" ">
<path fill="none" stroke="#9a32cd" stroke-dasharray="5,2" d="M498.85,-374.35C497.25,-362.22 496.83,-346.81 501.62,-334 504.15,-327.25 509.21,-321.07 513.99,-316.34"/>
<polygon fill="#9a32cd" stroke="#9a32cd" points="495.38,-374.79 500.52,-384.06 502.28,-373.61 495.38,-374.79"/>
</a>
</g>
<text xml:space="preserve" text-anchor="start" x="504.62" y="-347.5" font-family="Helvetica,sans-Serif" font-size="10.00" fill="grey">cxt</text>
</g>
<!-- Node17&#45;&gt;Node16 -->
<g id="edge26_Node000016_Node000017" class="edge">
<title>Node17&#45;&gt;Node16</title>
<g id="a_edge26_Node000016_Node000017"><a xlink:title=" ">
<path fill="none" stroke="#9a32cd" stroke-dasharray="5,2" d="M528.5,-327.6C529.67,-339.71 529.71,-355.12 525.12,-368 522.77,-374.61 518.04,-380.77 513.56,-385.54"/>
<polygon fill="#9a32cd" stroke="#9a32cd" points="532,-327.38 527.22,-317.92 525.06,-328.3 532,-327.38"/>
</a>
</g>
<text xml:space="preserve" text-anchor="start" x="532.16" y="-347.5" font-family="Helvetica,sans-Serif" font-size="10.00" fill="grey">fib</text>
</g>
</g>
</svg>
