<?xml version="1.0" encoding="UTF-8" standalone="no"?>
<!DOCTYPE svg PUBLIC "-//W3C//DTD SVG 1.1//EN"
 "http://www.w3.org/Graphics/SVG/1.1/DTD/svg11.dtd">
<!-- Generated by graphviz version 14.0.5 (0)
 -->
<!-- Title: REnv Pages: 1 -->
<svg width="588pt" height="848pt"
 viewBox="0.00 0.00 588.00 848.00" xmlns="http://www.w3.org/2000/svg" xmlns:xlink="http://www.w3.org/1999/xlink">
<g id="graph0" class="graph" transform="scale(1 1) rotate(0) translate(4 844)">
<title>REnv</title>
<!-- Node1 -->
<g id="Node000001" class="node">
<title>Node1</title>
<g id="a_Node000001"><a xlink:title=" ">
<polygon fill="#999999" stroke="#666666" points="428.5,-602 387.75,-602 387.75,-582 428.5,-582 428.5,-602"/>
<text xml:space="preserve" text-anchor="middle" x="408.12" y="-588.5" font-family="Helvetica,sans-Serif" font-size="10.00">REnv</text>
</a>
</g>
</g>
<!-- Node5 -->
<g id="Node000005" class="node">
<title>Node5</title>
<g id="a_Node000005"><a xlink:href="structmrb__callinfo.html" target="_top" xlink:title=" ">
<polygon fill="white" stroke="#bfbfbf" points="424.38,-200 355.88,-200 355.88,-180 424.38,-180 424.38,-200"/>
<text xml:space="preserve" text-anchor="middle" x="390.12" y="-186.5" font-family="Helvetica,sans-Serif" font-size="10.00">mrb_callinfo</text>
</a>
</g>
</g>
<!-- Node1&#45;&gt;Node5 -->
<g id="edge27_Node000005_Node000001" class="edge">
<title>Node1&#45;&gt;Node5</title>
<g id="a_edge27_Node000005_Node000001"><a xlink:title=" ">
<path fill="none" stroke="#9a32cd" stroke-dasharray="5,2" d="M412.33,-570.5C412.65,-568.31 412.93,-566.12 413.12,-564 413.94,-555.15 413.41,-552.88 413.12,-544 408.72,-407.12 394.54,-240.85 390.95,-200.26"/>
<polygon fill="#9a32cd" stroke="#9a32cd" points="408.93,-569.61 410.58,-580.07 415.82,-570.86 408.93,-569.61"/>
</a>
</g>
<text xml:space="preserve" text-anchor="start" x="409.78" y="-393.5" font-family="Helvetica,sans-Serif" font-size="10.00" fill="grey">env</text>
</g>
<!-- Node6 -->
<g id="Node000006" class="node">
<title>Node6</title>
<g id="a_Node000006"><a xlink:href="structRProc.html" target="_top" xlink:title=" ">
<polygon fill="white" stroke="#bfbfbf" points="227,-526 183.25,-526 183.25,-506 227,-506 227,-526"/>
<text xml:space="preserve" text-anchor="middle" x="205.12" y="-512.5" font-family="Helvetica,sans-Serif" font-size="10.00">RProc</text>
</a>
</g>
</g>
<!-- Node1&#45;&gt;Node6 -->
<g id="edge25_Node000006_Node000001" class="edge">
<title>Node1&#45;&gt;Node6</title>
<g id="a_edge25_Node000006_Node000001"><a xlink:title=" ">
<path fill="none" stroke="#9a32cd" stroke-dasharray="5,2" d="M396.77,-572.13C389.78,-562.17 379.89,-550.66 368.12,-544 344.41,-530.58 266.11,-522.21 227.31,-518.78"/>
<polygon fill="#9a32cd" stroke="#9a32cd" points="393.78,-573.94 402.16,-580.42 399.64,-570.13 393.78,-573.94"/>
</a>
</g>
<text xml:space="preserve" text-anchor="start" x="393.51" y="-550.5" font-family="Helvetica,sans-Serif" font-size="10.00" fill="grey">env</text>
</g>
<!-- Node2 -->
<g id="Node000002" class="node">
<title>Node2</title>
<g id="a_Node000002"><a xlink:href="structmrb__value.html" target="_top" xlink:title=" ">
<polygon fill="white" stroke="#bfbfbf" points="404.62,-692 343.62,-692 343.62,-672 404.62,-672 404.62,-692"/>
<text xml:space="preserve" text-anchor="middle" x="374.12" y="-678.5" font-family="Helvetica,sans-Serif" font-size="10.00">mrb_value</text>
</a>
</g>
</g>
<!-- Node2&#45;&gt;Node1 -->
<g id="edge1_Node000001_Node000002" class="edge">
<title>Node2&#45;&gt;Node1</title>
<g id="a_edge1_Node000001_Node000002"><a xlink:title=" ">
<path fill="none" stroke="#9a32cd" stroke-dasharray="5,2" d="M381.9,-660.88C388.99,-642.52 399.16,-616.2 404.51,-602.35"/>
<polygon fill="#9a32cd" stroke="#9a32cd" points="378.65,-659.58 378.31,-670.17 385.18,-662.1 378.65,-659.58"/>
</a>
</g>
<text xml:space="preserve" text-anchor="start" x="400.13" y="-633.5" font-family="Helvetica,sans-Serif" font-size="10.00" fill="grey">stack</text>
</g>
<!-- Node4 -->
<g id="Node000004" class="node">
<title>Node4</title>
<g id="a_Node000004"><a xlink:href="structmrb__context.html" target="_top" xlink:title=" ">
<polygon fill="white" stroke="#bfbfbf" points="487.12,-94 417.12,-94 417.12,-74 487.12,-74 487.12,-94"/>
<text xml:space="preserve" text-anchor="middle" x="452.12" y="-80.5" font-family="Helvetica,sans-Serif" font-size="10.00">mrb_context</text>
</a>
</g>
</g>
<!-- Node2&#45;&gt;Node4 -->
<g id="edge5_Node000004_Node000002" class="edge">
<title>Node2&#45;&gt;Node4</title>
<g id="a_edge5_Node000004_Node000002"><a xlink:title=" ">
<path fill="none" stroke="#9a32cd" stroke-dasharray="5,2" d="M415.92,-670.55C452.59,-658.57 500.12,-634.95 500.12,-593 500.12,-593 500.12,-593 500.12,-189 500.12,-151.02 473.41,-111.82 459.84,-94.36"/>
<polygon fill="#9a32cd" stroke="#9a32cd" points="414.94,-667.19 406.4,-673.45 416.98,-673.88 414.94,-667.19"/>
</a>
</g>
<text xml:space="preserve" text-anchor="start" x="503.12" y="-401.5" font-family="Helvetica,sans-Serif" font-size="10.00" fill="grey">stbase</text>
<text xml:space="preserve" text-anchor="start" x="503.12" y="-385.5" font-family="Helvetica,sans-Serif" font-size="10.00" fill="grey">stend</text>
</g>
<!-- Node2&#45;&gt;Node5 -->
<g id="edge26_Node000005_Node000002" class="edge">
<title>Node2&#45;&gt;Node5</title>
<g id="a_edge26_Node000005_Node000002"><a xlink:title=" ">
<path fill="none" stroke="#9a32cd" stroke-dasharray="5,2" d="M416.09,-676.74C451.42,-672.46 498.61,-664.94 514.12,-654 539.85,-635.86 550.12,-624.48 550.12,-593 550.12,-593 550.12,-593 550.12,-263 550.12,-208.48 471.9,-195 424.84,-191.82"/>
<polygon fill="#9a32cd" stroke="#9a32cd" points="416.12,-673.21 406.59,-677.84 416.93,-680.16 416.12,-673.21"/>
</a>
</g>
<text xml:space="preserve" text-anchor="start" x="553.12" y="-438.5" font-family="Helvetica,sans-Serif" font-size="10.00" fill="grey">stack</text>
</g>
<!-- Node2&#45;&gt;Node6 -->
<g id="edge15_Node000006_Node000002" class="edge">
<title>Node2&#45;&gt;Node6</title>
<g id="a_edge15_Node000006_Node000002"><a xlink:title=" ">
<path fill="none" stroke="#9a32cd" stroke-dasharray="5,2" d="M332.28,-672.89C318.82,-668.82 304.46,-662.81 293.12,-654 246.93,-618.09 217.9,-550.68 208.49,-526.19"/>
<polygon fill="#9a32cd" stroke="#9a32cd" points="331.27,-676.24 341.84,-675.47 333.1,-669.48 331.27,-676.24"/>
</a>
</g>
<text xml:space="preserve" text-anchor="start" x="249.23" y="-588.5" font-family="Helvetica,sans-Serif" font-size="10.00" fill="grey">func</text>
</g>
<!-- Node14 -->
<g id="Node000014" class="node">
<title>Node14</title>
<g id="a_Node000014"><a xlink:href="structiv__tbl.html" target="_top" xlink:title=" ">
<polygon fill="white" stroke="#bfbfbf" points="318.75,-564 279.5,-564 279.5,-544 318.75,-544 318.75,-564"/>
<text xml:space="preserve" text-anchor="middle" x="299.12" y="-550.5" font-family="Helvetica,sans-Serif" font-size="10.00">iv_tbl</text>
</a>
</g>
</g>
<!-- Node2&#45;&gt;Node14 -->
<g id="edge19_Node000014_Node000002" class="edge">
<title>Node2&#45;&gt;Node14</title>
<g id="a_edge19_Node000014_Node000002"><a xlink:title=" ">
<path fill="none" stroke="#9a32cd" stroke-dasharray="5,2" d="M332.56,-670.6C324.23,-666.68 316.36,-661.32 310.88,-654 290.54,-626.85 294.46,-583.24 297.41,-564.29"/>
<polygon fill="#9a32cd" stroke="#9a32cd" points="331.23,-673.83 341.82,-674.26 333.81,-667.33 331.23,-673.83"/>
</a>
</g>
<text xml:space="preserve" text-anchor="start" x="313.88" y="-633.5" font-family="Helvetica,sans-Serif" font-size="10.00" fill="grey">ptr</text>
</g>
<!-- Node16 -->
<g id="Node000016" class="node">
<title>Node16</title>
<g id="a_Node000016"><a xlink:href="unionmt__ptr.html" target="_top" xlink:title=" ">
<polygon fill="white" stroke="#bfbfbf" points="282,-452 238.25,-452 238.25,-432 282,-432 282,-452"/>
<text xml:space="preserve" text-anchor="middle" x="260.12" y="-438.5" font-family="Helvetica,sans-Serif" font-size="10.00">mt_ptr</text>
</a>
</g>
</g>
<!-- Node2&#45;&gt;Node16 -->
<g id="edge23_Node000016_Node000002" class="edge">
<title>Node2&#45;&gt;Node16</title>
<g id="a_edge23_Node000016_Node000002"><a xlink:title=" ">
<path fill="none" stroke="#9a32cd" stroke-dasharray="5,2" d="M367.41,-661.08C358.03,-634.03 339.93,-584.41 320.12,-544 302.98,-509.02 278.02,-470.01 266.45,-452.46"/>
<polygon fill="#9a32cd" stroke="#9a32cd" points="364.04,-662.05 370.59,-670.38 370.66,-659.78 364.04,-662.05"/>
</a>
</g>
<text xml:space="preserve" text-anchor="start" x="332.28" y="-550.5" font-family="Helvetica,sans-Serif" font-size="10.00" fill="grey">func</text>
</g>
<!-- Node3 -->
<g id="Node000003" class="node">
<title>Node3</title>
<g id="a_Node000003"><a xlink:href="unionmrb__value__union.html" target="_top" xlink:title=" ">
<polygon fill="white" stroke="#bfbfbf" points="418.88,-766 329.38,-766 329.38,-746 418.88,-746 418.88,-766"/>
<text xml:space="preserve" text-anchor="middle" x="374.12" y="-752.5" font-family="Helvetica,sans-Serif" font-size="10.00">mrb_value_union</text>
</a>
</g>
</g>
<!-- Node3&#45;&gt;Node2 -->
<g id="edge2_Node000002_Node000003" class="edge">
<title>Node3&#45;&gt;Node2</title>
<g id="a_edge2_Node000002_Node000003"><a xlink:title=" ">
<path fill="none" stroke="#9a32cd" stroke-dasharray="5,2" d="M374.12,-734.18C374.12,-720.29 374.12,-702.71 374.12,-692.19"/>
<polygon fill="#9a32cd" stroke="#9a32cd" points="370.63,-734.07 374.13,-744.07 377.63,-734.07 370.63,-734.07"/>
</a>
</g>
<text xml:space="preserve" text-anchor="start" x="377.12" y="-715.5" font-family="Helvetica,sans-Serif" font-size="10.00" fill="grey">value</text>
</g>
<!-- Node4&#45;&gt;Node1 -->
<g id="edge3_Node000001_Node000004" class="edge">
<title>Node4&#45;&gt;Node1</title>
<g id="a_edge3_Node000001_Node000004"><a xlink:title=" ">
<path fill="none" stroke="#9a32cd" stroke-dasharray="5,2" d="M452.12,-105.79C452.12,-126.78 452.12,-160.14 452.12,-189 452.12,-517 452.12,-517 452.12,-517 452.12,-543.31 431.33,-568.42 418.33,-581.54"/>
<polygon fill="#9a32cd" stroke="#9a32cd" points="455.63,-105.98 452.13,-95.98 448.63,-105.98 455.63,-105.98"/>
</a>
</g>
<text xml:space="preserve" text-anchor="start" x="455.12" y="-341.5" font-family="Helvetica,sans-Serif" font-size="10.00" fill="grey">cxt</text>
</g>
<!-- Node4&#45;&gt;Node4 -->
<g id="edge4_Node000004_Node000004" class="edge">
<title>Node4&#45;&gt;Node4</title>
<g id="a_edge4_Node000004_Node000004"><a xlink:title=" ">
<path fill="none" stroke="#9a32cd" stroke-dasharray="5,2" d="M498.4,-89.48C502.53,-88.33 505.12,-86.51 505.12,-84 505.12,-79.66 497.36,-77.36 487.29,-77.09"/>
<polygon fill="#9a32cd" stroke="#9a32cd" points="498.27,-85.97 488.79,-90.72 499.16,-92.91 498.27,-85.97"/>
</a>
</g>
<text xml:space="preserve" text-anchor="start" x="508.12" y="-80.5" font-family="Helvetica,sans-Serif" font-size="10.00" fill="grey">prev</text>
</g>
<!-- Node17 -->
<g id="Node000017" class="node">
<title>Node17</title>
<g id="a_Node000017"><a xlink:href="structRFiber.html" target="_top" xlink:title=" ">
<polygon fill="white" stroke="#bfbfbf" points="474.75,-20 429.5,-20 429.5,0 474.75,0 474.75,-20"/>
<text xml:space="preserve" text-anchor="middle" x="452.12" y="-6.5" font-family="Helvetica,sans-Serif" font-size="10.00">RFiber</text>
</a>
</g>
</g>
<!-- Node4&#45;&gt;Node17 -->
<g id="edge30_Node000017_Node000004" class="edge">
<title>Node4&#45;&gt;Node17</title>
<g id="a_edge30_Node000017_Node000004"><a xlink:title=" ">
<path fill="none" stroke="#9a32cd" stroke-dasharray="5,2" d="M433.56,-65.03C431.55,-62.2 429.81,-59.16 428.62,-56 425.82,-48.51 425.82,-45.49 428.62,-38 431.15,-31.25 436.21,-25.07 440.99,-20.34"/>
<polygon fill="#9a32cd" stroke="#9a32cd" points="430.83,-67.22 440.01,-72.52 436.14,-62.65 430.83,-67.22"/>
</a>
</g>
<text xml:space="preserve" text-anchor="start" x="431.62" y="-43.5" font-family="Helvetica,sans-Serif" font-size="10.00" fill="grey">cxt</text>
</g>
<!-- Node5&#45;&gt;Node4 -->
<g id="edge6_Node000004_Node000005" class="edge">
<title>Node5&#45;&gt;Node4</title>
<g id="a_edge6_Node000004_Node000005"><a xlink:title=" ">
<path fill="none" stroke="#9a32cd" stroke-dasharray="5,2" d="M389.08,-168.8C389.23,-152.12 391.84,-128.57 403.62,-112 409.04,-104.38 417.32,-98.66 425.51,-94.49"/>
<polygon fill="#9a32cd" stroke="#9a32cd" points="385.58,-168.56 389.31,-178.48 392.58,-168.4 385.58,-168.56"/>
</a>
</g>
<text xml:space="preserve" text-anchor="start" x="406.62" y="-149.5" font-family="Helvetica,sans-Serif" font-size="10.00" fill="grey">ci</text>
<text xml:space="preserve" text-anchor="start" x="406.62" y="-133.5" font-family="Helvetica,sans-Serif" font-size="10.00" fill="grey">cibase</text>
<text xml:space="preserve" text-anchor="start" x="406.62" y="-117.5" font-family="Helvetica,sans-Serif" font-size="10.00" fill="grey">ciend</text>
</g>
<!-- Node6&#45;&gt;Node5 -->
<g id="edge7_Node000005_Node000006" class="edge">
<title>Node6&#45;&gt;Node5</title>
<g id="a_edge7_Node000005_Node000006"><a xlink:title=" ">
<path fill="none" stroke="#9a32cd" stroke-dasharray="5,2" d="M182.67,-498.2C167.84,-485.04 151.12,-465.26 151.12,-443 151.12,-443 151.12,-443 151.12,-263 151.12,-220.8 289.44,-201.14 355.63,-194.15"/>
<polygon fill="#9a32cd" stroke="#9a32cd" points="180.4,-500.86 190.33,-504.55 184.86,-495.47 180.4,-500.86"/>
</a>
</g>
<text xml:space="preserve" text-anchor="start" x="154.12" y="-349.5" font-family="Helvetica,sans-Serif" font-size="10.00" fill="grey">blk</text>
<text xml:space="preserve" text-anchor="start" x="154.12" y="-333.5" font-family="Helvetica,sans-Serif" font-size="10.00" fill="grey">proc</text>
</g>
<!-- Node6&#45;&gt;Node6 -->
<g id="edge16_Node000006_Node000006" class="edge">
<title>Node6&#45;&gt;Node6</title>
<g id="a_edge16_Node000006_Node000006"><a xlink:title=" ">
<path fill="none" stroke="#9a32cd" stroke-dasharray="5,2" d="M238.45,-521.96C242.41,-520.87 245,-518.89 245,-516 245,-510.87 236.82,-508.58 227.27,-509.15"/>
<polygon fill="#9a32cd" stroke="#9a32cd" points="238.46,-518.44 228.78,-522.73 239.02,-525.42 238.46,-518.44"/>
</a>
</g>
<text xml:space="preserve" text-anchor="start" x="248" y="-512.5" font-family="Helvetica,sans-Serif" font-size="10.00" fill="grey">upper</text>
</g>
<!-- Node6&#45;&gt;Node16 -->
<g id="edge22_Node000016_Node000006" class="edge">
<title>Node6&#45;&gt;Node16</title>
<g id="a_edge22_Node000016_Node000006"><a xlink:title=" ">
<path fill="none" stroke="#9a32cd" stroke-dasharray="5,2" d="M219.12,-496.68C229.98,-482.47 244.58,-463.36 253.11,-452.19"/>
<polygon fill="#9a32cd" stroke="#9a32cd" points="216.52,-494.31 213.23,-504.38 222.09,-498.56 216.52,-494.31"/>
</a>
</g>
<text xml:space="preserve" text-anchor="start" x="242.17" y="-475.5" font-family="Helvetica,sans-Serif" font-size="10.00" fill="grey">proc</text>
</g>
<!-- Node7 -->
<g id="Node000007" class="node">
<title>Node7</title>
<g id="a_Node000007"><a xlink:href="structmrb__irep.html" target="_top" xlink:title=" ">
<polygon fill="white" stroke="#bfbfbf" points="164.88,-602 111.38,-602 111.38,-582 164.88,-582 164.88,-602"/>
<text xml:space="preserve" text-anchor="middle" x="138.12" y="-588.5" font-family="Helvetica,sans-Serif" font-size="10.00">mrb_irep</text>
</a>
</g>
</g>
<!-- Node7&#45;&gt;Node6 -->
<g id="edge8_Node000006_Node000007" class="edge">
<title>Node7&#45;&gt;Node6</title>
<g id="a_edge8_Node000006_Node000007"><a xlink:title=" ">
<path fill="none" stroke="#9a32cd" stroke-dasharray="5,2" d="M154.2,-573.24C167.66,-558.38 186.33,-537.76 196.92,-526.06"/>
<polygon fill="#9a32cd" stroke="#9a32cd" points="151.74,-570.74 147.63,-580.51 156.93,-575.44 151.74,-570.74"/>
</a>
</g>
<text xml:space="preserve" text-anchor="start" x="182.6" y="-550.5" font-family="Helvetica,sans-Serif" font-size="10.00" fill="grey">irep</text>
</g>
<!-- Node7&#45;&gt;Node7 -->
<g id="edge11_Node000007_Node000007" class="edge">
<title>Node7&#45;&gt;Node7</title>
<g id="a_edge11_Node000007_Node000007"><a xlink:title=" ">
<path fill="none" stroke="#9a32cd" stroke-dasharray="5,2" d="M176.44,-597.87C180.37,-596.71 182.88,-594.76 182.88,-592 182.88,-587.1 174.94,-584.73 165.21,-584.88"/>
<polygon fill="#9a32cd" stroke="#9a32cd" points="176.27,-594.37 166.72,-598.95 177.04,-601.32 176.27,-594.37"/>
</a>
</g>
<text xml:space="preserve" text-anchor="start" x="185.88" y="-588.5" font-family="Helvetica,sans-Serif" font-size="10.00" fill="grey">reps</text>
</g>
<!-- Node8 -->
<g id="Node000008" class="node">
<title>Node8</title>
<g id="a_Node000008"><a xlink:href="structmrb__pool__value.html" target="_top" xlink:title=" ">
<polygon fill="white" stroke="#bfbfbf" points="84.25,-692 0,-692 0,-672 84.25,-672 84.25,-692"/>
<text xml:space="preserve" text-anchor="middle" x="42.12" y="-678.5" font-family="Helvetica,sans-Serif" font-size="10.00">mrb_pool_value</text>
</a>
</g>
</g>
<!-- Node8&#45;&gt;Node7 -->
<g id="edge9_Node000007_Node000008" class="edge">
<title>Node8&#45;&gt;Node7</title>
<g id="a_edge9_Node000007_Node000008"><a xlink:title=" ">
<path fill="none" stroke="#9a32cd" stroke-dasharray="5,2" d="M57.51,-663.56C69,-650.91 85.39,-633.7 101.12,-620 108.32,-613.73 116.9,-607.41 123.99,-602.46"/>
<polygon fill="#9a32cd" stroke="#9a32cd" points="55.16,-660.93 51.09,-670.71 60.37,-665.6 55.16,-660.93"/>
</a>
</g>
<text xml:space="preserve" text-anchor="start" x="104.12" y="-633.5" font-family="Helvetica,sans-Serif" font-size="10.00" fill="grey">pool</text>
</g>
<!-- Node9 -->
<g id="Node000009" class="node">
<title>Node9</title>
<g id="a_Node000009"><a xlink:href="classmrb__sym.html" target="_top" xlink:title=" ">
<polygon fill="white" stroke="#666666" points="158.38,-692 101.88,-692 101.88,-672 158.38,-672 158.38,-692"/>
<text xml:space="preserve" text-anchor="middle" x="130.12" y="-678.5" font-family="Helvetica,sans-Serif" font-size="10.00">mrb_sym</text>
</a>
</g>
</g>
<!-- Node9&#45;&gt;Node7 -->
<g id="edge10_Node000007_Node000009" class="edge">
<title>Node9&#45;&gt;Node7</title>
<g id="a_edge10_Node000007_Node000009"><a xlink:title=" ">
<path fill="none" stroke="#9a32cd" stroke-dasharray="5,2" d="M129.26,-660.51C129.05,-648.63 129.3,-633.41 131.12,-620 131.93,-614.05 133.6,-607.53 135.11,-602.39"/>
<polygon fill="#9a32cd" stroke="#9a32cd" points="125.75,-660.45 129.56,-670.34 132.75,-660.24 125.75,-660.45"/>
</a>
</g>
<text xml:space="preserve" text-anchor="start" x="134.12" y="-641.5" font-family="Helvetica,sans-Serif" font-size="10.00" fill="grey">lv</text>
<text xml:space="preserve" text-anchor="start" x="134.12" y="-625.5" font-family="Helvetica,sans-Serif" font-size="10.00" fill="grey">syms</text>
</g>
<!-- Node10 -->
<g id="Node000010" class="node">
<title>Node10</title>
<g id="a_Node000010"><a xlink:href="structmrb__irep__debug__info.html" target="_top" xlink:title=" ">
<polygon fill="white" stroke="#bfbfbf" points="282.12,-692 176.12,-692 176.12,-672 282.12,-672 282.12,-692"/>
<text xml:space="preserve" text-anchor="middle" x="229.12" y="-678.5" font-family="Helvetica,sans-Serif" font-size="10.00">mrb_irep_debug_info</text>
</a>
</g>
</g>
<!-- Node10&#45;&gt;Node7 -->
<g id="edge12_Node000007_Node000010" class="edge">
<title>Node10&#45;&gt;Node7</title>
<g id="a_edge12_Node000007_Node000010"><a xlink:title=" ">
<path fill="none" stroke="#9a32cd" stroke-dasharray="5,2" d="M199.53,-665.94C194.01,-662.43 188.52,-658.41 183.88,-654 170.69,-641.48 172.09,-634.5 161.12,-620 156.52,-613.91 150.98,-607.39 146.49,-602.28"/>
<polygon fill="#9a32cd" stroke="#9a32cd" points="197.63,-668.88 208.03,-670.91 201.17,-662.84 197.63,-668.88"/>
</a>
</g>
<text xml:space="preserve" text-anchor="start" x="186.88" y="-633.5" font-family="Helvetica,sans-Serif" font-size="10.00" fill="grey">debug_info</text>
</g>
<!-- Node11 -->
<g id="Node000011" class="node">
<title>Node11</title>
<g id="a_Node000011"><a xlink:href="structmrb__irep__debug__info__file.html" target="_top" xlink:title=" ">
<polygon fill="white" stroke="#bfbfbf" points="291.12,-766 167.12,-766 167.12,-746 291.12,-746 291.12,-766"/>
<text xml:space="preserve" text-anchor="middle" x="229.12" y="-752.5" font-family="Helvetica,sans-Serif" font-size="10.00">mrb_irep_debug_info_file</text>
</a>
</g>
</g>
<!-- Node11&#45;&gt;Node10 -->
<g id="edge13_Node000010_Node000011" class="edge">
<title>Node11&#45;&gt;Node10</title>
<g id="a_edge13_Node000010_Node000011"><a xlink:title=" ">
<path fill="none" stroke="#9a32cd" stroke-dasharray="5,2" d="M229.12,-734.18C229.12,-720.29 229.12,-702.71 229.12,-692.19"/>
<polygon fill="#9a32cd" stroke="#9a32cd" points="225.63,-734.07 229.13,-744.07 232.63,-734.07 225.63,-734.07"/>
</a>
</g>
<text xml:space="preserve" text-anchor="start" x="232.12" y="-715.5" font-family="Helvetica,sans-Serif" font-size="10.00" fill="grey">files</text>
</g>
<!-- Node12 -->
<g id="Node000012" class="node">
<title>Node12</title>
<g id="a_Node000012"><a xlink:href="structmrb__irep__debug__info__line.html" target="_top" xlink:title=" ">
<polygon fill="white" stroke="#bfbfbf" points="292.25,-840 166,-840 166,-820 292.25,-820 292.25,-840"/>
<text xml:space="preserve" text-anchor="middle" x="229.12" y="-826.5" font-family="Helvetica,sans-Serif" font-size="10.00">mrb_irep_debug_info_line</text>
</a>
</g>
</g>
<!-- Node12&#45;&gt;Node11 -->
<g id="edge14_Node000011_Node000012" class="edge">
<title>Node12&#45;&gt;Node11</title>
<g id="a_edge14_Node000011_Node000012"><a xlink:title=" ">
<path fill="none" stroke="#9a32cd" stroke-dasharray="5,2" d="M229.12,-808.18C229.12,-794.29 229.12,-776.71 229.12,-766.19"/>
<polygon fill="#9a32cd" stroke="#9a32cd" points="225.63,-808.07 229.13,-818.07 232.63,-808.07 225.63,-808.07"/>
</a>
</g>
<text xml:space="preserve" text-anchor="start" x="232.12" y="-789.5" font-family="Helvetica,sans-Serif" font-size="10.00" fill="grey">flat_map</text>
</g>
<!-- Node13 -->
<g id="Node000013" class="node">
<title>Node13</title>
<g id="a_Node000013"><a xlink:href="structRClass.html" target="_top" xlink:title=" ">
<polygon fill="white" stroke="#666666" points="315.62,-274 266.62,-274 266.62,-254 315.62,-254 315.62,-274"/>
<text xml:space="preserve" text-anchor="middle" x="291.12" y="-260.5" font-family="Helvetica,sans-Serif" font-size="10.00">RClass</text>
</a>
</g>
</g>
<!-- Node13&#45;&gt;Node5 -->
<g id="edge28_Node000005_Node000013" class="edge">
<title>Node13&#45;&gt;Node5</title>
<g id="a_edge28_Node000005_Node000013"><a xlink:title=" ">
<path fill="none" stroke="#9a32cd" stroke-dasharray="5,2" d="M305.13,-244.88C312.66,-235.99 322.52,-225.58 332.88,-218 342.54,-210.93 354.35,-204.98 364.73,-200.49"/>
<polygon fill="#9a32cd" stroke="#9a32cd" points="302.49,-242.59 298.91,-252.56 307.93,-247 302.49,-242.59"/>
</a>
</g>
<text xml:space="preserve" text-anchor="start" x="335.88" y="-223.5" font-family="Helvetica,sans-Serif" font-size="10.00" fill="grey">target_class</text>
</g>
<!-- Node13&#45;&gt;Node6 -->
<g id="edge17_Node000006_Node000013" class="edge">
<title>Node13&#45;&gt;Node6</title>
<g id="a_edge17_Node000006_Node000013"><a xlink:title=" ">
<path fill="none" stroke="#9a32cd" stroke-dasharray="5,2" d="M271.29,-281.73C248.84,-302.18 213.71,-339.14 200.88,-380 186.68,-425.19 197.53,-483.12 202.74,-505.55"/>
<polygon fill="#9a32cd" stroke="#9a32cd" points="273.45,-284.5 278.63,-275.25 268.82,-279.25 273.45,-284.5"/>
</a>
</g>
<text xml:space="preserve" text-anchor="start" x="203.88" y="-393.5" font-family="Helvetica,sans-Serif" font-size="10.00" fill="grey">target_class</text>
</g>
<!-- Node13&#45;&gt;Node13 -->
<g id="edge24_Node000013_Node000013" class="edge">
<title>Node13&#45;&gt;Node13</title>
<g id="a_edge24_Node000013_Node000013"><a xlink:title=" ">
<path fill="none" stroke="#9a32cd" stroke-dasharray="5,2" d="M327.17,-269.81C331.09,-268.7 333.62,-266.76 333.62,-264 333.62,-259.09 325.63,-256.78 316.01,-257.09"/>
<polygon fill="#9a32cd" stroke="#9a32cd" points="327.12,-266.3 317.51,-270.76 327.81,-273.27 327.12,-266.3"/>
</a>
</g>
<text xml:space="preserve" text-anchor="start" x="336.62" y="-260.5" font-family="Helvetica,sans-Serif" font-size="10.00" fill="grey">super</text>
</g>
<!-- Node14&#45;&gt;Node13 -->
<g id="edge18_Node000013_Node000014" class="edge">
<title>Node14&#45;&gt;Node13</title>
<g id="a_edge18_Node000013_Node000014"><a xlink:title=" ">
<path fill="none" stroke="#9a32cd" stroke-dasharray="5,2" d="M299.69,-532.41C300.81,-490.53 303.28,-392.42 304.12,-310 304.21,-302 305.9,-299.8 304.12,-292 302.69,-285.71 299.59,-279.18 296.78,-274.12"/>
<polygon fill="#9a32cd" stroke="#9a32cd" points="296.2,-532.13 299.43,-542.22 303.2,-532.32 296.2,-532.13"/>
</a>
</g>
<text xml:space="preserve" text-anchor="start" x="305.07" y="-438.5" font-family="Helvetica,sans-Serif" font-size="10.00" fill="grey">iv</text>
</g>
<!-- Node15 -->
<g id="Node000015" class="node">
<title>Node15</title>
<g id="a_Node000015"><a xlink:href="structmt__tbl.html" target="_top" xlink:title=" ">
<polygon fill="white" stroke="#bfbfbf" points="289.62,-355 246.62,-355 246.62,-335 289.62,-335 289.62,-355"/>
<text xml:space="preserve" text-anchor="middle" x="268.12" y="-341.5" font-family="Helvetica,sans-Serif" font-size="10.00">mt_tbl</text>
</a>
</g>
</g>
<!-- Node15&#45;&gt;Node13 -->
<g id="edge20_Node000013_Node000015" class="edge">
<title>Node15&#45;&gt;Node13</title>
<g id="a_edge20_Node000013_Node000015"><a xlink:title=" ">
<path fill="none" stroke="#9a32cd" stroke-dasharray="5,2" d="M274.01,-323.79C278.64,-307.9 284.87,-286.47 288.4,-274.36"/>
<polygon fill="#9a32cd" stroke="#9a32cd" points="270.71,-322.59 271.28,-333.17 277.43,-324.55 270.71,-322.59"/>
</a>
</g>
<text xml:space="preserve" text-anchor="start" x="286.03" y="-297.5" font-family="Helvetica,sans-Serif" font-size="10.00" fill="grey">mt</text>
</g>
<!-- Node16&#45;&gt;Node15 -->
<g id="edge21_Node000015_Node000016" class="edge">
<title>Node16&#45;&gt;Node15</title>
<g id="a_edge21_Node000015_Node000016"><a xlink:title=" ">
<path fill="none" stroke="#9a32cd" stroke-dasharray="5,2" d="M263.4,-420.18C263.67,-418.1 263.92,-416.01 264.12,-414 266.29,-393.06 267.38,-368.37 267.84,-355.26"/>
<polygon fill="#9a32cd" stroke="#9a32cd" points="259.94,-419.63 261.96,-430.03 266.87,-420.64 259.94,-419.63"/>
</a>
</g>
<text xml:space="preserve" text-anchor="start" x="269.68" y="-393.5" font-family="Helvetica,sans-Serif" font-size="10.00" fill="grey">ptr</text>
</g>
<!-- Node17&#45;&gt;Node4 -->
<g id="edge29_Node000004_Node000017" class="edge">
<title>Node17&#45;&gt;Node4</title>
<g id="a_edge29_Node000004_Node000017"><a xlink:title=" ">
<path fill="none" stroke="#9a32cd" stroke-dasharray="5,2" d="M452.12,-31.53C452.12,-45.36 452.12,-62.96 452.12,-73.59"/>
<polygon fill="#9a32cd" stroke="#9a32cd" points="455.63,-31.7 452.13,-21.7 448.63,-31.7 455.63,-31.7"/>
</a>
</g>
<text xml:space="preserve" text-anchor="start" x="455.12" y="-43.5" font-family="Helvetica,sans-Serif" font-size="10.00" fill="grey">fib</text>
</g>
</g>
</svg>
