<?xml version="1.0" encoding="UTF-8" standalone="no"?>
<!DOCTYPE svg PUBLIC "-//W3C//DTD SVG 1.1//EN"
 "http://www.w3.org/Graphics/SVG/1.1/DTD/svg11.dtd">
<!-- Generated by graphviz version 14.0.5 (0)
 -->
<!-- Title: shrpx::Connection Pages: 1 -->
<svg width="594pt" height="177pt"
 viewBox="0.00 0.00 594.00 177.00" xmlns="http://www.w3.org/2000/svg" xmlns:xlink="http://www.w3.org/1999/xlink">
<g id="graph0" class="graph" transform="scale(1 1) rotate(0) translate(4 172.84)">
<title>shrpx::Connection</title>
<!-- Node1 -->
<g id="Node000001" class="node">
<title>Node1</title>
<g id="a_Node000001"><a xlink:title=" ">
<polygon fill="#999999" stroke="#666666" points="585.75,-52 490.25,-52 490.25,-32 585.75,-32 585.75,-52"/>
<text xml:space="preserve" text-anchor="middle" x="538" y="-38.5" font-family="Helvetica,sans-Serif" font-size="10.00">shrpx::Connection</text>
</a>
</g>
</g>
<!-- Node2 -->
<g id="Node000002" class="node">
<title>Node2</title>
<g id="a_Node000002"><a xlink:href="structshrpx_1_1TLSConnection.html" target="_top" xlink:title=" ">
<polygon fill="white" stroke="#bfbfbf" points="422.75,-81 309.25,-81 309.25,-61 422.75,-61 422.75,-81"/>
<text xml:space="preserve" text-anchor="middle" x="366" y="-67.5" font-family="Helvetica,sans-Serif" font-size="10.00">shrpx::TLSConnection</text>
</a>
</g>
</g>
<!-- Node2&#45;&gt;Node1 -->
<g id="edge1_Node000001_Node000002" class="edge">
<title>Node2&#45;&gt;Node1</title>
<g id="a_edge1_Node000001_Node000002"><a xlink:title=" ">
<path fill="none" stroke="#9a32cd" stroke-dasharray="5,2" d="M434.26,-59.53C452.92,-56.34 472.78,-52.96 490.01,-50.02"/>
<polygon fill="#9a32cd" stroke="#9a32cd" points="433.9,-56.04 424.63,-61.17 435.07,-62.94 433.9,-56.04"/>
</a>
</g>
<text xml:space="preserve" text-anchor="start" x="451.25" y="-63.74" font-family="Helvetica,sans-Serif" font-size="10.00" fill="grey">tls</text>
</g>
<!-- Node3 -->
<g id="Node000003" class="node">
<title>Node3</title>
<g id="a_Node000003"><a xlink:href="structnghttp2_1_1Memchunks.html" target="_top" xlink:title=" ">
<polygon fill="white" stroke="#bfbfbf" points="125.88,-159 18.38,-159 18.38,-127 125.88,-127 125.88,-159"/>
<text xml:space="preserve" text-anchor="start" x="26.38" y="-145.5" font-family="Helvetica,sans-Serif" font-size="10.00">nghttp2::Memchunks</text>
<text xml:space="preserve" text-anchor="middle" x="72.12" y="-133.5" font-family="Helvetica,sans-Serif" font-size="10.00">&lt; Memchunk16K &gt;</text>
</a>
</g>
</g>
<!-- Node3&#45;&gt;Node2 -->
<g id="edge2_Node000002_Node000003" class="edge">
<title>Node3&#45;&gt;Node2</title>
<g id="a_edge2_Node000002_Node000003"><a xlink:title=" ">
<path fill="none" stroke="#9a32cd" stroke-dasharray="5,2" d="M137.62,-137.87C181.69,-133.11 240.99,-124.21 291.25,-108 311.7,-101.4 333.5,-89.83 348.06,-81.38"/>
<polygon fill="#9a32cd" stroke="#9a32cd" points="137.28,-134.39 127.69,-138.9 138,-141.35 137.28,-134.39"/>
</a>
</g>
<text xml:space="preserve" text-anchor="start" x="209.5" y="-156.34" font-family="Helvetica,sans-Serif" font-size="10.00" fill="grey">earlybuf</text>
<text xml:space="preserve" text-anchor="start" x="209.5" y="-140.34" font-family="Helvetica,sans-Serif" font-size="10.00" fill="grey">wbuf</text>
</g>
<!-- Node4 -->
<g id="Node000004" class="node">
<title>Node4</title>
<g id="a_Node000004"><a xlink:href="structnghttp2_1_1PeekMemchunks.html" target="_top" xlink:title=" ">
<polygon fill="white" stroke="#bfbfbf" points="137.12,-109 7.12,-109 7.12,-77 137.12,-77 137.12,-109"/>
<text xml:space="preserve" text-anchor="start" x="15.12" y="-95.5" font-family="Helvetica,sans-Serif" font-size="10.00">nghttp2::PeekMemchunks</text>
<text xml:space="preserve" text-anchor="middle" x="72.12" y="-83.5" font-family="Helvetica,sans-Serif" font-size="10.00">&lt; Memchunk16K &gt;</text>
</a>
</g>
</g>
<!-- Node4&#45;&gt;Node2 -->
<g id="edge3_Node000002_Node000004" class="edge">
<title>Node4&#45;&gt;Node2</title>
<g id="a_edge3_Node000002_Node000004"><a xlink:title=" ">
<path fill="none" stroke="#9a32cd" stroke-dasharray="5,2" d="M148.97,-87.28C199.09,-83.51 263.66,-78.64 309.11,-75.21"/>
<polygon fill="#9a32cd" stroke="#9a32cd" points="148.76,-83.79 139.05,-88.03 149.28,-90.77 148.76,-83.79"/>
</a>
</g>
<text xml:space="preserve" text-anchor="start" x="218.5" y="-91.38" font-family="Helvetica,sans-Serif" font-size="10.00" fill="grey">rbuf</text>
</g>
<!-- Node5 -->
<g id="Node000005" class="node">
<title>Node5</title>
<g id="a_Node000005"><a xlink:href="structshrpx_1_1MemcachedRequest.html" target="_top" xlink:title=" ">
<polygon fill="white" stroke="#bfbfbf" points="140.12,-59 4.12,-59 4.12,-39 140.12,-39 140.12,-59"/>
<text xml:space="preserve" text-anchor="middle" x="72.12" y="-45.5" font-family="Helvetica,sans-Serif" font-size="10.00">shrpx::MemcachedRequest</text>
</a>
</g>
</g>
<!-- Node5&#45;&gt;Node2 -->
<g id="edge4_Node000002_Node000005" class="edge">
<title>Node5&#45;&gt;Node2</title>
<g id="a_edge4_Node000002_Node000005"><a xlink:title=" ">
<path fill="none" stroke="#9a32cd" stroke-dasharray="5,2" d="M151.64,-47.64C193.27,-47.8 245.19,-49.42 291.25,-55 301.79,-56.28 313.04,-58.35 323.5,-60.58"/>
<polygon fill="#9a32cd" stroke="#9a32cd" points="151.71,-44.14 141.7,-47.63 151.7,-51.14 151.71,-44.14"/>
</a>
</g>
<text xml:space="preserve" text-anchor="start" x="165.25" y="-60.5" font-family="Helvetica,sans-Serif" font-size="10.00" fill="grey">cached_session_lookup_req</text>
</g>
<!-- Node6 -->
<g id="Node000006" class="node">
<title>Node6</title>
<g id="a_Node000006"><a xlink:href="structshrpx_1_1tls_1_1TLSSessionCache.html" target="_top" xlink:title=" ">
<polygon fill="white" stroke="#bfbfbf" points="144.25,-20 0,-20 0,0 144.25,0 144.25,-20"/>
<text xml:space="preserve" text-anchor="middle" x="72.12" y="-6.5" font-family="Helvetica,sans-Serif" font-size="10.00">shrpx::tls::TLSSessionCache</text>
</a>
</g>
</g>
<!-- Node6&#45;&gt;Node2 -->
<g id="edge5_Node000002_Node000006" class="edge">
<title>Node6&#45;&gt;Node2</title>
<g id="a_edge5_Node000002_Node000006"><a xlink:title=" ">
<path fill="none" stroke="#9a32cd" stroke-dasharray="5,2" d="M155.93,-6.97C197.44,-7.71 247.96,-12.11 291.25,-26 314.67,-33.52 338.35,-49.87 352.35,-60.65"/>
<polygon fill="#9a32cd" stroke="#9a32cd" points="156.03,-3.47 145.99,-6.86 155.95,-10.47 156.03,-3.47"/>
</a>
</g>
<text xml:space="preserve" text-anchor="start" x="179.88" y="-31.5" font-family="Helvetica,sans-Serif" font-size="10.00" fill="grey">client_session_cache</text>
</g>
<!-- Node7 -->
<g id="Node000007" class="node">
<title>Node7</title>
<g id="a_Node000007"><a xlink:href="classshrpx_1_1RateLimit.html" target="_top" xlink:title=" ">
<polygon fill="white" stroke="#bfbfbf" points="410,-24 322,-24 322,-4 410,-4 410,-24"/>
<text xml:space="preserve" text-anchor="middle" x="366" y="-10.5" font-family="Helvetica,sans-Serif" font-size="10.00">shrpx::RateLimit</text>
</a>
</g>
</g>
<!-- Node7&#45;&gt;Node1 -->
<g id="edge6_Node000001_Node000007" class="edge">
<title>Node7&#45;&gt;Node1</title>
<g id="a_edge6_Node000001_Node000007"><a xlink:title=" ">
<path fill="none" stroke="#9a32cd" stroke-dasharray="5,2" d="M421.51,-10.55C437.95,-10.57 455.96,-11.66 472.25,-15 488.12,-18.25 504.98,-25.41 517.51,-31.54"/>
<polygon fill="#9a32cd" stroke="#9a32cd" points="421.88,-7.04 411.92,-10.67 421.97,-14.04 421.88,-7.04"/>
</a>
</g>
<text xml:space="preserve" text-anchor="start" x="443.75" y="-36.5" font-family="Helvetica,sans-Serif" font-size="10.00" fill="grey">rlimit</text>
<text xml:space="preserve" text-anchor="start" x="443.75" y="-20.5" font-family="Helvetica,sans-Serif" font-size="10.00" fill="grey">wlimit</text>
</g>
</g>
</svg>
