<?xml version="1.0" encoding="UTF-8" standalone="no"?>
<!DOCTYPE svg PUBLIC "-//W3C//DTD SVG 1.1//EN"
 "http://www.w3.org/Graphics/SVG/1.1/DTD/svg11.dtd">
<!-- Generated by graphviz version 14.0.5 (0)
 -->
<!-- Title: mrb_ccontext Pages: 1 -->
<svg width="579pt" height="832pt"
 viewBox="0.00 0.00 579.00 832.00" xmlns="http://www.w3.org/2000/svg" xmlns:xlink="http://www.w3.org/1999/xlink">
<g id="graph0" class="graph" transform="scale(1 1) rotate(0) translate(4 828)">
<title>mrb_ccontext</title>
<!-- Node1 -->
<g id="Node000001" class="node">
<title>Node1</title>
<g id="a_Node000001"><a xlink:title=" ">
<polygon fill="#999999" stroke="#666666" points="182.88,-200 107.62,-200 107.62,-180 182.88,-180 182.88,-200"/>
<text xml:space="preserve" text-anchor="middle" x="145.25" y="-186.5" font-family="Helvetica,sans-Serif" font-size="10.00">mrb_ccontext</text>
</a>
</g>
</g>
<!-- Node2 -->
<g id="Node000002" class="node">
<title>Node2</title>
<g id="a_Node000002"><a xlink:href="classmrb__sym.html" target="_top" xlink:title=" ">
<polygon fill="white" stroke="#666666" points="56.5,-676 0,-676 0,-656 56.5,-656 56.5,-676"/>
<text xml:space="preserve" text-anchor="middle" x="28.25" y="-662.5" font-family="Helvetica,sans-Serif" font-size="10.00">mrb_sym</text>
</a>
</g>
</g>
<!-- Node2&#45;&gt;Node1 -->
<g id="edge1_Node000001_Node000002" class="edge">
<title>Node2&#45;&gt;Node1</title>
<g id="a_edge1_Node000001_Node000002"><a xlink:title=" ">
<path fill="none" stroke="#9a32cd" stroke-dasharray="5,2" d="M25.66,-644.23C23.67,-626.42 21.25,-600.06 21.25,-577 21.25,-577 21.25,-577 21.25,-263 21.25,-222.67 70.91,-204.55 107.37,-196.68"/>
<polygon fill="#9a32cd" stroke="#9a32cd" points="22.17,-644.49 26.82,-654.01 29.12,-643.67 22.17,-644.49"/>
</a>
</g>
<text xml:space="preserve" text-anchor="start" x="24.25" y="-422.5" font-family="Helvetica,sans-Serif" font-size="10.00" fill="grey">syms</text>
</g>
<!-- Node10 -->
<g id="Node000010" class="node">
<title>Node10</title>
<g id="a_Node000010"><a xlink:href="structmrb__irep.html" target="_top" xlink:title=" ">
<polygon fill="white" stroke="#bfbfbf" points="164,-586 110.5,-586 110.5,-566 164,-566 164,-586"/>
<text xml:space="preserve" text-anchor="middle" x="137.25" y="-572.5" font-family="Helvetica,sans-Serif" font-size="10.00">mrb_irep</text>
</a>
</g>
</g>
<!-- Node2&#45;&gt;Node10 -->
<g id="edge11_Node000010_Node000002" class="edge">
<title>Node2&#45;&gt;Node10</title>
<g id="a_edge11_Node000010_Node000002"><a xlink:title=" ">
<path fill="none" stroke="#9a32cd" stroke-dasharray="5,2" d="M45.75,-648.38C59.39,-635.73 79,-618.13 97.25,-604 105.33,-597.74 114.8,-591.32 122.49,-586.3"/>
<polygon fill="#9a32cd" stroke="#9a32cd" points="43.74,-645.47 38.84,-654.86 48.53,-650.58 43.74,-645.47"/>
</a>
</g>
<text xml:space="preserve" text-anchor="start" x="100.25" y="-625.5" font-family="Helvetica,sans-Serif" font-size="10.00" fill="grey">lv</text>
<text xml:space="preserve" text-anchor="start" x="100.25" y="-609.5" font-family="Helvetica,sans-Serif" font-size="10.00" fill="grey">syms</text>
</g>
<!-- Node3 -->
<g id="Node000003" class="node">
<title>Node3</title>
<g id="a_Node000003"><a xlink:href="structRClass.html" target="_top" xlink:title=" ">
<polygon fill="white" stroke="#666666" points="241.75,-274 192.75,-274 192.75,-254 241.75,-254 241.75,-274"/>
<text xml:space="preserve" text-anchor="middle" x="217.25" y="-260.5" font-family="Helvetica,sans-Serif" font-size="10.00">RClass</text>
</a>
</g>
</g>
<!-- Node3&#45;&gt;Node1 -->
<g id="edge2_Node000001_Node000003" class="edge">
<title>Node3&#45;&gt;Node1</title>
<g id="a_edge2_Node000001_Node000003"><a xlink:title=" ">
<path fill="none" stroke="#9a32cd" stroke-dasharray="5,2" d="M182.12,-250.25C175.12,-246.49 168.3,-241.78 163,-236 153.69,-225.85 149.02,-210.24 146.87,-200.33"/>
<polygon fill="#9a32cd" stroke="#9a32cd" points="180.45,-253.33 190.98,-254.46 183.45,-247.01 180.45,-253.33"/>
</a>
</g>
<text xml:space="preserve" text-anchor="start" x="166" y="-223.5" font-family="Helvetica,sans-Serif" font-size="10.00" fill="grey">target_class</text>
</g>
<!-- Node3&#45;&gt;Node3 -->
<g id="edge32_Node000003_Node000003" class="edge">
<title>Node3&#45;&gt;Node3</title>
<g id="a_edge32_Node000003_Node000003"><a xlink:title=" ">
<path fill="none" stroke="#9a32cd" stroke-dasharray="5,2" d="M253.29,-269.81C257.22,-268.7 259.75,-266.76 259.75,-264 259.75,-259.09 251.75,-256.78 242.13,-257.09"/>
<polygon fill="#9a32cd" stroke="#9a32cd" points="253.25,-266.3 243.64,-270.76 253.93,-273.27 253.25,-266.3"/>
</a>
</g>
<text xml:space="preserve" text-anchor="start" x="262.75" y="-260.5" font-family="Helvetica,sans-Serif" font-size="10.00" fill="grey">super</text>
</g>
<!-- Node9 -->
<g id="Node000009" class="node">
<title>Node9</title>
<g id="a_Node000009"><a xlink:href="structRProc.html" target="_top" xlink:title=" ">
<polygon fill="white" stroke="#bfbfbf" points="190.12,-512 146.38,-512 146.38,-492 190.12,-492 190.12,-512"/>
<text xml:space="preserve" text-anchor="middle" x="168.25" y="-498.5" font-family="Helvetica,sans-Serif" font-size="10.00">RProc</text>
</a>
</g>
</g>
<!-- Node3&#45;&gt;Node9 -->
<g id="edge18_Node000009_Node000003" class="edge">
<title>Node3&#45;&gt;Node9</title>
<g id="a_edge18_Node000009_Node000003"><a xlink:title=" ">
<path fill="none" stroke="#9a32cd" stroke-dasharray="5,2" d="M209.88,-285.01C201.81,-307.72 189.07,-346.03 182,-380 173.42,-421.19 169.87,-471.46 168.72,-491.8"/>
<polygon fill="#9a32cd" stroke="#9a32cd" points="213.1,-286.4 213.21,-275.81 206.52,-284.02 213.1,-286.4"/>
</a>
</g>
<text xml:space="preserve" text-anchor="start" x="185" y="-385.5" font-family="Helvetica,sans-Serif" font-size="10.00" fill="grey">target_class</text>
</g>
<!-- Node17 -->
<g id="Node000017" class="node">
<title>Node17</title>
<g id="a_Node000017"><a xlink:href="structmrb__callinfo.html" target="_top" xlink:title=" ">
<polygon fill="white" stroke="#bfbfbf" points="386.5,-200 318,-200 318,-180 386.5,-180 386.5,-200"/>
<text xml:space="preserve" text-anchor="middle" x="352.25" y="-186.5" font-family="Helvetica,sans-Serif" font-size="10.00">mrb_callinfo</text>
</a>
</g>
</g>
<!-- Node3&#45;&gt;Node17 -->
<g id="edge28_Node000017_Node000003" class="edge">
<title>Node3&#45;&gt;Node17</title>
<g id="a_edge28_Node000017_Node000003"><a xlink:title=" ">
<path fill="none" stroke="#9a32cd" stroke-dasharray="5,2" d="M225.28,-243.16C229.83,-234.24 236.36,-224.33 245,-218 266.06,-202.56 295.02,-195.91 317.53,-193.06"/>
<polygon fill="#9a32cd" stroke="#9a32cd" points="222.13,-241.63 221.19,-252.19 228.51,-244.52 222.13,-241.63"/>
</a>
</g>
<text xml:space="preserve" text-anchor="start" x="248" y="-223.5" font-family="Helvetica,sans-Serif" font-size="10.00" fill="grey">target_class</text>
</g>
<!-- Node4 -->
<g id="Node000004" class="node">
<title>Node4</title>
<g id="a_Node000004"><a xlink:href="structiv__tbl.html" target="_top" xlink:title=" ">
<polygon fill="white" stroke="#bfbfbf" points="371.88,-474 332.62,-474 332.62,-454 371.88,-454 371.88,-474"/>
<text xml:space="preserve" text-anchor="middle" x="352.25" y="-460.5" font-family="Helvetica,sans-Serif" font-size="10.00">iv_tbl</text>
</a>
</g>
</g>
<!-- Node4&#45;&gt;Node3 -->
<g id="edge3_Node000003_Node000004" class="edge">
<title>Node4&#45;&gt;Node3</title>
<g id="a_edge3_Node000003_Node000004"><a xlink:title=" ">
<path fill="none" stroke="#9a32cd" stroke-dasharray="5,2" d="M353.74,-442.57C354.75,-414.22 352.68,-362.56 328.25,-328 307.28,-298.32 267.62,-280.82 241.83,-272.06"/>
<polygon fill="#9a32cd" stroke="#9a32cd" points="350.26,-442.12 353.21,-452.29 357.25,-442.5 350.26,-442.12"/>
</a>
</g>
<text xml:space="preserve" text-anchor="start" x="354.89" y="-385.5" font-family="Helvetica,sans-Serif" font-size="10.00" fill="grey">iv</text>
</g>
<!-- Node5 -->
<g id="Node000005" class="node">
<title>Node5</title>
<g id="a_Node000005"><a xlink:href="structmrb__value.html" target="_top" xlink:title=" ">
<polygon fill="white" stroke="#bfbfbf" points="393.75,-586 332.75,-586 332.75,-566 393.75,-566 393.75,-586"/>
<text xml:space="preserve" text-anchor="middle" x="363.25" y="-572.5" font-family="Helvetica,sans-Serif" font-size="10.00">mrb_value</text>
</a>
</g>
</g>
<!-- Node5&#45;&gt;Node4 -->
<g id="edge4_Node000004_Node000005" class="edge">
<title>Node5&#45;&gt;Node4</title>
<g id="a_edge4_Node000004_Node000005"><a xlink:title=" ">
<path fill="none" stroke="#9a32cd" stroke-dasharray="5,2" d="M359.81,-554.18C359.52,-552.1 359.24,-550.01 359,-548 355.82,-521.3 353.7,-489.58 352.77,-474.23"/>
<polygon fill="#9a32cd" stroke="#9a32cd" points="356.35,-554.69 361.35,-564.03 363.27,-553.61 356.35,-554.69"/>
</a>
</g>
<text xml:space="preserve" text-anchor="start" x="362" y="-535.5" font-family="Helvetica,sans-Serif" font-size="10.00" fill="grey">ptr</text>
</g>
<!-- Node8 -->
<g id="Node000008" class="node">
<title>Node8</title>
<g id="a_Node000008"><a xlink:href="unionmt__ptr.html" target="_top" xlink:title=" ">
<polygon fill="white" stroke="#bfbfbf" points="271.12,-436 227.38,-436 227.38,-416 271.12,-416 271.12,-436"/>
<text xml:space="preserve" text-anchor="middle" x="249.25" y="-422.5" font-family="Helvetica,sans-Serif" font-size="10.00">mt_ptr</text>
</a>
</g>
</g>
<!-- Node5&#45;&gt;Node8 -->
<g id="edge31_Node000008_Node000005" class="edge">
<title>Node5&#45;&gt;Node8</title>
<g id="a_edge31_Node000008_Node000005"><a xlink:title=" ">
<path fill="none" stroke="#9a32cd" stroke-dasharray="5,2" d="M349.1,-556.62C324.53,-524.73 274.85,-460.23 256.38,-436.25"/>
<polygon fill="#9a32cd" stroke="#9a32cd" points="346.32,-558.76 355.2,-564.54 351.87,-554.48 346.32,-558.76"/>
</a>
</g>
<text xml:space="preserve" text-anchor="start" x="316.83" y="-498.5" font-family="Helvetica,sans-Serif" font-size="10.00" fill="grey">func</text>
</g>
<!-- Node5&#45;&gt;Node9 -->
<g id="edge16_Node000009_Node000005" class="edge">
<title>Node5&#45;&gt;Node9</title>
<g id="a_edge16_Node000009_Node000005"><a xlink:title=" ">
<path fill="none" stroke="#9a32cd" stroke-dasharray="5,2" d="M321.16,-570.22C295.65,-566.33 262.85,-559.53 235.5,-548 214.01,-538.94 192.11,-522.71 179.37,-512.42"/>
<polygon fill="#9a32cd" stroke="#9a32cd" points="320.43,-573.65 330.83,-571.6 321.42,-566.72 320.43,-573.65"/>
</a>
</g>
<text xml:space="preserve" text-anchor="start" x="238.5" y="-535.5" font-family="Helvetica,sans-Serif" font-size="10.00" fill="grey">func</text>
</g>
<!-- Node15 -->
<g id="Node000015" class="node">
<title>Node15</title>
<g id="a_Node000015"><a xlink:href="structREnv.html" target="_top" xlink:title=" ">
<polygon fill="white" stroke="#666666" points="417.62,-20 376.88,-20 376.88,0 417.62,0 417.62,-20"/>
<text xml:space="preserve" text-anchor="middle" x="397.25" y="-6.5" font-family="Helvetica,sans-Serif" font-size="10.00">REnv</text>
</a>
</g>
</g>
<!-- Node5&#45;&gt;Node15 -->
<g id="edge20_Node000015_Node000005" class="edge">
<title>Node5&#45;&gt;Node15</title>
<g id="a_edge20_Node000015_Node000005"><a xlink:title=" ">
<path fill="none" stroke="#9a32cd" stroke-dasharray="5,2" d="M393.01,-560.04C412.83,-547.75 435.25,-528.25 435.25,-503 435.25,-503 435.25,-503 435.25,-189 435.25,-123.27 410.16,-46.84 400.76,-20.49"/>
<polygon fill="#9a32cd" stroke="#9a32cd" points="391.52,-556.86 384.62,-564.89 395.03,-562.92 391.52,-556.86"/>
</a>
</g>
<text xml:space="preserve" text-anchor="start" x="438.25" y="-297.5" font-family="Helvetica,sans-Serif" font-size="10.00" fill="grey">stack</text>
</g>
<!-- Node16 -->
<g id="Node000016" class="node">
<title>Node16</title>
<g id="a_Node000016"><a xlink:href="structmrb__context.html" target="_top" xlink:title=" ">
<polygon fill="white" stroke="#bfbfbf" points="528.25,-94 458.25,-94 458.25,-74 528.25,-74 528.25,-94"/>
<text xml:space="preserve" text-anchor="middle" x="493.25" y="-80.5" font-family="Helvetica,sans-Serif" font-size="10.00">mrb_context</text>
</a>
</g>
</g>
<!-- Node5&#45;&gt;Node16 -->
<g id="edge23_Node000016_Node000005" class="edge">
<title>Node5&#45;&gt;Node16</title>
<g id="a_edge23_Node000016_Node000005"><a xlink:title=" ">
<path fill="none" stroke="#9a32cd" stroke-dasharray="5,2" d="M405.1,-568.06C440.41,-559.52 485.25,-541.17 485.25,-503 485.25,-503 485.25,-503 485.25,-189 485.25,-154.05 489.8,-112.69 492.03,-94.45"/>
<polygon fill="#9a32cd" stroke="#9a32cd" points="404.53,-564.6 395.51,-570.17 406.03,-571.43 404.53,-564.6"/>
</a>
</g>
<text xml:space="preserve" text-anchor="start" x="488.25" y="-349.5" font-family="Helvetica,sans-Serif" font-size="10.00" fill="grey">stbase</text>
<text xml:space="preserve" text-anchor="start" x="488.25" y="-333.5" font-family="Helvetica,sans-Serif" font-size="10.00" fill="grey">stend</text>
</g>
<!-- Node5&#45;&gt;Node17 -->
<g id="edge26_Node000017_Node000005" class="edge">
<title>Node5&#45;&gt;Node17</title>
<g id="a_edge26_Node000017_Node000005"><a xlink:title=" ">
<path fill="none" stroke="#9a32cd" stroke-dasharray="5,2" d="M374.79,-555.7C382.12,-541.6 390.25,-521.75 390.25,-503 390.25,-503 390.25,-503 390.25,-263 390.25,-238.12 372.29,-213.42 361.06,-200.41"/>
<polygon fill="#9a32cd" stroke="#9a32cd" points="371.79,-553.88 369.98,-564.32 377.91,-557.29 371.79,-553.88"/>
</a>
</g>
<text xml:space="preserve" text-anchor="start" x="393.25" y="-385.5" font-family="Helvetica,sans-Serif" font-size="10.00" fill="grey">stack</text>
</g>
<!-- Node6 -->
<g id="Node000006" class="node">
<title>Node6</title>
<g id="a_Node000006"><a xlink:href="unionmrb__value__union.html" target="_top" xlink:title=" ">
<polygon fill="white" stroke="#bfbfbf" points="408,-676 318.5,-676 318.5,-656 408,-656 408,-676"/>
<text xml:space="preserve" text-anchor="middle" x="363.25" y="-662.5" font-family="Helvetica,sans-Serif" font-size="10.00">mrb_value_union</text>
</a>
</g>
</g>
<!-- Node6&#45;&gt;Node5 -->
<g id="edge5_Node000005_Node000006" class="edge">
<title>Node6&#45;&gt;Node5</title>
<g id="a_edge5_Node000005_Node000006"><a xlink:title=" ">
<path fill="none" stroke="#9a32cd" stroke-dasharray="5,2" d="M363.25,-644.09C363.25,-625.77 363.25,-600.01 363.25,-586.35"/>
<polygon fill="#9a32cd" stroke="#9a32cd" points="359.75,-644.07 363.25,-654.07 366.75,-644.07 359.75,-644.07"/>
</a>
</g>
<text xml:space="preserve" text-anchor="start" x="366.25" y="-617.5" font-family="Helvetica,sans-Serif" font-size="10.00" fill="grey">value</text>
</g>
<!-- Node7 -->
<g id="Node000007" class="node">
<title>Node7</title>
<g id="a_Node000007"><a xlink:href="structmt__tbl.html" target="_top" xlink:title=" ">
<polygon fill="white" stroke="#bfbfbf" points="261.75,-355 218.75,-355 218.75,-335 261.75,-335 261.75,-355"/>
<text xml:space="preserve" text-anchor="middle" x="240.25" y="-341.5" font-family="Helvetica,sans-Serif" font-size="10.00">mt_tbl</text>
</a>
</g>
</g>
<!-- Node7&#45;&gt;Node3 -->
<g id="edge6_Node000003_Node000007" class="edge">
<title>Node7&#45;&gt;Node3</title>
<g id="a_edge6_Node000003_Node000007"><a xlink:title=" ">
<path fill="none" stroke="#9a32cd" stroke-dasharray="5,2" d="M234.37,-323.79C229.74,-307.9 223.5,-286.47 219.98,-274.36"/>
<polygon fill="#9a32cd" stroke="#9a32cd" points="230.94,-324.55 237.1,-333.17 237.66,-322.59 230.94,-324.55"/>
</a>
</g>
<text xml:space="preserve" text-anchor="start" x="233.13" y="-297.5" font-family="Helvetica,sans-Serif" font-size="10.00" fill="grey">mt</text>
</g>
<!-- Node8&#45;&gt;Node7 -->
<g id="edge7_Node000007_Node000008" class="edge">
<title>Node8&#45;&gt;Node7</title>
<g id="a_edge7_Node000007_Node000008"><a xlink:title=" ">
<path fill="none" stroke="#9a32cd" stroke-dasharray="5,2" d="M247.67,-404.47C247.02,-396.78 246.19,-387.98 245.25,-380 244.26,-371.59 242.83,-362.05 241.75,-355.22"/>
<polygon fill="#9a32cd" stroke="#9a32cd" points="244.16,-404.48 248.46,-414.17 251.14,-403.92 244.16,-404.48"/>
</a>
</g>
<text xml:space="preserve" text-anchor="start" x="250.04" y="-385.5" font-family="Helvetica,sans-Serif" font-size="10.00" fill="grey">ptr</text>
</g>
<!-- Node9&#45;&gt;Node1 -->
<g id="edge33_Node000001_Node000009" class="edge">
<title>Node9&#45;&gt;Node1</title>
<g id="a_edge33_Node000001_Node000009"><a xlink:title=" ">
<path fill="none" stroke="#9a32cd" stroke-dasharray="5,2" d="M152.53,-483.09C141.7,-468.89 129.25,-448 129.25,-427 129.25,-427 129.25,-427 129.25,-263 129.25,-239.95 137.16,-213.72 141.86,-200.18"/>
<polygon fill="#9a32cd" stroke="#9a32cd" points="149.61,-485.06 158.64,-490.6 155.04,-480.64 149.61,-485.06"/>
</a>
</g>
<text xml:space="preserve" text-anchor="start" x="132.25" y="-341.5" font-family="Helvetica,sans-Serif" font-size="10.00" fill="grey">upper</text>
</g>
<!-- Node9&#45;&gt;Node8 -->
<g id="edge8_Node000008_Node000009" class="edge">
<title>Node9&#45;&gt;Node8</title>
<g id="a_edge8_Node000008_Node000009"><a xlink:title=" ">
<path fill="none" stroke="#9a32cd" stroke-dasharray="5,2" d="M187.74,-484.22C191.58,-480.86 195.56,-477.34 199.25,-474 213.38,-461.21 229.38,-446.05 239.39,-436.48"/>
<polygon fill="#9a32cd" stroke="#9a32cd" points="185.64,-481.41 180.39,-490.61 190.23,-486.7 185.64,-481.41"/>
</a>
</g>
<text xml:space="preserve" text-anchor="start" x="223.02" y="-460.5" font-family="Helvetica,sans-Serif" font-size="10.00" fill="grey">proc</text>
</g>
<!-- Node9&#45;&gt;Node9 -->
<g id="edge17_Node000009_Node000009" class="edge">
<title>Node9&#45;&gt;Node9</title>
<g id="a_edge17_Node000009_Node000009"><a xlink:title=" ">
<path fill="none" stroke="#9a32cd" stroke-dasharray="5,2" d="M201.57,-507.96C205.54,-506.87 208.12,-504.89 208.12,-502 208.12,-496.87 199.95,-494.58 190.39,-495.15"/>
<polygon fill="#9a32cd" stroke="#9a32cd" points="201.59,-504.44 191.9,-508.73 202.15,-511.42 201.59,-504.44"/>
</a>
</g>
<text xml:space="preserve" text-anchor="start" x="211.12" y="-498.5" font-family="Helvetica,sans-Serif" font-size="10.00" fill="grey">upper</text>
</g>
<!-- Node9&#45;&gt;Node17 -->
<g id="edge25_Node000017_Node000009" class="edge">
<title>Node9&#45;&gt;Node17</title>
<g id="a_edge25_Node000017_Node000009"><a xlink:title=" ">
<path fill="none" stroke="#9a32cd" stroke-dasharray="5,2" d="M201.14,-494.53C216.68,-490.39 234.92,-483.89 249.25,-474 267.19,-461.62 270.09,-455.28 280.25,-436 325.11,-350.89 345.65,-234.03 350.87,-200.4"/>
<polygon fill="#9a32cd" stroke="#9a32cd" points="200.76,-491.02 191.87,-496.78 202.41,-497.82 200.76,-491.02"/>
</a>
</g>
<text xml:space="preserve" text-anchor="start" x="325.06" y="-349.5" font-family="Helvetica,sans-Serif" font-size="10.00" fill="grey">blk</text>
<text xml:space="preserve" text-anchor="start" x="325.06" y="-333.5" font-family="Helvetica,sans-Serif" font-size="10.00" fill="grey">proc</text>
</g>
<!-- Node10&#45;&gt;Node9 -->
<g id="edge9_Node000009_Node000010" class="edge">
<title>Node10&#45;&gt;Node9</title>
<g id="a_edge9_Node000009_Node000010"><a xlink:title=" ">
<path fill="none" stroke="#9a32cd" stroke-dasharray="5,2" d="M145.85,-555.02C151.88,-541.01 159.67,-522.93 164.29,-512.19"/>
<polygon fill="#9a32cd" stroke="#9a32cd" points="142.64,-553.63 141.9,-564.2 149.07,-556.4 142.64,-553.63"/>
</a>
</g>
<text xml:space="preserve" text-anchor="start" x="159.44" y="-535.5" font-family="Helvetica,sans-Serif" font-size="10.00" fill="grey">irep</text>
</g>
<!-- Node10&#45;&gt;Node10 -->
<g id="edge12_Node000010_Node000010" class="edge">
<title>Node10&#45;&gt;Node10</title>
<g id="a_edge12_Node000010_Node000010"><a xlink:title=" ">
<path fill="none" stroke="#9a32cd" stroke-dasharray="5,2" d="M175.56,-581.71C179.49,-580.59 182,-578.68 182,-576 182,-571.23 174.07,-568.92 164.34,-569.07"/>
<polygon fill="#9a32cd" stroke="#9a32cd" points="175.41,-578.21 165.84,-582.77 176.16,-585.17 175.41,-578.21"/>
</a>
</g>
<text xml:space="preserve" text-anchor="start" x="185" y="-572.5" font-family="Helvetica,sans-Serif" font-size="10.00" fill="grey">reps</text>
</g>
<!-- Node11 -->
<g id="Node000011" class="node">
<title>Node11</title>
<g id="a_Node000011"><a xlink:href="structmrb__pool__value.html" target="_top" xlink:title=" ">
<polygon fill="white" stroke="#bfbfbf" points="170.38,-676 86.12,-676 86.12,-656 170.38,-656 170.38,-676"/>
<text xml:space="preserve" text-anchor="middle" x="128.25" y="-662.5" font-family="Helvetica,sans-Serif" font-size="10.00">mrb_pool_value</text>
</a>
</g>
</g>
<!-- Node11&#45;&gt;Node10 -->
<g id="edge10_Node000010_Node000011" class="edge">
<title>Node11&#45;&gt;Node10</title>
<g id="a_edge10_Node000010_Node000011"><a xlink:title=" ">
<path fill="none" stroke="#9a32cd" stroke-dasharray="5,2" d="M130.36,-644.35C132.24,-626.02 134.89,-600.07 136.29,-586.35"/>
<polygon fill="#9a32cd" stroke="#9a32cd" points="126.9,-643.77 129.37,-654.08 133.87,-644.48 126.9,-643.77"/>
</a>
</g>
<text xml:space="preserve" text-anchor="start" x="137.34" y="-617.5" font-family="Helvetica,sans-Serif" font-size="10.00" fill="grey">pool</text>
</g>
<!-- Node12 -->
<g id="Node000012" class="node">
<title>Node12</title>
<g id="a_Node000012"><a xlink:href="structmrb__irep__debug__info.html" target="_top" xlink:title=" ">
<polygon fill="white" stroke="#bfbfbf" points="294.25,-676 188.25,-676 188.25,-656 294.25,-656 294.25,-676"/>
<text xml:space="preserve" text-anchor="middle" x="241.25" y="-662.5" font-family="Helvetica,sans-Serif" font-size="10.00">mrb_irep_debug_info</text>
</a>
</g>
</g>
<!-- Node12&#45;&gt;Node10 -->
<g id="edge13_Node000010_Node000012" class="edge">
<title>Node12&#45;&gt;Node10</title>
<g id="a_edge13_Node000010_Node000012"><a xlink:title=" ">
<path fill="none" stroke="#9a32cd" stroke-dasharray="5,2" d="M221.38,-648.19C199.68,-629.82 165.69,-601.06 148.3,-586.35"/>
<polygon fill="#9a32cd" stroke="#9a32cd" points="219.07,-650.82 228.96,-654.6 223.59,-645.47 219.07,-650.82"/>
</a>
</g>
<text xml:space="preserve" text-anchor="start" x="210.61" y="-617.5" font-family="Helvetica,sans-Serif" font-size="10.00" fill="grey">debug_info</text>
</g>
<!-- Node13 -->
<g id="Node000013" class="node">
<title>Node13</title>
<g id="a_Node000013"><a xlink:href="structmrb__irep__debug__info__file.html" target="_top" xlink:title=" ">
<polygon fill="white" stroke="#bfbfbf" points="303.25,-750 179.25,-750 179.25,-730 303.25,-730 303.25,-750"/>
<text xml:space="preserve" text-anchor="middle" x="241.25" y="-736.5" font-family="Helvetica,sans-Serif" font-size="10.00">mrb_irep_debug_info_file</text>
</a>
</g>
</g>
<!-- Node13&#45;&gt;Node12 -->
<g id="edge14_Node000012_Node000013" class="edge">
<title>Node13&#45;&gt;Node12</title>
<g id="a_edge14_Node000012_Node000013"><a xlink:title=" ">
<path fill="none" stroke="#9a32cd" stroke-dasharray="5,2" d="M241.25,-718.18C241.25,-704.29 241.25,-686.71 241.25,-676.19"/>
<polygon fill="#9a32cd" stroke="#9a32cd" points="237.75,-718.07 241.25,-728.07 244.75,-718.07 237.75,-718.07"/>
</a>
</g>
<text xml:space="preserve" text-anchor="start" x="244.25" y="-699.5" font-family="Helvetica,sans-Serif" font-size="10.00" fill="grey">files</text>
</g>
<!-- Node14 -->
<g id="Node000014" class="node">
<title>Node14</title>
<g id="a_Node000014"><a xlink:href="structmrb__irep__debug__info__line.html" target="_top" xlink:title=" ">
<polygon fill="white" stroke="#bfbfbf" points="304.38,-824 178.12,-824 178.12,-804 304.38,-804 304.38,-824"/>
<text xml:space="preserve" text-anchor="middle" x="241.25" y="-810.5" font-family="Helvetica,sans-Serif" font-size="10.00">mrb_irep_debug_info_line</text>
</a>
</g>
</g>
<!-- Node14&#45;&gt;Node13 -->
<g id="edge15_Node000013_Node000014" class="edge">
<title>Node14&#45;&gt;Node13</title>
<g id="a_edge15_Node000013_Node000014"><a xlink:title=" ">
<path fill="none" stroke="#9a32cd" stroke-dasharray="5,2" d="M241.25,-792.18C241.25,-778.29 241.25,-760.71 241.25,-750.19"/>
<polygon fill="#9a32cd" stroke="#9a32cd" points="237.75,-792.07 241.25,-802.07 244.75,-792.07 237.75,-792.07"/>
</a>
</g>
<text xml:space="preserve" text-anchor="start" x="244.25" y="-773.5" font-family="Helvetica,sans-Serif" font-size="10.00" fill="grey">flat_map</text>
</g>
<!-- Node15&#45;&gt;Node9 -->
<g id="edge19_Node000009_Node000015" class="edge">
<title>Node15&#45;&gt;Node9</title>
<g id="a_edge19_Node000009_Node000015"><a xlink:title=" ">
<path fill="none" stroke="#9a32cd" stroke-dasharray="5,2" d="M364.95,-11.51C284.07,-13.66 79.25,-24.85 79.25,-83 79.25,-427 79.25,-427 79.25,-427 79.25,-461.76 119.89,-483.34 146.25,-493.67"/>
<polygon fill="#9a32cd" stroke="#9a32cd" points="364.96,-15.01 374.87,-11.28 364.79,-8.01 364.96,-15.01"/>
</a>
</g>
<text xml:space="preserve" text-anchor="start" x="82.25" y="-260.5" font-family="Helvetica,sans-Serif" font-size="10.00" fill="grey">env</text>
</g>
<!-- Node15&#45;&gt;Node17 -->
<g id="edge27_Node000017_Node000015" class="edge">
<title>Node15&#45;&gt;Node17</title>
<g id="a_edge27_Node000017_Node000015"><a xlink:title=" ">
<path fill="none" stroke="#9a32cd" stroke-dasharray="5,2" d="M392.11,-31.34C382.35,-69.96 361.48,-152.5 354.54,-179.93"/>
<polygon fill="#9a32cd" stroke="#9a32cd" points="395.48,-32.29 394.54,-21.73 388.69,-30.57 395.48,-32.29"/>
</a>
</g>
<text xml:space="preserve" text-anchor="start" x="383.69" y="-80.5" font-family="Helvetica,sans-Serif" font-size="10.00" fill="grey">env</text>
</g>
<!-- Node16&#45;&gt;Node15 -->
<g id="edge21_Node000015_Node000016" class="edge">
<title>Node16&#45;&gt;Node15</title>
<g id="a_edge21_Node000015_Node000016"><a xlink:title=" ">
<path fill="none" stroke="#9a32cd" stroke-dasharray="5,2" d="M474.9,-65.83C465.21,-57.1 452.93,-46.55 441.25,-38 432.57,-31.65 422.36,-25.32 413.96,-20.39"/>
<polygon fill="#9a32cd" stroke="#9a32cd" points="472.45,-68.32 482.18,-72.5 477.18,-63.16 472.45,-68.32"/>
</a>
</g>
<text xml:space="preserve" text-anchor="start" x="466.36" y="-43.5" font-family="Helvetica,sans-Serif" font-size="10.00" fill="grey">cxt</text>
</g>
<!-- Node16&#45;&gt;Node16 -->
<g id="edge22_Node000016_Node000016" class="edge">
<title>Node16&#45;&gt;Node16</title>
<g id="a_edge22_Node000016_Node000016"><a xlink:title=" ">
<path fill="none" stroke="#9a32cd" stroke-dasharray="5,2" d="M539.52,-89.48C543.66,-88.33 546.25,-86.51 546.25,-84 546.25,-79.66 538.49,-77.36 528.42,-77.09"/>
<polygon fill="#9a32cd" stroke="#9a32cd" points="539.39,-85.97 529.92,-90.72 540.28,-92.91 539.39,-85.97"/>
</a>
</g>
<text xml:space="preserve" text-anchor="start" x="549.25" y="-80.5" font-family="Helvetica,sans-Serif" font-size="10.00" fill="grey">prev</text>
</g>
<!-- Node18 -->
<g id="Node000018" class="node">
<title>Node18</title>
<g id="a_Node000018"><a xlink:href="structRFiber.html" target="_top" xlink:title=" ">
<polygon fill="white" stroke="#bfbfbf" points="549.88,-20 504.62,-20 504.62,0 549.88,0 549.88,-20"/>
<text xml:space="preserve" text-anchor="middle" x="527.25" y="-6.5" font-family="Helvetica,sans-Serif" font-size="10.00">RFiber</text>
</a>
</g>
</g>
<!-- Node16&#45;&gt;Node18 -->
<g id="edge30_Node000018_Node000016" class="edge">
<title>Node16&#45;&gt;Node18</title>
<g id="a_edge30_Node000018_Node000016"><a xlink:title=" ">
<path fill="none" stroke="#9a32cd" stroke-dasharray="5,2" d="M495.9,-62.33C497.46,-54.42 499.91,-45.5 503.75,-38 507.15,-31.36 512.52,-25.01 517.27,-20.14"/>
<polygon fill="#9a32cd" stroke="#9a32cd" points="492.46,-61.66 494.34,-72.09 499.37,-62.76 492.46,-61.66"/>
</a>
</g>
<text xml:space="preserve" text-anchor="start" x="506.75" y="-43.5" font-family="Helvetica,sans-Serif" font-size="10.00" fill="grey">cxt</text>
</g>
<!-- Node17&#45;&gt;Node16 -->
<g id="edge24_Node000016_Node000017" class="edge">
<title>Node17&#45;&gt;Node16</title>
<g id="a_edge24_Node000016_Node000017"><a xlink:title=" ">
<path fill="none" stroke="#9a32cd" stroke-dasharray="5,2" d="M368.36,-171.61C384.52,-154.86 410.67,-129.55 436.75,-112 446.94,-105.14 459.14,-99.08 469.6,-94.44"/>
<polygon fill="#9a32cd" stroke="#9a32cd" points="366.26,-168.74 361.92,-178.4 371.34,-173.55 366.26,-168.74"/>
</a>
</g>
<text xml:space="preserve" text-anchor="start" x="439.75" y="-149.5" font-family="Helvetica,sans-Serif" font-size="10.00" fill="grey">ci</text>
<text xml:space="preserve" text-anchor="start" x="439.75" y="-133.5" font-family="Helvetica,sans-Serif" font-size="10.00" fill="grey">cibase</text>
<text xml:space="preserve" text-anchor="start" x="439.75" y="-117.5" font-family="Helvetica,sans-Serif" font-size="10.00" fill="grey">ciend</text>
</g>
<!-- Node18&#45;&gt;Node16 -->
<g id="edge29_Node000016_Node000018" class="edge">
<title>Node18&#45;&gt;Node16</title>
<g id="a_edge29_Node000016_Node000018"><a xlink:title=" ">
<path fill="none" stroke="#9a32cd" stroke-dasharray="5,2" d="M530.97,-31.79C531.46,-39.72 530.82,-48.61 527.25,-56 523.71,-63.33 517.11,-69.28 510.65,-73.71"/>
<polygon fill="#9a32cd" stroke="#9a32cd" points="534.46,-31.47 529.73,-21.99 527.52,-32.35 534.46,-31.47"/>
</a>
</g>
<text xml:space="preserve" text-anchor="start" x="534.09" y="-43.5" font-family="Helvetica,sans-Serif" font-size="10.00" fill="grey">fib</text>
</g>
</g>
</svg>
