<?xml version="1.0" encoding="UTF-8" standalone="no"?>
<!DOCTYPE svg PUBLIC "-//W3C//DTD SVG 1.1//EN"
 "http://www.w3.org/Graphics/SVG/1.1/DTD/svg11.dtd">
<!-- Generated by graphviz version 14.0.5 (0)
 -->
<!-- Title: mrb_range_edges Pages: 1 -->
<svg width="101pt" height="192pt"
 viewBox="0.00 0.00 101.00 192.00" xmlns="http://www.w3.org/2000/svg" xmlns:xlink="http://www.w3.org/1999/xlink">
<g id="graph0" class="graph" transform="scale(1 1) rotate(0) translate(4 188)">
<title>mrb_range_edges</title>
<!-- Node1 -->
<g id="Node000001" class="node">
<title>Node1</title>
<g id="a_Node000001"><a xlink:title=" ">
<polygon fill="#999999" stroke="#666666" points="93.25,-20 0,-20 0,0 93.25,0 93.25,-20"/>
<text xml:space="preserve" text-anchor="middle" x="46.62" y="-6.5" font-family="Helvetica,sans-Serif" font-size="10.00">mrb_range_edges</text>
</a>
</g>
</g>
<!-- Node2 -->
<g id="Node000002" class="node">
<title>Node2</title>
<g id="a_Node000002"><a xlink:href="structmrb__value.html" target="_top" xlink:title=" ">
<polygon fill="white" stroke="#bfbfbf" points="77.12,-110 16.12,-110 16.12,-90 77.12,-90 77.12,-110"/>
<text xml:space="preserve" text-anchor="middle" x="46.62" y="-96.5" font-family="Helvetica,sans-Serif" font-size="10.00">mrb_value</text>
</a>
</g>
</g>
<!-- Node2&#45;&gt;Node1 -->
<g id="edge1_Node000001_Node000002" class="edge">
<title>Node2&#45;&gt;Node1</title>
<g id="a_edge1_Node000001_Node000002"><a xlink:title=" ">
<path fill="none" stroke="#9a32cd" stroke-dasharray="5,2" d="M46.62,-78.09C46.62,-59.77 46.62,-34.01 46.62,-20.35"/>
<polygon fill="#9a32cd" stroke="#9a32cd" points="43.13,-78.07 46.63,-88.07 50.13,-78.07 43.13,-78.07"/>
</a>
</g>
<text xml:space="preserve" text-anchor="start" x="49.62" y="-59.5" font-family="Helvetica,sans-Serif" font-size="10.00" fill="grey">beg</text>
<text xml:space="preserve" text-anchor="start" x="49.62" y="-43.5" font-family="Helvetica,sans-Serif" font-size="10.00" fill="grey">end</text>
</g>
<!-- Node3 -->
<g id="Node000003" class="node">
<title>Node3</title>
<g id="a_Node000003"><a xlink:href="unionmrb__value__union.html" target="_top" xlink:title=" ">
<polygon fill="white" stroke="#bfbfbf" points="91.38,-184 1.88,-184 1.88,-164 91.38,-164 91.38,-184"/>
<text xml:space="preserve" text-anchor="middle" x="46.62" y="-170.5" font-family="Helvetica,sans-Serif" font-size="10.00">mrb_value_union</text>
</a>
</g>
</g>
<!-- Node3&#45;&gt;Node2 -->
<g id="edge2_Node000002_Node000003" class="edge">
<title>Node3&#45;&gt;Node2</title>
<g id="a_edge2_Node000002_Node000003"><a xlink:title=" ">
<path fill="none" stroke="#9a32cd" stroke-dasharray="5,2" d="M46.62,-152.18C46.62,-138.29 46.62,-120.71 46.62,-110.19"/>
<polygon fill="#9a32cd" stroke="#9a32cd" points="43.13,-152.07 46.63,-162.07 50.13,-152.07 43.13,-152.07"/>
</a>
</g>
<text xml:space="preserve" text-anchor="start" x="49.62" y="-133.5" font-family="Helvetica,sans-Serif" font-size="10.00" fill="grey">value</text>
</g>
</g>
</svg>
