<?xml version="1.0" encoding="UTF-8" standalone="no"?>
<!DOCTYPE svg PUBLIC "-//W3C//DTD SVG 1.1//EN"
 "http://www.w3.org/Graphics/SVG/1.1/DTD/svg11.dtd">
<!-- Generated by graphviz version 14.0.5 (0)
 -->
<!-- Title: os_memsize_of_all_cb_data Pages: 1 -->
<svg width="780pt" height="626pt"
 viewBox="0.00 0.00 780.00 626.00" xmlns="http://www.w3.org/2000/svg" xmlns:xlink="http://www.w3.org/1999/xlink">
<g id="graph0" class="graph" transform="scale(1 1) rotate(0) translate(4 622)">
<title>os_memsize_of_all_cb_data</title>
<!-- Node1 -->
<g id="Node000001" class="node">
<title>Node1</title>
<g id="a_Node000001"><a xlink:title=" ">
<polygon fill="#999999" stroke="#666666" points="312.88,-290 173.12,-290 173.12,-270 312.88,-270 312.88,-290"/>
<text xml:space="preserve" text-anchor="middle" x="243" y="-276.5" font-family="Helvetica,sans-Serif" font-size="10.00">os_memsize_of_all_cb_data</text>
</a>
</g>
</g>
<!-- Node2 -->
<g id="Node000002" class="node">
<title>Node2</title>
<g id="a_Node000002"><a xlink:href="structRClass.html" target="_top" xlink:title=" ">
<polygon fill="white" stroke="#666666" points="243.5,-380 194.5,-380 194.5,-360 243.5,-360 243.5,-380"/>
<text xml:space="preserve" text-anchor="middle" x="219" y="-366.5" font-family="Helvetica,sans-Serif" font-size="10.00">RClass</text>
</a>
</g>
</g>
<!-- Node2&#45;&gt;Node1 -->
<g id="edge1_Node000001_Node000002" class="edge">
<title>Node2&#45;&gt;Node1</title>
<g id="a_edge1_Node000001_Node000002"><a xlink:title=" ">
<path fill="none" stroke="#9a32cd" stroke-dasharray="5,2" d="M216.06,-348.34C215.15,-336.21 215.43,-320.8 220.25,-308 222.76,-301.35 227.66,-295.18 232.28,-290.42"/>
<polygon fill="#9a32cd" stroke="#9a32cd" points="212.56,-348.48 217.14,-358.04 219.52,-347.71 212.56,-348.48"/>
</a>
</g>
<text xml:space="preserve" text-anchor="start" x="223.25" y="-321.5" font-family="Helvetica,sans-Serif" font-size="10.00" fill="grey">type</text>
</g>
<!-- Node2&#45;&gt;Node2 -->
<g id="edge31_Node000002_Node000002" class="edge">
<title>Node2&#45;&gt;Node2</title>
<g id="a_edge31_Node000002_Node000002"><a xlink:title=" ">
<path fill="none" stroke="#9a32cd" stroke-dasharray="5,2" d="M255.04,-377.07C258.97,-375.72 261.5,-373.36 261.5,-370 261.5,-364.02 253.5,-361.22 243.88,-361.6"/>
<polygon fill="#9a32cd" stroke="#9a32cd" points="254.9,-373.56 245.39,-378.23 255.73,-380.51 254.9,-373.56"/>
</a>
</g>
<text xml:space="preserve" text-anchor="start" x="264.5" y="-366.5" font-family="Helvetica,sans-Serif" font-size="10.00" fill="grey">super</text>
</g>
<!-- Node8 -->
<g id="Node000008" class="node">
<title>Node8</title>
<g id="a_Node000008"><a xlink:href="structRProc.html" target="_top" xlink:title=" ">
<polygon fill="white" stroke="#bfbfbf" points="427.88,-290 384.12,-290 384.12,-270 427.88,-270 427.88,-290"/>
<text xml:space="preserve" text-anchor="middle" x="406" y="-276.5" font-family="Helvetica,sans-Serif" font-size="10.00">RProc</text>
</a>
</g>
</g>
<!-- Node2&#45;&gt;Node8 -->
<g id="edge17_Node000008_Node000002" class="edge">
<title>Node2&#45;&gt;Node8</title>
<g id="a_edge17_Node000008_Node000002"><a xlink:title=" ">
<path fill="none" stroke="#9a32cd" stroke-dasharray="5,2" d="M241.25,-353.16C260.91,-339.72 290.71,-320.67 318.75,-308 340.13,-298.34 365.95,-290.82 383.93,-286.2"/>
<polygon fill="#9a32cd" stroke="#9a32cd" points="239.43,-350.16 233.21,-358.74 243.42,-355.91 239.43,-350.16"/>
</a>
</g>
<text xml:space="preserve" text-anchor="start" x="321.75" y="-321.5" font-family="Helvetica,sans-Serif" font-size="10.00" fill="grey">target_class</text>
</g>
<!-- Node17 -->
<g id="Node000017" class="node">
<title>Node17</title>
<g id="a_Node000017"><a xlink:href="structmrb__callinfo.html" target="_top" xlink:title=" ">
<polygon fill="white" stroke="#bfbfbf" points="375.25,-200 306.75,-200 306.75,-180 375.25,-180 375.25,-200"/>
<text xml:space="preserve" text-anchor="middle" x="341" y="-186.5" font-family="Helvetica,sans-Serif" font-size="10.00">mrb_callinfo</text>
</a>
</g>
</g>
<!-- Node2&#45;&gt;Node17 -->
<g id="edge27_Node000017_Node000002" class="edge">
<title>Node2&#45;&gt;Node17</title>
<g id="a_edge27_Node000017_Node000002"><a xlink:title=" ">
<path fill="none" stroke="#9a32cd" stroke-dasharray="5,2" d="M183.71,-356.67C141,-339.77 77.94,-307.23 104.75,-270 151.25,-205.42 252.95,-192.86 306.48,-190.91"/>
<polygon fill="#9a32cd" stroke="#9a32cd" points="182.32,-359.89 192.91,-360.18 184.81,-353.35 182.32,-359.89"/>
</a>
</g>
<text xml:space="preserve" text-anchor="start" x="107.75" y="-276.5" font-family="Helvetica,sans-Serif" font-size="10.00" fill="grey">target_class</text>
</g>
<!-- Node3 -->
<g id="Node000003" class="node">
<title>Node3</title>
<g id="a_Node000003"><a xlink:href="structiv__tbl.html" target="_top" xlink:title=" ">
<polygon fill="white" stroke="#bfbfbf" points="288.62,-470 249.38,-470 249.38,-450 288.62,-450 288.62,-470"/>
<text xml:space="preserve" text-anchor="middle" x="269" y="-456.5" font-family="Helvetica,sans-Serif" font-size="10.00">iv_tbl</text>
</a>
</g>
</g>
<!-- Node3&#45;&gt;Node2 -->
<g id="edge2_Node000002_Node000003" class="edge">
<title>Node3&#45;&gt;Node2</title>
<g id="a_edge2_Node000002_Node000003"><a xlink:title=" ">
<path fill="none" stroke="#9a32cd" stroke-dasharray="5,2" d="M258.01,-439.66C247.56,-421.27 232.3,-394.4 224.31,-380.35"/>
<polygon fill="#9a32cd" stroke="#9a32cd" points="254.92,-441.3 262.9,-448.27 261,-437.84 254.92,-441.3"/>
</a>
</g>
<text xml:space="preserve" text-anchor="start" x="255.83" y="-411.5" font-family="Helvetica,sans-Serif" font-size="10.00" fill="grey">iv</text>
</g>
<!-- Node4 -->
<g id="Node000004" class="node">
<title>Node4</title>
<g id="a_Node000004"><a xlink:href="structmrb__value.html" target="_top" xlink:title=" ">
<polygon fill="white" stroke="#bfbfbf" points="383.5,-544 322.5,-544 322.5,-524 383.5,-524 383.5,-544"/>
<text xml:space="preserve" text-anchor="middle" x="353" y="-530.5" font-family="Helvetica,sans-Serif" font-size="10.00">mrb_value</text>
</a>
</g>
</g>
<!-- Node4&#45;&gt;Node3 -->
<g id="edge3_Node000003_Node000004" class="edge">
<title>Node4&#45;&gt;Node3</title>
<g id="a_edge3_Node000003_Node000004"><a xlink:title=" ">
<path fill="none" stroke="#9a32cd" stroke-dasharray="5,2" d="M320.87,-518.44C314.53,-514.84 308.17,-510.66 302.75,-506 290.61,-495.56 280.17,-480.03 274.24,-470.21"/>
<polygon fill="#9a32cd" stroke="#9a32cd" points="318.85,-521.33 329.33,-522.9 322.11,-515.14 318.85,-521.33"/>
</a>
</g>
<text xml:space="preserve" text-anchor="start" x="305.75" y="-493.5" font-family="Helvetica,sans-Serif" font-size="10.00" fill="grey">ptr</text>
</g>
<!-- Node7 -->
<g id="Node000007" class="node">
<title>Node7</title>
<g id="a_Node000007"><a xlink:href="unionmt__ptr.html" target="_top" xlink:title=" ">
<polygon fill="white" stroke="#bfbfbf" points="440.88,-200 397.12,-200 397.12,-180 440.88,-180 440.88,-200"/>
<text xml:space="preserve" text-anchor="middle" x="419" y="-186.5" font-family="Helvetica,sans-Serif" font-size="10.00">mt_ptr</text>
</a>
</g>
</g>
<!-- Node4&#45;&gt;Node7 -->
<g id="edge30_Node000007_Node000004" class="edge">
<title>Node4&#45;&gt;Node7</title>
<g id="a_edge30_Node000007_Node000004"><a xlink:title=" ">
<path fill="none" stroke="#9a32cd" stroke-dasharray="5,2" d="M394.98,-526.67C451.22,-517.22 546.38,-497.56 567,-470 639.26,-373.41 478.02,-236.78 431.24,-200.27"/>
<polygon fill="#9a32cd" stroke="#9a32cd" points="394.74,-523.16 385.44,-528.23 395.87,-530.07 394.74,-523.16"/>
</a>
</g>
<text xml:space="preserve" text-anchor="start" x="581.99" y="-366.5" font-family="Helvetica,sans-Serif" font-size="10.00" fill="grey">func</text>
</g>
<!-- Node4&#45;&gt;Node8 -->
<g id="edge15_Node000008_Node000004" class="edge">
<title>Node4&#45;&gt;Node8</title>
<g id="a_edge15_Node000008_Node000004"><a xlink:title=" ">
<path fill="none" stroke="#9a32cd" stroke-dasharray="5,2" d="M357.32,-512.48C368.18,-460.82 396.34,-326.93 404.03,-290.35"/>
<polygon fill="#9a32cd" stroke="#9a32cd" points="353.89,-511.74 355.26,-522.25 360.74,-513.19 353.89,-511.74"/>
</a>
</g>
<text xml:space="preserve" text-anchor="start" x="384.33" y="-411.5" font-family="Helvetica,sans-Serif" font-size="10.00" fill="grey">func</text>
</g>
<!-- Node15 -->
<g id="Node000015" class="node">
<title>Node15</title>
<g id="a_Node000015"><a xlink:href="structREnv.html" target="_top" xlink:title=" ">
<polygon fill="white" stroke="#666666" points="433.38,-20 392.62,-20 392.62,0 433.38,0 433.38,-20"/>
<text xml:space="preserve" text-anchor="middle" x="413" y="-6.5" font-family="Helvetica,sans-Serif" font-size="10.00">REnv</text>
</a>
</g>
</g>
<!-- Node4&#45;&gt;Node15 -->
<g id="edge19_Node000015_Node000004" class="edge">
<title>Node4&#45;&gt;Node15</title>
<g id="a_edge19_Node000015_Node000004"><a xlink:title=" ">
<path fill="none" stroke="#9a32cd" stroke-dasharray="5,2" d="M394.95,-530.71C471.94,-525.34 628,-508.59 628,-461 628,-461 628,-461 628,-83 628,-42.26 487.43,-20.33 433.62,-13.43"/>
<polygon fill="#9a32cd" stroke="#9a32cd" points="395,-527.19 385.26,-531.34 395.46,-534.18 395,-527.19"/>
</a>
</g>
<text xml:space="preserve" text-anchor="start" x="631" y="-276.5" font-family="Helvetica,sans-Serif" font-size="10.00" fill="grey">stack</text>
</g>
<!-- Node16 -->
<g id="Node000016" class="node">
<title>Node16</title>
<g id="a_Node000016"><a xlink:href="structmrb__context.html" target="_top" xlink:title=" ">
<polygon fill="white" stroke="#bfbfbf" points="279,-94 209,-94 209,-74 279,-74 279,-94"/>
<text xml:space="preserve" text-anchor="middle" x="244" y="-80.5" font-family="Helvetica,sans-Serif" font-size="10.00">mrb_context</text>
</a>
</g>
</g>
<!-- Node4&#45;&gt;Node16 -->
<g id="edge22_Node000016_Node000004" class="edge">
<title>Node4&#45;&gt;Node16</title>
<g id="a_edge22_Node000016_Node000004"><a xlink:title=" ">
<path fill="none" stroke="#9a32cd" stroke-dasharray="5,2" d="M310.99,-533.16C217.41,-532.39 0,-523.83 0,-461 0,-461 0,-461 0,-189 0,-99.44 140.85,-85.93 208.52,-84.62"/>
<polygon fill="#9a32cd" stroke="#9a32cd" points="310.76,-536.66 320.78,-533.21 310.8,-529.66 310.76,-536.66"/>
</a>
</g>
<text xml:space="preserve" text-anchor="start" x="3" y="-329.5" font-family="Helvetica,sans-Serif" font-size="10.00" fill="grey">stbase</text>
<text xml:space="preserve" text-anchor="start" x="3" y="-313.5" font-family="Helvetica,sans-Serif" font-size="10.00" fill="grey">stend</text>
</g>
<!-- Node4&#45;&gt;Node17 -->
<g id="edge25_Node000017_Node000004" class="edge">
<title>Node4&#45;&gt;Node17</title>
<g id="a_edge25_Node000017_Node000004"><a xlink:title=" ">
<path fill="none" stroke="#9a32cd" stroke-dasharray="5,2" d="M352.28,-512.37C349.98,-446.99 342.93,-246.08 341.33,-200.34"/>
<polygon fill="#9a32cd" stroke="#9a32cd" points="348.78,-512.47 352.63,-522.34 355.77,-512.22 348.78,-512.47"/>
</a>
</g>
<text xml:space="preserve" text-anchor="start" x="350.53" y="-366.5" font-family="Helvetica,sans-Serif" font-size="10.00" fill="grey">stack</text>
</g>
<!-- Node5 -->
<g id="Node000005" class="node">
<title>Node5</title>
<g id="a_Node000005"><a xlink:href="unionmrb__value__union.html" target="_top" xlink:title=" ">
<polygon fill="white" stroke="#bfbfbf" points="397.75,-618 308.25,-618 308.25,-598 397.75,-598 397.75,-618"/>
<text xml:space="preserve" text-anchor="middle" x="353" y="-604.5" font-family="Helvetica,sans-Serif" font-size="10.00">mrb_value_union</text>
</a>
</g>
</g>
<!-- Node5&#45;&gt;Node4 -->
<g id="edge4_Node000004_Node000005" class="edge">
<title>Node5&#45;&gt;Node4</title>
<g id="a_edge4_Node000004_Node000005"><a xlink:title=" ">
<path fill="none" stroke="#9a32cd" stroke-dasharray="5,2" d="M353,-586.18C353,-572.29 353,-554.71 353,-544.19"/>
<polygon fill="#9a32cd" stroke="#9a32cd" points="349.5,-586.07 353,-596.07 356.5,-586.07 349.5,-586.07"/>
</a>
</g>
<text xml:space="preserve" text-anchor="start" x="356" y="-567.5" font-family="Helvetica,sans-Serif" font-size="10.00" fill="grey">value</text>
</g>
<!-- Node6 -->
<g id="Node000006" class="node">
<title>Node6</title>
<g id="a_Node000006"><a xlink:href="structmt__tbl.html" target="_top" xlink:title=" ">
<polygon fill="white" stroke="#bfbfbf" points="440.5,-94 397.5,-94 397.5,-74 440.5,-74 440.5,-94"/>
<text xml:space="preserve" text-anchor="middle" x="419" y="-80.5" font-family="Helvetica,sans-Serif" font-size="10.00">mt_tbl</text>
</a>
</g>
</g>
<!-- Node6&#45;&gt;Node2 -->
<g id="edge5_Node000002_Node000006" class="edge">
<title>Node6&#45;&gt;Node2</title>
<g id="a_edge5_Node000002_Node000006"><a xlink:title=" ">
<path fill="none" stroke="#9a32cd" stroke-dasharray="5,2" d="M386.14,-95.03C332.74,-105.45 313.19,-92.76 262,-112 181.72,-142.18 146.25,-145.3 100.75,-218 71.51,-264.73 65.16,-301.92 103,-342 115.28,-355 163.94,-362.76 194.2,-366.43"/>
<polygon fill="#9a32cd" stroke="#9a32cd" points="386.77,-98.47 395.81,-92.94 385.3,-91.63 386.77,-98.47"/>
</a>
</g>
<text xml:space="preserve" text-anchor="start" x="103.75" y="-231.5" font-family="Helvetica,sans-Serif" font-size="10.00" fill="grey">mt</text>
</g>
<!-- Node7&#45;&gt;Node6 -->
<g id="edge6_Node000006_Node000007" class="edge">
<title>Node7&#45;&gt;Node6</title>
<g id="a_edge6_Node000006_Node000007"><a xlink:title=" ">
<path fill="none" stroke="#9a32cd" stroke-dasharray="5,2" d="M419,-168.51C419,-146.04 419,-110.99 419,-94.36"/>
<polygon fill="#9a32cd" stroke="#9a32cd" points="415.5,-168.26 419,-178.26 422.5,-168.26 415.5,-168.26"/>
</a>
</g>
<text xml:space="preserve" text-anchor="start" x="422" y="-133.5" font-family="Helvetica,sans-Serif" font-size="10.00" fill="grey">ptr</text>
</g>
<!-- Node8&#45;&gt;Node7 -->
<g id="edge7_Node000007_Node000008" class="edge">
<title>Node8&#45;&gt;Node7</title>
<g id="a_edge7_Node000007_Node000008"><a xlink:title=" ">
<path fill="none" stroke="#9a32cd" stroke-dasharray="5,2" d="M409.05,-258.35C411.76,-240.02 415.59,-214.07 417.62,-200.35"/>
<polygon fill="#9a32cd" stroke="#9a32cd" points="405.61,-257.68 407.61,-268.09 412.54,-258.7 405.61,-257.68"/>
</a>
</g>
<text xml:space="preserve" text-anchor="start" x="417.8" y="-231.5" font-family="Helvetica,sans-Serif" font-size="10.00" fill="grey">proc</text>
</g>
<!-- Node8&#45;&gt;Node8 -->
<g id="edge16_Node000008_Node000008" class="edge">
<title>Node8&#45;&gt;Node8</title>
<g id="a_edge16_Node000008_Node000008"><a xlink:title=" ">
<path fill="none" stroke="#9a32cd" stroke-dasharray="5,2" d="M439.32,-287.24C443.29,-285.93 445.88,-283.51 445.88,-280 445.88,-273.76 437.7,-270.98 428.14,-271.66"/>
<polygon fill="#9a32cd" stroke="#9a32cd" points="439.26,-283.73 429.65,-288.19 439.94,-290.7 439.26,-283.73"/>
</a>
</g>
<text xml:space="preserve" text-anchor="start" x="448.88" y="-276.5" font-family="Helvetica,sans-Serif" font-size="10.00" fill="grey">upper</text>
</g>
<!-- Node8&#45;&gt;Node17 -->
<g id="edge24_Node000017_Node000008" class="edge">
<title>Node8&#45;&gt;Node17</title>
<g id="a_edge24_Node000017_Node000008"><a xlink:title=" ">
<path fill="none" stroke="#9a32cd" stroke-dasharray="5,2" d="M389.33,-261.62C386.55,-258.49 383.75,-255.21 381.25,-252 367.67,-234.59 353.96,-212.67 346.56,-200.41"/>
<polygon fill="#9a32cd" stroke="#9a32cd" points="386.53,-263.75 395.89,-268.71 391.67,-258.99 386.53,-263.75"/>
</a>
</g>
<text xml:space="preserve" text-anchor="start" x="384.25" y="-239.5" font-family="Helvetica,sans-Serif" font-size="10.00" fill="grey">blk</text>
<text xml:space="preserve" text-anchor="start" x="384.25" y="-223.5" font-family="Helvetica,sans-Serif" font-size="10.00" fill="grey">proc</text>
</g>
<!-- Node9 -->
<g id="Node000009" class="node">
<title>Node9</title>
<g id="a_Node000009"><a xlink:href="structmrb__irep.html" target="_top" xlink:title=" ">
<polygon fill="white" stroke="#bfbfbf" points="486.75,-380 433.25,-380 433.25,-360 486.75,-360 486.75,-380"/>
<text xml:space="preserve" text-anchor="middle" x="460" y="-366.5" font-family="Helvetica,sans-Serif" font-size="10.00">mrb_irep</text>
</a>
</g>
</g>
<!-- Node9&#45;&gt;Node8 -->
<g id="edge8_Node000008_Node000009" class="edge">
<title>Node9&#45;&gt;Node8</title>
<g id="a_edge8_Node000008_Node000009"><a xlink:title=" ">
<path fill="none" stroke="#9a32cd" stroke-dasharray="5,2" d="M448.29,-349.92C437,-331.53 420.4,-304.47 411.74,-290.35"/>
<polygon fill="#9a32cd" stroke="#9a32cd" points="445.22,-351.6 453.43,-358.29 451.18,-347.94 445.22,-351.6"/>
</a>
</g>
<text xml:space="preserve" text-anchor="start" x="445.53" y="-321.5" font-family="Helvetica,sans-Serif" font-size="10.00" fill="grey">irep</text>
</g>
<!-- Node9&#45;&gt;Node9 -->
<g id="edge11_Node000009_Node000009" class="edge">
<title>Node9&#45;&gt;Node9</title>
<g id="a_edge11_Node000009_Node000009"><a xlink:title=" ">
<path fill="none" stroke="#9a32cd" stroke-dasharray="5,2" d="M498.31,-376.95C502.24,-375.58 504.75,-373.26 504.75,-370 504.75,-364.2 496.82,-361.39 487.09,-361.57"/>
<polygon fill="#9a32cd" stroke="#9a32cd" points="498.05,-373.45 488.59,-378.23 498.96,-380.39 498.05,-373.45"/>
</a>
</g>
<text xml:space="preserve" text-anchor="start" x="507.75" y="-366.5" font-family="Helvetica,sans-Serif" font-size="10.00" fill="grey">reps</text>
</g>
<!-- Node10 -->
<g id="Node000010" class="node">
<title>Node10</title>
<g id="a_Node000010"><a xlink:href="structmrb__pool__value.html" target="_top" xlink:title=" ">
<polygon fill="white" stroke="#bfbfbf" points="558.12,-470 473.88,-470 473.88,-450 558.12,-450 558.12,-470"/>
<text xml:space="preserve" text-anchor="middle" x="516" y="-456.5" font-family="Helvetica,sans-Serif" font-size="10.00">mrb_pool_value</text>
</a>
</g>
</g>
<!-- Node10&#45;&gt;Node9 -->
<g id="edge9_Node000009_Node000010" class="edge">
<title>Node10&#45;&gt;Node9</title>
<g id="a_edge9_Node000009_Node000010"><a xlink:title=" ">
<path fill="none" stroke="#9a32cd" stroke-dasharray="5,2" d="M507.23,-439.41C501.36,-427.09 493.06,-411.1 484,-398 479.58,-391.6 473.81,-385.07 469.03,-380.03"/>
<polygon fill="#9a32cd" stroke="#9a32cd" points="503.89,-440.52 511.26,-448.13 510.24,-437.58 503.89,-440.52"/>
</a>
</g>
<text xml:space="preserve" text-anchor="start" x="506.57" y="-411.5" font-family="Helvetica,sans-Serif" font-size="10.00" fill="grey">pool</text>
</g>
<!-- Node11 -->
<g id="Node000011" class="node">
<title>Node11</title>
<g id="a_Node000011"><a xlink:href="classmrb__sym.html" target="_top" xlink:title=" ">
<polygon fill="white" stroke="#666666" points="456.25,-470 399.75,-470 399.75,-450 456.25,-450 456.25,-470"/>
<text xml:space="preserve" text-anchor="middle" x="428" y="-456.5" font-family="Helvetica,sans-Serif" font-size="10.00">mrb_sym</text>
</a>
</g>
</g>
<!-- Node11&#45;&gt;Node9 -->
<g id="edge10_Node000009_Node000011" class="edge">
<title>Node11&#45;&gt;Node9</title>
<g id="a_edge10_Node000009_Node000011"><a xlink:title=" ">
<path fill="none" stroke="#9a32cd" stroke-dasharray="5,2" d="M435.32,-438.88C441.99,-420.52 451.56,-394.2 456.6,-380.35"/>
<polygon fill="#9a32cd" stroke="#9a32cd" points="432.07,-437.57 431.94,-448.16 438.65,-439.96 432.07,-437.57"/>
</a>
</g>
<text xml:space="preserve" text-anchor="start" x="452.65" y="-419.5" font-family="Helvetica,sans-Serif" font-size="10.00" fill="grey">lv</text>
<text xml:space="preserve" text-anchor="start" x="452.65" y="-403.5" font-family="Helvetica,sans-Serif" font-size="10.00" fill="grey">syms</text>
</g>
<!-- Node12 -->
<g id="Node000012" class="node">
<title>Node12</title>
<g id="a_Node000012"><a xlink:href="structmrb__irep__debug__info.html" target="_top" xlink:title=" ">
<polygon fill="white" stroke="#bfbfbf" points="762,-470 656,-470 656,-450 762,-450 762,-470"/>
<text xml:space="preserve" text-anchor="middle" x="709" y="-456.5" font-family="Helvetica,sans-Serif" font-size="10.00">mrb_irep_debug_info</text>
</a>
</g>
</g>
<!-- Node12&#45;&gt;Node9 -->
<g id="edge12_Node000009_Node000012" class="edge">
<title>Node12&#45;&gt;Node9</title>
<g id="a_edge12_Node000009_Node000012"><a xlink:title=" ">
<path fill="none" stroke="#9a32cd" stroke-dasharray="5,2" d="M671.53,-445.76C620.78,-427.82 531.4,-396.23 486.83,-380.48"/>
<polygon fill="#9a32cd" stroke="#9a32cd" points="670.33,-449.05 680.93,-449.08 672.66,-442.45 670.33,-449.05"/>
</a>
</g>
<text xml:space="preserve" text-anchor="start" x="631.46" y="-411.5" font-family="Helvetica,sans-Serif" font-size="10.00" fill="grey">debug_info</text>
</g>
<!-- Node13 -->
<g id="Node000013" class="node">
<title>Node13</title>
<g id="a_Node000013"><a xlink:href="structmrb__irep__debug__info__file.html" target="_top" xlink:title=" ">
<polygon fill="white" stroke="#bfbfbf" points="771,-544 647,-544 647,-524 771,-524 771,-544"/>
<text xml:space="preserve" text-anchor="middle" x="709" y="-530.5" font-family="Helvetica,sans-Serif" font-size="10.00">mrb_irep_debug_info_file</text>
</a>
</g>
</g>
<!-- Node13&#45;&gt;Node12 -->
<g id="edge13_Node000012_Node000013" class="edge">
<title>Node13&#45;&gt;Node12</title>
<g id="a_edge13_Node000012_Node000013"><a xlink:title=" ">
<path fill="none" stroke="#9a32cd" stroke-dasharray="5,2" d="M709,-512.18C709,-498.29 709,-480.71 709,-470.19"/>
<polygon fill="#9a32cd" stroke="#9a32cd" points="705.5,-512.07 709,-522.07 712.5,-512.07 705.5,-512.07"/>
</a>
</g>
<text xml:space="preserve" text-anchor="start" x="712" y="-493.5" font-family="Helvetica,sans-Serif" font-size="10.00" fill="grey">files</text>
</g>
<!-- Node14 -->
<g id="Node000014" class="node">
<title>Node14</title>
<g id="a_Node000014"><a xlink:href="structmrb__irep__debug__info__line.html" target="_top" xlink:title=" ">
<polygon fill="white" stroke="#bfbfbf" points="772.12,-618 645.88,-618 645.88,-598 772.12,-598 772.12,-618"/>
<text xml:space="preserve" text-anchor="middle" x="709" y="-604.5" font-family="Helvetica,sans-Serif" font-size="10.00">mrb_irep_debug_info_line</text>
</a>
</g>
</g>
<!-- Node14&#45;&gt;Node13 -->
<g id="edge14_Node000013_Node000014" class="edge">
<title>Node14&#45;&gt;Node13</title>
<g id="a_edge14_Node000013_Node000014"><a xlink:title=" ">
<path fill="none" stroke="#9a32cd" stroke-dasharray="5,2" d="M709,-586.18C709,-572.29 709,-554.71 709,-544.19"/>
<polygon fill="#9a32cd" stroke="#9a32cd" points="705.5,-586.07 709,-596.07 712.5,-586.07 705.5,-586.07"/>
</a>
</g>
<text xml:space="preserve" text-anchor="start" x="712" y="-567.5" font-family="Helvetica,sans-Serif" font-size="10.00" fill="grey">flat_map</text>
</g>
<!-- Node15&#45;&gt;Node8 -->
<g id="edge18_Node000008_Node000015" class="edge">
<title>Node15&#45;&gt;Node8</title>
<g id="a_edge18_Node000008_Node000015"><a xlink:title=" ">
<path fill="none" stroke="#9a32cd" stroke-dasharray="5,2" d="M426.91,-29.45C435.07,-41.45 444.62,-57.82 449,-74 450.47,-79.43 461.99,-221.58 444,-252 439.63,-259.38 432.37,-265.28 425.35,-269.66"/>
<polygon fill="#9a32cd" stroke="#9a32cd" points="429.8,-27.47 421.14,-21.37 424.11,-31.54 429.8,-27.47"/>
</a>
</g>
<text xml:space="preserve" text-anchor="start" x="456.92" y="-133.5" font-family="Helvetica,sans-Serif" font-size="10.00" fill="grey">env</text>
</g>
<!-- Node15&#45;&gt;Node17 -->
<g id="edge26_Node000017_Node000015" class="edge">
<title>Node15&#45;&gt;Node17</title>
<g id="a_edge26_Node000017_Node000015"><a xlink:title=" ">
<path fill="none" stroke="#9a32cd" stroke-dasharray="5,2" d="M396.45,-28.93C386.29,-40.87 373.82,-57.37 366.25,-74 357.53,-93.16 346.49,-155.95 342.51,-179.75"/>
<polygon fill="#9a32cd" stroke="#9a32cd" points="398.97,-31.37 402.96,-21.55 393.72,-26.74 398.97,-31.37"/>
</a>
</g>
<text xml:space="preserve" text-anchor="start" x="369.25" y="-80.5" font-family="Helvetica,sans-Serif" font-size="10.00" fill="grey">env</text>
</g>
<!-- Node16&#45;&gt;Node15 -->
<g id="edge20_Node000015_Node000016" class="edge">
<title>Node16&#45;&gt;Node15</title>
<g id="a_edge20_Node000015_Node000016"><a xlink:title=" ">
<path fill="none" stroke="#9a32cd" stroke-dasharray="5,2" d="M268.08,-67.75C283.72,-58.3 304.81,-46.39 324.5,-38 346.96,-28.43 373.95,-20.7 392.17,-16.01"/>
<polygon fill="#9a32cd" stroke="#9a32cd" points="266.62,-64.54 259.94,-72.76 270.29,-70.5 266.62,-64.54"/>
</a>
</g>
<text xml:space="preserve" text-anchor="start" x="327.5" y="-43.5" font-family="Helvetica,sans-Serif" font-size="10.00" fill="grey">cxt</text>
</g>
<!-- Node16&#45;&gt;Node16 -->
<g id="edge21_Node000016_Node000016" class="edge">
<title>Node16&#45;&gt;Node16</title>
<g id="a_edge21_Node000016_Node000016"><a xlink:title=" ">
<path fill="none" stroke="#9a32cd" stroke-dasharray="5,2" d="M290.27,-89.48C294.41,-88.33 297,-86.51 297,-84 297,-79.66 289.24,-77.36 279.17,-77.09"/>
<polygon fill="#9a32cd" stroke="#9a32cd" points="290.14,-85.97 280.67,-90.72 291.03,-92.91 290.14,-85.97"/>
</a>
</g>
<text xml:space="preserve" text-anchor="start" x="300" y="-80.5" font-family="Helvetica,sans-Serif" font-size="10.00" fill="grey">prev</text>
</g>
<!-- Node18 -->
<g id="Node000018" class="node">
<title>Node18</title>
<g id="a_Node000018"><a xlink:href="structRFiber.html" target="_top" xlink:title=" ">
<polygon fill="white" stroke="#bfbfbf" points="255.62,-20 210.38,-20 210.38,0 255.62,0 255.62,-20"/>
<text xml:space="preserve" text-anchor="middle" x="233" y="-6.5" font-family="Helvetica,sans-Serif" font-size="10.00">RFiber</text>
</a>
</g>
</g>
<!-- Node16&#45;&gt;Node18 -->
<g id="edge29_Node000018_Node000016" class="edge">
<title>Node16&#45;&gt;Node18</title>
<g id="a_edge29_Node000018_Node000016"><a xlink:title=" ">
<path fill="none" stroke="#9a32cd" stroke-dasharray="5,2" d="M240.88,-62.6C238.75,-48.65 236.03,-30.82 234.4,-20.19"/>
<polygon fill="#9a32cd" stroke="#9a32cd" points="237.36,-62.73 242.33,-72.09 244.28,-61.68 237.36,-62.73"/>
</a>
</g>
<text xml:space="preserve" text-anchor="start" x="242.81" y="-43.5" font-family="Helvetica,sans-Serif" font-size="10.00" fill="grey">cxt</text>
</g>
<!-- Node17&#45;&gt;Node16 -->
<g id="edge23_Node000016_Node000017" class="edge">
<title>Node17&#45;&gt;Node16</title>
<g id="a_edge23_Node000016_Node000017"><a xlink:title=" ">
<path fill="none" stroke="#9a32cd" stroke-dasharray="5,2" d="M320.68,-172.41C316.87,-169.07 312.99,-165.5 309.5,-162 286.71,-139.12 262.84,-109.35 251.22,-94.42"/>
<polygon fill="#9a32cd" stroke="#9a32cd" points="318.2,-174.89 328.09,-178.69 322.73,-169.55 318.2,-174.89"/>
</a>
</g>
<text xml:space="preserve" text-anchor="start" x="312.5" y="-149.5" font-family="Helvetica,sans-Serif" font-size="10.00" fill="grey">ci</text>
<text xml:space="preserve" text-anchor="start" x="312.5" y="-133.5" font-family="Helvetica,sans-Serif" font-size="10.00" fill="grey">cibase</text>
<text xml:space="preserve" text-anchor="start" x="312.5" y="-117.5" font-family="Helvetica,sans-Serif" font-size="10.00" fill="grey">ciend</text>
</g>
<!-- Node18&#45;&gt;Node16 -->
<g id="edge28_Node000016_Node000018" class="edge">
<title>Node18&#45;&gt;Node16</title>
<g id="a_edge28_Node000016_Node000018"><a xlink:title=" ">
<path fill="none" stroke="#9a32cd" stroke-dasharray="5,2" d="M218.29,-29.68C213.7,-37.8 210.72,-47.41 214.5,-56 217.63,-63.12 223.67,-69.17 229.47,-73.74"/>
<polygon fill="#9a32cd" stroke="#9a32cd" points="221.04,-31.87 223.73,-21.62 215.24,-27.95 221.04,-31.87"/>
</a>
</g>
<text xml:space="preserve" text-anchor="start" x="217.5" y="-43.5" font-family="Helvetica,sans-Serif" font-size="10.00" fill="grey">fib</text>
</g>
</g>
</svg>
