<?xml version="1.0" encoding="UTF-8" standalone="no"?>
<!DOCTYPE svg PUBLIC "-//W3C//DTD SVG 1.1//EN"
 "http://www.w3.org/Graphics/SVG/1.1/DTD/svg11.dtd">
<!-- Generated by graphviz version 14.0.5 (0)
 -->
<!-- Title: nghttp2_pq Pages: 1 -->
<svg width="192pt" height="102pt"
 viewBox="0.00 0.00 192.00 102.00" xmlns="http://www.w3.org/2000/svg" xmlns:xlink="http://www.w3.org/1999/xlink">
<g id="graph0" class="graph" transform="scale(1 1) rotate(0) translate(4 98)">
<title>nghttp2_pq</title>
<!-- Node1 -->
<g id="Node000001" class="node">
<title>Node1</title>
<g id="a_Node000001"><a xlink:title=" ">
<polygon fill="#999999" stroke="#666666" points="127.5,-20 63.5,-20 63.5,0 127.5,0 127.5,-20"/>
<text xml:space="preserve" text-anchor="middle" x="95.5" y="-6.5" font-family="Helvetica,sans-Serif" font-size="10.00">nghttp2_pq</text>
</a>
</g>
</g>
<!-- Node2 -->
<g id="Node000002" class="node">
<title>Node2</title>
<g id="a_Node000002"><a xlink:href="structnghttp2__pq__entry.html" target="_top" xlink:title=" ">
<polygon fill="white" stroke="#bfbfbf" points="91,-94 0,-94 0,-74 91,-74 91,-94"/>
<text xml:space="preserve" text-anchor="middle" x="45.5" y="-80.5" font-family="Helvetica,sans-Serif" font-size="10.00">nghttp2_pq_entry</text>
</a>
</g>
</g>
<!-- Node2&#45;&gt;Node1 -->
<g id="edge1_Node000001_Node000002" class="edge">
<title>Node2&#45;&gt;Node1</title>
<g id="a_edge1_Node000001_Node000002"><a xlink:title=" ">
<path fill="none" stroke="#9a32cd" stroke-dasharray="5,2" d="M58.5,-64.27C68.35,-50.1 81.44,-31.25 89.12,-20.19"/>
<polygon fill="#9a32cd" stroke="#9a32cd" points="55.73,-62.13 52.9,-72.34 61.48,-66.13 55.73,-62.13"/>
</a>
</g>
<text xml:space="preserve" text-anchor="start" x="79.45" y="-43.5" font-family="Helvetica,sans-Serif" font-size="10.00" fill="grey">q</text>
</g>
<!-- Node3 -->
<g id="Node000003" class="node">
<title>Node3</title>
<g id="a_Node000003"><a xlink:href="structnghttp2__mem.html" target="_top" xlink:title=" ">
<polygon fill="white" stroke="#666666" points="184.12,-94 108.88,-94 108.88,-74 184.12,-74 184.12,-94"/>
<text xml:space="preserve" text-anchor="middle" x="146.5" y="-80.5" font-family="Helvetica,sans-Serif" font-size="10.00">nghttp2_mem</text>
</a>
</g>
</g>
<!-- Node3&#45;&gt;Node1 -->
<g id="edge2_Node000001_Node000003" class="edge">
<title>Node3&#45;&gt;Node1</title>
<g id="a_edge2_Node000001_Node000003"><a xlink:title=" ">
<path fill="none" stroke="#9a32cd" stroke-dasharray="5,2" d="M133.24,-64.27C123.2,-50.1 109.84,-31.25 102.01,-20.19"/>
<polygon fill="#9a32cd" stroke="#9a32cd" points="130.32,-66.21 138.96,-72.35 136.03,-62.17 130.32,-66.21"/>
</a>
</g>
<text xml:space="preserve" text-anchor="start" x="130.07" y="-43.5" font-family="Helvetica,sans-Serif" font-size="10.00" fill="grey">mem</text>
</g>
</g>
</svg>
