<?xml version="1.0" encoding="UTF-8" standalone="no"?>
<!DOCTYPE svg PUBLIC "-//W3C//DTD SVG 1.1//EN"
 "http://www.w3.org/Graphics/SVG/1.1/DTD/svg11.dtd">
<!-- Generated by graphviz version 14.0.5 (0)
 -->
<!-- Title: expand_lvspace Pages: 1 -->
<svg width="616pt" height="906pt"
 viewBox="0.00 0.00 616.00 906.00" xmlns="http://www.w3.org/2000/svg" xmlns:xlink="http://www.w3.org/1999/xlink">
<g id="graph0" class="graph" transform="scale(1 1) rotate(0) translate(4 902)">
<title>expand_lvspace</title>
<!-- Node1 -->
<g id="Node000001" class="node">
<title>Node1</title>
<g id="a_Node000001"><a xlink:title=" ">
<polygon fill="#999999" stroke="#666666" points="193.38,-20 106.88,-20 106.88,0 193.38,0 193.38,-20"/>
<text xml:space="preserve" text-anchor="middle" x="150.12" y="-6.5" font-family="Helvetica,sans-Serif" font-size="10.00">expand_lvspace</text>
</a>
</g>
</g>
<!-- Node2 -->
<g id="Node000002" class="node">
<title>Node2</title>
<g id="a_Node000002"><a xlink:href="structmrb__irep.html" target="_top" xlink:title=" ">
<polygon fill="white" stroke="#bfbfbf" points="202.88,-660 149.38,-660 149.38,-640 202.88,-640 202.88,-660"/>
<text xml:space="preserve" text-anchor="middle" x="176.12" y="-646.5" font-family="Helvetica,sans-Serif" font-size="10.00">mrb_irep</text>
</a>
</g>
</g>
<!-- Node2&#45;&gt;Node1 -->
<g id="edge1_Node000001_Node000002" class="edge">
<title>Node2&#45;&gt;Node1</title>
<g id="a_edge1_Node000001_Node000002"><a xlink:title=" ">
<path fill="none" stroke="#9a32cd" stroke-dasharray="5,2" d="M158.8,-631.4C147.23,-617.73 134.12,-597.69 134.12,-577 134.12,-577 134.12,-577 134.12,-83 134.12,-59.95 142.04,-33.72 146.73,-20.18"/>
<polygon fill="#9a32cd" stroke="#9a32cd" points="156.06,-633.58 165.37,-638.64 161.24,-628.88 156.06,-633.58"/>
</a>
</g>
<text xml:space="preserve" text-anchor="start" x="137.12" y="-334.5" font-family="Helvetica,sans-Serif" font-size="10.00" fill="grey">irep</text>
</g>
<!-- Node2&#45;&gt;Node2 -->
<g id="edge4_Node000002_Node000002" class="edge">
<title>Node2&#45;&gt;Node2</title>
<g id="a_edge4_Node000002_Node000002"><a xlink:title=" ">
<path fill="none" stroke="#9a32cd" stroke-dasharray="5,2" d="M214.44,-655.71C218.37,-654.59 220.88,-652.68 220.88,-650 220.88,-645.23 212.94,-642.92 203.21,-643.07"/>
<polygon fill="#9a32cd" stroke="#9a32cd" points="214.28,-652.21 204.72,-656.77 215.04,-659.17 214.28,-652.21"/>
</a>
</g>
<text xml:space="preserve" text-anchor="start" x="223.88" y="-646.5" font-family="Helvetica,sans-Serif" font-size="10.00" fill="grey">reps</text>
</g>
<!-- Node13 -->
<g id="Node000013" class="node">
<title>Node13</title>
<g id="a_Node000013"><a xlink:href="structRProc.html" target="_top" xlink:title=" ">
<polygon fill="white" stroke="#bfbfbf" points="261,-586 217.25,-586 217.25,-566 261,-566 261,-586"/>
<text xml:space="preserve" text-anchor="middle" x="239.12" y="-572.5" font-family="Helvetica,sans-Serif" font-size="10.00">RProc</text>
</a>
</g>
</g>
<!-- Node2&#45;&gt;Node13 -->
<g id="edge16_Node000013_Node000002" class="edge">
<title>Node2&#45;&gt;Node13</title>
<g id="a_edge16_Node000013_Node000002"><a xlink:title=" ">
<path fill="none" stroke="#9a32cd" stroke-dasharray="5,2" d="M191.79,-631.09C204.27,-616.84 221.22,-597.46 231.09,-586.19"/>
<polygon fill="#9a32cd" stroke="#9a32cd" points="189.31,-628.62 185.36,-638.45 194.58,-633.23 189.31,-628.62"/>
</a>
</g>
<text xml:space="preserve" text-anchor="start" x="218.12" y="-609.5" font-family="Helvetica,sans-Serif" font-size="10.00" fill="grey">irep</text>
</g>
<!-- Node3 -->
<g id="Node000003" class="node">
<title>Node3</title>
<g id="a_Node000003"><a xlink:href="structmrb__pool__value.html" target="_top" xlink:title=" ">
<polygon fill="white" stroke="#bfbfbf" points="218.25,-750 134,-750 134,-730 218.25,-730 218.25,-750"/>
<text xml:space="preserve" text-anchor="middle" x="176.12" y="-736.5" font-family="Helvetica,sans-Serif" font-size="10.00">mrb_pool_value</text>
</a>
</g>
</g>
<!-- Node3&#45;&gt;Node2 -->
<g id="edge2_Node000002_Node000003" class="edge">
<title>Node3&#45;&gt;Node2</title>
<g id="a_edge2_Node000002_Node000003"><a xlink:title=" ">
<path fill="none" stroke="#9a32cd" stroke-dasharray="5,2" d="M176.12,-718.09C176.12,-699.77 176.12,-674.01 176.12,-660.35"/>
<polygon fill="#9a32cd" stroke="#9a32cd" points="172.63,-718.07 176.13,-728.07 179.63,-718.07 172.63,-718.07"/>
</a>
</g>
<text xml:space="preserve" text-anchor="start" x="179.12" y="-691.5" font-family="Helvetica,sans-Serif" font-size="10.00" fill="grey">pool</text>
</g>
<!-- Node4 -->
<g id="Node000004" class="node">
<title>Node4</title>
<g id="a_Node000004"><a xlink:href="classmrb__sym.html" target="_top" xlink:title=" ">
<polygon fill="white" stroke="#666666" points="292.38,-750 235.88,-750 235.88,-730 292.38,-730 292.38,-750"/>
<text xml:space="preserve" text-anchor="middle" x="264.12" y="-736.5" font-family="Helvetica,sans-Serif" font-size="10.00">mrb_sym</text>
</a>
</g>
</g>
<!-- Node4&#45;&gt;Node2 -->
<g id="edge3_Node000002_Node000004" class="edge">
<title>Node4&#45;&gt;Node2</title>
<g id="a_edge3_Node000002_Node000004"><a xlink:title=" ">
<path fill="none" stroke="#9a32cd" stroke-dasharray="5,2" d="M247.44,-721.79C235.47,-709.51 218.9,-692.63 204.12,-678 198.17,-672.11 191.42,-665.59 186.03,-660.43"/>
<polygon fill="#9a32cd" stroke="#9a32cd" points="244.72,-724.02 254.2,-728.75 249.74,-719.14 244.72,-724.02"/>
</a>
</g>
<text xml:space="preserve" text-anchor="start" x="239.92" y="-699.5" font-family="Helvetica,sans-Serif" font-size="10.00" fill="grey">lv</text>
<text xml:space="preserve" text-anchor="start" x="239.92" y="-683.5" font-family="Helvetica,sans-Serif" font-size="10.00" fill="grey">syms</text>
</g>
<!-- Node5 -->
<g id="Node000005" class="node">
<title>Node5</title>
<g id="a_Node000005"><a xlink:href="structmrb__irep__debug__info.html" target="_top" xlink:title=" ">
<polygon fill="white" stroke="#bfbfbf" points="116.12,-750 10.12,-750 10.12,-730 116.12,-730 116.12,-750"/>
<text xml:space="preserve" text-anchor="middle" x="63.12" y="-736.5" font-family="Helvetica,sans-Serif" font-size="10.00">mrb_irep_debug_info</text>
</a>
</g>
</g>
<!-- Node5&#45;&gt;Node2 -->
<g id="edge5_Node000002_Node000005" class="edge">
<title>Node5&#45;&gt;Node2</title>
<g id="a_edge5_Node000002_Node000005"><a xlink:title=" ">
<path fill="none" stroke="#9a32cd" stroke-dasharray="5,2" d="M76.73,-720.63C87.15,-707.5 102.5,-690.08 118.88,-678 128.51,-670.89 140.32,-664.94 150.71,-660.45"/>
<polygon fill="#9a32cd" stroke="#9a32cd" points="74.01,-718.42 70.7,-728.48 79.56,-722.69 74.01,-718.42"/>
</a>
</g>
<text xml:space="preserve" text-anchor="start" x="121.88" y="-691.5" font-family="Helvetica,sans-Serif" font-size="10.00" fill="grey">debug_info</text>
</g>
<!-- Node6 -->
<g id="Node000006" class="node">
<title>Node6</title>
<g id="a_Node000006"><a xlink:href="structmrb__irep__debug__info__file.html" target="_top" xlink:title=" ">
<polygon fill="white" stroke="#bfbfbf" points="125.12,-824 1.12,-824 1.12,-804 125.12,-804 125.12,-824"/>
<text xml:space="preserve" text-anchor="middle" x="63.12" y="-810.5" font-family="Helvetica,sans-Serif" font-size="10.00">mrb_irep_debug_info_file</text>
</a>
</g>
</g>
<!-- Node6&#45;&gt;Node5 -->
<g id="edge6_Node000005_Node000006" class="edge">
<title>Node6&#45;&gt;Node5</title>
<g id="a_edge6_Node000005_Node000006"><a xlink:title=" ">
<path fill="none" stroke="#9a32cd" stroke-dasharray="5,2" d="M63.12,-792.18C63.12,-778.29 63.12,-760.71 63.12,-750.19"/>
<polygon fill="#9a32cd" stroke="#9a32cd" points="59.63,-792.07 63.13,-802.07 66.63,-792.07 59.63,-792.07"/>
</a>
</g>
<text xml:space="preserve" text-anchor="start" x="66.12" y="-773.5" font-family="Helvetica,sans-Serif" font-size="10.00" fill="grey">files</text>
</g>
<!-- Node7 -->
<g id="Node000007" class="node">
<title>Node7</title>
<g id="a_Node000007"><a xlink:href="structmrb__irep__debug__info__line.html" target="_top" xlink:title=" ">
<polygon fill="white" stroke="#bfbfbf" points="126.25,-898 0,-898 0,-878 126.25,-878 126.25,-898"/>
<text xml:space="preserve" text-anchor="middle" x="63.12" y="-884.5" font-family="Helvetica,sans-Serif" font-size="10.00">mrb_irep_debug_info_line</text>
</a>
</g>
</g>
<!-- Node7&#45;&gt;Node6 -->
<g id="edge7_Node000006_Node000007" class="edge">
<title>Node7&#45;&gt;Node6</title>
<g id="a_edge7_Node000006_Node000007"><a xlink:title=" ">
<path fill="none" stroke="#9a32cd" stroke-dasharray="5,2" d="M63.12,-866.18C63.12,-852.29 63.12,-834.71 63.12,-824.19"/>
<polygon fill="#9a32cd" stroke="#9a32cd" points="59.63,-866.07 63.13,-876.07 66.63,-866.07 59.63,-866.07"/>
</a>
</g>
<text xml:space="preserve" text-anchor="start" x="66.12" y="-847.5" font-family="Helvetica,sans-Serif" font-size="10.00" fill="grey">flat_map</text>
</g>
<!-- Node8 -->
<g id="Node000008" class="node">
<title>Node8</title>
<g id="a_Node000008"><a xlink:href="structREnv.html" target="_top" xlink:title=" ">
<polygon fill="white" stroke="#666666" points="376.5,-94 335.75,-94 335.75,-74 376.5,-74 376.5,-94"/>
<text xml:space="preserve" text-anchor="middle" x="356.12" y="-80.5" font-family="Helvetica,sans-Serif" font-size="10.00">REnv</text>
</a>
</g>
</g>
<!-- Node8&#45;&gt;Node1 -->
<g id="edge8_Node000001_Node000008" class="edge">
<title>Node8&#45;&gt;Node1</title>
<g id="a_edge8_Node000001_Node000008"><a xlink:title=" ">
<path fill="none" stroke="#9a32cd" stroke-dasharray="5,2" d="M324.83,-72.06C284.5,-57.96 215.06,-33.7 177,-20.39"/>
<polygon fill="#9a32cd" stroke="#9a32cd" points="323.6,-75.34 334.19,-75.33 325.91,-68.73 323.6,-75.34"/>
</a>
</g>
<text xml:space="preserve" text-anchor="start" x="280.63" y="-43.5" font-family="Helvetica,sans-Serif" font-size="10.00" fill="grey">env</text>
</g>
<!-- Node12 -->
<g id="Node000012" class="node">
<title>Node12</title>
<g id="a_Node000012"><a xlink:href="structmrb__callinfo.html" target="_top" xlink:title=" ">
<polygon fill="white" stroke="#bfbfbf" points="390.38,-274 321.88,-274 321.88,-254 390.38,-254 390.38,-274"/>
<text xml:space="preserve" text-anchor="middle" x="356.12" y="-260.5" font-family="Helvetica,sans-Serif" font-size="10.00">mrb_callinfo</text>
</a>
</g>
</g>
<!-- Node8&#45;&gt;Node12 -->
<g id="edge29_Node000012_Node000008" class="edge">
<title>Node8&#45;&gt;Node12</title>
<g id="a_edge29_Node000012_Node000008"><a xlink:title=" ">
<path fill="none" stroke="#9a32cd" stroke-dasharray="5,2" d="M356.12,-105.59C356.12,-144.31 356.12,-226.56 356.12,-253.93"/>
<polygon fill="#9a32cd" stroke="#9a32cd" points="359.63,-105.78 356.13,-95.78 352.63,-105.78 359.63,-105.78"/>
</a>
</g>
<text xml:space="preserve" text-anchor="start" x="359.12" y="-154.5" font-family="Helvetica,sans-Serif" font-size="10.00" fill="grey">env</text>
</g>
<!-- Node8&#45;&gt;Node13 -->
<g id="edge27_Node000013_Node000008" class="edge">
<title>Node8&#45;&gt;Node13</title>
<g id="a_edge27_Node000013_Node000008"><a xlink:title=" ">
<path fill="none" stroke="#9a32cd" stroke-dasharray="5,2" d="M324.08,-85.33C276.34,-87.69 192.12,-99.95 192.12,-157 192.12,-501 192.12,-501 192.12,-501 192.12,-527.79 214.34,-552.72 228.22,-565.68"/>
<polygon fill="#9a32cd" stroke="#9a32cd" points="323.98,-88.83 333.84,-84.97 323.72,-81.84 323.98,-88.83"/>
</a>
</g>
<text xml:space="preserve" text-anchor="start" x="195.12" y="-334.5" font-family="Helvetica,sans-Serif" font-size="10.00" fill="grey">env</text>
</g>
<!-- Node9 -->
<g id="Node000009" class="node">
<title>Node9</title>
<g id="a_Node000009"><a xlink:href="structmrb__value.html" target="_top" xlink:title=" ">
<polygon fill="white" stroke="#bfbfbf" points="447.62,-660 386.62,-660 386.62,-640 447.62,-640 447.62,-660"/>
<text xml:space="preserve" text-anchor="middle" x="417.12" y="-646.5" font-family="Helvetica,sans-Serif" font-size="10.00">mrb_value</text>
</a>
</g>
</g>
<!-- Node9&#45;&gt;Node8 -->
<g id="edge9_Node000008_Node000009" class="edge">
<title>Node9&#45;&gt;Node8</title>
<g id="a_edge9_Node000008_Node000009"><a xlink:title=" ">
<path fill="none" stroke="#9a32cd" stroke-dasharray="5,2" d="M437.44,-631.67C440.02,-628.67 442.37,-625.42 444.12,-622 451.55,-607.58 447.6,-602.02 450.12,-586 458.11,-535.4 463.34,-523.09 467.12,-472 471.83,-408.55 479.45,-244.36 454.12,-186 436.13,-144.54 392.97,-110.25 370.41,-94.43"/>
<polygon fill="#9a32cd" stroke="#9a32cd" points="435.03,-629.13 430.43,-638.67 439.98,-634.08 435.03,-629.13"/>
</a>
</g>
<text xml:space="preserve" text-anchor="start" x="474.8" y="-371.5" font-family="Helvetica,sans-Serif" font-size="10.00" fill="grey">stack</text>
</g>
<!-- Node11 -->
<g id="Node000011" class="node">
<title>Node11</title>
<g id="a_Node000011"><a xlink:href="structmrb__context.html" target="_top" xlink:title=" ">
<polygon fill="white" stroke="#bfbfbf" points="565.12,-168 495.12,-168 495.12,-148 565.12,-148 565.12,-168"/>
<text xml:space="preserve" text-anchor="middle" x="530.12" y="-154.5" font-family="Helvetica,sans-Serif" font-size="10.00">mrb_context</text>
</a>
</g>
</g>
<!-- Node9&#45;&gt;Node11 -->
<g id="edge13_Node000011_Node000009" class="edge">
<title>Node9&#45;&gt;Node11</title>
<g id="a_edge13_Node000011_Node000009"><a xlink:title=" ">
<path fill="none" stroke="#9a32cd" stroke-dasharray="5,2" d="M458.9,-640.39C471.49,-636.33 484.71,-630.45 495.12,-622 513.23,-607.3 522.12,-600.32 522.12,-577 522.12,-577 522.12,-577 522.12,-263 522.12,-228.05 526.67,-186.69 528.91,-168.45"/>
<polygon fill="#9a32cd" stroke="#9a32cd" points="458.18,-636.96 449.54,-643.09 460.12,-643.68 458.18,-636.96"/>
</a>
</g>
<text xml:space="preserve" text-anchor="start" x="525.12" y="-423.5" font-family="Helvetica,sans-Serif" font-size="10.00" fill="grey">stbase</text>
<text xml:space="preserve" text-anchor="start" x="525.12" y="-407.5" font-family="Helvetica,sans-Serif" font-size="10.00" fill="grey">stend</text>
</g>
<!-- Node9&#45;&gt;Node12 -->
<g id="edge28_Node000012_Node000009" class="edge">
<title>Node9&#45;&gt;Node12</title>
<g id="a_edge28_Node000012_Node000009"><a xlink:title=" ">
<path fill="none" stroke="#9a32cd" stroke-dasharray="5,2" d="M425.22,-629.39C430.39,-615.11 436.12,-595.18 436.12,-577 436.12,-577 436.12,-577 436.12,-337 436.12,-314.12 427.71,-307.76 411.12,-292 403.26,-284.53 392.93,-278.72 383.35,-274.44"/>
<polygon fill="#9a32cd" stroke="#9a32cd" points="422.05,-627.88 421.7,-638.47 428.58,-630.41 422.05,-627.88"/>
</a>
</g>
<text xml:space="preserve" text-anchor="start" x="439.12" y="-459.5" font-family="Helvetica,sans-Serif" font-size="10.00" fill="grey">stack</text>
</g>
<!-- Node9&#45;&gt;Node13 -->
<g id="edge17_Node000013_Node000009" class="edge">
<title>Node9&#45;&gt;Node13</title>
<g id="a_edge17_Node000013_Node000009"><a xlink:title=" ">
<path fill="none" stroke="#9a32cd" stroke-dasharray="5,2" d="M375.32,-642.4C354.09,-638.16 328.23,-631.61 306.38,-622 285.03,-612.61 263.09,-596.48 250.3,-586.29"/>
<polygon fill="#9a32cd" stroke="#9a32cd" points="374.62,-645.83 385.09,-644.24 375.91,-638.95 374.62,-645.83"/>
</a>
</g>
<text xml:space="preserve" text-anchor="start" x="309.38" y="-609.5" font-family="Helvetica,sans-Serif" font-size="10.00" fill="grey">func</text>
</g>
<!-- Node15 -->
<g id="Node000015" class="node">
<title>Node15</title>
<g id="a_Node000015"><a xlink:href="structiv__tbl.html" target="_top" xlink:title=" ">
<polygon fill="white" stroke="#bfbfbf" points="417.75,-548 378.5,-548 378.5,-528 417.75,-528 417.75,-548"/>
<text xml:space="preserve" text-anchor="middle" x="398.12" y="-534.5" font-family="Helvetica,sans-Serif" font-size="10.00">iv_tbl</text>
</a>
</g>
</g>
<!-- Node9&#45;&gt;Node15 -->
<g id="edge21_Node000015_Node000009" class="edge">
<title>Node9&#45;&gt;Node15</title>
<g id="a_edge21_Node000015_Node000009"><a xlink:title=" ">
<path fill="none" stroke="#9a32cd" stroke-dasharray="5,2" d="M407.37,-629.58C406.39,-627.08 405.53,-624.51 404.88,-622 398.13,-595.97 397.62,-563.95 397.85,-548.38"/>
<polygon fill="#9a32cd" stroke="#9a32cd" points="404.06,-630.75 411.37,-638.42 410.43,-627.86 404.06,-630.75"/>
</a>
</g>
<text xml:space="preserve" text-anchor="start" x="407.88" y="-609.5" font-family="Helvetica,sans-Serif" font-size="10.00" fill="grey">ptr</text>
</g>
<!-- Node17 -->
<g id="Node000017" class="node">
<title>Node17</title>
<g id="a_Node000017"><a xlink:href="unionmt__ptr.html" target="_top" xlink:title=" ">
<polygon fill="white" stroke="#bfbfbf" points="367,-510 323.25,-510 323.25,-490 367,-490 367,-510"/>
<text xml:space="preserve" text-anchor="middle" x="345.12" y="-496.5" font-family="Helvetica,sans-Serif" font-size="10.00">mt_ptr</text>
</a>
</g>
</g>
<!-- Node9&#45;&gt;Node17 -->
<g id="edge25_Node000017_Node000009" class="edge">
<title>Node9&#45;&gt;Node17</title>
<g id="a_edge25_Node000017_Node000009"><a xlink:title=" ">
<path fill="none" stroke="#9a32cd" stroke-dasharray="5,2" d="M400.56,-630.96C390.32,-618.98 377.6,-602.47 369.38,-586 356.48,-560.19 349.45,-526.45 346.62,-510.34"/>
<polygon fill="#9a32cd" stroke="#9a32cd" points="397.87,-633.2 407.11,-638.38 403.11,-628.57 397.87,-633.2"/>
</a>
</g>
<text xml:space="preserve" text-anchor="start" x="372.38" y="-572.5" font-family="Helvetica,sans-Serif" font-size="10.00" fill="grey">func</text>
</g>
<!-- Node10 -->
<g id="Node000010" class="node">
<title>Node10</title>
<g id="a_Node000010"><a xlink:href="unionmrb__value__union.html" target="_top" xlink:title=" ">
<polygon fill="white" stroke="#bfbfbf" points="461.88,-750 372.38,-750 372.38,-730 461.88,-730 461.88,-750"/>
<text xml:space="preserve" text-anchor="middle" x="417.12" y="-736.5" font-family="Helvetica,sans-Serif" font-size="10.00">mrb_value_union</text>
</a>
</g>
</g>
<!-- Node10&#45;&gt;Node9 -->
<g id="edge10_Node000009_Node000010" class="edge">
<title>Node10&#45;&gt;Node9</title>
<g id="a_edge10_Node000009_Node000010"><a xlink:title=" ">
<path fill="none" stroke="#9a32cd" stroke-dasharray="5,2" d="M417.12,-718.09C417.12,-699.77 417.12,-674.01 417.12,-660.35"/>
<polygon fill="#9a32cd" stroke="#9a32cd" points="413.63,-718.07 417.13,-728.07 420.63,-718.07 413.63,-718.07"/>
</a>
</g>
<text xml:space="preserve" text-anchor="start" x="420.12" y="-691.5" font-family="Helvetica,sans-Serif" font-size="10.00" fill="grey">value</text>
</g>
<!-- Node11&#45;&gt;Node8 -->
<g id="edge11_Node000008_Node000011" class="edge">
<title>Node11&#45;&gt;Node8</title>
<g id="a_edge11_Node000008_Node000011"><a xlink:title=" ">
<path fill="none" stroke="#9a32cd" stroke-dasharray="5,2" d="M514.16,-139.44C504.6,-129.95 491.68,-118.81 478.12,-112 444.98,-95.35 401.68,-88.89 376.58,-86.45"/>
<polygon fill="#9a32cd" stroke="#9a32cd" points="511.43,-141.65 520.88,-146.43 516.47,-136.8 511.43,-141.65"/>
</a>
</g>
<text xml:space="preserve" text-anchor="start" x="505.81" y="-117.5" font-family="Helvetica,sans-Serif" font-size="10.00" fill="grey">cxt</text>
</g>
<!-- Node11&#45;&gt;Node11 -->
<g id="edge12_Node000011_Node000011" class="edge">
<title>Node11&#45;&gt;Node11</title>
<g id="a_edge12_Node000011_Node000011"><a xlink:title=" ">
<path fill="none" stroke="#9a32cd" stroke-dasharray="5,2" d="M576.4,-163.48C580.53,-162.33 583.12,-160.51 583.12,-158 583.12,-153.66 575.36,-151.36 565.29,-151.09"/>
<polygon fill="#9a32cd" stroke="#9a32cd" points="576.27,-159.97 566.79,-164.72 577.16,-166.91 576.27,-159.97"/>
</a>
</g>
<text xml:space="preserve" text-anchor="start" x="586.12" y="-154.5" font-family="Helvetica,sans-Serif" font-size="10.00" fill="grey">prev</text>
</g>
<!-- Node18 -->
<g id="Node000018" class="node">
<title>Node18</title>
<g id="a_Node000018"><a xlink:href="structRFiber.html" target="_top" xlink:title=" ">
<polygon fill="white" stroke="#bfbfbf" points="586.75,-94 541.5,-94 541.5,-74 586.75,-74 586.75,-94"/>
<text xml:space="preserve" text-anchor="middle" x="564.12" y="-80.5" font-family="Helvetica,sans-Serif" font-size="10.00">RFiber</text>
</a>
</g>
</g>
<!-- Node11&#45;&gt;Node18 -->
<g id="edge32_Node000018_Node000011" class="edge">
<title>Node11&#45;&gt;Node18</title>
<g id="a_edge32_Node000018_Node000011"><a xlink:title=" ">
<path fill="none" stroke="#9a32cd" stroke-dasharray="5,2" d="M532.77,-136.33C534.33,-128.42 536.79,-119.5 540.62,-112 544.02,-105.36 549.4,-99.01 554.15,-94.14"/>
<polygon fill="#9a32cd" stroke="#9a32cd" points="529.33,-135.66 531.22,-146.09 536.25,-136.76 529.33,-135.66"/>
</a>
</g>
<text xml:space="preserve" text-anchor="start" x="543.62" y="-117.5" font-family="Helvetica,sans-Serif" font-size="10.00" fill="grey">cxt</text>
</g>
<!-- Node12&#45;&gt;Node11 -->
<g id="edge14_Node000011_Node000012" class="edge">
<title>Node12&#45;&gt;Node11</title>
<g id="a_edge14_Node000011_Node000012"><a xlink:title=" ">
<path fill="none" stroke="#9a32cd" stroke-dasharray="5,2" d="M378.46,-247.07C401.69,-230.81 439.38,-205.29 473.62,-186 484.9,-179.65 497.9,-173.37 508.59,-168.47"/>
<polygon fill="#9a32cd" stroke="#9a32cd" points="376.55,-244.13 370.39,-252.75 380.58,-249.85 376.55,-244.13"/>
</a>
</g>
<text xml:space="preserve" text-anchor="start" x="476.62" y="-223.5" font-family="Helvetica,sans-Serif" font-size="10.00" fill="grey">ci</text>
<text xml:space="preserve" text-anchor="start" x="476.62" y="-207.5" font-family="Helvetica,sans-Serif" font-size="10.00" fill="grey">cibase</text>
<text xml:space="preserve" text-anchor="start" x="476.62" y="-191.5" font-family="Helvetica,sans-Serif" font-size="10.00" fill="grey">ciend</text>
</g>
<!-- Node13&#45;&gt;Node12 -->
<g id="edge15_Node000012_Node000013" class="edge">
<title>Node13&#45;&gt;Node12</title>
<g id="a_edge15_Node000012_Node000013"><a xlink:title=" ">
<path fill="none" stroke="#9a32cd" stroke-dasharray="5,2" d="M239.09,-554.47C239.59,-521.49 242.92,-455.03 260.38,-402 278.43,-347.15 326.27,-294.79 346.68,-274.19"/>
<polygon fill="#9a32cd" stroke="#9a32cd" points="235.59,-554.19 239.02,-564.21 242.59,-554.23 235.59,-554.19"/>
</a>
</g>
<text xml:space="preserve" text-anchor="start" x="263.38" y="-423.5" font-family="Helvetica,sans-Serif" font-size="10.00" fill="grey">blk</text>
<text xml:space="preserve" text-anchor="start" x="263.38" y="-407.5" font-family="Helvetica,sans-Serif" font-size="10.00" fill="grey">proc</text>
</g>
<!-- Node13&#45;&gt;Node13 -->
<g id="edge18_Node000013_Node000013" class="edge">
<title>Node13&#45;&gt;Node13</title>
<g id="a_edge18_Node000013_Node000013"><a xlink:title=" ">
<path fill="none" stroke="#9a32cd" stroke-dasharray="5,2" d="M272.45,-581.96C276.41,-580.87 279,-578.89 279,-576 279,-570.87 270.82,-568.58 261.27,-569.15"/>
<polygon fill="#9a32cd" stroke="#9a32cd" points="272.46,-578.44 262.78,-582.73 273.02,-585.42 272.46,-578.44"/>
</a>
</g>
<text xml:space="preserve" text-anchor="start" x="282" y="-572.5" font-family="Helvetica,sans-Serif" font-size="10.00" fill="grey">upper</text>
</g>
<!-- Node13&#45;&gt;Node17 -->
<g id="edge24_Node000017_Node000013" class="edge">
<title>Node13&#45;&gt;Node17</title>
<g id="a_edge24_Node000017_Node000013"><a xlink:title=" ">
<path fill="none" stroke="#9a32cd" stroke-dasharray="5,2" d="M265.43,-559.81C271.37,-556.12 277.56,-552.06 283.12,-548 294.14,-539.97 295.6,-536.35 306.38,-528 314.28,-521.87 323.45,-515.45 330.89,-510.41"/>
<polygon fill="#9a32cd" stroke="#9a32cd" points="263.88,-556.66 257.12,-564.82 267.49,-562.65 263.88,-556.66"/>
</a>
</g>
<text xml:space="preserve" text-anchor="start" x="309.38" y="-534.5" font-family="Helvetica,sans-Serif" font-size="10.00" fill="grey">proc</text>
</g>
<!-- Node14 -->
<g id="Node000014" class="node">
<title>Node14</title>
<g id="a_Node000014"><a xlink:href="structRClass.html" target="_top" xlink:title=" ">
<polygon fill="white" stroke="#666666" points="359.62,-348 310.62,-348 310.62,-328 359.62,-328 359.62,-348"/>
<text xml:space="preserve" text-anchor="middle" x="335.12" y="-334.5" font-family="Helvetica,sans-Serif" font-size="10.00">RClass</text>
</a>
</g>
</g>
<!-- Node14&#45;&gt;Node12 -->
<g id="edge30_Node000012_Node000014" class="edge">
<title>Node14&#45;&gt;Node12</title>
<g id="a_edge30_Node000012_Node000014"><a xlink:title=" ">
<path fill="none" stroke="#9a32cd" stroke-dasharray="5,2" d="M341.07,-316.6C345.14,-302.65 350.34,-284.82 353.45,-274.19"/>
<polygon fill="#9a32cd" stroke="#9a32cd" points="337.73,-315.55 338.29,-326.13 344.45,-317.51 337.73,-315.55"/>
</a>
</g>
<text xml:space="preserve" text-anchor="start" x="351.12" y="-297.5" font-family="Helvetica,sans-Serif" font-size="10.00" fill="grey">target_class</text>
</g>
<!-- Node14&#45;&gt;Node13 -->
<g id="edge19_Node000013_Node000014" class="edge">
<title>Node14&#45;&gt;Node13</title>
<g id="a_edge19_Node000013_Node000014"><a xlink:title=" ">
<path fill="none" stroke="#9a32cd" stroke-dasharray="5,2" d="M325.25,-358.34C313.93,-380.93 295.22,-419.61 281.88,-454 266.03,-494.85 268.28,-507.27 252.12,-548 249.75,-554 246.62,-560.52 244.03,-565.65"/>
<polygon fill="#9a32cd" stroke="#9a32cd" points="328.22,-360.22 329.61,-349.72 321.97,-357.06 328.22,-360.22"/>
</a>
</g>
<text xml:space="preserve" text-anchor="start" x="284.88" y="-459.5" font-family="Helvetica,sans-Serif" font-size="10.00" fill="grey">target_class</text>
</g>
<!-- Node14&#45;&gt;Node14 -->
<g id="edge26_Node000014_Node000014" class="edge">
<title>Node14&#45;&gt;Node14</title>
<g id="a_edge26_Node000014_Node000014"><a xlink:title=" ">
<path fill="none" stroke="#9a32cd" stroke-dasharray="5,2" d="M371.17,-343.81C375.09,-342.7 377.62,-340.76 377.62,-338 377.62,-333.09 369.63,-330.78 360.01,-331.09"/>
<polygon fill="#9a32cd" stroke="#9a32cd" points="371.12,-340.3 361.51,-344.76 371.81,-347.27 371.12,-340.3"/>
</a>
</g>
<text xml:space="preserve" text-anchor="start" x="380.62" y="-334.5" font-family="Helvetica,sans-Serif" font-size="10.00" fill="grey">super</text>
</g>
<!-- Node15&#45;&gt;Node14 -->
<g id="edge20_Node000014_Node000015" class="edge">
<title>Node15&#45;&gt;Node14</title>
<g id="a_edge20_Node000014_Node000015"><a xlink:title=" ">
<path fill="none" stroke="#9a32cd" stroke-dasharray="5,2" d="M398.44,-516.35C398,-482.27 393,-413.31 362.12,-366 357.85,-359.45 351.78,-353.2 346.48,-348.37"/>
<polygon fill="#9a32cd" stroke="#9a32cd" points="394.94,-516.07 398.43,-526.08 401.94,-516.08 394.94,-516.07"/>
</a>
</g>
<text xml:space="preserve" text-anchor="start" x="398.39" y="-459.5" font-family="Helvetica,sans-Serif" font-size="10.00" fill="grey">iv</text>
</g>
<!-- Node16 -->
<g id="Node000016" class="node">
<title>Node16</title>
<g id="a_Node000016"><a xlink:href="structmt__tbl.html" target="_top" xlink:title=" ">
<polygon fill="white" stroke="#bfbfbf" points="366.62,-429 323.62,-429 323.62,-409 366.62,-409 366.62,-429"/>
<text xml:space="preserve" text-anchor="middle" x="345.12" y="-415.5" font-family="Helvetica,sans-Serif" font-size="10.00">mt_tbl</text>
</a>
</g>
</g>
<!-- Node16&#45;&gt;Node14 -->
<g id="edge22_Node000014_Node000016" class="edge">
<title>Node16&#45;&gt;Node14</title>
<g id="a_edge22_Node000014_Node000016"><a xlink:title=" ">
<path fill="none" stroke="#9a32cd" stroke-dasharray="5,2" d="M342.51,-397.32C340.5,-381.48 337.83,-360.35 336.31,-348.36"/>
<polygon fill="#9a32cd" stroke="#9a32cd" points="339.02,-397.64 343.75,-407.13 345.96,-396.77 339.02,-397.64"/>
</a>
</g>
<text xml:space="preserve" text-anchor="start" x="343.72" y="-371.5" font-family="Helvetica,sans-Serif" font-size="10.00" fill="grey">mt</text>
</g>
<!-- Node17&#45;&gt;Node16 -->
<g id="edge23_Node000016_Node000017" class="edge">
<title>Node17&#45;&gt;Node16</title>
<g id="a_edge23_Node000016_Node000017"><a xlink:title=" ">
<path fill="none" stroke="#9a32cd" stroke-dasharray="5,2" d="M345.12,-478.32C345.12,-462.48 345.12,-441.35 345.12,-429.36"/>
<polygon fill="#9a32cd" stroke="#9a32cd" points="341.63,-478.11 345.13,-488.11 348.63,-478.11 341.63,-478.11"/>
</a>
</g>
<text xml:space="preserve" text-anchor="start" x="348.12" y="-459.5" font-family="Helvetica,sans-Serif" font-size="10.00" fill="grey">ptr</text>
</g>
<!-- Node18&#45;&gt;Node11 -->
<g id="edge31_Node000011_Node000018" class="edge">
<title>Node18&#45;&gt;Node11</title>
<g id="a_edge31_Node000011_Node000018"><a xlink:title=" ">
<path fill="none" stroke="#9a32cd" stroke-dasharray="5,2" d="M567.85,-105.79C568.33,-113.72 567.69,-122.61 564.12,-130 560.59,-137.33 553.98,-143.28 547.53,-147.71"/>
<polygon fill="#9a32cd" stroke="#9a32cd" points="571.34,-105.47 566.61,-95.99 564.39,-106.35 571.34,-105.47"/>
</a>
</g>
<text xml:space="preserve" text-anchor="start" x="570.96" y="-117.5" font-family="Helvetica,sans-Serif" font-size="10.00" fill="grey">fib</text>
</g>
</g>
</svg>
