<?xml version="1.0" encoding="UTF-8" standalone="no"?>
<!DOCTYPE svg PUBLIC "-//W3C//DTD SVG 1.1//EN"
 "http://www.w3.org/Graphics/SVG/1.1/DTD/svg11.dtd">
<!-- Generated by graphviz version 14.0.5 (0)
 -->
<!-- Title: mrb_dir Pages: 1 -->
<svg width="62pt" height="176pt"
 viewBox="0.00 0.00 62.00 176.00" xmlns="http://www.w3.org/2000/svg" xmlns:xlink="http://www.w3.org/1999/xlink">
<g id="graph0" class="graph" transform="scale(1 1) rotate(0) translate(4 172)">
<title>mrb_dir</title>
<!-- Node1 -->
<g id="Node000001" class="node">
<title>Node1</title>
<g id="a_Node000001"><a xlink:title=" ">
<polygon fill="#999999" stroke="#666666" points="48.25,-20 0,-20 0,0 48.25,0 48.25,-20"/>
<text xml:space="preserve" text-anchor="middle" x="24.12" y="-6.5" font-family="Helvetica,sans-Serif" font-size="10.00">mrb_dir</text>
</a>
</g>
</g>
<!-- Node2 -->
<g id="Node000002" class="node">
<title>Node2</title>
<g id="a_Node000002"><a xlink:href="structDIR.html" target="_top" xlink:title=" ">
<polygon fill="white" stroke="#bfbfbf" points="41.12,-94 7.12,-94 7.12,-74 41.12,-74 41.12,-94"/>
<text xml:space="preserve" text-anchor="middle" x="24.12" y="-80.5" font-family="Helvetica,sans-Serif" font-size="10.00">DIR</text>
</a>
</g>
</g>
<!-- Node2&#45;&gt;Node1 -->
<g id="edge1_Node000001_Node000002" class="edge">
<title>Node2&#45;&gt;Node1</title>
<g id="a_edge1_Node000001_Node000002"><a xlink:title=" ">
<path fill="none" stroke="#9a32cd" stroke-dasharray="5,2" d="M24.12,-62.18C24.12,-48.29 24.12,-30.71 24.12,-20.19"/>
<polygon fill="#9a32cd" stroke="#9a32cd" points="20.63,-62.07 24.13,-72.07 27.63,-62.07 20.63,-62.07"/>
</a>
</g>
<text xml:space="preserve" text-anchor="start" x="27.12" y="-43.5" font-family="Helvetica,sans-Serif" font-size="10.00" fill="grey">dir</text>
</g>
<!-- Node3 -->
<g id="Node000003" class="node">
<title>Node3</title>
<g id="a_Node000003"><a xlink:href="structdirent.html" target="_top" xlink:title=" ">
<polygon fill="white" stroke="#bfbfbf" points="44.12,-168 4.12,-168 4.12,-148 44.12,-148 44.12,-168"/>
<text xml:space="preserve" text-anchor="middle" x="24.12" y="-154.5" font-family="Helvetica,sans-Serif" font-size="10.00">dirent</text>
</a>
</g>
</g>
<!-- Node3&#45;&gt;Node2 -->
<g id="edge2_Node000002_Node000003" class="edge">
<title>Node3&#45;&gt;Node2</title>
<g id="a_edge2_Node000002_Node000003"><a xlink:title=" ">
<path fill="none" stroke="#9a32cd" stroke-dasharray="5,2" d="M24.12,-136.18C24.12,-122.29 24.12,-104.71 24.12,-94.19"/>
<polygon fill="#9a32cd" stroke="#9a32cd" points="20.63,-136.07 24.13,-146.07 27.63,-136.07 20.63,-136.07"/>
</a>
</g>
<text xml:space="preserve" text-anchor="start" x="27.12" y="-117.5" font-family="Helvetica,sans-Serif" font-size="10.00" fill="grey">result</text>
</g>
</g>
</svg>
