<?xml version="1.0" encoding="UTF-8" standalone="no"?>
<!DOCTYPE svg PUBLIC "-//W3C//DTD SVG 1.1//EN"
 "http://www.w3.org/Graphics/SVG/1.1/DTD/svg11.dtd">
<!-- Generated by graphviz version 14.0.5 (0)
 -->
<!-- Title: shrpx::DownstreamAddr Pages: 1 -->
<svg width="585pt" height="252pt"
 viewBox="0.00 0.00 585.00 252.00" xmlns="http://www.w3.org/2000/svg" xmlns:xlink="http://www.w3.org/1999/xlink">
<g id="graph0" class="graph" transform="scale(1 1) rotate(0) translate(4 248)">
<title>shrpx::DownstreamAddr</title>
<!-- Node1 -->
<g id="Node000001" class="node">
<title>Node1</title>
<g id="a_Node000001"><a xlink:title=" ">
<polygon fill="#999999" stroke="#666666" points="576.75,-106 455,-106 455,-86 576.75,-86 576.75,-106"/>
<text xml:space="preserve" text-anchor="middle" x="515.88" y="-92.5" font-family="Helvetica,sans-Serif" font-size="10.00">shrpx::DownstreamAddr</text>
</a>
</g>
</g>
<!-- Node2 -->
<g id="Node000002" class="node">
<title>Node2</title>
<g id="a_Node000002"><a xlink:href="structnghttp2_1_1Address.html" target="_top" xlink:title=" ">
<polygon fill="white" stroke="#bfbfbf" points="302.75,-236 212.5,-236 212.5,-216 302.75,-216 302.75,-236"/>
<text xml:space="preserve" text-anchor="middle" x="257.62" y="-222.5" font-family="Helvetica,sans-Serif" font-size="10.00">nghttp2::Address</text>
</a>
</g>
</g>
<!-- Node2&#45;&gt;Node1 -->
<g id="edge1_Node000001_Node000002" class="edge">
<title>Node2&#45;&gt;Node1</title>
<g id="a_edge1_Node000001_Node000002"><a xlink:title=" ">
<path fill="none" stroke="#9a32cd" stroke-dasharray="5,2" d="M314.26,-227.73C351.4,-226.48 400.02,-220.02 437,-198 474.71,-175.54 500.5,-127.24 510.38,-106.18"/>
<polygon fill="#9a32cd" stroke="#9a32cd" points="314.57,-224.22 304.64,-227.93 314.72,-231.22 314.57,-224.22"/>
</a>
</g>
<text xml:space="preserve" text-anchor="start" x="383" y="-230.55" font-family="Helvetica,sans-Serif" font-size="10.00" fill="grey">addr</text>
</g>
<!-- Node3 -->
<g id="Node000003" class="node">
<title>Node3</title>
<g id="a_Node000003"><a xlink:href="unionnghttp2_1_1sockaddr__union.html" target="_top" xlink:title=" ">
<polygon fill="white" stroke="#bfbfbf" points="122.5,-236 0,-236 0,-216 122.5,-216 122.5,-236"/>
<text xml:space="preserve" text-anchor="middle" x="61.25" y="-222.5" font-family="Helvetica,sans-Serif" font-size="10.00">nghttp2::sockaddr_union</text>
</a>
</g>
</g>
<!-- Node3&#45;&gt;Node2 -->
<g id="edge2_Node000002_Node000003" class="edge">
<title>Node3&#45;&gt;Node2</title>
<g id="a_edge2_Node000002_Node000003"><a xlink:title=" ">
<path fill="none" stroke="#9a32cd" stroke-dasharray="5,2" d="M134.33,-226C160.41,-226 189.08,-226 212.1,-226"/>
<polygon fill="#9a32cd" stroke="#9a32cd" points="134.47,-222.5 124.47,-226 134.47,-229.5 134.47,-222.5"/>
</a>
</g>
<text xml:space="preserve" text-anchor="start" x="148.75" y="-231.5" font-family="Helvetica,sans-Serif" font-size="10.00" fill="grey">su</text>
</g>
<!-- Node4 -->
<g id="Node000004" class="node">
<title>Node4</title>
<g id="a_Node000004"><a xlink:href="classnghttp2_1_1StringRef.html" target="_top" xlink:title=" ">
<polygon fill="white" stroke="#bfbfbf" points="305.38,-147 209.88,-147 209.88,-127 305.38,-127 305.38,-147"/>
<text xml:space="preserve" text-anchor="middle" x="257.62" y="-133.5" font-family="Helvetica,sans-Serif" font-size="10.00">nghttp2::StringRef</text>
</a>
</g>
</g>
<!-- Node4&#45;&gt;Node1 -->
<g id="edge3_Node000001_Node000004" class="edge">
<title>Node4&#45;&gt;Node1</title>
<g id="a_edge3_Node000001_Node000004"><a xlink:title=" ">
<path fill="none" stroke="#9a32cd" stroke-dasharray="5,2" d="M317.23,-131.51C352.16,-127.81 397.29,-122.27 437,-115 449.73,-112.67 463.49,-109.53 475.85,-106.47"/>
<polygon fill="#9a32cd" stroke="#9a32cd" points="316.89,-128.03 307.3,-132.54 317.61,-134.99 316.89,-128.03"/>
</a>
</g>
<text xml:space="preserve" text-anchor="start" x="374.75" y="-181.36" font-family="Helvetica,sans-Serif" font-size="10.00" fill="grey">group</text>
<text xml:space="preserve" text-anchor="start" x="374.75" y="-165.36" font-family="Helvetica,sans-Serif" font-size="10.00" fill="grey">host</text>
<text xml:space="preserve" text-anchor="start" x="374.75" y="-149.36" font-family="Helvetica,sans-Serif" font-size="10.00" fill="grey">hostport</text>
<text xml:space="preserve" text-anchor="start" x="374.75" y="-133.36" font-family="Helvetica,sans-Serif" font-size="10.00" fill="grey">sni</text>
</g>
<!-- Node5 -->
<g id="Node000005" class="node">
<title>Node5</title>
<g id="a_Node000005"><a xlink:href="structshrpx_1_1tls_1_1TLSSessionCache.html" target="_top" xlink:title=" ">
<polygon fill="white" stroke="#bfbfbf" points="329.75,-108 185.5,-108 185.5,-88 329.75,-88 329.75,-108"/>
<text xml:space="preserve" text-anchor="middle" x="257.62" y="-94.5" font-family="Helvetica,sans-Serif" font-size="10.00">shrpx::tls::TLSSessionCache</text>
</a>
</g>
</g>
<!-- Node5&#45;&gt;Node1 -->
<g id="edge4_Node000001_Node000005" class="edge">
<title>Node5&#45;&gt;Node1</title>
<g id="a_edge4_Node000001_Node000005"><a xlink:title=" ">
<path fill="none" stroke="#9a32cd" stroke-dasharray="5,2" d="M341.51,-97.06C343.61,-97.04 345.69,-97.02 347.75,-97 383.15,-96.7 422.76,-96.45 454.54,-96.28"/>
<polygon fill="#9a32cd" stroke="#9a32cd" points="341.61,-93.55 331.65,-97.15 341.68,-100.55 341.61,-93.55"/>
</a>
</g>
<text xml:space="preserve" text-anchor="start" x="351.88" y="-102.5" font-family="Helvetica,sans-Serif" font-size="10.00" fill="grey">tls_session_cache</text>
</g>
<!-- Node6 -->
<g id="Node000006" class="node">
<title>Node6</title>
<g id="a_Node000006"><a xlink:href="structnghttp2_1_1DList.html" target="_top" xlink:title=" ">
<polygon fill="white" stroke="#bfbfbf" points="312.88,-70 202.38,-70 202.38,-38 312.88,-38 312.88,-70"/>
<text xml:space="preserve" text-anchor="start" x="210.38" y="-56.5" font-family="Helvetica,sans-Serif" font-size="10.00">nghttp2::DList&lt; shrpx</text>
<text xml:space="preserve" text-anchor="middle" x="257.62" y="-44.5" font-family="Helvetica,sans-Serif" font-size="10.00">::Http2Session &gt;</text>
</a>
</g>
</g>
<!-- Node6&#45;&gt;Node1 -->
<g id="edge5_Node000001_Node000006" class="edge">
<title>Node6&#45;&gt;Node1</title>
<g id="a_edge5_Node000001_Node000006"><a xlink:title=" ">
<path fill="none" stroke="#9a32cd" stroke-dasharray="5,2" d="M324.39,-58.78C358.24,-61.9 400.05,-66.76 437,-74 452.17,-76.97 468.68,-81.45 482.58,-85.59"/>
<polygon fill="#9a32cd" stroke="#9a32cd" points="325.01,-55.32 314.74,-57.93 324.39,-62.3 325.01,-55.32"/>
</a>
</g>
<text xml:space="preserve" text-anchor="start" x="350.75" y="-79.5" font-family="Helvetica,sans-Serif" font-size="10.00" fill="grey">http2_extra_freelist</text>
</g>
<!-- Node7 -->
<g id="Node000007" class="node">
<title>Node7</title>
<g id="a_Node000007"><a xlink:href="classshrpx_1_1Http2Session.html" target="_top" xlink:title=" ">
<polygon fill="white" stroke="#bfbfbf" points="113.88,-64 8.62,-64 8.62,-44 113.88,-44 113.88,-64"/>
<text xml:space="preserve" text-anchor="middle" x="61.25" y="-50.5" font-family="Helvetica,sans-Serif" font-size="10.00">shrpx::Http2Session</text>
</a>
</g>
</g>
<!-- Node7&#45;&gt;Node6 -->
<g id="edge6_Node000006_Node000007" class="edge">
<title>Node7&#45;&gt;Node6</title>
<g id="a_edge6_Node000006_Node000007"><a xlink:title=" ">
<path fill="none" stroke="#9a32cd" stroke-dasharray="5,2" d="M125.76,-54C150.39,-54 178.31,-54 202.01,-54"/>
<polygon fill="#9a32cd" stroke="#9a32cd" points="125.85,-50.5 115.85,-54 125.85,-57.5 125.85,-50.5"/>
</a>
</g>
<text xml:space="preserve" text-anchor="start" x="143.5" y="-75.5" font-family="Helvetica,sans-Serif" font-size="10.00" fill="grey">head</text>
<text xml:space="preserve" text-anchor="start" x="143.5" y="-59.5" font-family="Helvetica,sans-Serif" font-size="10.00" fill="grey">tail</text>
</g>
<!-- Node7&#45;&gt;Node7 -->
<g id="edge7_Node000007_Node000007" class="edge">
<title>Node7&#45;&gt;Node7</title>
<g id="a_edge7_Node000007_Node000007"><a xlink:title=" ">
<path fill="none" stroke="#9a32cd" stroke-dasharray="5,2" d="M44.86,-75.44C46.97,-79.3 52.43,-82 61.25,-82 77.37,-82 82.28,-72.98 75.99,-64.34"/>
<polygon fill="#9a32cd" stroke="#9a32cd" points="48.28,-76.24 46.29,-65.84 41.35,-75.21 48.28,-76.24"/>
</a>
</g>
<text xml:space="preserve" text-anchor="start" x="48.12" y="-103.5" font-family="Helvetica,sans-Serif" font-size="10.00" fill="grey">dlnext</text>
<text xml:space="preserve" text-anchor="start" x="48.12" y="-87.5" font-family="Helvetica,sans-Serif" font-size="10.00" fill="grey">dlprev</text>
</g>
<!-- Node8 -->
<g id="Node000008" class="node">
<title>Node8</title>
<g id="a_Node000008"><a xlink:href="structshrpx_1_1WeightGroup.html" target="_top" xlink:title=" ">
<polygon fill="white" stroke="#bfbfbf" points="308.75,-20 206.5,-20 206.5,0 308.75,0 308.75,-20"/>
<text xml:space="preserve" text-anchor="middle" x="257.62" y="-6.5" font-family="Helvetica,sans-Serif" font-size="10.00">shrpx::WeightGroup</text>
</a>
</g>
</g>
<!-- Node8&#45;&gt;Node1 -->
<g id="edge8_Node000001_Node000008" class="edge">
<title>Node8&#45;&gt;Node1</title>
<g id="a_edge8_Node000001_Node000008"><a xlink:title=" ">
<path fill="none" stroke="#9a32cd" stroke-dasharray="5,2" d="M320.29,-12.89C355.58,-16.28 400.05,-23.53 437,-39 463.89,-50.26 490.2,-72.55 504.3,-85.67"/>
<polygon fill="#9a32cd" stroke="#9a32cd" points="320.95,-9.44 310.69,-12.06 320.35,-16.41 320.95,-9.44"/>
</a>
</g>
<text xml:space="preserve" text-anchor="start" x="386" y="-44.5" font-family="Helvetica,sans-Serif" font-size="10.00" fill="grey">wg</text>
</g>
</g>
</svg>
