<?xml version="1.0" encoding="UTF-8" standalone="no"?>
<!DOCTYPE svg PUBLIC "-//W3C//DTD SVG 1.1//EN"
 "http://www.w3.org/Graphics/SVG/1.1/DTD/svg11.dtd">
<!-- Generated by graphviz version 14.0.5 (0)
 -->
<!-- Title: mt_tbl Pages: 1 -->
<svg width="644pt" height="626pt"
 viewBox="0.00 0.00 644.00 626.00" xmlns="http://www.w3.org/2000/svg" xmlns:xlink="http://www.w3.org/1999/xlink">
<g id="graph0" class="graph" transform="scale(1 1) rotate(0) translate(4 622)">
<title>mt_tbl</title>
<!-- Node1 -->
<g id="Node000001" class="node">
<title>Node1</title>
<g id="a_Node000001"><a xlink:title=" ">
<polygon fill="#999999" stroke="#666666" points="172.5,-470 129.5,-470 129.5,-450 172.5,-450 172.5,-470"/>
<text xml:space="preserve" text-anchor="middle" x="151" y="-456.5" font-family="Helvetica,sans-Serif" font-size="10.00">mt_tbl</text>
</a>
</g>
</g>
<!-- Node12 -->
<g id="Node000012" class="node">
<title>Node12</title>
<g id="a_Node000012"><a xlink:href="structRClass.html" target="_top" xlink:title=" ">
<polygon fill="white" stroke="#666666" points="226.5,-380 177.5,-380 177.5,-360 226.5,-360 226.5,-380"/>
<text xml:space="preserve" text-anchor="middle" x="202" y="-366.5" font-family="Helvetica,sans-Serif" font-size="10.00">RClass</text>
</a>
</g>
</g>
<!-- Node1&#45;&gt;Node12 -->
<g id="edge16_Node000012_Node000001" class="edge">
<title>Node1&#45;&gt;Node12</title>
<g id="a_edge16_Node000012_Node000001"><a xlink:title=" ">
<path fill="none" stroke="#9a32cd" stroke-dasharray="5,2" d="M160.66,-439.82C166.94,-427.67 175.47,-411.71 183.75,-398 187.38,-392 191.77,-385.47 195.34,-380.34"/>
<polygon fill="#9a32cd" stroke="#9a32cd" points="157.71,-437.9 156.29,-448.4 163.95,-441.08 157.71,-437.9"/>
</a>
</g>
<text xml:space="preserve" text-anchor="start" x="186.75" y="-411.5" font-family="Helvetica,sans-Serif" font-size="10.00" fill="grey">mt</text>
</g>
<!-- Node2 -->
<g id="Node000002" class="node">
<title>Node2</title>
<g id="a_Node000002"><a xlink:href="unionmt__ptr.html" target="_top" xlink:title=" ">
<polygon fill="white" stroke="#bfbfbf" points="162.88,-200 119.12,-200 119.12,-180 162.88,-180 162.88,-200"/>
<text xml:space="preserve" text-anchor="middle" x="141" y="-186.5" font-family="Helvetica,sans-Serif" font-size="10.00">mt_ptr</text>
</a>
</g>
</g>
<!-- Node2&#45;&gt;Node1 -->
<g id="edge1_Node000001_Node000002" class="edge">
<title>Node2&#45;&gt;Node1</title>
<g id="a_edge1_Node000001_Node000002"><a xlink:title=" ">
<path fill="none" stroke="#9a32cd" stroke-dasharray="5,2" d="M141.77,-211.69C143.8,-266.12 149.23,-411.69 150.66,-449.77"/>
<polygon fill="#9a32cd" stroke="#9a32cd" points="145.28,-211.84 141.41,-201.98 138.28,-212.1 145.28,-211.84"/>
</a>
</g>
<text xml:space="preserve" text-anchor="start" x="149.58" y="-321.5" font-family="Helvetica,sans-Serif" font-size="10.00" fill="grey">ptr</text>
</g>
<!-- Node3 -->
<g id="Node000003" class="node">
<title>Node3</title>
<g id="a_Node000003"><a xlink:href="structRProc.html" target="_top" xlink:title=" ">
<polygon fill="white" stroke="#bfbfbf" points="212.88,-290 169.12,-290 169.12,-270 212.88,-270 212.88,-290"/>
<text xml:space="preserve" text-anchor="middle" x="191" y="-276.5" font-family="Helvetica,sans-Serif" font-size="10.00">RProc</text>
</a>
</g>
</g>
<!-- Node3&#45;&gt;Node2 -->
<g id="edge2_Node000002_Node000003" class="edge">
<title>Node3&#45;&gt;Node2</title>
<g id="a_edge2_Node000002_Node000003"><a xlink:title=" ">
<path fill="none" stroke="#9a32cd" stroke-dasharray="5,2" d="M179.63,-259.6C178.15,-257.05 176.66,-254.46 175.25,-252 164.75,-233.66 152.7,-212.07 146.06,-200.12"/>
<polygon fill="#9a32cd" stroke="#9a32cd" points="176.6,-261.34 184.66,-268.22 182.64,-257.82 176.6,-261.34"/>
</a>
</g>
<text xml:space="preserve" text-anchor="start" x="178.25" y="-231.5" font-family="Helvetica,sans-Serif" font-size="10.00" fill="grey">proc</text>
</g>
<!-- Node3&#45;&gt;Node3 -->
<g id="edge12_Node000003_Node000003" class="edge">
<title>Node3&#45;&gt;Node3</title>
<g id="a_edge12_Node000003_Node000003"><a xlink:title=" ">
<path fill="none" stroke="#9a32cd" stroke-dasharray="5,2" d="M224.32,-287.24C228.29,-285.93 230.88,-283.51 230.88,-280 230.88,-273.76 222.7,-270.98 213.14,-271.66"/>
<polygon fill="#9a32cd" stroke="#9a32cd" points="224.26,-283.73 214.65,-288.19 224.94,-290.7 224.26,-283.73"/>
</a>
</g>
<text xml:space="preserve" text-anchor="start" x="233.88" y="-276.5" font-family="Helvetica,sans-Serif" font-size="10.00" fill="grey">upper</text>
</g>
<!-- Node16 -->
<g id="Node000016" class="node">
<title>Node16</title>
<g id="a_Node000016"><a xlink:href="structmrb__callinfo.html" target="_top" xlink:title=" ">
<polygon fill="white" stroke="#bfbfbf" points="331.25,-200 262.75,-200 262.75,-180 331.25,-180 331.25,-200"/>
<text xml:space="preserve" text-anchor="middle" x="297" y="-186.5" font-family="Helvetica,sans-Serif" font-size="10.00">mrb_callinfo</text>
</a>
</g>
</g>
<!-- Node3&#45;&gt;Node16 -->
<g id="edge24_Node000016_Node000003" class="edge">
<title>Node3&#45;&gt;Node16</title>
<g id="a_edge24_Node000016_Node000003"><a xlink:title=" ">
<path fill="none" stroke="#9a32cd" stroke-dasharray="5,2" d="M214.44,-263.06C219.08,-259.59 223.8,-255.81 228,-252 242.98,-238.41 243.13,-231.43 258.25,-218 265.48,-211.58 274.28,-205.34 281.67,-200.48"/>
<polygon fill="#9a32cd" stroke="#9a32cd" points="212.56,-260.1 206.48,-268.78 216.64,-265.79 212.56,-260.1"/>
</a>
</g>
<text xml:space="preserve" text-anchor="start" x="261.25" y="-239.5" font-family="Helvetica,sans-Serif" font-size="10.00" fill="grey">blk</text>
<text xml:space="preserve" text-anchor="start" x="261.25" y="-223.5" font-family="Helvetica,sans-Serif" font-size="10.00" fill="grey">proc</text>
</g>
<!-- Node4 -->
<g id="Node000004" class="node">
<title>Node4</title>
<g id="a_Node000004"><a xlink:href="structmrb__irep.html" target="_top" xlink:title=" ">
<polygon fill="white" stroke="#bfbfbf" points="354.75,-380 301.25,-380 301.25,-360 354.75,-360 354.75,-380"/>
<text xml:space="preserve" text-anchor="middle" x="328" y="-366.5" font-family="Helvetica,sans-Serif" font-size="10.00">mrb_irep</text>
</a>
</g>
</g>
<!-- Node4&#45;&gt;Node3 -->
<g id="edge3_Node000003_Node000004" class="edge">
<title>Node4&#45;&gt;Node3</title>
<g id="a_edge3_Node000003_Node000004"><a xlink:title=" ">
<path fill="none" stroke="#9a32cd" stroke-dasharray="5,2" d="M312.29,-351.16C299.75,-337.81 281.18,-319.89 262,-308 246.75,-298.55 227.67,-291.52 213.13,-287.01"/>
<polygon fill="#9a32cd" stroke="#9a32cd" points="309.58,-353.39 318.91,-358.42 314.75,-348.67 309.58,-353.39"/>
</a>
</g>
<text xml:space="preserve" text-anchor="start" x="306.14" y="-321.5" font-family="Helvetica,sans-Serif" font-size="10.00" fill="grey">irep</text>
</g>
<!-- Node4&#45;&gt;Node4 -->
<g id="edge6_Node000004_Node000004" class="edge">
<title>Node4&#45;&gt;Node4</title>
<g id="a_edge6_Node000004_Node000004"><a xlink:title=" ">
<path fill="none" stroke="#9a32cd" stroke-dasharray="5,2" d="M366.31,-376.95C370.24,-375.58 372.75,-373.26 372.75,-370 372.75,-364.2 364.82,-361.39 355.09,-361.57"/>
<polygon fill="#9a32cd" stroke="#9a32cd" points="366.05,-373.45 356.59,-378.23 366.96,-380.39 366.05,-373.45"/>
</a>
</g>
<text xml:space="preserve" text-anchor="start" x="375.75" y="-366.5" font-family="Helvetica,sans-Serif" font-size="10.00" fill="grey">reps</text>
</g>
<!-- Node5 -->
<g id="Node000005" class="node">
<title>Node5</title>
<g id="a_Node000005"><a xlink:href="structmrb__pool__value.html" target="_top" xlink:title=" ">
<polygon fill="white" stroke="#bfbfbf" points="332.12,-470 247.88,-470 247.88,-450 332.12,-450 332.12,-470"/>
<text xml:space="preserve" text-anchor="middle" x="290" y="-456.5" font-family="Helvetica,sans-Serif" font-size="10.00">mrb_pool_value</text>
</a>
</g>
</g>
<!-- Node5&#45;&gt;Node4 -->
<g id="edge4_Node000004_Node000005" class="edge">
<title>Node5&#45;&gt;Node4</title>
<g id="a_edge4_Node000004_Node000005"><a xlink:title=" ">
<path fill="none" stroke="#9a32cd" stroke-dasharray="5,2" d="M298.58,-439.14C306.51,-420.77 317.95,-394.27 323.96,-380.35"/>
<polygon fill="#9a32cd" stroke="#9a32cd" points="295.42,-437.62 294.67,-448.19 301.84,-440.4 295.42,-437.62"/>
</a>
</g>
<text xml:space="preserve" text-anchor="start" x="318.71" y="-411.5" font-family="Helvetica,sans-Serif" font-size="10.00" fill="grey">pool</text>
</g>
<!-- Node6 -->
<g id="Node000006" class="node">
<title>Node6</title>
<g id="a_Node000006"><a xlink:href="classmrb__sym.html" target="_top" xlink:title=" ">
<polygon fill="white" stroke="#666666" points="406.25,-470 349.75,-470 349.75,-450 406.25,-450 406.25,-470"/>
<text xml:space="preserve" text-anchor="middle" x="378" y="-456.5" font-family="Helvetica,sans-Serif" font-size="10.00">mrb_sym</text>
</a>
</g>
</g>
<!-- Node6&#45;&gt;Node4 -->
<g id="edge5_Node000004_Node000006" class="edge">
<title>Node6&#45;&gt;Node4</title>
<g id="a_edge5_Node000004_Node000006"><a xlink:title=" ">
<path fill="none" stroke="#9a32cd" stroke-dasharray="5,2" d="M367.59,-440.03C360.93,-427.95 352.05,-412 344,-398 340.63,-392.14 336.77,-385.62 333.69,-380.46"/>
<polygon fill="#9a32cd" stroke="#9a32cd" points="364.39,-441.46 372.28,-448.54 370.52,-438.09 364.39,-441.46"/>
</a>
</g>
<text xml:space="preserve" text-anchor="start" x="365.65" y="-419.5" font-family="Helvetica,sans-Serif" font-size="10.00" fill="grey">lv</text>
<text xml:space="preserve" text-anchor="start" x="365.65" y="-403.5" font-family="Helvetica,sans-Serif" font-size="10.00" fill="grey">syms</text>
</g>
<!-- Node7 -->
<g id="Node000007" class="node">
<title>Node7</title>
<g id="a_Node000007"><a xlink:href="structmrb__irep__debug__info.html" target="_top" xlink:title=" ">
<polygon fill="white" stroke="#bfbfbf" points="626,-470 520,-470 520,-450 626,-450 626,-470"/>
<text xml:space="preserve" text-anchor="middle" x="573" y="-456.5" font-family="Helvetica,sans-Serif" font-size="10.00">mrb_irep_debug_info</text>
</a>
</g>
</g>
<!-- Node7&#45;&gt;Node4 -->
<g id="edge7_Node000004_Node000007" class="edge">
<title>Node7&#45;&gt;Node4</title>
<g id="a_edge7_Node000004_Node000007"><a xlink:title=" ">
<path fill="none" stroke="#9a32cd" stroke-dasharray="5,2" d="M536.14,-445.76C486.19,-427.82 398.25,-396.23 354.4,-380.48"/>
<polygon fill="#9a32cd" stroke="#9a32cd" points="534.76,-448.98 545.36,-449.07 537.13,-442.4 534.76,-448.98"/>
</a>
</g>
<text xml:space="preserve" text-anchor="start" x="496.75" y="-411.5" font-family="Helvetica,sans-Serif" font-size="10.00" fill="grey">debug_info</text>
</g>
<!-- Node8 -->
<g id="Node000008" class="node">
<title>Node8</title>
<g id="a_Node000008"><a xlink:href="structmrb__irep__debug__info__file.html" target="_top" xlink:title=" ">
<polygon fill="white" stroke="#bfbfbf" points="635,-544 511,-544 511,-524 635,-524 635,-544"/>
<text xml:space="preserve" text-anchor="middle" x="573" y="-530.5" font-family="Helvetica,sans-Serif" font-size="10.00">mrb_irep_debug_info_file</text>
</a>
</g>
</g>
<!-- Node8&#45;&gt;Node7 -->
<g id="edge8_Node000007_Node000008" class="edge">
<title>Node8&#45;&gt;Node7</title>
<g id="a_edge8_Node000007_Node000008"><a xlink:title=" ">
<path fill="none" stroke="#9a32cd" stroke-dasharray="5,2" d="M573,-512.18C573,-498.29 573,-480.71 573,-470.19"/>
<polygon fill="#9a32cd" stroke="#9a32cd" points="569.5,-512.07 573,-522.07 576.5,-512.07 569.5,-512.07"/>
</a>
</g>
<text xml:space="preserve" text-anchor="start" x="576" y="-493.5" font-family="Helvetica,sans-Serif" font-size="10.00" fill="grey">files</text>
</g>
<!-- Node9 -->
<g id="Node000009" class="node">
<title>Node9</title>
<g id="a_Node000009"><a xlink:href="structmrb__irep__debug__info__line.html" target="_top" xlink:title=" ">
<polygon fill="white" stroke="#bfbfbf" points="636.12,-618 509.88,-618 509.88,-598 636.12,-598 636.12,-618"/>
<text xml:space="preserve" text-anchor="middle" x="573" y="-604.5" font-family="Helvetica,sans-Serif" font-size="10.00">mrb_irep_debug_info_line</text>
</a>
</g>
</g>
<!-- Node9&#45;&gt;Node8 -->
<g id="edge9_Node000008_Node000009" class="edge">
<title>Node9&#45;&gt;Node8</title>
<g id="a_edge9_Node000008_Node000009"><a xlink:title=" ">
<path fill="none" stroke="#9a32cd" stroke-dasharray="5,2" d="M573,-586.18C573,-572.29 573,-554.71 573,-544.19"/>
<polygon fill="#9a32cd" stroke="#9a32cd" points="569.5,-586.07 573,-596.07 576.5,-586.07 569.5,-586.07"/>
</a>
</g>
<text xml:space="preserve" text-anchor="start" x="576" y="-567.5" font-family="Helvetica,sans-Serif" font-size="10.00" fill="grey">flat_map</text>
</g>
<!-- Node10 -->
<g id="Node000010" class="node">
<title>Node10</title>
<g id="a_Node000010"><a xlink:href="structmrb__value.html" target="_top" xlink:title=" ">
<polygon fill="white" stroke="#bfbfbf" points="185.5,-544 124.5,-544 124.5,-524 185.5,-524 185.5,-544"/>
<text xml:space="preserve" text-anchor="middle" x="155" y="-530.5" font-family="Helvetica,sans-Serif" font-size="10.00">mrb_value</text>
</a>
</g>
</g>
<!-- Node10&#45;&gt;Node2 -->
<g id="edge30_Node000002_Node000010" class="edge">
<title>Node10&#45;&gt;Node2</title>
<g id="a_edge30_Node000002_Node000010"><a xlink:title=" ">
<path fill="none" stroke="#9a32cd" stroke-dasharray="5,2" d="M113.15,-522.3C83.88,-512 50,-493.14 50,-461 50,-461 50,-461 50,-279 50,-240.54 92.52,-213.54 119.43,-200.3"/>
<polygon fill="#9a32cd" stroke="#9a32cd" points="112.03,-525.61 122.62,-525.37 114.19,-518.95 112.03,-525.61"/>
</a>
</g>
<text xml:space="preserve" text-anchor="start" x="53" y="-366.5" font-family="Helvetica,sans-Serif" font-size="10.00" fill="grey">func</text>
</g>
<!-- Node10&#45;&gt;Node3 -->
<g id="edge10_Node000003_Node000010" class="edge">
<title>Node10&#45;&gt;Node3</title>
<g id="a_edge10_Node000003_Node000010"><a xlink:title=" ">
<path fill="none" stroke="#9a32cd" stroke-dasharray="5,2" d="M141.42,-514.51C133.46,-502.49 124.18,-486.11 120,-470 118.32,-463.52 116.26,-432.35 120.25,-398 124.99,-357.23 116.12,-340.65 141,-308 147.94,-298.9 158.85,-292.5 168.72,-288.23"/>
<polygon fill="#9a32cd" stroke="#9a32cd" points="138.46,-516.38 147.05,-522.59 144.21,-512.38 138.46,-516.38"/>
</a>
</g>
<text xml:space="preserve" text-anchor="start" x="123.25" y="-411.5" font-family="Helvetica,sans-Serif" font-size="10.00" fill="grey">func</text>
</g>
<!-- Node13 -->
<g id="Node000013" class="node">
<title>Node13</title>
<g id="a_Node000013"><a xlink:href="structiv__tbl.html" target="_top" xlink:title=" ">
<polygon fill="white" stroke="#bfbfbf" points="229.62,-470 190.38,-470 190.38,-450 229.62,-450 229.62,-470"/>
<text xml:space="preserve" text-anchor="middle" x="210" y="-456.5" font-family="Helvetica,sans-Serif" font-size="10.00">iv_tbl</text>
</a>
</g>
</g>
<!-- Node10&#45;&gt;Node13 -->
<g id="edge15_Node000013_Node000010" class="edge">
<title>Node10&#45;&gt;Node13</title>
<g id="a_edge15_Node000013_Node000010"><a xlink:title=" ">
<path fill="none" stroke="#9a32cd" stroke-dasharray="5,2" d="M168.99,-514.68C179.85,-500.47 194.45,-481.36 202.98,-470.19"/>
<polygon fill="#9a32cd" stroke="#9a32cd" points="166.4,-512.31 163.11,-522.38 171.96,-516.56 166.4,-512.31"/>
</a>
</g>
<text xml:space="preserve" text-anchor="start" x="192.04" y="-493.5" font-family="Helvetica,sans-Serif" font-size="10.00" fill="grey">ptr</text>
</g>
<!-- Node14 -->
<g id="Node000014" class="node">
<title>Node14</title>
<g id="a_Node000014"><a xlink:href="structREnv.html" target="_top" xlink:title=" ">
<polygon fill="white" stroke="#666666" points="281.38,-20 240.62,-20 240.62,0 281.38,0 281.38,-20"/>
<text xml:space="preserve" text-anchor="middle" x="261" y="-6.5" font-family="Helvetica,sans-Serif" font-size="10.00">REnv</text>
</a>
</g>
</g>
<!-- Node10&#45;&gt;Node14 -->
<g id="edge19_Node000014_Node000010" class="edge">
<title>Node10&#45;&gt;Node14</title>
<g id="a_edge19_Node000014_Node000010"><a xlink:title=" ">
<path fill="none" stroke="#9a32cd" stroke-dasharray="5,2" d="M197.27,-532.74C287.75,-531.05 492,-520.62 492,-461 492,-461 492,-461 492,-83 492,-39.1 338.03,-18.89 281.5,-12.95"/>
<polygon fill="#9a32cd" stroke="#9a32cd" points="197.26,-529.24 187.31,-532.9 197.37,-536.24 197.26,-529.24"/>
</a>
</g>
<text xml:space="preserve" text-anchor="start" x="495" y="-276.5" font-family="Helvetica,sans-Serif" font-size="10.00" fill="grey">stack</text>
</g>
<!-- Node15 -->
<g id="Node000015" class="node">
<title>Node15</title>
<g id="a_Node000015"><a xlink:href="structmrb__context.html" target="_top" xlink:title=" ">
<polygon fill="white" stroke="#bfbfbf" points="143,-94 73,-94 73,-74 143,-74 143,-94"/>
<text xml:space="preserve" text-anchor="middle" x="108" y="-80.5" font-family="Helvetica,sans-Serif" font-size="10.00">mrb_context</text>
</a>
</g>
</g>
<!-- Node10&#45;&gt;Node15 -->
<g id="edge22_Node000015_Node000010" class="edge">
<title>Node10&#45;&gt;Node15</title>
<g id="a_edge22_Node000015_Node000010"><a xlink:title=" ">
<path fill="none" stroke="#9a32cd" stroke-dasharray="5,2" d="M112.55,-530.99C66.66,-526.26 0,-510.81 0,-461 0,-461 0,-461 0,-189 0,-141.89 53.99,-109.4 85.62,-94.42"/>
<polygon fill="#9a32cd" stroke="#9a32cd" points="112.23,-534.47 122.5,-531.86 112.84,-527.5 112.23,-534.47"/>
</a>
</g>
<text xml:space="preserve" text-anchor="start" x="3" y="-329.5" font-family="Helvetica,sans-Serif" font-size="10.00" fill="grey">stbase</text>
<text xml:space="preserve" text-anchor="start" x="3" y="-313.5" font-family="Helvetica,sans-Serif" font-size="10.00" fill="grey">stend</text>
</g>
<!-- Node10&#45;&gt;Node16 -->
<g id="edge25_Node000016_Node000010" class="edge">
<title>Node10&#45;&gt;Node16</title>
<g id="a_edge25_Node000016_Node000010"><a xlink:title=" ">
<path fill="none" stroke="#9a32cd" stroke-dasharray="5,2" d="M197.27,-530.84C275.28,-525.7 434,-509.3 434,-461 434,-461 434,-461 434,-279 434,-230.38 372.16,-207.37 331.57,-197.5"/>
<polygon fill="#9a32cd" stroke="#9a32cd" points="197.2,-527.34 187.43,-531.45 197.63,-534.33 197.2,-527.34"/>
</a>
</g>
<text xml:space="preserve" text-anchor="start" x="437" y="-366.5" font-family="Helvetica,sans-Serif" font-size="10.00" fill="grey">stack</text>
</g>
<!-- Node11 -->
<g id="Node000011" class="node">
<title>Node11</title>
<g id="a_Node000011"><a xlink:href="unionmrb__value__union.html" target="_top" xlink:title=" ">
<polygon fill="white" stroke="#bfbfbf" points="199.75,-618 110.25,-618 110.25,-598 199.75,-598 199.75,-618"/>
<text xml:space="preserve" text-anchor="middle" x="155" y="-604.5" font-family="Helvetica,sans-Serif" font-size="10.00">mrb_value_union</text>
</a>
</g>
</g>
<!-- Node11&#45;&gt;Node10 -->
<g id="edge11_Node000010_Node000011" class="edge">
<title>Node11&#45;&gt;Node10</title>
<g id="a_edge11_Node000010_Node000011"><a xlink:title=" ">
<path fill="none" stroke="#9a32cd" stroke-dasharray="5,2" d="M155,-586.18C155,-572.29 155,-554.71 155,-544.19"/>
<polygon fill="#9a32cd" stroke="#9a32cd" points="151.5,-586.07 155,-596.07 158.5,-586.07 151.5,-586.07"/>
</a>
</g>
<text xml:space="preserve" text-anchor="start" x="158" y="-567.5" font-family="Helvetica,sans-Serif" font-size="10.00" fill="grey">value</text>
</g>
<!-- Node12&#45;&gt;Node3 -->
<g id="edge13_Node000003_Node000012" class="edge">
<title>Node12&#45;&gt;Node3</title>
<g id="a_edge13_Node000003_Node000012"><a xlink:title=" ">
<path fill="none" stroke="#9a32cd" stroke-dasharray="5,2" d="M199.42,-348.35C197.13,-330.02 193.88,-304.07 192.17,-290.35"/>
<polygon fill="#9a32cd" stroke="#9a32cd" points="195.92,-348.59 200.64,-358.08 202.87,-347.72 195.92,-348.59"/>
</a>
</g>
<text xml:space="preserve" text-anchor="start" x="201.44" y="-321.5" font-family="Helvetica,sans-Serif" font-size="10.00" fill="grey">target_class</text>
</g>
<!-- Node12&#45;&gt;Node12 -->
<g id="edge17_Node000012_Node000012" class="edge">
<title>Node12&#45;&gt;Node12</title>
<g id="a_edge17_Node000012_Node000012"><a xlink:title=" ">
<path fill="none" stroke="#9a32cd" stroke-dasharray="5,2" d="M238.04,-377.07C241.97,-375.72 244.5,-373.36 244.5,-370 244.5,-364.02 236.5,-361.22 226.88,-361.6"/>
<polygon fill="#9a32cd" stroke="#9a32cd" points="237.9,-373.56 228.39,-378.23 238.73,-380.51 237.9,-373.56"/>
</a>
</g>
<text xml:space="preserve" text-anchor="start" x="247.5" y="-366.5" font-family="Helvetica,sans-Serif" font-size="10.00" fill="grey">super</text>
</g>
<!-- Node12&#45;&gt;Node16 -->
<g id="edge27_Node000016_Node000012" class="edge">
<title>Node12&#45;&gt;Node16</title>
<g id="a_edge27_Node000016_Node000012"><a xlink:title=" ">
<path fill="none" stroke="#9a32cd" stroke-dasharray="5,2" d="M237.45,-359.36C246.59,-355.34 255.64,-349.73 262,-342 297.57,-298.78 298.44,-226.11 297.52,-200.38"/>
<polygon fill="#9a32cd" stroke="#9a32cd" points="236.35,-356.04 228.24,-362.86 238.84,-362.58 236.35,-356.04"/>
</a>
</g>
<text xml:space="preserve" text-anchor="start" x="295.42" y="-276.5" font-family="Helvetica,sans-Serif" font-size="10.00" fill="grey">target_class</text>
</g>
<!-- Node13&#45;&gt;Node12 -->
<g id="edge14_Node000012_Node000013" class="edge">
<title>Node13&#45;&gt;Node12</title>
<g id="a_edge14_Node000012_Node000013"><a xlink:title=" ">
<path fill="none" stroke="#9a32cd" stroke-dasharray="5,2" d="M208.12,-438.35C206.46,-420.02 204.1,-394.07 202.85,-380.35"/>
<polygon fill="#9a32cd" stroke="#9a32cd" points="204.62,-438.43 209.01,-448.08 211.59,-437.8 204.62,-438.43"/>
</a>
</g>
<text xml:space="preserve" text-anchor="start" x="210.41" y="-411.5" font-family="Helvetica,sans-Serif" font-size="10.00" fill="grey">iv</text>
</g>
<!-- Node14&#45;&gt;Node3 -->
<g id="edge18_Node000003_Node000014" class="edge">
<title>Node14&#45;&gt;Node3</title>
<g id="a_edge18_Node000003_Node000014"><a xlink:title=" ">
<path fill="none" stroke="#9a32cd" stroke-dasharray="5,2" d="M249.02,-29.81C237.17,-49.47 219.62,-81.63 211.25,-112 194.66,-172.18 212.46,-190.83 200,-252 198.78,-258 196.63,-264.53 194.74,-269.66"/>
<polygon fill="#9a32cd" stroke="#9a32cd" points="251.85,-31.9 254.13,-21.55 245.89,-28.22 251.85,-31.9"/>
</a>
</g>
<text xml:space="preserve" text-anchor="start" x="214.25" y="-133.5" font-family="Helvetica,sans-Serif" font-size="10.00" fill="grey">env</text>
</g>
<!-- Node14&#45;&gt;Node16 -->
<g id="edge26_Node000016_Node000014" class="edge">
<title>Node14&#45;&gt;Node16</title>
<g id="a_edge26_Node000016_Node000014"><a xlink:title=" ">
<path fill="none" stroke="#9a32cd" stroke-dasharray="5,2" d="M269.75,-31.07C278.01,-51.12 289.87,-83.05 295,-112 299.29,-136.23 298.45,-165.41 297.63,-179.9"/>
<polygon fill="#9a32cd" stroke="#9a32cd" points="272.98,-29.73 265.86,-21.89 266.54,-32.46 272.98,-29.73"/>
</a>
</g>
<text xml:space="preserve" text-anchor="start" x="293.87" y="-80.5" font-family="Helvetica,sans-Serif" font-size="10.00" fill="grey">env</text>
</g>
<!-- Node15&#45;&gt;Node14 -->
<g id="edge20_Node000014_Node000015" class="edge">
<title>Node15&#45;&gt;Node14</title>
<g id="a_edge20_Node000014_Node000015"><a xlink:title=" ">
<path fill="none" stroke="#9a32cd" stroke-dasharray="5,2" d="M130.36,-67.23C144.32,-57.88 162.92,-46.27 180.5,-38 200.11,-28.78 223.74,-21.25 240.31,-16.5"/>
<polygon fill="#9a32cd" stroke="#9a32cd" points="128.63,-64.18 122.35,-72.71 132.58,-69.96 128.63,-64.18"/>
</a>
</g>
<text xml:space="preserve" text-anchor="start" x="183.5" y="-43.5" font-family="Helvetica,sans-Serif" font-size="10.00" fill="grey">cxt</text>
</g>
<!-- Node15&#45;&gt;Node15 -->
<g id="edge21_Node000015_Node000015" class="edge">
<title>Node15&#45;&gt;Node15</title>
<g id="a_edge21_Node000015_Node000015"><a xlink:title=" ">
<path fill="none" stroke="#9a32cd" stroke-dasharray="5,2" d="M154.27,-89.48C158.41,-88.33 161,-86.51 161,-84 161,-79.66 153.24,-77.36 143.17,-77.09"/>
<polygon fill="#9a32cd" stroke="#9a32cd" points="154.14,-85.97 144.67,-90.72 155.03,-92.91 154.14,-85.97"/>
</a>
</g>
<text xml:space="preserve" text-anchor="start" x="164" y="-80.5" font-family="Helvetica,sans-Serif" font-size="10.00" fill="grey">prev</text>
</g>
<!-- Node17 -->
<g id="Node000017" class="node">
<title>Node17</title>
<g id="a_Node000017"><a xlink:href="structRFiber.html" target="_top" xlink:title=" ">
<polygon fill="white" stroke="#bfbfbf" points="117.62,-20 72.38,-20 72.38,0 117.62,0 117.62,-20"/>
<text xml:space="preserve" text-anchor="middle" x="95" y="-6.5" font-family="Helvetica,sans-Serif" font-size="10.00">RFiber</text>
</a>
</g>
</g>
<!-- Node15&#45;&gt;Node17 -->
<g id="edge29_Node000017_Node000015" class="edge">
<title>Node15&#45;&gt;Node17</title>
<g id="a_edge29_Node000017_Node000015"><a xlink:title=" ">
<path fill="none" stroke="#9a32cd" stroke-dasharray="5,2" d="M83.56,-66.14C80.7,-63.1 78.21,-59.71 76.5,-56 70.92,-43.87 79.28,-29.58 86.49,-20.4"/>
<polygon fill="#9a32cd" stroke="#9a32cd" points="81.21,-68.74 91.04,-72.7 85.83,-63.47 81.21,-68.74"/>
</a>
</g>
<text xml:space="preserve" text-anchor="start" x="79.5" y="-43.5" font-family="Helvetica,sans-Serif" font-size="10.00" fill="grey">cxt</text>
</g>
<!-- Node16&#45;&gt;Node15 -->
<g id="edge23_Node000015_Node000016" class="edge">
<title>Node16&#45;&gt;Node15</title>
<g id="a_edge23_Node000015_Node000016"><a xlink:title=" ">
<path fill="none" stroke="#9a32cd" stroke-dasharray="5,2" d="M271.96,-173.09C267.81,-169.76 263.79,-166.02 260.5,-162 244.93,-143.01 256.26,-127.23 237,-112 222.73,-100.72 176.42,-93.04 143.38,-88.83"/>
<polygon fill="#9a32cd" stroke="#9a32cd" points="269.66,-175.75 279.8,-178.82 273.79,-170.09 269.66,-175.75"/>
</a>
</g>
<text xml:space="preserve" text-anchor="start" x="263.5" y="-149.5" font-family="Helvetica,sans-Serif" font-size="10.00" fill="grey">ci</text>
<text xml:space="preserve" text-anchor="start" x="263.5" y="-133.5" font-family="Helvetica,sans-Serif" font-size="10.00" fill="grey">cibase</text>
<text xml:space="preserve" text-anchor="start" x="263.5" y="-117.5" font-family="Helvetica,sans-Serif" font-size="10.00" fill="grey">ciend</text>
</g>
<!-- Node17&#45;&gt;Node15 -->
<g id="edge28_Node000015_Node000017" class="edge">
<title>Node17&#45;&gt;Node15</title>
<g id="a_edge28_Node000015_Node000017"><a xlink:title=" ">
<path fill="none" stroke="#9a32cd" stroke-dasharray="5,2" d="M98.63,-31.1C101.14,-45 104.36,-62.86 106.3,-73.59"/>
<polygon fill="#9a32cd" stroke="#9a32cd" points="102.15,-30.9 96.93,-21.68 95.26,-32.14 102.15,-30.9"/>
</a>
</g>
<text xml:space="preserve" text-anchor="start" x="106.05" y="-43.5" font-family="Helvetica,sans-Serif" font-size="10.00" fill="grey">fib</text>
</g>
</g>
</svg>
