<?xml version="1.0" encoding="UTF-8" standalone="no"?>
<!DOCTYPE svg PUBLIC "-//W3C//DTD SVG 1.1//EN"
 "http://www.w3.org/Graphics/SVG/1.1/DTD/svg11.dtd">
<!-- Generated by graphviz version 14.0.5 (0)
 -->
<!-- Title: backtrace_location Pages: 1 -->
<svg width="300pt" height="340pt"
 viewBox="0.00 0.00 300.00 340.00" xmlns="http://www.w3.org/2000/svg" xmlns:xlink="http://www.w3.org/1999/xlink">
<g id="graph0" class="graph" transform="scale(1 1) rotate(0) translate(4 336)">
<title>backtrace_location</title>
<!-- Node1 -->
<g id="Node000001" class="node">
<title>Node1</title>
<g id="a_Node000001"><a xlink:title=" ">
<polygon fill="#999999" stroke="#666666" points="179,-20 81.25,-20 81.25,0 179,0 179,-20"/>
<text xml:space="preserve" text-anchor="middle" x="130.12" y="-6.5" font-family="Helvetica,sans-Serif" font-size="10.00">backtrace_location</text>
</a>
</g>
</g>
<!-- Node2 -->
<g id="Node000002" class="node">
<title>Node2</title>
<g id="a_Node000002"><a xlink:href="structmrb__irep.html" target="_top" xlink:title=" ">
<polygon fill="white" stroke="#bfbfbf" points="156.88,-94 103.38,-94 103.38,-74 156.88,-74 156.88,-94"/>
<text xml:space="preserve" text-anchor="middle" x="130.12" y="-80.5" font-family="Helvetica,sans-Serif" font-size="10.00">mrb_irep</text>
</a>
</g>
</g>
<!-- Node2&#45;&gt;Node1 -->
<g id="edge1_Node000001_Node000002" class="edge">
<title>Node2&#45;&gt;Node1</title>
<g id="a_edge1_Node000001_Node000002"><a xlink:title=" ">
<path fill="none" stroke="#9a32cd" stroke-dasharray="5,2" d="M130.12,-62.18C130.12,-48.29 130.12,-30.71 130.12,-20.19"/>
<polygon fill="#9a32cd" stroke="#9a32cd" points="126.63,-62.07 130.13,-72.07 133.63,-62.07 126.63,-62.07"/>
</a>
</g>
<text xml:space="preserve" text-anchor="start" x="133.12" y="-43.5" font-family="Helvetica,sans-Serif" font-size="10.00" fill="grey">irep</text>
</g>
<!-- Node2&#45;&gt;Node2 -->
<g id="edge4_Node000002_Node000002" class="edge">
<title>Node2&#45;&gt;Node2</title>
<g id="a_edge4_Node000002_Node000002"><a xlink:title=" ">
<path fill="none" stroke="#9a32cd" stroke-dasharray="5,2" d="M168.44,-89.71C172.37,-88.59 174.88,-86.68 174.88,-84 174.88,-79.23 166.94,-76.92 157.21,-77.07"/>
<polygon fill="#9a32cd" stroke="#9a32cd" points="168.28,-86.21 158.72,-90.77 169.04,-93.17 168.28,-86.21"/>
</a>
</g>
<text xml:space="preserve" text-anchor="start" x="177.88" y="-80.5" font-family="Helvetica,sans-Serif" font-size="10.00" fill="grey">reps</text>
</g>
<!-- Node3 -->
<g id="Node000003" class="node">
<title>Node3</title>
<g id="a_Node000003"><a xlink:href="structmrb__pool__value.html" target="_top" xlink:title=" ">
<polygon fill="white" stroke="#bfbfbf" points="84.25,-184 0,-184 0,-164 84.25,-164 84.25,-184"/>
<text xml:space="preserve" text-anchor="middle" x="42.12" y="-170.5" font-family="Helvetica,sans-Serif" font-size="10.00">mrb_pool_value</text>
</a>
</g>
</g>
<!-- Node3&#45;&gt;Node2 -->
<g id="edge2_Node000002_Node000003" class="edge">
<title>Node3&#45;&gt;Node2</title>
<g id="a_edge2_Node000002_Node000003"><a xlink:title=" ">
<path fill="none" stroke="#9a32cd" stroke-dasharray="5,2" d="M58.81,-155.79C70.78,-143.51 87.35,-126.63 102.12,-112 108.08,-106.11 114.83,-99.59 120.22,-94.43"/>
<polygon fill="#9a32cd" stroke="#9a32cd" points="56.51,-153.14 52.05,-162.75 61.53,-158.02 56.51,-153.14"/>
</a>
</g>
<text xml:space="preserve" text-anchor="start" x="105.12" y="-125.5" font-family="Helvetica,sans-Serif" font-size="10.00" fill="grey">pool</text>
</g>
<!-- Node4 -->
<g id="Node000004" class="node">
<title>Node4</title>
<g id="a_Node000004"><a xlink:href="classmrb__sym.html" target="_top" xlink:title=" ">
<polygon fill="white" stroke="#666666" points="158.38,-184 101.88,-184 101.88,-164 158.38,-164 158.38,-184"/>
<text xml:space="preserve" text-anchor="middle" x="130.12" y="-170.5" font-family="Helvetica,sans-Serif" font-size="10.00">mrb_sym</text>
</a>
</g>
</g>
<!-- Node4&#45;&gt;Node2 -->
<g id="edge3_Node000002_Node000004" class="edge">
<title>Node4&#45;&gt;Node2</title>
<g id="a_edge3_Node000002_Node000004"><a xlink:title=" ">
<path fill="none" stroke="#9a32cd" stroke-dasharray="5,2" d="M130.12,-152.09C130.12,-133.77 130.12,-108.01 130.12,-94.35"/>
<polygon fill="#9a32cd" stroke="#9a32cd" points="126.63,-152.07 130.13,-162.07 133.63,-152.07 126.63,-152.07"/>
</a>
</g>
<text xml:space="preserve" text-anchor="start" x="133.12" y="-133.5" font-family="Helvetica,sans-Serif" font-size="10.00" fill="grey">lv</text>
<text xml:space="preserve" text-anchor="start" x="133.12" y="-117.5" font-family="Helvetica,sans-Serif" font-size="10.00" fill="grey">syms</text>
</g>
<!-- Node5 -->
<g id="Node000005" class="node">
<title>Node5</title>
<g id="a_Node000005"><a xlink:href="structmrb__irep__debug__info.html" target="_top" xlink:title=" ">
<polygon fill="white" stroke="#bfbfbf" points="282.12,-184 176.12,-184 176.12,-164 282.12,-164 282.12,-184"/>
<text xml:space="preserve" text-anchor="middle" x="229.12" y="-170.5" font-family="Helvetica,sans-Serif" font-size="10.00">mrb_irep_debug_info</text>
</a>
</g>
</g>
<!-- Node5&#45;&gt;Node2 -->
<g id="edge5_Node000002_Node000005" class="edge">
<title>Node5&#45;&gt;Node2</title>
<g id="a_edge5_Node000002_Node000005"><a xlink:title=" ">
<path fill="none" stroke="#9a32cd" stroke-dasharray="5,2" d="M211.66,-155.86C198.78,-143.41 180.68,-126.3 164.12,-112 157.05,-105.89 148.85,-99.36 142.28,-94.26"/>
<polygon fill="#9a32cd" stroke="#9a32cd" points="208.97,-158.13 218.58,-162.6 213.85,-153.11 208.97,-158.13"/>
</a>
</g>
<text xml:space="preserve" text-anchor="start" x="202.96" y="-125.5" font-family="Helvetica,sans-Serif" font-size="10.00" fill="grey">debug_info</text>
</g>
<!-- Node6 -->
<g id="Node000006" class="node">
<title>Node6</title>
<g id="a_Node000006"><a xlink:href="structmrb__irep__debug__info__file.html" target="_top" xlink:title=" ">
<polygon fill="white" stroke="#bfbfbf" points="291.12,-258 167.12,-258 167.12,-238 291.12,-238 291.12,-258"/>
<text xml:space="preserve" text-anchor="middle" x="229.12" y="-244.5" font-family="Helvetica,sans-Serif" font-size="10.00">mrb_irep_debug_info_file</text>
</a>
</g>
</g>
<!-- Node6&#45;&gt;Node5 -->
<g id="edge6_Node000005_Node000006" class="edge">
<title>Node6&#45;&gt;Node5</title>
<g id="a_edge6_Node000005_Node000006"><a xlink:title=" ">
<path fill="none" stroke="#9a32cd" stroke-dasharray="5,2" d="M229.12,-226.18C229.12,-212.29 229.12,-194.71 229.12,-184.19"/>
<polygon fill="#9a32cd" stroke="#9a32cd" points="225.63,-226.07 229.13,-236.07 232.63,-226.07 225.63,-226.07"/>
</a>
</g>
<text xml:space="preserve" text-anchor="start" x="232.12" y="-207.5" font-family="Helvetica,sans-Serif" font-size="10.00" fill="grey">files</text>
</g>
<!-- Node7 -->
<g id="Node000007" class="node">
<title>Node7</title>
<g id="a_Node000007"><a xlink:href="structmrb__irep__debug__info__line.html" target="_top" xlink:title=" ">
<polygon fill="white" stroke="#bfbfbf" points="292.25,-332 166,-332 166,-312 292.25,-312 292.25,-332"/>
<text xml:space="preserve" text-anchor="middle" x="229.12" y="-318.5" font-family="Helvetica,sans-Serif" font-size="10.00">mrb_irep_debug_info_line</text>
</a>
</g>
</g>
<!-- Node7&#45;&gt;Node6 -->
<g id="edge7_Node000006_Node000007" class="edge">
<title>Node7&#45;&gt;Node6</title>
<g id="a_edge7_Node000006_Node000007"><a xlink:title=" ">
<path fill="none" stroke="#9a32cd" stroke-dasharray="5,2" d="M229.12,-300.18C229.12,-286.29 229.12,-268.71 229.12,-258.19"/>
<polygon fill="#9a32cd" stroke="#9a32cd" points="225.63,-300.07 229.13,-310.07 232.63,-300.07 225.63,-300.07"/>
</a>
</g>
<text xml:space="preserve" text-anchor="start" x="232.12" y="-281.5" font-family="Helvetica,sans-Serif" font-size="10.00" fill="grey">flat_map</text>
</g>
</g>
</svg>
