<?xml version="1.0" encoding="UTF-8" standalone="no"?>
<!DOCTYPE svg PUBLIC "-//W3C//DTD SVG 1.1//EN"
 "http://www.w3.org/Graphics/SVG/1.1/DTD/svg11.dtd">
<!-- Generated by graphviz version 14.0.5 (0)
 -->
<!-- Title: shrpx::DownstreamAddrConfig Pages: 1 -->
<svg width="228pt" height="224pt"
 viewBox="0.00 0.00 228.00 224.00" xmlns="http://www.w3.org/2000/svg" xmlns:xlink="http://www.w3.org/1999/xlink">
<g id="graph0" class="graph" transform="scale(1 1) rotate(0) translate(4 220)">
<title>shrpx::DownstreamAddrConfig</title>
<!-- Node1 -->
<g id="Node000001" class="node">
<title>Node1</title>
<g id="a_Node000001"><a xlink:title=" ">
<polygon fill="#999999" stroke="#666666" points="192.38,-20 42.12,-20 42.12,0 192.38,0 192.38,-20"/>
<text xml:space="preserve" text-anchor="middle" x="117.25" y="-6.5" font-family="Helvetica,sans-Serif" font-size="10.00">shrpx::DownstreamAddrConfig</text>
</a>
</g>
</g>
<!-- Node2 -->
<g id="Node000002" class="node">
<title>Node2</title>
<g id="a_Node000002"><a xlink:href="structnghttp2_1_1Address.html" target="_top" xlink:title=" ">
<polygon fill="white" stroke="#bfbfbf" points="106.38,-142 16.12,-142 16.12,-122 106.38,-122 106.38,-142"/>
<text xml:space="preserve" text-anchor="middle" x="61.25" y="-128.5" font-family="Helvetica,sans-Serif" font-size="10.00">nghttp2::Address</text>
</a>
</g>
</g>
<!-- Node2&#45;&gt;Node1 -->
<g id="edge1_Node000001_Node000002" class="edge">
<title>Node2&#45;&gt;Node1</title>
<g id="a_edge1_Node000001_Node000002"><a xlink:title=" ">
<path fill="none" stroke="#9a32cd" stroke-dasharray="5,2" d="M69.12,-110.95C76.78,-91.89 89.07,-62.59 101.5,-38 104.54,-32 108.33,-25.47 111.43,-20.34"/>
<polygon fill="#9a32cd" stroke="#9a32cd" points="65.89,-109.6 65.45,-120.18 72.39,-112.18 65.89,-109.6"/>
</a>
</g>
<text xml:space="preserve" text-anchor="start" x="104.5" y="-67.5" font-family="Helvetica,sans-Serif" font-size="10.00" fill="grey">addr</text>
</g>
<!-- Node3 -->
<g id="Node000003" class="node">
<title>Node3</title>
<g id="a_Node000003"><a xlink:href="unionnghttp2_1_1sockaddr__union.html" target="_top" xlink:title=" ">
<polygon fill="white" stroke="#bfbfbf" points="122.5,-216 0,-216 0,-196 122.5,-196 122.5,-216"/>
<text xml:space="preserve" text-anchor="middle" x="61.25" y="-202.5" font-family="Helvetica,sans-Serif" font-size="10.00">nghttp2::sockaddr_union</text>
</a>
</g>
</g>
<!-- Node3&#45;&gt;Node2 -->
<g id="edge2_Node000002_Node000003" class="edge">
<title>Node3&#45;&gt;Node2</title>
<g id="a_edge2_Node000002_Node000003"><a xlink:title=" ">
<path fill="none" stroke="#9a32cd" stroke-dasharray="5,2" d="M61.25,-184.18C61.25,-170.29 61.25,-152.71 61.25,-142.19"/>
<polygon fill="#9a32cd" stroke="#9a32cd" points="57.75,-184.07 61.25,-194.07 64.75,-184.07 57.75,-184.07"/>
</a>
</g>
<text xml:space="preserve" text-anchor="start" x="64.25" y="-165.5" font-family="Helvetica,sans-Serif" font-size="10.00" fill="grey">su</text>
</g>
<!-- Node4 -->
<g id="Node000004" class="node">
<title>Node4</title>
<g id="a_Node000004"><a xlink:href="classnghttp2_1_1StringRef.html" target="_top" xlink:title=" ">
<polygon fill="white" stroke="#bfbfbf" points="220,-142 124.5,-142 124.5,-122 220,-122 220,-142"/>
<text xml:space="preserve" text-anchor="middle" x="172.25" y="-128.5" font-family="Helvetica,sans-Serif" font-size="10.00">nghttp2::StringRef</text>
</a>
</g>
</g>
<!-- Node4&#45;&gt;Node1 -->
<g id="edge3_Node000001_Node000004" class="edge">
<title>Node4&#45;&gt;Node1</title>
<g id="a_edge3_Node000001_Node000004"><a xlink:title=" ">
<path fill="none" stroke="#9a32cd" stroke-dasharray="5,2" d="M163.25,-111.36C151.25,-85.18 130.48,-39.87 121.55,-20.37"/>
<polygon fill="#9a32cd" stroke="#9a32cd" points="159.96,-112.58 167.3,-120.21 166.32,-109.66 159.96,-112.58"/>
</a>
</g>
<text xml:space="preserve" text-anchor="start" x="161.96" y="-91.5" font-family="Helvetica,sans-Serif" font-size="10.00" fill="grey">group</text>
<text xml:space="preserve" text-anchor="start" x="161.96" y="-75.5" font-family="Helvetica,sans-Serif" font-size="10.00" fill="grey">host</text>
<text xml:space="preserve" text-anchor="start" x="161.96" y="-59.5" font-family="Helvetica,sans-Serif" font-size="10.00" fill="grey">hostport</text>
<text xml:space="preserve" text-anchor="start" x="161.96" y="-43.5" font-family="Helvetica,sans-Serif" font-size="10.00" fill="grey">sni</text>
</g>
</g>
</svg>
