<?xml version="1.0" encoding="UTF-8" standalone="no"?>
<!DOCTYPE svg PUBLIC "-//W3C//DTD SVG 1.1//EN"
 "http://www.w3.org/Graphics/SVG/1.1/DTD/svg11.dtd">
<!-- Generated by graphviz version 14.0.5 (0)
 -->
<!-- Title: protect_data Pages: 1 -->
<svg width="98pt" height="192pt"
 viewBox="0.00 0.00 98.00 192.00" xmlns="http://www.w3.org/2000/svg" xmlns:xlink="http://www.w3.org/1999/xlink">
<g id="graph0" class="graph" transform="scale(1 1) rotate(0) translate(4 188)">
<title>protect_data</title>
<!-- Node1 -->
<g id="Node000001" class="node">
<title>Node1</title>
<g id="a_Node000001"><a xlink:title=" ">
<polygon fill="#999999" stroke="#666666" points="79.75,-20 9.75,-20 9.75,0 79.75,0 79.75,-20"/>
<text xml:space="preserve" text-anchor="middle" x="44.75" y="-6.5" font-family="Helvetica,sans-Serif" font-size="10.00">protect_data</text>
</a>
</g>
</g>
<!-- Node2 -->
<g id="Node000002" class="node">
<title>Node2</title>
<g id="a_Node000002"><a xlink:href="structmrb__value.html" target="_top" xlink:title=" ">
<polygon fill="white" stroke="#bfbfbf" points="75.25,-110 14.25,-110 14.25,-90 75.25,-90 75.25,-110"/>
<text xml:space="preserve" text-anchor="middle" x="44.75" y="-96.5" font-family="Helvetica,sans-Serif" font-size="10.00">mrb_value</text>
</a>
</g>
</g>
<!-- Node2&#45;&gt;Node1 -->
<g id="edge1_Node000001_Node000002" class="edge">
<title>Node2&#45;&gt;Node1</title>
<g id="a_edge1_Node000001_Node000002"><a xlink:title=" ">
<path fill="none" stroke="#9a32cd" stroke-dasharray="5,2" d="M44.75,-78.09C44.75,-59.77 44.75,-34.01 44.75,-20.35"/>
<polygon fill="#9a32cd" stroke="#9a32cd" points="41.25,-78.07 44.75,-88.07 48.25,-78.07 41.25,-78.07"/>
</a>
</g>
<text xml:space="preserve" text-anchor="start" x="47.75" y="-59.5" font-family="Helvetica,sans-Serif" font-size="10.00" fill="grey">body</text>
<text xml:space="preserve" text-anchor="start" x="47.75" y="-43.5" font-family="Helvetica,sans-Serif" font-size="10.00" fill="grey">data</text>
</g>
<!-- Node3 -->
<g id="Node000003" class="node">
<title>Node3</title>
<g id="a_Node000003"><a xlink:href="unionmrb__value__union.html" target="_top" xlink:title=" ">
<polygon fill="white" stroke="#bfbfbf" points="89.5,-184 0,-184 0,-164 89.5,-164 89.5,-184"/>
<text xml:space="preserve" text-anchor="middle" x="44.75" y="-170.5" font-family="Helvetica,sans-Serif" font-size="10.00">mrb_value_union</text>
</a>
</g>
</g>
<!-- Node3&#45;&gt;Node2 -->
<g id="edge2_Node000002_Node000003" class="edge">
<title>Node3&#45;&gt;Node2</title>
<g id="a_edge2_Node000002_Node000003"><a xlink:title=" ">
<path fill="none" stroke="#9a32cd" stroke-dasharray="5,2" d="M44.75,-152.18C44.75,-138.29 44.75,-120.71 44.75,-110.19"/>
<polygon fill="#9a32cd" stroke="#9a32cd" points="41.25,-152.07 44.75,-162.07 48.25,-152.07 41.25,-152.07"/>
</a>
</g>
<text xml:space="preserve" text-anchor="start" x="47.75" y="-133.5" font-family="Helvetica,sans-Serif" font-size="10.00" fill="grey">value</text>
</g>
</g>
</svg>
