<?xml version="1.0" encoding="UTF-8" standalone="no"?>
<!DOCTYPE svg PUBLIC "-//W3C//DTD SVG 1.1//EN"
 "http://www.w3.org/Graphics/SVG/1.1/DTD/svg11.dtd">
<!-- Generated by graphviz version 14.0.5 (0)
 -->
<!-- Title: mrb_debug_context Pages: 1 -->
<svg width="1787pt" height="627pt"
 viewBox="0.00 0.00 1787.00 627.00" xmlns="http://www.w3.org/2000/svg" xmlns:xlink="http://www.w3.org/1999/xlink">
<g id="graph0" class="graph" transform="scale(1 1) rotate(0) translate(4 623.5)">
<title>mrb_debug_context</title>
<!-- Node1 -->
<g id="Node000001" class="node">
<title>Node1</title>
<g id="a_Node000001"><a xlink:title=" ">
<polygon fill="#999999" stroke="#666666" points="1678.25,-150 1576.75,-150 1576.75,-130 1678.25,-130 1678.25,-150"/>
<text xml:space="preserve" text-anchor="middle" x="1627.5" y="-136.5" font-family="Helvetica,sans-Serif" font-size="10.00">mrb_debug_context</text>
</a>
</g>
</g>
<!-- Node2 -->
<g id="Node000002" class="node">
<title>Node2</title>
<g id="a_Node000002"><a xlink:href="structmrb__irep.html" target="_top" xlink:title=" ">
<polygon fill="white" stroke="#bfbfbf" points="642.25,-77 588.75,-77 588.75,-57 642.25,-57 642.25,-77"/>
<text xml:space="preserve" text-anchor="middle" x="615.5" y="-63.5" font-family="Helvetica,sans-Serif" font-size="10.00">mrb_irep</text>
</a>
</g>
</g>
<!-- Node2&#45;&gt;Node1 -->
<g id="edge1_Node000001_Node000002" class="edge">
<title>Node2&#45;&gt;Node1</title>
<g id="a_edge1_Node000001_Node000002"><a xlink:title=" ">
<path fill="none" stroke="#9a32cd" stroke-dasharray="5,2" d="M653.63,-58.44C675.12,-54.21 702.76,-50 727.62,-50 727.62,-50 727.62,-50 1450.12,-50 1519.57,-50 1589.24,-106.04 1615.54,-129.68"/>
<polygon fill="#9a32cd" stroke="#9a32cd" points="652.94,-55.01 643.86,-60.46 654.36,-61.86 652.94,-55.01"/>
</a>
</g>
<text xml:space="preserve" text-anchor="start" x="1007.25" y="-71.5" font-family="Helvetica,sans-Serif" font-size="10.00" fill="grey">irep</text>
<text xml:space="preserve" text-anchor="start" x="1007.25" y="-55.5" font-family="Helvetica,sans-Serif" font-size="10.00" fill="grey">root_irep</text>
</g>
<!-- Node2&#45;&gt;Node2 -->
<g id="edge4_Node000002_Node000002" class="edge">
<title>Node2&#45;&gt;Node2</title>
<g id="a_edge4_Node000002_Node000002"><a xlink:title=" ">
<path fill="none" stroke="#9a32cd" stroke-dasharray="5,2" d="M604.86,-88.77C606.33,-92.45 609.88,-95 615.5,-95 626.08,-95 629.31,-85.98 625.17,-77.34"/>
<polygon fill="#9a32cd" stroke="#9a32cd" points="608.35,-89.11 605.7,-78.85 601.37,-88.52 608.35,-89.11"/>
</a>
</g>
<text xml:space="preserve" text-anchor="start" x="606.12" y="-100.5" font-family="Helvetica,sans-Serif" font-size="10.00" fill="grey">reps</text>
</g>
<!-- Node11 -->
<g id="Node000011" class="node">
<title>Node11</title>
<g id="a_Node000011"><a xlink:href="structRProc.html" target="_top" xlink:title=" ">
<polygon fill="white" stroke="#bfbfbf" points="750.5,-304 706.75,-304 706.75,-284 750.5,-284 750.5,-304"/>
<text xml:space="preserve" text-anchor="middle" x="728.62" y="-290.5" font-family="Helvetica,sans-Serif" font-size="10.00">RProc</text>
</a>
</g>
</g>
<!-- Node2&#45;&gt;Node11 -->
<g id="edge12_Node000011_Node000002" class="edge">
<title>Node2&#45;&gt;Node11</title>
<g id="a_edge12_Node000011_Node000002"><a xlink:title=" ">
<path fill="none" stroke="#9a32cd" stroke-dasharray="5,2" d="M626.54,-87.52C649.55,-134.51 705.38,-248.57 722.53,-283.6"/>
<polygon fill="#9a32cd" stroke="#9a32cd" points="629.77,-86.15 622.23,-78.7 623.48,-89.22 629.77,-86.15"/>
</a>
</g>
<text xml:space="preserve" text-anchor="start" x="668.5" y="-219.6" font-family="Helvetica,sans-Serif" font-size="10.00" fill="grey">irep</text>
</g>
<!-- Node3 -->
<g id="Node000003" class="node">
<title>Node3</title>
<g id="a_Node000003"><a xlink:href="structmrb__pool__value.html" target="_top" xlink:title=" ">
<polygon fill="white" stroke="#bfbfbf" points="484.88,-77 400.62,-77 400.62,-57 484.88,-57 484.88,-77"/>
<text xml:space="preserve" text-anchor="middle" x="442.75" y="-63.5" font-family="Helvetica,sans-Serif" font-size="10.00">mrb_pool_value</text>
</a>
</g>
</g>
<!-- Node3&#45;&gt;Node2 -->
<g id="edge2_Node000002_Node000003" class="edge">
<title>Node3&#45;&gt;Node2</title>
<g id="a_edge2_Node000002_Node000003"><a xlink:title=" ">
<path fill="none" stroke="#9a32cd" stroke-dasharray="5,2" d="M496.42,-67C526.95,-67 564.04,-67 588.41,-67"/>
<polygon fill="#9a32cd" stroke="#9a32cd" points="496.6,-63.5 486.6,-67 496.6,-70.5 496.6,-63.5"/>
</a>
</g>
<text xml:space="preserve" text-anchor="start" x="531.38" y="-72.5" font-family="Helvetica,sans-Serif" font-size="10.00" fill="grey">pool</text>
</g>
<!-- Node4 -->
<g id="Node000004" class="node">
<title>Node4</title>
<g id="a_Node000004"><a xlink:href="classmrb__sym.html" target="_top" xlink:title=" ">
<polygon fill="white" stroke="#666666" points="471,-20 414.5,-20 414.5,0 471,0 471,-20"/>
<text xml:space="preserve" text-anchor="middle" x="442.75" y="-6.5" font-family="Helvetica,sans-Serif" font-size="10.00">mrb_sym</text>
</a>
</g>
</g>
<!-- Node4&#45;&gt;Node2 -->
<g id="edge3_Node000002_Node000004" class="edge">
<title>Node4&#45;&gt;Node2</title>
<g id="a_edge3_Node000002_Node000004"><a xlink:title=" ">
<path fill="none" stroke="#9a32cd" stroke-dasharray="5,2" d="M482.57,-10.86C507.59,-12.63 540.3,-17.27 567,-29 581.89,-35.54 596.06,-47.96 604.98,-56.82"/>
<polygon fill="#9a32cd" stroke="#9a32cd" points="483.02,-7.38 472.83,-10.3 482.62,-14.37 483.02,-7.38"/>
</a>
</g>
<text xml:space="preserve" text-anchor="start" x="528.38" y="-50.5" font-family="Helvetica,sans-Serif" font-size="10.00" fill="grey">lv</text>
<text xml:space="preserve" text-anchor="start" x="528.38" y="-34.5" font-family="Helvetica,sans-Serif" font-size="10.00" fill="grey">syms</text>
</g>
<!-- Node5 -->
<g id="Node000005" class="node">
<title>Node5</title>
<g id="a_Node000005"><a xlink:href="structmrb__irep__debug__info.html" target="_top" xlink:title=" ">
<polygon fill="white" stroke="#bfbfbf" points="495.75,-118 389.75,-118 389.75,-98 495.75,-98 495.75,-118"/>
<text xml:space="preserve" text-anchor="middle" x="442.75" y="-104.5" font-family="Helvetica,sans-Serif" font-size="10.00">mrb_irep_debug_info</text>
</a>
</g>
</g>
<!-- Node5&#45;&gt;Node2 -->
<g id="edge5_Node000002_Node000005" class="edge">
<title>Node5&#45;&gt;Node2</title>
<g id="a_edge5_Node000002_Node000005"><a xlink:title=" ">
<path fill="none" stroke="#9a32cd" stroke-dasharray="5,2" d="M507.31,-99.2C526.66,-95.84 547.87,-91.47 567,-86 575.03,-83.7 583.56,-80.53 591.15,-77.44"/>
<polygon fill="#9a32cd" stroke="#9a32cd" points="506.94,-95.71 497.65,-100.81 508.09,-102.62 506.94,-95.71"/>
</a>
</g>
<text xml:space="preserve" text-anchor="start" x="516.75" y="-103" font-family="Helvetica,sans-Serif" font-size="10.00" fill="grey">debug_info</text>
</g>
<!-- Node6 -->
<g id="Node000006" class="node">
<title>Node6</title>
<g id="a_Node000006"><a xlink:href="structmrb__irep__debug__info__file.html" target="_top" xlink:title=" ">
<polygon fill="white" stroke="#bfbfbf" points="329.75,-118 205.75,-118 205.75,-98 329.75,-98 329.75,-118"/>
<text xml:space="preserve" text-anchor="middle" x="267.75" y="-104.5" font-family="Helvetica,sans-Serif" font-size="10.00">mrb_irep_debug_info_file</text>
</a>
</g>
</g>
<!-- Node6&#45;&gt;Node5 -->
<g id="edge6_Node000005_Node000006" class="edge">
<title>Node6&#45;&gt;Node5</title>
<g id="a_edge6_Node000005_Node000006"><a xlink:title=" ">
<path fill="none" stroke="#9a32cd" stroke-dasharray="5,2" d="M341.73,-108C357.72,-108 374.35,-108 389.34,-108"/>
<polygon fill="#9a32cd" stroke="#9a32cd" points="341.74,-104.5 331.74,-108 341.74,-111.5 341.74,-104.5"/>
</a>
</g>
<text xml:space="preserve" text-anchor="start" x="350.75" y="-113.5" font-family="Helvetica,sans-Serif" font-size="10.00" fill="grey">files</text>
</g>
<!-- Node7 -->
<g id="Node000007" class="node">
<title>Node7</title>
<g id="a_Node000007"><a xlink:href="structmrb__irep__debug__info__line.html" target="_top" xlink:title=" ">
<polygon fill="white" stroke="#bfbfbf" points="126.25,-118 0,-118 0,-98 126.25,-98 126.25,-118"/>
<text xml:space="preserve" text-anchor="middle" x="63.12" y="-104.5" font-family="Helvetica,sans-Serif" font-size="10.00">mrb_irep_debug_info_line</text>
</a>
</g>
</g>
<!-- Node7&#45;&gt;Node6 -->
<g id="edge7_Node000006_Node000007" class="edge">
<title>Node7&#45;&gt;Node6</title>
<g id="a_edge7_Node000006_Node000007"><a xlink:title=" ">
<path fill="none" stroke="#9a32cd" stroke-dasharray="5,2" d="M137.98,-108C160.18,-108 184.27,-108 205.55,-108"/>
<polygon fill="#9a32cd" stroke="#9a32cd" points="138.09,-104.5 128.09,-108 138.09,-111.5 138.09,-104.5"/>
</a>
</g>
<text xml:space="preserve" text-anchor="start" x="147.25" y="-113.5" font-family="Helvetica,sans-Serif" font-size="10.00" fill="grey">flat_map</text>
</g>
<!-- Node8 -->
<g id="Node000008" class="node">
<title>Node8</title>
<g id="a_Node000008"><a xlink:href="structmrb__value.html" target="_top" xlink:title=" ">
<polygon fill="white" stroke="#bfbfbf" points="646,-439 585,-439 585,-419 646,-419 646,-439"/>
<text xml:space="preserve" text-anchor="middle" x="615.5" y="-425.5" font-family="Helvetica,sans-Serif" font-size="10.00">mrb_value</text>
</a>
</g>
</g>
<!-- Node8&#45;&gt;Node1 -->
<g id="edge8_Node000001_Node000008" class="edge">
<title>Node8&#45;&gt;Node1</title>
<g id="a_edge8_Node000001_Node000008"><a xlink:title=" ">
<path fill="none" stroke="#9a32cd" stroke-dasharray="5,2" d="M619.47,-407.41C629.74,-337.22 666.44,-120 727.62,-120 727.62,-120 727.62,-120 1450.12,-120 1492.96,-120 1541.28,-125.9 1576.49,-131.29"/>
<polygon fill="#9a32cd" stroke="#9a32cd" points="616.02,-406.83 618.08,-417.22 622.95,-407.81 616.02,-406.83"/>
</a>
</g>
<text xml:space="preserve" text-anchor="start" x="1016.62" y="-125.5" font-family="Helvetica,sans-Serif" font-size="10.00" fill="grey">regs</text>
</g>
<!-- Node10 -->
<g id="Node000010" class="node">
<title>Node10</title>
<g id="a_Node000010"><a xlink:href="structmrb__callinfo.html" target="_top" xlink:title=" ">
<polygon fill="white" stroke="#bfbfbf" points="1483.38,-405 1414.88,-405 1414.88,-385 1483.38,-385 1483.38,-405"/>
<text xml:space="preserve" text-anchor="middle" x="1449.12" y="-391.5" font-family="Helvetica,sans-Serif" font-size="10.00">mrb_callinfo</text>
</a>
</g>
</g>
<!-- Node8&#45;&gt;Node10 -->
<g id="edge31_Node000010_Node000008" class="edge">
<title>Node8&#45;&gt;Node10</title>
<g id="a_edge31_Node000010_Node000008"><a xlink:title=" ">
<path fill="none" stroke="#9a32cd" stroke-dasharray="5,2" d="M644.97,-444.52C666.9,-455.02 698.32,-467 727.62,-467 727.62,-467 727.62,-467 1240.62,-467 1314.79,-467 1396.04,-425.44 1430.79,-405.47"/>
<polygon fill="#9a32cd" stroke="#9a32cd" points="646.58,-441.41 636.08,-440.06 643.45,-447.67 646.58,-441.41"/>
</a>
</g>
<text xml:space="preserve" text-anchor="start" x="905.12" y="-472.5" font-family="Helvetica,sans-Serif" font-size="10.00" fill="grey">stack</text>
</g>
<!-- Node8&#45;&gt;Node11 -->
<g id="edge13_Node000011_Node000008" class="edge">
<title>Node8&#45;&gt;Node11</title>
<g id="a_edge13_Node000011_Node000008"><a xlink:title=" ">
<path fill="none" stroke="#9a32cd" stroke-dasharray="5,2" d="M626.89,-408.39C635.64,-392 649.09,-368.93 664,-351 679.17,-332.75 700.23,-315.05 713.89,-304.34"/>
<polygon fill="#9a32cd" stroke="#9a32cd" points="623.82,-406.69 622.32,-417.18 630.03,-409.92 623.82,-406.69"/>
</a>
</g>
<text xml:space="preserve" text-anchor="start" x="667" y="-356.5" font-family="Helvetica,sans-Serif" font-size="10.00" fill="grey">func</text>
</g>
<!-- Node13 -->
<g id="Node000013" class="node">
<title>Node13</title>
<g id="a_Node000013"><a xlink:href="structiv__tbl.html" target="_top" xlink:title=" ">
<polygon fill="white" stroke="#bfbfbf" points="807.75,-437 768.5,-437 768.5,-417 807.75,-417 807.75,-437"/>
<text xml:space="preserve" text-anchor="middle" x="788.12" y="-423.5" font-family="Helvetica,sans-Serif" font-size="10.00">iv_tbl</text>
</a>
</g>
</g>
<!-- Node8&#45;&gt;Node13 -->
<g id="edge17_Node000013_Node000008" class="edge">
<title>Node8&#45;&gt;Node13</title>
<g id="a_edge17_Node000013_Node000008"><a xlink:title=" ">
<path fill="none" stroke="#9a32cd" stroke-dasharray="5,2" d="M657.56,-428.52C692.73,-428.11 741.77,-427.53 768.3,-427.22"/>
<polygon fill="#9a32cd" stroke="#9a32cd" points="657.69,-425.02 647.73,-428.63 657.77,-432.02 657.69,-425.02"/>
</a>
</g>
<text xml:space="preserve" text-anchor="start" x="670.75" y="-433.92" font-family="Helvetica,sans-Serif" font-size="10.00" fill="grey">ptr</text>
</g>
<!-- Node15 -->
<g id="Node000015" class="node">
<title>Node15</title>
<g id="a_Node000015"><a xlink:href="unionmt__ptr.html" target="_top" xlink:title=" ">
<polygon fill="white" stroke="#bfbfbf" points="869.5,-393 825.75,-393 825.75,-373 869.5,-373 869.5,-393"/>
<text xml:space="preserve" text-anchor="middle" x="847.62" y="-379.5" font-family="Helvetica,sans-Serif" font-size="10.00">mt_ptr</text>
</a>
</g>
</g>
<!-- Node8&#45;&gt;Node15 -->
<g id="edge21_Node000015_Node000008" class="edge">
<title>Node8&#45;&gt;Node15</title>
<g id="a_edge21_Node000015_Node000008"><a xlink:title=" ">
<path fill="none" stroke="#9a32cd" stroke-dasharray="5,2" d="M657.17,-417.22C672.61,-413.01 690.41,-408.45 706.75,-405 748.6,-396.17 798.18,-389.18 825.65,-385.61"/>
<polygon fill="#9a32cd" stroke="#9a32cd" points="656.55,-413.76 647.85,-419.81 658.43,-420.51 656.55,-413.76"/>
</a>
</g>
<text xml:space="preserve" text-anchor="start" x="719.25" y="-410.5" font-family="Helvetica,sans-Serif" font-size="10.00" fill="grey">func</text>
</g>
<!-- Node16 -->
<g id="Node000016" class="node">
<title>Node16</title>
<g id="a_Node000016"><a xlink:href="structREnv.html" target="_top" xlink:title=" ">
<polygon fill="white" stroke="#666666" points="1776.75,-461 1736,-461 1736,-441 1776.75,-441 1776.75,-461"/>
<text xml:space="preserve" text-anchor="middle" x="1756.38" y="-447.5" font-family="Helvetica,sans-Serif" font-size="10.00">REnv</text>
</a>
</g>
</g>
<!-- Node8&#45;&gt;Node16 -->
<g id="edge24_Node000016_Node000008" class="edge">
<title>Node8&#45;&gt;Node16</title>
<g id="a_edge24_Node000016_Node000008"><a xlink:title=" ">
<path fill="none" stroke="#9a32cd" stroke-dasharray="5,2" d="M631.43,-448.03C650.92,-470.54 687.34,-505 727.62,-505 727.62,-505 727.62,-505 1628.5,-505 1672.55,-505 1718.82,-477.1 1741.36,-461.41"/>
<polygon fill="#9a32cd" stroke="#9a32cd" points="634.19,-445.88 625.12,-440.41 628.8,-450.35 634.19,-445.88"/>
</a>
</g>
<text xml:space="preserve" text-anchor="start" x="1122.88" y="-510.5" font-family="Helvetica,sans-Serif" font-size="10.00" fill="grey">stack</text>
</g>
<!-- Node17 -->
<g id="Node000017" class="node">
<title>Node17</title>
<g id="a_Node000017"><a xlink:href="structmrb__context.html" target="_top" xlink:title=" ">
<polygon fill="white" stroke="#bfbfbf" points="1662.5,-561 1592.5,-561 1592.5,-541 1662.5,-541 1662.5,-561"/>
<text xml:space="preserve" text-anchor="middle" x="1627.5" y="-547.5" font-family="Helvetica,sans-Serif" font-size="10.00">mrb_context</text>
</a>
</g>
</g>
<!-- Node8&#45;&gt;Node17 -->
<g id="edge27_Node000017_Node000008" class="edge">
<title>Node8&#45;&gt;Node17</title>
<g id="a_edge27_Node000017_Node000008"><a xlink:title=" ">
<path fill="none" stroke="#9a32cd" stroke-dasharray="5,2" d="M623.4,-450.16C630.77,-470.03 644.16,-499.55 664,-519 686.6,-541.16 695.97,-551 727.62,-551 727.62,-551 727.62,-551 1450.12,-551 1499.42,-551 1556.47,-551 1592.03,-551"/>
<polygon fill="#9a32cd" stroke="#9a32cd" points="626.76,-449.18 620.16,-440.89 620.15,-451.49 626.76,-449.18"/>
</a>
</g>
<text xml:space="preserve" text-anchor="start" x="1011.38" y="-572.5" font-family="Helvetica,sans-Serif" font-size="10.00" fill="grey">stbase</text>
<text xml:space="preserve" text-anchor="start" x="1011.38" y="-556.5" font-family="Helvetica,sans-Serif" font-size="10.00" fill="grey">stend</text>
</g>
<!-- Node9 -->
<g id="Node000009" class="node">
<title>Node9</title>
<g id="a_Node000009"><a xlink:href="unionmrb__value__union.html" target="_top" xlink:title=" ">
<polygon fill="white" stroke="#bfbfbf" points="487.5,-439 398,-439 398,-419 487.5,-419 487.5,-439"/>
<text xml:space="preserve" text-anchor="middle" x="442.75" y="-425.5" font-family="Helvetica,sans-Serif" font-size="10.00">mrb_value_union</text>
</a>
</g>
</g>
<!-- Node9&#45;&gt;Node8 -->
<g id="edge9_Node000008_Node000009" class="edge">
<title>Node9&#45;&gt;Node8</title>
<g id="a_edge9_Node000008_Node000009"><a xlink:title=" ">
<path fill="none" stroke="#9a32cd" stroke-dasharray="5,2" d="M499.15,-429C527.58,-429 561.1,-429 584.65,-429"/>
<polygon fill="#9a32cd" stroke="#9a32cd" points="499.24,-425.5 489.24,-429 499.24,-432.5 499.24,-425.5"/>
</a>
</g>
<text xml:space="preserve" text-anchor="start" x="528.75" y="-434.5" font-family="Helvetica,sans-Serif" font-size="10.00" fill="grey">value</text>
</g>
<!-- Node10&#45;&gt;Node1 -->
<g id="edge10_Node000001_Node000010" class="edge">
<title>Node10&#45;&gt;Node1</title>
<g id="a_edge10_Node000001_Node000010"><a xlink:title=" ">
<path fill="none" stroke="#9a32cd" stroke-dasharray="5,2" d="M1463.67,-375.42C1498.9,-324.48 1592.54,-189.1 1619.28,-150.44"/>
<polygon fill="#9a32cd" stroke="#9a32cd" points="1460.93,-373.23 1458.12,-383.44 1466.69,-377.21 1460.93,-373.23"/>
</a>
</g>
<text xml:space="preserve" text-anchor="start" x="1531" y="-288.27" font-family="Helvetica,sans-Serif" font-size="10.00" fill="grey">prvci</text>
</g>
<!-- Node10&#45;&gt;Node17 -->
<g id="edge28_Node000017_Node000010" class="edge">
<title>Node10&#45;&gt;Node17</title>
<g id="a_edge28_Node000017_Node000010"><a xlink:title=" ">
<path fill="none" stroke="#9a32cd" stroke-dasharray="5,2" d="M1471.29,-412.35C1493.39,-430.6 1528.93,-460.33 1558.75,-487 1579.49,-505.56 1602.95,-528.07 1616.1,-540.84"/>
<polygon fill="#9a32cd" stroke="#9a32cd" points="1473.81,-409.89 1463.86,-406.23 1469.36,-415.29 1473.81,-409.89"/>
</a>
</g>
<text xml:space="preserve" text-anchor="start" x="1527.25" y="-524.5" font-family="Helvetica,sans-Serif" font-size="10.00" fill="grey">ci</text>
<text xml:space="preserve" text-anchor="start" x="1527.25" y="-508.5" font-family="Helvetica,sans-Serif" font-size="10.00" fill="grey">cibase</text>
<text xml:space="preserve" text-anchor="start" x="1527.25" y="-492.5" font-family="Helvetica,sans-Serif" font-size="10.00" fill="grey">ciend</text>
</g>
<!-- Node11&#45;&gt;Node10 -->
<g id="edge11_Node000010_Node000011" class="edge">
<title>Node11&#45;&gt;Node10</title>
<g id="a_edge11_Node000010_Node000011"><a xlink:title=" ">
<path fill="none" stroke="#9a32cd" stroke-dasharray="5,2" d="M762.13,-291.44C785.59,-289.81 818.05,-288 846.62,-288 846.62,-288 846.62,-288 1240.62,-288 1324.53,-288 1408.41,-357.96 1437.45,-384.74"/>
<polygon fill="#9a32cd" stroke="#9a32cd" points="761.97,-287.94 752.25,-292.15 762.48,-294.92 761.97,-287.94"/>
</a>
</g>
<text xml:space="preserve" text-anchor="start" x="1016.62" y="-309.5" font-family="Helvetica,sans-Serif" font-size="10.00" fill="grey">blk</text>
<text xml:space="preserve" text-anchor="start" x="1016.62" y="-293.5" font-family="Helvetica,sans-Serif" font-size="10.00" fill="grey">proc</text>
</g>
<!-- Node11&#45;&gt;Node11 -->
<g id="edge14_Node000011_Node000011" class="edge">
<title>Node11&#45;&gt;Node11</title>
<g id="a_edge14_Node000011_Node000011"><a xlink:title=" ">
<path fill="none" stroke="#9a32cd" stroke-dasharray="5,2" d="M719.5,-315.77C720.76,-319.45 723.8,-322 728.62,-322 737.71,-322 740.47,-312.98 736.93,-304.34"/>
<polygon fill="#9a32cd" stroke="#9a32cd" points="722.98,-316.07 720.21,-305.85 716,-315.57 722.98,-316.07"/>
</a>
</g>
<text xml:space="preserve" text-anchor="start" x="716.62" y="-327.5" font-family="Helvetica,sans-Serif" font-size="10.00" fill="grey">upper</text>
</g>
<!-- Node11&#45;&gt;Node15 -->
<g id="edge20_Node000015_Node000011" class="edge">
<title>Node11&#45;&gt;Node15</title>
<g id="a_edge20_Node000015_Node000011"><a xlink:title=" ">
<path fill="none" stroke="#9a32cd" stroke-dasharray="5,2" d="M748.66,-311.92C754.8,-317.34 761.75,-323.14 768.5,-328 784.9,-339.82 791.17,-339.43 807.75,-351 817.36,-357.7 827.56,-366.16 835.1,-372.69"/>
<polygon fill="#9a32cd" stroke="#9a32cd" points="751.27,-309.55 741.51,-305.42 746.56,-314.74 751.27,-309.55"/>
</a>
</g>
<text xml:space="preserve" text-anchor="start" x="778.75" y="-356.5" font-family="Helvetica,sans-Serif" font-size="10.00" fill="grey">proc</text>
</g>
<!-- Node12 -->
<g id="Node000012" class="node">
<title>Node12</title>
<g id="a_Node000012"><a xlink:href="structRClass.html" target="_top" xlink:title=" ">
<polygon fill="white" stroke="#666666" points="1264.12,-402 1215.12,-402 1215.12,-382 1264.12,-382 1264.12,-402"/>
<text xml:space="preserve" text-anchor="middle" x="1239.62" y="-388.5" font-family="Helvetica,sans-Serif" font-size="10.00">RClass</text>
</a>
</g>
</g>
<!-- Node12&#45;&gt;Node10 -->
<g id="edge33_Node000010_Node000012" class="edge">
<title>Node12&#45;&gt;Node10</title>
<g id="a_edge33_Node000010_Node000012"><a xlink:title=" ">
<path fill="none" stroke="#9a32cd" stroke-dasharray="5,2" d="M1275.92,-392.51C1314.74,-393.07 1376.64,-393.97 1414.7,-394.52"/>
<polygon fill="#9a32cd" stroke="#9a32cd" points="1275.99,-389.01 1265.94,-392.37 1275.89,-396.01 1275.99,-389.01"/>
</a>
</g>
<text xml:space="preserve" text-anchor="start" x="1317.75" y="-399.36" font-family="Helvetica,sans-Serif" font-size="10.00" fill="grey">target_class</text>
</g>
<!-- Node12&#45;&gt;Node11 -->
<g id="edge15_Node000011_Node000012" class="edge">
<title>Node12&#45;&gt;Node11</title>
<g id="a_edge15_Node000011_Node000012"><a xlink:title=" ">
<path fill="none" stroke="#9a32cd" stroke-dasharray="5,2" d="M1203.53,-385.45C1125.34,-370.83 930.92,-334.26 768.5,-302 762.69,-300.85 756.39,-299.56 750.6,-298.37"/>
<polygon fill="#9a32cd" stroke="#9a32cd" points="1202.67,-388.85 1213.14,-387.25 1203.95,-381.97 1202.67,-388.85"/>
</a>
</g>
<text xml:space="preserve" text-anchor="start" x="890.5" y="-341.43" font-family="Helvetica,sans-Serif" font-size="10.00" fill="grey">target_class</text>
</g>
<!-- Node12&#45;&gt;Node12 -->
<g id="edge22_Node000012_Node000012" class="edge">
<title>Node12&#45;&gt;Node12</title>
<g id="a_edge22_Node000012_Node000012"><a xlink:title=" ">
<path fill="none" stroke="#9a32cd" stroke-dasharray="5,2" d="M1221.11,-413.44C1223.5,-417.3 1229.67,-420 1239.62,-420 1257.83,-420 1263.38,-410.98 1256.27,-402.34"/>
<polygon fill="#9a32cd" stroke="#9a32cd" points="1224.52,-414.27 1222.73,-403.83 1217.62,-413.11 1224.52,-414.27"/>
</a>
</g>
<text xml:space="preserve" text-anchor="start" x="1227.62" y="-425.5" font-family="Helvetica,sans-Serif" font-size="10.00" fill="grey">super</text>
</g>
<!-- Node13&#45;&gt;Node12 -->
<g id="edge16_Node000012_Node000013" class="edge">
<title>Node13&#45;&gt;Node12</title>
<g id="a_edge16_Node000012_Node000013"><a xlink:title=" ">
<path fill="none" stroke="#9a32cd" stroke-dasharray="5,2" d="M819.44,-426.66C896.47,-425.66 1098.25,-422.13 1164.5,-412 1181.63,-409.38 1200.48,-404.26 1214.88,-399.86"/>
<polygon fill="#9a32cd" stroke="#9a32cd" points="819.66,-423.16 809.71,-426.78 819.75,-430.16 819.66,-423.16"/>
</a>
</g>
<text xml:space="preserve" text-anchor="start" x="913.38" y="-431.02" font-family="Helvetica,sans-Serif" font-size="10.00" fill="grey">iv</text>
</g>
<!-- Node14 -->
<g id="Node000014" class="node">
<title>Node14</title>
<g id="a_Node000014"><a xlink:href="structmt__tbl.html" target="_top" xlink:title=" ">
<polygon fill="white" stroke="#bfbfbf" points="1047.5,-398 1004.5,-398 1004.5,-378 1047.5,-378 1047.5,-398"/>
<text xml:space="preserve" text-anchor="middle" x="1026" y="-384.5" font-family="Helvetica,sans-Serif" font-size="10.00">mt_tbl</text>
</a>
</g>
</g>
<!-- Node14&#45;&gt;Node12 -->
<g id="edge18_Node000012_Node000014" class="edge">
<title>Node14&#45;&gt;Node12</title>
<g id="a_edge18_Node000012_Node000014"><a xlink:title=" ">
<path fill="none" stroke="#9a32cd" stroke-dasharray="5,2" d="M1059.08,-388.61C1101.82,-389.41 1176.46,-390.83 1214.64,-391.55"/>
<polygon fill="#9a32cd" stroke="#9a32cd" points="1059.25,-385.11 1049.19,-388.42 1059.12,-392.11 1059.25,-385.11"/>
</a>
</g>
<text xml:space="preserve" text-anchor="start" x="1129.25" y="-396.09" font-family="Helvetica,sans-Serif" font-size="10.00" fill="grey">mt</text>
</g>
<!-- Node15&#45;&gt;Node14 -->
<g id="edge19_Node000014_Node000015" class="edge">
<title>Node15&#45;&gt;Node14</title>
<g id="a_edge19_Node000014_Node000015"><a xlink:title=" ">
<path fill="none" stroke="#9a32cd" stroke-dasharray="5,2" d="M881.22,-383.92C917.14,-384.94 973.85,-386.55 1004.2,-387.41"/>
<polygon fill="#9a32cd" stroke="#9a32cd" points="881.51,-380.43 871.41,-383.65 881.31,-387.43 881.51,-380.43"/>
</a>
</g>
<text xml:space="preserve" text-anchor="start" x="911.5" y="-391.15" font-family="Helvetica,sans-Serif" font-size="10.00" fill="grey">ptr</text>
</g>
<!-- Node16&#45;&gt;Node10 -->
<g id="edge32_Node000010_Node000016" class="edge">
<title>Node16&#45;&gt;Node10</title>
<g id="a_edge32_Node000010_Node000016"><a xlink:title=" ">
<path fill="none" stroke="#9a32cd" stroke-dasharray="5,2" d="M1724.36,-445.31C1666.65,-434.72 1543.24,-412.08 1483.67,-401.15"/>
<polygon fill="#9a32cd" stroke="#9a32cd" points="1723.68,-448.74 1734.14,-447.1 1724.94,-441.86 1723.68,-448.74"/>
</a>
</g>
<text xml:space="preserve" text-anchor="start" x="1619.62" y="-441.98" font-family="Helvetica,sans-Serif" font-size="10.00" fill="grey">env</text>
</g>
<!-- Node16&#45;&gt;Node11 -->
<g id="edge23_Node000011_Node000016" class="edge">
<title>Node16&#45;&gt;Node11</title>
<g id="a_edge23_Node000011_Node000016"><a xlink:title=" ">
<path fill="none" stroke="#9a32cd" stroke-dasharray="5,2" d="M1752.64,-429.47C1744.55,-376.1 1715.54,-242 1628.5,-242 846.62,-242 846.62,-242 846.62,-242 805.95,-242 763.64,-268.57 742.82,-283.73"/>
<polygon fill="#9a32cd" stroke="#9a32cd" points="1749.14,-429.72 1754,-439.14 1756.08,-428.75 1749.14,-429.72"/>
</a>
</g>
<text xml:space="preserve" text-anchor="start" x="1231.75" y="-247.5" font-family="Helvetica,sans-Serif" font-size="10.00" fill="grey">env</text>
</g>
<!-- Node17&#45;&gt;Node16 -->
<g id="edge25_Node000016_Node000017" class="edge">
<title>Node17&#45;&gt;Node16</title>
<g id="a_edge25_Node000016_Node000017"><a xlink:title=" ">
<path fill="none" stroke="#9a32cd" stroke-dasharray="5,2" d="M1673.58,-539.14C1688.14,-533.76 1703.64,-526.25 1715.75,-516 1733.71,-500.8 1745.85,-475.31 1751.58,-461.19"/>
<polygon fill="#9a32cd" stroke="#9a32cd" points="1672.47,-535.82 1664.13,-542.36 1674.73,-542.45 1672.47,-535.82"/>
</a>
</g>
<text xml:space="preserve" text-anchor="start" x="1699.25" y="-534.29" font-family="Helvetica,sans-Serif" font-size="10.00" fill="grey">cxt</text>
</g>
<!-- Node17&#45;&gt;Node17 -->
<g id="edge26_Node000017_Node000017" class="edge">
<title>Node17&#45;&gt;Node17</title>
<g id="a_edge26_Node000017_Node000017"><a xlink:title=" ">
<path fill="none" stroke="#9a32cd" stroke-dasharray="5,2" d="M1613.79,-572.77C1615.68,-576.45 1620.25,-579 1627.5,-579 1641.15,-579 1645.3,-569.98 1639.97,-561.34"/>
<polygon fill="#9a32cd" stroke="#9a32cd" points="1617.26,-573.16 1614.86,-562.84 1610.3,-572.41 1617.26,-573.16"/>
</a>
</g>
<text xml:space="preserve" text-anchor="start" x="1618.12" y="-584.5" font-family="Helvetica,sans-Serif" font-size="10.00" fill="grey">prev</text>
</g>
<!-- Node18 -->
<g id="Node000018" class="node">
<title>Node18</title>
<g id="a_Node000018"><a xlink:href="structRFiber.html" target="_top" xlink:title=" ">
<polygon fill="white" stroke="#bfbfbf" points="1779,-609 1733.75,-609 1733.75,-589 1779,-589 1779,-609"/>
<text xml:space="preserve" text-anchor="middle" x="1756.38" y="-595.5" font-family="Helvetica,sans-Serif" font-size="10.00">RFiber</text>
</a>
</g>
</g>
<!-- Node17&#45;&gt;Node18 -->
<g id="edge30_Node000018_Node000017" class="edge">
<title>Node17&#45;&gt;Node18</title>
<g id="a_edge30_Node000018_Node000017"><a xlink:title=" ">
<path fill="none" stroke="#9a32cd" stroke-dasharray="5,2" d="M1673.48,-561.6C1687.29,-565.46 1702.37,-570.3 1715.75,-576 1723.95,-579.49 1732.56,-584.33 1739.65,-588.67"/>
<polygon fill="#9a32cd" stroke="#9a32cd" points="1674.76,-558.32 1664.19,-559.11 1672.95,-565.08 1674.76,-558.32"/>
</a>
</g>
<text xml:space="preserve" text-anchor="start" x="1699.25" y="-581.5" font-family="Helvetica,sans-Serif" font-size="10.00" fill="grey">cxt</text>
</g>
<!-- Node18&#45;&gt;Node17 -->
<g id="edge29_Node000017_Node000018" class="edge">
<title>Node18&#45;&gt;Node17</title>
<g id="a_edge29_Node000017_Node000018"><a xlink:title=" ">
<path fill="none" stroke="#9a32cd" stroke-dasharray="5,2" d="M1721.74,-601.82C1713.26,-601.62 1704.29,-600.59 1696.25,-598 1673.36,-590.62 1651.34,-572.69 1638.9,-561.23"/>
<polygon fill="#9a32cd" stroke="#9a32cd" points="1721.8,-605.32 1731.74,-601.66 1721.69,-598.32 1721.8,-605.32"/>
</a>
</g>
<text xml:space="preserve" text-anchor="start" x="1700.75" y="-607" font-family="Helvetica,sans-Serif" font-size="10.00" fill="grey">fib</text>
</g>
<!-- Node19 -->
<g id="Node000019" class="node">
<title>Node19</title>
<g id="a_Node000019"><a xlink:href="structmrb__debug__breakpoint.html" target="_top" xlink:title=" ">
<polygon fill="white" stroke="#bfbfbf" points="1506.25,-171 1392,-171 1392,-151 1506.25,-151 1506.25,-171"/>
<text xml:space="preserve" text-anchor="middle" x="1449.12" y="-157.5" font-family="Helvetica,sans-Serif" font-size="10.00">mrb_debug_breakpoint</text>
</a>
</g>
</g>
<!-- Node19&#45;&gt;Node1 -->
<g id="edge34_Node000001_Node000019" class="edge">
<title>Node19&#45;&gt;Node1</title>
<g id="a_edge34_Node000001_Node000019"><a xlink:title=" ">
<path fill="none" stroke="#9a32cd" stroke-dasharray="5,2" d="M1517.71,-152.95C1537.22,-150.63 1558.16,-148.14 1576.4,-145.96"/>
<polygon fill="#9a32cd" stroke="#9a32cd" points="1517.44,-149.46 1507.92,-154.12 1518.26,-156.41 1517.44,-149.46"/>
</a>
</g>
<text xml:space="preserve" text-anchor="start" x="1536.25" y="-157.26" font-family="Helvetica,sans-Serif" font-size="10.00" fill="grey">bp</text>
</g>
<!-- Node20 -->
<g id="Node000020" class="node">
<title>Node20</title>
<g id="a_Node000020"><a xlink:href="unionmrb__debug__breakpoint_1_1point.html" target="_top" xlink:title=" ">
<polygon fill="white" stroke="#bfbfbf" points="1296.75,-180 1182.5,-180 1182.5,-148 1296.75,-148 1296.75,-180"/>
<text xml:space="preserve" text-anchor="start" x="1190.5" y="-166.5" font-family="Helvetica,sans-Serif" font-size="10.00">mrb_debug_breakpoint</text>
<text xml:space="preserve" text-anchor="middle" x="1239.62" y="-154.5" font-family="Helvetica,sans-Serif" font-size="10.00">::point</text>
</a>
</g>
</g>
<!-- Node20&#45;&gt;Node19 -->
<g id="edge35_Node000019_Node000020" class="edge">
<title>Node20&#45;&gt;Node19</title>
<g id="a_edge35_Node000019_Node000020"><a xlink:title=" ">
<path fill="none" stroke="#9a32cd" stroke-dasharray="5,2" d="M1308.35,-163.02C1335.32,-162.63 1365.98,-162.19 1391.71,-161.82"/>
<polygon fill="#9a32cd" stroke="#9a32cd" points="1308.51,-159.52 1298.56,-163.16 1308.61,-166.52 1308.51,-159.52"/>
</a>
</g>
<text xml:space="preserve" text-anchor="start" x="1333.88" y="-168.36" font-family="Helvetica,sans-Serif" font-size="10.00" fill="grey">point</text>
</g>
<!-- Node21 -->
<g id="Node000021" class="node">
<title>Node21</title>
<g id="a_Node000021"><a xlink:href="structmrb__debug__linepoint.html" target="_top" xlink:title=" ">
<polygon fill="white" stroke="#bfbfbf" points="1078.62,-214 973.38,-214 973.38,-194 1078.62,-194 1078.62,-214"/>
<text xml:space="preserve" text-anchor="middle" x="1026" y="-200.5" font-family="Helvetica,sans-Serif" font-size="10.00">mrb_debug_linepoint</text>
</a>
</g>
</g>
<!-- Node21&#45;&gt;Node20 -->
<g id="edge36_Node000020_Node000021" class="edge">
<title>Node21&#45;&gt;Node20</title>
<g id="a_edge36_Node000020_Node000021"><a xlink:title=" ">
<path fill="none" stroke="#9a32cd" stroke-dasharray="5,2" d="M1090.28,-194.95C1113.67,-191.33 1140.36,-186.85 1164.5,-182 1170.21,-180.85 1176.15,-179.57 1182.07,-178.22"/>
<polygon fill="#9a32cd" stroke="#9a32cd" points="1089.94,-191.47 1080.58,-196.44 1090.99,-198.39 1089.94,-191.47"/>
</a>
</g>
<text xml:space="preserve" text-anchor="start" x="1116.88" y="-197.63" font-family="Helvetica,sans-Serif" font-size="10.00" fill="grey">linepoint</text>
</g>
<!-- Node22 -->
<g id="Node000022" class="node">
<title>Node22</title>
<g id="a_Node000022"><a xlink:href="structmrb__debug__methodpoint.html" target="_top" xlink:title=" ">
<polygon fill="white" stroke="#bfbfbf" points="1087.25,-176 964.75,-176 964.75,-156 1087.25,-156 1087.25,-176"/>
<text xml:space="preserve" text-anchor="middle" x="1026" y="-162.5" font-family="Helvetica,sans-Serif" font-size="10.00">mrb_debug_methodpoint</text>
</a>
</g>
</g>
<!-- Node22&#45;&gt;Node20 -->
<g id="edge37_Node000020_Node000022" class="edge">
<title>Node22&#45;&gt;Node20</title>
<g id="a_edge37_Node000020_Node000022"><a xlink:title=" ">
<path fill="none" stroke="#9a32cd" stroke-dasharray="5,2" d="M1099.02,-164.09C1101.12,-164.06 1103.2,-164.03 1105.25,-164 1130.49,-163.68 1158.41,-163.63 1182.16,-163.68"/>
<polygon fill="#9a32cd" stroke="#9a32cd" points="1099.11,-160.59 1089.17,-164.27 1099.23,-167.59 1099.11,-160.59"/>
</a>
</g>
<text xml:space="preserve" text-anchor="start" x="1108.25" y="-169.5" font-family="Helvetica,sans-Serif" font-size="10.00" fill="grey">methodpoint</text>
</g>
</g>
</svg>
