<?xml version="1.0" encoding="UTF-8" standalone="no"?>
<!DOCTYPE svg PUBLIC "-//W3C//DTD SVG 1.1//EN"
 "http://www.w3.org/Graphics/SVG/1.1/DTD/svg11.dtd">
<!-- Generated by graphviz version 14.0.5 (0)
 -->
<!-- Title: mrb_context Pages: 1 -->
<svg width="707pt" height="696pt"
 viewBox="0.00 0.00 707.00 696.00" xmlns="http://www.w3.org/2000/svg" xmlns:xlink="http://www.w3.org/1999/xlink">
<g id="graph0" class="graph" transform="scale(1 1) rotate(0) translate(4 692)">
<title>mrb_context</title>
<!-- Node1 -->
<g id="Node000001" class="node">
<title>Node1</title>
<g id="a_Node000001"><a xlink:title=" ">
<polygon fill="#999999" stroke="#666666" points="624.12,-524 554.12,-524 554.12,-504 624.12,-504 624.12,-524"/>
<text xml:space="preserve" text-anchor="middle" x="589.12" y="-510.5" font-family="Helvetica,sans-Serif" font-size="10.00">mrb_context</text>
</a>
</g>
</g>
<!-- Node1&#45;&gt;Node1 -->
<g id="edge1_Node000001_Node000001" class="edge">
<title>Node1&#45;&gt;Node1</title>
<g id="a_edge1_Node000001_Node000001"><a xlink:title=" ">
<path fill="none" stroke="#9a32cd" stroke-dasharray="5,2" d="M635.4,-520.67C639.53,-519.27 642.12,-517.05 642.12,-514 642.12,-508.73 634.36,-505.93 624.29,-505.6"/>
<polygon fill="#9a32cd" stroke="#9a32cd" points="635.13,-517.17 625.79,-522.17 636.21,-524.08 635.13,-517.17"/>
</a>
</g>
<text xml:space="preserve" text-anchor="start" x="645.12" y="-510.5" font-family="Helvetica,sans-Serif" font-size="10.00" fill="grey">prev</text>
</g>
<!-- Node16 -->
<g id="Node000016" class="node">
<title>Node16</title>
<g id="a_Node000016"><a xlink:href="structREnv.html" target="_top" xlink:title=" ">
<polygon fill="white" stroke="#666666" points="487.5,-434 446.75,-434 446.75,-414 487.5,-414 487.5,-434"/>
<text xml:space="preserve" text-anchor="middle" x="467.12" y="-420.5" font-family="Helvetica,sans-Serif" font-size="10.00">REnv</text>
</a>
</g>
</g>
<!-- Node1&#45;&gt;Node16 -->
<g id="edge25_Node000016_Node000001" class="edge">
<title>Node1&#45;&gt;Node16</title>
<g id="a_edge25_Node000016_Node000001"><a xlink:title=" ">
<path fill="none" stroke="#9a32cd" stroke-dasharray="5,2" d="M566.84,-496.93C541.44,-478.6 500.76,-449.26 480.09,-434.35"/>
<polygon fill="#9a32cd" stroke="#9a32cd" points="564.68,-499.69 574.84,-502.7 568.78,-494.01 564.68,-499.69"/>
</a>
</g>
<text xml:space="preserve" text-anchor="start" x="552.66" y="-465.5" font-family="Helvetica,sans-Serif" font-size="10.00" fill="grey">cxt</text>
</g>
<!-- Node17 -->
<g id="Node000017" class="node">
<title>Node17</title>
<g id="a_Node000017"><a xlink:href="structRFiber.html" target="_top" xlink:title=" ">
<polygon fill="white" stroke="#bfbfbf" points="623.75,-434 578.5,-434 578.5,-414 623.75,-414 623.75,-434"/>
<text xml:space="preserve" text-anchor="middle" x="601.12" y="-420.5" font-family="Helvetica,sans-Serif" font-size="10.00">RFiber</text>
</a>
</g>
</g>
<!-- Node1&#45;&gt;Node17 -->
<g id="edge30_Node000017_Node000001" class="edge">
<title>Node1&#45;&gt;Node17</title>
<g id="a_edge30_Node000017_Node000001"><a xlink:title=" ">
<path fill="none" stroke="#9a32cd" stroke-dasharray="5,2" d="M585.43,-492.69C583.95,-480.68 583.29,-465.27 586.62,-452 588.23,-445.6 591.69,-439.07 594.82,-434.03"/>
<polygon fill="#9a32cd" stroke="#9a32cd" points="581.92,-492.89 586.9,-502.24 588.84,-491.83 581.92,-492.89"/>
</a>
</g>
<text xml:space="preserve" text-anchor="start" x="589.62" y="-465.5" font-family="Helvetica,sans-Serif" font-size="10.00" fill="grey">cxt</text>
</g>
<!-- Node2 -->
<g id="Node000002" class="node">
<title>Node2</title>
<g id="a_Node000002"><a xlink:href="structmrb__value.html" target="_top" xlink:title=" ">
<polygon fill="white" stroke="#bfbfbf" points="474.62,-614 413.62,-614 413.62,-594 474.62,-594 474.62,-614"/>
<text xml:space="preserve" text-anchor="middle" x="444.12" y="-600.5" font-family="Helvetica,sans-Serif" font-size="10.00">mrb_value</text>
</a>
</g>
</g>
<!-- Node2&#45;&gt;Node1 -->
<g id="edge2_Node000001_Node000002" class="edge">
<title>Node2&#45;&gt;Node1</title>
<g id="a_edge2_Node000001_Node000002"><a xlink:title=" ">
<path fill="none" stroke="#9a32cd" stroke-dasharray="5,2" d="M485.51,-593.63C499.34,-589.46 514.45,-583.7 527.12,-576 550.36,-561.89 571.57,-537.46 582.12,-524.21"/>
<polygon fill="#9a32cd" stroke="#9a32cd" points="484.9,-590.17 476.22,-596.24 486.79,-596.91 484.9,-590.17"/>
</a>
</g>
<text xml:space="preserve" text-anchor="start" x="569.25" y="-563.5" font-family="Helvetica,sans-Serif" font-size="10.00" fill="grey">stbase</text>
<text xml:space="preserve" text-anchor="start" x="569.25" y="-547.5" font-family="Helvetica,sans-Serif" font-size="10.00" fill="grey">stend</text>
</g>
<!-- Node4 -->
<g id="Node000004" class="node">
<title>Node4</title>
<g id="a_Node000004"><a xlink:href="structmrb__callinfo.html" target="_top" xlink:title=" ">
<polygon fill="white" stroke="#bfbfbf" points="511.38,-20 442.88,-20 442.88,0 511.38,0 511.38,-20"/>
<text xml:space="preserve" text-anchor="middle" x="477.12" y="-6.5" font-family="Helvetica,sans-Serif" font-size="10.00">mrb_callinfo</text>
</a>
</g>
</g>
<!-- Node2&#45;&gt;Node4 -->
<g id="edge26_Node000004_Node000002" class="edge">
<title>Node2&#45;&gt;Node4</title>
<g id="a_edge26_Node000004_Node000002"><a xlink:title=" ">
<path fill="none" stroke="#9a32cd" stroke-dasharray="5,2" d="M465.66,-585.86C468.5,-582.83 471.11,-579.51 473.12,-576 515.7,-501.72 515.12,-473.62 515.12,-388 515.12,-388 515.12,-388 515.12,-83 515.12,-58.12 497.16,-33.42 485.94,-20.41"/>
<polygon fill="#9a32cd" stroke="#9a32cd" points="463.43,-583.16 458.5,-592.54 468.2,-588.28 463.43,-583.16"/>
</a>
</g>
<text xml:space="preserve" text-anchor="start" x="518.12" y="-309.5" font-family="Helvetica,sans-Serif" font-size="10.00" fill="grey">stack</text>
</g>
<!-- Node5 -->
<g id="Node000005" class="node">
<title>Node5</title>
<g id="a_Node000005"><a xlink:href="structRProc.html" target="_top" xlink:title=" ">
<polygon fill="white" stroke="#bfbfbf" points="290,-360 246.25,-360 246.25,-340 290,-340 290,-360"/>
<text xml:space="preserve" text-anchor="middle" x="268.12" y="-346.5" font-family="Helvetica,sans-Serif" font-size="10.00">RProc</text>
</a>
</g>
</g>
<!-- Node2&#45;&gt;Node5 -->
<g id="edge13_Node000005_Node000002" class="edge">
<title>Node2&#45;&gt;Node5</title>
<g id="a_edge13_Node000005_Node000002"><a xlink:title=" ">
<path fill="none" stroke="#9a32cd" stroke-dasharray="5,2" d="M402.3,-599C384.94,-595.4 365.72,-588.65 352.12,-576 318.32,-544.54 280.13,-399.08 270.45,-360.44"/>
<polygon fill="#9a32cd" stroke="#9a32cd" points="401.41,-602.39 411.87,-600.67 402.62,-595.5 401.41,-602.39"/>
</a>
</g>
<text xml:space="preserve" text-anchor="start" x="310.33" y="-465.5" font-family="Helvetica,sans-Serif" font-size="10.00" fill="grey">func</text>
</g>
<!-- Node13 -->
<g id="Node000013" class="node">
<title>Node13</title>
<g id="a_Node000013"><a xlink:href="structiv__tbl.html" target="_top" xlink:title=" ">
<polygon fill="white" stroke="#bfbfbf" points="481.75,-479 442.5,-479 442.5,-459 481.75,-459 481.75,-479"/>
<text xml:space="preserve" text-anchor="middle" x="462.12" y="-465.5" font-family="Helvetica,sans-Serif" font-size="10.00">iv_tbl</text>
</a>
</g>
</g>
<!-- Node2&#45;&gt;Node13 -->
<g id="edge17_Node000013_Node000002" class="edge">
<title>Node2&#45;&gt;Node13</title>
<g id="a_edge17_Node000013_Node000002"><a xlink:title=" ">
<path fill="none" stroke="#9a32cd" stroke-dasharray="5,2" d="M446.89,-582.56C450.86,-553.24 458.01,-500.43 460.88,-479.21"/>
<polygon fill="#9a32cd" stroke="#9a32cd" points="443.44,-581.98 445.57,-592.36 450.37,-582.92 443.44,-581.98"/>
</a>
</g>
<text xml:space="preserve" text-anchor="start" x="455.35" y="-555.5" font-family="Helvetica,sans-Serif" font-size="10.00" fill="grey">ptr</text>
</g>
<!-- Node15 -->
<g id="Node000015" class="node">
<title>Node15</title>
<g id="a_Node000015"><a xlink:href="unionmt__ptr.html" target="_top" xlink:title=" ">
<polygon fill="white" stroke="#bfbfbf" points="388,-271 344.25,-271 344.25,-251 388,-251 388,-271"/>
<text xml:space="preserve" text-anchor="middle" x="366.12" y="-257.5" font-family="Helvetica,sans-Serif" font-size="10.00">mt_ptr</text>
</a>
</g>
</g>
<!-- Node2&#45;&gt;Node15 -->
<g id="edge21_Node000015_Node000002" class="edge">
<title>Node2&#45;&gt;Node15</title>
<g id="a_edge21_Node000015_Node000002"><a xlink:title=" ">
<path fill="none" stroke="#9a32cd" stroke-dasharray="5,2" d="M417.31,-587.51C394.74,-572.25 366.12,-546.65 366.12,-515 366.12,-515 366.12,-515 366.12,-349 366.12,-320.76 366.12,-287.35 366.12,-271.4"/>
<polygon fill="#9a32cd" stroke="#9a32cd" points="415.23,-590.33 425.54,-592.77 419,-584.44 415.23,-590.33"/>
</a>
</g>
<text xml:space="preserve" text-anchor="start" x="369.12" y="-420.5" font-family="Helvetica,sans-Serif" font-size="10.00" fill="grey">func</text>
</g>
<!-- Node2&#45;&gt;Node16 -->
<g id="edge24_Node000016_Node000002" class="edge">
<title>Node2&#45;&gt;Node16</title>
<g id="a_edge24_Node000016_Node000002"><a xlink:title=" ">
<path fill="none" stroke="#9a32cd" stroke-dasharray="5,2" d="M435.34,-583.11C427.58,-563.28 417.95,-531.86 421.12,-504 423.81,-480.43 420.46,-472.05 433.12,-452 437.55,-444.99 444.45,-439.02 450.88,-434.49"/>
<polygon fill="#9a32cd" stroke="#9a32cd" points="432.04,-584.28 439.11,-592.17 438.5,-581.6 432.04,-584.28"/>
</a>
</g>
<text xml:space="preserve" text-anchor="start" x="424.12" y="-510.5" font-family="Helvetica,sans-Serif" font-size="10.00" fill="grey">stack</text>
</g>
<!-- Node3 -->
<g id="Node000003" class="node">
<title>Node3</title>
<g id="a_Node000003"><a xlink:href="unionmrb__value__union.html" target="_top" xlink:title=" ">
<polygon fill="white" stroke="#bfbfbf" points="488.88,-688 399.38,-688 399.38,-668 488.88,-668 488.88,-688"/>
<text xml:space="preserve" text-anchor="middle" x="444.12" y="-674.5" font-family="Helvetica,sans-Serif" font-size="10.00">mrb_value_union</text>
</a>
</g>
</g>
<!-- Node3&#45;&gt;Node2 -->
<g id="edge3_Node000002_Node000003" class="edge">
<title>Node3&#45;&gt;Node2</title>
<g id="a_edge3_Node000002_Node000003"><a xlink:title=" ">
<path fill="none" stroke="#9a32cd" stroke-dasharray="5,2" d="M444.12,-656.18C444.12,-642.29 444.12,-624.71 444.12,-614.19"/>
<polygon fill="#9a32cd" stroke="#9a32cd" points="440.63,-656.07 444.13,-666.07 447.63,-656.07 440.63,-656.07"/>
</a>
</g>
<text xml:space="preserve" text-anchor="start" x="447.12" y="-637.5" font-family="Helvetica,sans-Serif" font-size="10.00" fill="grey">value</text>
</g>
<!-- Node4&#45;&gt;Node1 -->
<g id="edge4_Node000001_Node000004" class="edge">
<title>Node4&#45;&gt;Node1</title>
<g id="a_edge4_Node000001_Node000004"><a xlink:title=" ">
<path fill="none" stroke="#9a32cd" stroke-dasharray="5,2" d="M522.83,-19.2C578.19,-30.47 664.12,-52.81 664.12,-83 664.12,-425 664.12,-425 664.12,-425 664.12,-455.41 653.75,-463.65 633.12,-486 626.44,-493.25 617.37,-499.25 609.21,-503.74"/>
<polygon fill="#9a32cd" stroke="#9a32cd" points="523.83,-15.83 513.34,-17.33 522.48,-22.7 523.83,-15.83"/>
</a>
</g>
<text xml:space="preserve" text-anchor="start" x="667.12" y="-273.5" font-family="Helvetica,sans-Serif" font-size="10.00" fill="grey">ci</text>
<text xml:space="preserve" text-anchor="start" x="667.12" y="-257.5" font-family="Helvetica,sans-Serif" font-size="10.00" fill="grey">cibase</text>
<text xml:space="preserve" text-anchor="start" x="667.12" y="-241.5" font-family="Helvetica,sans-Serif" font-size="10.00" fill="grey">ciend</text>
</g>
<!-- Node5&#45;&gt;Node4 -->
<g id="edge5_Node000004_Node000005" class="edge">
<title>Node5&#45;&gt;Node4</title>
<g id="a_edge5_Node000004_Node000005"><a xlink:title=" ">
<path fill="none" stroke="#9a32cd" stroke-dasharray="5,2" d="M255.96,-329.99C246.2,-312.9 234.12,-286.74 234.12,-262 234.12,-262 234.12,-262 234.12,-83 234.12,-40.04 375.48,-20.73 442.57,-13.98"/>
<polygon fill="#9a32cd" stroke="#9a32cd" points="252.94,-331.76 261.11,-338.51 258.93,-328.14 252.94,-331.76"/>
</a>
</g>
<text xml:space="preserve" text-anchor="start" x="237.12" y="-169.5" font-family="Helvetica,sans-Serif" font-size="10.00" fill="grey">blk</text>
<text xml:space="preserve" text-anchor="start" x="237.12" y="-153.5" font-family="Helvetica,sans-Serif" font-size="10.00" fill="grey">proc</text>
</g>
<!-- Node5&#45;&gt;Node5 -->
<g id="edge14_Node000005_Node000005" class="edge">
<title>Node5&#45;&gt;Node5</title>
<g id="a_edge14_Node000005_Node000005"><a xlink:title=" ">
<path fill="none" stroke="#9a32cd" stroke-dasharray="5,2" d="M301.45,-355.96C305.41,-354.87 308,-352.89 308,-350 308,-344.87 299.82,-342.58 290.27,-343.15"/>
<polygon fill="#9a32cd" stroke="#9a32cd" points="301.46,-352.44 291.78,-356.73 302.02,-359.42 301.46,-352.44"/>
</a>
</g>
<text xml:space="preserve" text-anchor="start" x="311" y="-346.5" font-family="Helvetica,sans-Serif" font-size="10.00" fill="grey">upper</text>
</g>
<!-- Node5&#45;&gt;Node15 -->
<g id="edge20_Node000015_Node000005" class="edge">
<title>Node5&#45;&gt;Node15</title>
<g id="a_edge20_Node000015_Node000005"><a xlink:title=" ">
<path fill="none" stroke="#9a32cd" stroke-dasharray="5,2" d="M288.58,-332.58C292.77,-329.13 297.12,-325.48 301.12,-322 321.29,-304.47 344.07,-283.05 356.6,-271.13"/>
<polygon fill="#9a32cd" stroke="#9a32cd" points="286.59,-329.69 281.05,-338.71 291.01,-335.12 286.59,-329.69"/>
</a>
</g>
<text xml:space="preserve" text-anchor="start" x="324.09" y="-309.5" font-family="Helvetica,sans-Serif" font-size="10.00" fill="grey">proc</text>
</g>
<!-- Node6 -->
<g id="Node000006" class="node">
<title>Node6</title>
<g id="a_Node000006"><a xlink:href="structmrb__irep.html" target="_top" xlink:title=" ">
<polygon fill="white" stroke="#bfbfbf" points="225.88,-434 172.38,-434 172.38,-414 225.88,-414 225.88,-434"/>
<text xml:space="preserve" text-anchor="middle" x="199.12" y="-420.5" font-family="Helvetica,sans-Serif" font-size="10.00">mrb_irep</text>
</a>
</g>
</g>
<!-- Node6&#45;&gt;Node5 -->
<g id="edge6_Node000005_Node000006" class="edge">
<title>Node6&#45;&gt;Node5</title>
<g id="a_edge6_Node000005_Node000006"><a xlink:title=" ">
<path fill="none" stroke="#9a32cd" stroke-dasharray="5,2" d="M215.9,-405.5C229.59,-391.21 248.41,-371.57 259.32,-360.19"/>
<polygon fill="#9a32cd" stroke="#9a32cd" points="213.58,-402.85 209.19,-412.49 218.64,-407.7 213.58,-402.85"/>
</a>
</g>
<text xml:space="preserve" text-anchor="start" x="244.83" y="-383.5" font-family="Helvetica,sans-Serif" font-size="10.00" fill="grey">irep</text>
</g>
<!-- Node6&#45;&gt;Node6 -->
<g id="edge9_Node000006_Node000006" class="edge">
<title>Node6&#45;&gt;Node6</title>
<g id="a_edge9_Node000006_Node000006"><a xlink:title=" ">
<path fill="none" stroke="#9a32cd" stroke-dasharray="5,2" d="M237.44,-429.71C241.37,-428.59 243.88,-426.68 243.88,-424 243.88,-419.23 235.94,-416.92 226.21,-417.07"/>
<polygon fill="#9a32cd" stroke="#9a32cd" points="237.28,-426.21 227.72,-430.77 238.04,-433.17 237.28,-426.21"/>
</a>
</g>
<text xml:space="preserve" text-anchor="start" x="246.88" y="-420.5" font-family="Helvetica,sans-Serif" font-size="10.00" fill="grey">reps</text>
</g>
<!-- Node7 -->
<g id="Node000007" class="node">
<title>Node7</title>
<g id="a_Node000007"><a xlink:href="structmrb__pool__value.html" target="_top" xlink:title=" ">
<polygon fill="white" stroke="#bfbfbf" points="218.25,-524 134,-524 134,-504 218.25,-504 218.25,-524"/>
<text xml:space="preserve" text-anchor="middle" x="176.12" y="-510.5" font-family="Helvetica,sans-Serif" font-size="10.00">mrb_pool_value</text>
</a>
</g>
</g>
<!-- Node7&#45;&gt;Node6 -->
<g id="edge7_Node000006_Node000007" class="edge">
<title>Node7&#45;&gt;Node6</title>
<g id="a_edge7_Node000006_Node000007"><a xlink:title=" ">
<path fill="none" stroke="#9a32cd" stroke-dasharray="5,2" d="M181.45,-492.61C186.25,-474.27 193.08,-448.14 196.68,-434.35"/>
<polygon fill="#9a32cd" stroke="#9a32cd" points="178.11,-491.56 178.97,-502.12 184.88,-493.33 178.11,-491.56"/>
</a>
</g>
<text xml:space="preserve" text-anchor="start" x="194.69" y="-465.5" font-family="Helvetica,sans-Serif" font-size="10.00" fill="grey">pool</text>
</g>
<!-- Node8 -->
<g id="Node000008" class="node">
<title>Node8</title>
<g id="a_Node000008"><a xlink:href="classmrb__sym.html" target="_top" xlink:title=" ">
<polygon fill="white" stroke="#666666" points="292.38,-524 235.88,-524 235.88,-504 292.38,-504 292.38,-524"/>
<text xml:space="preserve" text-anchor="middle" x="264.12" y="-510.5" font-family="Helvetica,sans-Serif" font-size="10.00">mrb_sym</text>
</a>
</g>
</g>
<!-- Node8&#45;&gt;Node6 -->
<g id="edge8_Node000006_Node000008" class="edge">
<title>Node8&#45;&gt;Node6</title>
<g id="a_edge8_Node000006_Node000008"><a xlink:title=" ">
<path fill="none" stroke="#9a32cd" stroke-dasharray="5,2" d="M251.19,-494.71C242.51,-482.53 230.77,-466.21 220.12,-452 215.71,-446.11 210.65,-439.59 206.6,-434.43"/>
<polygon fill="#9a32cd" stroke="#9a32cd" points="248.15,-496.47 256.79,-502.6 253.86,-492.42 248.15,-496.47"/>
</a>
</g>
<text xml:space="preserve" text-anchor="start" x="247.27" y="-473.5" font-family="Helvetica,sans-Serif" font-size="10.00" fill="grey">lv</text>
<text xml:space="preserve" text-anchor="start" x="247.27" y="-457.5" font-family="Helvetica,sans-Serif" font-size="10.00" fill="grey">syms</text>
</g>
<!-- Node9 -->
<g id="Node000009" class="node">
<title>Node9</title>
<g id="a_Node000009"><a xlink:href="structmrb__irep__debug__info.html" target="_top" xlink:title=" ">
<polygon fill="white" stroke="#bfbfbf" points="116.12,-524 10.12,-524 10.12,-504 116.12,-504 116.12,-524"/>
<text xml:space="preserve" text-anchor="middle" x="63.12" y="-510.5" font-family="Helvetica,sans-Serif" font-size="10.00">mrb_irep_debug_info</text>
</a>
</g>
</g>
<!-- Node9&#45;&gt;Node6 -->
<g id="edge10_Node000006_Node000009" class="edge">
<title>Node9&#45;&gt;Node6</title>
<g id="a_edge10_Node000006_Node000009"><a xlink:title=" ">
<path fill="none" stroke="#9a32cd" stroke-dasharray="5,2" d="M77.47,-495.51C89.28,-482.06 107.07,-463.84 125.88,-452 140.09,-443.04 157.72,-436.43 172.13,-431.99"/>
<polygon fill="#9a32cd" stroke="#9a32cd" points="75.11,-492.88 71.3,-502.77 80.44,-497.42 75.11,-492.88"/>
</a>
</g>
<text xml:space="preserve" text-anchor="start" x="128.88" y="-465.5" font-family="Helvetica,sans-Serif" font-size="10.00" fill="grey">debug_info</text>
</g>
<!-- Node10 -->
<g id="Node000010" class="node">
<title>Node10</title>
<g id="a_Node000010"><a xlink:href="structmrb__irep__debug__info__file.html" target="_top" xlink:title=" ">
<polygon fill="white" stroke="#bfbfbf" points="125.12,-614 1.12,-614 1.12,-594 125.12,-594 125.12,-614"/>
<text xml:space="preserve" text-anchor="middle" x="63.12" y="-600.5" font-family="Helvetica,sans-Serif" font-size="10.00">mrb_irep_debug_info_file</text>
</a>
</g>
</g>
<!-- Node10&#45;&gt;Node9 -->
<g id="edge11_Node000009_Node000010" class="edge">
<title>Node10&#45;&gt;Node9</title>
<g id="a_edge11_Node000009_Node000010"><a xlink:title=" ">
<path fill="none" stroke="#9a32cd" stroke-dasharray="5,2" d="M63.12,-582.09C63.12,-563.77 63.12,-538.01 63.12,-524.35"/>
<polygon fill="#9a32cd" stroke="#9a32cd" points="59.63,-582.07 63.13,-592.07 66.63,-582.07 59.63,-582.07"/>
</a>
</g>
<text xml:space="preserve" text-anchor="start" x="66.12" y="-555.5" font-family="Helvetica,sans-Serif" font-size="10.00" fill="grey">files</text>
</g>
<!-- Node11 -->
<g id="Node000011" class="node">
<title>Node11</title>
<g id="a_Node000011"><a xlink:href="structmrb__irep__debug__info__line.html" target="_top" xlink:title=" ">
<polygon fill="white" stroke="#bfbfbf" points="126.25,-688 0,-688 0,-668 126.25,-668 126.25,-688"/>
<text xml:space="preserve" text-anchor="middle" x="63.12" y="-674.5" font-family="Helvetica,sans-Serif" font-size="10.00">mrb_irep_debug_info_line</text>
</a>
</g>
</g>
<!-- Node11&#45;&gt;Node10 -->
<g id="edge12_Node000010_Node000011" class="edge">
<title>Node11&#45;&gt;Node10</title>
<g id="a_edge12_Node000010_Node000011"><a xlink:title=" ">
<path fill="none" stroke="#9a32cd" stroke-dasharray="5,2" d="M63.12,-656.18C63.12,-642.29 63.12,-624.71 63.12,-614.19"/>
<polygon fill="#9a32cd" stroke="#9a32cd" points="59.63,-656.07 63.13,-666.07 66.63,-656.07 59.63,-656.07"/>
</a>
</g>
<text xml:space="preserve" text-anchor="start" x="66.12" y="-637.5" font-family="Helvetica,sans-Serif" font-size="10.00" fill="grey">flat_map</text>
</g>
<!-- Node12 -->
<g id="Node000012" class="node">
<title>Node12</title>
<g id="a_Node000012"><a xlink:href="structRClass.html" target="_top" xlink:title=" ">
<polygon fill="white" stroke="#666666" points="396.62,-94 347.62,-94 347.62,-74 396.62,-74 396.62,-94"/>
<text xml:space="preserve" text-anchor="middle" x="372.12" y="-80.5" font-family="Helvetica,sans-Serif" font-size="10.00">RClass</text>
</a>
</g>
</g>
<!-- Node12&#45;&gt;Node4 -->
<g id="edge28_Node000004_Node000012" class="edge">
<title>Node12&#45;&gt;Node4</title>
<g id="a_edge28_Node000004_Node000012"><a xlink:title=" ">
<path fill="none" stroke="#9a32cd" stroke-dasharray="5,2" d="M382.05,-63.86C387.48,-54.97 394.92,-44.87 403.88,-38 415.16,-29.33 429.51,-23.23 442.52,-19.05"/>
<polygon fill="#9a32cd" stroke="#9a32cd" points="379.05,-62.06 377.21,-72.49 385.16,-65.48 379.05,-62.06"/>
</a>
</g>
<text xml:space="preserve" text-anchor="start" x="406.88" y="-43.5" font-family="Helvetica,sans-Serif" font-size="10.00" fill="grey">target_class</text>
</g>
<!-- Node12&#45;&gt;Node5 -->
<g id="edge15_Node000005_Node000012" class="edge">
<title>Node12&#45;&gt;Node5</title>
<g id="a_edge15_Node000005_Node000012"><a xlink:title=" ">
<path fill="none" stroke="#9a32cd" stroke-dasharray="5,2" d="M358.52,-103.43C342.92,-125.38 317.63,-163.65 302.88,-200 282.4,-250.45 272.43,-315.65 269.27,-339.62"/>
<polygon fill="#9a32cd" stroke="#9a32cd" points="361.21,-105.69 364.23,-95.53 355.53,-101.58 361.21,-105.69"/>
</a>
</g>
<text xml:space="preserve" text-anchor="start" x="305.88" y="-205.5" font-family="Helvetica,sans-Serif" font-size="10.00" fill="grey">target_class</text>
</g>
<!-- Node12&#45;&gt;Node12 -->
<g id="edge22_Node000012_Node000012" class="edge">
<title>Node12&#45;&gt;Node12</title>
<g id="a_edge22_Node000012_Node000012"><a xlink:title=" ">
<path fill="none" stroke="#9a32cd" stroke-dasharray="5,2" d="M408.17,-89.81C412.09,-88.7 414.62,-86.76 414.62,-84 414.62,-79.09 406.63,-76.78 397.01,-77.09"/>
<polygon fill="#9a32cd" stroke="#9a32cd" points="408.12,-86.3 398.51,-90.76 408.81,-93.27 408.12,-86.3"/>
</a>
</g>
<text xml:space="preserve" text-anchor="start" x="417.62" y="-80.5" font-family="Helvetica,sans-Serif" font-size="10.00" fill="grey">super</text>
</g>
<!-- Node13&#45;&gt;Node12 -->
<g id="edge16_Node000012_Node000013" class="edge">
<title>Node13&#45;&gt;Node12</title>
<g id="a_edge16_Node000012_Node000013"><a xlink:title=" ">
<path fill="none" stroke="#9a32cd" stroke-dasharray="5,2" d="M447.36,-449.68C443.95,-444.8 440.6,-439.38 438.12,-434 422.22,-399.43 417.12,-389.05 417.12,-351 417.12,-351 417.12,-351 417.12,-164 417.12,-135.59 394.88,-108.07 381.67,-94.24"/>
<polygon fill="#9a32cd" stroke="#9a32cd" points="444.47,-451.66 453.28,-457.55 450.07,-447.45 444.47,-451.66"/>
</a>
</g>
<text xml:space="preserve" text-anchor="start" x="420.12" y="-309.5" font-family="Helvetica,sans-Serif" font-size="10.00" fill="grey">iv</text>
</g>
<!-- Node14 -->
<g id="Node000014" class="node">
<title>Node14</title>
<g id="a_Node000014"><a xlink:href="structmt__tbl.html" target="_top" xlink:title=" ">
<polygon fill="white" stroke="#bfbfbf" points="388.62,-175 345.62,-175 345.62,-155 388.62,-155 388.62,-175"/>
<text xml:space="preserve" text-anchor="middle" x="367.12" y="-161.5" font-family="Helvetica,sans-Serif" font-size="10.00">mt_tbl</text>
</a>
</g>
</g>
<!-- Node14&#45;&gt;Node12 -->
<g id="edge18_Node000012_Node000014" class="edge">
<title>Node14&#45;&gt;Node12</title>
<g id="a_edge18_Node000012_Node000014"><a xlink:title=" ">
<path fill="none" stroke="#9a32cd" stroke-dasharray="5,2" d="M368.43,-143.32C369.44,-127.48 370.77,-106.35 371.53,-94.36"/>
<polygon fill="#9a32cd" stroke="#9a32cd" points="364.95,-142.92 367.81,-153.12 371.94,-143.36 364.95,-142.92"/>
</a>
</g>
<text xml:space="preserve" text-anchor="start" x="373.37" y="-117.5" font-family="Helvetica,sans-Serif" font-size="10.00" fill="grey">mt</text>
</g>
<!-- Node15&#45;&gt;Node14 -->
<g id="edge19_Node000014_Node000015" class="edge">
<title>Node15&#45;&gt;Node14</title>
<g id="a_edge19_Node000014_Node000015"><a xlink:title=" ">
<path fill="none" stroke="#9a32cd" stroke-dasharray="5,2" d="M366.34,-239.4C366.56,-219.46 366.87,-190.14 367.03,-175.32"/>
<polygon fill="#9a32cd" stroke="#9a32cd" points="362.85,-239.09 366.24,-249.13 369.85,-239.17 362.85,-239.09"/>
</a>
</g>
<text xml:space="preserve" text-anchor="start" x="369.74" y="-205.5" font-family="Helvetica,sans-Serif" font-size="10.00" fill="grey">ptr</text>
</g>
<!-- Node16&#45;&gt;Node4 -->
<g id="edge27_Node000004_Node000016" class="edge">
<title>Node16&#45;&gt;Node4</title>
<g id="a_edge27_Node000004_Node000016"><a xlink:title=" ">
<path fill="none" stroke="#9a32cd" stroke-dasharray="5,2" d="M470.12,-402.56C473.07,-380.7 477.12,-344.98 477.12,-314 477.12,-314 477.12,-314 477.12,-83 477.12,-60.5 477.12,-34.04 477.12,-20.32"/>
<polygon fill="#9a32cd" stroke="#9a32cd" points="466.7,-401.81 468.77,-412.2 473.63,-402.78 466.7,-401.81"/>
</a>
</g>
<text xml:space="preserve" text-anchor="start" x="480.12" y="-205.5" font-family="Helvetica,sans-Serif" font-size="10.00" fill="grey">env</text>
</g>
<!-- Node16&#45;&gt;Node5 -->
<g id="edge23_Node000005_Node000016" class="edge">
<title>Node16&#45;&gt;Node5</title>
<g id="a_edge23_Node000005_Node000016"><a xlink:title=" ">
<path fill="none" stroke="#9a32cd" stroke-dasharray="5,2" d="M436,-411.74C395.54,-397.1 325.9,-371.9 290.38,-359.05"/>
<polygon fill="#9a32cd" stroke="#9a32cd" points="434.56,-414.94 445.15,-415.05 436.94,-408.36 434.56,-414.94"/>
</a>
</g>
<text xml:space="preserve" text-anchor="start" x="394.3" y="-383.5" font-family="Helvetica,sans-Serif" font-size="10.00" fill="grey">env</text>
</g>
<!-- Node17&#45;&gt;Node1 -->
<g id="edge29_Node000001_Node000017" class="edge">
<title>Node17&#45;&gt;Node1</title>
<g id="a_edge29_Node000001_Node000017"><a xlink:title=" ">
<path fill="none" stroke="#9a32cd" stroke-dasharray="5,2" d="M608.76,-445.08C612.23,-457.19 614.66,-472.79 610.12,-486 607.81,-492.74 603.05,-499.09 598.65,-503.94"/>
<polygon fill="#9a32cd" stroke="#9a32cd" points="612.14,-444.15 605.65,-435.78 605.5,-446.37 612.14,-444.15"/>
</a>
</g>
<text xml:space="preserve" text-anchor="start" x="615.6" y="-465.5" font-family="Helvetica,sans-Serif" font-size="10.00" fill="grey">fib</text>
</g>
</g>
</svg>
