<?xml version="1.0" encoding="UTF-8" standalone="no"?>
<!DOCTYPE svg PUBLIC "-//W3C//DTD SVG 1.1//EN"
 "http://www.w3.org/Graphics/SVG/1.1/DTD/svg11.dtd">
<!-- Generated by graphviz version 14.0.5 (0)
 -->
<!-- Title: my_user_data Pages: 1 -->
<svg width="696pt" height="851pt"
 viewBox="0.00 0.00 696.00 851.00" xmlns="http://www.w3.org/2000/svg" xmlns:xlink="http://www.w3.org/1999/xlink">
<g id="graph0" class="graph" transform="scale(1 1) rotate(0) translate(4 847.02)">
<title>my_user_data</title>
<!-- Node1 -->
<g id="Node000001" class="node">
<title>Node1</title>
<g id="a_Node000001"><a xlink:title=" ">
<polygon fill="#999999" stroke="#666666" points="688,-726.02 610.5,-726.02 610.5,-706.02 688,-706.02 688,-726.02"/>
<text xml:space="preserve" text-anchor="middle" x="649.25" y="-712.52" font-family="Helvetica,sans-Serif" font-size="10.00">my_user_data</text>
</a>
</g>
</g>
<!-- Node2 -->
<g id="Node000002" class="node">
<title>Node2</title>
<g id="a_Node000002"><a xlink:href="structdata__feed.html" target="_top" xlink:title=" ">
<polygon fill="white" stroke="#bfbfbf" points="502.88,-843.02 444.12,-843.02 444.12,-823.02 502.88,-823.02 502.88,-843.02"/>
<text xml:space="preserve" text-anchor="middle" x="473.5" y="-829.52" font-family="Helvetica,sans-Serif" font-size="10.00">data_feed</text>
</a>
</g>
</g>
<!-- Node2&#45;&gt;Node1 -->
<g id="edge1_Node000001_Node000002" class="edge">
<title>Node2&#45;&gt;Node1</title>
<g id="a_edge1_Node000001_Node000002"><a xlink:title=" ">
<path fill="none" stroke="#9a32cd" stroke-dasharray="5,2" d="M514.6,-829.81C539.02,-826.18 569.79,-818.45 592.5,-802.02 619.89,-782.2 637.33,-744.43 644.51,-726.27"/>
<polygon fill="#9a32cd" stroke="#9a32cd" points="514.15,-826.34 504.68,-831.09 515.05,-833.28 514.15,-826.34"/>
</a>
</g>
<text xml:space="preserve" text-anchor="start" x="562.5" y="-829.95" font-family="Helvetica,sans-Serif" font-size="10.00" fill="grey">df</text>
</g>
<!-- Node3 -->
<g id="Node000003" class="node">
<title>Node3</title>
<g id="a_Node000003"><a xlink:href="structscripted__data__feed.html" target="_top" xlink:title=" ">
<polygon fill="white" stroke="#bfbfbf" points="522.75,-802.02 424.25,-802.02 424.25,-782.02 522.75,-782.02 522.75,-802.02"/>
<text xml:space="preserve" text-anchor="middle" x="473.5" y="-788.52" font-family="Helvetica,sans-Serif" font-size="10.00">scripted_data_feed</text>
</a>
</g>
</g>
<!-- Node3&#45;&gt;Node1 -->
<g id="edge2_Node000001_Node000003" class="edge">
<title>Node3&#45;&gt;Node1</title>
<g id="a_edge2_Node000001_Node000003"><a xlink:title=" ">
<path fill="none" stroke="#9a32cd" stroke-dasharray="5,2" d="M534.13,-782.23C553.41,-777.67 574.46,-771.17 592.5,-762.02 610.63,-752.82 628.14,-736.84 638.55,-726.35"/>
<polygon fill="#9a32cd" stroke="#9a32cd" points="533.5,-778.78 524.49,-784.36 535.01,-785.62 533.5,-778.78"/>
</a>
</g>
<text xml:space="preserve" text-anchor="start" x="562.5" y="-785.63" font-family="Helvetica,sans-Serif" font-size="10.00" fill="grey">df</text>
</g>
<!-- Node4 -->
<g id="Node000004" class="node">
<title>Node4</title>
<g id="a_Node000004"><a xlink:href="structaccumulator.html" target="_top" xlink:title=" ">
<polygon fill="white" stroke="#bfbfbf" points="508.12,-764.02 438.88,-764.02 438.88,-744.02 508.12,-744.02 508.12,-764.02"/>
<text xml:space="preserve" text-anchor="middle" x="473.5" y="-750.52" font-family="Helvetica,sans-Serif" font-size="10.00">accumulator</text>
</a>
</g>
</g>
<!-- Node4&#45;&gt;Node1 -->
<g id="edge3_Node000001_Node000004" class="edge">
<title>Node4&#45;&gt;Node1</title>
<g id="a_edge3_Node000001_Node000004"><a xlink:title=" ">
<path fill="none" stroke="#9a32cd" stroke-dasharray="5,2" d="M519.64,-744.68C541.65,-740.07 568.48,-734.36 592.5,-729.02 598.22,-727.75 604.27,-726.37 610.19,-725"/>
<polygon fill="#9a32cd" stroke="#9a32cd" points="519.17,-741.2 510.1,-746.67 520.61,-748.05 519.17,-741.2"/>
</a>
</g>
<text xml:space="preserve" text-anchor="start" x="558.75" y="-745.73" font-family="Helvetica,sans-Serif" font-size="10.00" fill="grey">acc</text>
</g>
<!-- Node5 -->
<g id="Node000005" class="node">
<title>Node5</title>
<g id="a_Node000005"><a xlink:href="structnghttp2__frame__hd.html" target="_top" xlink:title=" ">
<polygon fill="white" stroke="#666666" points="104.5,-519.02 10.5,-519.02 10.5,-499.02 104.5,-499.02 104.5,-519.02"/>
<text xml:space="preserve" text-anchor="middle" x="57.5" y="-505.52" font-family="Helvetica,sans-Serif" font-size="10.00">nghttp2_frame_hd</text>
</a>
</g>
</g>
<!-- Node5&#45;&gt;Node1 -->
<g id="edge4_Node000001_Node000005" class="edge">
<title>Node5&#45;&gt;Node1</title>
<g id="a_edge4_Node000001_Node000005"><a xlink:title=" ">
<path fill="none" stroke="#9a32cd" stroke-dasharray="5,2" d="M60.36,-530.8C64.99,-570.02 80.74,-652.08 133,-691.02 208.05,-746.94 503.98,-728.21 610.11,-719.45"/>
<polygon fill="#9a32cd" stroke="#9a32cd" points="63.86,-530.56 59.36,-520.97 56.9,-531.28 63.86,-530.56"/>
</a>
</g>
<text xml:space="preserve" text-anchor="start" x="337.25" y="-735.13" font-family="Helvetica,sans-Serif" font-size="10.00" fill="grey">recv_frame_hd</text>
</g>
<!-- Node6 -->
<g id="Node000006" class="node">
<title>Node6</title>
<g id="a_Node000006"><a xlink:href="unionnghttp2__frame.html" target="_top" xlink:title=" ">
<polygon fill="white" stroke="#666666" points="512.62,-508.02 434.38,-508.02 434.38,-488.02 512.62,-488.02 512.62,-508.02"/>
<text xml:space="preserve" text-anchor="middle" x="473.5" y="-494.52" font-family="Helvetica,sans-Serif" font-size="10.00">nghttp2_frame</text>
</a>
</g>
</g>
<!-- Node5&#45;&gt;Node6 -->
<g id="edge6_Node000006_Node000005" class="edge">
<title>Node5&#45;&gt;Node6</title>
<g id="a_edge6_Node000006_Node000005"><a xlink:title=" ">
<path fill="none" stroke="#9a32cd" stroke-dasharray="5,2" d="M116.42,-511.58C122.02,-511.76 127.62,-511.91 133,-512.02 254.47,-514.46 284.99,-511.61 406.25,-504.02 415.24,-503.46 424.9,-502.68 433.99,-501.87"/>
<polygon fill="#9a32cd" stroke="#9a32cd" points="116.62,-508.08 106.5,-511.23 116.37,-515.08 116.62,-508.08"/>
</a>
</g>
<text xml:space="preserve" text-anchor="start" x="249" y="-518.37" font-family="Helvetica,sans-Serif" font-size="10.00" fill="grey">hd</text>
</g>
<!-- Node7 -->
<g id="Node000007" class="node">
<title>Node7</title>
<g id="a_Node000007"><a xlink:href="structnghttp2__data.html" target="_top" xlink:title=" ">
<polygon fill="white" stroke="#666666" points="290.38,-482.02 218.12,-482.02 218.12,-462.02 290.38,-462.02 290.38,-482.02"/>
<text xml:space="preserve" text-anchor="middle" x="254.25" y="-468.52" font-family="Helvetica,sans-Serif" font-size="10.00">nghttp2_data</text>
</a>
</g>
</g>
<!-- Node5&#45;&gt;Node7 -->
<g id="edge8_Node000007_Node000005" class="edge">
<title>Node5&#45;&gt;Node7</title>
<g id="a_edge8_Node000007_Node000005"><a xlink:title=" ">
<path fill="none" stroke="#9a32cd" stroke-dasharray="5,2" d="M115.97,-497.34C121.72,-496.2 127.47,-495.08 133,-494.02 161.45,-488.55 193.75,-482.66 217.7,-478.35"/>
<polygon fill="#9a32cd" stroke="#9a32cd" points="115.58,-493.85 106.46,-499.23 116.95,-500.72 115.58,-493.85"/>
</a>
</g>
<text xml:space="preserve" text-anchor="start" x="149.12" y="-499.52" font-family="Helvetica,sans-Serif" font-size="10.00" fill="grey">hd</text>
</g>
<!-- Node8 -->
<g id="Node000008" class="node">
<title>Node8</title>
<g id="a_Node000008"><a xlink:href="structnghttp2__headers.html" target="_top" xlink:title=" ">
<polygon fill="white" stroke="#666666" points="298.25,-175.02 210.25,-175.02 210.25,-155.02 298.25,-155.02 298.25,-175.02"/>
<text xml:space="preserve" text-anchor="middle" x="254.25" y="-161.52" font-family="Helvetica,sans-Serif" font-size="10.00">nghttp2_headers</text>
</a>
</g>
</g>
<!-- Node5&#45;&gt;Node8 -->
<g id="edge10_Node000008_Node000005" class="edge">
<title>Node5&#45;&gt;Node8</title>
<g id="a_edge10_Node000008_Node000005"><a xlink:title=" ">
<path fill="none" stroke="#9a32cd" stroke-dasharray="5,2" d="M67.36,-488.05C79.88,-457.56 102.62,-398.94 115,-347.02 122.02,-317.58 114.32,-235.83 133,-212.02 143.48,-198.66 183.67,-184.65 214.74,-175.44"/>
<polygon fill="#9a32cd" stroke="#9a32cd" points="64.15,-486.65 63.54,-497.23 70.61,-489.34 64.15,-486.65"/>
</a>
</g>
<text xml:space="preserve" text-anchor="start" x="149.12" y="-217.52" font-family="Helvetica,sans-Serif" font-size="10.00" fill="grey">hd</text>
</g>
<!-- Node11 -->
<g id="Node000011" class="node">
<title>Node11</title>
<g id="a_Node000011"><a xlink:href="structnghttp2__priority.html" target="_top" xlink:title=" ">
<polygon fill="white" stroke="#bfbfbf" points="295.62,-444.02 212.88,-444.02 212.88,-424.02 295.62,-424.02 295.62,-444.02"/>
<text xml:space="preserve" text-anchor="middle" x="254.25" y="-430.52" font-family="Helvetica,sans-Serif" font-size="10.00">nghttp2_priority</text>
</a>
</g>
</g>
<!-- Node5&#45;&gt;Node11 -->
<g id="edge14_Node000011_Node000005" class="edge">
<title>Node5&#45;&gt;Node11</title>
<g id="a_edge14_Node000011_Node000005"><a xlink:title=" ">
<path fill="none" stroke="#9a32cd" stroke-dasharray="5,2" d="M82.71,-492.35C96.86,-483.23 115.36,-472.33 133,-465.02 158.59,-454.41 188.79,-446.64 212.52,-441.53"/>
<polygon fill="#9a32cd" stroke="#9a32cd" points="80.93,-489.34 74.52,-497.77 84.79,-495.18 80.93,-489.34"/>
</a>
</g>
<text xml:space="preserve" text-anchor="start" x="149.12" y="-470.52" font-family="Helvetica,sans-Serif" font-size="10.00" fill="grey">hd</text>
</g>
<!-- Node12 -->
<g id="Node000012" class="node">
<title>Node12</title>
<g id="a_Node000012"><a xlink:href="structnghttp2__rst__stream.html" target="_top" xlink:title=" ">
<polygon fill="white" stroke="#666666" points="304.25,-574.02 204.25,-574.02 204.25,-554.02 304.25,-554.02 304.25,-574.02"/>
<text xml:space="preserve" text-anchor="middle" x="254.25" y="-560.52" font-family="Helvetica,sans-Serif" font-size="10.00">nghttp2_rst_stream</text>
</a>
</g>
</g>
<!-- Node5&#45;&gt;Node12 -->
<g id="edge17_Node000012_Node000005" class="edge">
<title>Node5&#45;&gt;Node12</title>
<g id="a_edge17_Node000012_Node000005"><a xlink:title=" ">
<path fill="none" stroke="#9a32cd" stroke-dasharray="5,2" d="M94.36,-523.64C106.5,-528.29 120.23,-533.2 133,-537.02 156.06,-543.91 182.08,-549.95 204,-554.57"/>
<polygon fill="#9a32cd" stroke="#9a32cd" points="95.72,-520.42 85.13,-520.04 93.17,-526.94 95.72,-520.42"/>
</a>
</g>
<text xml:space="preserve" text-anchor="start" x="149.12" y="-553.74" font-family="Helvetica,sans-Serif" font-size="10.00" fill="grey">hd</text>
</g>
<!-- Node13 -->
<g id="Node000013" class="node">
<title>Node13</title>
<g id="a_Node000013"><a xlink:href="structnghttp2__settings.html" target="_top" xlink:title=" ">
<polygon fill="white" stroke="#666666" points="298.25,-339.02 210.25,-339.02 210.25,-319.02 298.25,-319.02 298.25,-339.02"/>
<text xml:space="preserve" text-anchor="middle" x="254.25" y="-325.52" font-family="Helvetica,sans-Serif" font-size="10.00">nghttp2_settings</text>
</a>
</g>
</g>
<!-- Node5&#45;&gt;Node13 -->
<g id="edge19_Node000013_Node000005" class="edge">
<title>Node5&#45;&gt;Node13</title>
<g id="a_edge19_Node000013_Node000005"><a xlink:title=" ">
<path fill="none" stroke="#9a32cd" stroke-dasharray="5,2" d="M64.13,-487.7C76.11,-444.16 105.3,-347.53 133,-329.02 156.43,-313.36 188.59,-314.21 213.76,-318.52"/>
<polygon fill="#9a32cd" stroke="#9a32cd" points="60.79,-486.67 61.56,-497.23 67.54,-488.49 60.79,-486.67"/>
</a>
</g>
<text xml:space="preserve" text-anchor="start" x="149.12" y="-334.52" font-family="Helvetica,sans-Serif" font-size="10.00" fill="grey">hd</text>
</g>
<!-- Node15 -->
<g id="Node000015" class="node">
<title>Node15</title>
<g id="a_Node000015"><a xlink:href="structnghttp2__push__promise.html" target="_top" xlink:title=" ">
<polygon fill="white" stroke="#666666" points="311.38,-298.02 197.12,-298.02 197.12,-278.02 311.38,-278.02 311.38,-298.02"/>
<text xml:space="preserve" text-anchor="middle" x="254.25" y="-284.52" font-family="Helvetica,sans-Serif" font-size="10.00">nghttp2_push_promise</text>
</a>
</g>
</g>
<!-- Node5&#45;&gt;Node15 -->
<g id="edge22_Node000015_Node000005" class="edge">
<title>Node5&#45;&gt;Node15</title>
<g id="a_edge22_Node000015_Node000005"><a xlink:title=" ">
<path fill="none" stroke="#9a32cd" stroke-dasharray="5,2" d="M65.85,-488.12C76.69,-457.27 97.54,-397.74 115,-347.02 123.1,-323.5 113.15,-309.01 133,-294.02 150.93,-280.48 175.01,-277.25 196.91,-278.07"/>
<polygon fill="#9a32cd" stroke="#9a32cd" points="62.61,-486.77 62.6,-497.37 69.22,-489.09 62.61,-486.77"/>
</a>
</g>
<text xml:space="preserve" text-anchor="start" x="149.12" y="-299.52" font-family="Helvetica,sans-Serif" font-size="10.00" fill="grey">hd</text>
</g>
<!-- Node16 -->
<g id="Node000016" class="node">
<title>Node16</title>
<g id="a_Node000016"><a xlink:href="structnghttp2__ping.html" target="_top" xlink:title=" ">
<polygon fill="white" stroke="#666666" points="290,-650.02 218.5,-650.02 218.5,-630.02 290,-630.02 290,-650.02"/>
<text xml:space="preserve" text-anchor="middle" x="254.25" y="-636.52" font-family="Helvetica,sans-Serif" font-size="10.00">nghttp2_ping</text>
</a>
</g>
</g>
<!-- Node5&#45;&gt;Node16 -->
<g id="edge25_Node000016_Node000005" class="edge">
<title>Node5&#45;&gt;Node16</title>
<g id="a_edge25_Node000016_Node000005"><a xlink:title=" ">
<path fill="none" stroke="#9a32cd" stroke-dasharray="5,2" d="M68.49,-529.39C80.63,-552.01 103.24,-587.97 133,-608.02 158.44,-625.16 192.66,-633.13 218.09,-636.83"/>
<polygon fill="#9a32cd" stroke="#9a32cd" points="71.63,-527.85 63.94,-520.56 65.41,-531.05 71.63,-527.85"/>
</a>
</g>
<text xml:space="preserve" text-anchor="start" x="149.12" y="-632.08" font-family="Helvetica,sans-Serif" font-size="10.00" fill="grey">hd</text>
</g>
<!-- Node17 -->
<g id="Node000017" class="node">
<title>Node17</title>
<g id="a_Node000017"><a xlink:href="structnghttp2__goaway.html" target="_top" xlink:title=" ">
<polygon fill="white" stroke="#666666" points="297.88,-612.02 210.62,-612.02 210.62,-592.02 297.88,-592.02 297.88,-612.02"/>
<text xml:space="preserve" text-anchor="middle" x="254.25" y="-598.52" font-family="Helvetica,sans-Serif" font-size="10.00">nghttp2_goaway</text>
</a>
</g>
</g>
<!-- Node5&#45;&gt;Node17 -->
<g id="edge27_Node000017_Node000005" class="edge">
<title>Node5&#45;&gt;Node17</title>
<g id="a_edge27_Node000017_Node000005"><a xlink:title=" ">
<path fill="none" stroke="#9a32cd" stroke-dasharray="5,2" d="M75.98,-527.04C90.17,-540.68 111.31,-558.92 133,-570.02 157.13,-582.37 186.51,-590.3 210.18,-595.18"/>
<polygon fill="#9a32cd" stroke="#9a32cd" points="78.75,-524.85 69.18,-520.3 73.83,-529.83 78.75,-524.85"/>
</a>
</g>
<text xml:space="preserve" text-anchor="start" x="149.12" y="-591.65" font-family="Helvetica,sans-Serif" font-size="10.00" fill="grey">hd</text>
</g>
<!-- Node18 -->
<g id="Node000018" class="node">
<title>Node18</title>
<g id="a_Node000018"><a xlink:href="structnghttp2__window__update.html" target="_top" xlink:title=" ">
<polygon fill="white" stroke="#666666" points="314.75,-406.02 193.75,-406.02 193.75,-386.02 314.75,-386.02 314.75,-406.02"/>
<text xml:space="preserve" text-anchor="middle" x="254.25" y="-392.52" font-family="Helvetica,sans-Serif" font-size="10.00">nghttp2_window_update</text>
</a>
</g>
</g>
<!-- Node5&#45;&gt;Node18 -->
<g id="edge29_Node000018_Node000005" class="edge">
<title>Node5&#45;&gt;Node18</title>
<g id="a_edge29_Node000018_Node000005"><a xlink:title=" ">
<path fill="none" stroke="#9a32cd" stroke-dasharray="5,2" d="M71.67,-489.58C85.04,-471.31 107.38,-444.53 133,-429.02 151.24,-417.97 173.25,-410.54 193.42,-405.58"/>
<polygon fill="#9a32cd" stroke="#9a32cd" points="68.99,-487.3 66.08,-497.49 74.71,-491.34 68.99,-487.3"/>
</a>
</g>
<text xml:space="preserve" text-anchor="start" x="149.12" y="-434.52" font-family="Helvetica,sans-Serif" font-size="10.00" fill="grey">hd</text>
</g>
<!-- Node19 -->
<g id="Node000019" class="node">
<title>Node19</title>
<g id="a_Node000019"><a xlink:href="structnghttp2__extension.html" target="_top" xlink:title=" ">
<polygon fill="white" stroke="#666666" points="302,-688.02 206.5,-688.02 206.5,-668.02 302,-668.02 302,-688.02"/>
<text xml:space="preserve" text-anchor="middle" x="254.25" y="-674.52" font-family="Helvetica,sans-Serif" font-size="10.00">nghttp2_extension</text>
</a>
</g>
</g>
<!-- Node5&#45;&gt;Node19 -->
<g id="edge31_Node000019_Node000005" class="edge">
<title>Node5&#45;&gt;Node19</title>
<g id="a_edge31_Node000019_Node000005"><a xlink:title=" ">
<path fill="none" stroke="#9a32cd" stroke-dasharray="5,2" d="M63.8,-530.18C72.68,-561.16 93.61,-618.5 133,-649.02 153.8,-665.13 182.22,-672.46 206.22,-675.73"/>
<polygon fill="#9a32cd" stroke="#9a32cd" points="67.26,-529.56 61.27,-520.82 60.5,-531.39 67.26,-529.56"/>
</a>
</g>
<text xml:space="preserve" text-anchor="start" x="149.12" y="-674.73" font-family="Helvetica,sans-Serif" font-size="10.00" fill="grey">hd</text>
</g>
<!-- Node6&#45;&gt;Node1 -->
<g id="edge5_Node000001_Node000006" class="edge">
<title>Node6&#45;&gt;Node1</title>
<g id="a_edge5_Node000001_Node000006"><a xlink:title=" ">
<path fill="none" stroke="#9a32cd" stroke-dasharray="5,2" d="M489.77,-517.18C525.31,-561.77 612.58,-671.26 639.92,-705.56"/>
<polygon fill="#9a32cd" stroke="#9a32cd" points="492.56,-515.06 483.59,-509.42 487.09,-519.43 492.56,-515.06"/>
</a>
</g>
<text xml:space="preserve" text-anchor="start" x="554.25" y="-651.01" font-family="Helvetica,sans-Serif" font-size="10.00" fill="grey">frame</text>
</g>
<!-- Node7&#45;&gt;Node6 -->
<g id="edge7_Node000006_Node000007" class="edge">
<title>Node7&#45;&gt;Node6</title>
<g id="a_edge7_Node000006_Node000007"><a xlink:title=" ">
<path fill="none" stroke="#9a32cd" stroke-dasharray="5,2" d="M302.1,-475.31C331.97,-477.67 371.48,-481.27 406.25,-486.02 415.28,-487.25 424.96,-488.85 434.05,-490.47"/>
<polygon fill="#9a32cd" stroke="#9a32cd" points="302.49,-471.83 292.25,-474.55 301.95,-478.81 302.49,-471.83"/>
</a>
</g>
<text xml:space="preserve" text-anchor="start" x="360.12" y="-491.52" font-family="Helvetica,sans-Serif" font-size="10.00" fill="grey">data</text>
</g>
<!-- Node8&#45;&gt;Node6 -->
<g id="edge9_Node000006_Node000008" class="edge">
<title>Node8&#45;&gt;Node6</title>
<g id="a_edge9_Node000006_Node000008"><a xlink:title=" ">
<path fill="none" stroke="#9a32cd" stroke-dasharray="5,2" d="M290.8,-180.17C325.28,-196.64 376.6,-226.19 406.25,-267.02 458.95,-339.6 469.86,-453.2 472,-487.73"/>
<polygon fill="#9a32cd" stroke="#9a32cd" points="292.61,-177.14 282.06,-176.11 289.66,-183.49 292.61,-177.14"/>
</a>
</g>
<text xml:space="preserve" text-anchor="start" x="352.25" y="-272.52" font-family="Helvetica,sans-Serif" font-size="10.00" fill="grey">headers</text>
</g>
<!-- Node9 -->
<g id="Node000009" class="node">
<title>Node9</title>
<g id="a_Node000009"><a xlink:href="structnghttp2__priority__spec.html" target="_top" xlink:title=" ">
<polygon fill="white" stroke="#bfbfbf" points="112,-338.02 3,-338.02 3,-318.02 112,-318.02 112,-338.02"/>
<text xml:space="preserve" text-anchor="middle" x="57.5" y="-324.52" font-family="Helvetica,sans-Serif" font-size="10.00">nghttp2_priority_spec</text>
</a>
</g>
</g>
<!-- Node9&#45;&gt;Node8 -->
<g id="edge11_Node000008_Node000009" class="edge">
<title>Node9&#45;&gt;Node8</title>
<g id="a_edge11_Node000008_Node000009"><a xlink:title=" ">
<path fill="none" stroke="#9a32cd" stroke-dasharray="5,2" d="M80.21,-310.33C92.53,-299.01 107.03,-283.25 115,-266.02 128.25,-237.35 109.29,-145.89 133,-125.02 165.37,-96.52 218.66,-135.11 241.86,-154.76"/>
<polygon fill="#9a32cd" stroke="#9a32cd" points="78.11,-307.52 72.89,-316.74 82.72,-312.78 78.11,-307.52"/>
</a>
</g>
<text xml:space="preserve" text-anchor="start" x="136" y="-130.52" font-family="Helvetica,sans-Serif" font-size="10.00" fill="grey">pri_spec</text>
</g>
<!-- Node9&#45;&gt;Node11 -->
<g id="edge15_Node000011_Node000009" class="edge">
<title>Node9&#45;&gt;Node11</title>
<g id="a_edge15_Node000011_Node000009"><a xlink:title=" ">
<path fill="none" stroke="#9a32cd" stroke-dasharray="5,2" d="M108.05,-341.81C135.29,-350.22 165.56,-361.2 175.75,-371.02 190.96,-385.68 178.23,-400.68 193.75,-415.02 199.09,-419.95 205.71,-423.6 212.57,-426.3"/>
<polygon fill="#9a32cd" stroke="#9a32cd" points="109.06,-338.46 98.48,-338.92 107.05,-345.16 109.06,-338.46"/>
</a>
</g>
<text xml:space="preserve" text-anchor="start" x="136" y="-376.52" font-family="Helvetica,sans-Serif" font-size="10.00" fill="grey">pri_spec</text>
</g>
<!-- Node10 -->
<g id="Node000010" class="node">
<title>Node10</title>
<g id="a_Node000010"><a xlink:href="structnghttp2__nv.html" target="_top" xlink:title=" ">
<polygon fill="white" stroke="#666666" points="89.5,-93.02 25.5,-93.02 25.5,-73.02 89.5,-73.02 89.5,-93.02"/>
<text xml:space="preserve" text-anchor="middle" x="57.5" y="-79.52" font-family="Helvetica,sans-Serif" font-size="10.00">nghttp2_nv</text>
</a>
</g>
</g>
<!-- Node10&#45;&gt;Node1 -->
<g id="edge32_Node000001_Node000010" class="edge">
<title>Node10&#45;&gt;Node1</title>
<g id="a_edge32_Node000001_Node000010"><a xlink:title=" ">
<path fill="none" stroke="#9a32cd" stroke-dasharray="5,2" d="M101.14,-72.02C123.56,-67.89 151.38,-65.41 175.75,-71.02 286.75,-96.56 326.38,-101.82 406.25,-183.02 570.16,-349.66 634.88,-647.1 646.34,-705.8"/>
<polygon fill="#9a32cd" stroke="#9a32cd" points="100.54,-68.57 91.43,-73.99 101.93,-75.43 100.54,-68.57"/>
</a>
</g>
<text xml:space="preserve" text-anchor="start" x="364.25" y="-188.52" font-family="Helvetica,sans-Serif" font-size="10.00" fill="grey">nv</text>
</g>
<!-- Node10&#45;&gt;Node8 -->
<g id="edge12_Node000008_Node000010" class="edge">
<title>Node10&#45;&gt;Node8</title>
<g id="a_edge12_Node000008_Node000010"><a xlink:title=" ">
<path fill="none" stroke="#9a32cd" stroke-dasharray="5,2" d="M101.13,-75.58C124.13,-73.45 152.49,-73.97 175.75,-84.02 209.69,-98.69 235.94,-136.2 247.22,-154.57"/>
<polygon fill="#9a32cd" stroke="#9a32cd" points="101.02,-72.07 91.48,-76.68 101.82,-79.02 101.02,-72.07"/>
</a>
</g>
<text xml:space="preserve" text-anchor="start" x="146.5" y="-89.52" font-family="Helvetica,sans-Serif" font-size="10.00" fill="grey">nva</text>
</g>
<!-- Node10&#45;&gt;Node15 -->
<g id="edge23_Node000015_Node000010" class="edge">
<title>Node10&#45;&gt;Node15</title>
<g id="a_edge23_Node000015_Node000010"><a xlink:title=" ">
<path fill="none" stroke="#9a32cd" stroke-dasharray="5,2" d="M78.76,-101.04C93.32,-113.56 113.7,-130.21 133,-143.02 150.98,-154.95 159.95,-151.32 175.75,-166.02 212.31,-200.03 238.86,-254.88 248.87,-277.63"/>
<polygon fill="#9a32cd" stroke="#9a32cd" points="81.09,-98.42 71.25,-94.49 76.49,-103.7 81.09,-98.42"/>
</a>
</g>
<text xml:space="preserve" text-anchor="start" x="146.5" y="-171.52" font-family="Helvetica,sans-Serif" font-size="10.00" fill="grey">nva</text>
</g>
<!-- Node11&#45;&gt;Node6 -->
<g id="edge13_Node000006_Node000011" class="edge">
<title>Node11&#45;&gt;Node6</title>
<g id="a_edge13_Node000006_Node000011"><a xlink:title=" ">
<path fill="none" stroke="#9a32cd" stroke-dasharray="5,2" d="M307.21,-436.21C336.96,-438.77 374.56,-444.28 406.25,-456.02 426.43,-463.49 446.93,-477.74 459.68,-487.55"/>
<polygon fill="#9a32cd" stroke="#9a32cd" points="307.55,-432.72 297.31,-435.45 307.02,-439.7 307.55,-432.72"/>
</a>
</g>
<text xml:space="preserve" text-anchor="start" x="354.88" y="-461.52" font-family="Helvetica,sans-Serif" font-size="10.00" fill="grey">priority</text>
</g>
<!-- Node12&#45;&gt;Node6 -->
<g id="edge16_Node000006_Node000012" class="edge">
<title>Node12&#45;&gt;Node6</title>
<g id="a_edge16_Node000006_Node000012"><a xlink:title=" ">
<path fill="none" stroke="#9a32cd" stroke-dasharray="5,2" d="M315.88,-553.66C343.81,-548.05 377.15,-540.17 406.25,-530.02 422.89,-524.21 440.84,-515.37 453.86,-508.45"/>
<polygon fill="#9a32cd" stroke="#9a32cd" points="315.3,-550.21 306.15,-555.56 316.64,-557.08 315.3,-550.21"/>
</a>
</g>
<text xml:space="preserve" text-anchor="start" x="346.25" y="-555.59" font-family="Helvetica,sans-Serif" font-size="10.00" fill="grey">rst_stream</text>
</g>
<!-- Node13&#45;&gt;Node6 -->
<g id="edge18_Node000006_Node000013" class="edge">
<title>Node13&#45;&gt;Node6</title>
<g id="a_edge18_Node000006_Node000013"><a xlink:title=" ">
<path fill="none" stroke="#9a32cd" stroke-dasharray="5,2" d="M309.58,-334.76C340.71,-340.42 378.89,-351.67 406.25,-374.02 444.25,-405.05 463.42,-463.8 469.9,-487.6"/>
<polygon fill="#9a32cd" stroke="#9a32cd" points="310.4,-331.34 299.96,-333.16 309.26,-338.25 310.4,-331.34"/>
</a>
</g>
<text xml:space="preserve" text-anchor="start" x="352.25" y="-379.52" font-family="Helvetica,sans-Serif" font-size="10.00" fill="grey">settings</text>
</g>
<!-- Node14 -->
<g id="Node000014" class="node">
<title>Node14</title>
<g id="a_Node000014"><a xlink:href="structnghttp2__settings__entry.html" target="_top" xlink:title=" ">
<polygon fill="white" stroke="#666666" points="115,-257.02 0,-257.02 0,-237.02 115,-237.02 115,-257.02"/>
<text xml:space="preserve" text-anchor="middle" x="57.5" y="-243.52" font-family="Helvetica,sans-Serif" font-size="10.00">nghttp2_settings_entry</text>
</a>
</g>
</g>
<!-- Node14&#45;&gt;Node13 -->
<g id="edge20_Node000013_Node000014" class="edge">
<title>Node14&#45;&gt;Node13</title>
<g id="a_edge20_Node000013_Node000014"><a xlink:title=" ">
<path fill="none" stroke="#9a32cd" stroke-dasharray="5,2" d="M108.17,-234.93C130.83,-232.35 156.78,-233.84 175.75,-248.02 197.71,-264.43 174.94,-287.08 193.75,-307.02 198.29,-311.82 203.96,-315.59 210,-318.53"/>
<polygon fill="#9a32cd" stroke="#9a32cd" points="107.91,-231.43 98.51,-236.33 108.91,-238.36 107.91,-231.43"/>
</a>
</g>
<text xml:space="preserve" text-anchor="start" x="150.62" y="-253.52" font-family="Helvetica,sans-Serif" font-size="10.00" fill="grey">iv</text>
</g>
<!-- Node15&#45;&gt;Node6 -->
<g id="edge21_Node000006_Node000015" class="edge">
<title>Node15&#45;&gt;Node6</title>
<g id="a_edge21_Node000006_Node000015"><a xlink:title=" ">
<path fill="none" stroke="#9a32cd" stroke-dasharray="5,2" d="M322.8,-287.31C351.43,-290.32 383.38,-298.47 406.25,-318.02 459.67,-363.66 470.03,-456.35 472.03,-487.52"/>
<polygon fill="#9a32cd" stroke="#9a32cd" points="323.38,-283.85 313.12,-286.5 322.79,-290.82 323.38,-283.85"/>
</a>
</g>
<text xml:space="preserve" text-anchor="start" x="339.12" y="-323.52" font-family="Helvetica,sans-Serif" font-size="10.00" fill="grey">push_promise</text>
</g>
<!-- Node16&#45;&gt;Node6 -->
<g id="edge24_Node000006_Node000016" class="edge">
<title>Node16&#45;&gt;Node6</title>
<g id="a_edge24_Node000006_Node000016"><a xlink:title=" ">
<path fill="none" stroke="#9a32cd" stroke-dasharray="5,2" d="M301.72,-635.67C339.69,-631.35 389.71,-623.68 406.25,-612.02 443.67,-585.65 463.06,-530.9 469.75,-508.21"/>
<polygon fill="#9a32cd" stroke="#9a32cd" points="301.43,-632.18 291.87,-636.74 302.19,-639.14 301.43,-632.18"/>
</a>
</g>
<text xml:space="preserve" text-anchor="start" x="360.5" y="-636.52" font-family="Helvetica,sans-Serif" font-size="10.00" fill="grey">ping</text>
</g>
<!-- Node17&#45;&gt;Node6 -->
<g id="edge26_Node000006_Node000017" class="edge">
<title>Node17&#45;&gt;Node6</title>
<g id="a_edge26_Node000006_Node000017"><a xlink:title=" ">
<path fill="none" stroke="#9a32cd" stroke-dasharray="5,2" d="M309.07,-594.57C345.48,-588.86 389.82,-580.39 406.25,-571.02 433.61,-555.42 455.86,-524.53 466.22,-508.39"/>
<polygon fill="#9a32cd" stroke="#9a32cd" points="308.92,-591.06 299.57,-596.03 309.98,-597.98 308.92,-591.06"/>
</a>
</g>
<text xml:space="preserve" text-anchor="start" x="352.62" y="-595.52" font-family="Helvetica,sans-Serif" font-size="10.00" fill="grey">goaway</text>
</g>
<!-- Node18&#45;&gt;Node6 -->
<g id="edge28_Node000006_Node000018" class="edge">
<title>Node18&#45;&gt;Node6</title>
<g id="a_edge28_Node000006_Node000018"><a xlink:title=" ">
<path fill="none" stroke="#9a32cd" stroke-dasharray="5,2" d="M326.26,-395.17C352.76,-397.53 382.22,-403.52 406.25,-417.02 436.19,-433.83 458.03,-469.97 467.41,-487.73"/>
<polygon fill="#9a32cd" stroke="#9a32cd" points="326.84,-391.71 316.61,-394.48 326.34,-398.69 326.84,-391.71"/>
</a>
</g>
<text xml:space="preserve" text-anchor="start" x="335.75" y="-422.52" font-family="Helvetica,sans-Serif" font-size="10.00" fill="grey">window_update</text>
</g>
<!-- Node19&#45;&gt;Node6 -->
<g id="edge30_Node000006_Node000019" class="edge">
<title>Node19&#45;&gt;Node6</title>
<g id="a_edge30_Node000006_Node000019"><a xlink:title=" ">
<path fill="none" stroke="#9a32cd" stroke-dasharray="5,2" d="M313.28,-674.14C349.51,-670.65 391.9,-664.28 406.25,-653.02 454.13,-615.44 467.94,-536.6 471.44,-508.36"/>
<polygon fill="#9a32cd" stroke="#9a32cd" points="313.43,-670.62 303.78,-675 314.06,-677.59 313.43,-670.62"/>
</a>
</g>
<text xml:space="preserve" text-anchor="start" x="362.75" y="-677.47" font-family="Helvetica,sans-Serif" font-size="10.00" fill="grey">ext</text>
</g>
<!-- Node20 -->
<g id="Node000020" class="node">
<title>Node20</title>
<g id="a_Node000020"><a xlink:href="structnghttp2__buf.html" target="_top" xlink:title=" ">
<polygon fill="white" stroke="#bfbfbf" points="507,-22.02 440,-22.02 440,-2.02 507,-2.02 507,-22.02"/>
<text xml:space="preserve" text-anchor="middle" x="473.5" y="-8.52" font-family="Helvetica,sans-Serif" font-size="10.00">nghttp2_buf</text>
</a>
</g>
</g>
<!-- Node20&#45;&gt;Node1 -->
<g id="edge33_Node000001_Node000020" class="edge">
<title>Node20&#45;&gt;Node1</title>
<g id="a_edge33_Node000001_Node000020"><a xlink:title=" ">
<path fill="none" stroke="#9a32cd" stroke-dasharray="5,2" d="M518.42,-1.42C543.41,1.81 573.43,0.51 592.5,-18.02 644.11,-68.16 647.94,-622.53 648.23,-705.62"/>
<polygon fill="#9a32cd" stroke="#9a32cd" points="518.18,2.09 508.85,-2.94 519.27,-4.83 518.18,2.09"/>
</a>
</g>
<text xml:space="preserve" text-anchor="start" x="543.75" y="-23.52" font-family="Helvetica,sans-Serif" font-size="10.00" fill="grey">scratchbuf</text>
</g>
</g>
</svg>
