<?xml version="1.0" encoding="UTF-8" standalone="no"?>
<!DOCTYPE svg PUBLIC "-//W3C//DTD SVG 1.1//EN"
 "http://www.w3.org/Graphics/SVG/1.1/DTD/svg11.dtd">
<!-- Generated by graphviz version 14.0.5 (0)
 -->
<!-- Title: csym_arg Pages: 1 -->
<svg width="706pt" height="626pt"
 viewBox="0.00 0.00 706.00 626.00" xmlns="http://www.w3.org/2000/svg" xmlns:xlink="http://www.w3.org/1999/xlink">
<g id="graph0" class="graph" transform="scale(1 1) rotate(0) translate(4 622)">
<title>csym_arg</title>
<!-- Node1 -->
<g id="Node000001" class="node">
<title>Node1</title>
<g id="a_Node000001"><a xlink:title=" ">
<polygon fill="#999999" stroke="#666666" points="232.38,-290 173.62,-290 173.62,-270 232.38,-270 232.38,-290"/>
<text xml:space="preserve" text-anchor="middle" x="203" y="-276.5" font-family="Helvetica,sans-Serif" font-size="10.00">csym_arg</text>
</a>
</g>
</g>
<!-- Node2 -->
<g id="Node000002" class="node">
<title>Node2</title>
<g id="a_Node000002"><a xlink:href="structRClass.html" target="_top" xlink:title=" ">
<polygon fill="white" stroke="#666666" points="175.5,-380 126.5,-380 126.5,-360 175.5,-360 175.5,-380"/>
<text xml:space="preserve" text-anchor="middle" x="151" y="-366.5" font-family="Helvetica,sans-Serif" font-size="10.00">RClass</text>
</a>
</g>
</g>
<!-- Node2&#45;&gt;Node1 -->
<g id="edge1_Node000001_Node000002" class="edge">
<title>Node2&#45;&gt;Node1</title>
<g id="a_edge1_Node000001_Node000002"><a xlink:title=" ">
<path fill="none" stroke="#9a32cd" stroke-dasharray="5,2" d="M146.66,-348.3C145.17,-335.75 145.4,-319.9 152.75,-308 157.59,-300.16 165.54,-294.46 173.71,-290.37"/>
<polygon fill="#9a32cd" stroke="#9a32cd" points="143.18,-348.72 148.29,-358.01 150.09,-347.57 143.18,-348.72"/>
</a>
</g>
<text xml:space="preserve" text-anchor="start" x="155.75" y="-321.5" font-family="Helvetica,sans-Serif" font-size="10.00" fill="grey">c</text>
</g>
<!-- Node2&#45;&gt;Node2 -->
<g id="edge31_Node000002_Node000002" class="edge">
<title>Node2&#45;&gt;Node2</title>
<g id="a_edge31_Node000002_Node000002"><a xlink:title=" ">
<path fill="none" stroke="#9a32cd" stroke-dasharray="5,2" d="M187.04,-377.07C190.97,-375.72 193.5,-373.36 193.5,-370 193.5,-364.02 185.5,-361.22 175.88,-361.6"/>
<polygon fill="#9a32cd" stroke="#9a32cd" points="186.9,-373.56 177.39,-378.23 187.73,-380.51 186.9,-373.56"/>
</a>
</g>
<text xml:space="preserve" text-anchor="start" x="196.5" y="-366.5" font-family="Helvetica,sans-Serif" font-size="10.00" fill="grey">super</text>
</g>
<!-- Node8 -->
<g id="Node000008" class="node">
<title>Node8</title>
<g id="a_Node000008"><a xlink:href="structRProc.html" target="_top" xlink:title=" ">
<polygon fill="white" stroke="#bfbfbf" points="350.88,-290 307.12,-290 307.12,-270 350.88,-270 350.88,-290"/>
<text xml:space="preserve" text-anchor="middle" x="329" y="-276.5" font-family="Helvetica,sans-Serif" font-size="10.00">RProc</text>
</a>
</g>
</g>
<!-- Node2&#45;&gt;Node8 -->
<g id="edge17_Node000008_Node000002" class="edge">
<title>Node2&#45;&gt;Node8</title>
<g id="a_edge17_Node000008_Node000002"><a xlink:title=" ">
<path fill="none" stroke="#9a32cd" stroke-dasharray="5,2" d="M172.31,-352.76C190.71,-339.34 218.41,-320.51 244.75,-308 265.01,-298.38 289.56,-290.95 306.92,-286.34"/>
<polygon fill="#9a32cd" stroke="#9a32cd" points="170.27,-349.92 164.33,-358.69 174.44,-355.54 170.27,-349.92"/>
</a>
</g>
<text xml:space="preserve" text-anchor="start" x="247.75" y="-321.5" font-family="Helvetica,sans-Serif" font-size="10.00" fill="grey">target_class</text>
</g>
<!-- Node17 -->
<g id="Node000017" class="node">
<title>Node17</title>
<g id="a_Node000017"><a xlink:href="structmrb__callinfo.html" target="_top" xlink:title=" ">
<polygon fill="white" stroke="#bfbfbf" points="294.25,-200 225.75,-200 225.75,-180 294.25,-180 294.25,-200"/>
<text xml:space="preserve" text-anchor="middle" x="260" y="-186.5" font-family="Helvetica,sans-Serif" font-size="10.00">mrb_callinfo</text>
</a>
</g>
</g>
<!-- Node2&#45;&gt;Node17 -->
<g id="edge27_Node000017_Node000002" class="edge">
<title>Node2&#45;&gt;Node17</title>
<g id="a_edge27_Node000017_Node000002"><a xlink:title=" ">
<path fill="none" stroke="#9a32cd" stroke-dasharray="5,2" d="M132.81,-351.59C113.89,-331.31 89.18,-297.11 105.75,-270 131.72,-227.52 188.58,-206.95 225.54,-197.71"/>
<polygon fill="#9a32cd" stroke="#9a32cd" points="130.11,-353.85 139.61,-358.54 135.11,-348.95 130.11,-353.85"/>
</a>
</g>
<text xml:space="preserve" text-anchor="start" x="108.75" y="-276.5" font-family="Helvetica,sans-Serif" font-size="10.00" fill="grey">target_class</text>
</g>
<!-- Node3 -->
<g id="Node000003" class="node">
<title>Node3</title>
<g id="a_Node000003"><a xlink:href="structiv__tbl.html" target="_top" xlink:title=" ">
<polygon fill="white" stroke="#bfbfbf" points="212.62,-470 173.38,-470 173.38,-450 212.62,-450 212.62,-470"/>
<text xml:space="preserve" text-anchor="middle" x="193" y="-456.5" font-family="Helvetica,sans-Serif" font-size="10.00">iv_tbl</text>
</a>
</g>
</g>
<!-- Node3&#45;&gt;Node2 -->
<g id="edge2_Node000002_Node000003" class="edge">
<title>Node3&#45;&gt;Node2</title>
<g id="a_edge2_Node000002_Node000003"><a xlink:title=" ">
<path fill="none" stroke="#9a32cd" stroke-dasharray="5,2" d="M183.65,-439.4C174.87,-421.02 162.14,-394.34 155.46,-380.35"/>
<polygon fill="#9a32cd" stroke="#9a32cd" points="180.39,-440.7 187.85,-448.22 186.7,-437.68 180.39,-440.7"/>
</a>
</g>
<text xml:space="preserve" text-anchor="start" x="182.41" y="-411.5" font-family="Helvetica,sans-Serif" font-size="10.00" fill="grey">iv</text>
</g>
<!-- Node4 -->
<g id="Node000004" class="node">
<title>Node4</title>
<g id="a_Node000004"><a xlink:href="structmrb__value.html" target="_top" xlink:title=" ">
<polygon fill="white" stroke="#bfbfbf" points="309.5,-544 248.5,-544 248.5,-524 309.5,-524 309.5,-544"/>
<text xml:space="preserve" text-anchor="middle" x="279" y="-530.5" font-family="Helvetica,sans-Serif" font-size="10.00">mrb_value</text>
</a>
</g>
</g>
<!-- Node4&#45;&gt;Node3 -->
<g id="edge3_Node000003_Node000004" class="edge">
<title>Node4&#45;&gt;Node3</title>
<g id="a_edge3_Node000003_Node000004"><a xlink:title=" ">
<path fill="none" stroke="#9a32cd" stroke-dasharray="5,2" d="M247.14,-518.42C240.74,-514.81 234.29,-510.63 228.75,-506 216.19,-495.51 205.05,-479.99 198.67,-470.19"/>
<polygon fill="#9a32cd" stroke="#9a32cd" points="245.2,-521.35 255.68,-522.91 248.45,-515.16 245.2,-521.35"/>
</a>
</g>
<text xml:space="preserve" text-anchor="start" x="231.75" y="-493.5" font-family="Helvetica,sans-Serif" font-size="10.00" fill="grey">ptr</text>
</g>
<!-- Node7 -->
<g id="Node000007" class="node">
<title>Node7</title>
<g id="a_Node000007"><a xlink:href="unionmt__ptr.html" target="_top" xlink:title=" ">
<polygon fill="white" stroke="#bfbfbf" points="359.88,-200 316.12,-200 316.12,-180 359.88,-180 359.88,-200"/>
<text xml:space="preserve" text-anchor="middle" x="338" y="-186.5" font-family="Helvetica,sans-Serif" font-size="10.00">mt_ptr</text>
</a>
</g>
</g>
<!-- Node4&#45;&gt;Node7 -->
<g id="edge30_Node000007_Node000004" class="edge">
<title>Node4&#45;&gt;Node7</title>
<g id="a_edge30_Node000007_Node000004"><a xlink:title=" ">
<path fill="none" stroke="#9a32cd" stroke-dasharray="5,2" d="M320.98,-526.67C377.22,-517.22 472.38,-497.56 493,-470 565.85,-372.61 399.82,-237.11 351,-200.46"/>
<polygon fill="#9a32cd" stroke="#9a32cd" points="320.74,-523.16 311.44,-528.23 321.87,-530.07 320.74,-523.16"/>
</a>
</g>
<text xml:space="preserve" text-anchor="start" x="507.99" y="-366.5" font-family="Helvetica,sans-Serif" font-size="10.00" fill="grey">func</text>
</g>
<!-- Node4&#45;&gt;Node8 -->
<g id="edge15_Node000008_Node000004" class="edge">
<title>Node4&#45;&gt;Node8</title>
<g id="a_edge15_Node000008_Node000004"><a xlink:title=" ">
<path fill="none" stroke="#9a32cd" stroke-dasharray="5,2" d="M283.07,-512.48C293.32,-460.82 319.89,-326.93 327.14,-290.35"/>
<polygon fill="#9a32cd" stroke="#9a32cd" points="279.65,-511.76 281.13,-522.25 286.51,-513.12 279.65,-511.76"/>
</a>
</g>
<text xml:space="preserve" text-anchor="start" x="308.73" y="-411.5" font-family="Helvetica,sans-Serif" font-size="10.00" fill="grey">func</text>
</g>
<!-- Node15 -->
<g id="Node000015" class="node">
<title>Node15</title>
<g id="a_Node000015"><a xlink:href="structREnv.html" target="_top" xlink:title=" ">
<polygon fill="white" stroke="#666666" points="352.38,-20 311.62,-20 311.62,0 352.38,0 352.38,-20"/>
<text xml:space="preserve" text-anchor="middle" x="332" y="-6.5" font-family="Helvetica,sans-Serif" font-size="10.00">REnv</text>
</a>
</g>
</g>
<!-- Node4&#45;&gt;Node15 -->
<g id="edge19_Node000015_Node000004" class="edge">
<title>Node4&#45;&gt;Node15</title>
<g id="a_edge19_Node000015_Node000004"><a xlink:title=" ">
<path fill="none" stroke="#9a32cd" stroke-dasharray="5,2" d="M320.95,-530.71C397.94,-525.34 554,-508.59 554,-461 554,-461 554,-461 554,-83 554,-40.86 407.45,-19.67 352.49,-13.2"/>
<polygon fill="#9a32cd" stroke="#9a32cd" points="321,-527.19 311.26,-531.34 321.46,-534.18 321,-527.19"/>
</a>
</g>
<text xml:space="preserve" text-anchor="start" x="557" y="-276.5" font-family="Helvetica,sans-Serif" font-size="10.00" fill="grey">stack</text>
</g>
<!-- Node16 -->
<g id="Node000016" class="node">
<title>Node16</title>
<g id="a_Node000016"><a xlink:href="structmrb__context.html" target="_top" xlink:title=" ">
<polygon fill="white" stroke="#bfbfbf" points="198,-94 128,-94 128,-74 198,-74 198,-94"/>
<text xml:space="preserve" text-anchor="middle" x="163" y="-80.5" font-family="Helvetica,sans-Serif" font-size="10.00">mrb_context</text>
</a>
</g>
</g>
<!-- Node4&#45;&gt;Node16 -->
<g id="edge22_Node000016_Node000004" class="edge">
<title>Node4&#45;&gt;Node16</title>
<g id="a_edge22_Node000016_Node000004"><a xlink:title=" ">
<path fill="none" stroke="#9a32cd" stroke-dasharray="5,2" d="M236.73,-530.84C158.72,-525.7 0,-509.3 0,-461 0,-461 0,-461 0,-189 0,-128.91 79.69,-102.01 127.63,-91.26"/>
<polygon fill="#9a32cd" stroke="#9a32cd" points="236.37,-534.33 246.57,-531.45 236.8,-527.34 236.37,-534.33"/>
</a>
</g>
<text xml:space="preserve" text-anchor="start" x="3" y="-329.5" font-family="Helvetica,sans-Serif" font-size="10.00" fill="grey">stbase</text>
<text xml:space="preserve" text-anchor="start" x="3" y="-313.5" font-family="Helvetica,sans-Serif" font-size="10.00" fill="grey">stend</text>
</g>
<!-- Node4&#45;&gt;Node17 -->
<g id="edge25_Node000017_Node000004" class="edge">
<title>Node4&#45;&gt;Node17</title>
<g id="a_edge25_Node000017_Node000004"><a xlink:title=" ">
<path fill="none" stroke="#9a32cd" stroke-dasharray="5,2" d="M270.9,-513.39C265.73,-499.11 260,-479.18 260,-461 260,-461 260,-461 260,-279 260,-250.28 260,-216.28 260,-200.25"/>
<polygon fill="#9a32cd" stroke="#9a32cd" points="267.55,-514.41 274.42,-522.47 274.07,-511.88 267.55,-514.41"/>
</a>
</g>
<text xml:space="preserve" text-anchor="start" x="263" y="-366.5" font-family="Helvetica,sans-Serif" font-size="10.00" fill="grey">stack</text>
</g>
<!-- Node5 -->
<g id="Node000005" class="node">
<title>Node5</title>
<g id="a_Node000005"><a xlink:href="unionmrb__value__union.html" target="_top" xlink:title=" ">
<polygon fill="white" stroke="#bfbfbf" points="323.75,-618 234.25,-618 234.25,-598 323.75,-598 323.75,-618"/>
<text xml:space="preserve" text-anchor="middle" x="279" y="-604.5" font-family="Helvetica,sans-Serif" font-size="10.00">mrb_value_union</text>
</a>
</g>
</g>
<!-- Node5&#45;&gt;Node4 -->
<g id="edge4_Node000004_Node000005" class="edge">
<title>Node5&#45;&gt;Node4</title>
<g id="a_edge4_Node000004_Node000005"><a xlink:title=" ">
<path fill="none" stroke="#9a32cd" stroke-dasharray="5,2" d="M279,-586.18C279,-572.29 279,-554.71 279,-544.19"/>
<polygon fill="#9a32cd" stroke="#9a32cd" points="275.5,-586.07 279,-596.07 282.5,-586.07 275.5,-586.07"/>
</a>
</g>
<text xml:space="preserve" text-anchor="start" x="282" y="-567.5" font-family="Helvetica,sans-Serif" font-size="10.00" fill="grey">value</text>
</g>
<!-- Node6 -->
<g id="Node000006" class="node">
<title>Node6</title>
<g id="a_Node000006"><a xlink:href="structmt__tbl.html" target="_top" xlink:title=" ">
<polygon fill="white" stroke="#bfbfbf" points="359.5,-94 316.5,-94 316.5,-74 359.5,-74 359.5,-94"/>
<text xml:space="preserve" text-anchor="middle" x="338" y="-80.5" font-family="Helvetica,sans-Serif" font-size="10.00">mt_tbl</text>
</a>
</g>
</g>
<!-- Node6&#45;&gt;Node2 -->
<g id="edge5_Node000002_Node000006" class="edge">
<title>Node6&#45;&gt;Node2</title>
<g id="a_edge5_Node000002_Node000006"><a xlink:title=" ">
<path fill="none" stroke="#9a32cd" stroke-dasharray="5,2" d="M305.09,-94.93C251.26,-104.43 228.34,-84.63 181,-112 129.38,-141.85 119.55,-162.12 98.75,-218 79.52,-269.65 69.78,-295.91 100,-342 106.04,-351.22 116.31,-357.5 126.05,-361.66"/>
<polygon fill="#9a32cd" stroke="#9a32cd" points="305.72,-98.38 314.81,-92.93 304.31,-91.52 305.72,-98.38"/>
</a>
</g>
<text xml:space="preserve" text-anchor="start" x="101.75" y="-231.5" font-family="Helvetica,sans-Serif" font-size="10.00" fill="grey">mt</text>
</g>
<!-- Node7&#45;&gt;Node6 -->
<g id="edge6_Node000006_Node000007" class="edge">
<title>Node7&#45;&gt;Node6</title>
<g id="a_edge6_Node000006_Node000007"><a xlink:title=" ">
<path fill="none" stroke="#9a32cd" stroke-dasharray="5,2" d="M338,-168.51C338,-146.04 338,-110.99 338,-94.36"/>
<polygon fill="#9a32cd" stroke="#9a32cd" points="334.5,-168.26 338,-178.26 341.5,-168.26 334.5,-168.26"/>
</a>
</g>
<text xml:space="preserve" text-anchor="start" x="341" y="-133.5" font-family="Helvetica,sans-Serif" font-size="10.00" fill="grey">ptr</text>
</g>
<!-- Node8&#45;&gt;Node7 -->
<g id="edge7_Node000007_Node000008" class="edge">
<title>Node8&#45;&gt;Node7</title>
<g id="a_edge7_Node000007_Node000008"><a xlink:title=" ">
<path fill="none" stroke="#9a32cd" stroke-dasharray="5,2" d="M331.11,-258.35C332.99,-240.02 335.64,-214.07 337.04,-200.35"/>
<polygon fill="#9a32cd" stroke="#9a32cd" points="327.65,-257.77 330.12,-268.08 334.62,-258.48 327.65,-257.77"/>
</a>
</g>
<text xml:space="preserve" text-anchor="start" x="338.09" y="-231.5" font-family="Helvetica,sans-Serif" font-size="10.00" fill="grey">proc</text>
</g>
<!-- Node8&#45;&gt;Node8 -->
<g id="edge16_Node000008_Node000008" class="edge">
<title>Node8&#45;&gt;Node8</title>
<g id="a_edge16_Node000008_Node000008"><a xlink:title=" ">
<path fill="none" stroke="#9a32cd" stroke-dasharray="5,2" d="M362.32,-287.24C366.29,-285.93 368.88,-283.51 368.88,-280 368.88,-273.76 360.7,-270.98 351.14,-271.66"/>
<polygon fill="#9a32cd" stroke="#9a32cd" points="362.26,-283.73 352.65,-288.19 362.94,-290.7 362.26,-283.73"/>
</a>
</g>
<text xml:space="preserve" text-anchor="start" x="371.88" y="-276.5" font-family="Helvetica,sans-Serif" font-size="10.00" fill="grey">upper</text>
</g>
<!-- Node8&#45;&gt;Node17 -->
<g id="edge24_Node000017_Node000008" class="edge">
<title>Node8&#45;&gt;Node17</title>
<g id="a_edge24_Node000017_Node000008"><a xlink:title=" ">
<path fill="none" stroke="#9a32cd" stroke-dasharray="5,2" d="M311.71,-261.61C308.81,-258.48 305.88,-255.2 303.25,-252 288.88,-234.57 274.07,-212.65 266.05,-200.4"/>
<polygon fill="#9a32cd" stroke="#9a32cd" points="309.09,-263.93 318.55,-268.72 314.14,-259.08 309.09,-263.93"/>
</a>
</g>
<text xml:space="preserve" text-anchor="start" x="306.25" y="-239.5" font-family="Helvetica,sans-Serif" font-size="10.00" fill="grey">blk</text>
<text xml:space="preserve" text-anchor="start" x="306.25" y="-223.5" font-family="Helvetica,sans-Serif" font-size="10.00" fill="grey">proc</text>
</g>
<!-- Node9 -->
<g id="Node000009" class="node">
<title>Node9</title>
<g id="a_Node000009"><a xlink:href="structmrb__irep.html" target="_top" xlink:title=" ">
<polygon fill="white" stroke="#bfbfbf" points="412.75,-380 359.25,-380 359.25,-360 412.75,-360 412.75,-380"/>
<text xml:space="preserve" text-anchor="middle" x="386" y="-366.5" font-family="Helvetica,sans-Serif" font-size="10.00">mrb_irep</text>
</a>
</g>
</g>
<!-- Node9&#45;&gt;Node8 -->
<g id="edge8_Node000008_Node000009" class="edge">
<title>Node9&#45;&gt;Node8</title>
<g id="a_edge8_Node000008_Node000009"><a xlink:title=" ">
<path fill="none" stroke="#9a32cd" stroke-dasharray="5,2" d="M373.81,-350.18C361.89,-331.78 344.24,-304.53 335.06,-290.35"/>
<polygon fill="#9a32cd" stroke="#9a32cd" points="370.7,-351.82 379.08,-358.31 376.58,-348.02 370.7,-351.82"/>
</a>
</g>
<text xml:space="preserve" text-anchor="start" x="370.56" y="-321.5" font-family="Helvetica,sans-Serif" font-size="10.00" fill="grey">irep</text>
</g>
<!-- Node9&#45;&gt;Node9 -->
<g id="edge11_Node000009_Node000009" class="edge">
<title>Node9&#45;&gt;Node9</title>
<g id="a_edge11_Node000009_Node000009"><a xlink:title=" ">
<path fill="none" stroke="#9a32cd" stroke-dasharray="5,2" d="M424.31,-376.95C428.24,-375.58 430.75,-373.26 430.75,-370 430.75,-364.2 422.82,-361.39 413.09,-361.57"/>
<polygon fill="#9a32cd" stroke="#9a32cd" points="424.05,-373.45 414.59,-378.23 424.96,-380.39 424.05,-373.45"/>
</a>
</g>
<text xml:space="preserve" text-anchor="start" x="433.75" y="-366.5" font-family="Helvetica,sans-Serif" font-size="10.00" fill="grey">reps</text>
</g>
<!-- Node10 -->
<g id="Node000010" class="node">
<title>Node10</title>
<g id="a_Node000010"><a xlink:href="structmrb__pool__value.html" target="_top" xlink:title=" ">
<polygon fill="white" stroke="#bfbfbf" points="484.12,-470 399.88,-470 399.88,-450 484.12,-450 484.12,-470"/>
<text xml:space="preserve" text-anchor="middle" x="442" y="-456.5" font-family="Helvetica,sans-Serif" font-size="10.00">mrb_pool_value</text>
</a>
</g>
</g>
<!-- Node10&#45;&gt;Node9 -->
<g id="edge9_Node000009_Node000010" class="edge">
<title>Node10&#45;&gt;Node9</title>
<g id="a_edge9_Node000009_Node000010"><a xlink:title=" ">
<path fill="none" stroke="#9a32cd" stroke-dasharray="5,2" d="M433.23,-439.41C427.36,-427.09 419.06,-411.1 410,-398 405.58,-391.6 399.81,-385.07 395.03,-380.03"/>
<polygon fill="#9a32cd" stroke="#9a32cd" points="429.89,-440.52 437.26,-448.13 436.24,-437.58 429.89,-440.52"/>
</a>
</g>
<text xml:space="preserve" text-anchor="start" x="432.57" y="-411.5" font-family="Helvetica,sans-Serif" font-size="10.00" fill="grey">pool</text>
</g>
<!-- Node11 -->
<g id="Node000011" class="node">
<title>Node11</title>
<g id="a_Node000011"><a xlink:href="classmrb__sym.html" target="_top" xlink:title=" ">
<polygon fill="white" stroke="#666666" points="382.25,-470 325.75,-470 325.75,-450 382.25,-450 382.25,-470"/>
<text xml:space="preserve" text-anchor="middle" x="354" y="-456.5" font-family="Helvetica,sans-Serif" font-size="10.00">mrb_sym</text>
</a>
</g>
</g>
<!-- Node11&#45;&gt;Node9 -->
<g id="edge10_Node000009_Node000011" class="edge">
<title>Node11&#45;&gt;Node9</title>
<g id="a_edge10_Node000009_Node000011"><a xlink:title=" ">
<path fill="none" stroke="#9a32cd" stroke-dasharray="5,2" d="M361.32,-438.88C367.99,-420.52 377.56,-394.2 382.6,-380.35"/>
<polygon fill="#9a32cd" stroke="#9a32cd" points="358.07,-437.57 357.94,-448.16 364.65,-439.96 358.07,-437.57"/>
</a>
</g>
<text xml:space="preserve" text-anchor="start" x="378.65" y="-419.5" font-family="Helvetica,sans-Serif" font-size="10.00" fill="grey">lv</text>
<text xml:space="preserve" text-anchor="start" x="378.65" y="-403.5" font-family="Helvetica,sans-Serif" font-size="10.00" fill="grey">syms</text>
</g>
<!-- Node12 -->
<g id="Node000012" class="node">
<title>Node12</title>
<g id="a_Node000012"><a xlink:href="structmrb__irep__debug__info.html" target="_top" xlink:title=" ">
<polygon fill="white" stroke="#bfbfbf" points="688,-470 582,-470 582,-450 688,-450 688,-470"/>
<text xml:space="preserve" text-anchor="middle" x="635" y="-456.5" font-family="Helvetica,sans-Serif" font-size="10.00">mrb_irep_debug_info</text>
</a>
</g>
</g>
<!-- Node12&#45;&gt;Node9 -->
<g id="edge12_Node000009_Node000012" class="edge">
<title>Node12&#45;&gt;Node9</title>
<g id="a_edge12_Node000009_Node000012"><a xlink:title=" ">
<path fill="none" stroke="#9a32cd" stroke-dasharray="5,2" d="M597.53,-445.76C546.78,-427.82 457.4,-396.23 412.83,-380.48"/>
<polygon fill="#9a32cd" stroke="#9a32cd" points="596.33,-449.05 606.93,-449.08 598.66,-442.45 596.33,-449.05"/>
</a>
</g>
<text xml:space="preserve" text-anchor="start" x="557.46" y="-411.5" font-family="Helvetica,sans-Serif" font-size="10.00" fill="grey">debug_info</text>
</g>
<!-- Node13 -->
<g id="Node000013" class="node">
<title>Node13</title>
<g id="a_Node000013"><a xlink:href="structmrb__irep__debug__info__file.html" target="_top" xlink:title=" ">
<polygon fill="white" stroke="#bfbfbf" points="697,-544 573,-544 573,-524 697,-524 697,-544"/>
<text xml:space="preserve" text-anchor="middle" x="635" y="-530.5" font-family="Helvetica,sans-Serif" font-size="10.00">mrb_irep_debug_info_file</text>
</a>
</g>
</g>
<!-- Node13&#45;&gt;Node12 -->
<g id="edge13_Node000012_Node000013" class="edge">
<title>Node13&#45;&gt;Node12</title>
<g id="a_edge13_Node000012_Node000013"><a xlink:title=" ">
<path fill="none" stroke="#9a32cd" stroke-dasharray="5,2" d="M635,-512.18C635,-498.29 635,-480.71 635,-470.19"/>
<polygon fill="#9a32cd" stroke="#9a32cd" points="631.5,-512.07 635,-522.07 638.5,-512.07 631.5,-512.07"/>
</a>
</g>
<text xml:space="preserve" text-anchor="start" x="638" y="-493.5" font-family="Helvetica,sans-Serif" font-size="10.00" fill="grey">files</text>
</g>
<!-- Node14 -->
<g id="Node000014" class="node">
<title>Node14</title>
<g id="a_Node000014"><a xlink:href="structmrb__irep__debug__info__line.html" target="_top" xlink:title=" ">
<polygon fill="white" stroke="#bfbfbf" points="698.12,-618 571.88,-618 571.88,-598 698.12,-598 698.12,-618"/>
<text xml:space="preserve" text-anchor="middle" x="635" y="-604.5" font-family="Helvetica,sans-Serif" font-size="10.00">mrb_irep_debug_info_line</text>
</a>
</g>
</g>
<!-- Node14&#45;&gt;Node13 -->
<g id="edge14_Node000013_Node000014" class="edge">
<title>Node14&#45;&gt;Node13</title>
<g id="a_edge14_Node000013_Node000014"><a xlink:title=" ">
<path fill="none" stroke="#9a32cd" stroke-dasharray="5,2" d="M635,-586.18C635,-572.29 635,-554.71 635,-544.19"/>
<polygon fill="#9a32cd" stroke="#9a32cd" points="631.5,-586.07 635,-596.07 638.5,-586.07 631.5,-586.07"/>
</a>
</g>
<text xml:space="preserve" text-anchor="start" x="638" y="-567.5" font-family="Helvetica,sans-Serif" font-size="10.00" fill="grey">flat_map</text>
</g>
<!-- Node15&#45;&gt;Node8 -->
<g id="edge18_Node000008_Node000015" class="edge">
<title>Node15&#45;&gt;Node8</title>
<g id="a_edge18_Node000008_Node000015"><a xlink:title=" ">
<path fill="none" stroke="#9a32cd" stroke-dasharray="5,2" d="M345.91,-29.45C354.07,-41.45 363.62,-57.82 368,-74 370.02,-81.45 380.34,-222.42 364,-252 359.99,-259.25 353.14,-265.19 346.55,-269.64"/>
<polygon fill="#9a32cd" stroke="#9a32cd" points="348.8,-27.47 340.14,-21.37 343.11,-31.54 348.8,-27.47"/>
</a>
</g>
<text xml:space="preserve" text-anchor="start" x="375.98" y="-133.5" font-family="Helvetica,sans-Serif" font-size="10.00" fill="grey">env</text>
</g>
<!-- Node15&#45;&gt;Node17 -->
<g id="edge26_Node000017_Node000015" class="edge">
<title>Node15&#45;&gt;Node17</title>
<g id="a_edge26_Node000017_Node000015"><a xlink:title=" ">
<path fill="none" stroke="#9a32cd" stroke-dasharray="5,2" d="M315.45,-28.93C305.29,-40.87 292.82,-57.37 285.25,-74 276.53,-93.16 265.49,-155.95 261.51,-179.75"/>
<polygon fill="#9a32cd" stroke="#9a32cd" points="317.97,-31.37 321.96,-21.55 312.72,-26.74 317.97,-31.37"/>
</a>
</g>
<text xml:space="preserve" text-anchor="start" x="288.25" y="-80.5" font-family="Helvetica,sans-Serif" font-size="10.00" fill="grey">env</text>
</g>
<!-- Node16&#45;&gt;Node15 -->
<g id="edge20_Node000015_Node000016" class="edge">
<title>Node16&#45;&gt;Node15</title>
<g id="a_edge20_Node000015_Node000016"><a xlink:title=" ">
<path fill="none" stroke="#9a32cd" stroke-dasharray="5,2" d="M187.08,-67.75C202.72,-58.3 223.81,-46.39 243.5,-38 265.96,-28.43 292.95,-20.7 311.17,-16.01"/>
<polygon fill="#9a32cd" stroke="#9a32cd" points="185.62,-64.54 178.94,-72.76 189.29,-70.5 185.62,-64.54"/>
</a>
</g>
<text xml:space="preserve" text-anchor="start" x="246.5" y="-43.5" font-family="Helvetica,sans-Serif" font-size="10.00" fill="grey">cxt</text>
</g>
<!-- Node16&#45;&gt;Node16 -->
<g id="edge21_Node000016_Node000016" class="edge">
<title>Node16&#45;&gt;Node16</title>
<g id="a_edge21_Node000016_Node000016"><a xlink:title=" ">
<path fill="none" stroke="#9a32cd" stroke-dasharray="5,2" d="M209.27,-89.48C213.41,-88.33 216,-86.51 216,-84 216,-79.66 208.24,-77.36 198.17,-77.09"/>
<polygon fill="#9a32cd" stroke="#9a32cd" points="209.14,-85.97 199.67,-90.72 210.03,-92.91 209.14,-85.97"/>
</a>
</g>
<text xml:space="preserve" text-anchor="start" x="219" y="-80.5" font-family="Helvetica,sans-Serif" font-size="10.00" fill="grey">prev</text>
</g>
<!-- Node18 -->
<g id="Node000018" class="node">
<title>Node18</title>
<g id="a_Node000018"><a xlink:href="structRFiber.html" target="_top" xlink:title=" ">
<polygon fill="white" stroke="#bfbfbf" points="174.62,-20 129.38,-20 129.38,0 174.62,0 174.62,-20"/>
<text xml:space="preserve" text-anchor="middle" x="152" y="-6.5" font-family="Helvetica,sans-Serif" font-size="10.00">RFiber</text>
</a>
</g>
</g>
<!-- Node16&#45;&gt;Node18 -->
<g id="edge29_Node000018_Node000016" class="edge">
<title>Node16&#45;&gt;Node18</title>
<g id="a_edge29_Node000018_Node000016"><a xlink:title=" ">
<path fill="none" stroke="#9a32cd" stroke-dasharray="5,2" d="M159.88,-62.6C157.75,-48.65 155.03,-30.82 153.4,-20.19"/>
<polygon fill="#9a32cd" stroke="#9a32cd" points="156.36,-62.73 161.33,-72.09 163.28,-61.68 156.36,-62.73"/>
</a>
</g>
<text xml:space="preserve" text-anchor="start" x="161.81" y="-43.5" font-family="Helvetica,sans-Serif" font-size="10.00" fill="grey">cxt</text>
</g>
<!-- Node17&#45;&gt;Node16 -->
<g id="edge23_Node000016_Node000017" class="edge">
<title>Node17&#45;&gt;Node16</title>
<g id="a_edge23_Node000016_Node000017"><a xlink:title=" ">
<path fill="none" stroke="#9a32cd" stroke-dasharray="5,2" d="M239.68,-172.41C235.87,-169.07 231.99,-165.5 228.5,-162 205.71,-139.12 181.84,-109.35 170.22,-94.42"/>
<polygon fill="#9a32cd" stroke="#9a32cd" points="237.2,-174.89 247.09,-178.69 241.73,-169.55 237.2,-174.89"/>
</a>
</g>
<text xml:space="preserve" text-anchor="start" x="231.5" y="-149.5" font-family="Helvetica,sans-Serif" font-size="10.00" fill="grey">ci</text>
<text xml:space="preserve" text-anchor="start" x="231.5" y="-133.5" font-family="Helvetica,sans-Serif" font-size="10.00" fill="grey">cibase</text>
<text xml:space="preserve" text-anchor="start" x="231.5" y="-117.5" font-family="Helvetica,sans-Serif" font-size="10.00" fill="grey">ciend</text>
</g>
<!-- Node18&#45;&gt;Node16 -->
<g id="edge28_Node000016_Node000018" class="edge">
<title>Node18&#45;&gt;Node16</title>
<g id="a_edge28_Node000016_Node000018"><a xlink:title=" ">
<path fill="none" stroke="#9a32cd" stroke-dasharray="5,2" d="M137.29,-29.68C132.7,-37.8 129.72,-47.41 133.5,-56 136.63,-63.12 142.67,-69.17 148.47,-73.74"/>
<polygon fill="#9a32cd" stroke="#9a32cd" points="140.04,-31.87 142.73,-21.62 134.24,-27.95 140.04,-31.87"/>
</a>
</g>
<text xml:space="preserve" text-anchor="start" x="136.5" y="-43.5" font-family="Helvetica,sans-Serif" font-size="10.00" fill="grey">fib</text>
</g>
</g>
</svg>
