<?xml version="1.0" encoding="UTF-8" standalone="no"?>
<!DOCTYPE svg PUBLIC "-//W3C//DTD SVG 1.1//EN"
 "http://www.w3.org/Graphics/SVG/1.1/DTD/svg11.dtd">
<!-- Generated by graphviz version 14.0.5 (0)
 -->
<!-- Title: shrpx::ResolverEntry Pages: 1 -->
<svg width="409pt" height="292pt"
 viewBox="0.00 0.00 409.00 292.00" xmlns="http://www.w3.org/2000/svg" xmlns:xlink="http://www.w3.org/1999/xlink">
<g id="graph0" class="graph" transform="scale(1 1) rotate(0) translate(4 288)">
<title>shrpx::ResolverEntry</title>
<!-- Node1 -->
<g id="Node000001" class="node">
<title>Node1</title>
<g id="a_Node000001"><a xlink:title=" ">
<polygon fill="#999999" stroke="#666666" points="252.88,-20 144.62,-20 144.62,0 252.88,0 252.88,-20"/>
<text xml:space="preserve" text-anchor="middle" x="198.75" y="-6.5" font-family="Helvetica,sans-Serif" font-size="10.00">shrpx::ResolverEntry</text>
</a>
</g>
</g>
<!-- Node2 -->
<g id="Node000002" class="node">
<title>Node2</title>
<g id="a_Node000002"><a xlink:href="classnghttp2_1_1ImmutableString.html" target="_top" xlink:title=" ">
<polygon fill="white" stroke="#bfbfbf" points="125.5,-100 0,-100 0,-80 125.5,-80 125.5,-100"/>
<text xml:space="preserve" text-anchor="middle" x="62.75" y="-86.5" font-family="Helvetica,sans-Serif" font-size="10.00">nghttp2::ImmutableString</text>
</a>
</g>
</g>
<!-- Node2&#45;&gt;Node1 -->
<g id="edge1_Node000001_Node000002" class="edge">
<title>Node2&#45;&gt;Node1</title>
<g id="a_edge1_Node000001_Node000002"><a xlink:title=" ">
<path fill="none" stroke="#9a32cd" stroke-dasharray="5,2" d="M88.92,-73.99C116.49,-58.18 159.08,-33.75 182.29,-20.44"/>
<polygon fill="#9a32cd" stroke="#9a32cd" points="87.4,-70.83 80.47,-78.84 90.88,-76.9 87.4,-70.83"/>
</a>
</g>
<text xml:space="preserve" text-anchor="start" x="153.88" y="-43.5" font-family="Helvetica,sans-Serif" font-size="10.00" fill="grey">host</text>
</g>
<!-- Node3 -->
<g id="Node000003" class="node">
<title>Node3</title>
<g id="a_Node000003"><a xlink:href="structnghttp2_1_1DList.html" target="_top" xlink:title=" ">
<polygon fill="white" stroke="#bfbfbf" points="254,-106 143.5,-106 143.5,-74 254,-74 254,-106"/>
<text xml:space="preserve" text-anchor="start" x="151.5" y="-92.5" font-family="Helvetica,sans-Serif" font-size="10.00">nghttp2::DList&lt; shrpx</text>
<text xml:space="preserve" text-anchor="middle" x="198.75" y="-80.5" font-family="Helvetica,sans-Serif" font-size="10.00">::DNSQuery &gt;</text>
</a>
</g>
</g>
<!-- Node3&#45;&gt;Node1 -->
<g id="edge2_Node000001_Node000003" class="edge">
<title>Node3&#45;&gt;Node1</title>
<g id="a_edge2_Node000001_Node000003"><a xlink:title=" ">
<path fill="none" stroke="#9a32cd" stroke-dasharray="5,2" d="M198.75,-62.23C198.75,-47.77 198.75,-30.81 198.75,-20.49"/>
<polygon fill="#9a32cd" stroke="#9a32cd" points="195.25,-62.08 198.75,-72.08 202.25,-62.08 195.25,-62.08"/>
</a>
</g>
<text xml:space="preserve" text-anchor="start" x="201.75" y="-43.5" font-family="Helvetica,sans-Serif" font-size="10.00" fill="grey">qlist</text>
</g>
<!-- Node4 -->
<g id="Node000004" class="node">
<title>Node4</title>
<g id="a_Node000004"><a xlink:href="structshrpx_1_1DNSQuery.html" target="_top" xlink:title=" ">
<polygon fill="white" stroke="#bfbfbf" points="209.75,-203 115.75,-203 115.75,-183 209.75,-183 209.75,-203"/>
<text xml:space="preserve" text-anchor="middle" x="162.75" y="-189.5" font-family="Helvetica,sans-Serif" font-size="10.00">shrpx::DNSQuery</text>
</a>
</g>
</g>
<!-- Node4&#45;&gt;Node3 -->
<g id="edge3_Node000003_Node000004" class="edge">
<title>Node4&#45;&gt;Node3</title>
<g id="a_edge3_Node000003_Node000004"><a xlink:title=" ">
<path fill="none" stroke="#9a32cd" stroke-dasharray="5,2" d="M169.86,-172.05C176.77,-152.68 187.1,-123.7 193.35,-106.15"/>
<polygon fill="#9a32cd" stroke="#9a32cd" points="166.64,-170.66 166.58,-181.25 173.23,-173.01 166.64,-170.66"/>
</a>
</g>
<text xml:space="preserve" text-anchor="start" x="189.08" y="-145.5" font-family="Helvetica,sans-Serif" font-size="10.00" fill="grey">head</text>
<text xml:space="preserve" text-anchor="start" x="189.08" y="-129.5" font-family="Helvetica,sans-Serif" font-size="10.00" fill="grey">tail</text>
</g>
<!-- Node4&#45;&gt;Node4 -->
<g id="edge5_Node000004_Node000004" class="edge">
<title>Node4&#45;&gt;Node4</title>
<g id="a_edge5_Node000004_Node000004"><a xlink:title=" ">
<path fill="none" stroke="#9a32cd" stroke-dasharray="5,2" d="M221.19,-199.01C225.27,-197.64 227.75,-195.63 227.75,-193 227.75,-188.45 220.32,-185.78 210.08,-184.99"/>
<polygon fill="#9a32cd" stroke="#9a32cd" points="220.79,-195.52 211.57,-200.74 222.03,-202.41 220.79,-195.52"/>
</a>
</g>
<text xml:space="preserve" text-anchor="start" x="230.75" y="-197.5" font-family="Helvetica,sans-Serif" font-size="10.00" fill="grey">dlnext</text>
<text xml:space="preserve" text-anchor="start" x="230.75" y="-181.5" font-family="Helvetica,sans-Serif" font-size="10.00" fill="grey">dlprev</text>
</g>
<!-- Node5 -->
<g id="Node000005" class="node">
<title>Node5</title>
<g id="a_Node000005"><a xlink:href="classnghttp2_1_1StringRef.html" target="_top" xlink:title=" ">
<polygon fill="white" stroke="#bfbfbf" points="210.5,-284 115,-284 115,-264 210.5,-264 210.5,-284"/>
<text xml:space="preserve" text-anchor="middle" x="162.75" y="-270.5" font-family="Helvetica,sans-Serif" font-size="10.00">nghttp2::StringRef</text>
</a>
</g>
</g>
<!-- Node5&#45;&gt;Node4 -->
<g id="edge4_Node000004_Node000005" class="edge">
<title>Node5&#45;&gt;Node4</title>
<g id="a_edge4_Node000004_Node000005"><a xlink:title=" ">
<path fill="none" stroke="#9a32cd" stroke-dasharray="5,2" d="M162.75,-252.32C162.75,-236.48 162.75,-215.35 162.75,-203.36"/>
<polygon fill="#9a32cd" stroke="#9a32cd" points="159.25,-252.11 162.75,-262.11 166.25,-252.11 159.25,-252.11"/>
</a>
</g>
<text xml:space="preserve" text-anchor="start" x="165.75" y="-233.5" font-family="Helvetica,sans-Serif" font-size="10.00" fill="grey">host</text>
</g>
<!-- Node6 -->
<g id="Node000006" class="node">
<title>Node6</title>
<g id="a_Node000006"><a xlink:href="structnghttp2_1_1Address.html" target="_top" xlink:title=" ">
<polygon fill="white" stroke="#bfbfbf" points="369.88,-100 279.62,-100 279.62,-80 369.88,-80 369.88,-100"/>
<text xml:space="preserve" text-anchor="middle" x="324.75" y="-86.5" font-family="Helvetica,sans-Serif" font-size="10.00">nghttp2::Address</text>
</a>
</g>
</g>
<!-- Node6&#45;&gt;Node1 -->
<g id="edge6_Node000001_Node000006" class="edge">
<title>Node6&#45;&gt;Node1</title>
<g id="a_edge6_Node000001_Node000006"><a xlink:title=" ">
<path fill="none" stroke="#9a32cd" stroke-dasharray="5,2" d="M300.1,-73.74C274.57,-57.94 235.48,-33.74 214.07,-20.49"/>
<polygon fill="#9a32cd" stroke="#9a32cd" points="298.17,-76.66 308.51,-78.95 301.85,-70.71 298.17,-76.66"/>
</a>
</g>
<text xml:space="preserve" text-anchor="start" x="272.29" y="-43.5" font-family="Helvetica,sans-Serif" font-size="10.00" fill="grey">result</text>
</g>
<!-- Node7 -->
<g id="Node000007" class="node">
<title>Node7</title>
<g id="a_Node000007"><a xlink:href="unionnghttp2_1_1sockaddr__union.html" target="_top" xlink:title=" ">
<polygon fill="white" stroke="#bfbfbf" points="401,-203 278.5,-203 278.5,-183 401,-183 401,-203"/>
<text xml:space="preserve" text-anchor="middle" x="339.75" y="-189.5" font-family="Helvetica,sans-Serif" font-size="10.00">nghttp2::sockaddr_union</text>
</a>
</g>
</g>
<!-- Node7&#45;&gt;Node6 -->
<g id="edge7_Node000006_Node000007" class="edge">
<title>Node7&#45;&gt;Node6</title>
<g id="a_edge7_Node000006_Node000007"><a xlink:title=" ">
<path fill="none" stroke="#9a32cd" stroke-dasharray="5,2" d="M336.7,-171.43C333.47,-149.69 328.52,-116.37 326.13,-100.3"/>
<polygon fill="#9a32cd" stroke="#9a32cd" points="333.21,-171.8 338.14,-181.18 340.14,-170.78 333.21,-171.8"/>
</a>
</g>
<text xml:space="preserve" text-anchor="start" x="337.47" y="-137.5" font-family="Helvetica,sans-Serif" font-size="10.00" fill="grey">su</text>
</g>
</g>
</svg>
