<?xml version="1.0" encoding="UTF-8" standalone="no"?>
<!DOCTYPE svg PUBLIC "-//W3C//DTD SVG 1.1//EN"
 "http://www.w3.org/Graphics/SVG/1.1/DTD/svg11.dtd">
<!-- Generated by graphviz version 14.0.5 (0)
 -->
<!-- Title: mrdb_state Pages: 1 -->
<svg width="1809pt" height="599pt"
 viewBox="0.00 0.00 1809.00 599.00" xmlns="http://www.w3.org/2000/svg" xmlns:xlink="http://www.w3.org/1999/xlink">
<g id="graph0" class="graph" transform="scale(1 1) rotate(0) translate(4 595)">
<title>mrdb_state</title>
<!-- Node1 -->
<g id="Node000001" class="node">
<title>Node1</title>
<g id="a_Node000001"><a xlink:title=" ">
<polygon fill="#999999" stroke="#666666" points="1800.75,-142 1736,-142 1736,-122 1800.75,-122 1800.75,-142"/>
<text xml:space="preserve" text-anchor="middle" x="1768.38" y="-128.5" font-family="Helvetica,sans-Serif" font-size="10.00">mrdb_state</text>
</a>
</g>
</g>
<!-- Node2 -->
<g id="Node000002" class="node">
<title>Node2</title>
<g id="a_Node000002"><a xlink:href="structmrb__debug__context.html" target="_top" xlink:title=" ">
<polygon fill="white" stroke="#bfbfbf" points="1678.25,-142 1576.75,-142 1576.75,-122 1678.25,-122 1678.25,-142"/>
<text xml:space="preserve" text-anchor="middle" x="1627.5" y="-128.5" font-family="Helvetica,sans-Serif" font-size="10.00">mrb_debug_context</text>
</a>
</g>
</g>
<!-- Node2&#45;&gt;Node1 -->
<g id="edge1_Node000001_Node000002" class="edge">
<title>Node2&#45;&gt;Node1</title>
<g id="a_edge1_Node000001_Node000002"><a xlink:title=" ">
<path fill="none" stroke="#9a32cd" stroke-dasharray="5,2" d="M1690.03,-132C1705.88,-132 1722.28,-132 1735.88,-132"/>
<polygon fill="#9a32cd" stroke="#9a32cd" points="1690.15,-128.5 1680.15,-132 1690.15,-135.5 1690.15,-128.5"/>
</a>
</g>
<text xml:space="preserve" text-anchor="start" x="1699.25" y="-137.5" font-family="Helvetica,sans-Serif" font-size="10.00" fill="grey">dbg</text>
</g>
<!-- Node3 -->
<g id="Node000003" class="node">
<title>Node3</title>
<g id="a_Node000003"><a xlink:href="structmrb__irep.html" target="_top" xlink:title=" ">
<polygon fill="white" stroke="#bfbfbf" points="642.25,-124 588.75,-124 588.75,-104 642.25,-104 642.25,-124"/>
<text xml:space="preserve" text-anchor="middle" x="615.5" y="-110.5" font-family="Helvetica,sans-Serif" font-size="10.00">mrb_irep</text>
</a>
</g>
</g>
<!-- Node3&#45;&gt;Node2 -->
<g id="edge2_Node000002_Node000003" class="edge">
<title>Node3&#45;&gt;Node2</title>
<g id="a_edge2_Node000002_Node000003"><a xlink:title=" ">
<path fill="none" stroke="#9a32cd" stroke-dasharray="5,2" d="M653.63,-105.44C675.12,-101.21 702.76,-97 727.62,-97 727.62,-97 727.62,-97 1450.12,-97 1501.17,-97 1558.95,-111.28 1594.05,-121.59"/>
<polygon fill="#9a32cd" stroke="#9a32cd" points="652.94,-102.01 643.86,-107.46 654.36,-108.86 652.94,-102.01"/>
</a>
</g>
<text xml:space="preserve" text-anchor="start" x="1007.25" y="-118.5" font-family="Helvetica,sans-Serif" font-size="10.00" fill="grey">irep</text>
<text xml:space="preserve" text-anchor="start" x="1007.25" y="-102.5" font-family="Helvetica,sans-Serif" font-size="10.00" fill="grey">root_irep</text>
</g>
<!-- Node3&#45;&gt;Node3 -->
<g id="edge5_Node000003_Node000003" class="edge">
<title>Node3&#45;&gt;Node3</title>
<g id="a_edge5_Node000003_Node000003"><a xlink:title=" ">
<path fill="none" stroke="#9a32cd" stroke-dasharray="5,2" d="M604.86,-135.77C606.33,-139.45 609.88,-142 615.5,-142 626.08,-142 629.31,-132.98 625.17,-124.34"/>
<polygon fill="#9a32cd" stroke="#9a32cd" points="608.35,-136.11 605.7,-125.85 601.37,-135.52 608.35,-136.11"/>
</a>
</g>
<text xml:space="preserve" text-anchor="start" x="606.12" y="-147.5" font-family="Helvetica,sans-Serif" font-size="10.00" fill="grey">reps</text>
</g>
<!-- Node12 -->
<g id="Node000012" class="node">
<title>Node12</title>
<g id="a_Node000012"><a xlink:href="structRProc.html" target="_top" xlink:title=" ">
<polygon fill="white" stroke="#bfbfbf" points="750.5,-275 706.75,-275 706.75,-255 750.5,-255 750.5,-275"/>
<text xml:space="preserve" text-anchor="middle" x="728.62" y="-261.5" font-family="Helvetica,sans-Serif" font-size="10.00">RProc</text>
</a>
</g>
</g>
<!-- Node3&#45;&gt;Node12 -->
<g id="edge13_Node000012_Node000003" class="edge">
<title>Node3&#45;&gt;Node12</title>
<g id="a_edge13_Node000012_Node000003"><a xlink:title=" ">
<path fill="none" stroke="#9a32cd" stroke-dasharray="5,2" d="M630.71,-133.31C654.47,-165.6 701.48,-229.47 719.93,-254.55"/>
<polygon fill="#9a32cd" stroke="#9a32cd" points="633.78,-131.58 625.04,-125.6 628.14,-135.73 633.78,-131.58"/>
</a>
</g>
<text xml:space="preserve" text-anchor="start" x="668.5" y="-217.35" font-family="Helvetica,sans-Serif" font-size="10.00" fill="grey">irep</text>
</g>
<!-- Node4 -->
<g id="Node000004" class="node">
<title>Node4</title>
<g id="a_Node000004"><a xlink:href="structmrb__pool__value.html" target="_top" xlink:title=" ">
<polygon fill="white" stroke="#bfbfbf" points="484.88,-124 400.62,-124 400.62,-104 484.88,-104 484.88,-124"/>
<text xml:space="preserve" text-anchor="middle" x="442.75" y="-110.5" font-family="Helvetica,sans-Serif" font-size="10.00">mrb_pool_value</text>
</a>
</g>
</g>
<!-- Node4&#45;&gt;Node3 -->
<g id="edge3_Node000003_Node000004" class="edge">
<title>Node4&#45;&gt;Node3</title>
<g id="a_edge3_Node000003_Node000004"><a xlink:title=" ">
<path fill="none" stroke="#9a32cd" stroke-dasharray="5,2" d="M496.42,-114C526.95,-114 564.04,-114 588.41,-114"/>
<polygon fill="#9a32cd" stroke="#9a32cd" points="496.6,-110.5 486.6,-114 496.6,-117.5 496.6,-110.5"/>
</a>
</g>
<text xml:space="preserve" text-anchor="start" x="531.38" y="-119.5" font-family="Helvetica,sans-Serif" font-size="10.00" fill="grey">pool</text>
</g>
<!-- Node5 -->
<g id="Node000005" class="node">
<title>Node5</title>
<g id="a_Node000005"><a xlink:href="classmrb__sym.html" target="_top" xlink:title=" ">
<polygon fill="white" stroke="#666666" points="471,-67 414.5,-67 414.5,-47 471,-47 471,-67"/>
<text xml:space="preserve" text-anchor="middle" x="442.75" y="-53.5" font-family="Helvetica,sans-Serif" font-size="10.00">mrb_sym</text>
</a>
</g>
</g>
<!-- Node5&#45;&gt;Node3 -->
<g id="edge4_Node000003_Node000005" class="edge">
<title>Node5&#45;&gt;Node3</title>
<g id="a_edge4_Node000003_Node000005"><a xlink:title=" ">
<path fill="none" stroke="#9a32cd" stroke-dasharray="5,2" d="M482.57,-57.86C507.59,-59.63 540.3,-64.27 567,-76 581.89,-82.54 596.06,-94.96 604.98,-103.82"/>
<polygon fill="#9a32cd" stroke="#9a32cd" points="483.02,-54.38 472.83,-57.3 482.62,-61.37 483.02,-54.38"/>
</a>
</g>
<text xml:space="preserve" text-anchor="start" x="528.38" y="-97.5" font-family="Helvetica,sans-Serif" font-size="10.00" fill="grey">lv</text>
<text xml:space="preserve" text-anchor="start" x="528.38" y="-81.5" font-family="Helvetica,sans-Serif" font-size="10.00" fill="grey">syms</text>
</g>
<!-- Node6 -->
<g id="Node000006" class="node">
<title>Node6</title>
<g id="a_Node000006"><a xlink:href="structmrb__irep__debug__info.html" target="_top" xlink:title=" ">
<polygon fill="white" stroke="#bfbfbf" points="495.75,-165 389.75,-165 389.75,-145 495.75,-145 495.75,-165"/>
<text xml:space="preserve" text-anchor="middle" x="442.75" y="-151.5" font-family="Helvetica,sans-Serif" font-size="10.00">mrb_irep_debug_info</text>
</a>
</g>
</g>
<!-- Node6&#45;&gt;Node3 -->
<g id="edge6_Node000003_Node000006" class="edge">
<title>Node6&#45;&gt;Node3</title>
<g id="a_edge6_Node000003_Node000006"><a xlink:title=" ">
<path fill="none" stroke="#9a32cd" stroke-dasharray="5,2" d="M507.31,-146.2C526.66,-142.84 547.87,-138.47 567,-133 575.03,-130.7 583.56,-127.53 591.15,-124.44"/>
<polygon fill="#9a32cd" stroke="#9a32cd" points="506.94,-142.71 497.65,-147.81 508.09,-149.62 506.94,-142.71"/>
</a>
</g>
<text xml:space="preserve" text-anchor="start" x="516.75" y="-150" font-family="Helvetica,sans-Serif" font-size="10.00" fill="grey">debug_info</text>
</g>
<!-- Node7 -->
<g id="Node000007" class="node">
<title>Node7</title>
<g id="a_Node000007"><a xlink:href="structmrb__irep__debug__info__file.html" target="_top" xlink:title=" ">
<polygon fill="white" stroke="#bfbfbf" points="329.75,-165 205.75,-165 205.75,-145 329.75,-145 329.75,-165"/>
<text xml:space="preserve" text-anchor="middle" x="267.75" y="-151.5" font-family="Helvetica,sans-Serif" font-size="10.00">mrb_irep_debug_info_file</text>
</a>
</g>
</g>
<!-- Node7&#45;&gt;Node6 -->
<g id="edge7_Node000006_Node000007" class="edge">
<title>Node7&#45;&gt;Node6</title>
<g id="a_edge7_Node000006_Node000007"><a xlink:title=" ">
<path fill="none" stroke="#9a32cd" stroke-dasharray="5,2" d="M341.73,-155C357.72,-155 374.35,-155 389.34,-155"/>
<polygon fill="#9a32cd" stroke="#9a32cd" points="341.74,-151.5 331.74,-155 341.74,-158.5 341.74,-151.5"/>
</a>
</g>
<text xml:space="preserve" text-anchor="start" x="350.75" y="-160.5" font-family="Helvetica,sans-Serif" font-size="10.00" fill="grey">files</text>
</g>
<!-- Node8 -->
<g id="Node000008" class="node">
<title>Node8</title>
<g id="a_Node000008"><a xlink:href="structmrb__irep__debug__info__line.html" target="_top" xlink:title=" ">
<polygon fill="white" stroke="#bfbfbf" points="126.25,-165 0,-165 0,-145 126.25,-145 126.25,-165"/>
<text xml:space="preserve" text-anchor="middle" x="63.12" y="-151.5" font-family="Helvetica,sans-Serif" font-size="10.00">mrb_irep_debug_info_line</text>
</a>
</g>
</g>
<!-- Node8&#45;&gt;Node7 -->
<g id="edge8_Node000007_Node000008" class="edge">
<title>Node8&#45;&gt;Node7</title>
<g id="a_edge8_Node000007_Node000008"><a xlink:title=" ">
<path fill="none" stroke="#9a32cd" stroke-dasharray="5,2" d="M137.98,-155C160.18,-155 184.27,-155 205.55,-155"/>
<polygon fill="#9a32cd" stroke="#9a32cd" points="138.09,-151.5 128.09,-155 138.09,-158.5 138.09,-151.5"/>
</a>
</g>
<text xml:space="preserve" text-anchor="start" x="147.25" y="-160.5" font-family="Helvetica,sans-Serif" font-size="10.00" fill="grey">flat_map</text>
</g>
<!-- Node9 -->
<g id="Node000009" class="node">
<title>Node9</title>
<g id="a_Node000009"><a xlink:href="structmrb__value.html" target="_top" xlink:title=" ">
<polygon fill="white" stroke="#bfbfbf" points="646,-410 585,-410 585,-390 646,-390 646,-410"/>
<text xml:space="preserve" text-anchor="middle" x="615.5" y="-396.5" font-family="Helvetica,sans-Serif" font-size="10.00">mrb_value</text>
</a>
</g>
</g>
<!-- Node9&#45;&gt;Node2 -->
<g id="edge9_Node000002_Node000009" class="edge">
<title>Node9&#45;&gt;Node2</title>
<g id="a_edge9_Node000002_Node000009"><a xlink:title=" ">
<path fill="none" stroke="#9a32cd" stroke-dasharray="5,2" d="M616.93,-378.32C619.34,-320.5 634.5,-167 727.62,-167 727.62,-167 727.62,-167 1450.12,-167 1501.17,-167 1558.95,-152.72 1594.05,-142.41"/>
<polygon fill="#9a32cd" stroke="#9a32cd" points="613.44,-378.07 616.62,-388.17 620.43,-378.29 613.44,-378.07"/>
</a>
</g>
<text xml:space="preserve" text-anchor="start" x="1016.62" y="-172.5" font-family="Helvetica,sans-Serif" font-size="10.00" fill="grey">regs</text>
</g>
<!-- Node11 -->
<g id="Node000011" class="node">
<title>Node11</title>
<g id="a_Node000011"><a xlink:href="structmrb__callinfo.html" target="_top" xlink:title=" ">
<polygon fill="white" stroke="#bfbfbf" points="1483.38,-373 1414.88,-373 1414.88,-353 1483.38,-353 1483.38,-373"/>
<text xml:space="preserve" text-anchor="middle" x="1449.12" y="-359.5" font-family="Helvetica,sans-Serif" font-size="10.00">mrb_callinfo</text>
</a>
</g>
</g>
<!-- Node9&#45;&gt;Node11 -->
<g id="edge32_Node000011_Node000009" class="edge">
<title>Node9&#45;&gt;Node11</title>
<g id="a_edge32_Node000011_Node000009"><a xlink:title=" ">
<path fill="none" stroke="#9a32cd" stroke-dasharray="5,2" d="M644.97,-415.52C666.9,-426.02 698.32,-438 727.62,-438 727.62,-438 727.62,-438 1240.62,-438 1315.7,-438 1397.45,-394.04 1431.65,-373.43"/>
<polygon fill="#9a32cd" stroke="#9a32cd" points="646.58,-412.41 636.08,-411.06 643.45,-418.67 646.58,-412.41"/>
</a>
</g>
<text xml:space="preserve" text-anchor="start" x="905.12" y="-443.5" font-family="Helvetica,sans-Serif" font-size="10.00" fill="grey">stack</text>
</g>
<!-- Node9&#45;&gt;Node12 -->
<g id="edge14_Node000012_Node000009" class="edge">
<title>Node9&#45;&gt;Node12</title>
<g id="a_edge14_Node000012_Node000009"><a xlink:title=" ">
<path fill="none" stroke="#9a32cd" stroke-dasharray="5,2" d="M626.89,-379.39C635.64,-363 649.09,-339.93 664,-322 679.17,-303.75 700.23,-286.05 713.89,-275.34"/>
<polygon fill="#9a32cd" stroke="#9a32cd" points="623.82,-377.69 622.32,-388.18 630.03,-380.92 623.82,-377.69"/>
</a>
</g>
<text xml:space="preserve" text-anchor="start" x="667" y="-327.5" font-family="Helvetica,sans-Serif" font-size="10.00" fill="grey">func</text>
</g>
<!-- Node14 -->
<g id="Node000014" class="node">
<title>Node14</title>
<g id="a_Node000014"><a xlink:href="structiv__tbl.html" target="_top" xlink:title=" ">
<polygon fill="white" stroke="#bfbfbf" points="807.75,-408 768.5,-408 768.5,-388 807.75,-388 807.75,-408"/>
<text xml:space="preserve" text-anchor="middle" x="788.12" y="-394.5" font-family="Helvetica,sans-Serif" font-size="10.00">iv_tbl</text>
</a>
</g>
</g>
<!-- Node9&#45;&gt;Node14 -->
<g id="edge18_Node000014_Node000009" class="edge">
<title>Node9&#45;&gt;Node14</title>
<g id="a_edge18_Node000014_Node000009"><a xlink:title=" ">
<path fill="none" stroke="#9a32cd" stroke-dasharray="5,2" d="M657.56,-399.52C692.73,-399.11 741.77,-398.53 768.3,-398.22"/>
<polygon fill="#9a32cd" stroke="#9a32cd" points="657.69,-396.02 647.73,-399.63 657.77,-403.02 657.69,-396.02"/>
</a>
</g>
<text xml:space="preserve" text-anchor="start" x="670.75" y="-404.92" font-family="Helvetica,sans-Serif" font-size="10.00" fill="grey">ptr</text>
</g>
<!-- Node16 -->
<g id="Node000016" class="node">
<title>Node16</title>
<g id="a_Node000016"><a xlink:href="unionmt__ptr.html" target="_top" xlink:title=" ">
<polygon fill="white" stroke="#bfbfbf" points="869.5,-364 825.75,-364 825.75,-344 869.5,-344 869.5,-364"/>
<text xml:space="preserve" text-anchor="middle" x="847.62" y="-350.5" font-family="Helvetica,sans-Serif" font-size="10.00">mt_ptr</text>
</a>
</g>
</g>
<!-- Node9&#45;&gt;Node16 -->
<g id="edge22_Node000016_Node000009" class="edge">
<title>Node9&#45;&gt;Node16</title>
<g id="a_edge22_Node000016_Node000009"><a xlink:title=" ">
<path fill="none" stroke="#9a32cd" stroke-dasharray="5,2" d="M657.17,-388.22C672.61,-384.01 690.41,-379.45 706.75,-376 748.6,-367.17 798.18,-360.18 825.65,-356.61"/>
<polygon fill="#9a32cd" stroke="#9a32cd" points="656.55,-384.76 647.85,-390.81 658.43,-391.51 656.55,-384.76"/>
</a>
</g>
<text xml:space="preserve" text-anchor="start" x="719.25" y="-381.5" font-family="Helvetica,sans-Serif" font-size="10.00" fill="grey">func</text>
</g>
<!-- Node17 -->
<g id="Node000017" class="node">
<title>Node17</title>
<g id="a_Node000017"><a xlink:href="structREnv.html" target="_top" xlink:title=" ">
<polygon fill="white" stroke="#666666" points="1788.75,-428 1748,-428 1748,-408 1788.75,-408 1788.75,-428"/>
<text xml:space="preserve" text-anchor="middle" x="1768.38" y="-414.5" font-family="Helvetica,sans-Serif" font-size="10.00">REnv</text>
</a>
</g>
</g>
<!-- Node9&#45;&gt;Node17 -->
<g id="edge25_Node000017_Node000009" class="edge">
<title>Node9&#45;&gt;Node17</title>
<g id="a_edge25_Node000017_Node000009"><a xlink:title=" ">
<path fill="none" stroke="#9a32cd" stroke-dasharray="5,2" d="M631.43,-419.03C650.92,-441.54 687.34,-476 727.62,-476 727.62,-476 727.62,-476 1628.5,-476 1677.36,-476 1728.94,-445.05 1753.2,-428.37"/>
<polygon fill="#9a32cd" stroke="#9a32cd" points="634.19,-416.88 625.12,-411.41 628.8,-421.35 634.19,-416.88"/>
</a>
</g>
<text xml:space="preserve" text-anchor="start" x="1122.88" y="-481.5" font-family="Helvetica,sans-Serif" font-size="10.00" fill="grey">stack</text>
</g>
<!-- Node18 -->
<g id="Node000018" class="node">
<title>Node18</title>
<g id="a_Node000018"><a xlink:href="structmrb__context.html" target="_top" xlink:title=" ">
<polygon fill="white" stroke="#bfbfbf" points="1662.5,-532 1592.5,-532 1592.5,-512 1662.5,-512 1662.5,-532"/>
<text xml:space="preserve" text-anchor="middle" x="1627.5" y="-518.5" font-family="Helvetica,sans-Serif" font-size="10.00">mrb_context</text>
</a>
</g>
</g>
<!-- Node9&#45;&gt;Node18 -->
<g id="edge28_Node000018_Node000009" class="edge">
<title>Node9&#45;&gt;Node18</title>
<g id="a_edge28_Node000018_Node000009"><a xlink:title=" ">
<path fill="none" stroke="#9a32cd" stroke-dasharray="5,2" d="M623.4,-421.16C630.77,-441.03 644.16,-470.55 664,-490 686.6,-512.16 695.97,-522 727.62,-522 727.62,-522 727.62,-522 1450.12,-522 1499.42,-522 1556.47,-522 1592.03,-522"/>
<polygon fill="#9a32cd" stroke="#9a32cd" points="626.76,-420.18 620.16,-411.89 620.15,-422.49 626.76,-420.18"/>
</a>
</g>
<text xml:space="preserve" text-anchor="start" x="1011.38" y="-543.5" font-family="Helvetica,sans-Serif" font-size="10.00" fill="grey">stbase</text>
<text xml:space="preserve" text-anchor="start" x="1011.38" y="-527.5" font-family="Helvetica,sans-Serif" font-size="10.00" fill="grey">stend</text>
</g>
<!-- Node10 -->
<g id="Node000010" class="node">
<title>Node10</title>
<g id="a_Node000010"><a xlink:href="unionmrb__value__union.html" target="_top" xlink:title=" ">
<polygon fill="white" stroke="#bfbfbf" points="487.5,-410 398,-410 398,-390 487.5,-390 487.5,-410"/>
<text xml:space="preserve" text-anchor="middle" x="442.75" y="-396.5" font-family="Helvetica,sans-Serif" font-size="10.00">mrb_value_union</text>
</a>
</g>
</g>
<!-- Node10&#45;&gt;Node9 -->
<g id="edge10_Node000009_Node000010" class="edge">
<title>Node10&#45;&gt;Node9</title>
<g id="a_edge10_Node000009_Node000010"><a xlink:title=" ">
<path fill="none" stroke="#9a32cd" stroke-dasharray="5,2" d="M499.15,-400C527.58,-400 561.1,-400 584.65,-400"/>
<polygon fill="#9a32cd" stroke="#9a32cd" points="499.24,-396.5 489.24,-400 499.24,-403.5 499.24,-396.5"/>
</a>
</g>
<text xml:space="preserve" text-anchor="start" x="528.75" y="-405.5" font-family="Helvetica,sans-Serif" font-size="10.00" fill="grey">value</text>
</g>
<!-- Node11&#45;&gt;Node2 -->
<g id="edge11_Node000002_Node000011" class="edge">
<title>Node11&#45;&gt;Node2</title>
<g id="a_edge11_Node000002_Node000011"><a xlink:title=" ">
<path fill="none" stroke="#9a32cd" stroke-dasharray="5,2" d="M1464.88,-343.67C1500.7,-296.76 1591.27,-178.14 1618.58,-142.37"/>
<polygon fill="#9a32cd" stroke="#9a32cd" points="1462.14,-341.5 1458.85,-351.57 1467.7,-345.75 1462.14,-341.5"/>
</a>
</g>
<text xml:space="preserve" text-anchor="start" x="1531" y="-266.83" font-family="Helvetica,sans-Serif" font-size="10.00" fill="grey">prvci</text>
</g>
<!-- Node11&#45;&gt;Node18 -->
<g id="edge29_Node000018_Node000011" class="edge">
<title>Node11&#45;&gt;Node18</title>
<g id="a_edge29_Node000018_Node000011"><a xlink:title=" ">
<path fill="none" stroke="#9a32cd" stroke-dasharray="5,2" d="M1470.85,-380.71C1492.87,-399.62 1528.58,-430.57 1558.75,-458 1579.34,-476.72 1602.85,-499.18 1616.06,-511.9"/>
<polygon fill="#9a32cd" stroke="#9a32cd" points="1473.33,-378.23 1463.46,-374.38 1468.78,-383.54 1473.33,-378.23"/>
</a>
</g>
<text xml:space="preserve" text-anchor="start" x="1527.25" y="-495.5" font-family="Helvetica,sans-Serif" font-size="10.00" fill="grey">ci</text>
<text xml:space="preserve" text-anchor="start" x="1527.25" y="-479.5" font-family="Helvetica,sans-Serif" font-size="10.00" fill="grey">cibase</text>
<text xml:space="preserve" text-anchor="start" x="1527.25" y="-463.5" font-family="Helvetica,sans-Serif" font-size="10.00" fill="grey">ciend</text>
</g>
<!-- Node12&#45;&gt;Node11 -->
<g id="edge12_Node000011_Node000012" class="edge">
<title>Node12&#45;&gt;Node11</title>
<g id="a_edge12_Node000011_Node000012"><a xlink:title=" ">
<path fill="none" stroke="#9a32cd" stroke-dasharray="5,2" d="M762.13,-262.44C785.59,-260.81 818.05,-259 846.62,-259 846.62,-259 846.62,-259 1240.62,-259 1323.63,-259 1407.41,-326.34 1436.97,-352.65"/>
<polygon fill="#9a32cd" stroke="#9a32cd" points="761.97,-258.94 752.25,-263.15 762.48,-265.92 761.97,-258.94"/>
</a>
</g>
<text xml:space="preserve" text-anchor="start" x="1016.62" y="-280.5" font-family="Helvetica,sans-Serif" font-size="10.00" fill="grey">blk</text>
<text xml:space="preserve" text-anchor="start" x="1016.62" y="-264.5" font-family="Helvetica,sans-Serif" font-size="10.00" fill="grey">proc</text>
</g>
<!-- Node12&#45;&gt;Node12 -->
<g id="edge15_Node000012_Node000012" class="edge">
<title>Node12&#45;&gt;Node12</title>
<g id="a_edge15_Node000012_Node000012"><a xlink:title=" ">
<path fill="none" stroke="#9a32cd" stroke-dasharray="5,2" d="M719.5,-286.77C720.76,-290.45 723.8,-293 728.62,-293 737.71,-293 740.47,-283.98 736.93,-275.34"/>
<polygon fill="#9a32cd" stroke="#9a32cd" points="722.98,-287.07 720.21,-276.85 716,-286.57 722.98,-287.07"/>
</a>
</g>
<text xml:space="preserve" text-anchor="start" x="716.62" y="-298.5" font-family="Helvetica,sans-Serif" font-size="10.00" fill="grey">upper</text>
</g>
<!-- Node12&#45;&gt;Node16 -->
<g id="edge21_Node000016_Node000012" class="edge">
<title>Node12&#45;&gt;Node16</title>
<g id="a_edge21_Node000016_Node000012"><a xlink:title=" ">
<path fill="none" stroke="#9a32cd" stroke-dasharray="5,2" d="M748.66,-282.92C754.8,-288.34 761.75,-294.14 768.5,-299 784.9,-310.82 791.17,-310.43 807.75,-322 817.36,-328.7 827.56,-337.16 835.1,-343.69"/>
<polygon fill="#9a32cd" stroke="#9a32cd" points="751.27,-280.55 741.51,-276.42 746.56,-285.74 751.27,-280.55"/>
</a>
</g>
<text xml:space="preserve" text-anchor="start" x="778.75" y="-327.5" font-family="Helvetica,sans-Serif" font-size="10.00" fill="grey">proc</text>
</g>
<!-- Node13 -->
<g id="Node000013" class="node">
<title>Node13</title>
<g id="a_Node000013"><a xlink:href="structRClass.html" target="_top" xlink:title=" ">
<polygon fill="white" stroke="#666666" points="1264.12,-370 1215.12,-370 1215.12,-350 1264.12,-350 1264.12,-370"/>
<text xml:space="preserve" text-anchor="middle" x="1239.62" y="-356.5" font-family="Helvetica,sans-Serif" font-size="10.00">RClass</text>
</a>
</g>
</g>
<!-- Node13&#45;&gt;Node11 -->
<g id="edge34_Node000011_Node000013" class="edge">
<title>Node13&#45;&gt;Node11</title>
<g id="a_edge34_Node000011_Node000013"><a xlink:title=" ">
<path fill="none" stroke="#9a32cd" stroke-dasharray="5,2" d="M1275.92,-360.51C1314.74,-361.07 1376.64,-361.97 1414.7,-362.52"/>
<polygon fill="#9a32cd" stroke="#9a32cd" points="1275.99,-357.01 1265.94,-360.37 1275.89,-364.01 1275.99,-357.01"/>
</a>
</g>
<text xml:space="preserve" text-anchor="start" x="1317.75" y="-367.36" font-family="Helvetica,sans-Serif" font-size="10.00" fill="grey">target_class</text>
</g>
<!-- Node13&#45;&gt;Node12 -->
<g id="edge16_Node000012_Node000013" class="edge">
<title>Node13&#45;&gt;Node12</title>
<g id="a_edge16_Node000012_Node000013"><a xlink:title=" ">
<path fill="none" stroke="#9a32cd" stroke-dasharray="5,2" d="M1204.07,-353.85C1126.23,-339.94 931.22,-304.8 768.5,-273 762.82,-271.89 756.68,-270.65 751,-269.48"/>
<polygon fill="#9a32cd" stroke="#9a32cd" points="1203.16,-357.24 1213.62,-355.55 1204.39,-350.35 1203.16,-357.24"/>
</a>
</g>
<text xml:space="preserve" text-anchor="start" x="890.5" y="-311.6" font-family="Helvetica,sans-Serif" font-size="10.00" fill="grey">target_class</text>
</g>
<!-- Node13&#45;&gt;Node13 -->
<g id="edge23_Node000013_Node000013" class="edge">
<title>Node13&#45;&gt;Node13</title>
<g id="a_edge23_Node000013_Node000013"><a xlink:title=" ">
<path fill="none" stroke="#9a32cd" stroke-dasharray="5,2" d="M1221.11,-381.44C1223.5,-385.3 1229.67,-388 1239.62,-388 1257.83,-388 1263.38,-378.98 1256.27,-370.34"/>
<polygon fill="#9a32cd" stroke="#9a32cd" points="1224.52,-382.27 1222.73,-371.83 1217.62,-381.11 1224.52,-382.27"/>
</a>
</g>
<text xml:space="preserve" text-anchor="start" x="1227.62" y="-393.5" font-family="Helvetica,sans-Serif" font-size="10.00" fill="grey">super</text>
</g>
<!-- Node14&#45;&gt;Node13 -->
<g id="edge17_Node000013_Node000014" class="edge">
<title>Node14&#45;&gt;Node13</title>
<g id="a_edge17_Node000013_Node000014"><a xlink:title=" ">
<path fill="none" stroke="#9a32cd" stroke-dasharray="5,2" d="M819.46,-397.67C896.52,-396.67 1098.39,-393.05 1164.5,-382 1181.71,-379.12 1200.56,-373.5 1214.94,-368.65"/>
<polygon fill="#9a32cd" stroke="#9a32cd" points="819.67,-394.16 809.72,-397.79 819.76,-401.16 819.67,-394.16"/>
</a>
</g>
<text xml:space="preserve" text-anchor="start" x="913.38" y="-402" font-family="Helvetica,sans-Serif" font-size="10.00" fill="grey">iv</text>
</g>
<!-- Node15 -->
<g id="Node000015" class="node">
<title>Node15</title>
<g id="a_Node000015"><a xlink:href="structmt__tbl.html" target="_top" xlink:title=" ">
<polygon fill="white" stroke="#bfbfbf" points="1047.5,-369 1004.5,-369 1004.5,-349 1047.5,-349 1047.5,-369"/>
<text xml:space="preserve" text-anchor="middle" x="1026" y="-355.5" font-family="Helvetica,sans-Serif" font-size="10.00">mt_tbl</text>
</a>
</g>
</g>
<!-- Node15&#45;&gt;Node13 -->
<g id="edge19_Node000013_Node000015" class="edge">
<title>Node15&#45;&gt;Node13</title>
<g id="a_edge19_Node000013_Node000015"><a xlink:title=" ">
<path fill="none" stroke="#9a32cd" stroke-dasharray="5,2" d="M1059.08,-359.15C1101.82,-359.35 1176.46,-359.71 1214.64,-359.89"/>
<polygon fill="#9a32cd" stroke="#9a32cd" points="1059.21,-355.65 1049.19,-359.1 1059.17,-362.65 1059.21,-355.65"/>
</a>
</g>
<text xml:space="preserve" text-anchor="start" x="1129.25" y="-365.15" font-family="Helvetica,sans-Serif" font-size="10.00" fill="grey">mt</text>
</g>
<!-- Node16&#45;&gt;Node15 -->
<g id="edge20_Node000015_Node000016" class="edge">
<title>Node16&#45;&gt;Node15</title>
<g id="a_edge20_Node000015_Node000016"><a xlink:title=" ">
<path fill="none" stroke="#9a32cd" stroke-dasharray="5,2" d="M881.22,-354.92C917.14,-355.94 973.85,-357.55 1004.2,-358.41"/>
<polygon fill="#9a32cd" stroke="#9a32cd" points="881.51,-351.43 871.41,-354.65 881.31,-358.43 881.51,-351.43"/>
</a>
</g>
<text xml:space="preserve" text-anchor="start" x="911.5" y="-362.15" font-family="Helvetica,sans-Serif" font-size="10.00" fill="grey">ptr</text>
</g>
<!-- Node17&#45;&gt;Node11 -->
<g id="edge33_Node000011_Node000017" class="edge">
<title>Node17&#45;&gt;Node11</title>
<g id="a_edge33_Node000011_Node000017"><a xlink:title=" ">
<path fill="none" stroke="#9a32cd" stroke-dasharray="5,2" d="M1736.53,-412.65C1676.78,-402.29 1545.69,-379.57 1483.78,-368.83"/>
<polygon fill="#9a32cd" stroke="#9a32cd" points="1735.88,-416.09 1746.33,-414.35 1737.07,-409.19 1735.88,-416.09"/>
</a>
</g>
<text xml:space="preserve" text-anchor="start" x="1619.62" y="-407.59" font-family="Helvetica,sans-Serif" font-size="10.00" fill="grey">env</text>
</g>
<!-- Node17&#45;&gt;Node12 -->
<g id="edge24_Node000012_Node000017" class="edge">
<title>Node17&#45;&gt;Node12</title>
<g id="a_edge24_Node000012_Node000017"><a xlink:title=" ">
<path fill="none" stroke="#9a32cd" stroke-dasharray="5,2" d="M1763.46,-396.52C1752.52,-343.94 1716.45,-213 1628.5,-213 846.62,-213 846.62,-213 846.62,-213 805.95,-213 763.64,-239.57 742.82,-254.73"/>
<polygon fill="#9a32cd" stroke="#9a32cd" points="1759.98,-396.93 1765.33,-406.07 1766.85,-395.58 1759.98,-396.93"/>
</a>
</g>
<text xml:space="preserve" text-anchor="start" x="1231.75" y="-218.5" font-family="Helvetica,sans-Serif" font-size="10.00" fill="grey">env</text>
</g>
<!-- Node18&#45;&gt;Node17 -->
<g id="edge26_Node000017_Node000018" class="edge">
<title>Node18&#45;&gt;Node17</title>
<g id="a_edge26_Node000017_Node000018"><a xlink:title=" ">
<path fill="none" stroke="#9a32cd" stroke-dasharray="5,2" d="M1673.5,-510.1C1688.63,-504.67 1704.97,-497.14 1718,-487 1738.93,-470.72 1754.84,-443.22 1762.44,-428.33"/>
<polygon fill="#9a32cd" stroke="#9a32cd" points="1672.57,-506.72 1664.19,-513.2 1674.79,-513.36 1672.57,-506.72"/>
</a>
</g>
<text xml:space="preserve" text-anchor="start" x="1700.38" y="-505.02" font-family="Helvetica,sans-Serif" font-size="10.00" fill="grey">cxt</text>
</g>
<!-- Node18&#45;&gt;Node18 -->
<g id="edge27_Node000018_Node000018" class="edge">
<title>Node18&#45;&gt;Node18</title>
<g id="a_edge27_Node000018_Node000018"><a xlink:title=" ">
<path fill="none" stroke="#9a32cd" stroke-dasharray="5,2" d="M1613.59,-543.77C1615.51,-547.45 1620.15,-550 1627.5,-550 1641.34,-550 1645.56,-540.98 1640.15,-532.34"/>
<polygon fill="#9a32cd" stroke="#9a32cd" points="1617.07,-544.17 1614.68,-533.84 1610.11,-543.4 1617.07,-544.17"/>
</a>
</g>
<text xml:space="preserve" text-anchor="start" x="1618.12" y="-555.5" font-family="Helvetica,sans-Serif" font-size="10.00" fill="grey">prev</text>
</g>
<!-- Node19 -->
<g id="Node000019" class="node">
<title>Node19</title>
<g id="a_Node000019"><a xlink:href="structRFiber.html" target="_top" xlink:title=" ">
<polygon fill="white" stroke="#bfbfbf" points="1791,-580 1745.75,-580 1745.75,-560 1791,-560 1791,-580"/>
<text xml:space="preserve" text-anchor="middle" x="1768.38" y="-566.5" font-family="Helvetica,sans-Serif" font-size="10.00">RFiber</text>
</a>
</g>
</g>
<!-- Node18&#45;&gt;Node19 -->
<g id="edge31_Node000019_Node000018" class="edge">
<title>Node18&#45;&gt;Node19</title>
<g id="a_edge31_Node000019_Node000018"><a xlink:title=" ">
<path fill="none" stroke="#9a32cd" stroke-dasharray="5,2" d="M1673.98,-533.16C1688.23,-537.06 1703.91,-541.79 1718,-547 1727.76,-550.61 1738.24,-555.36 1747.03,-559.61"/>
<polygon fill="#9a32cd" stroke="#9a32cd" points="1674.94,-529.79 1664.38,-530.6 1673.14,-536.56 1674.94,-529.79"/>
</a>
</g>
<text xml:space="preserve" text-anchor="start" x="1700.38" y="-552.5" font-family="Helvetica,sans-Serif" font-size="10.00" fill="grey">cxt</text>
</g>
<!-- Node19&#45;&gt;Node18 -->
<g id="edge30_Node000018_Node000019" class="edge">
<title>Node19&#45;&gt;Node18</title>
<g id="a_edge30_Node000018_Node000019"><a xlink:title=" ">
<path fill="none" stroke="#9a32cd" stroke-dasharray="5,2" d="M1733.88,-573.53C1721.77,-573.77 1708.16,-572.82 1696.25,-569 1673.35,-561.66 1651.33,-543.71 1638.89,-532.24"/>
<polygon fill="#9a32cd" stroke="#9a32cd" points="1734.04,-577.03 1743.86,-573.03 1733.69,-570.04 1734.04,-577.03"/>
</a>
</g>
<text xml:space="preserve" text-anchor="start" x="1701.88" y="-578.5" font-family="Helvetica,sans-Serif" font-size="10.00" fill="grey">fib</text>
</g>
<!-- Node20 -->
<g id="Node000020" class="node">
<title>Node20</title>
<g id="a_Node000020"><a xlink:href="structmrb__debug__breakpoint.html" target="_top" xlink:title=" ">
<polygon fill="white" stroke="#bfbfbf" points="1506.25,-67 1392,-67 1392,-47 1506.25,-47 1506.25,-67"/>
<text xml:space="preserve" text-anchor="middle" x="1449.12" y="-53.5" font-family="Helvetica,sans-Serif" font-size="10.00">mrb_debug_breakpoint</text>
</a>
</g>
</g>
<!-- Node20&#45;&gt;Node2 -->
<g id="edge35_Node000002_Node000020" class="edge">
<title>Node20&#45;&gt;Node2</title>
<g id="a_edge35_Node000002_Node000020"><a xlink:title=" ">
<path fill="none" stroke="#9a32cd" stroke-dasharray="5,2" d="M1517.81,-54.64C1531.8,-56.15 1546.12,-59.26 1558.75,-65 1586.16,-77.46 1608.84,-106.07 1619.66,-121.56"/>
<polygon fill="#9a32cd" stroke="#9a32cd" points="1518.44,-51.18 1508.2,-53.87 1517.89,-58.16 1518.44,-51.18"/>
</a>
</g>
<text xml:space="preserve" text-anchor="start" x="1536.25" y="-70.5" font-family="Helvetica,sans-Serif" font-size="10.00" fill="grey">bp</text>
</g>
<!-- Node21 -->
<g id="Node000021" class="node">
<title>Node21</title>
<g id="a_Node000021"><a xlink:href="unionmrb__debug__breakpoint_1_1point.html" target="_top" xlink:title=" ">
<polygon fill="white" stroke="#bfbfbf" points="1296.75,-67 1182.5,-67 1182.5,-35 1296.75,-35 1296.75,-67"/>
<text xml:space="preserve" text-anchor="start" x="1190.5" y="-53.5" font-family="Helvetica,sans-Serif" font-size="10.00">mrb_debug_breakpoint</text>
<text xml:space="preserve" text-anchor="middle" x="1239.62" y="-41.5" font-family="Helvetica,sans-Serif" font-size="10.00">::point</text>
</a>
</g>
</g>
<!-- Node21&#45;&gt;Node20 -->
<g id="edge36_Node000020_Node000021" class="edge">
<title>Node21&#45;&gt;Node20</title>
<g id="a_edge36_Node000020_Node000021"><a xlink:title=" ">
<path fill="none" stroke="#9a32cd" stroke-dasharray="5,2" d="M1308.35,-52.96C1335.32,-53.74 1365.98,-54.62 1391.71,-55.37"/>
<polygon fill="#9a32cd" stroke="#9a32cd" points="1308.66,-49.47 1298.56,-52.68 1308.46,-56.46 1308.66,-49.47"/>
</a>
</g>
<text xml:space="preserve" text-anchor="start" x="1333.88" y="-60.21" font-family="Helvetica,sans-Serif" font-size="10.00" fill="grey">point</text>
</g>
<!-- Node22 -->
<g id="Node000022" class="node">
<title>Node22</title>
<g id="a_Node000022"><a xlink:href="structmrb__debug__linepoint.html" target="_top" xlink:title=" ">
<polygon fill="white" stroke="#bfbfbf" points="1078.62,-61 973.38,-61 973.38,-41 1078.62,-41 1078.62,-61"/>
<text xml:space="preserve" text-anchor="middle" x="1026" y="-47.5" font-family="Helvetica,sans-Serif" font-size="10.00">mrb_debug_linepoint</text>
</a>
</g>
</g>
<!-- Node22&#45;&gt;Node21 -->
<g id="edge37_Node000021_Node000022" class="edge">
<title>Node22&#45;&gt;Node21</title>
<g id="a_edge37_Node000021_Node000022"><a xlink:title=" ">
<path fill="none" stroke="#9a32cd" stroke-dasharray="5,2" d="M1090.38,-51C1119.61,-51 1154.02,-51 1182.33,-51"/>
<polygon fill="#9a32cd" stroke="#9a32cd" points="1090.55,-47.5 1080.55,-51 1090.55,-54.5 1090.55,-47.5"/>
</a>
</g>
<text xml:space="preserve" text-anchor="start" x="1116.88" y="-56.5" font-family="Helvetica,sans-Serif" font-size="10.00" fill="grey">linepoint</text>
</g>
<!-- Node23 -->
<g id="Node000023" class="node">
<title>Node23</title>
<g id="a_Node000023"><a xlink:href="structmrb__debug__methodpoint.html" target="_top" xlink:title=" ">
<polygon fill="white" stroke="#bfbfbf" points="1087.25,-20 964.75,-20 964.75,0 1087.25,0 1087.25,-20"/>
<text xml:space="preserve" text-anchor="middle" x="1026" y="-6.5" font-family="Helvetica,sans-Serif" font-size="10.00">mrb_debug_methodpoint</text>
</a>
</g>
</g>
<!-- Node23&#45;&gt;Node21 -->
<g id="edge38_Node000021_Node000023" class="edge">
<title>Node23&#45;&gt;Node21</title>
<g id="a_edge38_Node000021_Node000023"><a xlink:title=" ">
<path fill="none" stroke="#9a32cd" stroke-dasharray="5,2" d="M1098.83,-17.84C1120.09,-20.72 1143.34,-24.42 1164.5,-29 1171.85,-30.59 1179.53,-32.53 1187.04,-34.61"/>
<polygon fill="#9a32cd" stroke="#9a32cd" points="1099.46,-14.39 1089.09,-16.56 1098.55,-21.33 1099.46,-14.39"/>
</a>
</g>
<text xml:space="preserve" text-anchor="start" x="1108.25" y="-34.5" font-family="Helvetica,sans-Serif" font-size="10.00" fill="grey">methodpoint</text>
</g>
</g>
</svg>
