<?xml version="1.0" encoding="UTF-8" standalone="no"?>
<!DOCTYPE svg PUBLIC "-//W3C//DTD SVG 1.1//EN"
 "http://www.w3.org/Graphics/SVG/1.1/DTD/svg11.dtd">
<!-- Generated by graphviz version 14.0.5 (0)
 -->
<!-- Title: shrpx::DNSQuery Pages: 1 -->
<svg width="153pt" height="116pt"
 viewBox="0.00 0.00 153.00 116.00" xmlns="http://www.w3.org/2000/svg" xmlns:xlink="http://www.w3.org/1999/xlink">
<g id="graph0" class="graph" transform="scale(1 1) rotate(0) translate(4 112)">
<title>shrpx::DNSQuery</title>
<!-- Node1 -->
<g id="Node000001" class="node">
<title>Node1</title>
<g id="a_Node000001"><a xlink:title=" ">
<polygon fill="#999999" stroke="#666666" points="94.75,-27 0.75,-27 0.75,-7 94.75,-7 94.75,-27"/>
<text xml:space="preserve" text-anchor="middle" x="47.75" y="-13.5" font-family="Helvetica,sans-Serif" font-size="10.00">shrpx::DNSQuery</text>
</a>
</g>
</g>
<!-- Node1&#45;&gt;Node1 -->
<g id="edge2_Node000001_Node000001" class="edge">
<title>Node1&#45;&gt;Node1</title>
<g id="a_edge2_Node000001_Node000001"><a xlink:title=" ">
<path fill="none" stroke="#9a32cd" stroke-dasharray="5,2" d="M106.19,-23.01C110.27,-21.64 112.75,-19.63 112.75,-17 112.75,-12.45 105.32,-9.78 95.08,-8.99"/>
<polygon fill="#9a32cd" stroke="#9a32cd" points="105.79,-19.52 96.57,-24.74 107.03,-26.41 105.79,-19.52"/>
</a>
</g>
<text xml:space="preserve" text-anchor="start" x="115.75" y="-21.5" font-family="Helvetica,sans-Serif" font-size="10.00" fill="grey">dlnext</text>
<text xml:space="preserve" text-anchor="start" x="115.75" y="-5.5" font-family="Helvetica,sans-Serif" font-size="10.00" fill="grey">dlprev</text>
</g>
<!-- Node2 -->
<g id="Node000002" class="node">
<title>Node2</title>
<g id="a_Node000002"><a xlink:href="classnghttp2_1_1StringRef.html" target="_top" xlink:title=" ">
<polygon fill="white" stroke="#bfbfbf" points="95.5,-108 0,-108 0,-88 95.5,-88 95.5,-108"/>
<text xml:space="preserve" text-anchor="middle" x="47.75" y="-94.5" font-family="Helvetica,sans-Serif" font-size="10.00">nghttp2::StringRef</text>
</a>
</g>
</g>
<!-- Node2&#45;&gt;Node1 -->
<g id="edge1_Node000001_Node000002" class="edge">
<title>Node2&#45;&gt;Node1</title>
<g id="a_edge1_Node000001_Node000002"><a xlink:title=" ">
<path fill="none" stroke="#9a32cd" stroke-dasharray="5,2" d="M47.75,-76.32C47.75,-60.48 47.75,-39.35 47.75,-27.36"/>
<polygon fill="#9a32cd" stroke="#9a32cd" points="44.25,-76.11 47.75,-86.11 51.25,-76.11 44.25,-76.11"/>
</a>
</g>
<text xml:space="preserve" text-anchor="start" x="50.75" y="-57.5" font-family="Helvetica,sans-Serif" font-size="10.00" fill="grey">host</text>
</g>
</g>
</svg>
