<?xml version="1.0" encoding="UTF-8" standalone="no"?>
<!DOCTYPE svg PUBLIC "-//W3C//DTD SVG 1.1//EN"
 "http://www.w3.org/Graphics/SVG/1.1/DTD/svg11.dtd">
<!-- Generated by graphviz version 14.0.5 (0)
 -->
<!-- Title: index_buckets_iter Pages: 1 -->
<svg width="180pt" height="416pt"
 viewBox="0.00 0.00 180.00 416.00" xmlns="http://www.w3.org/2000/svg" xmlns:xlink="http://www.w3.org/1999/xlink">
<g id="graph0" class="graph" transform="scale(1 1) rotate(0) translate(4 412)">
<title>index_buckets_iter</title>
<!-- Node1 -->
<g id="Node000001" class="node">
<title>Node1</title>
<g id="a_Node000001"><a xlink:title=" ">
<polygon fill="#999999" stroke="#666666" points="123.62,-20 25.88,-20 25.88,0 123.62,0 123.62,-20"/>
<text xml:space="preserve" text-anchor="middle" x="74.75" y="-6.5" font-family="Helvetica,sans-Serif" font-size="10.00">index_buckets_iter</text>
</a>
</g>
</g>
<!-- Node2 -->
<g id="Node000002" class="node">
<title>Node2</title>
<g id="a_Node000002"><a xlink:href="structRHash.html" target="_top" xlink:title=" ">
<polygon fill="white" stroke="#666666" points="98.12,-94 51.38,-94 51.38,-74 98.12,-74 98.12,-94"/>
<text xml:space="preserve" text-anchor="middle" x="74.75" y="-80.5" font-family="Helvetica,sans-Serif" font-size="10.00">RHash</text>
</a>
</g>
</g>
<!-- Node2&#45;&gt;Node1 -->
<g id="edge1_Node000001_Node000002" class="edge">
<title>Node2&#45;&gt;Node1</title>
<g id="a_edge1_Node000001_Node000002"><a xlink:title=" ">
<path fill="none" stroke="#9a32cd" stroke-dasharray="5,2" d="M74.75,-62.18C74.75,-48.29 74.75,-30.71 74.75,-20.19"/>
<polygon fill="#9a32cd" stroke="#9a32cd" points="71.25,-62.07 74.75,-72.07 78.25,-62.07 71.25,-62.07"/>
</a>
</g>
<text xml:space="preserve" text-anchor="start" x="77.75" y="-43.5" font-family="Helvetica,sans-Serif" font-size="10.00" fill="grey">h</text>
</g>
<!-- Node3 -->
<g id="Node000003" class="node">
<title>Node3</title>
<g id="a_Node000003"><a xlink:href="structiv__tbl.html" target="_top" xlink:title=" ">
<polygon fill="white" stroke="#bfbfbf" points="44.38,-206 5.12,-206 5.12,-186 44.38,-186 44.38,-206"/>
<text xml:space="preserve" text-anchor="middle" x="24.75" y="-192.5" font-family="Helvetica,sans-Serif" font-size="10.00">iv_tbl</text>
</a>
</g>
</g>
<!-- Node3&#45;&gt;Node2 -->
<g id="edge2_Node000002_Node000003" class="edge">
<title>Node3&#45;&gt;Node2</title>
<g id="a_edge2_Node000002_Node000003"><a xlink:title=" ">
<path fill="none" stroke="#9a32cd" stroke-dasharray="5,2" d="M29.98,-174.73C32.41,-166.31 35.58,-156.54 39.25,-148 47.78,-128.16 60.87,-106.54 68.55,-94.49"/>
<polygon fill="#9a32cd" stroke="#9a32cd" points="26.61,-173.75 27.37,-184.32 33.37,-175.59 26.61,-173.75"/>
</a>
</g>
<text xml:space="preserve" text-anchor="start" x="42.25" y="-154.5" font-family="Helvetica,sans-Serif" font-size="10.00" fill="grey">iv</text>
</g>
<!-- Node4 -->
<g id="Node000004" class="node">
<title>Node4</title>
<g id="a_Node000004"><a xlink:href="structmrb__value.html" target="_top" xlink:title=" ">
<polygon fill="white" stroke="#bfbfbf" points="75.25,-334 14.25,-334 14.25,-314 75.25,-314 75.25,-334"/>
<text xml:space="preserve" text-anchor="middle" x="44.75" y="-320.5" font-family="Helvetica,sans-Serif" font-size="10.00">mrb_value</text>
</a>
</g>
</g>
<!-- Node4&#45;&gt;Node3 -->
<g id="edge3_Node000003_Node000004" class="edge">
<title>Node4&#45;&gt;Node3</title>
<g id="a_edge3_Node000003_Node000004"><a xlink:title=" ">
<path fill="none" stroke="#9a32cd" stroke-dasharray="5,2" d="M38.16,-302.83C37.54,-300.54 36.97,-298.23 36.5,-296 29.66,-263.48 26.47,-224.05 25.3,-206.37"/>
<polygon fill="#9a32cd" stroke="#9a32cd" points="34.74,-303.61 40.99,-312.16 41.44,-301.58 34.74,-303.61"/>
</a>
</g>
<text xml:space="preserve" text-anchor="start" x="39.5" y="-275.5" font-family="Helvetica,sans-Serif" font-size="10.00" fill="grey">ptr</text>
</g>
<!-- Node6 -->
<g id="Node000006" class="node">
<title>Node6</title>
<g id="a_Node000006"><a xlink:href="structhash__entry.html" target="_top" xlink:title=" ">
<polygon fill="white" stroke="#bfbfbf" points="116.75,-244 52.75,-244 52.75,-224 116.75,-224 116.75,-244"/>
<text xml:space="preserve" text-anchor="middle" x="84.75" y="-230.5" font-family="Helvetica,sans-Serif" font-size="10.00">hash_entry</text>
</a>
</g>
</g>
<!-- Node4&#45;&gt;Node6 -->
<g id="edge6_Node000006_Node000004" class="edge">
<title>Node4&#45;&gt;Node6</title>
<g id="a_edge6_Node000006_Node000004"><a xlink:title=" ">
<path fill="none" stroke="#9a32cd" stroke-dasharray="5,2" d="M53.78,-303.14C62.13,-284.77 74.17,-258.27 80.5,-244.35"/>
<polygon fill="#9a32cd" stroke="#9a32cd" points="50.61,-301.65 49.66,-312.2 56.98,-304.55 50.61,-301.65"/>
</a>
</g>
<text xml:space="preserve" text-anchor="start" x="74.81" y="-283.5" font-family="Helvetica,sans-Serif" font-size="10.00" fill="grey">key</text>
<text xml:space="preserve" text-anchor="start" x="74.81" y="-267.5" font-family="Helvetica,sans-Serif" font-size="10.00" fill="grey">val</text>
</g>
<!-- Node5 -->
<g id="Node000005" class="node">
<title>Node5</title>
<g id="a_Node000005"><a xlink:href="unionmrb__value__union.html" target="_top" xlink:title=" ">
<polygon fill="white" stroke="#bfbfbf" points="89.5,-408 0,-408 0,-388 89.5,-388 89.5,-408"/>
<text xml:space="preserve" text-anchor="middle" x="44.75" y="-394.5" font-family="Helvetica,sans-Serif" font-size="10.00">mrb_value_union</text>
</a>
</g>
</g>
<!-- Node5&#45;&gt;Node4 -->
<g id="edge4_Node000004_Node000005" class="edge">
<title>Node5&#45;&gt;Node4</title>
<g id="a_edge4_Node000004_Node000005"><a xlink:title=" ">
<path fill="none" stroke="#9a32cd" stroke-dasharray="5,2" d="M44.75,-376.18C44.75,-362.29 44.75,-344.71 44.75,-334.19"/>
<polygon fill="#9a32cd" stroke="#9a32cd" points="41.25,-376.07 44.75,-386.07 48.25,-376.07 41.25,-376.07"/>
</a>
</g>
<text xml:space="preserve" text-anchor="start" x="47.75" y="-357.5" font-family="Helvetica,sans-Serif" font-size="10.00" fill="grey">value</text>
</g>
<!-- Node6&#45;&gt;Node2 -->
<g id="edge5_Node000002_Node000006" class="edge">
<title>Node6&#45;&gt;Node2</title>
<g id="a_edge5_Node000002_Node000006"><a xlink:title=" ">
<path fill="none" stroke="#9a32cd" stroke-dasharray="5,2" d="M83.37,-212.51C81.17,-179.96 76.96,-117.71 75.38,-94.25"/>
<polygon fill="#9a32cd" stroke="#9a32cd" points="79.86,-212.49 84.02,-222.23 86.84,-212.02 79.86,-212.49"/>
</a>
</g>
<text xml:space="preserve" text-anchor="start" x="83.25" y="-154.5" font-family="Helvetica,sans-Serif" font-size="10.00" fill="grey">ea</text>
</g>
<!-- Node7 -->
<g id="Node000007" class="node">
<title>Node7</title>
<g id="a_Node000007"><a xlink:href="structhash__table.html" target="_top" xlink:title=" ">
<polygon fill="white" stroke="#bfbfbf" points="172.38,-168 109.12,-168 109.12,-148 172.38,-148 172.38,-168"/>
<text xml:space="preserve" text-anchor="middle" x="140.75" y="-154.5" font-family="Helvetica,sans-Serif" font-size="10.00">hash_table</text>
</a>
</g>
</g>
<!-- Node6&#45;&gt;Node7 -->
<g id="edge8_Node000007_Node000006" class="edge">
<title>Node6&#45;&gt;Node7</title>
<g id="a_edge8_Node000007_Node000006"><a xlink:title=" ">
<path fill="none" stroke="#9a32cd" stroke-dasharray="5,2" d="M98.51,-214.82C109.73,-199.99 125.12,-179.65 133.89,-168.06"/>
<polygon fill="#9a32cd" stroke="#9a32cd" points="96,-212.33 92.76,-222.42 101.58,-216.56 96,-212.33"/>
</a>
</g>
<text xml:space="preserve" text-anchor="start" x="122.41" y="-192.5" font-family="Helvetica,sans-Serif" font-size="10.00" fill="grey">ea</text>
</g>
<!-- Node7&#45;&gt;Node2 -->
<g id="edge7_Node000002_Node000007" class="edge">
<title>Node7&#45;&gt;Node2</title>
<g id="a_edge7_Node000002_Node000007"><a xlink:title=" ">
<path fill="none" stroke="#9a32cd" stroke-dasharray="5,2" d="M124.71,-139.5C111.61,-125.21 93.61,-105.57 83.17,-94.19"/>
<polygon fill="#9a32cd" stroke="#9a32cd" points="121.76,-141.47 131.1,-146.47 126.92,-136.73 121.76,-141.47"/>
</a>
</g>
<text xml:space="preserve" text-anchor="start" x="118.6" y="-117.5" font-family="Helvetica,sans-Serif" font-size="10.00" fill="grey">ht</text>
</g>
</g>
</svg>
