<?xml version="1.0" encoding="UTF-8" standalone="no"?>
<!DOCTYPE svg PUBLIC "-//W3C//DTD SVG 1.1//EN"
 "http://www.w3.org/Graphics/SVG/1.1/DTD/svg11.dtd">
<!-- Generated by graphviz version 14.0.5 (0)
 -->
<!-- Title: mrb_cache_entry Pages: 1 -->
<svg width="739pt" height="626pt"
 viewBox="0.00 0.00 739.00 626.00" xmlns="http://www.w3.org/2000/svg" xmlns:xlink="http://www.w3.org/1999/xlink">
<g id="graph0" class="graph" transform="scale(1 1) rotate(0) translate(4 622)">
<title>mrb_cache_entry</title>
<!-- Node1 -->
<g id="Node000001" class="node">
<title>Node1</title>
<g id="a_Node000001"><a xlink:title=" ">
<polygon fill="#999999" stroke="#666666" points="264.5,-290 173.5,-290 173.5,-270 264.5,-270 264.5,-290"/>
<text xml:space="preserve" text-anchor="middle" x="219" y="-276.5" font-family="Helvetica,sans-Serif" font-size="10.00">mrb_cache_entry</text>
</a>
</g>
</g>
<!-- Node2 -->
<g id="Node000002" class="node">
<title>Node2</title>
<g id="a_Node000002"><a xlink:href="structRClass.html" target="_top" xlink:title=" ">
<polygon fill="white" stroke="#666666" points="203.5,-380 154.5,-380 154.5,-360 203.5,-360 203.5,-380"/>
<text xml:space="preserve" text-anchor="middle" x="179" y="-366.5" font-family="Helvetica,sans-Serif" font-size="10.00">RClass</text>
</a>
</g>
</g>
<!-- Node2&#45;&gt;Node1 -->
<g id="edge1_Node000001_Node000002" class="edge">
<title>Node2&#45;&gt;Node1</title>
<g id="a_edge1_Node000001_Node000002"><a xlink:title=" ">
<path fill="none" stroke="#9a32cd" stroke-dasharray="5,2" d="M175.07,-348.6C173.7,-336.16 173.9,-320.33 180.5,-308 184.51,-300.52 191.62,-294.66 198.64,-290.34"/>
<polygon fill="#9a32cd" stroke="#9a32cd" points="171.56,-348.82 176.54,-358.17 178.48,-347.75 171.56,-348.82"/>
</a>
</g>
<text xml:space="preserve" text-anchor="start" x="183.5" y="-329.5" font-family="Helvetica,sans-Serif" font-size="10.00" fill="grey">c</text>
<text xml:space="preserve" text-anchor="start" x="183.5" y="-313.5" font-family="Helvetica,sans-Serif" font-size="10.00" fill="grey">c0</text>
</g>
<!-- Node2&#45;&gt;Node2 -->
<g id="edge31_Node000002_Node000002" class="edge">
<title>Node2&#45;&gt;Node2</title>
<g id="a_edge31_Node000002_Node000002"><a xlink:title=" ">
<path fill="none" stroke="#9a32cd" stroke-dasharray="5,2" d="M215.04,-377.07C218.97,-375.72 221.5,-373.36 221.5,-370 221.5,-364.02 213.5,-361.22 203.88,-361.6"/>
<polygon fill="#9a32cd" stroke="#9a32cd" points="214.9,-373.56 205.39,-378.23 215.73,-380.51 214.9,-373.56"/>
</a>
</g>
<text xml:space="preserve" text-anchor="start" x="224.5" y="-366.5" font-family="Helvetica,sans-Serif" font-size="10.00" fill="grey">super</text>
</g>
<!-- Node8 -->
<g id="Node000008" class="node">
<title>Node8</title>
<g id="a_Node000008"><a xlink:href="structRProc.html" target="_top" xlink:title=" ">
<polygon fill="white" stroke="#bfbfbf" points="383.88,-290 340.12,-290 340.12,-270 383.88,-270 383.88,-290"/>
<text xml:space="preserve" text-anchor="middle" x="362" y="-276.5" font-family="Helvetica,sans-Serif" font-size="10.00">RProc</text>
</a>
</g>
</g>
<!-- Node2&#45;&gt;Node8 -->
<g id="edge17_Node000008_Node000002" class="edge">
<title>Node2&#45;&gt;Node8</title>
<g id="a_edge17_Node000008_Node000002"><a xlink:title=" ">
<path fill="none" stroke="#9a32cd" stroke-dasharray="5,2" d="M200.52,-352.91C219.33,-339.45 247.76,-320.5 274.75,-308 296.04,-298.14 321.88,-290.66 339.89,-286.1"/>
<polygon fill="#9a32cd" stroke="#9a32cd" points="198.63,-349.96 192.61,-358.68 202.75,-355.62 198.63,-349.96"/>
</a>
</g>
<text xml:space="preserve" text-anchor="start" x="277.75" y="-321.5" font-family="Helvetica,sans-Serif" font-size="10.00" fill="grey">target_class</text>
</g>
<!-- Node17 -->
<g id="Node000017" class="node">
<title>Node17</title>
<g id="a_Node000017"><a xlink:href="structmrb__callinfo.html" target="_top" xlink:title=" ">
<polygon fill="white" stroke="#bfbfbf" points="327.25,-200 258.75,-200 258.75,-180 327.25,-180 327.25,-200"/>
<text xml:space="preserve" text-anchor="middle" x="293" y="-186.5" font-family="Helvetica,sans-Serif" font-size="10.00">mrb_callinfo</text>
</a>
</g>
</g>
<!-- Node2&#45;&gt;Node17 -->
<g id="edge27_Node000017_Node000002" class="edge">
<title>Node2&#45;&gt;Node17</title>
<g id="a_edge27_Node000017_Node000002"><a xlink:title=" ">
<path fill="none" stroke="#9a32cd" stroke-dasharray="5,2" d="M153.08,-353.57C124.3,-334.43 84.43,-300.57 104.75,-270 138.99,-218.5 214.02,-200.5 258.32,-194.26"/>
<polygon fill="#9a32cd" stroke="#9a32cd" points="151.09,-356.46 161.4,-358.89 154.86,-350.56 151.09,-356.46"/>
</a>
</g>
<text xml:space="preserve" text-anchor="start" x="107.75" y="-276.5" font-family="Helvetica,sans-Serif" font-size="10.00" fill="grey">target_class</text>
</g>
<!-- Node3 -->
<g id="Node000003" class="node">
<title>Node3</title>
<g id="a_Node000003"><a xlink:href="structiv__tbl.html" target="_top" xlink:title=" ">
<polygon fill="white" stroke="#bfbfbf" points="230.62,-470 191.38,-470 191.38,-450 230.62,-450 230.62,-470"/>
<text xml:space="preserve" text-anchor="middle" x="211" y="-456.5" font-family="Helvetica,sans-Serif" font-size="10.00">iv_tbl</text>
</a>
</g>
</g>
<!-- Node3&#45;&gt;Node2 -->
<g id="edge2_Node000002_Node000003" class="edge">
<title>Node3&#45;&gt;Node2</title>
<g id="a_edge2_Node000002_Node000003"><a xlink:title=" ">
<path fill="none" stroke="#9a32cd" stroke-dasharray="5,2" d="M203.68,-438.88C197.01,-420.52 187.44,-394.2 182.4,-380.35"/>
<polygon fill="#9a32cd" stroke="#9a32cd" points="200.35,-439.96 207.06,-448.16 206.93,-437.57 200.35,-439.96"/>
</a>
</g>
<text xml:space="preserve" text-anchor="start" x="203.65" y="-411.5" font-family="Helvetica,sans-Serif" font-size="10.00" fill="grey">iv</text>
</g>
<!-- Node4 -->
<g id="Node000004" class="node">
<title>Node4</title>
<g id="a_Node000004"><a xlink:href="structmrb__value.html" target="_top" xlink:title=" ">
<polygon fill="white" stroke="#bfbfbf" points="339.5,-544 278.5,-544 278.5,-524 339.5,-524 339.5,-544"/>
<text xml:space="preserve" text-anchor="middle" x="309" y="-530.5" font-family="Helvetica,sans-Serif" font-size="10.00">mrb_value</text>
</a>
</g>
</g>
<!-- Node4&#45;&gt;Node3 -->
<g id="edge3_Node000003_Node000004" class="edge">
<title>Node4&#45;&gt;Node3</title>
<g id="a_edge3_Node000003_Node000004"><a xlink:title=" ">
<path fill="none" stroke="#9a32cd" stroke-dasharray="5,2" d="M278.98,-518.53C272.12,-514.78 265.01,-510.51 258.75,-506 243.78,-495.21 228.63,-480.06 219.53,-470.38"/>
<polygon fill="#9a32cd" stroke="#9a32cd" points="276.89,-521.39 287.37,-522.93 280.14,-515.19 276.89,-521.39"/>
</a>
</g>
<text xml:space="preserve" text-anchor="start" x="261.75" y="-493.5" font-family="Helvetica,sans-Serif" font-size="10.00" fill="grey">ptr</text>
</g>
<!-- Node7 -->
<g id="Node000007" class="node">
<title>Node7</title>
<g id="a_Node000007"><a xlink:href="unionmt__ptr.html" target="_top" xlink:title=" ">
<polygon fill="white" stroke="#bfbfbf" points="392.88,-200 349.12,-200 349.12,-180 392.88,-180 392.88,-200"/>
<text xml:space="preserve" text-anchor="middle" x="371" y="-186.5" font-family="Helvetica,sans-Serif" font-size="10.00">mt_ptr</text>
</a>
</g>
</g>
<!-- Node4&#45;&gt;Node7 -->
<g id="edge30_Node000007_Node000004" class="edge">
<title>Node4&#45;&gt;Node7</title>
<g id="a_edge30_Node000007_Node000004"><a xlink:title=" ">
<path fill="none" stroke="#9a32cd" stroke-dasharray="5,2" d="M350.98,-526.67C407.22,-517.22 502.38,-497.56 523,-470 595.52,-373.05 431.93,-237.24 383.81,-200.49"/>
<polygon fill="#9a32cd" stroke="#9a32cd" points="350.74,-523.16 341.44,-528.23 351.87,-530.07 350.74,-523.16"/>
</a>
</g>
<text xml:space="preserve" text-anchor="start" x="538.29" y="-366.5" font-family="Helvetica,sans-Serif" font-size="10.00" fill="grey">func</text>
</g>
<!-- Node4&#45;&gt;Node8 -->
<g id="edge15_Node000008_Node000004" class="edge">
<title>Node4&#45;&gt;Node8</title>
<g id="a_edge15_Node000008_Node000004"><a xlink:title=" ">
<path fill="none" stroke="#9a32cd" stroke-dasharray="5,2" d="M313.32,-512.48C324.18,-460.82 352.34,-326.93 360.03,-290.35"/>
<polygon fill="#9a32cd" stroke="#9a32cd" points="309.89,-511.74 311.26,-522.25 316.74,-513.19 309.89,-511.74"/>
</a>
</g>
<text xml:space="preserve" text-anchor="start" x="340.33" y="-411.5" font-family="Helvetica,sans-Serif" font-size="10.00" fill="grey">func</text>
</g>
<!-- Node15 -->
<g id="Node000015" class="node">
<title>Node15</title>
<g id="a_Node000015"><a xlink:href="structREnv.html" target="_top" xlink:title=" ">
<polygon fill="white" stroke="#666666" points="385.38,-20 344.62,-20 344.62,0 385.38,0 385.38,-20"/>
<text xml:space="preserve" text-anchor="middle" x="365" y="-6.5" font-family="Helvetica,sans-Serif" font-size="10.00">REnv</text>
</a>
</g>
</g>
<!-- Node4&#45;&gt;Node15 -->
<g id="edge19_Node000015_Node000004" class="edge">
<title>Node4&#45;&gt;Node15</title>
<g id="a_edge19_Node000015_Node000004"><a xlink:title=" ">
<path fill="none" stroke="#9a32cd" stroke-dasharray="5,2" d="M351.12,-530.81C428.85,-525.62 587,-509.13 587,-461 587,-461 587,-461 587,-83 587,-40.86 440.45,-19.67 385.49,-13.2"/>
<polygon fill="#9a32cd" stroke="#9a32cd" points="351.08,-527.31 341.32,-531.43 351.52,-534.29 351.08,-527.31"/>
</a>
</g>
<text xml:space="preserve" text-anchor="start" x="590" y="-276.5" font-family="Helvetica,sans-Serif" font-size="10.00" fill="grey">stack</text>
</g>
<!-- Node16 -->
<g id="Node000016" class="node">
<title>Node16</title>
<g id="a_Node000016"><a xlink:href="structmrb__context.html" target="_top" xlink:title=" ">
<polygon fill="white" stroke="#bfbfbf" points="231,-94 161,-94 161,-74 231,-74 231,-94"/>
<text xml:space="preserve" text-anchor="middle" x="196" y="-80.5" font-family="Helvetica,sans-Serif" font-size="10.00">mrb_context</text>
</a>
</g>
</g>
<!-- Node4&#45;&gt;Node16 -->
<g id="edge22_Node000016_Node000004" class="edge">
<title>Node4&#45;&gt;Node16</title>
<g id="a_edge22_Node000016_Node000004"><a xlink:title=" ">
<path fill="none" stroke="#9a32cd" stroke-dasharray="5,2" d="M266.74,-531.91C182.14,-528.58 0,-515.13 0,-461 0,-461 0,-461 0,-189 0,-117.16 104.02,-94.8 160.51,-87.95"/>
<polygon fill="#9a32cd" stroke="#9a32cd" points="266.61,-535.41 276.73,-532.27 266.86,-528.41 266.61,-535.41"/>
</a>
</g>
<text xml:space="preserve" text-anchor="start" x="3" y="-329.5" font-family="Helvetica,sans-Serif" font-size="10.00" fill="grey">stbase</text>
<text xml:space="preserve" text-anchor="start" x="3" y="-313.5" font-family="Helvetica,sans-Serif" font-size="10.00" fill="grey">stend</text>
</g>
<!-- Node4&#45;&gt;Node17 -->
<g id="edge25_Node000017_Node000004" class="edge">
<title>Node4&#45;&gt;Node17</title>
<g id="a_edge25_Node000017_Node000004"><a xlink:title=" ">
<path fill="none" stroke="#9a32cd" stroke-dasharray="5,2" d="M308.03,-512.37C304.98,-446.99 295.58,-246.08 293.44,-200.34"/>
<polygon fill="#9a32cd" stroke="#9a32cd" points="304.54,-512.51 308.5,-522.34 311.53,-512.19 304.54,-512.51"/>
</a>
</g>
<text xml:space="preserve" text-anchor="start" x="304.71" y="-366.5" font-family="Helvetica,sans-Serif" font-size="10.00" fill="grey">stack</text>
</g>
<!-- Node5 -->
<g id="Node000005" class="node">
<title>Node5</title>
<g id="a_Node000005"><a xlink:href="unionmrb__value__union.html" target="_top" xlink:title=" ">
<polygon fill="white" stroke="#bfbfbf" points="353.75,-618 264.25,-618 264.25,-598 353.75,-598 353.75,-618"/>
<text xml:space="preserve" text-anchor="middle" x="309" y="-604.5" font-family="Helvetica,sans-Serif" font-size="10.00">mrb_value_union</text>
</a>
</g>
</g>
<!-- Node5&#45;&gt;Node4 -->
<g id="edge4_Node000004_Node000005" class="edge">
<title>Node5&#45;&gt;Node4</title>
<g id="a_edge4_Node000004_Node000005"><a xlink:title=" ">
<path fill="none" stroke="#9a32cd" stroke-dasharray="5,2" d="M309,-586.18C309,-572.29 309,-554.71 309,-544.19"/>
<polygon fill="#9a32cd" stroke="#9a32cd" points="305.5,-586.07 309,-596.07 312.5,-586.07 305.5,-586.07"/>
</a>
</g>
<text xml:space="preserve" text-anchor="start" x="312" y="-567.5" font-family="Helvetica,sans-Serif" font-size="10.00" fill="grey">value</text>
</g>
<!-- Node6 -->
<g id="Node000006" class="node">
<title>Node6</title>
<g id="a_Node000006"><a xlink:href="structmt__tbl.html" target="_top" xlink:title=" ">
<polygon fill="white" stroke="#bfbfbf" points="392.5,-94 349.5,-94 349.5,-74 392.5,-74 392.5,-94"/>
<text xml:space="preserve" text-anchor="middle" x="371" y="-80.5" font-family="Helvetica,sans-Serif" font-size="10.00">mt_tbl</text>
</a>
</g>
</g>
<!-- Node6&#45;&gt;Node2 -->
<g id="edge5_Node000002_Node000006" class="edge">
<title>Node6&#45;&gt;Node2</title>
<g id="a_edge5_Node000002_Node000006"><a xlink:title=" ">
<path fill="none" stroke="#9a32cd" stroke-dasharray="5,2" d="M338.12,-94.98C284.52,-104.94 263.46,-88.68 214,-112 151.05,-141.68 128.99,-155.32 98.75,-218 74.79,-267.65 67.18,-299.26 102,-342 114.71,-357.59 137.01,-364.2 154.35,-366.98"/>
<polygon fill="#9a32cd" stroke="#9a32cd" points="338.75,-98.42 347.81,-92.93 337.3,-91.57 338.75,-98.42"/>
</a>
</g>
<text xml:space="preserve" text-anchor="start" x="101.75" y="-231.5" font-family="Helvetica,sans-Serif" font-size="10.00" fill="grey">mt</text>
</g>
<!-- Node7&#45;&gt;Node6 -->
<g id="edge6_Node000006_Node000007" class="edge">
<title>Node7&#45;&gt;Node6</title>
<g id="a_edge6_Node000006_Node000007"><a xlink:title=" ">
<path fill="none" stroke="#9a32cd" stroke-dasharray="5,2" d="M371,-168.51C371,-146.04 371,-110.99 371,-94.36"/>
<polygon fill="#9a32cd" stroke="#9a32cd" points="367.5,-168.26 371,-178.26 374.5,-168.26 367.5,-168.26"/>
</a>
</g>
<text xml:space="preserve" text-anchor="start" x="374" y="-133.5" font-family="Helvetica,sans-Serif" font-size="10.00" fill="grey">ptr</text>
</g>
<!-- Node8&#45;&gt;Node7 -->
<g id="edge7_Node000007_Node000008" class="edge">
<title>Node8&#45;&gt;Node7</title>
<g id="a_edge7_Node000007_Node000008"><a xlink:title=" ">
<path fill="none" stroke="#9a32cd" stroke-dasharray="5,2" d="M364.11,-258.35C365.99,-240.02 368.64,-214.07 370.04,-200.35"/>
<polygon fill="#9a32cd" stroke="#9a32cd" points="360.65,-257.77 363.12,-268.08 367.62,-258.48 360.65,-257.77"/>
</a>
</g>
<text xml:space="preserve" text-anchor="start" x="371.09" y="-231.5" font-family="Helvetica,sans-Serif" font-size="10.00" fill="grey">proc</text>
</g>
<!-- Node8&#45;&gt;Node8 -->
<g id="edge16_Node000008_Node000008" class="edge">
<title>Node8&#45;&gt;Node8</title>
<g id="a_edge16_Node000008_Node000008"><a xlink:title=" ">
<path fill="none" stroke="#9a32cd" stroke-dasharray="5,2" d="M395.32,-287.24C399.29,-285.93 401.88,-283.51 401.88,-280 401.88,-273.76 393.7,-270.98 384.14,-271.66"/>
<polygon fill="#9a32cd" stroke="#9a32cd" points="395.26,-283.73 385.65,-288.19 395.94,-290.7 395.26,-283.73"/>
</a>
</g>
<text xml:space="preserve" text-anchor="start" x="404.88" y="-276.5" font-family="Helvetica,sans-Serif" font-size="10.00" fill="grey">upper</text>
</g>
<!-- Node8&#45;&gt;Node17 -->
<g id="edge24_Node000017_Node000008" class="edge">
<title>Node8&#45;&gt;Node17</title>
<g id="a_edge24_Node000017_Node000008"><a xlink:title=" ">
<path fill="none" stroke="#9a32cd" stroke-dasharray="5,2" d="M344.71,-261.61C341.81,-258.48 338.88,-255.2 336.25,-252 321.88,-234.57 307.07,-212.65 299.05,-200.4"/>
<polygon fill="#9a32cd" stroke="#9a32cd" points="342.09,-263.93 351.55,-268.72 347.14,-259.08 342.09,-263.93"/>
</a>
</g>
<text xml:space="preserve" text-anchor="start" x="339.25" y="-239.5" font-family="Helvetica,sans-Serif" font-size="10.00" fill="grey">blk</text>
<text xml:space="preserve" text-anchor="start" x="339.25" y="-223.5" font-family="Helvetica,sans-Serif" font-size="10.00" fill="grey">proc</text>
</g>
<!-- Node9 -->
<g id="Node000009" class="node">
<title>Node9</title>
<g id="a_Node000009"><a xlink:href="structmrb__irep.html" target="_top" xlink:title=" ">
<polygon fill="white" stroke="#bfbfbf" points="438.75,-380 385.25,-380 385.25,-360 438.75,-360 438.75,-380"/>
<text xml:space="preserve" text-anchor="middle" x="412" y="-366.5" font-family="Helvetica,sans-Serif" font-size="10.00">mrb_irep</text>
</a>
</g>
</g>
<!-- Node9&#45;&gt;Node8 -->
<g id="edge8_Node000008_Node000009" class="edge">
<title>Node9&#45;&gt;Node8</title>
<g id="a_edge8_Node000008_Node000009"><a xlink:title=" ">
<path fill="none" stroke="#9a32cd" stroke-dasharray="5,2" d="M401.01,-349.66C390.56,-331.27 375.3,-304.4 367.31,-290.35"/>
<polygon fill="#9a32cd" stroke="#9a32cd" points="397.92,-351.3 405.9,-358.27 404,-347.84 397.92,-351.3"/>
</a>
</g>
<text xml:space="preserve" text-anchor="start" x="398.83" y="-321.5" font-family="Helvetica,sans-Serif" font-size="10.00" fill="grey">irep</text>
</g>
<!-- Node9&#45;&gt;Node9 -->
<g id="edge11_Node000009_Node000009" class="edge">
<title>Node9&#45;&gt;Node9</title>
<g id="a_edge11_Node000009_Node000009"><a xlink:title=" ">
<path fill="none" stroke="#9a32cd" stroke-dasharray="5,2" d="M450.31,-376.95C454.24,-375.58 456.75,-373.26 456.75,-370 456.75,-364.2 448.82,-361.39 439.09,-361.57"/>
<polygon fill="#9a32cd" stroke="#9a32cd" points="450.05,-373.45 440.59,-378.23 450.96,-380.39 450.05,-373.45"/>
</a>
</g>
<text xml:space="preserve" text-anchor="start" x="459.75" y="-366.5" font-family="Helvetica,sans-Serif" font-size="10.00" fill="grey">reps</text>
</g>
<!-- Node10 -->
<g id="Node000010" class="node">
<title>Node10</title>
<g id="a_Node000010"><a xlink:href="structmrb__pool__value.html" target="_top" xlink:title=" ">
<polygon fill="white" stroke="#bfbfbf" points="514.12,-470 429.88,-470 429.88,-450 514.12,-450 514.12,-470"/>
<text xml:space="preserve" text-anchor="middle" x="472" y="-456.5" font-family="Helvetica,sans-Serif" font-size="10.00">mrb_pool_value</text>
</a>
</g>
</g>
<!-- Node10&#45;&gt;Node9 -->
<g id="edge9_Node000009_Node000010" class="edge">
<title>Node10&#45;&gt;Node9</title>
<g id="a_edge9_Node000009_Node000010"><a xlink:title=" ">
<path fill="none" stroke="#9a32cd" stroke-dasharray="5,2" d="M462.22,-439.41C455.72,-427.09 446.63,-411.11 437,-398 432.31,-391.62 426.3,-385.08 421.34,-380.04"/>
<polygon fill="#9a32cd" stroke="#9a32cd" points="459.03,-440.86 466.71,-448.16 465.26,-437.66 459.03,-440.86"/>
</a>
</g>
<text xml:space="preserve" text-anchor="start" x="461.18" y="-411.5" font-family="Helvetica,sans-Serif" font-size="10.00" fill="grey">pool</text>
</g>
<!-- Node11 -->
<g id="Node000011" class="node">
<title>Node11</title>
<g id="a_Node000011"><a xlink:href="classmrb__sym.html" target="_top" xlink:title=" ">
<polygon fill="white" stroke="#666666" points="412.25,-470 355.75,-470 355.75,-450 412.25,-450 412.25,-470"/>
<text xml:space="preserve" text-anchor="middle" x="384" y="-456.5" font-family="Helvetica,sans-Serif" font-size="10.00">mrb_sym</text>
</a>
</g>
</g>
<!-- Node11&#45;&gt;Node9 -->
<g id="edge10_Node000009_Node000011" class="edge">
<title>Node11&#45;&gt;Node9</title>
<g id="a_edge10_Node000009_Node000011"><a xlink:title=" ">
<path fill="none" stroke="#9a32cd" stroke-dasharray="5,2" d="M390.49,-438.61C396.32,-420.27 404.64,-394.14 409.03,-380.35"/>
<polygon fill="#9a32cd" stroke="#9a32cd" points="387.15,-437.55 387.46,-448.14 393.82,-439.67 387.15,-437.55"/>
</a>
</g>
<text xml:space="preserve" text-anchor="start" x="405.94" y="-419.5" font-family="Helvetica,sans-Serif" font-size="10.00" fill="grey">lv</text>
<text xml:space="preserve" text-anchor="start" x="405.94" y="-403.5" font-family="Helvetica,sans-Serif" font-size="10.00" fill="grey">syms</text>
</g>
<!-- Node12 -->
<g id="Node000012" class="node">
<title>Node12</title>
<g id="a_Node000012"><a xlink:href="structmrb__irep__debug__info.html" target="_top" xlink:title=" ">
<polygon fill="white" stroke="#bfbfbf" points="721,-470 615,-470 615,-450 721,-450 721,-470"/>
<text xml:space="preserve" text-anchor="middle" x="668" y="-456.5" font-family="Helvetica,sans-Serif" font-size="10.00">mrb_irep_debug_info</text>
</a>
</g>
</g>
<!-- Node12&#45;&gt;Node9 -->
<g id="edge12_Node000009_Node000012" class="edge">
<title>Node12&#45;&gt;Node9</title>
<g id="a_edge12_Node000009_Node000012"><a xlink:title=" ">
<path fill="none" stroke="#9a32cd" stroke-dasharray="5,2" d="M629.78,-445.86C577.5,-427.89 484.97,-396.08 439.2,-380.35"/>
<polygon fill="#9a32cd" stroke="#9a32cd" points="628.58,-449.15 639.17,-449.09 630.85,-442.53 628.58,-449.15"/>
</a>
</g>
<text xml:space="preserve" text-anchor="start" x="588.2" y="-411.5" font-family="Helvetica,sans-Serif" font-size="10.00" fill="grey">debug_info</text>
</g>
<!-- Node13 -->
<g id="Node000013" class="node">
<title>Node13</title>
<g id="a_Node000013"><a xlink:href="structmrb__irep__debug__info__file.html" target="_top" xlink:title=" ">
<polygon fill="white" stroke="#bfbfbf" points="730,-544 606,-544 606,-524 730,-524 730,-544"/>
<text xml:space="preserve" text-anchor="middle" x="668" y="-530.5" font-family="Helvetica,sans-Serif" font-size="10.00">mrb_irep_debug_info_file</text>
</a>
</g>
</g>
<!-- Node13&#45;&gt;Node12 -->
<g id="edge13_Node000012_Node000013" class="edge">
<title>Node13&#45;&gt;Node12</title>
<g id="a_edge13_Node000012_Node000013"><a xlink:title=" ">
<path fill="none" stroke="#9a32cd" stroke-dasharray="5,2" d="M668,-512.18C668,-498.29 668,-480.71 668,-470.19"/>
<polygon fill="#9a32cd" stroke="#9a32cd" points="664.5,-512.07 668,-522.07 671.5,-512.07 664.5,-512.07"/>
</a>
</g>
<text xml:space="preserve" text-anchor="start" x="671" y="-493.5" font-family="Helvetica,sans-Serif" font-size="10.00" fill="grey">files</text>
</g>
<!-- Node14 -->
<g id="Node000014" class="node">
<title>Node14</title>
<g id="a_Node000014"><a xlink:href="structmrb__irep__debug__info__line.html" target="_top" xlink:title=" ">
<polygon fill="white" stroke="#bfbfbf" points="731.12,-618 604.88,-618 604.88,-598 731.12,-598 731.12,-618"/>
<text xml:space="preserve" text-anchor="middle" x="668" y="-604.5" font-family="Helvetica,sans-Serif" font-size="10.00">mrb_irep_debug_info_line</text>
</a>
</g>
</g>
<!-- Node14&#45;&gt;Node13 -->
<g id="edge14_Node000013_Node000014" class="edge">
<title>Node14&#45;&gt;Node13</title>
<g id="a_edge14_Node000013_Node000014"><a xlink:title=" ">
<path fill="none" stroke="#9a32cd" stroke-dasharray="5,2" d="M668,-586.18C668,-572.29 668,-554.71 668,-544.19"/>
<polygon fill="#9a32cd" stroke="#9a32cd" points="664.5,-586.07 668,-596.07 671.5,-586.07 664.5,-586.07"/>
</a>
</g>
<text xml:space="preserve" text-anchor="start" x="671" y="-567.5" font-family="Helvetica,sans-Serif" font-size="10.00" fill="grey">flat_map</text>
</g>
<!-- Node15&#45;&gt;Node8 -->
<g id="edge18_Node000008_Node000015" class="edge">
<title>Node15&#45;&gt;Node8</title>
<g id="a_edge18_Node000008_Node000015"><a xlink:title=" ">
<path fill="none" stroke="#9a32cd" stroke-dasharray="5,2" d="M378.91,-29.45C387.07,-41.45 396.62,-57.82 401,-74 403.02,-81.45 413.34,-222.42 397,-252 392.99,-259.25 386.14,-265.19 379.55,-269.64"/>
<polygon fill="#9a32cd" stroke="#9a32cd" points="381.8,-27.47 373.14,-21.37 376.11,-31.54 381.8,-27.47"/>
</a>
</g>
<text xml:space="preserve" text-anchor="start" x="408.98" y="-133.5" font-family="Helvetica,sans-Serif" font-size="10.00" fill="grey">env</text>
</g>
<!-- Node15&#45;&gt;Node17 -->
<g id="edge26_Node000017_Node000015" class="edge">
<title>Node15&#45;&gt;Node17</title>
<g id="a_edge26_Node000017_Node000015"><a xlink:title=" ">
<path fill="none" stroke="#9a32cd" stroke-dasharray="5,2" d="M348.45,-28.93C338.29,-40.87 325.82,-57.37 318.25,-74 309.53,-93.16 298.49,-155.95 294.51,-179.75"/>
<polygon fill="#9a32cd" stroke="#9a32cd" points="350.97,-31.37 354.96,-21.55 345.72,-26.74 350.97,-31.37"/>
</a>
</g>
<text xml:space="preserve" text-anchor="start" x="321.25" y="-80.5" font-family="Helvetica,sans-Serif" font-size="10.00" fill="grey">env</text>
</g>
<!-- Node16&#45;&gt;Node15 -->
<g id="edge20_Node000015_Node000016" class="edge">
<title>Node16&#45;&gt;Node15</title>
<g id="a_edge20_Node000015_Node000016"><a xlink:title=" ">
<path fill="none" stroke="#9a32cd" stroke-dasharray="5,2" d="M220.08,-67.75C235.72,-58.3 256.81,-46.39 276.5,-38 298.96,-28.43 325.95,-20.7 344.17,-16.01"/>
<polygon fill="#9a32cd" stroke="#9a32cd" points="218.62,-64.54 211.94,-72.76 222.29,-70.5 218.62,-64.54"/>
</a>
</g>
<text xml:space="preserve" text-anchor="start" x="279.5" y="-43.5" font-family="Helvetica,sans-Serif" font-size="10.00" fill="grey">cxt</text>
</g>
<!-- Node16&#45;&gt;Node16 -->
<g id="edge21_Node000016_Node000016" class="edge">
<title>Node16&#45;&gt;Node16</title>
<g id="a_edge21_Node000016_Node000016"><a xlink:title=" ">
<path fill="none" stroke="#9a32cd" stroke-dasharray="5,2" d="M242.27,-89.48C246.41,-88.33 249,-86.51 249,-84 249,-79.66 241.24,-77.36 231.17,-77.09"/>
<polygon fill="#9a32cd" stroke="#9a32cd" points="242.14,-85.97 232.67,-90.72 243.03,-92.91 242.14,-85.97"/>
</a>
</g>
<text xml:space="preserve" text-anchor="start" x="252" y="-80.5" font-family="Helvetica,sans-Serif" font-size="10.00" fill="grey">prev</text>
</g>
<!-- Node18 -->
<g id="Node000018" class="node">
<title>Node18</title>
<g id="a_Node000018"><a xlink:href="structRFiber.html" target="_top" xlink:title=" ">
<polygon fill="white" stroke="#bfbfbf" points="207.62,-20 162.38,-20 162.38,0 207.62,0 207.62,-20"/>
<text xml:space="preserve" text-anchor="middle" x="185" y="-6.5" font-family="Helvetica,sans-Serif" font-size="10.00">RFiber</text>
</a>
</g>
</g>
<!-- Node16&#45;&gt;Node18 -->
<g id="edge29_Node000018_Node000016" class="edge">
<title>Node16&#45;&gt;Node18</title>
<g id="a_edge29_Node000018_Node000016"><a xlink:title=" ">
<path fill="none" stroke="#9a32cd" stroke-dasharray="5,2" d="M192.88,-62.6C190.75,-48.65 188.03,-30.82 186.4,-20.19"/>
<polygon fill="#9a32cd" stroke="#9a32cd" points="189.36,-62.73 194.33,-72.09 196.28,-61.68 189.36,-62.73"/>
</a>
</g>
<text xml:space="preserve" text-anchor="start" x="194.81" y="-43.5" font-family="Helvetica,sans-Serif" font-size="10.00" fill="grey">cxt</text>
</g>
<!-- Node17&#45;&gt;Node16 -->
<g id="edge23_Node000016_Node000017" class="edge">
<title>Node17&#45;&gt;Node16</title>
<g id="a_edge23_Node000016_Node000017"><a xlink:title=" ">
<path fill="none" stroke="#9a32cd" stroke-dasharray="5,2" d="M272.68,-172.41C268.87,-169.07 264.99,-165.5 261.5,-162 238.71,-139.12 214.84,-109.35 203.22,-94.42"/>
<polygon fill="#9a32cd" stroke="#9a32cd" points="270.2,-174.89 280.09,-178.69 274.73,-169.55 270.2,-174.89"/>
</a>
</g>
<text xml:space="preserve" text-anchor="start" x="264.5" y="-149.5" font-family="Helvetica,sans-Serif" font-size="10.00" fill="grey">ci</text>
<text xml:space="preserve" text-anchor="start" x="264.5" y="-133.5" font-family="Helvetica,sans-Serif" font-size="10.00" fill="grey">cibase</text>
<text xml:space="preserve" text-anchor="start" x="264.5" y="-117.5" font-family="Helvetica,sans-Serif" font-size="10.00" fill="grey">ciend</text>
</g>
<!-- Node18&#45;&gt;Node16 -->
<g id="edge28_Node000016_Node000018" class="edge">
<title>Node18&#45;&gt;Node16</title>
<g id="a_edge28_Node000016_Node000018"><a xlink:title=" ">
<path fill="none" stroke="#9a32cd" stroke-dasharray="5,2" d="M170.29,-29.68C165.7,-37.8 162.72,-47.41 166.5,-56 169.63,-63.12 175.67,-69.17 181.47,-73.74"/>
<polygon fill="#9a32cd" stroke="#9a32cd" points="173.04,-31.87 175.73,-21.62 167.24,-27.95 173.04,-31.87"/>
</a>
</g>
<text xml:space="preserve" text-anchor="start" x="169.5" y="-43.5" font-family="Helvetica,sans-Serif" font-size="10.00" fill="grey">fib</text>
</g>
</g>
</svg>
