<?xml version="1.0" encoding="UTF-8" standalone="no"?>
<!DOCTYPE svg PUBLIC "-//W3C//DTD SVG 1.1//EN"
 "http://www.w3.org/Graphics/SVG/1.1/DTD/svg11.dtd">
<!-- Generated by graphviz version 14.0.5 (0)
 -->
<!-- Title: nghttp2::BlockAllocator Pages: 1 -->
<svg width="160pt" height="118pt"
 viewBox="0.00 0.00 160.00 118.00" xmlns="http://www.w3.org/2000/svg" xmlns:xlink="http://www.w3.org/1999/xlink">
<g id="graph0" class="graph" transform="scale(1 1) rotate(0) translate(4 114)">
<title>nghttp2::BlockAllocator</title>
<!-- Node1 -->
<g id="Node000001" class="node">
<title>Node1</title>
<g id="a_Node000001"><a xlink:title=" ">
<polygon fill="#999999" stroke="#666666" points="117.25,-20 0,-20 0,0 117.25,0 117.25,-20"/>
<text xml:space="preserve" text-anchor="middle" x="58.62" y="-6.5" font-family="Helvetica,sans-Serif" font-size="10.00">nghttp2::BlockAllocator</text>
</a>
</g>
</g>
<!-- Node2 -->
<g id="Node000002" class="node">
<title>Node2</title>
<g id="a_Node000002"><a xlink:href="structnghttp2_1_1MemBlock.html" target="_top" xlink:title=" ">
<polygon fill="white" stroke="#bfbfbf" points="109,-110 8.25,-110 8.25,-90 109,-90 109,-110"/>
<text xml:space="preserve" text-anchor="middle" x="58.62" y="-96.5" font-family="Helvetica,sans-Serif" font-size="10.00">nghttp2::MemBlock</text>
</a>
</g>
</g>
<!-- Node2&#45;&gt;Node1 -->
<g id="edge1_Node000001_Node000002" class="edge">
<title>Node2&#45;&gt;Node1</title>
<g id="a_edge1_Node000001_Node000002"><a xlink:title=" ">
<path fill="none" stroke="#9a32cd" stroke-dasharray="5,2" d="M58.62,-78.09C58.62,-59.77 58.62,-34.01 58.62,-20.35"/>
<polygon fill="#9a32cd" stroke="#9a32cd" points="55.13,-78.07 58.63,-88.07 62.13,-78.07 55.13,-78.07"/>
</a>
</g>
<text xml:space="preserve" text-anchor="start" x="61.62" y="-59.5" font-family="Helvetica,sans-Serif" font-size="10.00" fill="grey">head</text>
<text xml:space="preserve" text-anchor="start" x="61.62" y="-43.5" font-family="Helvetica,sans-Serif" font-size="10.00" fill="grey">retain</text>
</g>
<!-- Node2&#45;&gt;Node2 -->
<g id="edge2_Node000002_Node000002" class="edge">
<title>Node2&#45;&gt;Node2</title>
<g id="a_edge2_Node000002_Node000002"><a xlink:title=" ">
<path fill="none" stroke="#9a32cd" stroke-dasharray="5,2" d="M120.46,-106.02C124.53,-104.62 127,-102.62 127,-100 127,-95.47 119.62,-92.77 109.32,-91.88"/>
<polygon fill="#9a32cd" stroke="#9a32cd" points="119.99,-102.55 110.8,-107.84 121.28,-109.43 119.99,-102.55"/>
</a>
</g>
<text xml:space="preserve" text-anchor="start" x="130" y="-96.5" font-family="Helvetica,sans-Serif" font-size="10.00" fill="grey">next</text>
</g>
</g>
</svg>
