<?xml version="1.0" encoding="UTF-8" standalone="no"?>
<!DOCTYPE svg PUBLIC "-//W3C//DTD SVG 1.1//EN"
 "http://www.w3.org/Graphics/SVG/1.1/DTD/svg11.dtd">
<!-- Generated by graphviz version 14.0.5 (0)
 -->
<!-- Title: gen_addrinfo_args Pages: 1 -->
<svg width="737pt" height="626pt"
 viewBox="0.00 0.00 737.00 626.00" xmlns="http://www.w3.org/2000/svg" xmlns:xlink="http://www.w3.org/1999/xlink">
<g id="graph0" class="graph" transform="scale(1 1) rotate(0) translate(4 622)">
<title>gen_addrinfo_args</title>
<!-- Node1 -->
<g id="Node000001" class="node">
<title>Node1</title>
<g id="a_Node000001"><a xlink:title=" ">
<polygon fill="#999999" stroke="#666666" points="268.75,-290 173.25,-290 173.25,-270 268.75,-270 268.75,-290"/>
<text xml:space="preserve" text-anchor="middle" x="221" y="-276.5" font-family="Helvetica,sans-Serif" font-size="10.00">gen_addrinfo_args</text>
</a>
</g>
</g>
<!-- Node2 -->
<g id="Node000002" class="node">
<title>Node2</title>
<g id="a_Node000002"><a xlink:href="structRClass.html" target="_top" xlink:title=" ">
<polygon fill="white" stroke="#666666" points="195.5,-380 146.5,-380 146.5,-360 195.5,-360 195.5,-380"/>
<text xml:space="preserve" text-anchor="middle" x="171" y="-366.5" font-family="Helvetica,sans-Serif" font-size="10.00">RClass</text>
</a>
</g>
</g>
<!-- Node2&#45;&gt;Node1 -->
<g id="edge1_Node000001_Node000002" class="edge">
<title>Node2&#45;&gt;Node1</title>
<g id="a_edge1_Node000001_Node000002"><a xlink:title=" ">
<path fill="none" stroke="#9a32cd" stroke-dasharray="5,2" d="M166.29,-348.37C164.58,-335.83 164.55,-319.99 171.75,-308 176.42,-300.23 184.19,-294.54 192.2,-290.44"/>
<polygon fill="#9a32cd" stroke="#9a32cd" points="162.82,-348.85 168.09,-358.05 169.7,-347.58 162.82,-348.85"/>
</a>
</g>
<text xml:space="preserve" text-anchor="start" x="174.75" y="-321.5" font-family="Helvetica,sans-Serif" font-size="10.00" fill="grey">klass</text>
</g>
<!-- Node2&#45;&gt;Node2 -->
<g id="edge31_Node000002_Node000002" class="edge">
<title>Node2&#45;&gt;Node2</title>
<g id="a_edge31_Node000002_Node000002"><a xlink:title=" ">
<path fill="none" stroke="#9a32cd" stroke-dasharray="5,2" d="M207.04,-377.07C210.97,-375.72 213.5,-373.36 213.5,-370 213.5,-364.02 205.5,-361.22 195.88,-361.6"/>
<polygon fill="#9a32cd" stroke="#9a32cd" points="206.9,-373.56 197.39,-378.23 207.73,-380.51 206.9,-373.56"/>
</a>
</g>
<text xml:space="preserve" text-anchor="start" x="216.5" y="-366.5" font-family="Helvetica,sans-Serif" font-size="10.00" fill="grey">super</text>
</g>
<!-- Node8 -->
<g id="Node000008" class="node">
<title>Node8</title>
<g id="a_Node000008"><a xlink:href="structRProc.html" target="_top" xlink:title=" ">
<polygon fill="white" stroke="#bfbfbf" points="383.88,-290 340.12,-290 340.12,-270 383.88,-270 383.88,-290"/>
<text xml:space="preserve" text-anchor="middle" x="362" y="-276.5" font-family="Helvetica,sans-Serif" font-size="10.00">RProc</text>
</a>
</g>
</g>
<!-- Node2&#45;&gt;Node8 -->
<g id="edge17_Node000008_Node000002" class="edge">
<title>Node2&#45;&gt;Node8</title>
<g id="a_edge17_Node000008_Node000002"><a xlink:title=" ">
<path fill="none" stroke="#9a32cd" stroke-dasharray="5,2" d="M193.73,-353.14C213.79,-339.7 244.2,-320.64 272.75,-308 294.8,-298.23 321.42,-290.69 339.82,-286.09"/>
<polygon fill="#9a32cd" stroke="#9a32cd" points="191.79,-350.22 185.5,-358.75 195.73,-356.01 191.79,-350.22"/>
</a>
</g>
<text xml:space="preserve" text-anchor="start" x="275.75" y="-321.5" font-family="Helvetica,sans-Serif" font-size="10.00" fill="grey">target_class</text>
</g>
<!-- Node17 -->
<g id="Node000017" class="node">
<title>Node17</title>
<g id="a_Node000017"><a xlink:href="structmrb__callinfo.html" target="_top" xlink:title=" ">
<polygon fill="white" stroke="#bfbfbf" points="331.25,-200 262.75,-200 262.75,-180 331.25,-180 331.25,-200"/>
<text xml:space="preserve" text-anchor="middle" x="297" y="-186.5" font-family="Helvetica,sans-Serif" font-size="10.00">mrb_callinfo</text>
</a>
</g>
</g>
<!-- Node2&#45;&gt;Node17 -->
<g id="edge27_Node000017_Node000002" class="edge">
<title>Node2&#45;&gt;Node17</title>
<g id="a_edge27_Node000017_Node000002"><a xlink:title=" ">
<path fill="none" stroke="#9a32cd" stroke-dasharray="5,2" d="M147.43,-353.22C121.24,-333.68 85.06,-299.38 104.75,-270 140.01,-217.39 217.28,-199.79 262.38,-193.92"/>
<polygon fill="#9a32cd" stroke="#9a32cd" points="145.1,-355.86 155.27,-358.84 149.18,-350.17 145.1,-355.86"/>
</a>
</g>
<text xml:space="preserve" text-anchor="start" x="107.75" y="-276.5" font-family="Helvetica,sans-Serif" font-size="10.00" fill="grey">target_class</text>
</g>
<!-- Node3 -->
<g id="Node000003" class="node">
<title>Node3</title>
<g id="a_Node000003"><a xlink:href="structiv__tbl.html" target="_top" xlink:title=" ">
<polygon fill="white" stroke="#bfbfbf" points="225.62,-470 186.38,-470 186.38,-450 225.62,-450 225.62,-470"/>
<text xml:space="preserve" text-anchor="middle" x="206" y="-456.5" font-family="Helvetica,sans-Serif" font-size="10.00">iv_tbl</text>
</a>
</g>
</g>
<!-- Node3&#45;&gt;Node2 -->
<g id="edge2_Node000002_Node000003" class="edge">
<title>Node3&#45;&gt;Node2</title>
<g id="a_edge2_Node000002_Node000003"><a xlink:title=" ">
<path fill="none" stroke="#9a32cd" stroke-dasharray="5,2" d="M198.1,-439.14C190.79,-420.77 180.25,-394.27 174.72,-380.35"/>
<polygon fill="#9a32cd" stroke="#9a32cd" points="194.75,-440.18 201.7,-448.18 201.25,-437.59 194.75,-440.18"/>
</a>
</g>
<text xml:space="preserve" text-anchor="start" x="197.68" y="-411.5" font-family="Helvetica,sans-Serif" font-size="10.00" fill="grey">iv</text>
</g>
<!-- Node4 -->
<g id="Node000004" class="node">
<title>Node4</title>
<g id="a_Node000004"><a xlink:href="structmrb__value.html" target="_top" xlink:title=" ">
<polygon fill="white" stroke="#bfbfbf" points="337.5,-544 276.5,-544 276.5,-524 337.5,-524 337.5,-544"/>
<text xml:space="preserve" text-anchor="middle" x="307" y="-530.5" font-family="Helvetica,sans-Serif" font-size="10.00">mrb_value</text>
</a>
</g>
</g>
<!-- Node4&#45;&gt;Node3 -->
<g id="edge3_Node000003_Node000004" class="edge">
<title>Node4&#45;&gt;Node3</title>
<g id="a_edge3_Node000003_Node000004"><a xlink:title=" ">
<path fill="none" stroke="#9a32cd" stroke-dasharray="5,2" d="M277.07,-518.39C270.21,-514.65 263.08,-510.42 256.75,-506 241.11,-495.08 224.94,-479.96 215.17,-470.33"/>
<polygon fill="#9a32cd" stroke="#9a32cd" points="274.98,-521.25 285.47,-522.8 278.24,-515.05 274.98,-521.25"/>
</a>
</g>
<text xml:space="preserve" text-anchor="start" x="259.75" y="-493.5" font-family="Helvetica,sans-Serif" font-size="10.00" fill="grey">ptr</text>
</g>
<!-- Node7 -->
<g id="Node000007" class="node">
<title>Node7</title>
<g id="a_Node000007"><a xlink:href="unionmt__ptr.html" target="_top" xlink:title=" ">
<polygon fill="white" stroke="#bfbfbf" points="396.88,-200 353.12,-200 353.12,-180 396.88,-180 396.88,-200"/>
<text xml:space="preserve" text-anchor="middle" x="375" y="-186.5" font-family="Helvetica,sans-Serif" font-size="10.00">mt_ptr</text>
</a>
</g>
</g>
<!-- Node4&#45;&gt;Node7 -->
<g id="edge30_Node000007_Node000004" class="edge">
<title>Node4&#45;&gt;Node7</title>
<g id="a_edge30_Node000007_Node000004"><a xlink:title=" ">
<path fill="none" stroke="#9a32cd" stroke-dasharray="5,2" d="M348.98,-526.67C405.22,-517.22 500.38,-497.56 521,-470 593.04,-373.69 433.44,-236.86 387.12,-200.29"/>
<polygon fill="#9a32cd" stroke="#9a32cd" points="348.74,-523.16 339.44,-528.23 349.87,-530.07 348.74,-523.16"/>
</a>
</g>
<text xml:space="preserve" text-anchor="start" x="536.2" y="-366.5" font-family="Helvetica,sans-Serif" font-size="10.00" fill="grey">func</text>
</g>
<!-- Node4&#45;&gt;Node8 -->
<g id="edge15_Node000008_Node000004" class="edge">
<title>Node4&#45;&gt;Node8</title>
<g id="a_edge15_Node000008_Node000004"><a xlink:title=" ">
<path fill="none" stroke="#9a32cd" stroke-dasharray="5,2" d="M311.41,-512.81C322.63,-461.39 351.96,-327.01 359.96,-290.35"/>
<polygon fill="#9a32cd" stroke="#9a32cd" points="308.06,-511.74 309.35,-522.25 314.9,-513.23 308.06,-511.74"/>
</a>
</g>
<text xml:space="preserve" text-anchor="start" x="339.4" y="-411.5" font-family="Helvetica,sans-Serif" font-size="10.00" fill="grey">func</text>
</g>
<!-- Node15 -->
<g id="Node000015" class="node">
<title>Node15</title>
<g id="a_Node000015"><a xlink:href="structREnv.html" target="_top" xlink:title=" ">
<polygon fill="white" stroke="#666666" points="389.38,-20 348.62,-20 348.62,0 389.38,0 389.38,-20"/>
<text xml:space="preserve" text-anchor="middle" x="369" y="-6.5" font-family="Helvetica,sans-Serif" font-size="10.00">REnv</text>
</a>
</g>
</g>
<!-- Node4&#45;&gt;Node15 -->
<g id="edge19_Node000015_Node000004" class="edge">
<title>Node4&#45;&gt;Node15</title>
<g id="a_edge19_Node000015_Node000004"><a xlink:title=" ">
<path fill="none" stroke="#9a32cd" stroke-dasharray="5,2" d="M349.12,-530.81C426.85,-525.62 585,-509.13 585,-461 585,-461 585,-461 585,-83 585,-42.09 443.77,-20.26 389.71,-13.41"/>
<polygon fill="#9a32cd" stroke="#9a32cd" points="349.08,-527.31 339.32,-531.43 349.52,-534.29 349.08,-527.31"/>
</a>
</g>
<text xml:space="preserve" text-anchor="start" x="588" y="-276.5" font-family="Helvetica,sans-Serif" font-size="10.00" fill="grey">stack</text>
</g>
<!-- Node16 -->
<g id="Node000016" class="node">
<title>Node16</title>
<g id="a_Node000016"><a xlink:href="structmrb__context.html" target="_top" xlink:title=" ">
<polygon fill="white" stroke="#bfbfbf" points="235,-94 165,-94 165,-74 235,-74 235,-94"/>
<text xml:space="preserve" text-anchor="middle" x="200" y="-80.5" font-family="Helvetica,sans-Serif" font-size="10.00">mrb_context</text>
</a>
</g>
</g>
<!-- Node4&#45;&gt;Node16 -->
<g id="edge22_Node000016_Node000004" class="edge">
<title>Node4&#45;&gt;Node16</title>
<g id="a_edge22_Node000016_Node000004"><a xlink:title=" ">
<path fill="none" stroke="#9a32cd" stroke-dasharray="5,2" d="M264.71,-531.85C180.52,-528.4 0,-514.73 0,-461 0,-461 0,-461 0,-189 0,-115.62 107.29,-93.94 164.7,-87.59"/>
<polygon fill="#9a32cd" stroke="#9a32cd" points="264.52,-535.34 274.65,-532.22 264.78,-528.35 264.52,-535.34"/>
</a>
</g>
<text xml:space="preserve" text-anchor="start" x="3" y="-329.5" font-family="Helvetica,sans-Serif" font-size="10.00" fill="grey">stbase</text>
<text xml:space="preserve" text-anchor="start" x="3" y="-313.5" font-family="Helvetica,sans-Serif" font-size="10.00" fill="grey">stend</text>
</g>
<!-- Node4&#45;&gt;Node17 -->
<g id="edge25_Node000017_Node000004" class="edge">
<title>Node4&#45;&gt;Node17</title>
<g id="a_edge25_Node000017_Node000004"><a xlink:title=" ">
<path fill="none" stroke="#9a32cd" stroke-dasharray="5,2" d="M306.4,-512.37C304.49,-446.99 298.61,-246.08 297.27,-200.34"/>
<polygon fill="#9a32cd" stroke="#9a32cd" points="302.9,-512.45 306.69,-522.34 309.89,-512.24 302.9,-512.45"/>
</a>
</g>
<text xml:space="preserve" text-anchor="start" x="305.44" y="-366.5" font-family="Helvetica,sans-Serif" font-size="10.00" fill="grey">stack</text>
</g>
<!-- Node5 -->
<g id="Node000005" class="node">
<title>Node5</title>
<g id="a_Node000005"><a xlink:href="unionmrb__value__union.html" target="_top" xlink:title=" ">
<polygon fill="white" stroke="#bfbfbf" points="351.75,-618 262.25,-618 262.25,-598 351.75,-598 351.75,-618"/>
<text xml:space="preserve" text-anchor="middle" x="307" y="-604.5" font-family="Helvetica,sans-Serif" font-size="10.00">mrb_value_union</text>
</a>
</g>
</g>
<!-- Node5&#45;&gt;Node4 -->
<g id="edge4_Node000004_Node000005" class="edge">
<title>Node5&#45;&gt;Node4</title>
<g id="a_edge4_Node000004_Node000005"><a xlink:title=" ">
<path fill="none" stroke="#9a32cd" stroke-dasharray="5,2" d="M307,-586.18C307,-572.29 307,-554.71 307,-544.19"/>
<polygon fill="#9a32cd" stroke="#9a32cd" points="303.5,-586.07 307,-596.07 310.5,-586.07 303.5,-586.07"/>
</a>
</g>
<text xml:space="preserve" text-anchor="start" x="310" y="-567.5" font-family="Helvetica,sans-Serif" font-size="10.00" fill="grey">value</text>
</g>
<!-- Node6 -->
<g id="Node000006" class="node">
<title>Node6</title>
<g id="a_Node000006"><a xlink:href="structmt__tbl.html" target="_top" xlink:title=" ">
<polygon fill="white" stroke="#bfbfbf" points="396.5,-94 353.5,-94 353.5,-74 396.5,-74 396.5,-94"/>
<text xml:space="preserve" text-anchor="middle" x="375" y="-80.5" font-family="Helvetica,sans-Serif" font-size="10.00">mt_tbl</text>
</a>
</g>
</g>
<!-- Node6&#45;&gt;Node2 -->
<g id="edge5_Node000002_Node000006" class="edge">
<title>Node6&#45;&gt;Node2</title>
<g id="a_edge5_Node000002_Node000006"><a xlink:title=" ">
<path fill="none" stroke="#9a32cd" stroke-dasharray="5,2" d="M342.12,-94.98C288.55,-104.99 267.66,-89.1 218,-112 153.61,-141.7 130.11,-154.4 98.75,-218 74.37,-267.44 67.26,-298.41 101,-342 111.76,-355.9 130.64,-362.65 146.08,-365.93"/>
<polygon fill="#9a32cd" stroke="#9a32cd" points="342.75,-98.43 351.81,-92.93 341.3,-91.58 342.75,-98.43"/>
</a>
</g>
<text xml:space="preserve" text-anchor="start" x="101.75" y="-231.5" font-family="Helvetica,sans-Serif" font-size="10.00" fill="grey">mt</text>
</g>
<!-- Node7&#45;&gt;Node6 -->
<g id="edge6_Node000006_Node000007" class="edge">
<title>Node7&#45;&gt;Node6</title>
<g id="a_edge6_Node000006_Node000007"><a xlink:title=" ">
<path fill="none" stroke="#9a32cd" stroke-dasharray="5,2" d="M375,-168.51C375,-146.04 375,-110.99 375,-94.36"/>
<polygon fill="#9a32cd" stroke="#9a32cd" points="371.5,-168.26 375,-178.26 378.5,-168.26 371.5,-168.26"/>
</a>
</g>
<text xml:space="preserve" text-anchor="start" x="378" y="-133.5" font-family="Helvetica,sans-Serif" font-size="10.00" fill="grey">ptr</text>
</g>
<!-- Node8&#45;&gt;Node7 -->
<g id="edge7_Node000007_Node000008" class="edge">
<title>Node8&#45;&gt;Node7</title>
<g id="a_edge7_Node000007_Node000008"><a xlink:title=" ">
<path fill="none" stroke="#9a32cd" stroke-dasharray="5,2" d="M365.05,-258.35C367.76,-240.02 371.59,-214.07 373.62,-200.35"/>
<polygon fill="#9a32cd" stroke="#9a32cd" points="361.61,-257.68 363.61,-268.09 368.54,-258.7 361.61,-257.68"/>
</a>
</g>
<text xml:space="preserve" text-anchor="start" x="373.8" y="-231.5" font-family="Helvetica,sans-Serif" font-size="10.00" fill="grey">proc</text>
</g>
<!-- Node8&#45;&gt;Node8 -->
<g id="edge16_Node000008_Node000008" class="edge">
<title>Node8&#45;&gt;Node8</title>
<g id="a_edge16_Node000008_Node000008"><a xlink:title=" ">
<path fill="none" stroke="#9a32cd" stroke-dasharray="5,2" d="M395.32,-287.24C399.29,-285.93 401.88,-283.51 401.88,-280 401.88,-273.76 393.7,-270.98 384.14,-271.66"/>
<polygon fill="#9a32cd" stroke="#9a32cd" points="395.26,-283.73 385.65,-288.19 395.94,-290.7 395.26,-283.73"/>
</a>
</g>
<text xml:space="preserve" text-anchor="start" x="404.88" y="-276.5" font-family="Helvetica,sans-Serif" font-size="10.00" fill="grey">upper</text>
</g>
<!-- Node8&#45;&gt;Node17 -->
<g id="edge24_Node000017_Node000008" class="edge">
<title>Node8&#45;&gt;Node17</title>
<g id="a_edge24_Node000017_Node000008"><a xlink:title=" ">
<path fill="none" stroke="#9a32cd" stroke-dasharray="5,2" d="M345.33,-261.62C342.55,-258.49 339.75,-255.21 337.25,-252 323.67,-234.59 309.96,-212.67 302.56,-200.41"/>
<polygon fill="#9a32cd" stroke="#9a32cd" points="342.53,-263.75 351.89,-268.71 347.67,-258.99 342.53,-263.75"/>
</a>
</g>
<text xml:space="preserve" text-anchor="start" x="340.25" y="-239.5" font-family="Helvetica,sans-Serif" font-size="10.00" fill="grey">blk</text>
<text xml:space="preserve" text-anchor="start" x="340.25" y="-223.5" font-family="Helvetica,sans-Serif" font-size="10.00" fill="grey">proc</text>
</g>
<!-- Node9 -->
<g id="Node000009" class="node">
<title>Node9</title>
<g id="a_Node000009"><a xlink:href="structmrb__irep.html" target="_top" xlink:title=" ">
<polygon fill="white" stroke="#bfbfbf" points="436.75,-380 383.25,-380 383.25,-360 436.75,-360 436.75,-380"/>
<text xml:space="preserve" text-anchor="middle" x="410" y="-366.5" font-family="Helvetica,sans-Serif" font-size="10.00">mrb_irep</text>
</a>
</g>
</g>
<!-- Node9&#45;&gt;Node8 -->
<g id="edge8_Node000008_Node000009" class="edge">
<title>Node9&#45;&gt;Node8</title>
<g id="a_edge8_Node000008_Node000009"><a xlink:title=" ">
<path fill="none" stroke="#9a32cd" stroke-dasharray="5,2" d="M399.45,-349.66C389.42,-331.27 374.76,-304.4 367.1,-290.35"/>
<polygon fill="#9a32cd" stroke="#9a32cd" points="396.28,-351.15 404.14,-358.25 402.42,-347.8 396.28,-351.15"/>
</a>
</g>
<text xml:space="preserve" text-anchor="start" x="397.47" y="-321.5" font-family="Helvetica,sans-Serif" font-size="10.00" fill="grey">irep</text>
</g>
<!-- Node9&#45;&gt;Node9 -->
<g id="edge11_Node000009_Node000009" class="edge">
<title>Node9&#45;&gt;Node9</title>
<g id="a_edge11_Node000009_Node000009"><a xlink:title=" ">
<path fill="none" stroke="#9a32cd" stroke-dasharray="5,2" d="M448.31,-376.95C452.24,-375.58 454.75,-373.26 454.75,-370 454.75,-364.2 446.82,-361.39 437.09,-361.57"/>
<polygon fill="#9a32cd" stroke="#9a32cd" points="448.05,-373.45 438.59,-378.23 448.96,-380.39 448.05,-373.45"/>
</a>
</g>
<text xml:space="preserve" text-anchor="start" x="457.75" y="-366.5" font-family="Helvetica,sans-Serif" font-size="10.00" fill="grey">reps</text>
</g>
<!-- Node10 -->
<g id="Node000010" class="node">
<title>Node10</title>
<g id="a_Node000010"><a xlink:href="structmrb__pool__value.html" target="_top" xlink:title=" ">
<polygon fill="white" stroke="#bfbfbf" points="512.12,-470 427.88,-470 427.88,-450 512.12,-450 512.12,-470"/>
<text xml:space="preserve" text-anchor="middle" x="470" y="-456.5" font-family="Helvetica,sans-Serif" font-size="10.00">mrb_pool_value</text>
</a>
</g>
</g>
<!-- Node10&#45;&gt;Node9 -->
<g id="edge9_Node000009_Node000010" class="edge">
<title>Node10&#45;&gt;Node9</title>
<g id="a_edge9_Node000009_Node000010"><a xlink:title=" ">
<path fill="none" stroke="#9a32cd" stroke-dasharray="5,2" d="M460.22,-439.41C453.72,-427.09 444.63,-411.11 435,-398 430.31,-391.62 424.3,-385.08 419.34,-380.04"/>
<polygon fill="#9a32cd" stroke="#9a32cd" points="457.03,-440.86 464.71,-448.16 463.26,-437.66 457.03,-440.86"/>
</a>
</g>
<text xml:space="preserve" text-anchor="start" x="459.18" y="-411.5" font-family="Helvetica,sans-Serif" font-size="10.00" fill="grey">pool</text>
</g>
<!-- Node11 -->
<g id="Node000011" class="node">
<title>Node11</title>
<g id="a_Node000011"><a xlink:href="classmrb__sym.html" target="_top" xlink:title=" ">
<polygon fill="white" stroke="#666666" points="410.25,-470 353.75,-470 353.75,-450 410.25,-450 410.25,-470"/>
<text xml:space="preserve" text-anchor="middle" x="382" y="-456.5" font-family="Helvetica,sans-Serif" font-size="10.00">mrb_sym</text>
</a>
</g>
</g>
<!-- Node11&#45;&gt;Node9 -->
<g id="edge10_Node000009_Node000011" class="edge">
<title>Node11&#45;&gt;Node9</title>
<g id="a_edge10_Node000009_Node000011"><a xlink:title=" ">
<path fill="none" stroke="#9a32cd" stroke-dasharray="5,2" d="M388.49,-438.61C394.32,-420.27 402.64,-394.14 407.03,-380.35"/>
<polygon fill="#9a32cd" stroke="#9a32cd" points="385.15,-437.55 385.46,-448.14 391.82,-439.67 385.15,-437.55"/>
</a>
</g>
<text xml:space="preserve" text-anchor="start" x="403.94" y="-419.5" font-family="Helvetica,sans-Serif" font-size="10.00" fill="grey">lv</text>
<text xml:space="preserve" text-anchor="start" x="403.94" y="-403.5" font-family="Helvetica,sans-Serif" font-size="10.00" fill="grey">syms</text>
</g>
<!-- Node12 -->
<g id="Node000012" class="node">
<title>Node12</title>
<g id="a_Node000012"><a xlink:href="structmrb__irep__debug__info.html" target="_top" xlink:title=" ">
<polygon fill="white" stroke="#bfbfbf" points="719,-470 613,-470 613,-450 719,-450 719,-470"/>
<text xml:space="preserve" text-anchor="middle" x="666" y="-456.5" font-family="Helvetica,sans-Serif" font-size="10.00">mrb_irep_debug_info</text>
</a>
</g>
</g>
<!-- Node12&#45;&gt;Node9 -->
<g id="edge12_Node000009_Node000012" class="edge">
<title>Node12&#45;&gt;Node9</title>
<g id="a_edge12_Node000009_Node000012"><a xlink:title=" ">
<path fill="none" stroke="#9a32cd" stroke-dasharray="5,2" d="M627.78,-445.86C575.5,-427.89 482.97,-396.08 437.2,-380.35"/>
<polygon fill="#9a32cd" stroke="#9a32cd" points="626.58,-449.15 637.17,-449.09 628.85,-442.53 626.58,-449.15"/>
</a>
</g>
<text xml:space="preserve" text-anchor="start" x="586.2" y="-411.5" font-family="Helvetica,sans-Serif" font-size="10.00" fill="grey">debug_info</text>
</g>
<!-- Node13 -->
<g id="Node000013" class="node">
<title>Node13</title>
<g id="a_Node000013"><a xlink:href="structmrb__irep__debug__info__file.html" target="_top" xlink:title=" ">
<polygon fill="white" stroke="#bfbfbf" points="728,-544 604,-544 604,-524 728,-524 728,-544"/>
<text xml:space="preserve" text-anchor="middle" x="666" y="-530.5" font-family="Helvetica,sans-Serif" font-size="10.00">mrb_irep_debug_info_file</text>
</a>
</g>
</g>
<!-- Node13&#45;&gt;Node12 -->
<g id="edge13_Node000012_Node000013" class="edge">
<title>Node13&#45;&gt;Node12</title>
<g id="a_edge13_Node000012_Node000013"><a xlink:title=" ">
<path fill="none" stroke="#9a32cd" stroke-dasharray="5,2" d="M666,-512.18C666,-498.29 666,-480.71 666,-470.19"/>
<polygon fill="#9a32cd" stroke="#9a32cd" points="662.5,-512.07 666,-522.07 669.5,-512.07 662.5,-512.07"/>
</a>
</g>
<text xml:space="preserve" text-anchor="start" x="669" y="-493.5" font-family="Helvetica,sans-Serif" font-size="10.00" fill="grey">files</text>
</g>
<!-- Node14 -->
<g id="Node000014" class="node">
<title>Node14</title>
<g id="a_Node000014"><a xlink:href="structmrb__irep__debug__info__line.html" target="_top" xlink:title=" ">
<polygon fill="white" stroke="#bfbfbf" points="729.12,-618 602.88,-618 602.88,-598 729.12,-598 729.12,-618"/>
<text xml:space="preserve" text-anchor="middle" x="666" y="-604.5" font-family="Helvetica,sans-Serif" font-size="10.00">mrb_irep_debug_info_line</text>
</a>
</g>
</g>
<!-- Node14&#45;&gt;Node13 -->
<g id="edge14_Node000013_Node000014" class="edge">
<title>Node14&#45;&gt;Node13</title>
<g id="a_edge14_Node000013_Node000014"><a xlink:title=" ">
<path fill="none" stroke="#9a32cd" stroke-dasharray="5,2" d="M666,-586.18C666,-572.29 666,-554.71 666,-544.19"/>
<polygon fill="#9a32cd" stroke="#9a32cd" points="662.5,-586.07 666,-596.07 669.5,-586.07 662.5,-586.07"/>
</a>
</g>
<text xml:space="preserve" text-anchor="start" x="669" y="-567.5" font-family="Helvetica,sans-Serif" font-size="10.00" fill="grey">flat_map</text>
</g>
<!-- Node15&#45;&gt;Node8 -->
<g id="edge18_Node000008_Node000015" class="edge">
<title>Node15&#45;&gt;Node8</title>
<g id="a_edge18_Node000008_Node000015"><a xlink:title=" ">
<path fill="none" stroke="#9a32cd" stroke-dasharray="5,2" d="M382.91,-29.45C391.07,-41.45 400.62,-57.82 405,-74 406.47,-79.43 417.99,-221.58 400,-252 395.63,-259.38 388.37,-265.28 381.35,-269.66"/>
<polygon fill="#9a32cd" stroke="#9a32cd" points="385.8,-27.47 377.14,-21.37 380.11,-31.54 385.8,-27.47"/>
</a>
</g>
<text xml:space="preserve" text-anchor="start" x="412.92" y="-133.5" font-family="Helvetica,sans-Serif" font-size="10.00" fill="grey">env</text>
</g>
<!-- Node15&#45;&gt;Node17 -->
<g id="edge26_Node000017_Node000015" class="edge">
<title>Node15&#45;&gt;Node17</title>
<g id="a_edge26_Node000017_Node000015"><a xlink:title=" ">
<path fill="none" stroke="#9a32cd" stroke-dasharray="5,2" d="M352.45,-28.93C342.29,-40.87 329.82,-57.37 322.25,-74 313.53,-93.16 302.49,-155.95 298.51,-179.75"/>
<polygon fill="#9a32cd" stroke="#9a32cd" points="354.97,-31.37 358.96,-21.55 349.72,-26.74 354.97,-31.37"/>
</a>
</g>
<text xml:space="preserve" text-anchor="start" x="325.25" y="-80.5" font-family="Helvetica,sans-Serif" font-size="10.00" fill="grey">env</text>
</g>
<!-- Node16&#45;&gt;Node15 -->
<g id="edge20_Node000015_Node000016" class="edge">
<title>Node16&#45;&gt;Node15</title>
<g id="a_edge20_Node000015_Node000016"><a xlink:title=" ">
<path fill="none" stroke="#9a32cd" stroke-dasharray="5,2" d="M224.08,-67.75C239.72,-58.3 260.81,-46.39 280.5,-38 302.96,-28.43 329.95,-20.7 348.17,-16.01"/>
<polygon fill="#9a32cd" stroke="#9a32cd" points="222.62,-64.54 215.94,-72.76 226.29,-70.5 222.62,-64.54"/>
</a>
</g>
<text xml:space="preserve" text-anchor="start" x="283.5" y="-43.5" font-family="Helvetica,sans-Serif" font-size="10.00" fill="grey">cxt</text>
</g>
<!-- Node16&#45;&gt;Node16 -->
<g id="edge21_Node000016_Node000016" class="edge">
<title>Node16&#45;&gt;Node16</title>
<g id="a_edge21_Node000016_Node000016"><a xlink:title=" ">
<path fill="none" stroke="#9a32cd" stroke-dasharray="5,2" d="M246.27,-89.48C250.41,-88.33 253,-86.51 253,-84 253,-79.66 245.24,-77.36 235.17,-77.09"/>
<polygon fill="#9a32cd" stroke="#9a32cd" points="246.14,-85.97 236.67,-90.72 247.03,-92.91 246.14,-85.97"/>
</a>
</g>
<text xml:space="preserve" text-anchor="start" x="256" y="-80.5" font-family="Helvetica,sans-Serif" font-size="10.00" fill="grey">prev</text>
</g>
<!-- Node18 -->
<g id="Node000018" class="node">
<title>Node18</title>
<g id="a_Node000018"><a xlink:href="structRFiber.html" target="_top" xlink:title=" ">
<polygon fill="white" stroke="#bfbfbf" points="211.62,-20 166.38,-20 166.38,0 211.62,0 211.62,-20"/>
<text xml:space="preserve" text-anchor="middle" x="189" y="-6.5" font-family="Helvetica,sans-Serif" font-size="10.00">RFiber</text>
</a>
</g>
</g>
<!-- Node16&#45;&gt;Node18 -->
<g id="edge29_Node000018_Node000016" class="edge">
<title>Node16&#45;&gt;Node18</title>
<g id="a_edge29_Node000018_Node000016"><a xlink:title=" ">
<path fill="none" stroke="#9a32cd" stroke-dasharray="5,2" d="M196.88,-62.6C194.75,-48.65 192.03,-30.82 190.4,-20.19"/>
<polygon fill="#9a32cd" stroke="#9a32cd" points="193.36,-62.73 198.33,-72.09 200.28,-61.68 193.36,-62.73"/>
</a>
</g>
<text xml:space="preserve" text-anchor="start" x="198.81" y="-43.5" font-family="Helvetica,sans-Serif" font-size="10.00" fill="grey">cxt</text>
</g>
<!-- Node17&#45;&gt;Node16 -->
<g id="edge23_Node000016_Node000017" class="edge">
<title>Node17&#45;&gt;Node16</title>
<g id="a_edge23_Node000016_Node000017"><a xlink:title=" ">
<path fill="none" stroke="#9a32cd" stroke-dasharray="5,2" d="M276.68,-172.41C272.87,-169.07 268.99,-165.5 265.5,-162 242.71,-139.12 218.84,-109.35 207.22,-94.42"/>
<polygon fill="#9a32cd" stroke="#9a32cd" points="274.2,-174.89 284.09,-178.69 278.73,-169.55 274.2,-174.89"/>
</a>
</g>
<text xml:space="preserve" text-anchor="start" x="268.5" y="-149.5" font-family="Helvetica,sans-Serif" font-size="10.00" fill="grey">ci</text>
<text xml:space="preserve" text-anchor="start" x="268.5" y="-133.5" font-family="Helvetica,sans-Serif" font-size="10.00" fill="grey">cibase</text>
<text xml:space="preserve" text-anchor="start" x="268.5" y="-117.5" font-family="Helvetica,sans-Serif" font-size="10.00" fill="grey">ciend</text>
</g>
<!-- Node18&#45;&gt;Node16 -->
<g id="edge28_Node000016_Node000018" class="edge">
<title>Node18&#45;&gt;Node16</title>
<g id="a_edge28_Node000016_Node000018"><a xlink:title=" ">
<path fill="none" stroke="#9a32cd" stroke-dasharray="5,2" d="M174.29,-29.68C169.7,-37.8 166.72,-47.41 170.5,-56 173.63,-63.12 179.67,-69.17 185.47,-73.74"/>
<polygon fill="#9a32cd" stroke="#9a32cd" points="177.04,-31.87 179.73,-21.62 171.24,-27.95 177.04,-31.87"/>
</a>
</g>
<text xml:space="preserve" text-anchor="start" x="173.5" y="-43.5" font-family="Helvetica,sans-Serif" font-size="10.00" fill="grey">fib</text>
</g>
</g>
</svg>
