<?xml version="1.0" encoding="UTF-8" standalone="no"?>
<!DOCTYPE svg PUBLIC "-//W3C//DTD SVG 1.1//EN"
 "http://www.w3.org/Graphics/SVG/1.1/DTD/svg11.dtd">
<!-- Generated by graphviz version 14.0.5 (0)
 -->
<!-- Title: shrpx::BlockedLink Pages: 1 -->
<svg width="160pt" height="130pt"
 viewBox="0.00 0.00 160.00 130.00" xmlns="http://www.w3.org/2000/svg" xmlns:xlink="http://www.w3.org/1999/xlink">
<g id="graph0" class="graph" transform="scale(1 1) rotate(0) translate(4 126)">
<title>shrpx::BlockedLink</title>
<!-- Node1 -->
<g id="Node000001" class="node">
<title>Node1</title>
<g id="a_Node000001"><a xlink:title=" ">
<polygon fill="#999999" stroke="#666666" points="100.38,-27 1.12,-27 1.12,-7 100.38,-7 100.38,-27"/>
<text xml:space="preserve" text-anchor="middle" x="50.75" y="-13.5" font-family="Helvetica,sans-Serif" font-size="10.00">shrpx::BlockedLink</text>
</a>
</g>
</g>
<!-- Node1&#45;&gt;Node1 -->
<g id="edge3_Node000001_Node000001" class="edge">
<title>Node1&#45;&gt;Node1</title>
<g id="a_edge3_Node000001_Node000001"><a xlink:title=" ">
<path fill="none" stroke="#9a32cd" stroke-dasharray="5,2" d="M111.79,-22.93C115.89,-21.56 118.38,-19.58 118.38,-17 118.38,-12.53 110.93,-9.88 100.59,-9.04"/>
<polygon fill="#9a32cd" stroke="#9a32cd" points="111.29,-19.46 102.08,-24.69 112.54,-26.35 111.29,-19.46"/>
</a>
</g>
<text xml:space="preserve" text-anchor="start" x="121.38" y="-21.5" font-family="Helvetica,sans-Serif" font-size="10.00" fill="grey">dlnext</text>
<text xml:space="preserve" text-anchor="start" x="121.38" y="-5.5" font-family="Helvetica,sans-Serif" font-size="10.00" fill="grey">dlprev</text>
</g>
<!-- Node2 -->
<g id="Node000002" class="node">
<title>Node2</title>
<g id="a_Node000002"><a xlink:href="classshrpx_1_1Downstream.html" target="_top" xlink:title=" ">
<polygon fill="white" stroke="#bfbfbf" points="101.5,-115 0,-115 0,-95 101.5,-95 101.5,-115"/>
<text xml:space="preserve" text-anchor="middle" x="50.75" y="-101.5" font-family="Helvetica,sans-Serif" font-size="10.00">shrpx::Downstream</text>
</a>
</g>
</g>
<!-- Node2&#45;&gt;Node1 -->
<g id="edge1_Node000001_Node000002" class="edge">
<title>Node2&#45;&gt;Node1</title>
<g id="a_edge1_Node000001_Node000002"><a xlink:title=" ">
<path fill="none" stroke="#9a32cd" stroke-dasharray="5,2" d="M50.75,-83.37C50.75,-65.6 50.75,-40.76 50.75,-27.4"/>
<polygon fill="#9a32cd" stroke="#9a32cd" points="47.25,-83.28 50.75,-93.28 54.25,-83.28 47.25,-83.28"/>
</a>
</g>
<text xml:space="preserve" text-anchor="start" x="53.75" y="-57.5" font-family="Helvetica,sans-Serif" font-size="10.00" fill="grey">downstream</text>
</g>
<!-- Node2&#45;&gt;Node2 -->
<g id="edge2_Node000002_Node000002" class="edge">
<title>Node2&#45;&gt;Node2</title>
<g id="a_edge2_Node000002_Node000002"><a xlink:title=" ">
<path fill="none" stroke="#9a32cd" stroke-dasharray="5,2" d="M112.93,-110.89C117.02,-109.52 119.5,-107.56 119.5,-105 119.5,-100.57 112.08,-97.93 101.72,-97.06"/>
<polygon fill="#9a32cd" stroke="#9a32cd" points="112.42,-107.43 103.21,-112.66 113.67,-114.31 112.42,-107.43"/>
</a>
</g>
<text xml:space="preserve" text-anchor="start" x="122.5" y="-109.5" font-family="Helvetica,sans-Serif" font-size="10.00" fill="grey">dlnext</text>
<text xml:space="preserve" text-anchor="start" x="122.5" y="-93.5" font-family="Helvetica,sans-Serif" font-size="10.00" fill="grey">dlprev</text>
</g>
</g>
</svg>
