<?xml version="1.0" encoding="UTF-8" standalone="no"?>
<!DOCTYPE svg PUBLIC "-//W3C//DTD SVG 1.1//EN"
 "http://www.w3.org/Graphics/SVG/1.1/DTD/svg11.dtd">
<!-- Generated by graphviz version 14.0.5 (0)
 -->
<!-- Title: shrpx::LogSpec Pages: 1 -->
<svg width="274pt" height="164pt"
 viewBox="0.00 0.00 274.00 164.00" xmlns="http://www.w3.org/2000/svg" xmlns:xlink="http://www.w3.org/1999/xlink">
<g id="graph0" class="graph" transform="scale(1 1) rotate(0) translate(4 160)">
<title>shrpx::LogSpec</title>
<!-- Node1 -->
<g id="Node000001" class="node">
<title>Node1</title>
<g id="a_Node000001"><a xlink:title=" ">
<polygon fill="#999999" stroke="#666666" points="176.88,-20 92.62,-20 92.62,0 176.88,0 176.88,-20"/>
<text xml:space="preserve" text-anchor="middle" x="134.75" y="-6.5" font-family="Helvetica,sans-Serif" font-size="10.00">shrpx::LogSpec</text>
</a>
</g>
</g>
<!-- Node2 -->
<g id="Node000002" class="node">
<title>Node2</title>
<g id="a_Node000002"><a xlink:href="classshrpx_1_1Downstream.html" target="_top" xlink:title=" ">
<polygon fill="white" stroke="#bfbfbf" points="101.5,-149 0,-149 0,-129 101.5,-129 101.5,-149"/>
<text xml:space="preserve" text-anchor="middle" x="50.75" y="-135.5" font-family="Helvetica,sans-Serif" font-size="10.00">shrpx::Downstream</text>
</a>
</g>
</g>
<!-- Node2&#45;&gt;Node1 -->
<g id="edge1_Node000001_Node000002" class="edge">
<title>Node2&#45;&gt;Node1</title>
<g id="a_edge1_Node000001_Node000002"><a xlink:title=" ">
<path fill="none" stroke="#9a32cd" stroke-dasharray="5,2" d="M55.66,-117.67C61.68,-96.03 73.63,-61.71 93.5,-38 99.55,-30.78 108.01,-24.78 115.7,-20.29"/>
<polygon fill="#9a32cd" stroke="#9a32cd" points="52.28,-116.75 53.16,-127.3 59.06,-118.5 52.28,-116.75"/>
</a>
</g>
<text xml:space="preserve" text-anchor="start" x="96.5" y="-67.5" font-family="Helvetica,sans-Serif" font-size="10.00" fill="grey">downstream</text>
</g>
<!-- Node2&#45;&gt;Node2 -->
<g id="edge2_Node000002_Node000002" class="edge">
<title>Node2&#45;&gt;Node2</title>
<g id="a_edge2_Node000002_Node000002"><a xlink:title=" ">
<path fill="none" stroke="#9a32cd" stroke-dasharray="5,2" d="M85.87,-151.35C103.61,-153.12 119.5,-149.01 119.5,-139 119.5,-126.91 96.33,-123.42 74.71,-128.52"/>
<polygon fill="#9a32cd" stroke="#9a32cd" points="86.64,-147.93 76.2,-149.73 85.49,-154.83 86.64,-147.93"/>
</a>
</g>
<text xml:space="preserve" text-anchor="start" x="122.5" y="-143.5" font-family="Helvetica,sans-Serif" font-size="10.00" fill="grey">dlnext</text>
<text xml:space="preserve" text-anchor="start" x="122.5" y="-127.5" font-family="Helvetica,sans-Serif" font-size="10.00" fill="grey">dlprev</text>
</g>
<!-- Node3 -->
<g id="Node000003" class="node">
<title>Node3</title>
<g id="a_Node000003"><a xlink:href="classnghttp2_1_1StringRef.html" target="_top" xlink:title=" ">
<polygon fill="white" stroke="#bfbfbf" points="265.5,-149 170,-149 170,-129 265.5,-129 265.5,-149"/>
<text xml:space="preserve" text-anchor="middle" x="217.75" y="-135.5" font-family="Helvetica,sans-Serif" font-size="10.00">nghttp2::StringRef</text>
</a>
</g>
</g>
<!-- Node3&#45;&gt;Node1 -->
<g id="edge3_Node000001_Node000003" class="edge">
<title>Node3&#45;&gt;Node1</title>
<g id="a_edge3_Node000001_Node000003"><a xlink:title=" ">
<path fill="none" stroke="#9a32cd" stroke-dasharray="5,2" d="M206.99,-118.65C195.35,-98.14 175.88,-65.03 156.75,-38 152.42,-31.88 147.12,-25.35 142.81,-20.25"/>
<polygon fill="#9a32cd" stroke="#9a32cd" points="203.91,-120.31 211.86,-127.31 210.01,-116.88 203.91,-120.31"/>
</a>
</g>
<text xml:space="preserve" text-anchor="start" x="201.53" y="-91.5" font-family="Helvetica,sans-Serif" font-size="10.00" fill="grey">alpn</text>
<text xml:space="preserve" text-anchor="start" x="201.53" y="-75.5" font-family="Helvetica,sans-Serif" font-size="10.00" fill="grey">remote_addr</text>
<text xml:space="preserve" text-anchor="start" x="201.53" y="-59.5" font-family="Helvetica,sans-Serif" font-size="10.00" fill="grey">remote_port</text>
<text xml:space="preserve" text-anchor="start" x="201.53" y="-43.5" font-family="Helvetica,sans-Serif" font-size="10.00" fill="grey">sni</text>
</g>
</g>
</svg>
