<?xml version="1.0" encoding="UTF-8" standalone="no"?>
<!DOCTYPE svg PUBLIC "-//W3C//DTD SVG 1.1//EN"
 "http://www.w3.org/Graphics/SVG/1.1/DTD/svg11.dtd">
<!-- Generated by graphviz version 14.0.5 (0)
 -->
<!-- Title: mrb_heap_page Pages: 1 -->
<svg width="158pt" height="116pt"
 viewBox="0.00 0.00 158.00 116.00" xmlns="http://www.w3.org/2000/svg" xmlns:xlink="http://www.w3.org/1999/xlink">
<g id="graph0" class="graph" transform="scale(1 1) rotate(0) translate(4 112)">
<title>mrb_heap_page</title>
<!-- Node1 -->
<g id="Node000001" class="node">
<title>Node1</title>
<g id="a_Node000001"><a xlink:title=" ">
<polygon fill="#999999" stroke="#666666" points="85,-27 0,-27 0,-7 85,-7 85,-27"/>
<text xml:space="preserve" text-anchor="middle" x="42.5" y="-13.5" font-family="Helvetica,sans-Serif" font-size="10.00">mrb_heap_page</text>
</a>
</g>
</g>
<!-- Node1&#45;&gt;Node1 -->
<g id="edge2_Node000001_Node000001" class="edge">
<title>Node1&#45;&gt;Node1</title>
<g id="a_edge2_Node000001_Node000001"><a xlink:title=" ">
<path fill="none" stroke="#9a32cd" stroke-dasharray="5,2" d="M96.79,-23.05C100.64,-21.67 103,-19.66 103,-17 103,-12.27 95.55,-9.58 85.46,-8.91"/>
<polygon fill="#9a32cd" stroke="#9a32cd" points="96.17,-19.6 86.95,-24.82 97.41,-26.49 96.17,-19.6"/>
</a>
</g>
<text xml:space="preserve" text-anchor="start" x="106" y="-21.5" font-family="Helvetica,sans-Serif" font-size="10.00" fill="grey">free_next</text>
<text xml:space="preserve" text-anchor="start" x="106" y="-5.5" font-family="Helvetica,sans-Serif" font-size="10.00" fill="grey">next</text>
</g>
<!-- Node2 -->
<g id="Node000002" class="node">
<title>Node2</title>
<g id="a_Node000002"><a xlink:href="structRBasic.html" target="_top" xlink:title=" ">
<polygon fill="white" stroke="#bfbfbf" points="66.62,-108 18.38,-108 18.38,-88 66.62,-88 66.62,-108"/>
<text xml:space="preserve" text-anchor="middle" x="42.5" y="-94.5" font-family="Helvetica,sans-Serif" font-size="10.00">RBasic</text>
</a>
</g>
</g>
<!-- Node2&#45;&gt;Node1 -->
<g id="edge1_Node000001_Node000002" class="edge">
<title>Node2&#45;&gt;Node1</title>
<g id="a_edge1_Node000001_Node000002"><a xlink:title=" ">
<path fill="none" stroke="#9a32cd" stroke-dasharray="5,2" d="M42.5,-76.32C42.5,-60.48 42.5,-39.35 42.5,-27.36"/>
<polygon fill="#9a32cd" stroke="#9a32cd" points="39,-76.11 42.5,-86.11 46,-76.11 39,-76.11"/>
</a>
</g>
<text xml:space="preserve" text-anchor="start" x="45.5" y="-57.5" font-family="Helvetica,sans-Serif" font-size="10.00" fill="grey">freelist</text>
</g>
</g>
</svg>
