<?xml version="1.0" encoding="UTF-8" standalone="no"?>
<!DOCTYPE svg PUBLIC "-//W3C//DTD SVG 1.1//EN"
 "http://www.w3.org/Graphics/SVG/1.1/DTD/svg11.dtd">
<!-- Generated by graphviz version 14.0.5 (0)
 -->
<!-- Title: h2load::Worker Pages: 1 -->
<svg width="468pt" height="118pt"
 viewBox="0.00 0.00 468.00 118.00" xmlns="http://www.w3.org/2000/svg" xmlns:xlink="http://www.w3.org/1999/xlink">
<g id="graph0" class="graph" transform="scale(1 1) rotate(0) translate(4 114)">
<title>h2load::Worker</title>
<!-- Node1 -->
<g id="Node000001" class="node">
<title>Node1</title>
<g id="a_Node000001"><a xlink:title=" ">
<polygon fill="#999999" stroke="#666666" points="299.12,-20 217.88,-20 217.88,0 299.12,0 299.12,-20"/>
<text xml:space="preserve" text-anchor="middle" x="258.5" y="-6.5" font-family="Helvetica,sans-Serif" font-size="10.00">h2load::Worker</text>
</a>
</g>
</g>
<!-- Node2 -->
<g id="Node000002" class="node">
<title>Node2</title>
<g id="a_Node000002"><a xlink:href="structnghttp2_1_1Pool.html" target="_top" xlink:title=" ">
<polygon fill="white" stroke="#bfbfbf" points="157,-110 0,-110 0,-90 157,-90 157,-110"/>
<text xml:space="preserve" text-anchor="middle" x="78.5" y="-96.5" font-family="Helvetica,sans-Serif" font-size="10.00">nghttp2::Pool&lt; Memchunk16K &gt;</text>
</a>
</g>
</g>
<!-- Node2&#45;&gt;Node1 -->
<g id="edge1_Node000001_Node000002" class="edge">
<title>Node2&#45;&gt;Node1</title>
<g id="a_edge1_Node000001_Node000002"><a xlink:title=" ">
<path fill="none" stroke="#9a32cd" stroke-dasharray="5,2" d="M102.66,-83.6C123.85,-70.48 155.76,-51.63 185,-38 199.29,-31.34 215.72,-25.17 229.42,-20.42"/>
<polygon fill="#9a32cd" stroke="#9a32cd" points="100.8,-80.63 94.18,-88.91 104.52,-86.57 100.8,-80.63"/>
</a>
</g>
<text xml:space="preserve" text-anchor="start" x="188" y="-51.5" font-family="Helvetica,sans-Serif" font-size="10.00" fill="grey">mcpool</text>
</g>
<!-- Node3 -->
<g id="Node000003" class="node">
<title>Node3</title>
<g id="a_Node000003"><a xlink:href="structh2load_1_1Stats.html" target="_top" xlink:title=" ">
<polygon fill="white" stroke="#bfbfbf" points="248.38,-110 174.62,-110 174.62,-90 248.38,-90 248.38,-110"/>
<text xml:space="preserve" text-anchor="middle" x="211.5" y="-96.5" font-family="Helvetica,sans-Serif" font-size="10.00">h2load::Stats</text>
</a>
</g>
</g>
<!-- Node3&#45;&gt;Node1 -->
<g id="edge2_Node000001_Node000003" class="edge">
<title>Node3&#45;&gt;Node1</title>
<g id="a_edge2_Node000001_Node000003"><a xlink:title=" ">
<path fill="none" stroke="#9a32cd" stroke-dasharray="5,2" d="M221.83,-79.66C231.65,-61.27 246,-34.4 253.51,-20.35"/>
<polygon fill="#9a32cd" stroke="#9a32cd" points="218.87,-77.78 217.24,-88.25 225.04,-81.08 218.87,-77.78"/>
</a>
</g>
<text xml:space="preserve" text-anchor="start" x="246.3" y="-51.5" font-family="Helvetica,sans-Serif" font-size="10.00" fill="grey">stats</text>
</g>
<!-- Node4 -->
<g id="Node000004" class="node">
<title>Node4</title>
<g id="a_Node000004"><a xlink:href="structh2load_1_1Sampling.html" target="_top" xlink:title=" ">
<polygon fill="white" stroke="#bfbfbf" points="357,-110 266,-110 266,-90 357,-90 357,-110"/>
<text xml:space="preserve" text-anchor="middle" x="311.5" y="-96.5" font-family="Helvetica,sans-Serif" font-size="10.00">h2load::Sampling</text>
</a>
</g>
</g>
<!-- Node4&#45;&gt;Node1 -->
<g id="edge3_Node000001_Node000004" class="edge">
<title>Node4&#45;&gt;Node1</title>
<g id="a_edge3_Node000001_Node000004"><a xlink:title=" ">
<path fill="none" stroke="#9a32cd" stroke-dasharray="5,2" d="M300.49,-80.02C293.43,-67.94 284.03,-51.99 275.5,-38 271.92,-32.14 267.82,-25.62 264.55,-20.46"/>
<polygon fill="#9a32cd" stroke="#9a32cd" points="297.4,-81.67 305.45,-88.55 303.45,-78.15 297.4,-81.67"/>
</a>
</g>
<text xml:space="preserve" text-anchor="start" x="298.25" y="-59.5" font-family="Helvetica,sans-Serif" font-size="10.00" fill="grey">client_smp</text>
<text xml:space="preserve" text-anchor="start" x="298.25" y="-43.5" font-family="Helvetica,sans-Serif" font-size="10.00" fill="grey">request_times_smp</text>
</g>
<!-- Node5 -->
<g id="Node000005" class="node">
<title>Node5</title>
<g id="a_Node000005"><a xlink:href="structh2load_1_1Config.html" target="_top" xlink:title=" ">
<polygon fill="white" stroke="#bfbfbf" points="460,-110 381,-110 381,-90 460,-90 460,-110"/>
<text xml:space="preserve" text-anchor="middle" x="420.5" y="-96.5" font-family="Helvetica,sans-Serif" font-size="10.00">h2load::Config</text>
</a>
</g>
</g>
<!-- Node5&#45;&gt;Node1 -->
<g id="edge4_Node000001_Node000005" class="edge">
<title>Node5&#45;&gt;Node1</title>
<g id="a_edge4_Node000001_Node000005"><a xlink:title=" ">
<path fill="none" stroke="#9a32cd" stroke-dasharray="5,2" d="M415.73,-79.22C411.41,-65.59 403.65,-48.16 390.5,-38 376.48,-27.17 332.82,-19.7 299.52,-15.41"/>
<polygon fill="#9a32cd" stroke="#9a32cd" points="412.25,-79.78 418.29,-88.49 419,-77.92 412.25,-79.78"/>
</a>
</g>
<text xml:space="preserve" text-anchor="start" x="415.71" y="-51.5" font-family="Helvetica,sans-Serif" font-size="10.00" fill="grey">config</text>
</g>
</g>
</svg>
