<?xml version="1.0" encoding="UTF-8" standalone="no"?>
<!DOCTYPE svg PUBLIC "-//W3C//DTD SVG 1.1//EN"
 "http://www.w3.org/Graphics/SVG/1.1/DTD/svg11.dtd">
<!-- Generated by graphviz version 14.0.5 (0)
 -->
<!-- Title: mrb_irep Pages: 1 -->
<svg width="300pt" height="266pt"
 viewBox="0.00 0.00 300.00 266.00" xmlns="http://www.w3.org/2000/svg" xmlns:xlink="http://www.w3.org/1999/xlink">
<g id="graph0" class="graph" transform="scale(1 1) rotate(0) translate(4 262)">
<title>mrb_irep</title>
<!-- Node1 -->
<g id="Node000001" class="node">
<title>Node1</title>
<g id="a_Node000001"><a xlink:title=" ">
<polygon fill="#999999" stroke="#666666" points="156.88,-20 103.38,-20 103.38,0 156.88,0 156.88,-20"/>
<text xml:space="preserve" text-anchor="middle" x="130.12" y="-6.5" font-family="Helvetica,sans-Serif" font-size="10.00">mrb_irep</text>
</a>
</g>
</g>
<!-- Node1&#45;&gt;Node1 -->
<g id="edge3_Node000001_Node000001" class="edge">
<title>Node1&#45;&gt;Node1</title>
<g id="a_edge3_Node000001_Node000001"><a xlink:title=" ">
<path fill="none" stroke="#9a32cd" stroke-dasharray="5,2" d="M168.44,-16.95C172.37,-15.58 174.88,-13.26 174.88,-10 174.88,-4.2 166.94,-1.39 157.21,-1.57"/>
<polygon fill="#9a32cd" stroke="#9a32cd" points="168.17,-13.45 158.71,-18.23 169.09,-20.39 168.17,-13.45"/>
</a>
</g>
<text xml:space="preserve" text-anchor="start" x="177.88" y="-6.5" font-family="Helvetica,sans-Serif" font-size="10.00" fill="grey">reps</text>
</g>
<!-- Node2 -->
<g id="Node000002" class="node">
<title>Node2</title>
<g id="a_Node000002"><a xlink:href="structmrb__pool__value.html" target="_top" xlink:title=" ">
<polygon fill="white" stroke="#bfbfbf" points="84.25,-110 0,-110 0,-90 84.25,-90 84.25,-110"/>
<text xml:space="preserve" text-anchor="middle" x="42.12" y="-96.5" font-family="Helvetica,sans-Serif" font-size="10.00">mrb_pool_value</text>
</a>
</g>
</g>
<!-- Node2&#45;&gt;Node1 -->
<g id="edge1_Node000001_Node000002" class="edge">
<title>Node2&#45;&gt;Node1</title>
<g id="a_edge1_Node000001_Node000002"><a xlink:title=" ">
<path fill="none" stroke="#9a32cd" stroke-dasharray="5,2" d="M58.81,-81.79C70.78,-69.51 87.35,-52.63 102.12,-38 108.08,-32.11 114.83,-25.59 120.22,-20.43"/>
<polygon fill="#9a32cd" stroke="#9a32cd" points="56.51,-79.14 52.05,-88.75 61.53,-84.02 56.51,-79.14"/>
</a>
</g>
<text xml:space="preserve" text-anchor="start" x="105.12" y="-51.5" font-family="Helvetica,sans-Serif" font-size="10.00" fill="grey">pool</text>
</g>
<!-- Node3 -->
<g id="Node000003" class="node">
<title>Node3</title>
<g id="a_Node000003"><a xlink:href="classmrb__sym.html" target="_top" xlink:title=" ">
<polygon fill="white" stroke="#666666" points="158.38,-110 101.88,-110 101.88,-90 158.38,-90 158.38,-110"/>
<text xml:space="preserve" text-anchor="middle" x="130.12" y="-96.5" font-family="Helvetica,sans-Serif" font-size="10.00">mrb_sym</text>
</a>
</g>
</g>
<!-- Node3&#45;&gt;Node1 -->
<g id="edge2_Node000001_Node000003" class="edge">
<title>Node3&#45;&gt;Node1</title>
<g id="a_edge2_Node000001_Node000003"><a xlink:title=" ">
<path fill="none" stroke="#9a32cd" stroke-dasharray="5,2" d="M130.12,-78.09C130.12,-59.77 130.12,-34.01 130.12,-20.35"/>
<polygon fill="#9a32cd" stroke="#9a32cd" points="126.63,-78.07 130.13,-88.07 133.63,-78.07 126.63,-78.07"/>
</a>
</g>
<text xml:space="preserve" text-anchor="start" x="133.12" y="-59.5" font-family="Helvetica,sans-Serif" font-size="10.00" fill="grey">lv</text>
<text xml:space="preserve" text-anchor="start" x="133.12" y="-43.5" font-family="Helvetica,sans-Serif" font-size="10.00" fill="grey">syms</text>
</g>
<!-- Node4 -->
<g id="Node000004" class="node">
<title>Node4</title>
<g id="a_Node000004"><a xlink:href="structmrb__irep__debug__info.html" target="_top" xlink:title=" ">
<polygon fill="white" stroke="#bfbfbf" points="282.12,-110 176.12,-110 176.12,-90 282.12,-90 282.12,-110"/>
<text xml:space="preserve" text-anchor="middle" x="229.12" y="-96.5" font-family="Helvetica,sans-Serif" font-size="10.00">mrb_irep_debug_info</text>
</a>
</g>
</g>
<!-- Node4&#45;&gt;Node1 -->
<g id="edge4_Node000001_Node000004" class="edge">
<title>Node4&#45;&gt;Node1</title>
<g id="a_edge4_Node000001_Node000004"><a xlink:title=" ">
<path fill="none" stroke="#9a32cd" stroke-dasharray="5,2" d="M211.66,-81.86C198.78,-69.41 180.68,-52.3 164.12,-38 157.05,-31.89 148.85,-25.36 142.28,-20.26"/>
<polygon fill="#9a32cd" stroke="#9a32cd" points="208.97,-84.13 218.58,-88.6 213.85,-79.11 208.97,-84.13"/>
</a>
</g>
<text xml:space="preserve" text-anchor="start" x="202.96" y="-51.5" font-family="Helvetica,sans-Serif" font-size="10.00" fill="grey">debug_info</text>
</g>
<!-- Node5 -->
<g id="Node000005" class="node">
<title>Node5</title>
<g id="a_Node000005"><a xlink:href="structmrb__irep__debug__info__file.html" target="_top" xlink:title=" ">
<polygon fill="white" stroke="#bfbfbf" points="291.12,-184 167.12,-184 167.12,-164 291.12,-164 291.12,-184"/>
<text xml:space="preserve" text-anchor="middle" x="229.12" y="-170.5" font-family="Helvetica,sans-Serif" font-size="10.00">mrb_irep_debug_info_file</text>
</a>
</g>
</g>
<!-- Node5&#45;&gt;Node4 -->
<g id="edge5_Node000004_Node000005" class="edge">
<title>Node5&#45;&gt;Node4</title>
<g id="a_edge5_Node000004_Node000005"><a xlink:title=" ">
<path fill="none" stroke="#9a32cd" stroke-dasharray="5,2" d="M229.12,-152.18C229.12,-138.29 229.12,-120.71 229.12,-110.19"/>
<polygon fill="#9a32cd" stroke="#9a32cd" points="225.63,-152.07 229.13,-162.07 232.63,-152.07 225.63,-152.07"/>
</a>
</g>
<text xml:space="preserve" text-anchor="start" x="232.12" y="-133.5" font-family="Helvetica,sans-Serif" font-size="10.00" fill="grey">files</text>
</g>
<!-- Node6 -->
<g id="Node000006" class="node">
<title>Node6</title>
<g id="a_Node000006"><a xlink:href="structmrb__irep__debug__info__line.html" target="_top" xlink:title=" ">
<polygon fill="white" stroke="#bfbfbf" points="292.25,-258 166,-258 166,-238 292.25,-238 292.25,-258"/>
<text xml:space="preserve" text-anchor="middle" x="229.12" y="-244.5" font-family="Helvetica,sans-Serif" font-size="10.00">mrb_irep_debug_info_line</text>
</a>
</g>
</g>
<!-- Node6&#45;&gt;Node5 -->
<g id="edge6_Node000005_Node000006" class="edge">
<title>Node6&#45;&gt;Node5</title>
<g id="a_edge6_Node000005_Node000006"><a xlink:title=" ">
<path fill="none" stroke="#9a32cd" stroke-dasharray="5,2" d="M229.12,-226.18C229.12,-212.29 229.12,-194.71 229.12,-184.19"/>
<polygon fill="#9a32cd" stroke="#9a32cd" points="225.63,-226.07 229.13,-236.07 232.63,-226.07 225.63,-226.07"/>
</a>
</g>
<text xml:space="preserve" text-anchor="start" x="232.12" y="-207.5" font-family="Helvetica,sans-Serif" font-size="10.00" fill="grey">flat_map</text>
</g>
</g>
</svg>
