<?xml version="1.0" encoding="UTF-8" standalone="no"?>
<!DOCTYPE svg PUBLIC "-//W3C//DTD SVG 1.1//EN"
 "http://www.w3.org/Graphics/SVG/1.1/DTD/svg11.dtd">
<!-- Generated by graphviz version 14.0.5 (0)
 -->
<!-- Title: shrpx::mruby::MRubyAssocData Pages: 1 -->
<svg width="189pt" height="116pt"
 viewBox="0.00 0.00 189.00 116.00" xmlns="http://www.w3.org/2000/svg" xmlns:xlink="http://www.w3.org/1999/xlink">
<g id="graph0" class="graph" transform="scale(1 1) rotate(0) translate(4 112)">
<title>shrpx::mruby::MRubyAssocData</title>
<!-- Node1 -->
<g id="Node000001" class="node">
<title>Node1</title>
<g id="a_Node000001"><a xlink:title=" ">
<polygon fill="#999999" stroke="#666666" points="159.25,-20 0,-20 0,0 159.25,0 159.25,-20"/>
<text xml:space="preserve" text-anchor="middle" x="79.62" y="-6.5" font-family="Helvetica,sans-Serif" font-size="10.00">shrpx::mruby::MRubyAssocData</text>
</a>
</g>
</g>
<!-- Node2 -->
<g id="Node000002" class="node">
<title>Node2</title>
<g id="a_Node000002"><a xlink:href="classshrpx_1_1Downstream.html" target="_top" xlink:title=" ">
<polygon fill="white" stroke="#bfbfbf" points="130.38,-101 28.88,-101 28.88,-81 130.38,-81 130.38,-101"/>
<text xml:space="preserve" text-anchor="middle" x="79.62" y="-87.5" font-family="Helvetica,sans-Serif" font-size="10.00">shrpx::Downstream</text>
</a>
</g>
</g>
<!-- Node2&#45;&gt;Node1 -->
<g id="edge1_Node000001_Node000002" class="edge">
<title>Node2&#45;&gt;Node1</title>
<g id="a_edge1_Node000001_Node000002"><a xlink:title=" ">
<path fill="none" stroke="#9a32cd" stroke-dasharray="5,2" d="M79.62,-69.32C79.62,-53.48 79.62,-32.35 79.62,-20.36"/>
<polygon fill="#9a32cd" stroke="#9a32cd" points="76.13,-69.11 79.63,-79.11 83.13,-69.11 76.13,-69.11"/>
</a>
</g>
<text xml:space="preserve" text-anchor="start" x="82.62" y="-43.5" font-family="Helvetica,sans-Serif" font-size="10.00" fill="grey">downstream</text>
</g>
<!-- Node2&#45;&gt;Node2 -->
<g id="edge2_Node000002_Node000002" class="edge">
<title>Node2&#45;&gt;Node2</title>
<g id="a_edge2_Node000002_Node000002"><a xlink:title=" ">
<path fill="none" stroke="#9a32cd" stroke-dasharray="5,2" d="M141.8,-96.89C145.9,-95.52 148.38,-93.56 148.38,-91 148.38,-86.57 140.96,-83.93 130.59,-83.06"/>
<polygon fill="#9a32cd" stroke="#9a32cd" points="141.29,-93.43 132.08,-98.66 142.55,-100.31 141.29,-93.43"/>
</a>
</g>
<text xml:space="preserve" text-anchor="start" x="151.38" y="-95.5" font-family="Helvetica,sans-Serif" font-size="10.00" fill="grey">dlnext</text>
<text xml:space="preserve" text-anchor="start" x="151.38" y="-79.5" font-family="Helvetica,sans-Serif" font-size="10.00" fill="grey">dlprev</text>
</g>
</g>
</svg>
