<?xml version="1.0" encoding="UTF-8" standalone="no"?>
<!DOCTYPE svg PUBLIC "-//W3C//DTD SVG 1.1//EN"
 "http://www.w3.org/Graphics/SVG/1.1/DTD/svg11.dtd">
<!-- Generated by graphviz version 14.0.5 (0)
 -->
<!-- Title: RRange Pages: 1 -->
<svg width="101pt" height="266pt"
 viewBox="0.00 0.00 101.00 266.00" xmlns="http://www.w3.org/2000/svg" xmlns:xlink="http://www.w3.org/1999/xlink">
<g id="graph0" class="graph" transform="scale(1 1) rotate(0) translate(4 262)">
<title>RRange</title>
<!-- Node1 -->
<g id="Node000001" class="node">
<title>Node1</title>
<g id="a_Node000001"><a xlink:title=" ">
<polygon fill="#999999" stroke="#666666" points="72.62,-20 20.62,-20 20.62,0 72.62,0 72.62,-20"/>
<text xml:space="preserve" text-anchor="middle" x="46.62" y="-6.5" font-family="Helvetica,sans-Serif" font-size="10.00">RRange</text>
</a>
</g>
</g>
<!-- Node2 -->
<g id="Node000002" class="node">
<title>Node2</title>
<g id="a_Node000002"><a xlink:href="structmrb__range__edges.html" target="_top" xlink:title=" ">
<polygon fill="white" stroke="#666666" points="93.25,-94 0,-94 0,-74 93.25,-74 93.25,-94"/>
<text xml:space="preserve" text-anchor="middle" x="46.62" y="-80.5" font-family="Helvetica,sans-Serif" font-size="10.00">mrb_range_edges</text>
</a>
</g>
</g>
<!-- Node2&#45;&gt;Node1 -->
<g id="edge1_Node000001_Node000002" class="edge">
<title>Node2&#45;&gt;Node1</title>
<g id="a_edge1_Node000001_Node000002"><a xlink:title=" ">
<path fill="none" stroke="#9a32cd" stroke-dasharray="5,2" d="M46.62,-62.18C46.62,-48.29 46.62,-30.71 46.62,-20.19"/>
<polygon fill="#9a32cd" stroke="#9a32cd" points="43.13,-62.07 46.63,-72.07 50.13,-62.07 43.13,-62.07"/>
</a>
</g>
<text xml:space="preserve" text-anchor="start" x="49.62" y="-43.5" font-family="Helvetica,sans-Serif" font-size="10.00" fill="grey">edges</text>
</g>
<!-- Node3 -->
<g id="Node000003" class="node">
<title>Node3</title>
<g id="a_Node000003"><a xlink:href="structmrb__value.html" target="_top" xlink:title=" ">
<polygon fill="white" stroke="#bfbfbf" points="77.12,-184 16.12,-184 16.12,-164 77.12,-164 77.12,-184"/>
<text xml:space="preserve" text-anchor="middle" x="46.62" y="-170.5" font-family="Helvetica,sans-Serif" font-size="10.00">mrb_value</text>
</a>
</g>
</g>
<!-- Node3&#45;&gt;Node2 -->
<g id="edge2_Node000002_Node000003" class="edge">
<title>Node3&#45;&gt;Node2</title>
<g id="a_edge2_Node000002_Node000003"><a xlink:title=" ">
<path fill="none" stroke="#9a32cd" stroke-dasharray="5,2" d="M46.62,-152.09C46.62,-133.77 46.62,-108.01 46.62,-94.35"/>
<polygon fill="#9a32cd" stroke="#9a32cd" points="43.13,-152.07 46.63,-162.07 50.13,-152.07 43.13,-152.07"/>
</a>
</g>
<text xml:space="preserve" text-anchor="start" x="49.62" y="-133.5" font-family="Helvetica,sans-Serif" font-size="10.00" fill="grey">beg</text>
<text xml:space="preserve" text-anchor="start" x="49.62" y="-117.5" font-family="Helvetica,sans-Serif" font-size="10.00" fill="grey">end</text>
</g>
<!-- Node4 -->
<g id="Node000004" class="node">
<title>Node4</title>
<g id="a_Node000004"><a xlink:href="unionmrb__value__union.html" target="_top" xlink:title=" ">
<polygon fill="white" stroke="#bfbfbf" points="91.38,-258 1.88,-258 1.88,-238 91.38,-238 91.38,-258"/>
<text xml:space="preserve" text-anchor="middle" x="46.62" y="-244.5" font-family="Helvetica,sans-Serif" font-size="10.00">mrb_value_union</text>
</a>
</g>
</g>
<!-- Node4&#45;&gt;Node3 -->
<g id="edge3_Node000003_Node000004" class="edge">
<title>Node4&#45;&gt;Node3</title>
<g id="a_edge3_Node000003_Node000004"><a xlink:title=" ">
<path fill="none" stroke="#9a32cd" stroke-dasharray="5,2" d="M46.62,-226.18C46.62,-212.29 46.62,-194.71 46.62,-184.19"/>
<polygon fill="#9a32cd" stroke="#9a32cd" points="43.13,-226.07 46.63,-236.07 50.13,-226.07 43.13,-226.07"/>
</a>
</g>
<text xml:space="preserve" text-anchor="start" x="49.62" y="-207.5" font-family="Helvetica,sans-Serif" font-size="10.00" fill="grey">value</text>
</g>
</g>
</svg>
