<?xml version="1.0" encoding="UTF-8" standalone="no"?>
<!DOCTYPE svg PUBLIC "-//W3C//DTD SVG 1.1//EN"
 "http://www.w3.org/Graphics/SVG/1.1/DTD/svg11.dtd">
<!-- Generated by graphviz version 14.0.5 (0)
 -->
<!-- Title: shrpx::Request Pages: 1 -->
<svg width="217pt" height="166pt"
 viewBox="0.00 0.00 217.00 166.00" xmlns="http://www.w3.org/2000/svg" xmlns:xlink="http://www.w3.org/1999/xlink">
<g id="graph0" class="graph" transform="scale(1 1) rotate(0) translate(4 162)">
<title>shrpx::Request</title>
<!-- Node1 -->
<g id="Node000001" class="node">
<title>Node1</title>
<g id="a_Node000001"><a xlink:title=" ">
<polygon fill="#999999" stroke="#666666" points="141.5,-20 58.75,-20 58.75,0 141.5,0 141.5,-20"/>
<text xml:space="preserve" text-anchor="middle" x="100.12" y="-6.5" font-family="Helvetica,sans-Serif" font-size="10.00">shrpx::Request</text>
</a>
</g>
</g>
<!-- Node2 -->
<g id="Node000002" class="node">
<title>Node2</title>
<g id="a_Node000002"><a xlink:href="classshrpx_1_1FieldStore.html" target="_top" xlink:title=" ">
<polygon fill="white" stroke="#bfbfbf" points="90.25,-158 0,-158 0,-138 90.25,-138 90.25,-158"/>
<text xml:space="preserve" text-anchor="middle" x="45.12" y="-144.5" font-family="Helvetica,sans-Serif" font-size="10.00">shrpx::FieldStore</text>
</a>
</g>
</g>
<!-- Node2&#45;&gt;Node1 -->
<g id="edge1_Node000001_Node000002" class="edge">
<title>Node2&#45;&gt;Node1</title>
<g id="a_edge1_Node000001_Node000002"><a xlink:title=" ">
<path fill="none" stroke="#9a32cd" stroke-dasharray="5,2" d="M53.09,-127.3C65.11,-97.58 87.42,-42.41 96.32,-20.41"/>
<polygon fill="#9a32cd" stroke="#9a32cd" points="49.98,-125.67 49.47,-136.25 56.47,-128.29 49.98,-125.67"/>
</a>
</g>
<text xml:space="preserve" text-anchor="start" x="91.25" y="-75.5" font-family="Helvetica,sans-Serif" font-size="10.00" fill="grey">fs</text>
</g>
<!-- Node3 -->
<g id="Node000003" class="node">
<title>Node3</title>
<g id="a_Node000003"><a xlink:href="classnghttp2_1_1StringRef.html" target="_top" xlink:title=" ">
<polygon fill="white" stroke="#bfbfbf" points="203.88,-158 108.38,-158 108.38,-138 203.88,-138 203.88,-158"/>
<text xml:space="preserve" text-anchor="middle" x="156.12" y="-144.5" font-family="Helvetica,sans-Serif" font-size="10.00">nghttp2::StringRef</text>
</a>
</g>
</g>
<!-- Node3&#45;&gt;Node1 -->
<g id="edge2_Node000001_Node000003" class="edge">
<title>Node3&#45;&gt;Node1</title>
<g id="a_edge2_Node000001_Node000003"><a xlink:title=" ">
<path fill="none" stroke="#9a32cd" stroke-dasharray="5,2" d="M148.01,-127.3C135.77,-97.58 113.06,-42.41 104,-20.41"/>
<polygon fill="#9a32cd" stroke="#9a32cd" points="144.66,-128.34 151.7,-136.25 151.13,-125.67 144.66,-128.34"/>
</a>
</g>
<text xml:space="preserve" text-anchor="start" x="147.03" y="-107.5" font-family="Helvetica,sans-Serif" font-size="10.00" fill="grey">authority</text>
<text xml:space="preserve" text-anchor="start" x="147.03" y="-91.5" font-family="Helvetica,sans-Serif" font-size="10.00" fill="grey">orig_authority</text>
<text xml:space="preserve" text-anchor="start" x="147.03" y="-75.5" font-family="Helvetica,sans-Serif" font-size="10.00" fill="grey">orig_path</text>
<text xml:space="preserve" text-anchor="start" x="147.03" y="-59.5" font-family="Helvetica,sans-Serif" font-size="10.00" fill="grey">path</text>
<text xml:space="preserve" text-anchor="start" x="147.03" y="-43.5" font-family="Helvetica,sans-Serif" font-size="10.00" fill="grey">scheme</text>
</g>
</g>
</svg>
