<?xml version="1.0" encoding="UTF-8" standalone="no"?>
<!DOCTYPE svg PUBLIC "-//W3C//DTD SVG 1.1//EN"
 "http://www.w3.org/Graphics/SVG/1.1/DTD/svg11.dtd">
<!-- Generated by graphviz version 14.0.5 (0)
 -->
<!-- Title: shrpx::WildcardPattern Pages: 1 -->
<svg width="196pt" height="102pt"
 viewBox="0.00 0.00 196.00 102.00" xmlns="http://www.w3.org/2000/svg" xmlns:xlink="http://www.w3.org/1999/xlink">
<g id="graph0" class="graph" transform="scale(1 1) rotate(0) translate(4 98)">
<title>shrpx::WildcardPattern</title>
<!-- Node1 -->
<g id="Node000001" class="node">
<title>Node1</title>
<g id="a_Node000001"><a xlink:title=" ">
<polygon fill="#999999" stroke="#666666" points="156.62,-20 40.88,-20 40.88,0 156.62,0 156.62,-20"/>
<text xml:space="preserve" text-anchor="middle" x="98.75" y="-6.5" font-family="Helvetica,sans-Serif" font-size="10.00">shrpx::WildcardPattern</text>
</a>
</g>
</g>
<!-- Node2 -->
<g id="Node000002" class="node">
<title>Node2</title>
<g id="a_Node000002"><a xlink:href="classnghttp2_1_1StringRef.html" target="_top" xlink:title=" ">
<polygon fill="white" stroke="#bfbfbf" points="95.5,-94 0,-94 0,-74 95.5,-74 95.5,-94"/>
<text xml:space="preserve" text-anchor="middle" x="47.75" y="-80.5" font-family="Helvetica,sans-Serif" font-size="10.00">nghttp2::StringRef</text>
</a>
</g>
</g>
<!-- Node2&#45;&gt;Node1 -->
<g id="edge1_Node000001_Node000002" class="edge">
<title>Node2&#45;&gt;Node1</title>
<g id="a_edge1_Node000001_Node000002"><a xlink:title=" ">
<path fill="none" stroke="#9a32cd" stroke-dasharray="5,2" d="M61.01,-64.27C71.05,-50.1 84.41,-31.25 92.24,-20.19"/>
<polygon fill="#9a32cd" stroke="#9a32cd" points="58.22,-62.17 55.29,-72.35 63.93,-66.21 58.22,-62.17"/>
</a>
</g>
<text xml:space="preserve" text-anchor="start" x="82.32" y="-43.5" font-family="Helvetica,sans-Serif" font-size="10.00" fill="grey">host</text>
</g>
<!-- Node3 -->
<g id="Node000003" class="node">
<title>Node3</title>
<g id="a_Node000003"><a xlink:href="classshrpx_1_1Router.html" target="_top" xlink:title=" ">
<polygon fill="white" stroke="#bfbfbf" points="188.38,-94 113.12,-94 113.12,-74 188.38,-74 188.38,-94"/>
<text xml:space="preserve" text-anchor="middle" x="150.75" y="-80.5" font-family="Helvetica,sans-Serif" font-size="10.00">shrpx::Router</text>
</a>
</g>
</g>
<!-- Node3&#45;&gt;Node1 -->
<g id="edge2_Node000001_Node000003" class="edge">
<title>Node3&#45;&gt;Node1</title>
<g id="a_edge2_Node000001_Node000003"><a xlink:title=" ">
<path fill="none" stroke="#9a32cd" stroke-dasharray="5,2" d="M137.23,-64.27C126.99,-50.1 113.37,-31.25 105.39,-20.19"/>
<polygon fill="#9a32cd" stroke="#9a32cd" points="134.37,-66.3 143.07,-72.36 140.05,-62.2 134.37,-66.3"/>
</a>
</g>
<text xml:space="preserve" text-anchor="start" x="133.94" y="-43.5" font-family="Helvetica,sans-Serif" font-size="10.00" fill="grey">router</text>
</g>
</g>
</svg>
