<?xml version="1.0" encoding="UTF-8" standalone="no"?>
<!DOCTYPE svg PUBLIC "-//W3C//DTD SVG 1.1//EN"
 "http://www.w3.org/Graphics/SVG/1.1/DTD/svg11.dtd">
<!-- Generated by graphviz version 14.0.5 (0)
 -->
<!-- Title: shrpx::SharedDownstreamAddr Pages: 1 -->
<svg width="266pt" height="192pt"
 viewBox="0.00 0.00 266.00 192.00" xmlns="http://www.w3.org/2000/svg" xmlns:xlink="http://www.w3.org/1999/xlink">
<g id="graph0" class="graph" transform="scale(1 1) rotate(0) translate(4 188)">
<title>shrpx::SharedDownstreamAddr</title>
<!-- Node1 -->
<g id="Node000001" class="node">
<title>Node1</title>
<g id="a_Node000001"><a xlink:title=" ">
<polygon fill="#999999" stroke="#666666" points="209.62,-20 57.12,-20 57.12,0 209.62,0 209.62,-20"/>
<text xml:space="preserve" text-anchor="middle" x="133.38" y="-6.5" font-family="Helvetica,sans-Serif" font-size="10.00">shrpx::SharedDownstreamAddr</text>
</a>
</g>
</g>
<!-- Node2 -->
<g id="Node000002" class="node">
<title>Node2</title>
<g id="a_Node000002"><a xlink:href="structnghttp2_1_1BlockAllocator.html" target="_top" xlink:title=" ">
<polygon fill="white" stroke="#bfbfbf" points="128,-94 10.75,-94 10.75,-74 128,-74 128,-94"/>
<text xml:space="preserve" text-anchor="middle" x="69.38" y="-80.5" font-family="Helvetica,sans-Serif" font-size="10.00">nghttp2::BlockAllocator</text>
</a>
</g>
</g>
<!-- Node2&#45;&gt;Node1 -->
<g id="edge1_Node000001_Node000002" class="edge">
<title>Node2&#45;&gt;Node1</title>
<g id="a_edge1_Node000001_Node000002"><a xlink:title=" ">
<path fill="none" stroke="#9a32cd" stroke-dasharray="5,2" d="M85.29,-65.09C97.97,-50.84 115.19,-31.46 125.21,-20.19"/>
<polygon fill="#9a32cd" stroke="#9a32cd" points="82.78,-62.66 78.75,-72.46 88.01,-67.31 82.78,-62.66"/>
</a>
</g>
<text xml:space="preserve" text-anchor="start" x="111.99" y="-43.5" font-family="Helvetica,sans-Serif" font-size="10.00" fill="grey">balloc</text>
</g>
<!-- Node3 -->
<g id="Node000003" class="node">
<title>Node3</title>
<g id="a_Node000003"><a xlink:href="structnghttp2_1_1MemBlock.html" target="_top" xlink:title=" ">
<polygon fill="white" stroke="#bfbfbf" points="100.75,-184 0,-184 0,-164 100.75,-164 100.75,-184"/>
<text xml:space="preserve" text-anchor="middle" x="50.38" y="-170.5" font-family="Helvetica,sans-Serif" font-size="10.00">nghttp2::MemBlock</text>
</a>
</g>
</g>
<!-- Node3&#45;&gt;Node2 -->
<g id="edge2_Node000002_Node000003" class="edge">
<title>Node3&#45;&gt;Node2</title>
<g id="a_edge2_Node000002_Node000003"><a xlink:title=" ">
<path fill="none" stroke="#9a32cd" stroke-dasharray="5,2" d="M54.83,-152.35C58.79,-134.02 64.39,-108.07 67.36,-94.35"/>
<polygon fill="#9a32cd" stroke="#9a32cd" points="51.42,-151.59 52.73,-162.1 58.26,-153.07 51.42,-151.59"/>
</a>
</g>
<text xml:space="preserve" text-anchor="start" x="66.23" y="-133.5" font-family="Helvetica,sans-Serif" font-size="10.00" fill="grey">head</text>
<text xml:space="preserve" text-anchor="start" x="66.23" y="-117.5" font-family="Helvetica,sans-Serif" font-size="10.00" fill="grey">retain</text>
</g>
<!-- Node3&#45;&gt;Node3 -->
<g id="edge3_Node000003_Node000003" class="edge">
<title>Node3&#45;&gt;Node3</title>
<g id="a_edge3_Node000003_Node000003"><a xlink:title=" ">
<path fill="none" stroke="#9a32cd" stroke-dasharray="5,2" d="M112.21,-180.02C116.28,-178.62 118.75,-176.62 118.75,-174 118.75,-169.47 111.37,-166.77 101.07,-165.88"/>
<polygon fill="#9a32cd" stroke="#9a32cd" points="111.74,-176.55 102.55,-181.84 113.03,-183.43 111.74,-176.55"/>
</a>
</g>
<text xml:space="preserve" text-anchor="start" x="121.75" y="-170.5" font-family="Helvetica,sans-Serif" font-size="10.00" fill="grey">next</text>
</g>
<!-- Node4 -->
<g id="Node000004" class="node">
<title>Node4</title>
<g id="a_Node000004"><a xlink:href="structshrpx_1_1AffinityConfig.html" target="_top" xlink:title=" ">
<polygon fill="white" stroke="#bfbfbf" points="257.62,-94 153.12,-94 153.12,-74 257.62,-74 257.62,-94"/>
<text xml:space="preserve" text-anchor="middle" x="205.38" y="-80.5" font-family="Helvetica,sans-Serif" font-size="10.00">shrpx::AffinityConfig</text>
</a>
</g>
</g>
<!-- Node4&#45;&gt;Node1 -->
<g id="edge4_Node000001_Node000004" class="edge">
<title>Node4&#45;&gt;Node1</title>
<g id="a_edge4_Node000001_Node000004"><a xlink:title=" ">
<path fill="none" stroke="#9a32cd" stroke-dasharray="5,2" d="M187.87,-65.5C173.58,-51.21 153.94,-31.57 142.56,-20.19"/>
<polygon fill="#9a32cd" stroke="#9a32cd" points="185.35,-67.92 194.89,-72.52 190.3,-62.97 185.35,-67.92"/>
</a>
</g>
<text xml:space="preserve" text-anchor="start" x="180.94" y="-43.5" font-family="Helvetica,sans-Serif" font-size="10.00" fill="grey">affinity</text>
</g>
<!-- Node5 -->
<g id="Node000005" class="node">
<title>Node5</title>
<g id="a_Node000005"><a xlink:href="classnghttp2_1_1StringRef.html" target="_top" xlink:title=" ">
<polygon fill="white" stroke="#bfbfbf" points="257.12,-184 161.62,-184 161.62,-164 257.12,-164 257.12,-184"/>
<text xml:space="preserve" text-anchor="middle" x="209.38" y="-170.5" font-family="Helvetica,sans-Serif" font-size="10.00">nghttp2::StringRef</text>
</a>
</g>
</g>
<!-- Node5&#45;&gt;Node4 -->
<g id="edge5_Node000004_Node000005" class="edge">
<title>Node5&#45;&gt;Node4</title>
<g id="a_edge5_Node000004_Node000005"><a xlink:title=" ">
<path fill="none" stroke="#9a32cd" stroke-dasharray="5,2" d="M208.42,-152.09C207.59,-133.77 206.42,-108.01 205.8,-94.35"/>
<polygon fill="#9a32cd" stroke="#9a32cd" points="204.93,-152.24 208.88,-162.07 211.92,-151.92 204.93,-152.24"/>
</a>
</g>
<text xml:space="preserve" text-anchor="start" x="211.08" y="-133.5" font-family="Helvetica,sans-Serif" font-size="10.00" fill="grey">name</text>
<text xml:space="preserve" text-anchor="start" x="211.08" y="-117.5" font-family="Helvetica,sans-Serif" font-size="10.00" fill="grey">path</text>
</g>
</g>
</svg>
