<?xml version="1.0" encoding="UTF-8" standalone="no"?>
<!DOCTYPE svg PUBLIC "-//W3C//DTD SVG 1.1//EN"
 "http://www.w3.org/Graphics/SVG/1.1/DTD/svg11.dtd">
<!-- Generated by graphviz version 14.0.5 (0)
 -->
<!-- Title: mrb_irep_debug_info Pages: 1 -->
<svg width="134pt" height="176pt"
 viewBox="0.00 0.00 134.00 176.00" xmlns="http://www.w3.org/2000/svg" xmlns:xlink="http://www.w3.org/1999/xlink">
<g id="graph0" class="graph" transform="scale(1 1) rotate(0) translate(4 172)">
<title>mrb_irep_debug_info</title>
<!-- Node1 -->
<g id="Node000001" class="node">
<title>Node1</title>
<g id="a_Node000001"><a xlink:title=" ">
<polygon fill="#999999" stroke="#666666" points="116.12,-20 10.12,-20 10.12,0 116.12,0 116.12,-20"/>
<text xml:space="preserve" text-anchor="middle" x="63.12" y="-6.5" font-family="Helvetica,sans-Serif" font-size="10.00">mrb_irep_debug_info</text>
</a>
</g>
</g>
<!-- Node2 -->
<g id="Node000002" class="node">
<title>Node2</title>
<g id="a_Node000002"><a xlink:href="structmrb__irep__debug__info__file.html" target="_top" xlink:title=" ">
<polygon fill="white" stroke="#bfbfbf" points="125.12,-94 1.12,-94 1.12,-74 125.12,-74 125.12,-94"/>
<text xml:space="preserve" text-anchor="middle" x="63.12" y="-80.5" font-family="Helvetica,sans-Serif" font-size="10.00">mrb_irep_debug_info_file</text>
</a>
</g>
</g>
<!-- Node2&#45;&gt;Node1 -->
<g id="edge1_Node000001_Node000002" class="edge">
<title>Node2&#45;&gt;Node1</title>
<g id="a_edge1_Node000001_Node000002"><a xlink:title=" ">
<path fill="none" stroke="#9a32cd" stroke-dasharray="5,2" d="M63.12,-62.18C63.12,-48.29 63.12,-30.71 63.12,-20.19"/>
<polygon fill="#9a32cd" stroke="#9a32cd" points="59.63,-62.07 63.13,-72.07 66.63,-62.07 59.63,-62.07"/>
</a>
</g>
<text xml:space="preserve" text-anchor="start" x="66.12" y="-43.5" font-family="Helvetica,sans-Serif" font-size="10.00" fill="grey">files</text>
</g>
<!-- Node3 -->
<g id="Node000003" class="node">
<title>Node3</title>
<g id="a_Node000003"><a xlink:href="structmrb__irep__debug__info__line.html" target="_top" xlink:title=" ">
<polygon fill="white" stroke="#bfbfbf" points="126.25,-168 0,-168 0,-148 126.25,-148 126.25,-168"/>
<text xml:space="preserve" text-anchor="middle" x="63.12" y="-154.5" font-family="Helvetica,sans-Serif" font-size="10.00">mrb_irep_debug_info_line</text>
</a>
</g>
</g>
<!-- Node3&#45;&gt;Node2 -->
<g id="edge2_Node000002_Node000003" class="edge">
<title>Node3&#45;&gt;Node2</title>
<g id="a_edge2_Node000002_Node000003"><a xlink:title=" ">
<path fill="none" stroke="#9a32cd" stroke-dasharray="5,2" d="M63.12,-136.18C63.12,-122.29 63.12,-104.71 63.12,-94.19"/>
<polygon fill="#9a32cd" stroke="#9a32cd" points="59.63,-136.07 63.13,-146.07 66.63,-136.07 59.63,-136.07"/>
</a>
</g>
<text xml:space="preserve" text-anchor="start" x="66.12" y="-117.5" font-family="Helvetica,sans-Serif" font-size="10.00" fill="grey">flat_map</text>
</g>
</g>
</svg>
