<?xml version="1.0" encoding="UTF-8" standalone="no"?>
<!DOCTYPE svg PUBLIC "-//W3C//DTD SVG 1.1//EN"
 "http://www.w3.org/Graphics/SVG/1.1/DTD/svg11.dtd">
<!-- Generated by graphviz version 14.0.5 (0)
 -->
<!-- Title: shrpx::WorkerEvent Pages: 1 -->
<svg width="258pt" height="192pt"
 viewBox="0.00 0.00 258.00 192.00" xmlns="http://www.w3.org/2000/svg" xmlns:xlink="http://www.w3.org/1999/xlink">
<g id="graph0" class="graph" transform="scale(1 1) rotate(0) translate(4 188)">
<title>shrpx::WorkerEvent</title>
<!-- Node1 -->
<g id="Node000001" class="node">
<title>Node1</title>
<g id="a_Node000001"><a xlink:title=" ">
<polygon fill="#999999" stroke="#666666" points="150.38,-20 48.13,-20 48.13,0 150.38,0 150.38,-20"/>
<text xml:space="preserve" text-anchor="middle" x="99.25" y="-6.5" font-family="Helvetica,sans-Serif" font-size="10.00">shrpx::WorkerEvent</text>
</a>
</g>
</g>
<!-- Node2 -->
<g id="Node000002" class="node">
<title>Node2</title>
<g id="a_Node000002"><a xlink:href="unionnghttp2_1_1sockaddr__union.html" target="_top" xlink:title=" ">
<polygon fill="white" stroke="#bfbfbf" points="122.5,-94 0,-94 0,-74 122.5,-74 122.5,-94"/>
<text xml:space="preserve" text-anchor="middle" x="61.25" y="-80.5" font-family="Helvetica,sans-Serif" font-size="10.00">nghttp2::sockaddr_union</text>
</a>
</g>
</g>
<!-- Node2&#45;&gt;Node1 -->
<g id="edge1_Node000001_Node000002" class="edge">
<title>Node2&#45;&gt;Node1</title>
<g id="a_edge1_Node000001_Node000002"><a xlink:title=" ">
<path fill="none" stroke="#9a32cd" stroke-dasharray="5,2" d="M71.57,-63.44C79,-49.37 88.68,-31.03 94.4,-20.19"/>
<polygon fill="#9a32cd" stroke="#9a32cd" points="68.5,-61.77 66.92,-72.25 74.69,-65.04 68.5,-61.77"/>
</a>
</g>
<text xml:space="preserve" text-anchor="start" x="87.77" y="-43.5" font-family="Helvetica,sans-Serif" font-size="10.00" fill="grey">client_addr</text>
</g>
<!-- Node3 -->
<g id="Node000003" class="node">
<title>Node3</title>
<g id="a_Node000003"><a xlink:href="structshrpx_1_1UpstreamAddr.html" target="_top" xlink:title=" ">
<polygon fill="white" stroke="#bfbfbf" points="249.75,-94 140.75,-94 140.75,-74 249.75,-74 249.75,-94"/>
<text xml:space="preserve" text-anchor="middle" x="195.25" y="-80.5" font-family="Helvetica,sans-Serif" font-size="10.00">shrpx::UpstreamAddr</text>
</a>
</g>
</g>
<!-- Node3&#45;&gt;Node1 -->
<g id="edge2_Node000001_Node000003" class="edge">
<title>Node3&#45;&gt;Node1</title>
<g id="a_edge2_Node000001_Node000003"><a xlink:title=" ">
<path fill="none" stroke="#9a32cd" stroke-dasharray="5,2" d="M176.47,-65.91C166.57,-57.2 154.06,-46.65 142.25,-38 133.72,-31.75 123.74,-25.42 115.54,-20.47"/>
<polygon fill="#9a32cd" stroke="#9a32cd" points="174.13,-68.52 183.92,-72.57 178.8,-63.3 174.13,-68.52"/>
</a>
</g>
<text xml:space="preserve" text-anchor="start" x="167.69" y="-43.5" font-family="Helvetica,sans-Serif" font-size="10.00" fill="grey">faddr</text>
</g>
<!-- Node4 -->
<g id="Node000004" class="node">
<title>Node4</title>
<g id="a_Node000004"><a xlink:href="classnghttp2_1_1StringRef.html" target="_top" xlink:title=" ">
<polygon fill="white" stroke="#bfbfbf" points="243,-184 147.5,-184 147.5,-164 243,-164 243,-184"/>
<text xml:space="preserve" text-anchor="middle" x="195.25" y="-170.5" font-family="Helvetica,sans-Serif" font-size="10.00">nghttp2::StringRef</text>
</a>
</g>
</g>
<!-- Node4&#45;&gt;Node3 -->
<g id="edge3_Node000003_Node000004" class="edge">
<title>Node4&#45;&gt;Node3</title>
<g id="a_edge3_Node000003_Node000004"><a xlink:title=" ">
<path fill="none" stroke="#9a32cd" stroke-dasharray="5,2" d="M195.25,-152.09C195.25,-133.77 195.25,-108.01 195.25,-94.35"/>
<polygon fill="#9a32cd" stroke="#9a32cd" points="191.75,-152.07 195.25,-162.07 198.75,-152.07 191.75,-152.07"/>
</a>
</g>
<text xml:space="preserve" text-anchor="start" x="198.25" y="-133.5" font-family="Helvetica,sans-Serif" font-size="10.00" fill="grey">host</text>
<text xml:space="preserve" text-anchor="start" x="198.25" y="-117.5" font-family="Helvetica,sans-Serif" font-size="10.00" fill="grey">hostport</text>
</g>
</g>
</svg>
