<?xml version="1.0" encoding="UTF-8" standalone="no"?>
<!DOCTYPE svg PUBLIC "-//W3C//DTD SVG 1.1//EN"
 "http://www.w3.org/Graphics/SVG/1.1/DTD/svg11.dtd">
<!-- Generated by graphviz version 14.0.5 (0)
 -->
<!-- Title: debug_command Pages: 1 -->
<svg width="966pt" height="1080pt"
 viewBox="0.00 0.00 966.00 1080.00" xmlns="http://www.w3.org/2000/svg" xmlns:xlink="http://www.w3.org/1999/xlink">
<g id="graph0" class="graph" transform="scale(1 1) rotate(0) translate(4 1076)">
<title>debug_command</title>
<!-- Node1 -->
<g id="Node000001" class="node">
<title>Node1</title>
<g id="a_Node000001"><a xlink:title=" ">
<polygon fill="#999999" stroke="#666666" points="628.62,-20 538.38,-20 538.38,0 628.62,0 628.62,-20"/>
<text xml:space="preserve" text-anchor="middle" x="583.5" y="-6.5" font-family="Helvetica,sans-Serif" font-size="10.00">debug_command</text>
</a>
</g>
</g>
<!-- Node2 -->
<g id="Node000002" class="node">
<title>Node2</title>
<g id="a_Node000002"><a xlink:href="structmrb__state.html" target="_top" xlink:title=" ">
<polygon fill="white" stroke="#bfbfbf" points="613.25,-94 553.75,-94 553.75,-74 613.25,-74 613.25,-94"/>
<text xml:space="preserve" text-anchor="middle" x="583.5" y="-80.5" font-family="Helvetica,sans-Serif" font-size="10.00">mrb_state</text>
</a>
</g>
</g>
<!-- Node2&#45;&gt;Node1 -->
<g id="edge1_Node000001_Node000002" class="edge">
<title>Node2&#45;&gt;Node1</title>
<g id="a_edge1_Node000001_Node000002"><a xlink:title=" ">
<path fill="none" stroke="#9a32cd" stroke-dasharray="5,2" d="M583.5,-62.18C583.5,-48.29 583.5,-30.71 583.5,-20.19"/>
<polygon fill="#9a32cd" stroke="#9a32cd" points="580,-62.07 583.5,-72.07 587,-62.07 580,-62.07"/>
</a>
</g>
<text xml:space="preserve" text-anchor="start" x="586.5" y="-43.5" font-family="Helvetica,sans-Serif" font-size="10.00" fill="grey">func</text>
</g>
<!-- Node2&#45;&gt;Node2 -->
<g id="edge3_Node000002_Node000002" class="edge">
<title>Node2&#45;&gt;Node2</title>
<g id="a_edge3_Node000002_Node000002"><a xlink:title=" ">
<path fill="none" stroke="#9a32cd" stroke-dasharray="5,2" d="M624.76,-89.61C628.73,-88.47 631.25,-86.6 631.25,-84 631.25,-79.38 623.29,-77.06 613.34,-77.06"/>
<polygon fill="#9a32cd" stroke="#9a32cd" points="624.38,-86.13 614.85,-90.76 625.18,-93.08 624.38,-86.13"/>
</a>
</g>
<text xml:space="preserve" text-anchor="start" x="634.25" y="-80.5" font-family="Helvetica,sans-Serif" font-size="10.00" fill="grey">allocf</text>
</g>
<!-- Node3 -->
<g id="Node000003" class="node">
<title>Node3</title>
<g id="a_Node000003"><a xlink:href="structmrb__jmpbuf.html" target="_top" xlink:title=" ">
<polygon fill="white" stroke="#bfbfbf" points="192,-247 125,-247 125,-227 192,-227 192,-247"/>
<text xml:space="preserve" text-anchor="middle" x="158.5" y="-233.5" font-family="Helvetica,sans-Serif" font-size="10.00">mrb_jmpbuf</text>
</a>
</g>
</g>
<!-- Node3&#45;&gt;Node2 -->
<g id="edge2_Node000002_Node000003" class="edge">
<title>Node3&#45;&gt;Node2</title>
<g id="a_edge2_Node000002_Node000003"><a xlink:title=" ">
<path fill="none" stroke="#9a32cd" stroke-dasharray="5,2" d="M164.76,-215.76C171.46,-196.61 183.61,-167.91 201.5,-148 221.59,-125.64 230.24,-121.52 258.75,-112 312.95,-93.91 483.81,-87.56 553.48,-85.68"/>
<polygon fill="#9a32cd" stroke="#9a32cd" points="161.49,-214.5 161.68,-225.1 168.14,-216.69 161.49,-214.5"/>
</a>
</g>
<text xml:space="preserve" text-anchor="start" x="261.75" y="-117.5" font-family="Helvetica,sans-Serif" font-size="10.00" fill="grey">jmp</text>
</g>
<!-- Node4 -->
<g id="Node000004" class="node">
<title>Node4</title>
<g id="a_Node000004"><a xlink:href="structmrb__context.html" target="_top" xlink:title=" ">
<polygon fill="white" stroke="#bfbfbf" points="419.5,-908 349.5,-908 349.5,-888 419.5,-888 419.5,-908"/>
<text xml:space="preserve" text-anchor="middle" x="384.5" y="-894.5" font-family="Helvetica,sans-Serif" font-size="10.00">mrb_context</text>
</a>
</g>
</g>
<!-- Node4&#45;&gt;Node2 -->
<g id="edge4_Node000002_Node000004" class="edge">
<title>Node4&#45;&gt;Node2</title>
<g id="a_edge4_Node000002_Node000004"><a xlink:title=" ">
<path fill="none" stroke="#9a32cd" stroke-dasharray="5,2" d="M358,-880.76C354.63,-877.6 351.63,-874 349.5,-870 302.73,-781.9 335.5,-745.75 335.5,-646 335.5,-646 335.5,-646 335.5,-236 335.5,-134.93 487.62,-99.55 553.59,-88.96"/>
<polygon fill="#9a32cd" stroke="#9a32cd" points="355.62,-883.33 365.64,-886.77 359.95,-877.83 355.62,-883.33"/>
</a>
</g>
<text xml:space="preserve" text-anchor="start" x="338.5" y="-589.5" font-family="Helvetica,sans-Serif" font-size="10.00" fill="grey">c</text>
<text xml:space="preserve" text-anchor="start" x="338.5" y="-573.5" font-family="Helvetica,sans-Serif" font-size="10.00" fill="grey">root_c</text>
</g>
<!-- Node4&#45;&gt;Node4 -->
<g id="edge5_Node000004_Node000004" class="edge">
<title>Node4&#45;&gt;Node4</title>
<g id="a_edge5_Node000004_Node000004"><a xlink:title=" ">
<path fill="none" stroke="#9a32cd" stroke-dasharray="5,2" d="M430.77,-904.67C434.91,-903.27 437.5,-901.05 437.5,-898 437.5,-892.73 429.74,-889.93 419.67,-889.6"/>
<polygon fill="#9a32cd" stroke="#9a32cd" points="430.5,-901.17 421.16,-906.17 431.58,-908.08 430.5,-901.17"/>
</a>
</g>
<text xml:space="preserve" text-anchor="start" x="440.5" y="-894.5" font-family="Helvetica,sans-Serif" font-size="10.00" fill="grey">prev</text>
</g>
<!-- Node19 -->
<g id="Node000019" class="node">
<title>Node19</title>
<g id="a_Node000019"><a xlink:href="structREnv.html" target="_top" xlink:title=" ">
<polygon fill="white" stroke="#666666" points="512.88,-818 472.12,-818 472.12,-798 512.88,-798 512.88,-818"/>
<text xml:space="preserve" text-anchor="middle" x="492.5" y="-804.5" font-family="Helvetica,sans-Serif" font-size="10.00">REnv</text>
</a>
</g>
</g>
<!-- Node4&#45;&gt;Node19 -->
<g id="edge29_Node000019_Node000004" class="edge">
<title>Node4&#45;&gt;Node19</title>
<g id="a_edge29_Node000019_Node000004"><a xlink:title=" ">
<path fill="none" stroke="#9a32cd" stroke-dasharray="5,2" d="M421.83,-882.79C428.77,-879.21 435.67,-874.95 441.5,-870 455.5,-858.11 453.17,-850.05 465,-836 470.26,-829.76 476.75,-823.33 482.1,-818.32"/>
<polygon fill="#9a32cd" stroke="#9a32cd" points="420.67,-879.47 413.11,-886.9 423.65,-885.8 420.67,-879.47"/>
</a>
</g>
<text xml:space="preserve" text-anchor="start" x="468" y="-849.5" font-family="Helvetica,sans-Serif" font-size="10.00" fill="grey">cxt</text>
</g>
<!-- Node20 -->
<g id="Node000020" class="node">
<title>Node20</title>
<g id="a_Node000020"><a xlink:href="structRFiber.html" target="_top" xlink:title=" ">
<polygon fill="white" stroke="#bfbfbf" points="402.12,-818 356.88,-818 356.88,-798 402.12,-798 402.12,-818"/>
<text xml:space="preserve" text-anchor="middle" x="379.5" y="-804.5" font-family="Helvetica,sans-Serif" font-size="10.00">RFiber</text>
</a>
</g>
</g>
<!-- Node4&#45;&gt;Node20 -->
<g id="edge34_Node000020_Node000004" class="edge">
<title>Node4&#45;&gt;Node20</title>
<g id="a_edge34_Node000020_Node000004"><a xlink:title=" ">
<path fill="none" stroke="#9a32cd" stroke-dasharray="5,2" d="M363.7,-879.42C361.39,-876.52 359.37,-873.36 358,-870 352.28,-856.01 353.01,-850.26 358,-836 360.37,-829.21 365.24,-822.86 369.75,-818.02"/>
<polygon fill="#9a32cd" stroke="#9a32cd" points="361.18,-881.85 370.65,-886.6 366.21,-876.98 361.18,-881.85"/>
</a>
</g>
<text xml:space="preserve" text-anchor="start" x="361" y="-849.5" font-family="Helvetica,sans-Serif" font-size="10.00" fill="grey">cxt</text>
</g>
<!-- Node5 -->
<g id="Node000005" class="node">
<title>Node5</title>
<g id="a_Node000005"><a xlink:href="structmrb__value.html" target="_top" xlink:title=" ">
<polygon fill="white" stroke="#bfbfbf" points="558,-998 497,-998 497,-978 558,-978 558,-998"/>
<text xml:space="preserve" text-anchor="middle" x="527.5" y="-984.5" font-family="Helvetica,sans-Serif" font-size="10.00">mrb_value</text>
</a>
</g>
</g>
<!-- Node5&#45;&gt;Node4 -->
<g id="edge6_Node000004_Node000005" class="edge">
<title>Node5&#45;&gt;Node4</title>
<g id="a_edge6_Node000004_Node000005"><a xlink:title=" ">
<path fill="none" stroke="#9a32cd" stroke-dasharray="5,2" d="M485.87,-976.26C473.59,-972.15 460.45,-966.78 449.25,-960 425.46,-945.61 403.11,-921.3 391.94,-908.13"/>
<polygon fill="#9a32cd" stroke="#9a32cd" points="484.79,-979.59 495.38,-979.23 486.88,-972.91 484.79,-979.59"/>
</a>
</g>
<text xml:space="preserve" text-anchor="start" x="452.25" y="-947.5" font-family="Helvetica,sans-Serif" font-size="10.00" fill="grey">stbase</text>
<text xml:space="preserve" text-anchor="start" x="452.25" y="-931.5" font-family="Helvetica,sans-Serif" font-size="10.00" fill="grey">stend</text>
</g>
<!-- Node7 -->
<g id="Node000007" class="node">
<title>Node7</title>
<g id="a_Node000007"><a xlink:href="structmrb__callinfo.html" target="_top" xlink:title=" ">
<polygon fill="white" stroke="#bfbfbf" points="515.75,-247 447.25,-247 447.25,-227 515.75,-227 515.75,-247"/>
<text xml:space="preserve" text-anchor="middle" x="481.5" y="-233.5" font-family="Helvetica,sans-Serif" font-size="10.00">mrb_callinfo</text>
</a>
</g>
</g>
<!-- Node5&#45;&gt;Node7 -->
<g id="edge30_Node000007_Node000005" class="edge">
<title>Node5&#45;&gt;Node7</title>
<g id="a_edge30_Node000007_Node000005"><a xlink:title=" ">
<path fill="none" stroke="#9a32cd" stroke-dasharray="5,2" d="M485.32,-980.24C417.19,-968.13 290.5,-940.08 290.5,-899 290.5,-899 290.5,-899 290.5,-436 290.5,-339.04 410.6,-271.35 460.33,-247.48"/>
<polygon fill="#9a32cd" stroke="#9a32cd" points="484.57,-983.67 495.03,-981.93 485.77,-976.77 484.57,-983.67"/>
</a>
</g>
<text xml:space="preserve" text-anchor="start" x="293.5" y="-693.5" font-family="Helvetica,sans-Serif" font-size="10.00" fill="grey">stack</text>
</g>
<!-- Node8 -->
<g id="Node000008" class="node">
<title>Node8</title>
<g id="a_Node000008"><a xlink:href="structRProc.html" target="_top" xlink:title=" ">
<polygon fill="white" stroke="#bfbfbf" points="588.38,-744 544.62,-744 544.62,-724 588.38,-724 588.38,-744"/>
<text xml:space="preserve" text-anchor="middle" x="566.5" y="-730.5" font-family="Helvetica,sans-Serif" font-size="10.00">RProc</text>
</a>
</g>
</g>
<!-- Node5&#45;&gt;Node8 -->
<g id="edge17_Node000008_Node000005" class="edge">
<title>Node5&#45;&gt;Node8</title>
<g id="a_edge17_Node000008_Node000005"><a xlink:title=" ">
<path fill="none" stroke="#9a32cd" stroke-dasharray="5,2" d="M531.65,-966.65C534.83,-950.73 539.22,-928 542.5,-908 552.72,-845.76 562.18,-770.45 565.36,-744.4"/>
<polygon fill="#9a32cd" stroke="#9a32cd" points="528.25,-965.8 529.7,-976.3 535.11,-967.19 528.25,-965.8"/>
</a>
</g>
<text xml:space="preserve" text-anchor="start" x="556.23" y="-849.5" font-family="Helvetica,sans-Serif" font-size="10.00" fill="grey">func</text>
</g>
<!-- Node16 -->
<g id="Node000016" class="node">
<title>Node16</title>
<g id="a_Node000016"><a xlink:href="structiv__tbl.html" target="_top" xlink:title=" ">
<polygon fill="white" stroke="#bfbfbf" points="822.12,-543 782.88,-543 782.88,-523 822.12,-523 822.12,-543"/>
<text xml:space="preserve" text-anchor="middle" x="802.5" y="-529.5" font-family="Helvetica,sans-Serif" font-size="10.00">iv_tbl</text>
</a>
</g>
</g>
<!-- Node5&#45;&gt;Node16 -->
<g id="edge21_Node000016_Node000005" class="edge">
<title>Node5&#45;&gt;Node16</title>
<g id="a_edge21_Node000016_Node000005"><a xlink:title=" ">
<path fill="none" stroke="#9a32cd" stroke-dasharray="5,2" d="M569.7,-986.8C610.57,-985.32 673.65,-979.64 724.5,-960 769.23,-942.72 813.5,-946.95 813.5,-899 813.5,-899 813.5,-899 813.5,-644 813.5,-606.57 807.12,-562.34 804.08,-543.39"/>
<polygon fill="#9a32cd" stroke="#9a32cd" points="569.69,-983.29 559.8,-987.07 569.89,-990.29 569.69,-983.29"/>
</a>
</g>
<text xml:space="preserve" text-anchor="start" x="816.5" y="-767.5" font-family="Helvetica,sans-Serif" font-size="10.00" fill="grey">ptr</text>
</g>
<!-- Node18 -->
<g id="Node000018" class="node">
<title>Node18</title>
<g id="a_Node000018"><a xlink:href="unionmt__ptr.html" target="_top" xlink:title=" ">
<polygon fill="white" stroke="#bfbfbf" points="684.38,-655 640.62,-655 640.62,-635 684.38,-635 684.38,-655"/>
<text xml:space="preserve" text-anchor="middle" x="662.5" y="-641.5" font-family="Helvetica,sans-Serif" font-size="10.00">mt_ptr</text>
</a>
</g>
</g>
<!-- Node5&#45;&gt;Node18 -->
<g id="edge25_Node000018_Node000005" class="edge">
<title>Node5&#45;&gt;Node18</title>
<g id="a_edge25_Node000018_Node000005"><a xlink:title=" ">
<path fill="none" stroke="#9a32cd" stroke-dasharray="5,2" d="M569.52,-985.86C622.09,-981.91 710.2,-966.36 751.5,-908 812.27,-822.12 703.93,-691.44 671.35,-655.46"/>
<polygon fill="#9a32cd" stroke="#9a32cd" points="569.51,-982.36 559.75,-986.48 569.95,-989.34 569.51,-982.36"/>
</a>
</g>
<text xml:space="preserve" text-anchor="start" x="769.16" y="-804.5" font-family="Helvetica,sans-Serif" font-size="10.00" fill="grey">func</text>
</g>
<!-- Node5&#45;&gt;Node19 -->
<g id="edge28_Node000019_Node000005" class="edge">
<title>Node5&#45;&gt;Node19</title>
<g id="a_edge28_Node000019_Node000005"><a xlink:title=" ">
<path fill="none" stroke="#9a32cd" stroke-dasharray="5,2" d="M523.51,-966.68C515.93,-928.17 499.75,-845.9 494.32,-818.27"/>
<polygon fill="#9a32cd" stroke="#9a32cd" points="520.06,-967.31 525.42,-976.44 526.93,-965.96 520.06,-967.31"/>
</a>
</g>
<text xml:space="preserve" text-anchor="start" x="514.75" y="-894.5" font-family="Helvetica,sans-Serif" font-size="10.00" fill="grey">stack</text>
</g>
<!-- Node6 -->
<g id="Node000006" class="node">
<title>Node6</title>
<g id="a_Node000006"><a xlink:href="unionmrb__value__union.html" target="_top" xlink:title=" ">
<polygon fill="white" stroke="#bfbfbf" points="572.25,-1072 482.75,-1072 482.75,-1052 572.25,-1052 572.25,-1072"/>
<text xml:space="preserve" text-anchor="middle" x="527.5" y="-1058.5" font-family="Helvetica,sans-Serif" font-size="10.00">mrb_value_union</text>
</a>
</g>
</g>
<!-- Node6&#45;&gt;Node5 -->
<g id="edge7_Node000005_Node000006" class="edge">
<title>Node6&#45;&gt;Node5</title>
<g id="a_edge7_Node000005_Node000006"><a xlink:title=" ">
<path fill="none" stroke="#9a32cd" stroke-dasharray="5,2" d="M527.5,-1040.18C527.5,-1026.29 527.5,-1008.71 527.5,-998.19"/>
<polygon fill="#9a32cd" stroke="#9a32cd" points="524,-1040.07 527.5,-1050.07 531,-1040.07 524,-1040.07"/>
</a>
</g>
<text xml:space="preserve" text-anchor="start" x="530.5" y="-1021.5" font-family="Helvetica,sans-Serif" font-size="10.00" fill="grey">value</text>
</g>
<!-- Node7&#45;&gt;Node4 -->
<g id="edge8_Node000004_Node000007" class="edge">
<title>Node7&#45;&gt;Node4</title>
<g id="a_edge8_Node000004_Node000007"><a xlink:title=" ">
<path fill="none" stroke="#9a32cd" stroke-dasharray="5,2" d="M471.81,-257.36C455.3,-292.19 423.5,-368.1 423.5,-436 423.5,-586 423.5,-586 423.5,-586 423.5,-689.25 422.03,-715.29 411.5,-818 409.12,-841.26 412.24,-848.31 403.5,-870 400.93,-876.38 396.59,-882.71 392.71,-887.64"/>
<polygon fill="#9a32cd" stroke="#9a32cd" points="474.87,-259.08 476.09,-248.56 468.57,-256.02 474.87,-259.08"/>
</a>
</g>
<text xml:space="preserve" text-anchor="start" x="426.42" y="-657.5" font-family="Helvetica,sans-Serif" font-size="10.00" fill="grey">ci</text>
<text xml:space="preserve" text-anchor="start" x="426.42" y="-641.5" font-family="Helvetica,sans-Serif" font-size="10.00" fill="grey">cibase</text>
<text xml:space="preserve" text-anchor="start" x="426.42" y="-625.5" font-family="Helvetica,sans-Serif" font-size="10.00" fill="grey">ciend</text>
</g>
<!-- Node8&#45;&gt;Node7 -->
<g id="edge9_Node000007_Node000008" class="edge">
<title>Node8&#45;&gt;Node7</title>
<g id="a_edge9_Node000007_Node000008"><a xlink:title=" ">
<path fill="none" stroke="#9a32cd" stroke-dasharray="5,2" d="M562.96,-712.4C548.37,-627.4 493.11,-305.63 483.07,-247.15"/>
<polygon fill="#9a32cd" stroke="#9a32cd" points="559.48,-712.8 564.62,-722.06 566.38,-711.61 559.48,-712.8"/>
</a>
</g>
<text xml:space="preserve" text-anchor="start" x="537.41" y="-537.5" font-family="Helvetica,sans-Serif" font-size="10.00" fill="grey">blk</text>
<text xml:space="preserve" text-anchor="start" x="537.41" y="-521.5" font-family="Helvetica,sans-Serif" font-size="10.00" fill="grey">proc</text>
</g>
<!-- Node8&#45;&gt;Node8 -->
<g id="edge18_Node000008_Node000008" class="edge">
<title>Node8&#45;&gt;Node8</title>
<g id="a_edge18_Node000008_Node000008"><a xlink:title=" ">
<path fill="none" stroke="#9a32cd" stroke-dasharray="5,2" d="M599.82,-739.96C603.79,-738.87 606.38,-736.89 606.38,-734 606.38,-728.87 598.2,-726.58 588.64,-727.15"/>
<polygon fill="#9a32cd" stroke="#9a32cd" points="599.84,-736.44 590.15,-740.73 600.4,-743.42 599.84,-736.44"/>
</a>
</g>
<text xml:space="preserve" text-anchor="start" x="609.38" y="-730.5" font-family="Helvetica,sans-Serif" font-size="10.00" fill="grey">upper</text>
</g>
<!-- Node8&#45;&gt;Node18 -->
<g id="edge24_Node000018_Node000008" class="edge">
<title>Node8&#45;&gt;Node18</title>
<g id="a_edge24_Node000018_Node000008"><a xlink:title=" ">
<path fill="none" stroke="#9a32cd" stroke-dasharray="5,2" d="M585.11,-716.14C605.15,-697.97 636.32,-669.72 652.3,-655.24"/>
<polygon fill="#9a32cd" stroke="#9a32cd" points="582.95,-713.36 577.9,-722.67 587.66,-718.55 582.95,-713.36"/>
</a>
</g>
<text xml:space="preserve" text-anchor="start" x="617.5" y="-693.5" font-family="Helvetica,sans-Serif" font-size="10.00" fill="grey">proc</text>
</g>
<!-- Node9 -->
<g id="Node000009" class="node">
<title>Node9</title>
<g id="a_Node000009"><a xlink:href="structmrb__irep.html" target="_top" xlink:title=" ">
<polygon fill="white" stroke="#bfbfbf" points="670.25,-818 616.75,-818 616.75,-798 670.25,-798 670.25,-818"/>
<text xml:space="preserve" text-anchor="middle" x="643.5" y="-804.5" font-family="Helvetica,sans-Serif" font-size="10.00">mrb_irep</text>
</a>
</g>
</g>
<!-- Node9&#45;&gt;Node8 -->
<g id="edge10_Node000008_Node000009" class="edge">
<title>Node9&#45;&gt;Node8</title>
<g id="a_edge10_Node000008_Node000009"><a xlink:title=" ">
<path fill="none" stroke="#9a32cd" stroke-dasharray="5,2" d="M625.22,-789.9C609.89,-775.58 588.61,-755.68 576.33,-744.19"/>
<polygon fill="#9a32cd" stroke="#9a32cd" points="622.63,-792.28 632.33,-796.55 627.41,-787.17 622.63,-792.28"/>
</a>
</g>
<text xml:space="preserve" text-anchor="start" x="617.16" y="-767.5" font-family="Helvetica,sans-Serif" font-size="10.00" fill="grey">irep</text>
</g>
<!-- Node9&#45;&gt;Node9 -->
<g id="edge13_Node000009_Node000009" class="edge">
<title>Node9&#45;&gt;Node9</title>
<g id="a_edge13_Node000009_Node000009"><a xlink:title=" ">
<path fill="none" stroke="#9a32cd" stroke-dasharray="5,2" d="M681.81,-813.71C685.74,-812.59 688.25,-810.68 688.25,-808 688.25,-803.23 680.32,-800.92 670.59,-801.07"/>
<polygon fill="#9a32cd" stroke="#9a32cd" points="681.66,-810.21 672.09,-814.77 682.41,-817.17 681.66,-810.21"/>
</a>
</g>
<text xml:space="preserve" text-anchor="start" x="691.25" y="-804.5" font-family="Helvetica,sans-Serif" font-size="10.00" fill="grey">reps</text>
</g>
<!-- Node10 -->
<g id="Node000010" class="node">
<title>Node10</title>
<g id="a_Node000010"><a xlink:href="structmrb__pool__value.html" target="_top" xlink:title=" ">
<polygon fill="white" stroke="#bfbfbf" points="668.62,-908 584.38,-908 584.38,-888 668.62,-888 668.62,-908"/>
<text xml:space="preserve" text-anchor="middle" x="626.5" y="-894.5" font-family="Helvetica,sans-Serif" font-size="10.00">mrb_pool_value</text>
</a>
</g>
</g>
<!-- Node10&#45;&gt;Node9 -->
<g id="edge11_Node000009_Node000010" class="edge">
<title>Node10&#45;&gt;Node9</title>
<g id="a_edge11_Node000009_Node000010"><a xlink:title=" ">
<path fill="none" stroke="#9a32cd" stroke-dasharray="5,2" d="M630.49,-876.35C634.03,-858.02 639.04,-832.07 641.69,-818.35"/>
<polygon fill="#9a32cd" stroke="#9a32cd" points="627.07,-875.61 628.61,-886.1 633.94,-876.94 627.07,-875.61"/>
</a>
</g>
<text xml:space="preserve" text-anchor="start" x="641" y="-849.5" font-family="Helvetica,sans-Serif" font-size="10.00" fill="grey">pool</text>
</g>
<!-- Node11 -->
<g id="Node000011" class="node">
<title>Node11</title>
<g id="a_Node000011"><a xlink:href="classmrb__sym.html" target="_top" xlink:title=" ">
<polygon fill="white" stroke="#666666" points="742.75,-908 686.25,-908 686.25,-888 742.75,-888 742.75,-908"/>
<text xml:space="preserve" text-anchor="middle" x="714.5" y="-894.5" font-family="Helvetica,sans-Serif" font-size="10.00">mrb_sym</text>
</a>
</g>
</g>
<!-- Node11&#45;&gt;Node9 -->
<g id="edge12_Node000009_Node000011" class="edge">
<title>Node11&#45;&gt;Node9</title>
<g id="a_edge12_Node000009_Node000011"><a xlink:title=" ">
<path fill="none" stroke="#9a32cd" stroke-dasharray="5,2" d="M700.67,-879.05C691.18,-866.82 678.22,-850.31 666.5,-836 661.66,-830.09 656.12,-823.57 651.68,-818.42"/>
<polygon fill="#9a32cd" stroke="#9a32cd" points="697.64,-880.85 706.53,-886.62 703.18,-876.57 697.64,-880.85"/>
</a>
</g>
<text xml:space="preserve" text-anchor="start" x="695.84" y="-857.5" font-family="Helvetica,sans-Serif" font-size="10.00" fill="grey">lv</text>
<text xml:space="preserve" text-anchor="start" x="695.84" y="-841.5" font-family="Helvetica,sans-Serif" font-size="10.00" fill="grey">syms</text>
</g>
<!-- Node12 -->
<g id="Node000012" class="node">
<title>Node12</title>
<g id="a_Node000012"><a xlink:href="structmrb__irep__debug__info.html" target="_top" xlink:title=" ">
<polygon fill="white" stroke="#bfbfbf" points="947.5,-908 841.5,-908 841.5,-888 947.5,-888 947.5,-908"/>
<text xml:space="preserve" text-anchor="middle" x="894.5" y="-894.5" font-family="Helvetica,sans-Serif" font-size="10.00">mrb_irep_debug_info</text>
</a>
</g>
</g>
<!-- Node12&#45;&gt;Node9 -->
<g id="edge14_Node000009_Node000012" class="edge">
<title>Node12&#45;&gt;Node9</title>
<g id="a_edge14_Node000009_Node000012"><a xlink:title=" ">
<path fill="none" stroke="#9a32cd" stroke-dasharray="5,2" d="M858.5,-883.53C824.56,-870.93 772.24,-851.74 726.5,-836 707.87,-829.59 686.76,-822.73 670.49,-817.53"/>
<polygon fill="#9a32cd" stroke="#9a32cd" points="857.25,-886.8 867.85,-887.01 859.69,-880.24 857.25,-886.8"/>
</a>
</g>
<text xml:space="preserve" text-anchor="start" x="821.09" y="-849.5" font-family="Helvetica,sans-Serif" font-size="10.00" fill="grey">debug_info</text>
</g>
<!-- Node13 -->
<g id="Node000013" class="node">
<title>Node13</title>
<g id="a_Node000013"><a xlink:href="structmrb__irep__debug__info__file.html" target="_top" xlink:title=" ">
<polygon fill="white" stroke="#bfbfbf" points="956.5,-998 832.5,-998 832.5,-978 956.5,-978 956.5,-998"/>
<text xml:space="preserve" text-anchor="middle" x="894.5" y="-984.5" font-family="Helvetica,sans-Serif" font-size="10.00">mrb_irep_debug_info_file</text>
</a>
</g>
</g>
<!-- Node13&#45;&gt;Node12 -->
<g id="edge15_Node000012_Node000013" class="edge">
<title>Node13&#45;&gt;Node12</title>
<g id="a_edge15_Node000012_Node000013"><a xlink:title=" ">
<path fill="none" stroke="#9a32cd" stroke-dasharray="5,2" d="M894.5,-966.09C894.5,-947.77 894.5,-922.01 894.5,-908.35"/>
<polygon fill="#9a32cd" stroke="#9a32cd" points="891,-966.07 894.5,-976.07 898,-966.07 891,-966.07"/>
</a>
</g>
<text xml:space="preserve" text-anchor="start" x="897.5" y="-939.5" font-family="Helvetica,sans-Serif" font-size="10.00" fill="grey">files</text>
</g>
<!-- Node14 -->
<g id="Node000014" class="node">
<title>Node14</title>
<g id="a_Node000014"><a xlink:href="structmrb__irep__debug__info__line.html" target="_top" xlink:title=" ">
<polygon fill="white" stroke="#bfbfbf" points="957.62,-1072 831.38,-1072 831.38,-1052 957.62,-1052 957.62,-1072"/>
<text xml:space="preserve" text-anchor="middle" x="894.5" y="-1058.5" font-family="Helvetica,sans-Serif" font-size="10.00">mrb_irep_debug_info_line</text>
</a>
</g>
</g>
<!-- Node14&#45;&gt;Node13 -->
<g id="edge16_Node000013_Node000014" class="edge">
<title>Node14&#45;&gt;Node13</title>
<g id="a_edge16_Node000013_Node000014"><a xlink:title=" ">
<path fill="none" stroke="#9a32cd" stroke-dasharray="5,2" d="M894.5,-1040.18C894.5,-1026.29 894.5,-1008.71 894.5,-998.19"/>
<polygon fill="#9a32cd" stroke="#9a32cd" points="891,-1040.07 894.5,-1050.07 898,-1040.07 891,-1040.07"/>
</a>
</g>
<text xml:space="preserve" text-anchor="start" x="897.5" y="-1021.5" font-family="Helvetica,sans-Serif" font-size="10.00" fill="grey">flat_map</text>
</g>
<!-- Node15 -->
<g id="Node000015" class="node">
<title>Node15</title>
<g id="a_Node000015"><a xlink:href="structRClass.html" target="_top" xlink:title=" ">
<polygon fill="white" stroke="#666666" points="666,-447 617,-447 617,-427 666,-427 666,-447"/>
<text xml:space="preserve" text-anchor="middle" x="641.5" y="-433.5" font-family="Helvetica,sans-Serif" font-size="10.00">RClass</text>
</a>
</g>
</g>
<!-- Node15&#45;&gt;Node2 -->
<g id="edge38_Node000002_Node000015" class="edge">
<title>Node15&#45;&gt;Node2</title>
<g id="a_edge38_Node000002_Node000015"><a xlink:title=" ">
<path fill="none" stroke="#9a32cd" stroke-dasharray="5,2" d="M646.17,-415.66C647.53,-408.81 648.83,-401.11 649.5,-394 651.59,-371.88 650.12,-366.21 649.5,-344 647.05,-256.79 661.84,-232.07 638.5,-148 633.66,-130.57 631.24,-125.76 619.5,-112 613.72,-105.23 605.95,-99.13 599.1,-94.45"/>
<polygon fill="#9a32cd" stroke="#9a32cd" points="642.79,-414.74 644.11,-425.25 649.63,-416.21 642.79,-414.74"/>
</a>
</g>
<text xml:space="preserve" text-anchor="start" x="654.9" y="-313.5" font-family="Helvetica,sans-Serif" font-size="10.00" fill="grey">array_class</text>
<text xml:space="preserve" text-anchor="start" x="654.9" y="-297.5" font-family="Helvetica,sans-Serif" font-size="10.00" fill="grey">class_class</text>
<text xml:space="preserve" text-anchor="start" x="654.9" y="-281.5" font-family="Helvetica,sans-Serif" font-size="10.00" fill="grey">eException_class</text>
<text xml:space="preserve" text-anchor="start" x="654.9" y="-265.5" font-family="Helvetica,sans-Serif" font-size="10.00" fill="grey">eStandardError_class</text>
<text xml:space="preserve" text-anchor="start" x="654.9" y="-249.5" font-family="Helvetica,sans-Serif" font-size="10.00" fill="grey">false_class</text>
<text xml:space="preserve" text-anchor="start" x="654.9" y="-233.5" font-family="Helvetica,sans-Serif" font-size="10.00" fill="grey">float_class</text>
<text xml:space="preserve" text-anchor="start" x="654.9" y="-217.5" font-family="Helvetica,sans-Serif" font-size="10.00" fill="grey">hash_class</text>
<text xml:space="preserve" text-anchor="start" x="654.9" y="-201.5" font-family="Helvetica,sans-Serif" font-size="10.00" fill="grey">integer_class</text>
<text xml:space="preserve" text-anchor="start" x="654.9" y="-185.5" font-family="Helvetica,sans-Serif" font-size="10.00" fill="grey">kernel_module</text>
<text xml:space="preserve" text-anchor="start" x="654.9" y="-169.5" font-family="Helvetica,sans-Serif" font-size="10.00" fill="grey">module_class</text>
<text xml:space="preserve" text-anchor="start" x="654.9" y="-153.5" font-family="Helvetica,sans-Serif" font-size="10.00" fill="grey"> &#160;...</text>
</g>
<!-- Node15&#45;&gt;Node7 -->
<g id="edge32_Node000007_Node000015" class="edge">
<title>Node15&#45;&gt;Node7</title>
<g id="a_edge32_Node000007_Node000015"><a xlink:title=" ">
<path fill="none" stroke="#9a32cd" stroke-dasharray="5,2" d="M606.04,-425.84C588.07,-419.21 566.99,-408.95 552.25,-394 552.07,-393.82 500.89,-280.82 485.7,-247.28"/>
<polygon fill="#9a32cd" stroke="#9a32cd" points="604.72,-429.09 615.32,-429.03 607,-422.47 604.72,-429.09"/>
</a>
</g>
<text xml:space="preserve" text-anchor="start" x="555.25" y="-365.5" font-family="Helvetica,sans-Serif" font-size="10.00" fill="grey">target_class</text>
</g>
<!-- Node15&#45;&gt;Node8 -->
<g id="edge19_Node000008_Node000015" class="edge">
<title>Node15&#45;&gt;Node8</title>
<g id="a_edge19_Node000008_Node000015"><a xlink:title=" ">
<path fill="none" stroke="#9a32cd" stroke-dasharray="5,2" d="M631.5,-457.8C619.31,-482.82 599.02,-527.51 588.25,-568 572.88,-625.8 568.15,-698.01 566.9,-723.53"/>
<polygon fill="#9a32cd" stroke="#9a32cd" points="634.63,-459.36 635.94,-448.84 628.36,-456.25 634.63,-459.36"/>
</a>
</g>
<text xml:space="preserve" text-anchor="start" x="591.25" y="-581.5" font-family="Helvetica,sans-Serif" font-size="10.00" fill="grey">target_class</text>
</g>
<!-- Node15&#45;&gt;Node15 -->
<g id="edge26_Node000015_Node000015" class="edge">
<title>Node15&#45;&gt;Node15</title>
<g id="a_edge26_Node000015_Node000015"><a xlink:title=" ">
<path fill="none" stroke="#9a32cd" stroke-dasharray="5,2" d="M677.54,-445.17C681.47,-443.61 684,-440.88 684,-437 684,-430.09 676,-426.86 666.38,-427.29"/>
<polygon fill="#9a32cd" stroke="#9a32cd" points="677.31,-441.67 667.88,-446.5 678.27,-448.6 677.31,-441.67"/>
</a>
</g>
<text xml:space="preserve" text-anchor="start" x="687" y="-433.5" font-family="Helvetica,sans-Serif" font-size="10.00" fill="grey">super</text>
</g>
<!-- Node25 -->
<g id="Node000025" class="node">
<title>Node25</title>
<g id="a_Node000025"><a xlink:href="structmrb__cache__entry.html" target="_top" xlink:title=" ">
<polygon fill="white" stroke="#bfbfbf" points="629,-247 538,-247 538,-227 629,-227 629,-247"/>
<text xml:space="preserve" text-anchor="middle" x="583.5" y="-233.5" font-family="Helvetica,sans-Serif" font-size="10.00">mrb_cache_entry</text>
</a>
</g>
</g>
<!-- Node15&#45;&gt;Node25 -->
<g id="edge45_Node000025_Node000015" class="edge">
<title>Node15&#45;&gt;Node25</title>
<g id="a_edge45_Node000025_Node000015"><a xlink:title=" ">
<path fill="none" stroke="#9a32cd" stroke-dasharray="5,2" d="M635.55,-415.69C623.2,-373.54 595.2,-277.93 586.28,-247.49"/>
<polygon fill="#9a32cd" stroke="#9a32cd" points="632.18,-416.65 638.35,-425.26 638.9,-414.68 632.18,-416.65"/>
</a>
</g>
<text xml:space="preserve" text-anchor="start" x="631.97" y="-373.5" font-family="Helvetica,sans-Serif" font-size="10.00" fill="grey">c</text>
<text xml:space="preserve" text-anchor="start" x="631.97" y="-357.5" font-family="Helvetica,sans-Serif" font-size="10.00" fill="grey">c0</text>
</g>
<!-- Node16&#45;&gt;Node2 -->
<g id="edge35_Node000002_Node000016" class="edge">
<title>Node16&#45;&gt;Node2</title>
<g id="a_edge35_Node000002_Node000016"><a xlink:title=" ">
<path fill="none" stroke="#9a32cd" stroke-dasharray="5,2" d="M800.58,-511.47C793.27,-433.91 766.94,-162.42 755.5,-148 720.81,-104.28 652.85,-90.9 613.54,-86.8"/>
<polygon fill="#9a32cd" stroke="#9a32cd" points="797.06,-511.4 801.48,-521.03 804.03,-510.75 797.06,-511.4"/>
</a>
</g>
<text xml:space="preserve" text-anchor="start" x="791.95" y="-365.5" font-family="Helvetica,sans-Serif" font-size="10.00" fill="grey">globals</text>
</g>
<!-- Node16&#45;&gt;Node15 -->
<g id="edge20_Node000015_Node000016" class="edge">
<title>Node16&#45;&gt;Node15</title>
<g id="a_edge20_Node000015_Node000016"><a xlink:title=" ">
<path fill="none" stroke="#9a32cd" stroke-dasharray="5,2" d="M776.89,-517.05C743.31,-497.44 685.38,-463.62 657.46,-447.32"/>
<polygon fill="#9a32cd" stroke="#9a32cd" points="774.77,-519.86 785.17,-521.88 778.3,-513.82 774.77,-519.86"/>
</a>
</g>
<text xml:space="preserve" text-anchor="start" x="744.16" y="-485.5" font-family="Helvetica,sans-Serif" font-size="10.00" fill="grey">iv</text>
</g>
<!-- Node21 -->
<g id="Node000021" class="node">
<title>Node21</title>
<g id="a_Node000021"><a xlink:href="structRObject.html" target="_top" xlink:title=" ">
<polygon fill="white" stroke="#bfbfbf" points="887.5,-379 835.5,-379 835.5,-359 887.5,-359 887.5,-379"/>
<text xml:space="preserve" text-anchor="middle" x="861.5" y="-365.5" font-family="Helvetica,sans-Serif" font-size="10.00">RObject</text>
</a>
</g>
</g>
<!-- Node16&#45;&gt;Node21 -->
<g id="edge37_Node000021_Node000016" class="edge">
<title>Node16&#45;&gt;Node21</title>
<g id="a_edge37_Node000021_Node000016"><a xlink:title=" ">
<path fill="none" stroke="#9a32cd" stroke-dasharray="5,2" d="M809.76,-512.05C822.57,-476.91 848.67,-405.23 858.05,-379.48"/>
<polygon fill="#9a32cd" stroke="#9a32cd" points="806.49,-510.81 806.36,-521.4 813.07,-513.21 806.49,-510.81"/>
</a>
</g>
<text xml:space="preserve" text-anchor="start" x="823.87" y="-485.5" font-family="Helvetica,sans-Serif" font-size="10.00" fill="grey">iv</text>
</g>
<!-- Node17 -->
<g id="Node000017" class="node">
<title>Node17</title>
<g id="a_Node000017"><a xlink:href="structmt__tbl.html" target="_top" xlink:title=" ">
<polygon fill="white" stroke="#bfbfbf" points="668,-543 625,-543 625,-523 668,-523 668,-543"/>
<text xml:space="preserve" text-anchor="middle" x="646.5" y="-529.5" font-family="Helvetica,sans-Serif" font-size="10.00">mt_tbl</text>
</a>
</g>
</g>
<!-- Node17&#45;&gt;Node15 -->
<g id="edge22_Node000015_Node000017" class="edge">
<title>Node17&#45;&gt;Node15</title>
<g id="a_edge22_Node000015_Node000017"><a xlink:title=" ">
<path fill="none" stroke="#9a32cd" stroke-dasharray="5,2" d="M645.4,-511.4C644.34,-491.46 642.78,-462.14 642,-447.32"/>
<polygon fill="#9a32cd" stroke="#9a32cd" points="641.9,-511.33 645.92,-521.13 648.89,-510.96 641.9,-511.33"/>
</a>
</g>
<text xml:space="preserve" text-anchor="start" x="647.59" y="-485.5" font-family="Helvetica,sans-Serif" font-size="10.00" fill="grey">mt</text>
</g>
<!-- Node18&#45;&gt;Node17 -->
<g id="edge23_Node000017_Node000018" class="edge">
<title>Node18&#45;&gt;Node17</title>
<g id="a_edge23_Node000017_Node000018"><a xlink:title=" ">
<path fill="none" stroke="#9a32cd" stroke-dasharray="5,2" d="M659.49,-623.31C656.01,-599.36 650.42,-560.95 647.86,-543.35"/>
<polygon fill="#9a32cd" stroke="#9a32cd" points="656.01,-623.73 660.92,-633.12 662.94,-622.72 656.01,-623.73"/>
</a>
</g>
<text xml:space="preserve" text-anchor="start" x="658.93" y="-581.5" font-family="Helvetica,sans-Serif" font-size="10.00" fill="grey">ptr</text>
</g>
<!-- Node19&#45;&gt;Node7 -->
<g id="edge31_Node000007_Node000019" class="edge">
<title>Node19&#45;&gt;Node7</title>
<g id="a_edge31_Node000007_Node000019"><a xlink:title=" ">
<path fill="none" stroke="#9a32cd" stroke-dasharray="5,2" d="M492.1,-786.12C490.28,-692.34 482.93,-311.8 481.68,-247.31"/>
<polygon fill="#9a32cd" stroke="#9a32cd" points="488.6,-786.15 492.29,-796.09 495.59,-786.02 488.6,-786.15"/>
</a>
</g>
<text xml:space="preserve" text-anchor="start" x="491.48" y="-581.5" font-family="Helvetica,sans-Serif" font-size="10.00" fill="grey">env</text>
</g>
<!-- Node19&#45;&gt;Node8 -->
<g id="edge27_Node000008_Node000019" class="edge">
<title>Node19&#45;&gt;Node8</title>
<g id="a_edge27_Node000008_Node000019"><a xlink:title=" ">
<path fill="none" stroke="#9a32cd" stroke-dasharray="5,2" d="M501.81,-787.89C506.64,-779.28 513.13,-769.42 520.75,-762 528.02,-754.93 537.49,-748.95 545.93,-744.43"/>
<polygon fill="#9a32cd" stroke="#9a32cd" points="498.85,-786 497.32,-796.49 505.05,-789.24 498.85,-786"/>
</a>
</g>
<text xml:space="preserve" text-anchor="start" x="523.75" y="-767.5" font-family="Helvetica,sans-Serif" font-size="10.00" fill="grey">env</text>
</g>
<!-- Node20&#45;&gt;Node4 -->
<g id="edge33_Node000004_Node000020" class="edge">
<title>Node20&#45;&gt;Node4</title>
<g id="a_edge33_Node000004_Node000020"><a xlink:title=" ">
<path fill="none" stroke="#9a32cd" stroke-dasharray="5,2" d="M380.68,-829.82C381.72,-848.12 383.19,-873.89 383.96,-887.58"/>
<polygon fill="#9a32cd" stroke="#9a32cd" points="384.18,-829.65 380.12,-819.86 377.19,-830.04 384.18,-829.65"/>
</a>
</g>
<text xml:space="preserve" text-anchor="start" x="385.88" y="-849.5" font-family="Helvetica,sans-Serif" font-size="10.00" fill="grey">fib</text>
</g>
<!-- Node21&#45;&gt;Node2 -->
<g id="edge36_Node000002_Node000021" class="edge">
<title>Node21&#45;&gt;Node2</title>
<g id="a_edge36_Node000002_Node000021"><a xlink:title=" ">
<path fill="none" stroke="#9a32cd" stroke-dasharray="5,2" d="M864.27,-347.54C869.62,-298.6 875.46,-174.23 807.5,-112 779.84,-86.67 668.22,-84.13 613.73,-84.45"/>
<polygon fill="#9a32cd" stroke="#9a32cd" points="860.82,-346.9 863.08,-357.25 867.77,-347.75 860.82,-346.9"/>
</a>
</g>
<text xml:space="preserve" text-anchor="start" x="870.25" y="-257.5" font-family="Helvetica,sans-Serif" font-size="10.00" fill="grey">exc</text>
<text xml:space="preserve" text-anchor="start" x="870.25" y="-241.5" font-family="Helvetica,sans-Serif" font-size="10.00" fill="grey">nomem_err</text>
<text xml:space="preserve" text-anchor="start" x="870.25" y="-225.5" font-family="Helvetica,sans-Serif" font-size="10.00" fill="grey">stack_err</text>
<text xml:space="preserve" text-anchor="start" x="870.25" y="-209.5" font-family="Helvetica,sans-Serif" font-size="10.00" fill="grey">top_self</text>
</g>
<!-- Node22 -->
<g id="Node000022" class="node">
<title>Node22</title>
<g id="a_Node000022"><a xlink:href="structmrb__gc.html" target="_top" xlink:title=" ">
<polygon fill="white" stroke="#bfbfbf" points="258.62,-247 210.38,-247 210.38,-227 258.62,-227 258.62,-247"/>
<text xml:space="preserve" text-anchor="middle" x="234.5" y="-233.5" font-family="Helvetica,sans-Serif" font-size="10.00">mrb_gc</text>
</a>
</g>
</g>
<!-- Node22&#45;&gt;Node2 -->
<g id="edge39_Node000002_Node000022" class="edge">
<title>Node22&#45;&gt;Node2</title>
<g id="a_edge39_Node000002_Node000022"><a xlink:title=" ">
<path fill="none" stroke="#9a32cd" stroke-dasharray="5,2" d="M239.64,-215.85C248.06,-187.39 267.71,-136.18 305,-112 345.35,-85.84 489.88,-83.99 553.3,-84.5"/>
<polygon fill="#9a32cd" stroke="#9a32cd" points="236.3,-214.8 237.02,-225.37 243.05,-216.66 236.3,-214.8"/>
</a>
</g>
<text xml:space="preserve" text-anchor="start" x="308" y="-117.5" font-family="Helvetica,sans-Serif" font-size="10.00" fill="grey">gc</text>
</g>
<!-- Node23 -->
<g id="Node000023" class="node">
<title>Node23</title>
<g id="a_Node000023"><a xlink:href="structmrb__heap__page.html" target="_top" xlink:title=" ">
<polygon fill="white" stroke="#bfbfbf" points="85,-447 0,-447 0,-427 85,-427 85,-447"/>
<text xml:space="preserve" text-anchor="middle" x="42.5" y="-433.5" font-family="Helvetica,sans-Serif" font-size="10.00">mrb_heap_page</text>
</a>
</g>
</g>
<!-- Node23&#45;&gt;Node22 -->
<g id="edge40_Node000022_Node000023" class="edge">
<title>Node23&#45;&gt;Node22</title>
<g id="a_edge40_Node000022_Node000023"><a xlink:title=" ">
<path fill="none" stroke="#9a32cd" stroke-dasharray="5,2" d="M52.77,-416.85C65.2,-395.6 88.16,-361.95 117.5,-344 150.07,-324.08 172.58,-350.93 201.5,-326 225.47,-305.33 232.06,-265.45 233.85,-247.35"/>
<polygon fill="#9a32cd" stroke="#9a32cd" points="49.83,-414.93 47.99,-425.36 55.94,-418.35 49.83,-414.93"/>
</a>
</g>
<text xml:space="preserve" text-anchor="start" x="120.5" y="-381.5" font-family="Helvetica,sans-Serif" font-size="10.00" fill="grey">free_heaps</text>
<text xml:space="preserve" text-anchor="start" x="120.5" y="-365.5" font-family="Helvetica,sans-Serif" font-size="10.00" fill="grey">heaps</text>
<text xml:space="preserve" text-anchor="start" x="120.5" y="-349.5" font-family="Helvetica,sans-Serif" font-size="10.00" fill="grey">sweeps</text>
</g>
<!-- Node23&#45;&gt;Node23 -->
<g id="edge42_Node000023_Node000023" class="edge">
<title>Node23&#45;&gt;Node23</title>
<g id="a_edge42_Node000023_Node000023"><a xlink:title=" ">
<path fill="none" stroke="#9a32cd" stroke-dasharray="5,2" d="M96.46,-444.28C100.51,-442.66 103,-440.23 103,-437 103,-431.41 95.55,-428.23 85.46,-427.44"/>
<polygon fill="#9a32cd" stroke="#9a32cd" points="96.03,-440.8 86.94,-446.25 97.44,-447.65 96.03,-440.8"/>
</a>
</g>
<text xml:space="preserve" text-anchor="start" x="106" y="-441.5" font-family="Helvetica,sans-Serif" font-size="10.00" fill="grey">free_next</text>
<text xml:space="preserve" text-anchor="start" x="106" y="-425.5" font-family="Helvetica,sans-Serif" font-size="10.00" fill="grey">next</text>
</g>
<!-- Node24 -->
<g id="Node000024" class="node">
<title>Node24</title>
<g id="a_Node000024"><a xlink:href="structRBasic.html" target="_top" xlink:title=" ">
<polygon fill="white" stroke="#bfbfbf" points="161.62,-543 113.38,-543 113.38,-523 161.62,-523 161.62,-543"/>
<text xml:space="preserve" text-anchor="middle" x="137.5" y="-529.5" font-family="Helvetica,sans-Serif" font-size="10.00">RBasic</text>
</a>
</g>
</g>
<!-- Node24&#45;&gt;Node22 -->
<g id="edge43_Node000022_Node000024" class="edge">
<title>Node24&#45;&gt;Node22</title>
<g id="a_edge43_Node000022_Node000024"><a xlink:title=" ">
<path fill="none" stroke="#9a32cd" stroke-dasharray="5,2" d="M144.13,-511.92C163.23,-454.02 217.91,-288.28 231.44,-247.27"/>
<polygon fill="#9a32cd" stroke="#9a32cd" points="140.9,-510.52 141.09,-521.11 147.55,-512.71 140.9,-510.52"/>
</a>
</g>
<text xml:space="preserve" text-anchor="start" x="179.36" y="-449.5" font-family="Helvetica,sans-Serif" font-size="10.00" fill="grey">arena</text>
<text xml:space="preserve" text-anchor="start" x="179.36" y="-433.5" font-family="Helvetica,sans-Serif" font-size="10.00" fill="grey">atomic_gray_list</text>
<text xml:space="preserve" text-anchor="start" x="179.36" y="-417.5" font-family="Helvetica,sans-Serif" font-size="10.00" fill="grey">gray_list</text>
</g>
<!-- Node24&#45;&gt;Node23 -->
<g id="edge41_Node000023_Node000024" class="edge">
<title>Node24&#45;&gt;Node23</title>
<g id="a_edge41_Node000023_Node000024"><a xlink:title=" ">
<path fill="none" stroke="#9a32cd" stroke-dasharray="5,2" d="M120.02,-514.7C99.95,-494.84 67.75,-462.99 51.92,-447.32"/>
<polygon fill="#9a32cd" stroke="#9a32cd" points="117.4,-517.03 126.97,-521.58 122.32,-512.06 117.4,-517.03"/>
</a>
</g>
<text xml:space="preserve" text-anchor="start" x="104.3" y="-485.5" font-family="Helvetica,sans-Serif" font-size="10.00" fill="grey">freelist</text>
</g>
<!-- Node25&#45;&gt;Node2 -->
<g id="edge44_Node000002_Node000025" class="edge">
<title>Node25&#45;&gt;Node2</title>
<g id="a_edge44_Node000002_Node000025"><a xlink:title=" ">
<path fill="none" stroke="#9a32cd" stroke-dasharray="5,2" d="M583.5,-215.09C583.5,-181.88 583.5,-118.38 583.5,-94.44"/>
<polygon fill="#9a32cd" stroke="#9a32cd" points="580,-215.04 583.5,-225.04 587,-215.04 580,-215.04"/>
</a>
</g>
<text xml:space="preserve" text-anchor="start" x="586.5" y="-117.5" font-family="Helvetica,sans-Serif" font-size="10.00" fill="grey">cache</text>
</g>
</g>
</svg>
