<?xml version="1.0" encoding="UTF-8" standalone="no"?>
<!DOCTYPE svg PUBLIC "-//W3C//DTD SVG 1.1//EN"
 "http://www.w3.org/Graphics/SVG/1.1/DTD/svg11.dtd">
<!-- Generated by graphviz version 14.0.5 (0)
 -->
<!-- Title: mrb_state Pages: 1 -->
<svg width="966pt" height="1006pt"
 viewBox="0.00 0.00 966.00 1006.00" xmlns="http://www.w3.org/2000/svg" xmlns:xlink="http://www.w3.org/1999/xlink">
<g id="graph0" class="graph" transform="scale(1 1) rotate(0) translate(4 1002)">
<title>mrb_state</title>
<!-- Node1 -->
<g id="Node000001" class="node">
<title>Node1</title>
<g id="a_Node000001"><a xlink:title=" ">
<polygon fill="#999999" stroke="#666666" points="613.25,-20 553.75,-20 553.75,0 613.25,0 613.25,-20"/>
<text xml:space="preserve" text-anchor="middle" x="583.5" y="-6.5" font-family="Helvetica,sans-Serif" font-size="10.00">mrb_state</text>
</a>
</g>
</g>
<!-- Node1&#45;&gt;Node1 -->
<g id="edge2_Node000001_Node000001" class="edge">
<title>Node1&#45;&gt;Node1</title>
<g id="a_edge2_Node000001_Node000001"><a xlink:title=" ">
<path fill="none" stroke="#9a32cd" stroke-dasharray="5,2" d="M624.76,-15.61C628.73,-14.47 631.25,-12.6 631.25,-10 631.25,-5.38 623.29,-3.06 613.34,-3.06"/>
<polygon fill="#9a32cd" stroke="#9a32cd" points="624.38,-12.13 614.85,-16.76 625.18,-19.08 624.38,-12.13"/>
</a>
</g>
<text xml:space="preserve" text-anchor="start" x="634.25" y="-6.5" font-family="Helvetica,sans-Serif" font-size="10.00" fill="grey">allocf</text>
</g>
<!-- Node2 -->
<g id="Node000002" class="node">
<title>Node2</title>
<g id="a_Node000002"><a xlink:href="structmrb__jmpbuf.html" target="_top" xlink:title=" ">
<polygon fill="white" stroke="#bfbfbf" points="192,-173 125,-173 125,-153 192,-153 192,-173"/>
<text xml:space="preserve" text-anchor="middle" x="158.5" y="-159.5" font-family="Helvetica,sans-Serif" font-size="10.00">mrb_jmpbuf</text>
</a>
</g>
</g>
<!-- Node2&#45;&gt;Node1 -->
<g id="edge1_Node000001_Node000002" class="edge">
<title>Node2&#45;&gt;Node1</title>
<g id="a_edge1_Node000001_Node000002"><a xlink:title=" ">
<path fill="none" stroke="#9a32cd" stroke-dasharray="5,2" d="M164.76,-141.76C171.46,-122.61 183.61,-93.91 201.5,-74 221.59,-51.64 230.24,-47.52 258.75,-38 312.95,-19.91 483.81,-13.56 553.48,-11.68"/>
<polygon fill="#9a32cd" stroke="#9a32cd" points="161.49,-140.5 161.68,-151.1 168.14,-142.69 161.49,-140.5"/>
</a>
</g>
<text xml:space="preserve" text-anchor="start" x="261.75" y="-43.5" font-family="Helvetica,sans-Serif" font-size="10.00" fill="grey">jmp</text>
</g>
<!-- Node3 -->
<g id="Node000003" class="node">
<title>Node3</title>
<g id="a_Node000003"><a xlink:href="structmrb__context.html" target="_top" xlink:title=" ">
<polygon fill="white" stroke="#bfbfbf" points="419.5,-834 349.5,-834 349.5,-814 419.5,-814 419.5,-834"/>
<text xml:space="preserve" text-anchor="middle" x="384.5" y="-820.5" font-family="Helvetica,sans-Serif" font-size="10.00">mrb_context</text>
</a>
</g>
</g>
<!-- Node3&#45;&gt;Node1 -->
<g id="edge3_Node000001_Node000003" class="edge">
<title>Node3&#45;&gt;Node1</title>
<g id="a_edge3_Node000001_Node000003"><a xlink:title=" ">
<path fill="none" stroke="#9a32cd" stroke-dasharray="5,2" d="M358,-806.76C354.63,-803.6 351.63,-800 349.5,-796 302.73,-707.9 335.5,-671.75 335.5,-572 335.5,-572 335.5,-572 335.5,-162 335.5,-60.93 487.62,-25.55 553.59,-14.96"/>
<polygon fill="#9a32cd" stroke="#9a32cd" points="355.62,-809.33 365.64,-812.77 359.95,-803.83 355.62,-809.33"/>
</a>
</g>
<text xml:space="preserve" text-anchor="start" x="338.5" y="-515.5" font-family="Helvetica,sans-Serif" font-size="10.00" fill="grey">c</text>
<text xml:space="preserve" text-anchor="start" x="338.5" y="-499.5" font-family="Helvetica,sans-Serif" font-size="10.00" fill="grey">root_c</text>
</g>
<!-- Node3&#45;&gt;Node3 -->
<g id="edge4_Node000003_Node000003" class="edge">
<title>Node3&#45;&gt;Node3</title>
<g id="a_edge4_Node000003_Node000003"><a xlink:title=" ">
<path fill="none" stroke="#9a32cd" stroke-dasharray="5,2" d="M430.77,-830.67C434.91,-829.27 437.5,-827.05 437.5,-824 437.5,-818.73 429.74,-815.93 419.67,-815.6"/>
<polygon fill="#9a32cd" stroke="#9a32cd" points="430.5,-827.17 421.16,-832.17 431.58,-834.08 430.5,-827.17"/>
</a>
</g>
<text xml:space="preserve" text-anchor="start" x="440.5" y="-820.5" font-family="Helvetica,sans-Serif" font-size="10.00" fill="grey">prev</text>
</g>
<!-- Node18 -->
<g id="Node000018" class="node">
<title>Node18</title>
<g id="a_Node000018"><a xlink:href="structREnv.html" target="_top" xlink:title=" ">
<polygon fill="white" stroke="#666666" points="512.88,-744 472.12,-744 472.12,-724 512.88,-724 512.88,-744"/>
<text xml:space="preserve" text-anchor="middle" x="492.5" y="-730.5" font-family="Helvetica,sans-Serif" font-size="10.00">REnv</text>
</a>
</g>
</g>
<!-- Node3&#45;&gt;Node18 -->
<g id="edge28_Node000018_Node000003" class="edge">
<title>Node3&#45;&gt;Node18</title>
<g id="a_edge28_Node000018_Node000003"><a xlink:title=" ">
<path fill="none" stroke="#9a32cd" stroke-dasharray="5,2" d="M421.83,-808.79C428.77,-805.21 435.67,-800.95 441.5,-796 455.5,-784.11 453.17,-776.05 465,-762 470.26,-755.76 476.75,-749.33 482.1,-744.32"/>
<polygon fill="#9a32cd" stroke="#9a32cd" points="420.67,-805.47 413.11,-812.9 423.65,-811.8 420.67,-805.47"/>
</a>
</g>
<text xml:space="preserve" text-anchor="start" x="468" y="-775.5" font-family="Helvetica,sans-Serif" font-size="10.00" fill="grey">cxt</text>
</g>
<!-- Node19 -->
<g id="Node000019" class="node">
<title>Node19</title>
<g id="a_Node000019"><a xlink:href="structRFiber.html" target="_top" xlink:title=" ">
<polygon fill="white" stroke="#bfbfbf" points="402.12,-744 356.88,-744 356.88,-724 402.12,-724 402.12,-744"/>
<text xml:space="preserve" text-anchor="middle" x="379.5" y="-730.5" font-family="Helvetica,sans-Serif" font-size="10.00">RFiber</text>
</a>
</g>
</g>
<!-- Node3&#45;&gt;Node19 -->
<g id="edge33_Node000019_Node000003" class="edge">
<title>Node3&#45;&gt;Node19</title>
<g id="a_edge33_Node000019_Node000003"><a xlink:title=" ">
<path fill="none" stroke="#9a32cd" stroke-dasharray="5,2" d="M363.7,-805.42C361.39,-802.52 359.37,-799.36 358,-796 352.28,-782.01 353.01,-776.26 358,-762 360.37,-755.21 365.24,-748.86 369.75,-744.02"/>
<polygon fill="#9a32cd" stroke="#9a32cd" points="361.18,-807.85 370.65,-812.6 366.21,-802.98 361.18,-807.85"/>
</a>
</g>
<text xml:space="preserve" text-anchor="start" x="361" y="-775.5" font-family="Helvetica,sans-Serif" font-size="10.00" fill="grey">cxt</text>
</g>
<!-- Node4 -->
<g id="Node000004" class="node">
<title>Node4</title>
<g id="a_Node000004"><a xlink:href="structmrb__value.html" target="_top" xlink:title=" ">
<polygon fill="white" stroke="#bfbfbf" points="558,-924 497,-924 497,-904 558,-904 558,-924"/>
<text xml:space="preserve" text-anchor="middle" x="527.5" y="-910.5" font-family="Helvetica,sans-Serif" font-size="10.00">mrb_value</text>
</a>
</g>
</g>
<!-- Node4&#45;&gt;Node3 -->
<g id="edge5_Node000003_Node000004" class="edge">
<title>Node4&#45;&gt;Node3</title>
<g id="a_edge5_Node000003_Node000004"><a xlink:title=" ">
<path fill="none" stroke="#9a32cd" stroke-dasharray="5,2" d="M485.87,-902.26C473.59,-898.15 460.45,-892.78 449.25,-886 425.46,-871.61 403.11,-847.3 391.94,-834.13"/>
<polygon fill="#9a32cd" stroke="#9a32cd" points="484.79,-905.59 495.38,-905.23 486.88,-898.91 484.79,-905.59"/>
</a>
</g>
<text xml:space="preserve" text-anchor="start" x="452.25" y="-873.5" font-family="Helvetica,sans-Serif" font-size="10.00" fill="grey">stbase</text>
<text xml:space="preserve" text-anchor="start" x="452.25" y="-857.5" font-family="Helvetica,sans-Serif" font-size="10.00" fill="grey">stend</text>
</g>
<!-- Node6 -->
<g id="Node000006" class="node">
<title>Node6</title>
<g id="a_Node000006"><a xlink:href="structmrb__callinfo.html" target="_top" xlink:title=" ">
<polygon fill="white" stroke="#bfbfbf" points="515.75,-173 447.25,-173 447.25,-153 515.75,-153 515.75,-173"/>
<text xml:space="preserve" text-anchor="middle" x="481.5" y="-159.5" font-family="Helvetica,sans-Serif" font-size="10.00">mrb_callinfo</text>
</a>
</g>
</g>
<!-- Node4&#45;&gt;Node6 -->
<g id="edge29_Node000006_Node000004" class="edge">
<title>Node4&#45;&gt;Node6</title>
<g id="a_edge29_Node000006_Node000004"><a xlink:title=" ">
<path fill="none" stroke="#9a32cd" stroke-dasharray="5,2" d="M485.32,-906.24C417.19,-894.13 290.5,-866.08 290.5,-825 290.5,-825 290.5,-825 290.5,-362 290.5,-265.04 410.6,-197.35 460.33,-173.48"/>
<polygon fill="#9a32cd" stroke="#9a32cd" points="484.57,-909.67 495.03,-907.93 485.77,-902.77 484.57,-909.67"/>
</a>
</g>
<text xml:space="preserve" text-anchor="start" x="293.5" y="-619.5" font-family="Helvetica,sans-Serif" font-size="10.00" fill="grey">stack</text>
</g>
<!-- Node7 -->
<g id="Node000007" class="node">
<title>Node7</title>
<g id="a_Node000007"><a xlink:href="structRProc.html" target="_top" xlink:title=" ">
<polygon fill="white" stroke="#bfbfbf" points="588.38,-670 544.62,-670 544.62,-650 588.38,-650 588.38,-670"/>
<text xml:space="preserve" text-anchor="middle" x="566.5" y="-656.5" font-family="Helvetica,sans-Serif" font-size="10.00">RProc</text>
</a>
</g>
</g>
<!-- Node4&#45;&gt;Node7 -->
<g id="edge16_Node000007_Node000004" class="edge">
<title>Node4&#45;&gt;Node7</title>
<g id="a_edge16_Node000007_Node000004"><a xlink:title=" ">
<path fill="none" stroke="#9a32cd" stroke-dasharray="5,2" d="M531.65,-892.65C534.83,-876.73 539.22,-854 542.5,-834 552.72,-771.76 562.18,-696.45 565.36,-670.4"/>
<polygon fill="#9a32cd" stroke="#9a32cd" points="528.25,-891.8 529.7,-902.3 535.11,-893.19 528.25,-891.8"/>
</a>
</g>
<text xml:space="preserve" text-anchor="start" x="556.23" y="-775.5" font-family="Helvetica,sans-Serif" font-size="10.00" fill="grey">func</text>
</g>
<!-- Node15 -->
<g id="Node000015" class="node">
<title>Node15</title>
<g id="a_Node000015"><a xlink:href="structiv__tbl.html" target="_top" xlink:title=" ">
<polygon fill="white" stroke="#bfbfbf" points="822.12,-469 782.88,-469 782.88,-449 822.12,-449 822.12,-469"/>
<text xml:space="preserve" text-anchor="middle" x="802.5" y="-455.5" font-family="Helvetica,sans-Serif" font-size="10.00">iv_tbl</text>
</a>
</g>
</g>
<!-- Node4&#45;&gt;Node15 -->
<g id="edge20_Node000015_Node000004" class="edge">
<title>Node4&#45;&gt;Node15</title>
<g id="a_edge20_Node000015_Node000004"><a xlink:title=" ">
<path fill="none" stroke="#9a32cd" stroke-dasharray="5,2" d="M569.7,-912.8C610.57,-911.32 673.65,-905.64 724.5,-886 769.23,-868.72 813.5,-872.95 813.5,-825 813.5,-825 813.5,-825 813.5,-570 813.5,-532.57 807.12,-488.34 804.08,-469.39"/>
<polygon fill="#9a32cd" stroke="#9a32cd" points="569.69,-909.29 559.8,-913.07 569.89,-916.29 569.69,-909.29"/>
</a>
</g>
<text xml:space="preserve" text-anchor="start" x="816.5" y="-693.5" font-family="Helvetica,sans-Serif" font-size="10.00" fill="grey">ptr</text>
</g>
<!-- Node17 -->
<g id="Node000017" class="node">
<title>Node17</title>
<g id="a_Node000017"><a xlink:href="unionmt__ptr.html" target="_top" xlink:title=" ">
<polygon fill="white" stroke="#bfbfbf" points="684.38,-581 640.62,-581 640.62,-561 684.38,-561 684.38,-581"/>
<text xml:space="preserve" text-anchor="middle" x="662.5" y="-567.5" font-family="Helvetica,sans-Serif" font-size="10.00">mt_ptr</text>
</a>
</g>
</g>
<!-- Node4&#45;&gt;Node17 -->
<g id="edge24_Node000017_Node000004" class="edge">
<title>Node4&#45;&gt;Node17</title>
<g id="a_edge24_Node000017_Node000004"><a xlink:title=" ">
<path fill="none" stroke="#9a32cd" stroke-dasharray="5,2" d="M569.52,-911.86C622.09,-907.91 710.2,-892.36 751.5,-834 812.27,-748.12 703.93,-617.44 671.35,-581.46"/>
<polygon fill="#9a32cd" stroke="#9a32cd" points="569.51,-908.36 559.75,-912.48 569.95,-915.34 569.51,-908.36"/>
</a>
</g>
<text xml:space="preserve" text-anchor="start" x="769.16" y="-730.5" font-family="Helvetica,sans-Serif" font-size="10.00" fill="grey">func</text>
</g>
<!-- Node4&#45;&gt;Node18 -->
<g id="edge27_Node000018_Node000004" class="edge">
<title>Node4&#45;&gt;Node18</title>
<g id="a_edge27_Node000018_Node000004"><a xlink:title=" ">
<path fill="none" stroke="#9a32cd" stroke-dasharray="5,2" d="M523.51,-892.68C515.93,-854.17 499.75,-771.9 494.32,-744.27"/>
<polygon fill="#9a32cd" stroke="#9a32cd" points="520.06,-893.31 525.42,-902.44 526.93,-891.96 520.06,-893.31"/>
</a>
</g>
<text xml:space="preserve" text-anchor="start" x="514.75" y="-820.5" font-family="Helvetica,sans-Serif" font-size="10.00" fill="grey">stack</text>
</g>
<!-- Node5 -->
<g id="Node000005" class="node">
<title>Node5</title>
<g id="a_Node000005"><a xlink:href="unionmrb__value__union.html" target="_top" xlink:title=" ">
<polygon fill="white" stroke="#bfbfbf" points="572.25,-998 482.75,-998 482.75,-978 572.25,-978 572.25,-998"/>
<text xml:space="preserve" text-anchor="middle" x="527.5" y="-984.5" font-family="Helvetica,sans-Serif" font-size="10.00">mrb_value_union</text>
</a>
</g>
</g>
<!-- Node5&#45;&gt;Node4 -->
<g id="edge6_Node000004_Node000005" class="edge">
<title>Node5&#45;&gt;Node4</title>
<g id="a_edge6_Node000004_Node000005"><a xlink:title=" ">
<path fill="none" stroke="#9a32cd" stroke-dasharray="5,2" d="M527.5,-966.18C527.5,-952.29 527.5,-934.71 527.5,-924.19"/>
<polygon fill="#9a32cd" stroke="#9a32cd" points="524,-966.07 527.5,-976.07 531,-966.07 524,-966.07"/>
</a>
</g>
<text xml:space="preserve" text-anchor="start" x="530.5" y="-947.5" font-family="Helvetica,sans-Serif" font-size="10.00" fill="grey">value</text>
</g>
<!-- Node6&#45;&gt;Node3 -->
<g id="edge7_Node000003_Node000006" class="edge">
<title>Node6&#45;&gt;Node3</title>
<g id="a_edge7_Node000003_Node000006"><a xlink:title=" ">
<path fill="none" stroke="#9a32cd" stroke-dasharray="5,2" d="M471.81,-183.36C455.3,-218.19 423.5,-294.1 423.5,-362 423.5,-512 423.5,-512 423.5,-512 423.5,-615.25 422.03,-641.29 411.5,-744 409.12,-767.26 412.24,-774.31 403.5,-796 400.93,-802.38 396.59,-808.71 392.71,-813.64"/>
<polygon fill="#9a32cd" stroke="#9a32cd" points="474.87,-185.08 476.09,-174.56 468.57,-182.02 474.87,-185.08"/>
</a>
</g>
<text xml:space="preserve" text-anchor="start" x="426.42" y="-583.5" font-family="Helvetica,sans-Serif" font-size="10.00" fill="grey">ci</text>
<text xml:space="preserve" text-anchor="start" x="426.42" y="-567.5" font-family="Helvetica,sans-Serif" font-size="10.00" fill="grey">cibase</text>
<text xml:space="preserve" text-anchor="start" x="426.42" y="-551.5" font-family="Helvetica,sans-Serif" font-size="10.00" fill="grey">ciend</text>
</g>
<!-- Node7&#45;&gt;Node6 -->
<g id="edge8_Node000006_Node000007" class="edge">
<title>Node7&#45;&gt;Node6</title>
<g id="a_edge8_Node000006_Node000007"><a xlink:title=" ">
<path fill="none" stroke="#9a32cd" stroke-dasharray="5,2" d="M562.96,-638.4C548.37,-553.4 493.11,-231.63 483.07,-173.15"/>
<polygon fill="#9a32cd" stroke="#9a32cd" points="559.48,-638.8 564.62,-648.06 566.38,-637.61 559.48,-638.8"/>
</a>
</g>
<text xml:space="preserve" text-anchor="start" x="537.41" y="-463.5" font-family="Helvetica,sans-Serif" font-size="10.00" fill="grey">blk</text>
<text xml:space="preserve" text-anchor="start" x="537.41" y="-447.5" font-family="Helvetica,sans-Serif" font-size="10.00" fill="grey">proc</text>
</g>
<!-- Node7&#45;&gt;Node7 -->
<g id="edge17_Node000007_Node000007" class="edge">
<title>Node7&#45;&gt;Node7</title>
<g id="a_edge17_Node000007_Node000007"><a xlink:title=" ">
<path fill="none" stroke="#9a32cd" stroke-dasharray="5,2" d="M599.82,-665.96C603.79,-664.87 606.38,-662.89 606.38,-660 606.38,-654.87 598.2,-652.58 588.64,-653.15"/>
<polygon fill="#9a32cd" stroke="#9a32cd" points="599.84,-662.44 590.15,-666.73 600.4,-669.42 599.84,-662.44"/>
</a>
</g>
<text xml:space="preserve" text-anchor="start" x="609.38" y="-656.5" font-family="Helvetica,sans-Serif" font-size="10.00" fill="grey">upper</text>
</g>
<!-- Node7&#45;&gt;Node17 -->
<g id="edge23_Node000017_Node000007" class="edge">
<title>Node7&#45;&gt;Node17</title>
<g id="a_edge23_Node000017_Node000007"><a xlink:title=" ">
<path fill="none" stroke="#9a32cd" stroke-dasharray="5,2" d="M585.11,-642.14C605.15,-623.97 636.32,-595.72 652.3,-581.24"/>
<polygon fill="#9a32cd" stroke="#9a32cd" points="582.95,-639.36 577.9,-648.67 587.66,-644.55 582.95,-639.36"/>
</a>
</g>
<text xml:space="preserve" text-anchor="start" x="617.5" y="-619.5" font-family="Helvetica,sans-Serif" font-size="10.00" fill="grey">proc</text>
</g>
<!-- Node8 -->
<g id="Node000008" class="node">
<title>Node8</title>
<g id="a_Node000008"><a xlink:href="structmrb__irep.html" target="_top" xlink:title=" ">
<polygon fill="white" stroke="#bfbfbf" points="670.25,-744 616.75,-744 616.75,-724 670.25,-724 670.25,-744"/>
<text xml:space="preserve" text-anchor="middle" x="643.5" y="-730.5" font-family="Helvetica,sans-Serif" font-size="10.00">mrb_irep</text>
</a>
</g>
</g>
<!-- Node8&#45;&gt;Node7 -->
<g id="edge9_Node000007_Node000008" class="edge">
<title>Node8&#45;&gt;Node7</title>
<g id="a_edge9_Node000007_Node000008"><a xlink:title=" ">
<path fill="none" stroke="#9a32cd" stroke-dasharray="5,2" d="M625.22,-715.9C609.89,-701.58 588.61,-681.68 576.33,-670.19"/>
<polygon fill="#9a32cd" stroke="#9a32cd" points="622.63,-718.28 632.33,-722.55 627.41,-713.17 622.63,-718.28"/>
</a>
</g>
<text xml:space="preserve" text-anchor="start" x="617.16" y="-693.5" font-family="Helvetica,sans-Serif" font-size="10.00" fill="grey">irep</text>
</g>
<!-- Node8&#45;&gt;Node8 -->
<g id="edge12_Node000008_Node000008" class="edge">
<title>Node8&#45;&gt;Node8</title>
<g id="a_edge12_Node000008_Node000008"><a xlink:title=" ">
<path fill="none" stroke="#9a32cd" stroke-dasharray="5,2" d="M681.81,-739.71C685.74,-738.59 688.25,-736.68 688.25,-734 688.25,-729.23 680.32,-726.92 670.59,-727.07"/>
<polygon fill="#9a32cd" stroke="#9a32cd" points="681.66,-736.21 672.09,-740.77 682.41,-743.17 681.66,-736.21"/>
</a>
</g>
<text xml:space="preserve" text-anchor="start" x="691.25" y="-730.5" font-family="Helvetica,sans-Serif" font-size="10.00" fill="grey">reps</text>
</g>
<!-- Node9 -->
<g id="Node000009" class="node">
<title>Node9</title>
<g id="a_Node000009"><a xlink:href="structmrb__pool__value.html" target="_top" xlink:title=" ">
<polygon fill="white" stroke="#bfbfbf" points="668.62,-834 584.38,-834 584.38,-814 668.62,-814 668.62,-834"/>
<text xml:space="preserve" text-anchor="middle" x="626.5" y="-820.5" font-family="Helvetica,sans-Serif" font-size="10.00">mrb_pool_value</text>
</a>
</g>
</g>
<!-- Node9&#45;&gt;Node8 -->
<g id="edge10_Node000008_Node000009" class="edge">
<title>Node9&#45;&gt;Node8</title>
<g id="a_edge10_Node000008_Node000009"><a xlink:title=" ">
<path fill="none" stroke="#9a32cd" stroke-dasharray="5,2" d="M630.49,-802.35C634.03,-784.02 639.04,-758.07 641.69,-744.35"/>
<polygon fill="#9a32cd" stroke="#9a32cd" points="627.07,-801.61 628.61,-812.1 633.94,-802.94 627.07,-801.61"/>
</a>
</g>
<text xml:space="preserve" text-anchor="start" x="641" y="-775.5" font-family="Helvetica,sans-Serif" font-size="10.00" fill="grey">pool</text>
</g>
<!-- Node10 -->
<g id="Node000010" class="node">
<title>Node10</title>
<g id="a_Node000010"><a xlink:href="classmrb__sym.html" target="_top" xlink:title=" ">
<polygon fill="white" stroke="#666666" points="742.75,-834 686.25,-834 686.25,-814 742.75,-814 742.75,-834"/>
<text xml:space="preserve" text-anchor="middle" x="714.5" y="-820.5" font-family="Helvetica,sans-Serif" font-size="10.00">mrb_sym</text>
</a>
</g>
</g>
<!-- Node10&#45;&gt;Node8 -->
<g id="edge11_Node000008_Node000010" class="edge">
<title>Node10&#45;&gt;Node8</title>
<g id="a_edge11_Node000008_Node000010"><a xlink:title=" ">
<path fill="none" stroke="#9a32cd" stroke-dasharray="5,2" d="M700.67,-805.05C691.18,-792.82 678.22,-776.31 666.5,-762 661.66,-756.09 656.12,-749.57 651.68,-744.42"/>
<polygon fill="#9a32cd" stroke="#9a32cd" points="697.64,-806.85 706.53,-812.62 703.18,-802.57 697.64,-806.85"/>
</a>
</g>
<text xml:space="preserve" text-anchor="start" x="695.84" y="-783.5" font-family="Helvetica,sans-Serif" font-size="10.00" fill="grey">lv</text>
<text xml:space="preserve" text-anchor="start" x="695.84" y="-767.5" font-family="Helvetica,sans-Serif" font-size="10.00" fill="grey">syms</text>
</g>
<!-- Node11 -->
<g id="Node000011" class="node">
<title>Node11</title>
<g id="a_Node000011"><a xlink:href="structmrb__irep__debug__info.html" target="_top" xlink:title=" ">
<polygon fill="white" stroke="#bfbfbf" points="947.5,-834 841.5,-834 841.5,-814 947.5,-814 947.5,-834"/>
<text xml:space="preserve" text-anchor="middle" x="894.5" y="-820.5" font-family="Helvetica,sans-Serif" font-size="10.00">mrb_irep_debug_info</text>
</a>
</g>
</g>
<!-- Node11&#45;&gt;Node8 -->
<g id="edge13_Node000008_Node000011" class="edge">
<title>Node11&#45;&gt;Node8</title>
<g id="a_edge13_Node000008_Node000011"><a xlink:title=" ">
<path fill="none" stroke="#9a32cd" stroke-dasharray="5,2" d="M858.5,-809.53C824.56,-796.93 772.24,-777.74 726.5,-762 707.87,-755.59 686.76,-748.73 670.49,-743.53"/>
<polygon fill="#9a32cd" stroke="#9a32cd" points="857.25,-812.8 867.85,-813.01 859.69,-806.24 857.25,-812.8"/>
</a>
</g>
<text xml:space="preserve" text-anchor="start" x="821.09" y="-775.5" font-family="Helvetica,sans-Serif" font-size="10.00" fill="grey">debug_info</text>
</g>
<!-- Node12 -->
<g id="Node000012" class="node">
<title>Node12</title>
<g id="a_Node000012"><a xlink:href="structmrb__irep__debug__info__file.html" target="_top" xlink:title=" ">
<polygon fill="white" stroke="#bfbfbf" points="956.5,-924 832.5,-924 832.5,-904 956.5,-904 956.5,-924"/>
<text xml:space="preserve" text-anchor="middle" x="894.5" y="-910.5" font-family="Helvetica,sans-Serif" font-size="10.00">mrb_irep_debug_info_file</text>
</a>
</g>
</g>
<!-- Node12&#45;&gt;Node11 -->
<g id="edge14_Node000011_Node000012" class="edge">
<title>Node12&#45;&gt;Node11</title>
<g id="a_edge14_Node000011_Node000012"><a xlink:title=" ">
<path fill="none" stroke="#9a32cd" stroke-dasharray="5,2" d="M894.5,-892.09C894.5,-873.77 894.5,-848.01 894.5,-834.35"/>
<polygon fill="#9a32cd" stroke="#9a32cd" points="891,-892.07 894.5,-902.07 898,-892.07 891,-892.07"/>
</a>
</g>
<text xml:space="preserve" text-anchor="start" x="897.5" y="-865.5" font-family="Helvetica,sans-Serif" font-size="10.00" fill="grey">files</text>
</g>
<!-- Node13 -->
<g id="Node000013" class="node">
<title>Node13</title>
<g id="a_Node000013"><a xlink:href="structmrb__irep__debug__info__line.html" target="_top" xlink:title=" ">
<polygon fill="white" stroke="#bfbfbf" points="957.62,-998 831.38,-998 831.38,-978 957.62,-978 957.62,-998"/>
<text xml:space="preserve" text-anchor="middle" x="894.5" y="-984.5" font-family="Helvetica,sans-Serif" font-size="10.00">mrb_irep_debug_info_line</text>
</a>
</g>
</g>
<!-- Node13&#45;&gt;Node12 -->
<g id="edge15_Node000012_Node000013" class="edge">
<title>Node13&#45;&gt;Node12</title>
<g id="a_edge15_Node000012_Node000013"><a xlink:title=" ">
<path fill="none" stroke="#9a32cd" stroke-dasharray="5,2" d="M894.5,-966.18C894.5,-952.29 894.5,-934.71 894.5,-924.19"/>
<polygon fill="#9a32cd" stroke="#9a32cd" points="891,-966.07 894.5,-976.07 898,-966.07 891,-966.07"/>
</a>
</g>
<text xml:space="preserve" text-anchor="start" x="897.5" y="-947.5" font-family="Helvetica,sans-Serif" font-size="10.00" fill="grey">flat_map</text>
</g>
<!-- Node14 -->
<g id="Node000014" class="node">
<title>Node14</title>
<g id="a_Node000014"><a xlink:href="structRClass.html" target="_top" xlink:title=" ">
<polygon fill="white" stroke="#666666" points="666,-373 617,-373 617,-353 666,-353 666,-373"/>
<text xml:space="preserve" text-anchor="middle" x="641.5" y="-359.5" font-family="Helvetica,sans-Serif" font-size="10.00">RClass</text>
</a>
</g>
</g>
<!-- Node14&#45;&gt;Node1 -->
<g id="edge37_Node000001_Node000014" class="edge">
<title>Node14&#45;&gt;Node1</title>
<g id="a_edge37_Node000001_Node000014"><a xlink:title=" ">
<path fill="none" stroke="#9a32cd" stroke-dasharray="5,2" d="M646.17,-341.66C647.53,-334.81 648.83,-327.11 649.5,-320 651.59,-297.88 650.12,-292.21 649.5,-270 647.05,-182.79 661.84,-158.07 638.5,-74 633.66,-56.57 631.24,-51.76 619.5,-38 613.72,-31.23 605.95,-25.13 599.1,-20.45"/>
<polygon fill="#9a32cd" stroke="#9a32cd" points="642.79,-340.74 644.11,-351.25 649.63,-342.21 642.79,-340.74"/>
</a>
</g>
<text xml:space="preserve" text-anchor="start" x="654.9" y="-239.5" font-family="Helvetica,sans-Serif" font-size="10.00" fill="grey">array_class</text>
<text xml:space="preserve" text-anchor="start" x="654.9" y="-223.5" font-family="Helvetica,sans-Serif" font-size="10.00" fill="grey">class_class</text>
<text xml:space="preserve" text-anchor="start" x="654.9" y="-207.5" font-family="Helvetica,sans-Serif" font-size="10.00" fill="grey">eException_class</text>
<text xml:space="preserve" text-anchor="start" x="654.9" y="-191.5" font-family="Helvetica,sans-Serif" font-size="10.00" fill="grey">eStandardError_class</text>
<text xml:space="preserve" text-anchor="start" x="654.9" y="-175.5" font-family="Helvetica,sans-Serif" font-size="10.00" fill="grey">false_class</text>
<text xml:space="preserve" text-anchor="start" x="654.9" y="-159.5" font-family="Helvetica,sans-Serif" font-size="10.00" fill="grey">float_class</text>
<text xml:space="preserve" text-anchor="start" x="654.9" y="-143.5" font-family="Helvetica,sans-Serif" font-size="10.00" fill="grey">hash_class</text>
<text xml:space="preserve" text-anchor="start" x="654.9" y="-127.5" font-family="Helvetica,sans-Serif" font-size="10.00" fill="grey">integer_class</text>
<text xml:space="preserve" text-anchor="start" x="654.9" y="-111.5" font-family="Helvetica,sans-Serif" font-size="10.00" fill="grey">kernel_module</text>
<text xml:space="preserve" text-anchor="start" x="654.9" y="-95.5" font-family="Helvetica,sans-Serif" font-size="10.00" fill="grey">module_class</text>
<text xml:space="preserve" text-anchor="start" x="654.9" y="-79.5" font-family="Helvetica,sans-Serif" font-size="10.00" fill="grey"> &#160;...</text>
</g>
<!-- Node14&#45;&gt;Node6 -->
<g id="edge31_Node000006_Node000014" class="edge">
<title>Node14&#45;&gt;Node6</title>
<g id="a_edge31_Node000006_Node000014"><a xlink:title=" ">
<path fill="none" stroke="#9a32cd" stroke-dasharray="5,2" d="M606.04,-351.84C588.07,-345.21 566.99,-334.95 552.25,-320 552.07,-319.82 500.89,-206.82 485.7,-173.28"/>
<polygon fill="#9a32cd" stroke="#9a32cd" points="604.72,-355.09 615.32,-355.03 607,-348.47 604.72,-355.09"/>
</a>
</g>
<text xml:space="preserve" text-anchor="start" x="555.25" y="-291.5" font-family="Helvetica,sans-Serif" font-size="10.00" fill="grey">target_class</text>
</g>
<!-- Node14&#45;&gt;Node7 -->
<g id="edge18_Node000007_Node000014" class="edge">
<title>Node14&#45;&gt;Node7</title>
<g id="a_edge18_Node000007_Node000014"><a xlink:title=" ">
<path fill="none" stroke="#9a32cd" stroke-dasharray="5,2" d="M631.5,-383.8C619.31,-408.82 599.02,-453.51 588.25,-494 572.88,-551.8 568.15,-624.01 566.9,-649.53"/>
<polygon fill="#9a32cd" stroke="#9a32cd" points="634.63,-385.36 635.94,-374.84 628.36,-382.25 634.63,-385.36"/>
</a>
</g>
<text xml:space="preserve" text-anchor="start" x="591.25" y="-507.5" font-family="Helvetica,sans-Serif" font-size="10.00" fill="grey">target_class</text>
</g>
<!-- Node14&#45;&gt;Node14 -->
<g id="edge25_Node000014_Node000014" class="edge">
<title>Node14&#45;&gt;Node14</title>
<g id="a_edge25_Node000014_Node000014"><a xlink:title=" ">
<path fill="none" stroke="#9a32cd" stroke-dasharray="5,2" d="M677.54,-371.17C681.47,-369.61 684,-366.88 684,-363 684,-356.09 676,-352.86 666.38,-353.29"/>
<polygon fill="#9a32cd" stroke="#9a32cd" points="677.31,-367.67 667.88,-372.5 678.27,-374.6 677.31,-367.67"/>
</a>
</g>
<text xml:space="preserve" text-anchor="start" x="687" y="-359.5" font-family="Helvetica,sans-Serif" font-size="10.00" fill="grey">super</text>
</g>
<!-- Node24 -->
<g id="Node000024" class="node">
<title>Node24</title>
<g id="a_Node000024"><a xlink:href="structmrb__cache__entry.html" target="_top" xlink:title=" ">
<polygon fill="white" stroke="#bfbfbf" points="629,-173 538,-173 538,-153 629,-153 629,-173"/>
<text xml:space="preserve" text-anchor="middle" x="583.5" y="-159.5" font-family="Helvetica,sans-Serif" font-size="10.00">mrb_cache_entry</text>
</a>
</g>
</g>
<!-- Node14&#45;&gt;Node24 -->
<g id="edge44_Node000024_Node000014" class="edge">
<title>Node14&#45;&gt;Node24</title>
<g id="a_edge44_Node000024_Node000014"><a xlink:title=" ">
<path fill="none" stroke="#9a32cd" stroke-dasharray="5,2" d="M635.55,-341.69C623.2,-299.54 595.2,-203.93 586.28,-173.49"/>
<polygon fill="#9a32cd" stroke="#9a32cd" points="632.18,-342.65 638.35,-351.26 638.9,-340.68 632.18,-342.65"/>
</a>
</g>
<text xml:space="preserve" text-anchor="start" x="631.97" y="-299.5" font-family="Helvetica,sans-Serif" font-size="10.00" fill="grey">c</text>
<text xml:space="preserve" text-anchor="start" x="631.97" y="-283.5" font-family="Helvetica,sans-Serif" font-size="10.00" fill="grey">c0</text>
</g>
<!-- Node15&#45;&gt;Node1 -->
<g id="edge34_Node000001_Node000015" class="edge">
<title>Node15&#45;&gt;Node1</title>
<g id="a_edge34_Node000001_Node000015"><a xlink:title=" ">
<path fill="none" stroke="#9a32cd" stroke-dasharray="5,2" d="M800.58,-437.47C793.27,-359.91 766.94,-88.42 755.5,-74 720.81,-30.28 652.85,-16.9 613.54,-12.8"/>
<polygon fill="#9a32cd" stroke="#9a32cd" points="797.06,-437.4 801.48,-447.03 804.03,-436.75 797.06,-437.4"/>
</a>
</g>
<text xml:space="preserve" text-anchor="start" x="791.95" y="-291.5" font-family="Helvetica,sans-Serif" font-size="10.00" fill="grey">globals</text>
</g>
<!-- Node15&#45;&gt;Node14 -->
<g id="edge19_Node000014_Node000015" class="edge">
<title>Node15&#45;&gt;Node14</title>
<g id="a_edge19_Node000014_Node000015"><a xlink:title=" ">
<path fill="none" stroke="#9a32cd" stroke-dasharray="5,2" d="M776.89,-443.05C743.31,-423.44 685.38,-389.62 657.46,-373.32"/>
<polygon fill="#9a32cd" stroke="#9a32cd" points="774.77,-445.86 785.17,-447.88 778.3,-439.82 774.77,-445.86"/>
</a>
</g>
<text xml:space="preserve" text-anchor="start" x="744.16" y="-411.5" font-family="Helvetica,sans-Serif" font-size="10.00" fill="grey">iv</text>
</g>
<!-- Node20 -->
<g id="Node000020" class="node">
<title>Node20</title>
<g id="a_Node000020"><a xlink:href="structRObject.html" target="_top" xlink:title=" ">
<polygon fill="white" stroke="#bfbfbf" points="887.5,-305 835.5,-305 835.5,-285 887.5,-285 887.5,-305"/>
<text xml:space="preserve" text-anchor="middle" x="861.5" y="-291.5" font-family="Helvetica,sans-Serif" font-size="10.00">RObject</text>
</a>
</g>
</g>
<!-- Node15&#45;&gt;Node20 -->
<g id="edge36_Node000020_Node000015" class="edge">
<title>Node15&#45;&gt;Node20</title>
<g id="a_edge36_Node000020_Node000015"><a xlink:title=" ">
<path fill="none" stroke="#9a32cd" stroke-dasharray="5,2" d="M809.76,-438.05C822.57,-402.91 848.67,-331.23 858.05,-305.48"/>
<polygon fill="#9a32cd" stroke="#9a32cd" points="806.49,-436.81 806.36,-447.4 813.07,-439.21 806.49,-436.81"/>
</a>
</g>
<text xml:space="preserve" text-anchor="start" x="823.87" y="-411.5" font-family="Helvetica,sans-Serif" font-size="10.00" fill="grey">iv</text>
</g>
<!-- Node16 -->
<g id="Node000016" class="node">
<title>Node16</title>
<g id="a_Node000016"><a xlink:href="structmt__tbl.html" target="_top" xlink:title=" ">
<polygon fill="white" stroke="#bfbfbf" points="668,-469 625,-469 625,-449 668,-449 668,-469"/>
<text xml:space="preserve" text-anchor="middle" x="646.5" y="-455.5" font-family="Helvetica,sans-Serif" font-size="10.00">mt_tbl</text>
</a>
</g>
</g>
<!-- Node16&#45;&gt;Node14 -->
<g id="edge21_Node000014_Node000016" class="edge">
<title>Node16&#45;&gt;Node14</title>
<g id="a_edge21_Node000014_Node000016"><a xlink:title=" ">
<path fill="none" stroke="#9a32cd" stroke-dasharray="5,2" d="M645.4,-437.4C644.34,-417.46 642.78,-388.14 642,-373.32"/>
<polygon fill="#9a32cd" stroke="#9a32cd" points="641.9,-437.33 645.92,-447.13 648.89,-436.96 641.9,-437.33"/>
</a>
</g>
<text xml:space="preserve" text-anchor="start" x="647.59" y="-411.5" font-family="Helvetica,sans-Serif" font-size="10.00" fill="grey">mt</text>
</g>
<!-- Node17&#45;&gt;Node16 -->
<g id="edge22_Node000016_Node000017" class="edge">
<title>Node17&#45;&gt;Node16</title>
<g id="a_edge22_Node000016_Node000017"><a xlink:title=" ">
<path fill="none" stroke="#9a32cd" stroke-dasharray="5,2" d="M659.49,-549.31C656.01,-525.36 650.42,-486.95 647.86,-469.35"/>
<polygon fill="#9a32cd" stroke="#9a32cd" points="656.01,-549.73 660.92,-559.12 662.94,-548.72 656.01,-549.73"/>
</a>
</g>
<text xml:space="preserve" text-anchor="start" x="658.93" y="-507.5" font-family="Helvetica,sans-Serif" font-size="10.00" fill="grey">ptr</text>
</g>
<!-- Node18&#45;&gt;Node6 -->
<g id="edge30_Node000006_Node000018" class="edge">
<title>Node18&#45;&gt;Node6</title>
<g id="a_edge30_Node000006_Node000018"><a xlink:title=" ">
<path fill="none" stroke="#9a32cd" stroke-dasharray="5,2" d="M492.1,-712.12C490.28,-618.34 482.93,-237.8 481.68,-173.31"/>
<polygon fill="#9a32cd" stroke="#9a32cd" points="488.6,-712.15 492.29,-722.09 495.59,-712.02 488.6,-712.15"/>
</a>
</g>
<text xml:space="preserve" text-anchor="start" x="491.48" y="-507.5" font-family="Helvetica,sans-Serif" font-size="10.00" fill="grey">env</text>
</g>
<!-- Node18&#45;&gt;Node7 -->
<g id="edge26_Node000007_Node000018" class="edge">
<title>Node18&#45;&gt;Node7</title>
<g id="a_edge26_Node000007_Node000018"><a xlink:title=" ">
<path fill="none" stroke="#9a32cd" stroke-dasharray="5,2" d="M501.81,-713.89C506.64,-705.28 513.13,-695.42 520.75,-688 528.02,-680.93 537.49,-674.95 545.93,-670.43"/>
<polygon fill="#9a32cd" stroke="#9a32cd" points="498.85,-712 497.32,-722.49 505.05,-715.24 498.85,-712"/>
</a>
</g>
<text xml:space="preserve" text-anchor="start" x="523.75" y="-693.5" font-family="Helvetica,sans-Serif" font-size="10.00" fill="grey">env</text>
</g>
<!-- Node19&#45;&gt;Node3 -->
<g id="edge32_Node000003_Node000019" class="edge">
<title>Node19&#45;&gt;Node3</title>
<g id="a_edge32_Node000003_Node000019"><a xlink:title=" ">
<path fill="none" stroke="#9a32cd" stroke-dasharray="5,2" d="M380.68,-755.82C381.72,-774.12 383.19,-799.89 383.96,-813.58"/>
<polygon fill="#9a32cd" stroke="#9a32cd" points="384.18,-755.65 380.12,-745.86 377.19,-756.04 384.18,-755.65"/>
</a>
</g>
<text xml:space="preserve" text-anchor="start" x="385.88" y="-775.5" font-family="Helvetica,sans-Serif" font-size="10.00" fill="grey">fib</text>
</g>
<!-- Node20&#45;&gt;Node1 -->
<g id="edge35_Node000001_Node000020" class="edge">
<title>Node20&#45;&gt;Node1</title>
<g id="a_edge35_Node000001_Node000020"><a xlink:title=" ">
<path fill="none" stroke="#9a32cd" stroke-dasharray="5,2" d="M864.27,-273.54C869.62,-224.6 875.46,-100.23 807.5,-38 779.84,-12.67 668.22,-10.13 613.73,-10.45"/>
<polygon fill="#9a32cd" stroke="#9a32cd" points="860.82,-272.9 863.08,-283.25 867.77,-273.75 860.82,-272.9"/>
</a>
</g>
<text xml:space="preserve" text-anchor="start" x="870.25" y="-183.5" font-family="Helvetica,sans-Serif" font-size="10.00" fill="grey">exc</text>
<text xml:space="preserve" text-anchor="start" x="870.25" y="-167.5" font-family="Helvetica,sans-Serif" font-size="10.00" fill="grey">nomem_err</text>
<text xml:space="preserve" text-anchor="start" x="870.25" y="-151.5" font-family="Helvetica,sans-Serif" font-size="10.00" fill="grey">stack_err</text>
<text xml:space="preserve" text-anchor="start" x="870.25" y="-135.5" font-family="Helvetica,sans-Serif" font-size="10.00" fill="grey">top_self</text>
</g>
<!-- Node21 -->
<g id="Node000021" class="node">
<title>Node21</title>
<g id="a_Node000021"><a xlink:href="structmrb__gc.html" target="_top" xlink:title=" ">
<polygon fill="white" stroke="#bfbfbf" points="258.62,-173 210.38,-173 210.38,-153 258.62,-153 258.62,-173"/>
<text xml:space="preserve" text-anchor="middle" x="234.5" y="-159.5" font-family="Helvetica,sans-Serif" font-size="10.00">mrb_gc</text>
</a>
</g>
</g>
<!-- Node21&#45;&gt;Node1 -->
<g id="edge38_Node000001_Node000021" class="edge">
<title>Node21&#45;&gt;Node1</title>
<g id="a_edge38_Node000001_Node000021"><a xlink:title=" ">
<path fill="none" stroke="#9a32cd" stroke-dasharray="5,2" d="M239.64,-141.85C248.06,-113.39 267.71,-62.18 305,-38 345.35,-11.84 489.88,-9.99 553.3,-10.5"/>
<polygon fill="#9a32cd" stroke="#9a32cd" points="236.3,-140.8 237.02,-151.37 243.05,-142.66 236.3,-140.8"/>
</a>
</g>
<text xml:space="preserve" text-anchor="start" x="308" y="-43.5" font-family="Helvetica,sans-Serif" font-size="10.00" fill="grey">gc</text>
</g>
<!-- Node22 -->
<g id="Node000022" class="node">
<title>Node22</title>
<g id="a_Node000022"><a xlink:href="structmrb__heap__page.html" target="_top" xlink:title=" ">
<polygon fill="white" stroke="#bfbfbf" points="85,-373 0,-373 0,-353 85,-353 85,-373"/>
<text xml:space="preserve" text-anchor="middle" x="42.5" y="-359.5" font-family="Helvetica,sans-Serif" font-size="10.00">mrb_heap_page</text>
</a>
</g>
</g>
<!-- Node22&#45;&gt;Node21 -->
<g id="edge39_Node000021_Node000022" class="edge">
<title>Node22&#45;&gt;Node21</title>
<g id="a_edge39_Node000021_Node000022"><a xlink:title=" ">
<path fill="none" stroke="#9a32cd" stroke-dasharray="5,2" d="M52.77,-342.85C65.2,-321.6 88.16,-287.95 117.5,-270 150.07,-250.08 172.58,-276.93 201.5,-252 225.47,-231.33 232.06,-191.45 233.85,-173.35"/>
<polygon fill="#9a32cd" stroke="#9a32cd" points="49.83,-340.93 47.99,-351.36 55.94,-344.35 49.83,-340.93"/>
</a>
</g>
<text xml:space="preserve" text-anchor="start" x="120.5" y="-307.5" font-family="Helvetica,sans-Serif" font-size="10.00" fill="grey">free_heaps</text>
<text xml:space="preserve" text-anchor="start" x="120.5" y="-291.5" font-family="Helvetica,sans-Serif" font-size="10.00" fill="grey">heaps</text>
<text xml:space="preserve" text-anchor="start" x="120.5" y="-275.5" font-family="Helvetica,sans-Serif" font-size="10.00" fill="grey">sweeps</text>
</g>
<!-- Node22&#45;&gt;Node22 -->
<g id="edge41_Node000022_Node000022" class="edge">
<title>Node22&#45;&gt;Node22</title>
<g id="a_edge41_Node000022_Node000022"><a xlink:title=" ">
<path fill="none" stroke="#9a32cd" stroke-dasharray="5,2" d="M96.46,-370.28C100.51,-368.66 103,-366.23 103,-363 103,-357.41 95.55,-354.23 85.46,-353.44"/>
<polygon fill="#9a32cd" stroke="#9a32cd" points="96.03,-366.8 86.94,-372.25 97.44,-373.65 96.03,-366.8"/>
</a>
</g>
<text xml:space="preserve" text-anchor="start" x="106" y="-367.5" font-family="Helvetica,sans-Serif" font-size="10.00" fill="grey">free_next</text>
<text xml:space="preserve" text-anchor="start" x="106" y="-351.5" font-family="Helvetica,sans-Serif" font-size="10.00" fill="grey">next</text>
</g>
<!-- Node23 -->
<g id="Node000023" class="node">
<title>Node23</title>
<g id="a_Node000023"><a xlink:href="structRBasic.html" target="_top" xlink:title=" ">
<polygon fill="white" stroke="#bfbfbf" points="161.62,-469 113.38,-469 113.38,-449 161.62,-449 161.62,-469"/>
<text xml:space="preserve" text-anchor="middle" x="137.5" y="-455.5" font-family="Helvetica,sans-Serif" font-size="10.00">RBasic</text>
</a>
</g>
</g>
<!-- Node23&#45;&gt;Node21 -->
<g id="edge42_Node000021_Node000023" class="edge">
<title>Node23&#45;&gt;Node21</title>
<g id="a_edge42_Node000021_Node000023"><a xlink:title=" ">
<path fill="none" stroke="#9a32cd" stroke-dasharray="5,2" d="M144.13,-437.92C163.23,-380.02 217.91,-214.28 231.44,-173.27"/>
<polygon fill="#9a32cd" stroke="#9a32cd" points="140.9,-436.52 141.09,-447.11 147.55,-438.71 140.9,-436.52"/>
</a>
</g>
<text xml:space="preserve" text-anchor="start" x="179.36" y="-375.5" font-family="Helvetica,sans-Serif" font-size="10.00" fill="grey">arena</text>
<text xml:space="preserve" text-anchor="start" x="179.36" y="-359.5" font-family="Helvetica,sans-Serif" font-size="10.00" fill="grey">atomic_gray_list</text>
<text xml:space="preserve" text-anchor="start" x="179.36" y="-343.5" font-family="Helvetica,sans-Serif" font-size="10.00" fill="grey">gray_list</text>
</g>
<!-- Node23&#45;&gt;Node22 -->
<g id="edge40_Node000022_Node000023" class="edge">
<title>Node23&#45;&gt;Node22</title>
<g id="a_edge40_Node000022_Node000023"><a xlink:title=" ">
<path fill="none" stroke="#9a32cd" stroke-dasharray="5,2" d="M120.02,-440.7C99.95,-420.84 67.75,-388.99 51.92,-373.32"/>
<polygon fill="#9a32cd" stroke="#9a32cd" points="117.4,-443.03 126.97,-447.58 122.32,-438.06 117.4,-443.03"/>
</a>
</g>
<text xml:space="preserve" text-anchor="start" x="104.3" y="-411.5" font-family="Helvetica,sans-Serif" font-size="10.00" fill="grey">freelist</text>
</g>
<!-- Node24&#45;&gt;Node1 -->
<g id="edge43_Node000001_Node000024" class="edge">
<title>Node24&#45;&gt;Node1</title>
<g id="a_edge43_Node000001_Node000024"><a xlink:title=" ">
<path fill="none" stroke="#9a32cd" stroke-dasharray="5,2" d="M583.5,-141.09C583.5,-107.88 583.5,-44.38 583.5,-20.44"/>
<polygon fill="#9a32cd" stroke="#9a32cd" points="580,-141.04 583.5,-151.04 587,-141.04 580,-141.04"/>
</a>
</g>
<text xml:space="preserve" text-anchor="start" x="586.5" y="-43.5" font-family="Helvetica,sans-Serif" font-size="10.00" fill="grey">cache</text>
</g>
</g>
</svg>
