<?xml version="1.0" encoding="UTF-8" standalone="no"?>
<!DOCTYPE svg PUBLIC "-//W3C//DTD SVG 1.1//EN"
 "http://www.w3.org/Graphics/SVG/1.1/DTD/svg11.dtd">
<!-- Generated by graphviz version 14.0.5 (0)
 -->
<!-- Title: mrb_shared_array Pages: 1 -->
<svg width="102pt" height="176pt"
 viewBox="0.00 0.00 102.00 176.00" xmlns="http://www.w3.org/2000/svg" xmlns:xlink="http://www.w3.org/1999/xlink">
<g id="graph0" class="graph" transform="scale(1 1) rotate(0) translate(4 172)">
<title>mrb_shared_array</title>
<!-- Node1 -->
<g id="Node000001" class="node">
<title>Node1</title>
<g id="a_Node000001"><a xlink:title=" ">
<polygon fill="#999999" stroke="#666666" points="94,-20 0,-20 0,0 94,0 94,-20"/>
<text xml:space="preserve" text-anchor="middle" x="47" y="-6.5" font-family="Helvetica,sans-Serif" font-size="10.00">mrb_shared_array</text>
</a>
</g>
</g>
<!-- Node2 -->
<g id="Node000002" class="node">
<title>Node2</title>
<g id="a_Node000002"><a xlink:href="structmrb__value.html" target="_top" xlink:title=" ">
<polygon fill="white" stroke="#bfbfbf" points="77.5,-94 16.5,-94 16.5,-74 77.5,-74 77.5,-94"/>
<text xml:space="preserve" text-anchor="middle" x="47" y="-80.5" font-family="Helvetica,sans-Serif" font-size="10.00">mrb_value</text>
</a>
</g>
</g>
<!-- Node2&#45;&gt;Node1 -->
<g id="edge1_Node000001_Node000002" class="edge">
<title>Node2&#45;&gt;Node1</title>
<g id="a_edge1_Node000001_Node000002"><a xlink:title=" ">
<path fill="none" stroke="#9a32cd" stroke-dasharray="5,2" d="M47,-62.18C47,-48.29 47,-30.71 47,-20.19"/>
<polygon fill="#9a32cd" stroke="#9a32cd" points="43.5,-62.07 47,-72.07 50.5,-62.07 43.5,-62.07"/>
</a>
</g>
<text xml:space="preserve" text-anchor="start" x="50" y="-43.5" font-family="Helvetica,sans-Serif" font-size="10.00" fill="grey">ptr</text>
</g>
<!-- Node3 -->
<g id="Node000003" class="node">
<title>Node3</title>
<g id="a_Node000003"><a xlink:href="unionmrb__value__union.html" target="_top" xlink:title=" ">
<polygon fill="white" stroke="#bfbfbf" points="91.75,-168 2.25,-168 2.25,-148 91.75,-148 91.75,-168"/>
<text xml:space="preserve" text-anchor="middle" x="47" y="-154.5" font-family="Helvetica,sans-Serif" font-size="10.00">mrb_value_union</text>
</a>
</g>
</g>
<!-- Node3&#45;&gt;Node2 -->
<g id="edge2_Node000002_Node000003" class="edge">
<title>Node3&#45;&gt;Node2</title>
<g id="a_edge2_Node000002_Node000003"><a xlink:title=" ">
<path fill="none" stroke="#9a32cd" stroke-dasharray="5,2" d="M47,-136.18C47,-122.29 47,-104.71 47,-94.19"/>
<polygon fill="#9a32cd" stroke="#9a32cd" points="43.5,-136.07 47,-146.07 50.5,-136.07 43.5,-136.07"/>
</a>
</g>
<text xml:space="preserve" text-anchor="start" x="50" y="-117.5" font-family="Helvetica,sans-Serif" font-size="10.00" fill="grey">value</text>
</g>
</g>
</svg>
