<?xml version="1.0" encoding="UTF-8" standalone="no"?>
<!DOCTYPE svg PUBLIC "-//W3C//DTD SVG 1.1//EN"
 "http://www.w3.org/Graphics/SVG/1.1/DTD/svg11.dtd">
<!-- Generated by graphviz version 14.0.5 (0)
 -->
<!-- Title: nghttp2_hd_static_entry Pages: 1 -->
<svg width="166pt" height="118pt"
 viewBox="0.00 0.00 166.00 118.00" xmlns="http://www.w3.org/2000/svg" xmlns:xlink="http://www.w3.org/1999/xlink">
<g id="graph0" class="graph" transform="scale(1 1) rotate(0) translate(4 114)">
<title>nghttp2_hd_static_entry</title>
<!-- Node1 -->
<g id="Node000001" class="node">
<title>Node1</title>
<g id="a_Node000001"><a xlink:title=" ">
<polygon fill="#999999" stroke="#666666" points="141.75,-20 21.5,-20 21.5,0 141.75,0 141.75,-20"/>
<text xml:space="preserve" text-anchor="middle" x="81.62" y="-6.5" font-family="Helvetica,sans-Serif" font-size="10.00">nghttp2_hd_static_entry</text>
</a>
</g>
</g>
<!-- Node2 -->
<g id="Node000002" class="node">
<title>Node2</title>
<g id="a_Node000002"><a xlink:href="structnghttp2__rcbuf.html" target="_top" xlink:title=" ">
<polygon fill="white" stroke="#bfbfbf" points="75.25,-110 0,-110 0,-90 75.25,-90 75.25,-110"/>
<text xml:space="preserve" text-anchor="middle" x="37.62" y="-96.5" font-family="Helvetica,sans-Serif" font-size="10.00">nghttp2_rcbuf</text>
</a>
</g>
</g>
<!-- Node2&#45;&gt;Node1 -->
<g id="edge1_Node000001_Node000002" class="edge">
<title>Node2&#45;&gt;Node1</title>
<g id="a_edge1_Node000001_Node000002"><a xlink:title=" ">
<path fill="none" stroke="#9a32cd" stroke-dasharray="5,2" d="M47.42,-79.4C56.61,-61.02 69.96,-34.34 76.95,-20.35"/>
<polygon fill="#9a32cd" stroke="#9a32cd" points="44.35,-77.72 43.01,-88.23 50.61,-80.85 44.35,-77.72"/>
</a>
</g>
<text xml:space="preserve" text-anchor="start" x="70.39" y="-59.5" font-family="Helvetica,sans-Serif" font-size="10.00" fill="grey">name</text>
<text xml:space="preserve" text-anchor="start" x="70.39" y="-43.5" font-family="Helvetica,sans-Serif" font-size="10.00" fill="grey">value</text>
</g>
<!-- Node3 -->
<g id="Node000003" class="node">
<title>Node3</title>
<g id="a_Node000003"><a xlink:href="structnghttp2__nv.html" target="_top" xlink:title=" ">
<polygon fill="white" stroke="#666666" points="157.62,-110 93.62,-110 93.62,-90 157.62,-90 157.62,-110"/>
<text xml:space="preserve" text-anchor="middle" x="125.62" y="-96.5" font-family="Helvetica,sans-Serif" font-size="10.00">nghttp2_nv</text>
</a>
</g>
</g>
<!-- Node3&#45;&gt;Node1 -->
<g id="edge2_Node000001_Node000003" class="edge">
<title>Node3&#45;&gt;Node1</title>
<g id="a_edge2_Node000001_Node000003"><a xlink:title=" ">
<path fill="none" stroke="#9a32cd" stroke-dasharray="5,2" d="M119.17,-78.76C114.92,-66.59 108.83,-50.99 101.62,-38 98.12,-31.67 93.32,-25.14 89.3,-20.09"/>
<polygon fill="#9a32cd" stroke="#9a32cd" points="115.81,-79.75 122.29,-88.13 122.45,-77.53 115.81,-79.75"/>
</a>
</g>
<text xml:space="preserve" text-anchor="start" x="119.18" y="-51.5" font-family="Helvetica,sans-Serif" font-size="10.00" fill="grey">cnv</text>
</g>
</g>
</svg>
