<?xml version="1.0" encoding="UTF-8" standalone="no"?>
<!DOCTYPE svg PUBLIC "-//W3C//DTD SVG 1.1//EN"
 "http://www.w3.org/Graphics/SVG/1.1/DTD/svg11.dtd">
<!-- Generated by graphviz version 14.0.5 (0)
 -->
<!-- Title: mrb_debug_breakpoint Pages: 1 -->
<svg width="254pt" height="188pt"
 viewBox="0.00 0.00 254.00 188.00" xmlns="http://www.w3.org/2000/svg" xmlns:xlink="http://www.w3.org/1999/xlink">
<g id="graph0" class="graph" transform="scale(1 1) rotate(0) translate(4 184)">
<title>mrb_debug_breakpoint</title>
<!-- Node1 -->
<g id="Node000001" class="node">
<title>Node1</title>
<g id="a_Node000001"><a xlink:title=" ">
<polygon fill="#999999" stroke="#666666" points="175.75,-20 61.5,-20 61.5,0 175.75,0 175.75,-20"/>
<text xml:space="preserve" text-anchor="middle" x="118.62" y="-6.5" font-family="Helvetica,sans-Serif" font-size="10.00">mrb_debug_breakpoint</text>
</a>
</g>
</g>
<!-- Node2 -->
<g id="Node000002" class="node">
<title>Node2</title>
<g id="a_Node000002"><a xlink:href="unionmrb__debug__breakpoint_1_1point.html" target="_top" xlink:title=" ">
<polygon fill="white" stroke="#bfbfbf" points="175.75,-106 61.5,-106 61.5,-74 175.75,-74 175.75,-106"/>
<text xml:space="preserve" text-anchor="start" x="69.5" y="-92.5" font-family="Helvetica,sans-Serif" font-size="10.00">mrb_debug_breakpoint</text>
<text xml:space="preserve" text-anchor="middle" x="118.62" y="-80.5" font-family="Helvetica,sans-Serif" font-size="10.00">::point</text>
</a>
</g>
</g>
<!-- Node2&#45;&gt;Node1 -->
<g id="edge1_Node000001_Node000002" class="edge">
<title>Node2&#45;&gt;Node1</title>
<g id="a_edge1_Node000001_Node000002"><a xlink:title=" ">
<path fill="none" stroke="#9a32cd" stroke-dasharray="5,2" d="M118.62,-62.23C118.62,-47.77 118.62,-30.81 118.62,-20.49"/>
<polygon fill="#9a32cd" stroke="#9a32cd" points="115.13,-62.08 118.63,-72.08 122.13,-62.08 115.13,-62.08"/>
</a>
</g>
<text xml:space="preserve" text-anchor="start" x="121.62" y="-43.5" font-family="Helvetica,sans-Serif" font-size="10.00" fill="grey">point</text>
</g>
<!-- Node3 -->
<g id="Node000003" class="node">
<title>Node3</title>
<g id="a_Node000003"><a xlink:href="structmrb__debug__linepoint.html" target="_top" xlink:title=" ">
<polygon fill="white" stroke="#bfbfbf" points="105.25,-180 0,-180 0,-160 105.25,-160 105.25,-180"/>
<text xml:space="preserve" text-anchor="middle" x="52.62" y="-166.5" font-family="Helvetica,sans-Serif" font-size="10.00">mrb_debug_linepoint</text>
</a>
</g>
</g>
<!-- Node3&#45;&gt;Node2 -->
<g id="edge2_Node000002_Node000003" class="edge">
<title>Node3&#45;&gt;Node2</title>
<g id="a_edge2_Node000002_Node000003"><a xlink:title=" ">
<path fill="none" stroke="#9a32cd" stroke-dasharray="5,2" d="M67.6,-151.3C79.04,-137.78 94.65,-119.34 105.58,-106.42"/>
<polygon fill="#9a32cd" stroke="#9a32cd" points="65.22,-148.7 61.43,-158.59 70.56,-153.22 65.22,-148.7"/>
</a>
</g>
<text xml:space="preserve" text-anchor="start" x="92.58" y="-129.5" font-family="Helvetica,sans-Serif" font-size="10.00" fill="grey">linepoint</text>
</g>
<!-- Node4 -->
<g id="Node000004" class="node">
<title>Node4</title>
<g id="a_Node000004"><a xlink:href="structmrb__debug__methodpoint.html" target="_top" xlink:title=" ">
<polygon fill="white" stroke="#bfbfbf" points="245.88,-180 123.38,-180 123.38,-160 245.88,-160 245.88,-180"/>
<text xml:space="preserve" text-anchor="middle" x="184.62" y="-166.5" font-family="Helvetica,sans-Serif" font-size="10.00">mrb_debug_methodpoint</text>
</a>
</g>
</g>
<!-- Node4&#45;&gt;Node2 -->
<g id="edge3_Node000002_Node000004" class="edge">
<title>Node4&#45;&gt;Node2</title>
<g id="a_edge3_Node000002_Node000004"><a xlink:title=" ">
<path fill="none" stroke="#9a32cd" stroke-dasharray="5,2" d="M169.65,-151.3C158.21,-137.78 142.6,-119.34 131.67,-106.42"/>
<polygon fill="#9a32cd" stroke="#9a32cd" points="166.69,-153.22 175.82,-158.59 172.03,-148.7 166.69,-153.22"/>
</a>
</g>
<text xml:space="preserve" text-anchor="start" x="164.39" y="-129.5" font-family="Helvetica,sans-Serif" font-size="10.00" fill="grey">methodpoint</text>
</g>
</g>
</svg>
