<?xml version="1.0" encoding="UTF-8" standalone="no"?>
<!DOCTYPE svg PUBLIC "-//W3C//DTD SVG 1.1//EN"
 "http://www.w3.org/Graphics/SVG/1.1/DTD/svg11.dtd">
<!-- Generated by graphviz version 14.0.5 (0)
 -->
<!-- Title: RArray Pages: 1 -->
<svg width="169pt" height="264pt"
 viewBox="0.00 0.00 169.00 264.00" xmlns="http://www.w3.org/2000/svg" xmlns:xlink="http://www.w3.org/1999/xlink">
<g id="graph0" class="graph" transform="scale(1 1) rotate(0) translate(4 260)">
<title>RArray</title>
<!-- Node1 -->
<g id="Node000001" class="node">
<title>Node1</title>
<g id="a_Node000001"><a xlink:title=" ">
<polygon fill="#999999" stroke="#666666" points="68.12,-20 21.38,-20 21.38,0 68.12,0 68.12,-20"/>
<text xml:space="preserve" text-anchor="middle" x="44.75" y="-6.5" font-family="Helvetica,sans-Serif" font-size="10.00">RArray</text>
</a>
</g>
</g>
<!-- Node2 -->
<g id="Node000002" class="node">
<title>Node2</title>
<g id="a_Node000002"><a xlink:href="structmrb__shared__array.html" target="_top" xlink:title=" ">
<polygon fill="white" stroke="#bfbfbf" points="160.75,-101 66.75,-101 66.75,-81 160.75,-81 160.75,-101"/>
<text xml:space="preserve" text-anchor="middle" x="113.75" y="-87.5" font-family="Helvetica,sans-Serif" font-size="10.00">mrb_shared_array</text>
</a>
</g>
</g>
<!-- Node2&#45;&gt;Node1 -->
<g id="edge1_Node000001_Node000002" class="edge">
<title>Node2&#45;&gt;Node1</title>
<g id="a_edge1_Node000001_Node000002"><a xlink:title=" ">
<path fill="none" stroke="#9a32cd" stroke-dasharray="5,2" d="M98.11,-72.09C84.07,-56.02 64.02,-33.06 52.93,-20.36"/>
<polygon fill="#9a32cd" stroke="#9a32cd" points="95.35,-74.26 104.57,-79.49 100.63,-69.65 95.35,-74.26"/>
</a>
</g>
<text xml:space="preserve" text-anchor="start" x="86.38" y="-43.5" font-family="Helvetica,sans-Serif" font-size="10.00" fill="grey">shared</text>
</g>
<!-- Node3 -->
<g id="Node000003" class="node">
<title>Node3</title>
<g id="a_Node000003"><a xlink:href="structmrb__value.html" target="_top" xlink:title=" ">
<polygon fill="white" stroke="#bfbfbf" points="75.25,-182 14.25,-182 14.25,-162 75.25,-162 75.25,-182"/>
<text xml:space="preserve" text-anchor="middle" x="44.75" y="-168.5" font-family="Helvetica,sans-Serif" font-size="10.00">mrb_value</text>
</a>
</g>
</g>
<!-- Node3&#45;&gt;Node1 -->
<g id="edge4_Node000001_Node000003" class="edge">
<title>Node3&#45;&gt;Node1</title>
<g id="a_edge4_Node000001_Node000003"><a xlink:title=" ">
<path fill="none" stroke="#9a32cd" stroke-dasharray="5,2" d="M42.08,-150.37C40.63,-138.09 38.98,-122.18 38.25,-108 37.47,-92.91 37.47,-89.09 38.25,-74 39.23,-54.89 41.88,-32.66 43.48,-20.37"/>
<polygon fill="#9a32cd" stroke="#9a32cd" points="38.59,-150.64 43.29,-160.13 45.53,-149.77 38.59,-150.64"/>
</a>
</g>
<text xml:space="preserve" text-anchor="start" x="41.25" y="-95.5" font-family="Helvetica,sans-Serif" font-size="10.00" fill="grey">ary</text>
<text xml:space="preserve" text-anchor="start" x="41.25" y="-79.5" font-family="Helvetica,sans-Serif" font-size="10.00" fill="grey">ptr</text>
</g>
<!-- Node3&#45;&gt;Node2 -->
<g id="edge2_Node000002_Node000003" class="edge">
<title>Node3&#45;&gt;Node2</title>
<g id="a_edge2_Node000002_Node000003"><a xlink:title=" ">
<path fill="none" stroke="#9a32cd" stroke-dasharray="5,2" d="M60.39,-153.09C74.43,-137.02 94.48,-114.06 105.57,-101.36"/>
<polygon fill="#9a32cd" stroke="#9a32cd" points="57.87,-150.65 53.93,-160.49 63.15,-155.26 57.87,-150.65"/>
</a>
</g>
<text xml:space="preserve" text-anchor="start" x="86.38" y="-131.5" font-family="Helvetica,sans-Serif" font-size="10.00" fill="grey">ptr</text>
</g>
<!-- Node4 -->
<g id="Node000004" class="node">
<title>Node4</title>
<g id="a_Node000004"><a xlink:href="unionmrb__value__union.html" target="_top" xlink:title=" ">
<polygon fill="white" stroke="#bfbfbf" points="89.5,-256 0,-256 0,-236 89.5,-236 89.5,-256"/>
<text xml:space="preserve" text-anchor="middle" x="44.75" y="-242.5" font-family="Helvetica,sans-Serif" font-size="10.00">mrb_value_union</text>
</a>
</g>
</g>
<!-- Node4&#45;&gt;Node3 -->
<g id="edge3_Node000003_Node000004" class="edge">
<title>Node4&#45;&gt;Node3</title>
<g id="a_edge3_Node000003_Node000004"><a xlink:title=" ">
<path fill="none" stroke="#9a32cd" stroke-dasharray="5,2" d="M44.75,-224.18C44.75,-210.29 44.75,-192.71 44.75,-182.19"/>
<polygon fill="#9a32cd" stroke="#9a32cd" points="41.25,-224.07 44.75,-234.07 48.25,-224.07 41.25,-224.07"/>
</a>
</g>
<text xml:space="preserve" text-anchor="start" x="47.75" y="-205.5" font-family="Helvetica,sans-Serif" font-size="10.00" fill="grey">value</text>
</g>
</g>
</svg>
