<?xml version="1.0" encoding="UTF-8" standalone="no"?>
<!DOCTYPE svg PUBLIC "-//W3C//DTD SVG 1.1//EN"
 "http://www.w3.org/Graphics/SVG/1.1/DTD/svg11.dtd">
<!-- Generated by graphviz version 14.0.5 (0)
 -->
<!-- Title: nghttp2_inbound_frame Pages: 1 -->
<svg width="810pt" height="792pt"
 viewBox="0.00 0.00 810.00 792.00" xmlns="http://www.w3.org/2000/svg" xmlns:xlink="http://www.w3.org/1999/xlink">
<g id="graph0" class="graph" transform="scale(1 1) rotate(0) translate(4 788)">
<title>nghttp2_inbound_frame</title>
<!-- Node1 -->
<g id="Node000001" class="node">
<title>Node1</title>
<g id="a_Node000001"><a xlink:title=" ">
<polygon fill="#999999" stroke="#666666" points="802,-133 684.75,-133 684.75,-113 802,-113 802,-133"/>
<text xml:space="preserve" text-anchor="middle" x="743.38" y="-119.5" font-family="Helvetica,sans-Serif" font-size="10.00">nghttp2_inbound_frame</text>
</a>
</g>
</g>
<!-- Node2 -->
<g id="Node000002" class="node">
<title>Node2</title>
<g id="a_Node000002"><a xlink:href="unionnghttp2__frame.html" target="_top" xlink:title=" ">
<polygon fill="white" stroke="#666666" points="531.38,-399 453.12,-399 453.12,-379 531.38,-379 531.38,-399"/>
<text xml:space="preserve" text-anchor="middle" x="492.25" y="-385.5" font-family="Helvetica,sans-Serif" font-size="10.00">nghttp2_frame</text>
</a>
</g>
</g>
<!-- Node2&#45;&gt;Node1 -->
<g id="edge1_Node000001_Node000002" class="edge">
<title>Node2&#45;&gt;Node1</title>
<g id="a_edge1_Node000001_Node000002"><a xlink:title=" ">
<path fill="none" stroke="#9a32cd" stroke-dasharray="5,2" d="M510.81,-370.25C559.52,-318.25 695.2,-173.37 732.68,-133.36"/>
<polygon fill="#9a32cd" stroke="#9a32cd" points="508.33,-367.78 504.05,-377.47 513.44,-372.56 508.33,-367.78"/>
</a>
</g>
<text xml:space="preserve" text-anchor="start" x="610.12" y="-300.87" font-family="Helvetica,sans-Serif" font-size="10.00" fill="grey">frame</text>
</g>
<!-- Node3 -->
<g id="Node000003" class="node">
<title>Node3</title>
<g id="a_Node000003"><a xlink:href="structnghttp2__frame__hd.html" target="_top" xlink:title=" ">
<polygon fill="white" stroke="#666666" points="104.5,-420 10.5,-420 10.5,-400 104.5,-400 104.5,-420"/>
<text xml:space="preserve" text-anchor="middle" x="57.5" y="-406.5" font-family="Helvetica,sans-Serif" font-size="10.00">nghttp2_frame_hd</text>
</a>
</g>
</g>
<!-- Node3&#45;&gt;Node2 -->
<g id="edge2_Node000002_Node000003" class="edge">
<title>Node3&#45;&gt;Node2</title>
<g id="a_edge2_Node000002_Node000003"><a xlink:title=" ">
<path fill="none" stroke="#9a32cd" stroke-dasharray="5,2" d="M67.69,-389.5C85.59,-352.71 129.14,-277.32 193.75,-256 284.51,-226.05 327.7,-234.54 406.25,-289 442.58,-314.19 472.66,-358.63 485.1,-378.68"/>
<polygon fill="#9a32cd" stroke="#9a32cd" points="64.68,-387.67 63.6,-398.21 71.02,-390.64 64.68,-387.67"/>
</a>
</g>
<text xml:space="preserve" text-anchor="start" x="249" y="-261.5" font-family="Helvetica,sans-Serif" font-size="10.00" fill="grey">hd</text>
</g>
<!-- Node4 -->
<g id="Node000004" class="node">
<title>Node4</title>
<g id="a_Node000004"><a xlink:href="structnghttp2__data.html" target="_top" xlink:title=" ">
<polygon fill="white" stroke="#666666" points="290.38,-543 218.12,-543 218.12,-523 290.38,-523 290.38,-543"/>
<text xml:space="preserve" text-anchor="middle" x="254.25" y="-529.5" font-family="Helvetica,sans-Serif" font-size="10.00">nghttp2_data</text>
</a>
</g>
</g>
<!-- Node3&#45;&gt;Node4 -->
<g id="edge4_Node000004_Node000003" class="edge">
<title>Node3&#45;&gt;Node4</title>
<g id="a_edge4_Node000004_Node000003"><a xlink:title=" ">
<path fill="none" stroke="#9a32cd" stroke-dasharray="5,2" d="M70.85,-429.85C83.98,-449.39 106.49,-478.72 133,-496 158.8,-512.82 192.66,-522.34 217.87,-527.49"/>
<polygon fill="#9a32cd" stroke="#9a32cd" points="73.92,-428.15 65.54,-421.67 68.05,-431.96 73.92,-428.15"/>
</a>
</g>
<text xml:space="preserve" text-anchor="start" x="149.12" y="-520.75" font-family="Helvetica,sans-Serif" font-size="10.00" fill="grey">hd</text>
</g>
<!-- Node5 -->
<g id="Node000005" class="node">
<title>Node5</title>
<g id="a_Node000005"><a xlink:href="structnghttp2__headers.html" target="_top" xlink:title=" ">
<polygon fill="white" stroke="#666666" points="298.25,-686 210.25,-686 210.25,-666 298.25,-666 298.25,-686"/>
<text xml:space="preserve" text-anchor="middle" x="254.25" y="-672.5" font-family="Helvetica,sans-Serif" font-size="10.00">nghttp2_headers</text>
</a>
</g>
</g>
<!-- Node3&#45;&gt;Node5 -->
<g id="edge6_Node000005_Node000003" class="edge">
<title>Node3&#45;&gt;Node5</title>
<g id="a_edge6_Node000005_Node000003"><a xlink:title=" ">
<path fill="none" stroke="#9a32cd" stroke-dasharray="5,2" d="M59.54,-431.32C62.82,-475.26 76.46,-576.6 133,-634 139.25,-640.34 185.2,-655.32 218.44,-665.56"/>
<polygon fill="#9a32cd" stroke="#9a32cd" points="63.05,-431.35 58.93,-421.59 56.06,-431.79 63.05,-431.35"/>
</a>
</g>
<text xml:space="preserve" text-anchor="start" x="149.12" y="-656.37" font-family="Helvetica,sans-Serif" font-size="10.00" fill="grey">hd</text>
</g>
<!-- Node8 -->
<g id="Node000008" class="node">
<title>Node8</title>
<g id="a_Node000008"><a xlink:href="structnghttp2__priority.html" target="_top" xlink:title=" ">
<polygon fill="white" stroke="#bfbfbf" points="295.62,-502 212.88,-502 212.88,-482 295.62,-482 295.62,-502"/>
<text xml:space="preserve" text-anchor="middle" x="254.25" y="-488.5" font-family="Helvetica,sans-Serif" font-size="10.00">nghttp2_priority</text>
</a>
</g>
</g>
<!-- Node3&#45;&gt;Node8 -->
<g id="edge10_Node000008_Node000003" class="edge">
<title>Node3&#45;&gt;Node8</title>
<g id="a_edge10_Node000008_Node000003"><a xlink:title=" ">
<path fill="none" stroke="#9a32cd" stroke-dasharray="5,2" d="M80.5,-427.13C94.79,-437.57 114.21,-450.5 133,-459 158.44,-470.51 188.78,-478.8 212.62,-484.19"/>
<polygon fill="#9a32cd" stroke="#9a32cd" points="82.8,-424.48 72.7,-421.29 78.6,-430.09 82.8,-424.48"/>
</a>
</g>
<text xml:space="preserve" text-anchor="start" x="149.12" y="-479.79" font-family="Helvetica,sans-Serif" font-size="10.00" fill="grey">hd</text>
</g>
<!-- Node9 -->
<g id="Node000009" class="node">
<title>Node9</title>
<g id="a_Node000009"><a xlink:href="structnghttp2__rst__stream.html" target="_top" xlink:title=" ">
<polygon fill="white" stroke="#666666" points="304.25,-461 204.25,-461 204.25,-441 304.25,-441 304.25,-461"/>
<text xml:space="preserve" text-anchor="middle" x="254.25" y="-447.5" font-family="Helvetica,sans-Serif" font-size="10.00">nghttp2_rst_stream</text>
</a>
</g>
</g>
<!-- Node3&#45;&gt;Node9 -->
<g id="edge13_Node000009_Node000003" class="edge">
<title>Node3&#45;&gt;Node9</title>
<g id="a_edge13_Node000009_Node000003"><a xlink:title=" ">
<path fill="none" stroke="#9a32cd" stroke-dasharray="5,2" d="M108.41,-423.23C116.6,-425.26 125.02,-427.25 133,-429 156.22,-434.08 182.14,-438.92 203.95,-442.77"/>
<polygon fill="#9a32cd" stroke="#9a32cd" points="109.45,-419.89 98.9,-420.84 107.74,-426.67 109.45,-419.89"/>
</a>
</g>
<text xml:space="preserve" text-anchor="start" x="149.12" y="-442.52" font-family="Helvetica,sans-Serif" font-size="10.00" fill="grey">hd</text>
</g>
<!-- Node10 -->
<g id="Node000010" class="node">
<title>Node10</title>
<g id="a_Node000010"><a xlink:href="structnghttp2__settings.html" target="_top" xlink:title=" ">
<polygon fill="white" stroke="#666666" points="298.25,-211 210.25,-211 210.25,-191 298.25,-191 298.25,-211"/>
<text xml:space="preserve" text-anchor="middle" x="254.25" y="-197.5" font-family="Helvetica,sans-Serif" font-size="10.00">nghttp2_settings</text>
</a>
</g>
</g>
<!-- Node3&#45;&gt;Node10 -->
<g id="edge15_Node000010_Node000003" class="edge">
<title>Node3&#45;&gt;Node10</title>
<g id="a_edge15_Node000010_Node000003"><a xlink:title=" ">
<path fill="none" stroke="#9a32cd" stroke-dasharray="5,2" d="M59.75,-388.52C63.4,-347.44 77.63,-258.05 133,-215 154.49,-198.29 185.01,-194.91 209.92,-195.64"/>
<polygon fill="#9a32cd" stroke="#9a32cd" points="56.28,-388.08 59.03,-398.31 63.26,-388.6 56.28,-388.08"/>
</a>
</g>
<text xml:space="preserve" text-anchor="start" x="149.12" y="-220.5" font-family="Helvetica,sans-Serif" font-size="10.00" fill="grey">hd</text>
</g>
<!-- Node12 -->
<g id="Node000012" class="node">
<title>Node12</title>
<g id="a_Node000012"><a xlink:href="structnghttp2__push__promise.html" target="_top" xlink:title=" ">
<polygon fill="white" stroke="#666666" points="311.38,-584 197.12,-584 197.12,-564 311.38,-564 311.38,-584"/>
<text xml:space="preserve" text-anchor="middle" x="254.25" y="-570.5" font-family="Helvetica,sans-Serif" font-size="10.00">nghttp2_push_promise</text>
</a>
</g>
</g>
<!-- Node3&#45;&gt;Node12 -->
<g id="edge18_Node000012_Node000003" class="edge">
<title>Node3&#45;&gt;Node12</title>
<g id="a_edge18_Node000012_Node000003"><a xlink:title=" ">
<path fill="none" stroke="#9a32cd" stroke-dasharray="5,2" d="M65.31,-430.92C75.55,-459.1 97.57,-508.96 133,-537 151.24,-551.43 175.12,-560.26 196.78,-565.65"/>
<polygon fill="#9a32cd" stroke="#9a32cd" points="68.71,-430.03 62.14,-421.72 62.09,-432.32 68.71,-430.03"/>
</a>
</g>
<text xml:space="preserve" text-anchor="start" x="149.12" y="-564.69" font-family="Helvetica,sans-Serif" font-size="10.00" fill="grey">hd</text>
</g>
<!-- Node13 -->
<g id="Node000013" class="node">
<title>Node13</title>
<g id="a_Node000013"><a xlink:href="structnghttp2__ping.html" target="_top" xlink:title=" ">
<polygon fill="white" stroke="#666666" points="290,-420 218.5,-420 218.5,-400 290,-400 290,-420"/>
<text xml:space="preserve" text-anchor="middle" x="254.25" y="-406.5" font-family="Helvetica,sans-Serif" font-size="10.00">nghttp2_ping</text>
</a>
</g>
</g>
<!-- Node3&#45;&gt;Node13 -->
<g id="edge21_Node000013_Node000003" class="edge">
<title>Node3&#45;&gt;Node13</title>
<g id="a_edge21_Node000013_Node000003"><a xlink:title=" ">
<path fill="none" stroke="#9a32cd" stroke-dasharray="5,2" d="M116.02,-410C149.14,-410 189.69,-410 218.09,-410"/>
<polygon fill="#9a32cd" stroke="#9a32cd" points="116.17,-406.5 106.17,-410 116.17,-413.5 116.17,-406.5"/>
</a>
</g>
<text xml:space="preserve" text-anchor="start" x="149.12" y="-415.5" font-family="Helvetica,sans-Serif" font-size="10.00" fill="grey">hd</text>
</g>
<!-- Node14 -->
<g id="Node000014" class="node">
<title>Node14</title>
<g id="a_Node000014"><a xlink:href="structnghttp2__goaway.html" target="_top" xlink:title=" ">
<polygon fill="white" stroke="#666666" points="297.88,-379 210.62,-379 210.62,-359 297.88,-359 297.88,-379"/>
<text xml:space="preserve" text-anchor="middle" x="254.25" y="-365.5" font-family="Helvetica,sans-Serif" font-size="10.00">nghttp2_goaway</text>
</a>
</g>
</g>
<!-- Node3&#45;&gt;Node14 -->
<g id="edge23_Node000014_Node000003" class="edge">
<title>Node3&#45;&gt;Node14</title>
<g id="a_edge23_Node000014_Node000003"><a xlink:title=" ">
<path fill="none" stroke="#9a32cd" stroke-dasharray="5,2" d="M101.36,-396.31C111.65,-393.31 122.66,-390.33 133,-388 158.36,-382.28 187.11,-377.67 210.14,-374.42"/>
<polygon fill="#9a32cd" stroke="#9a32cd" points="100.56,-392.89 91.98,-399.11 102.56,-399.6 100.56,-392.89"/>
</a>
</g>
<text xml:space="preserve" text-anchor="start" x="149.12" y="-393.5" font-family="Helvetica,sans-Serif" font-size="10.00" fill="grey">hd</text>
</g>
<!-- Node15 -->
<g id="Node000015" class="node">
<title>Node15</title>
<g id="a_Node000015"><a xlink:href="structnghttp2__window__update.html" target="_top" xlink:title=" ">
<polygon fill="white" stroke="#666666" points="314.75,-341 193.75,-341 193.75,-321 314.75,-321 314.75,-341"/>
<text xml:space="preserve" text-anchor="middle" x="254.25" y="-327.5" font-family="Helvetica,sans-Serif" font-size="10.00">nghttp2_window_update</text>
</a>
</g>
</g>
<!-- Node3&#45;&gt;Node15 -->
<g id="edge25_Node000015_Node000003" class="edge">
<title>Node3&#45;&gt;Node15</title>
<g id="a_edge25_Node000015_Node000003"><a xlink:title=" ">
<path fill="none" stroke="#9a32cd" stroke-dasharray="5,2" d="M78.76,-392.59C93.04,-381.16 113.11,-366.77 133,-358 151.89,-349.67 173.63,-343.79 193.38,-339.69"/>
<polygon fill="#9a32cd" stroke="#9a32cd" points="76.93,-389.56 71.43,-398.62 81.38,-394.97 76.93,-389.56"/>
</a>
</g>
<text xml:space="preserve" text-anchor="start" x="149.12" y="-363.5" font-family="Helvetica,sans-Serif" font-size="10.00" fill="grey">hd</text>
</g>
<!-- Node16 -->
<g id="Node000016" class="node">
<title>Node16</title>
<g id="a_Node000016"><a xlink:href="structnghttp2__extension.html" target="_top" xlink:title=" ">
<polygon fill="white" stroke="#666666" points="302,-303 206.5,-303 206.5,-283 302,-283 302,-303"/>
<text xml:space="preserve" text-anchor="middle" x="254.25" y="-289.5" font-family="Helvetica,sans-Serif" font-size="10.00">nghttp2_extension</text>
</a>
</g>
</g>
<!-- Node3&#45;&gt;Node16 -->
<g id="edge27_Node000016_Node000003" class="edge">
<title>Node3&#45;&gt;Node16</title>
<g id="a_edge27_Node000016_Node000003"><a xlink:title=" ">
<path fill="none" stroke="#9a32cd" stroke-dasharray="5,2" d="M70.12,-389.97C82.92,-369.7 105.41,-339.01 133,-322 154.94,-308.48 182.73,-301.26 206.07,-297.41"/>
<polygon fill="#9a32cd" stroke="#9a32cd" points="67.16,-388.08 64.96,-398.45 73.14,-391.72 67.16,-388.08"/>
</a>
</g>
<text xml:space="preserve" text-anchor="start" x="149.12" y="-327.5" font-family="Helvetica,sans-Serif" font-size="10.00" fill="grey">hd</text>
</g>
<!-- Node4&#45;&gt;Node2 -->
<g id="edge3_Node000002_Node000004" class="edge">
<title>Node4&#45;&gt;Node2</title>
<g id="a_edge3_Node000002_Node000004"><a xlink:title=" ">
<path fill="none" stroke="#9a32cd" stroke-dasharray="5,2" d="M301.73,-533.53C333.37,-531.88 375,-525.58 406.25,-506 449.01,-479.21 477.03,-422.36 487.09,-399.17"/>
<polygon fill="#9a32cd" stroke="#9a32cd" points="301.94,-530.02 292.08,-533.89 302.2,-537.02 301.94,-530.02"/>
</a>
</g>
<text xml:space="preserve" text-anchor="start" x="360.12" y="-535.49" font-family="Helvetica,sans-Serif" font-size="10.00" fill="grey">data</text>
</g>
<!-- Node5&#45;&gt;Node2 -->
<g id="edge5_Node000002_Node000005" class="edge">
<title>Node5&#45;&gt;Node2</title>
<g id="a_edge5_Node000002_Node000005"><a xlink:title=" ">
<path fill="none" stroke="#9a32cd" stroke-dasharray="5,2" d="M301.64,-661.77C334.65,-649.54 378,-628.93 406.25,-598 462.52,-536.39 484,-432.62 489.62,-399.49"/>
<polygon fill="#9a32cd" stroke="#9a32cd" points="300.55,-658.44 292.3,-665.09 302.89,-665.03 300.55,-658.44"/>
</a>
</g>
<text xml:space="preserve" text-anchor="start" x="352.25" y="-653.17" font-family="Helvetica,sans-Serif" font-size="10.00" fill="grey">headers</text>
</g>
<!-- Node6 -->
<g id="Node000006" class="node">
<title>Node6</title>
<g id="a_Node000006"><a xlink:href="structnghttp2__priority__spec.html" target="_top" xlink:title=" ">
<polygon fill="white" stroke="#bfbfbf" points="112,-666 3,-666 3,-646 112,-646 112,-666"/>
<text xml:space="preserve" text-anchor="middle" x="57.5" y="-652.5" font-family="Helvetica,sans-Serif" font-size="10.00">nghttp2_priority_spec</text>
</a>
</g>
</g>
<!-- Node6&#45;&gt;Node5 -->
<g id="edge7_Node000005_Node000006" class="edge">
<title>Node6&#45;&gt;Node5</title>
<g id="a_edge7_Node000005_Node000006"><a xlink:title=" ">
<path fill="none" stroke="#9a32cd" stroke-dasharray="5,2" d="M103.34,-669.29C113.04,-671.64 123.3,-673.74 133,-675 158.36,-678.29 186.99,-678.66 209.94,-678.15"/>
<polygon fill="#9a32cd" stroke="#9a32cd" points="104.31,-665.93 93.75,-666.83 102.57,-672.71 104.31,-665.93"/>
</a>
</g>
<text xml:space="preserve" text-anchor="start" x="136" y="-683.5" font-family="Helvetica,sans-Serif" font-size="10.00" fill="grey">pri_spec</text>
</g>
<!-- Node6&#45;&gt;Node8 -->
<g id="edge11_Node000008_Node000006" class="edge">
<title>Node6&#45;&gt;Node8</title>
<g id="a_edge11_Node000008_Node000006"><a xlink:title=" ">
<path fill="none" stroke="#9a32cd" stroke-dasharray="5,2" d="M87.94,-640.2C122.64,-621.58 175.66,-593.12 175.75,-593 197.57,-564.35 170,-541.07 193.75,-514 198.76,-508.29 205.4,-504.06 212.41,-500.92"/>
<polygon fill="#9a32cd" stroke="#9a32cd" points="86.33,-637.1 79.17,-644.91 89.64,-643.26 86.33,-637.1"/>
</a>
</g>
<text xml:space="preserve" text-anchor="start" x="136" y="-620.76" font-family="Helvetica,sans-Serif" font-size="10.00" fill="grey">pri_spec</text>
</g>
<!-- Node7 -->
<g id="Node000007" class="node">
<title>Node7</title>
<g id="a_Node000007"><a xlink:href="structnghttp2__nv.html" target="_top" xlink:title=" ">
<polygon fill="white" stroke="#666666" points="89.5,-768 25.5,-768 25.5,-748 89.5,-748 89.5,-768"/>
<text xml:space="preserve" text-anchor="middle" x="57.5" y="-754.5" font-family="Helvetica,sans-Serif" font-size="10.00">nghttp2_nv</text>
</a>
</g>
</g>
<!-- Node7&#45;&gt;Node5 -->
<g id="edge8_Node000005_Node000007" class="edge">
<title>Node7&#45;&gt;Node5</title>
<g id="a_edge8_Node000005_Node000007"><a xlink:title=" ">
<path fill="none" stroke="#9a32cd" stroke-dasharray="5,2" d="M101.13,-765.44C124.13,-767.57 152.49,-767.05 175.75,-757 209.69,-742.33 235.94,-704.82 247.22,-686.45"/>
<polygon fill="#9a32cd" stroke="#9a32cd" points="101.82,-762 91.48,-764.34 101.02,-768.95 101.82,-762"/>
</a>
</g>
<text xml:space="preserve" text-anchor="start" x="146.5" y="-771.5" font-family="Helvetica,sans-Serif" font-size="10.00" fill="grey">nva</text>
</g>
<!-- Node7&#45;&gt;Node12 -->
<g id="edge19_Node000012_Node000007" class="edge">
<title>Node7&#45;&gt;Node12</title>
<g id="a_edge19_Node000012_Node000007"><a xlink:title=" ">
<path fill="none" stroke="#9a32cd" stroke-dasharray="5,2" d="M100.44,-745.55C125.11,-736.39 155.37,-721.7 175.75,-700 189.93,-684.9 183.65,-675.09 193.75,-657 209.22,-629.29 232.15,-599.75 244.54,-584.49"/>
<polygon fill="#9a32cd" stroke="#9a32cd" points="99.6,-742.14 91.33,-748.76 101.93,-748.74 99.6,-742.14"/>
</a>
</g>
<text xml:space="preserve" text-anchor="start" x="146.5" y="-735.05" font-family="Helvetica,sans-Serif" font-size="10.00" fill="grey">nva</text>
</g>
<!-- Node8&#45;&gt;Node2 -->
<g id="edge9_Node000002_Node000008" class="edge">
<title>Node8&#45;&gt;Node2</title>
<g id="a_edge9_Node000002_Node000008"><a xlink:title=" ">
<path fill="none" stroke="#9a32cd" stroke-dasharray="5,2" d="M306.96,-488.32C337.14,-484.59 375.24,-477.09 406.25,-462 438.43,-446.34 468.26,-415.48 482.5,-399.36"/>
<polygon fill="#9a32cd" stroke="#9a32cd" points="306.87,-484.8 297.32,-489.4 307.65,-491.76 306.87,-484.8"/>
</a>
</g>
<text xml:space="preserve" text-anchor="start" x="354.88" y="-489.61" font-family="Helvetica,sans-Serif" font-size="10.00" fill="grey">priority</text>
</g>
<!-- Node9&#45;&gt;Node2 -->
<g id="edge12_Node000002_Node000009" class="edge">
<title>Node9&#45;&gt;Node2</title>
<g id="a_edge12_Node000002_Node000009"><a xlink:title=" ">
<path fill="none" stroke="#9a32cd" stroke-dasharray="5,2" d="M315.72,-443.84C343.62,-439.71 376.97,-433.59 406.25,-425 428.85,-418.36 453.53,-407.48 470.44,-399.41"/>
<polygon fill="#9a32cd" stroke="#9a32cd" points="315.43,-440.34 306.02,-445.22 316.42,-447.27 315.43,-440.34"/>
</a>
</g>
<text xml:space="preserve" text-anchor="start" x="346.25" y="-446" font-family="Helvetica,sans-Serif" font-size="10.00" fill="grey">rst_stream</text>
</g>
<!-- Node10&#45;&gt;Node2 -->
<g id="edge14_Node000002_Node000010" class="edge">
<title>Node10&#45;&gt;Node2</title>
<g id="a_edge14_Node000002_Node000010"><a xlink:title=" ">
<path fill="none" stroke="#9a32cd" stroke-dasharray="5,2" d="M309.86,-193.64C340.69,-192.34 378.49,-195.83 406.25,-215 464.9,-255.5 484.7,-348.25 489.78,-378.94"/>
<polygon fill="#9a32cd" stroke="#9a32cd" points="309.69,-190.14 299.93,-194.26 310.13,-197.13 309.69,-190.14"/>
</a>
</g>
<text xml:space="preserve" text-anchor="start" x="352.25" y="-220.5" font-family="Helvetica,sans-Serif" font-size="10.00" fill="grey">settings</text>
</g>
<!-- Node11 -->
<g id="Node000011" class="node">
<title>Node11</title>
<g id="a_Node000011"><a xlink:href="structnghttp2__settings__entry.html" target="_top" xlink:title=" ">
<polygon fill="white" stroke="#666666" points="115,-167 0,-167 0,-147 115,-147 115,-167"/>
<text xml:space="preserve" text-anchor="middle" x="57.5" y="-153.5" font-family="Helvetica,sans-Serif" font-size="10.00">nghttp2_settings_entry</text>
</a>
</g>
</g>
<!-- Node11&#45;&gt;Node1 -->
<g id="edge33_Node000001_Node000011" class="edge">
<title>Node11&#45;&gt;Node1</title>
<g id="a_edge33_Node000001_Node000011"><a xlink:title=" ">
<path fill="none" stroke="#9a32cd" stroke-dasharray="5,2" d="M126.68,-153.61C261.19,-146.92 558.58,-132.14 684.38,-125.88"/>
<polygon fill="#9a32cd" stroke="#9a32cd" points="126.66,-150.11 116.85,-154.1 127.01,-157.1 126.66,-150.11"/>
</a>
</g>
<text xml:space="preserve" text-anchor="start" x="365.75" y="-148.62" font-family="Helvetica,sans-Serif" font-size="10.00" fill="grey">iv</text>
</g>
<!-- Node11&#45;&gt;Node10 -->
<g id="edge16_Node000010_Node000011" class="edge">
<title>Node11&#45;&gt;Node10</title>
<g id="a_edge16_Node000010_Node000011"><a xlink:title=" ">
<path fill="none" stroke="#9a32cd" stroke-dasharray="5,2" d="M126.37,-164.59C142.66,-167.03 159.92,-170.13 175.75,-174 193.33,-178.29 212.54,-184.97 227.44,-190.61"/>
<polygon fill="#9a32cd" stroke="#9a32cd" points="127.17,-161.17 116.78,-163.22 126.18,-168.1 127.17,-161.17"/>
</a>
</g>
<text xml:space="preserve" text-anchor="start" x="150.62" y="-179.5" font-family="Helvetica,sans-Serif" font-size="10.00" fill="grey">iv</text>
</g>
<!-- Node12&#45;&gt;Node2 -->
<g id="edge17_Node000002_Node000012" class="edge">
<title>Node12&#45;&gt;Node2</title>
<g id="a_edge17_Node000002_Node000012"><a xlink:title=" ">
<path fill="none" stroke="#9a32cd" stroke-dasharray="5,2" d="M323.16,-577.17C351.1,-575.34 382.42,-568.92 406.25,-552 460.9,-513.2 483.09,-428.37 489.3,-399.14"/>
<polygon fill="#9a32cd" stroke="#9a32cd" points="323.17,-573.67 313.34,-577.61 323.49,-580.66 323.17,-573.67"/>
</a>
</g>
<text xml:space="preserve" text-anchor="start" x="339.12" y="-581.82" font-family="Helvetica,sans-Serif" font-size="10.00" fill="grey">push_promise</text>
</g>
<!-- Node13&#45;&gt;Node2 -->
<g id="edge20_Node000002_Node000013" class="edge">
<title>Node13&#45;&gt;Node2</title>
<g id="a_edge20_Node000002_Node000013"><a xlink:title=" ">
<path fill="none" stroke="#9a32cd" stroke-dasharray="5,2" d="M301.62,-405.87C345.8,-401.94 411.52,-396.09 452.84,-392.42"/>
<polygon fill="#9a32cd" stroke="#9a32cd" points="301.48,-402.37 291.83,-406.74 302.11,-409.34 301.48,-402.37"/>
</a>
</g>
<text xml:space="preserve" text-anchor="start" x="360.5" y="-408.11" font-family="Helvetica,sans-Serif" font-size="10.00" fill="grey">ping</text>
</g>
<!-- Node14&#45;&gt;Node2 -->
<g id="edge22_Node000002_Node000014" class="edge">
<title>Node14&#45;&gt;Node2</title>
<g id="a_edge22_Node000002_Node000014"><a xlink:title=" ">
<path fill="none" stroke="#9a32cd" stroke-dasharray="5,2" d="M309.82,-366.57C338.59,-365.99 374.43,-366.38 406.25,-370 421.72,-371.76 438.51,-375.18 453.04,-378.64"/>
<polygon fill="#9a32cd" stroke="#9a32cd" points="309.78,-363.07 299.87,-366.82 309.95,-370.06 309.78,-363.07"/>
</a>
</g>
<text xml:space="preserve" text-anchor="start" x="352.62" y="-375.5" font-family="Helvetica,sans-Serif" font-size="10.00" fill="grey">goaway</text>
</g>
<!-- Node15&#45;&gt;Node2 -->
<g id="edge24_Node000002_Node000015" class="edge">
<title>Node15&#45;&gt;Node2</title>
<g id="a_edge24_Node000002_Node000015"><a xlink:title=" ">
<path fill="none" stroke="#9a32cd" stroke-dasharray="5,2" d="M326.56,-331.29C352.11,-332.91 380.86,-336.52 406.25,-344 432.36,-351.69 459.68,-367.83 476.08,-378.54"/>
<polygon fill="#9a32cd" stroke="#9a32cd" points="326.75,-327.79 316.58,-330.76 326.38,-334.78 326.75,-327.79"/>
</a>
</g>
<text xml:space="preserve" text-anchor="start" x="335.75" y="-349.5" font-family="Helvetica,sans-Serif" font-size="10.00" fill="grey">window_update</text>
</g>
<!-- Node16&#45;&gt;Node2 -->
<g id="edge26_Node000002_Node000016" class="edge">
<title>Node16&#45;&gt;Node2</title>
<g id="a_edge26_Node000002_Node000016"><a xlink:title=" ">
<path fill="none" stroke="#9a32cd" stroke-dasharray="5,2" d="M313.42,-291.11C342.47,-292.22 377.47,-296.78 406.25,-310 440.67,-325.81 470.38,-361 483.73,-378.58"/>
<polygon fill="#9a32cd" stroke="#9a32cd" points="313.78,-287.62 303.7,-290.87 313.61,-294.62 313.78,-287.62"/>
</a>
</g>
<text xml:space="preserve" text-anchor="start" x="362.75" y="-315.5" font-family="Helvetica,sans-Serif" font-size="10.00" fill="grey">ext</text>
</g>
<!-- Node17 -->
<g id="Node000017" class="node">
<title>Node17</title>
<g id="a_Node000017"><a xlink:href="unionnghttp2__ext__frame__payload.html" target="_top" xlink:title=" ">
<polygon fill="white" stroke="#bfbfbf" points="560.25,-103 424.25,-103 424.25,-83 560.25,-83 560.25,-103"/>
<text xml:space="preserve" text-anchor="middle" x="492.25" y="-89.5" font-family="Helvetica,sans-Serif" font-size="10.00">nghttp2_ext_frame_payload</text>
</a>
</g>
</g>
<!-- Node17&#45;&gt;Node1 -->
<g id="edge28_Node000001_Node000017" class="edge">
<title>Node17&#45;&gt;Node1</title>
<g id="a_edge28_Node000001_Node000017"><a xlink:title=" ">
<path fill="none" stroke="#9a32cd" stroke-dasharray="5,2" d="M571.79,-97.96C601.61,-100.32 635.83,-103.61 666.75,-108 675.5,-109.24 684.76,-110.84 693.69,-112.53"/>
<polygon fill="#9a32cd" stroke="#9a32cd" points="572.34,-94.49 562.1,-97.21 571.81,-101.47 572.34,-94.49"/>
</a>
</g>
<text xml:space="preserve" text-anchor="start" x="581.25" y="-113.5" font-family="Helvetica,sans-Serif" font-size="10.00" fill="grey">ext_frame_payload</text>
</g>
<!-- Node18 -->
<g id="Node000018" class="node">
<title>Node18</title>
<g id="a_Node000018"><a xlink:href="structnghttp2__ext__altsvc.html" target="_top" xlink:title=" ">
<polygon fill="white" stroke="#666666" points="303.5,-109 205,-109 205,-89 303.5,-89 303.5,-109"/>
<text xml:space="preserve" text-anchor="middle" x="254.25" y="-95.5" font-family="Helvetica,sans-Serif" font-size="10.00">nghttp2_ext_altsvc</text>
</a>
</g>
</g>
<!-- Node18&#45;&gt;Node17 -->
<g id="edge29_Node000017_Node000018" class="edge">
<title>Node18&#45;&gt;Node17</title>
<g id="a_edge29_Node000017_Node000018"><a xlink:title=" ">
<path fill="none" stroke="#9a32cd" stroke-dasharray="5,2" d="M315.22,-97.48C348.37,-96.63 389.66,-95.58 423.91,-94.71"/>
<polygon fill="#9a32cd" stroke="#9a32cd" points="315.28,-93.97 305.38,-97.73 315.46,-100.97 315.28,-93.97"/>
</a>
</g>
<text xml:space="preserve" text-anchor="start" x="356.38" y="-102.39" font-family="Helvetica,sans-Serif" font-size="10.00" fill="grey">altsvc</text>
</g>
<!-- Node19 -->
<g id="Node000019" class="node">
<title>Node19</title>
<g id="a_Node000019"><a xlink:href="structnghttp2__ext__origin.html" target="_top" xlink:title=" ">
<polygon fill="white" stroke="#666666" points="302,-70 206.5,-70 206.5,-50 302,-50 302,-70"/>
<text xml:space="preserve" text-anchor="middle" x="254.25" y="-56.5" font-family="Helvetica,sans-Serif" font-size="10.00">nghttp2_ext_origin</text>
</a>
</g>
</g>
<!-- Node19&#45;&gt;Node17 -->
<g id="edge30_Node000017_Node000019" class="edge">
<title>Node19&#45;&gt;Node17</title>
<g id="a_edge30_Node000017_Node000019"><a xlink:title=" ">
<path fill="none" stroke="#9a32cd" stroke-dasharray="5,2" d="M313.65,-63.04C341.76,-65.01 375.88,-68.15 406.25,-73 421.37,-75.42 437.79,-79.04 452.13,-82.54"/>
<polygon fill="#9a32cd" stroke="#9a32cd" points="314.12,-59.57 303.91,-62.39 313.65,-66.55 314.12,-59.57"/>
</a>
</g>
<text xml:space="preserve" text-anchor="start" x="357.88" y="-78.5" font-family="Helvetica,sans-Serif" font-size="10.00" fill="grey">origin</text>
</g>
<!-- Node20 -->
<g id="Node000020" class="node">
<title>Node20</title>
<g id="a_Node000020"><a xlink:href="structnghttp2__origin__entry.html" target="_top" xlink:title=" ">
<polygon fill="white" stroke="#666666" points="109.38,-70 5.62,-70 5.62,-50 109.38,-50 109.38,-70"/>
<text xml:space="preserve" text-anchor="middle" x="57.5" y="-56.5" font-family="Helvetica,sans-Serif" font-size="10.00">nghttp2_origin_entry</text>
</a>
</g>
</g>
<!-- Node20&#45;&gt;Node19 -->
<g id="edge31_Node000019_Node000020" class="edge">
<title>Node20&#45;&gt;Node19</title>
<g id="a_edge31_Node000019_Node000020"><a xlink:title=" ">
<path fill="none" stroke="#9a32cd" stroke-dasharray="5,2" d="M120.82,-60C148.47,-60 180.48,-60 206.09,-60"/>
<polygon fill="#9a32cd" stroke="#9a32cd" points="121.18,-56.5 111.18,-60 121.18,-63.5 121.18,-56.5"/>
</a>
</g>
<text xml:space="preserve" text-anchor="start" x="149.12" y="-65.5" font-family="Helvetica,sans-Serif" font-size="10.00" fill="grey">ov</text>
</g>
<!-- Node21 -->
<g id="Node000021" class="node">
<title>Node21</title>
<g id="a_Node000021"><a xlink:href="structnghttp2__ext__priority__update.html" target="_top" xlink:title=" ">
<polygon fill="white" stroke="#666666" points="305,-32 203.5,-32 203.5,0 305,0 305,-32"/>
<text xml:space="preserve" text-anchor="start" x="211.5" y="-18.5" font-family="Helvetica,sans-Serif" font-size="10.00">nghttp2_ext_priority</text>
<text xml:space="preserve" text-anchor="middle" x="254.25" y="-6.5" font-family="Helvetica,sans-Serif" font-size="10.00">_update</text>
</a>
</g>
</g>
<!-- Node21&#45;&gt;Node17 -->
<g id="edge32_Node000017_Node000021" class="edge">
<title>Node21&#45;&gt;Node17</title>
<g id="a_edge32_Node000017_Node000021"><a xlink:title=" ">
<path fill="none" stroke="#9a32cd" stroke-dasharray="5,2" d="M316.64,-16.28C345.75,-18.97 379.84,-26.03 406.25,-43 418.07,-50.6 413.1,-60.44 424.25,-69 431.7,-74.72 440.63,-79.16 449.51,-82.57"/>
<polygon fill="#9a32cd" stroke="#9a32cd" points="317.08,-12.8 306.85,-15.54 316.56,-19.78 317.08,-12.8"/>
</a>
</g>
<text xml:space="preserve" text-anchor="start" x="337.62" y="-48.5" font-family="Helvetica,sans-Serif" font-size="10.00" fill="grey">priority_update</text>
</g>
<!-- Node22 -->
<g id="Node000022" class="node">
<title>Node22</title>
<g id="a_Node000022"><a xlink:href="structnghttp2__buf.html" target="_top" xlink:title=" ">
<polygon fill="white" stroke="#bfbfbf" points="525.75,-60 458.75,-60 458.75,-40 525.75,-40 525.75,-60"/>
<text xml:space="preserve" text-anchor="middle" x="492.25" y="-46.5" font-family="Helvetica,sans-Serif" font-size="10.00">nghttp2_buf</text>
</a>
</g>
</g>
<!-- Node22&#45;&gt;Node1 -->
<g id="edge34_Node000001_Node000022" class="edge">
<title>Node22&#45;&gt;Node1</title>
<g id="a_edge34_Node000001_Node000022"><a xlink:title=" ">
<path fill="none" stroke="#9a32cd" stroke-dasharray="5,2" d="M537.32,-45.5C573.39,-43.51 625.06,-44.59 666.75,-61 695.19,-72.19 721.02,-98.3 733.86,-112.81"/>
<polygon fill="#9a32cd" stroke="#9a32cd" points="537.45,-41.99 527.7,-46.14 537.91,-48.97 537.45,-41.99"/>
</a>
</g>
<text xml:space="preserve" text-anchor="start" x="613.12" y="-82.5" font-family="Helvetica,sans-Serif" font-size="10.00" fill="grey">lbuf</text>
<text xml:space="preserve" text-anchor="start" x="613.12" y="-66.5" font-family="Helvetica,sans-Serif" font-size="10.00" fill="grey">sbuf</text>
</g>
</g>
</svg>
