<?xml version="1.0" encoding="UTF-8" standalone="no"?>
<!DOCTYPE svg PUBLIC "-//W3C//DTD SVG 1.1//EN"
 "http://www.w3.org/Graphics/SVG/1.1/DTD/svg11.dtd">
<!-- Generated by graphviz version 14.0.5 (0)
 -->
<!-- Title: nghttp2_hd_context Pages: 1 -->
<svg width="236pt" height="340pt"
 viewBox="0.00 0.00 236.00 340.00" xmlns="http://www.w3.org/2000/svg" xmlns:xlink="http://www.w3.org/1999/xlink">
<g id="graph0" class="graph" transform="scale(1 1) rotate(0) translate(4 336)">
<title>nghttp2_hd_context</title>
<!-- Node1 -->
<g id="Node000001" class="node">
<title>Node1</title>
<g id="a_Node000001"><a xlink:title=" ">
<polygon fill="#999999" stroke="#666666" points="188.62,-20 87.12,-20 87.12,0 188.62,0 188.62,-20"/>
<text xml:space="preserve" text-anchor="middle" x="137.88" y="-6.5" font-family="Helvetica,sans-Serif" font-size="10.00">nghttp2_hd_context</text>
</a>
</g>
</g>
<!-- Node2 -->
<g id="Node000002" class="node">
<title>Node2</title>
<g id="a_Node000002"><a xlink:href="structnghttp2__hd__ringbuf.html" target="_top" xlink:title=" ">
<polygon fill="white" stroke="#bfbfbf" points="134.12,-94 35.62,-94 35.62,-74 134.12,-74 134.12,-94"/>
<text xml:space="preserve" text-anchor="middle" x="84.88" y="-80.5" font-family="Helvetica,sans-Serif" font-size="10.00">nghttp2_hd_ringbuf</text>
</a>
</g>
</g>
<!-- Node2&#45;&gt;Node1 -->
<g id="edge1_Node000001_Node000002" class="edge">
<title>Node2&#45;&gt;Node1</title>
<g id="a_edge1_Node000001_Node000002"><a xlink:title=" ">
<path fill="none" stroke="#9a32cd" stroke-dasharray="5,2" d="M94.84,-63.49C99.37,-55.31 105.07,-45.89 111.12,-38 115.94,-31.72 122.12,-25.39 127.33,-20.44"/>
<polygon fill="#9a32cd" stroke="#9a32cd" points="91.78,-61.8 90.17,-72.27 97.96,-65.08 91.78,-61.8"/>
</a>
</g>
<text xml:space="preserve" text-anchor="start" x="114.12" y="-43.5" font-family="Helvetica,sans-Serif" font-size="10.00" fill="grey">hd_table</text>
</g>
<!-- Node3 -->
<g id="Node000003" class="node">
<title>Node3</title>
<g id="a_Node000003"><a xlink:href="structnghttp2__hd__entry.html" target="_top" xlink:title=" ">
<polygon fill="white" stroke="#bfbfbf" points="130.38,-168 39.38,-168 39.38,-148 130.38,-148 130.38,-168"/>
<text xml:space="preserve" text-anchor="middle" x="84.88" y="-154.5" font-family="Helvetica,sans-Serif" font-size="10.00">nghttp2_hd_entry</text>
</a>
</g>
</g>
<!-- Node3&#45;&gt;Node2 -->
<g id="edge2_Node000002_Node000003" class="edge">
<title>Node3&#45;&gt;Node2</title>
<g id="a_edge2_Node000002_Node000003"><a xlink:title=" ">
<path fill="none" stroke="#9a32cd" stroke-dasharray="5,2" d="M84.88,-136.18C84.88,-122.29 84.88,-104.71 84.88,-94.19"/>
<polygon fill="#9a32cd" stroke="#9a32cd" points="81.38,-136.07 84.88,-146.07 88.38,-136.07 81.38,-136.07"/>
</a>
</g>
<text xml:space="preserve" text-anchor="start" x="87.88" y="-117.5" font-family="Helvetica,sans-Serif" font-size="10.00" fill="grey">buffer</text>
</g>
<!-- Node3&#45;&gt;Node3 -->
<g id="edge6_Node000003_Node000003" class="edge">
<title>Node3&#45;&gt;Node3</title>
<g id="a_edge6_Node000003_Node000003"><a xlink:title=" ">
<path fill="none" stroke="#9a32cd" stroke-dasharray="5,2" d="M142.18,-162.99C146.04,-161.84 148.38,-160.17 148.38,-158 148.38,-154.13 140.98,-151.88 130.83,-151.25"/>
<polygon fill="#9a32cd" stroke="#9a32cd" points="141.67,-159.53 132.32,-164.52 142.74,-166.45 141.67,-159.53"/>
</a>
</g>
<text xml:space="preserve" text-anchor="start" x="151.38" y="-154.5" font-family="Helvetica,sans-Serif" font-size="10.00" fill="grey">next</text>
</g>
<!-- Node4 -->
<g id="Node000004" class="node">
<title>Node4</title>
<g id="a_Node000004"><a xlink:href="structnghttp2__hd__nv.html" target="_top" xlink:title=" ">
<polygon fill="white" stroke="#bfbfbf" points="79.75,-242 0,-242 0,-222 79.75,-222 79.75,-242"/>
<text xml:space="preserve" text-anchor="middle" x="39.88" y="-228.5" font-family="Helvetica,sans-Serif" font-size="10.00">nghttp2_hd_nv</text>
</a>
</g>
</g>
<!-- Node4&#45;&gt;Node3 -->
<g id="edge3_Node000003_Node000004" class="edge">
<title>Node4&#45;&gt;Node3</title>
<g id="a_edge3_Node000003_Node000004"><a xlink:title=" ">
<path fill="none" stroke="#9a32cd" stroke-dasharray="5,2" d="M51.84,-211.86C60.67,-197.74 72.29,-179.14 79.13,-168.19"/>
<polygon fill="#9a32cd" stroke="#9a32cd" points="48.89,-209.97 46.56,-220.3 54.83,-213.68 48.89,-209.97"/>
</a>
</g>
<text xml:space="preserve" text-anchor="start" x="70.73" y="-191.5" font-family="Helvetica,sans-Serif" font-size="10.00" fill="grey">nv</text>
</g>
<!-- Node5 -->
<g id="Node000005" class="node">
<title>Node5</title>
<g id="a_Node000005"><a xlink:href="structnghttp2__rcbuf.html" target="_top" xlink:title=" ">
<polygon fill="white" stroke="#bfbfbf" points="77.5,-332 2.25,-332 2.25,-312 77.5,-312 77.5,-332"/>
<text xml:space="preserve" text-anchor="middle" x="39.88" y="-318.5" font-family="Helvetica,sans-Serif" font-size="10.00">nghttp2_rcbuf</text>
</a>
</g>
</g>
<!-- Node5&#45;&gt;Node4 -->
<g id="edge4_Node000004_Node000005" class="edge">
<title>Node5&#45;&gt;Node4</title>
<g id="a_edge4_Node000004_Node000005"><a xlink:title=" ">
<path fill="none" stroke="#9a32cd" stroke-dasharray="5,2" d="M39.88,-300.09C39.88,-281.77 39.88,-256.01 39.88,-242.35"/>
<polygon fill="#9a32cd" stroke="#9a32cd" points="36.38,-300.07 39.88,-310.07 43.38,-300.07 36.38,-300.07"/>
</a>
</g>
<text xml:space="preserve" text-anchor="start" x="42.88" y="-281.5" font-family="Helvetica,sans-Serif" font-size="10.00" fill="grey">name</text>
<text xml:space="preserve" text-anchor="start" x="42.88" y="-265.5" font-family="Helvetica,sans-Serif" font-size="10.00" fill="grey">value</text>
</g>
<!-- Node6 -->
<g id="Node000006" class="node">
<title>Node6</title>
<g id="a_Node000006"><a xlink:href="structnghttp2__nv.html" target="_top" xlink:title=" ">
<polygon fill="white" stroke="#666666" points="161.88,-242 97.88,-242 97.88,-222 161.88,-222 161.88,-242"/>
<text xml:space="preserve" text-anchor="middle" x="129.88" y="-228.5" font-family="Helvetica,sans-Serif" font-size="10.00">nghttp2_nv</text>
</a>
</g>
</g>
<!-- Node6&#45;&gt;Node3 -->
<g id="edge5_Node000003_Node000006" class="edge">
<title>Node6&#45;&gt;Node3</title>
<g id="a_edge5_Node000003_Node000006"><a xlink:title=" ">
<path fill="none" stroke="#9a32cd" stroke-dasharray="5,2" d="M117.91,-211.86C109.08,-197.74 97.46,-179.14 90.62,-168.19"/>
<polygon fill="#9a32cd" stroke="#9a32cd" points="114.92,-213.68 123.19,-220.3 120.86,-209.97 114.92,-213.68"/>
</a>
</g>
<text xml:space="preserve" text-anchor="start" x="115.73" y="-191.5" font-family="Helvetica,sans-Serif" font-size="10.00" fill="grey">cnv</text>
</g>
<!-- Node7 -->
<g id="Node000007" class="node">
<title>Node7</title>
<g id="a_Node000007"><a xlink:href="structnghttp2__mem.html" target="_top" xlink:title=" ">
<polygon fill="white" stroke="#666666" points="227.5,-94 152.25,-94 152.25,-74 227.5,-74 227.5,-94"/>
<text xml:space="preserve" text-anchor="middle" x="189.88" y="-80.5" font-family="Helvetica,sans-Serif" font-size="10.00">nghttp2_mem</text>
</a>
</g>
</g>
<!-- Node7&#45;&gt;Node1 -->
<g id="edge7_Node000001_Node000007" class="edge">
<title>Node7&#45;&gt;Node1</title>
<g id="a_edge7_Node000001_Node000007"><a xlink:title=" ">
<path fill="none" stroke="#9a32cd" stroke-dasharray="5,2" d="M176.35,-64.27C166.11,-50.1 152.5,-31.25 144.51,-20.19"/>
<polygon fill="#9a32cd" stroke="#9a32cd" points="173.5,-66.3 182.19,-72.36 179.17,-62.2 173.5,-66.3"/>
</a>
</g>
<text xml:space="preserve" text-anchor="start" x="173.06" y="-43.5" font-family="Helvetica,sans-Serif" font-size="10.00" fill="grey">mem</text>
</g>
</g>
</svg>
