<?xml version="1.0" encoding="UTF-8" standalone="no"?>
<!DOCTYPE svg PUBLIC "-//W3C//DTD SVG 1.1//EN"
 "http://www.w3.org/Graphics/SVG/1.1/DTD/svg11.dtd">
<!-- Generated by graphviz version 14.0.5 (0)
 -->
<!-- Title: mrb_gc Pages: 1 -->
<svg width="261pt" height="238pt"
 viewBox="0.00 0.00 261.00 238.00" xmlns="http://www.w3.org/2000/svg" xmlns:xlink="http://www.w3.org/1999/xlink">
<g id="graph0" class="graph" transform="scale(1 1) rotate(0) translate(4 234)">
<title>mrb_gc</title>
<!-- Node1 -->
<g id="Node000001" class="node">
<title>Node1</title>
<g id="a_Node000001"><a xlink:title=" ">
<polygon fill="#999999" stroke="#666666" points="74.25,-20 26,-20 26,0 74.25,0 74.25,-20"/>
<text xml:space="preserve" text-anchor="middle" x="50.12" y="-6.5" font-family="Helvetica,sans-Serif" font-size="10.00">mrb_gc</text>
</a>
</g>
</g>
<!-- Node2 -->
<g id="Node000002" class="node">
<title>Node2</title>
<g id="a_Node000002"><a xlink:href="structmrb__heap__page.html" target="_top" xlink:title=" ">
<polygon fill="white" stroke="#bfbfbf" points="188.62,-141 103.62,-141 103.62,-121 188.62,-121 188.62,-141"/>
<text xml:space="preserve" text-anchor="middle" x="146.12" y="-127.5" font-family="Helvetica,sans-Serif" font-size="10.00">mrb_heap_page</text>
</a>
</g>
</g>
<!-- Node2&#45;&gt;Node1 -->
<g id="edge1_Node000001_Node000002" class="edge">
<title>Node2&#45;&gt;Node1</title>
<g id="a_edge1_Node000001_Node000002"><a xlink:title=" ">
<path fill="none" stroke="#9a32cd" stroke-dasharray="5,2" d="M131.53,-111.9C110.77,-86.18 73.5,-39.98 57.62,-20.29"/>
<polygon fill="#9a32cd" stroke="#9a32cd" points="128.64,-113.9 137.64,-119.48 134.09,-109.5 128.64,-113.9"/>
</a>
</g>
<text xml:space="preserve" text-anchor="start" x="112.55" y="-75.5" font-family="Helvetica,sans-Serif" font-size="10.00" fill="grey">free_heaps</text>
<text xml:space="preserve" text-anchor="start" x="112.55" y="-59.5" font-family="Helvetica,sans-Serif" font-size="10.00" fill="grey">heaps</text>
<text xml:space="preserve" text-anchor="start" x="112.55" y="-43.5" font-family="Helvetica,sans-Serif" font-size="10.00" fill="grey">sweeps</text>
</g>
<!-- Node2&#45;&gt;Node2 -->
<g id="edge3_Node000002_Node000002" class="edge">
<title>Node2&#45;&gt;Node2</title>
<g id="a_edge3_Node000002_Node000002"><a xlink:title=" ">
<path fill="none" stroke="#9a32cd" stroke-dasharray="5,2" d="M200.09,-138.28C204.14,-136.66 206.62,-134.23 206.62,-131 206.62,-125.41 199.18,-122.23 189.08,-121.44"/>
<polygon fill="#9a32cd" stroke="#9a32cd" points="199.65,-134.8 190.57,-140.25 201.07,-141.65 199.65,-134.8"/>
</a>
</g>
<text xml:space="preserve" text-anchor="start" x="209.62" y="-135.5" font-family="Helvetica,sans-Serif" font-size="10.00" fill="grey">free_next</text>
<text xml:space="preserve" text-anchor="start" x="209.62" y="-119.5" font-family="Helvetica,sans-Serif" font-size="10.00" fill="grey">next</text>
</g>
<!-- Node3 -->
<g id="Node000003" class="node">
<title>Node3</title>
<g id="a_Node000003"><a xlink:href="structRBasic.html" target="_top" xlink:title=" ">
<polygon fill="white" stroke="#bfbfbf" points="48.25,-230 0,-230 0,-210 48.25,-210 48.25,-230"/>
<text xml:space="preserve" text-anchor="middle" x="24.12" y="-216.5" font-family="Helvetica,sans-Serif" font-size="10.00">RBasic</text>
</a>
</g>
</g>
<!-- Node3&#45;&gt;Node1 -->
<g id="edge4_Node000001_Node000003" class="edge">
<title>Node3&#45;&gt;Node1</title>
<g id="a_edge4_Node000001_Node000003"><a xlink:title=" ">
<path fill="none" stroke="#9a32cd" stroke-dasharray="5,2" d="M21.56,-198.36C20.16,-186.08 18.58,-170.18 17.88,-156 16.78,-133.8 14.25,-127.93 17.88,-106 23.24,-73.52 38.26,-37.22 45.76,-20.44"/>
<polygon fill="#9a32cd" stroke="#9a32cd" points="18.06,-198.61 22.72,-208.13 25.01,-197.78 18.06,-198.61"/>
</a>
</g>
<text xml:space="preserve" text-anchor="start" x="20.88" y="-143.5" font-family="Helvetica,sans-Serif" font-size="10.00" fill="grey">arena</text>
<text xml:space="preserve" text-anchor="start" x="20.88" y="-127.5" font-family="Helvetica,sans-Serif" font-size="10.00" fill="grey">atomic_gray_list</text>
<text xml:space="preserve" text-anchor="start" x="20.88" y="-111.5" font-family="Helvetica,sans-Serif" font-size="10.00" fill="grey">gray_list</text>
</g>
<!-- Node3&#45;&gt;Node2 -->
<g id="edge2_Node000002_Node000003" class="edge">
<title>Node3&#45;&gt;Node2</title>
<g id="a_edge2_Node000002_Node000003"><a xlink:title=" ">
<path fill="none" stroke="#9a32cd" stroke-dasharray="5,2" d="M46.41,-203.11C71.81,-184.99 112.49,-155.98 133.16,-141.24"/>
<polygon fill="#9a32cd" stroke="#9a32cd" points="44.52,-200.15 38.41,-208.81 48.59,-205.85 44.52,-200.15"/>
</a>
</g>
<text xml:space="preserve" text-anchor="start" x="88.12" y="-179.5" font-family="Helvetica,sans-Serif" font-size="10.00" fill="grey">freelist</text>
</g>
</g>
</svg>
