<?xml version="1.0" encoding="UTF-8" standalone="no"?>
<!DOCTYPE svg PUBLIC "-//W3C//DTD SVG 1.1//EN"
 "http://www.w3.org/Graphics/SVG/1.1/DTD/svg11.dtd">
<!-- Generated by graphviz version 14.0.5 (0)
 -->
<!-- Title: nghttp2_hd_ringbuf Pages: 1 -->
<svg width="181pt" height="266pt"
 viewBox="0.00 0.00 181.00 266.00" xmlns="http://www.w3.org/2000/svg" xmlns:xlink="http://www.w3.org/1999/xlink">
<g id="graph0" class="graph" transform="scale(1 1) rotate(0) translate(4 262)">
<title>nghttp2_hd_ringbuf</title>
<!-- Node1 -->
<g id="Node000001" class="node">
<title>Node1</title>
<g id="a_Node000001"><a xlink:title=" ">
<polygon fill="#999999" stroke="#666666" points="134.12,-20 35.62,-20 35.62,0 134.12,0 134.12,-20"/>
<text xml:space="preserve" text-anchor="middle" x="84.88" y="-6.5" font-family="Helvetica,sans-Serif" font-size="10.00">nghttp2_hd_ringbuf</text>
</a>
</g>
</g>
<!-- Node2 -->
<g id="Node000002" class="node">
<title>Node2</title>
<g id="a_Node000002"><a xlink:href="structnghttp2__hd__entry.html" target="_top" xlink:title=" ">
<polygon fill="white" stroke="#bfbfbf" points="130.38,-94 39.38,-94 39.38,-74 130.38,-74 130.38,-94"/>
<text xml:space="preserve" text-anchor="middle" x="84.88" y="-80.5" font-family="Helvetica,sans-Serif" font-size="10.00">nghttp2_hd_entry</text>
</a>
</g>
</g>
<!-- Node2&#45;&gt;Node1 -->
<g id="edge1_Node000001_Node000002" class="edge">
<title>Node2&#45;&gt;Node1</title>
<g id="a_edge1_Node000001_Node000002"><a xlink:title=" ">
<path fill="none" stroke="#9a32cd" stroke-dasharray="5,2" d="M84.88,-62.18C84.88,-48.29 84.88,-30.71 84.88,-20.19"/>
<polygon fill="#9a32cd" stroke="#9a32cd" points="81.38,-62.07 84.88,-72.07 88.38,-62.07 81.38,-62.07"/>
</a>
</g>
<text xml:space="preserve" text-anchor="start" x="87.88" y="-43.5" font-family="Helvetica,sans-Serif" font-size="10.00" fill="grey">buffer</text>
</g>
<!-- Node2&#45;&gt;Node2 -->
<g id="edge5_Node000002_Node000002" class="edge">
<title>Node2&#45;&gt;Node2</title>
<g id="a_edge5_Node000002_Node000002"><a xlink:title=" ">
<path fill="none" stroke="#9a32cd" stroke-dasharray="5,2" d="M142.18,-88.99C146.04,-87.84 148.38,-86.17 148.38,-84 148.38,-80.13 140.98,-77.88 130.83,-77.25"/>
<polygon fill="#9a32cd" stroke="#9a32cd" points="141.67,-85.53 132.32,-90.52 142.74,-92.45 141.67,-85.53"/>
</a>
</g>
<text xml:space="preserve" text-anchor="start" x="151.38" y="-80.5" font-family="Helvetica,sans-Serif" font-size="10.00" fill="grey">next</text>
</g>
<!-- Node3 -->
<g id="Node000003" class="node">
<title>Node3</title>
<g id="a_Node000003"><a xlink:href="structnghttp2__hd__nv.html" target="_top" xlink:title=" ">
<polygon fill="white" stroke="#bfbfbf" points="79.75,-168 0,-168 0,-148 79.75,-148 79.75,-168"/>
<text xml:space="preserve" text-anchor="middle" x="39.88" y="-154.5" font-family="Helvetica,sans-Serif" font-size="10.00">nghttp2_hd_nv</text>
</a>
</g>
</g>
<!-- Node3&#45;&gt;Node2 -->
<g id="edge2_Node000002_Node000003" class="edge">
<title>Node3&#45;&gt;Node2</title>
<g id="a_edge2_Node000002_Node000003"><a xlink:title=" ">
<path fill="none" stroke="#9a32cd" stroke-dasharray="5,2" d="M51.84,-137.86C60.67,-123.74 72.29,-105.14 79.13,-94.19"/>
<polygon fill="#9a32cd" stroke="#9a32cd" points="48.89,-135.97 46.56,-146.3 54.83,-139.68 48.89,-135.97"/>
</a>
</g>
<text xml:space="preserve" text-anchor="start" x="70.73" y="-117.5" font-family="Helvetica,sans-Serif" font-size="10.00" fill="grey">nv</text>
</g>
<!-- Node4 -->
<g id="Node000004" class="node">
<title>Node4</title>
<g id="a_Node000004"><a xlink:href="structnghttp2__rcbuf.html" target="_top" xlink:title=" ">
<polygon fill="white" stroke="#bfbfbf" points="77.5,-258 2.25,-258 2.25,-238 77.5,-238 77.5,-258"/>
<text xml:space="preserve" text-anchor="middle" x="39.88" y="-244.5" font-family="Helvetica,sans-Serif" font-size="10.00">nghttp2_rcbuf</text>
</a>
</g>
</g>
<!-- Node4&#45;&gt;Node3 -->
<g id="edge3_Node000003_Node000004" class="edge">
<title>Node4&#45;&gt;Node3</title>
<g id="a_edge3_Node000003_Node000004"><a xlink:title=" ">
<path fill="none" stroke="#9a32cd" stroke-dasharray="5,2" d="M39.88,-226.09C39.88,-207.77 39.88,-182.01 39.88,-168.35"/>
<polygon fill="#9a32cd" stroke="#9a32cd" points="36.38,-226.07 39.88,-236.07 43.38,-226.07 36.38,-226.07"/>
</a>
</g>
<text xml:space="preserve" text-anchor="start" x="42.88" y="-207.5" font-family="Helvetica,sans-Serif" font-size="10.00" fill="grey">name</text>
<text xml:space="preserve" text-anchor="start" x="42.88" y="-191.5" font-family="Helvetica,sans-Serif" font-size="10.00" fill="grey">value</text>
</g>
<!-- Node5 -->
<g id="Node000005" class="node">
<title>Node5</title>
<g id="a_Node000005"><a xlink:href="structnghttp2__nv.html" target="_top" xlink:title=" ">
<polygon fill="white" stroke="#666666" points="161.88,-168 97.88,-168 97.88,-148 161.88,-148 161.88,-168"/>
<text xml:space="preserve" text-anchor="middle" x="129.88" y="-154.5" font-family="Helvetica,sans-Serif" font-size="10.00">nghttp2_nv</text>
</a>
</g>
</g>
<!-- Node5&#45;&gt;Node2 -->
<g id="edge4_Node000002_Node000005" class="edge">
<title>Node5&#45;&gt;Node2</title>
<g id="a_edge4_Node000002_Node000005"><a xlink:title=" ">
<path fill="none" stroke="#9a32cd" stroke-dasharray="5,2" d="M117.91,-137.86C109.08,-123.74 97.46,-105.14 90.62,-94.19"/>
<polygon fill="#9a32cd" stroke="#9a32cd" points="114.92,-139.68 123.19,-146.3 120.86,-135.97 114.92,-139.68"/>
</a>
</g>
<text xml:space="preserve" text-anchor="start" x="115.73" y="-117.5" font-family="Helvetica,sans-Serif" font-size="10.00" fill="grey">cnv</text>
</g>
</g>
</svg>
