<?xml version="1.0" encoding="UTF-8" standalone="no"?>
<!DOCTYPE svg PUBLIC "-//W3C//DTD SVG 1.1//EN"
 "http://www.w3.org/Graphics/SVG/1.1/DTD/svg11.dtd">
<!-- Generated by graphviz version 14.0.5 (0)
 -->
<!-- Title: RFiber Pages: 1 -->
<svg width="661pt" height="696pt"
 viewBox="0.00 0.00 661.00 696.00" xmlns="http://www.w3.org/2000/svg" xmlns:xlink="http://www.w3.org/1999/xlink">
<g id="graph0" class="graph" transform="scale(1 1) rotate(0) translate(4 692)">
<title>RFiber</title>
<!-- Node1 -->
<g id="Node000001" class="node">
<title>Node1</title>
<g id="a_Node000001"><a xlink:title=" ">
<polygon fill="#999999" stroke="#666666" points="45.25,-614 0,-614 0,-594 45.25,-594 45.25,-614"/>
<text xml:space="preserve" text-anchor="middle" x="22.62" y="-600.5" font-family="Helvetica,sans-Serif" font-size="10.00">RFiber</text>
</a>
</g>
</g>
<!-- Node2 -->
<g id="Node000002" class="node">
<title>Node2</title>
<g id="a_Node000002"><a xlink:href="structmrb__context.html" target="_top" xlink:title=" ">
<polygon fill="white" stroke="#bfbfbf" points="71.62,-524 1.62,-524 1.62,-504 71.62,-504 71.62,-524"/>
<text xml:space="preserve" text-anchor="middle" x="36.62" y="-510.5" font-family="Helvetica,sans-Serif" font-size="10.00">mrb_context</text>
</a>
</g>
</g>
<!-- Node1&#45;&gt;Node2 -->
<g id="edge30_Node000002_Node000001" class="edge">
<title>Node1&#45;&gt;Node2</title>
<g id="a_edge30_Node000002_Node000001"><a xlink:title=" ">
<path fill="none" stroke="#9a32cd" stroke-dasharray="5,2" d="M9.93,-583.57C8.79,-581.1 7.8,-578.55 7.12,-576 3.23,-561.4 1.03,-555.83 7.12,-542 10.26,-534.88 16.3,-528.83 22.1,-524.26"/>
<polygon fill="#9a32cd" stroke="#9a32cd" points="6.85,-585.24 14.82,-592.22 12.95,-581.8 6.85,-585.24"/>
</a>
</g>
<text xml:space="preserve" text-anchor="start" x="10.12" y="-555.5" font-family="Helvetica,sans-Serif" font-size="10.00" fill="grey">fib</text>
</g>
<!-- Node2&#45;&gt;Node1 -->
<g id="edge1_Node000001_Node000002" class="edge">
<title>Node2&#45;&gt;Node1</title>
<g id="a_edge1_Node000001_Node000002"><a xlink:title=" ">
<path fill="none" stroke="#9a32cd" stroke-dasharray="5,2" d="M33.35,-535.56C30.44,-553.87 26.31,-579.82 24.12,-593.58"/>
<polygon fill="#9a32cd" stroke="#9a32cd" points="36.79,-536.27 34.9,-525.84 29.87,-535.17 36.79,-536.27"/>
</a>
</g>
<text xml:space="preserve" text-anchor="start" x="35.1" y="-555.5" font-family="Helvetica,sans-Serif" font-size="10.00" fill="grey">cxt</text>
</g>
<!-- Node2&#45;&gt;Node2 -->
<g id="edge2_Node000002_Node000002" class="edge">
<title>Node2&#45;&gt;Node2</title>
<g id="a_edge2_Node000002_Node000002"><a xlink:title=" ">
<path fill="none" stroke="#9a32cd" stroke-dasharray="5,2" d="M82.9,-520.67C87.03,-519.27 89.62,-517.05 89.62,-514 89.62,-508.73 81.86,-505.93 71.79,-505.6"/>
<polygon fill="#9a32cd" stroke="#9a32cd" points="82.63,-517.17 73.29,-522.17 83.71,-524.08 82.63,-517.17"/>
</a>
</g>
<text xml:space="preserve" text-anchor="start" x="92.62" y="-510.5" font-family="Helvetica,sans-Serif" font-size="10.00" fill="grey">prev</text>
</g>
<!-- Node17 -->
<g id="Node000017" class="node">
<title>Node17</title>
<g id="a_Node000017"><a xlink:href="structREnv.html" target="_top" xlink:title=" ">
<polygon fill="white" stroke="#666666" points="185,-434 144.25,-434 144.25,-414 185,-414 185,-434"/>
<text xml:space="preserve" text-anchor="middle" x="164.62" y="-420.5" font-family="Helvetica,sans-Serif" font-size="10.00">REnv</text>
</a>
</g>
</g>
<!-- Node2&#45;&gt;Node17 -->
<g id="edge26_Node000017_Node000002" class="edge">
<title>Node2&#45;&gt;Node17</title>
<g id="a_edge26_Node000017_Node000002"><a xlink:title=" ">
<path fill="none" stroke="#9a32cd" stroke-dasharray="5,2" d="M56.96,-496.41C72.91,-483.68 95.91,-465.98 117.12,-452 126.63,-445.74 137.66,-439.41 146.7,-434.46"/>
<polygon fill="#9a32cd" stroke="#9a32cd" points="54.78,-493.67 49.19,-502.67 59.17,-499.12 54.78,-493.67"/>
</a>
</g>
<text xml:space="preserve" text-anchor="start" x="120.12" y="-465.5" font-family="Helvetica,sans-Serif" font-size="10.00" fill="grey">cxt</text>
</g>
<!-- Node3 -->
<g id="Node000003" class="node">
<title>Node3</title>
<g id="a_Node000003"><a xlink:href="structmrb__value.html" target="_top" xlink:title=" ">
<polygon fill="white" stroke="#bfbfbf" points="492.12,-614 431.12,-614 431.12,-594 492.12,-594 492.12,-614"/>
<text xml:space="preserve" text-anchor="middle" x="461.62" y="-600.5" font-family="Helvetica,sans-Serif" font-size="10.00">mrb_value</text>
</a>
</g>
</g>
<!-- Node3&#45;&gt;Node2 -->
<g id="edge3_Node000002_Node000003" class="edge">
<title>Node3&#45;&gt;Node2</title>
<g id="a_edge3_Node000002_Node000003"><a xlink:title=" ">
<path fill="none" stroke="#9a32cd" stroke-dasharray="5,2" d="M419.42,-600.21C325.84,-593.96 108.57,-579.17 101.38,-576 75.37,-564.54 53.3,-538.04 42.94,-524.04"/>
<polygon fill="#9a32cd" stroke="#9a32cd" points="419,-603.69 429.21,-600.86 419.47,-596.7 419,-603.69"/>
</a>
</g>
<text xml:space="preserve" text-anchor="start" x="104.38" y="-563.5" font-family="Helvetica,sans-Serif" font-size="10.00" fill="grey">stbase</text>
<text xml:space="preserve" text-anchor="start" x="104.38" y="-547.5" font-family="Helvetica,sans-Serif" font-size="10.00" fill="grey">stend</text>
</g>
<!-- Node5 -->
<g id="Node000005" class="node">
<title>Node5</title>
<g id="a_Node000005"><a xlink:href="structmrb__callinfo.html" target="_top" xlink:title=" ">
<polygon fill="white" stroke="#bfbfbf" points="391.88,-20 323.38,-20 323.38,0 391.88,0 391.88,-20"/>
<text xml:space="preserve" text-anchor="middle" x="357.62" y="-6.5" font-family="Helvetica,sans-Serif" font-size="10.00">mrb_callinfo</text>
</a>
</g>
</g>
<!-- Node3&#45;&gt;Node5 -->
<g id="edge27_Node000005_Node000003" class="edge">
<title>Node3&#45;&gt;Node5</title>
<g id="a_edge27_Node000005_Node000003"><a xlink:title=" ">
<path fill="none" stroke="#9a32cd" stroke-dasharray="5,2" d="M503.5,-599.41C538.96,-595.57 586.26,-588.3 600.62,-576 622.51,-557.25 622.62,-543.82 622.62,-515 622.62,-515 622.62,-515 622.62,-83 622.62,-35.8 464.1,-18.54 392.27,-13.14"/>
<polygon fill="#9a32cd" stroke="#9a32cd" points="503.55,-595.89 493.96,-600.38 504.27,-602.85 503.55,-595.89"/>
</a>
</g>
<text xml:space="preserve" text-anchor="start" x="625.62" y="-309.5" font-family="Helvetica,sans-Serif" font-size="10.00" fill="grey">stack</text>
</g>
<!-- Node6 -->
<g id="Node000006" class="node">
<title>Node6</title>
<g id="a_Node000006"><a xlink:href="structRProc.html" target="_top" xlink:title=" ">
<polygon fill="white" stroke="#bfbfbf" points="427.5,-360 383.75,-360 383.75,-340 427.5,-340 427.5,-360"/>
<text xml:space="preserve" text-anchor="middle" x="405.62" y="-346.5" font-family="Helvetica,sans-Serif" font-size="10.00">RProc</text>
</a>
</g>
</g>
<!-- Node3&#45;&gt;Node6 -->
<g id="edge14_Node000006_Node000003" class="edge">
<title>Node3&#45;&gt;Node6</title>
<g id="a_edge14_Node000006_Node000003"><a xlink:title=" ">
<path fill="none" stroke="#9a32cd" stroke-dasharray="5,2" d="M484.18,-586.49C506.16,-568.21 535.24,-536.93 527.62,-504 517.59,-460.62 511.38,-448.81 483.62,-414 465.5,-391.27 437.83,-371.39 420.78,-360.31"/>
<polygon fill="#9a32cd" stroke="#9a32cd" points="482.18,-583.61 476.51,-592.56 486.52,-589.1 482.18,-583.61"/>
</a>
</g>
<text xml:space="preserve" text-anchor="start" x="525.95" y="-465.5" font-family="Helvetica,sans-Serif" font-size="10.00" fill="grey">func</text>
</g>
<!-- Node14 -->
<g id="Node000014" class="node">
<title>Node14</title>
<g id="a_Node000014"><a xlink:href="structiv__tbl.html" target="_top" xlink:title=" ">
<polygon fill="white" stroke="#bfbfbf" points="607.25,-479 568,-479 568,-459 607.25,-459 607.25,-479"/>
<text xml:space="preserve" text-anchor="middle" x="587.62" y="-465.5" font-family="Helvetica,sans-Serif" font-size="10.00">iv_tbl</text>
</a>
</g>
</g>
<!-- Node3&#45;&gt;Node14 -->
<g id="edge18_Node000014_Node000003" class="edge">
<title>Node3&#45;&gt;Node14</title>
<g id="a_edge18_Node000014_Node000003"><a xlink:title=" ">
<path fill="none" stroke="#9a32cd" stroke-dasharray="5,2" d="M503.71,-601.04C523.44,-597.98 545.8,-591.08 560.62,-576 587.12,-549.05 588.74,-499.95 588.15,-479.42"/>
<polygon fill="#9a32cd" stroke="#9a32cd" points="503.48,-597.55 493.99,-602.25 504.34,-604.49 503.48,-597.55"/>
</a>
</g>
<text xml:space="preserve" text-anchor="start" x="582.57" y="-555.5" font-family="Helvetica,sans-Serif" font-size="10.00" fill="grey">ptr</text>
</g>
<!-- Node16 -->
<g id="Node000016" class="node">
<title>Node16</title>
<g id="a_Node000016"><a xlink:href="unionmt__ptr.html" target="_top" xlink:title=" ">
<polygon fill="white" stroke="#bfbfbf" points="429.5,-271 385.75,-271 385.75,-251 429.5,-251 429.5,-271"/>
<text xml:space="preserve" text-anchor="middle" x="407.62" y="-257.5" font-family="Helvetica,sans-Serif" font-size="10.00">mt_ptr</text>
</a>
</g>
</g>
<!-- Node3&#45;&gt;Node16 -->
<g id="edge22_Node000016_Node000003" class="edge">
<title>Node3&#45;&gt;Node16</title>
<g id="a_edge22_Node000016_Node000003"><a xlink:title=" ">
<path fill="none" stroke="#9a32cd" stroke-dasharray="5,2" d="M419.97,-593.2C382.28,-581.56 332.62,-558.06 332.62,-515 332.62,-515 332.62,-515 332.62,-349 332.62,-313.5 368.88,-285.31 390.98,-271.42"/>
<polygon fill="#9a32cd" stroke="#9a32cd" points="418.69,-596.47 429.27,-595.89 420.64,-589.75 418.69,-596.47"/>
</a>
</g>
<text xml:space="preserve" text-anchor="start" x="335.62" y="-420.5" font-family="Helvetica,sans-Serif" font-size="10.00" fill="grey">func</text>
</g>
<!-- Node3&#45;&gt;Node17 -->
<g id="edge25_Node000017_Node000003" class="edge">
<title>Node3&#45;&gt;Node17</title>
<g id="a_edge25_Node000017_Node000003"><a xlink:title=" ">
<path fill="none" stroke="#9a32cd" stroke-dasharray="5,2" d="M419.58,-602.7C375.59,-601.24 305.07,-595.65 247.62,-576 204.64,-561.3 182.14,-563.46 159.62,-524 142.99,-494.85 154.6,-452.67 161.08,-434.22"/>
<polygon fill="#9a32cd" stroke="#9a32cd" points="419.38,-606.19 429.47,-602.96 419.57,-599.2 419.38,-606.19"/>
</a>
</g>
<text xml:space="preserve" text-anchor="start" x="162.62" y="-510.5" font-family="Helvetica,sans-Serif" font-size="10.00" fill="grey">stack</text>
</g>
<!-- Node4 -->
<g id="Node000004" class="node">
<title>Node4</title>
<g id="a_Node000004"><a xlink:href="unionmrb__value__union.html" target="_top" xlink:title=" ">
<polygon fill="white" stroke="#bfbfbf" points="506.38,-688 416.88,-688 416.88,-668 506.38,-668 506.38,-688"/>
<text xml:space="preserve" text-anchor="middle" x="461.62" y="-674.5" font-family="Helvetica,sans-Serif" font-size="10.00">mrb_value_union</text>
</a>
</g>
</g>
<!-- Node4&#45;&gt;Node3 -->
<g id="edge4_Node000003_Node000004" class="edge">
<title>Node4&#45;&gt;Node3</title>
<g id="a_edge4_Node000003_Node000004"><a xlink:title=" ">
<path fill="none" stroke="#9a32cd" stroke-dasharray="5,2" d="M461.62,-656.18C461.62,-642.29 461.62,-624.71 461.62,-614.19"/>
<polygon fill="#9a32cd" stroke="#9a32cd" points="458.13,-656.07 461.63,-666.07 465.13,-656.07 458.13,-656.07"/>
</a>
</g>
<text xml:space="preserve" text-anchor="start" x="464.62" y="-637.5" font-family="Helvetica,sans-Serif" font-size="10.00" fill="grey">value</text>
</g>
<!-- Node5&#45;&gt;Node2 -->
<g id="edge5_Node000002_Node000005" class="edge">
<title>Node5&#45;&gt;Node2</title>
<g id="a_edge5_Node000002_Node000005"><a xlink:title=" ">
<path fill="none" stroke="#9a32cd" stroke-dasharray="5,2" d="M311.82,-12.23C225.79,-15.79 48.62,-29.61 48.62,-83 48.62,-425 48.62,-425 48.62,-425 48.62,-453.83 42.22,-487.5 38.77,-503.55"/>
<polygon fill="#9a32cd" stroke="#9a32cd" points="311.71,-15.74 321.57,-11.86 311.44,-8.74 311.71,-15.74"/>
</a>
</g>
<text xml:space="preserve" text-anchor="start" x="51.62" y="-273.5" font-family="Helvetica,sans-Serif" font-size="10.00" fill="grey">ci</text>
<text xml:space="preserve" text-anchor="start" x="51.62" y="-257.5" font-family="Helvetica,sans-Serif" font-size="10.00" fill="grey">cibase</text>
<text xml:space="preserve" text-anchor="start" x="51.62" y="-241.5" font-family="Helvetica,sans-Serif" font-size="10.00" fill="grey">ciend</text>
</g>
<!-- Node6&#45;&gt;Node5 -->
<g id="edge6_Node000005_Node000006" class="edge">
<title>Node6&#45;&gt;Node5</title>
<g id="a_edge6_Node000005_Node000006"><a xlink:title=" ">
<path fill="none" stroke="#9a32cd" stroke-dasharray="5,2" d="M388.56,-330.89C374.77,-314.31 357.62,-288.39 357.62,-262 357.62,-262 357.62,-262 357.62,-83 357.62,-60.5 357.62,-34.04 357.62,-20.32"/>
<polygon fill="#9a32cd" stroke="#9a32cd" points="385.91,-333.18 395.14,-338.38 391.17,-328.56 385.91,-333.18"/>
</a>
</g>
<text xml:space="preserve" text-anchor="start" x="360.62" y="-169.5" font-family="Helvetica,sans-Serif" font-size="10.00" fill="grey">blk</text>
<text xml:space="preserve" text-anchor="start" x="360.62" y="-153.5" font-family="Helvetica,sans-Serif" font-size="10.00" fill="grey">proc</text>
</g>
<!-- Node6&#45;&gt;Node6 -->
<g id="edge15_Node000006_Node000006" class="edge">
<title>Node6&#45;&gt;Node6</title>
<g id="a_edge15_Node000006_Node000006"><a xlink:title=" ">
<path fill="none" stroke="#9a32cd" stroke-dasharray="5,2" d="M438.95,-355.96C442.91,-354.87 445.5,-352.89 445.5,-350 445.5,-344.87 437.32,-342.58 427.77,-343.15"/>
<polygon fill="#9a32cd" stroke="#9a32cd" points="438.96,-352.44 429.28,-356.73 439.52,-359.42 438.96,-352.44"/>
</a>
</g>
<text xml:space="preserve" text-anchor="start" x="448.5" y="-346.5" font-family="Helvetica,sans-Serif" font-size="10.00" fill="grey">upper</text>
</g>
<!-- Node6&#45;&gt;Node16 -->
<g id="edge21_Node000016_Node000006" class="edge">
<title>Node6&#45;&gt;Node16</title>
<g id="a_edge21_Node000016_Node000006"><a xlink:title=" ">
<path fill="none" stroke="#9a32cd" stroke-dasharray="5,2" d="M406.1,-328.32C406.52,-310.21 407.1,-284.74 407.41,-271.24"/>
<polygon fill="#9a32cd" stroke="#9a32cd" points="402.6,-328.1 405.87,-338.18 409.6,-328.26 402.6,-328.1"/>
</a>
</g>
<text xml:space="preserve" text-anchor="start" x="409.62" y="-309.5" font-family="Helvetica,sans-Serif" font-size="10.00" fill="grey">proc</text>
</g>
<!-- Node7 -->
<g id="Node000007" class="node">
<title>Node7</title>
<g id="a_Node000007"><a xlink:href="structmrb__irep.html" target="_top" xlink:title=" ">
<polygon fill="white" stroke="#bfbfbf" points="431.38,-434 377.88,-434 377.88,-414 431.38,-414 431.38,-434"/>
<text xml:space="preserve" text-anchor="middle" x="404.62" y="-420.5" font-family="Helvetica,sans-Serif" font-size="10.00">mrb_irep</text>
</a>
</g>
</g>
<!-- Node7&#45;&gt;Node6 -->
<g id="edge7_Node000006_Node000007" class="edge">
<title>Node7&#45;&gt;Node6</title>
<g id="a_edge7_Node000006_Node000007"><a xlink:title=" ">
<path fill="none" stroke="#9a32cd" stroke-dasharray="5,2" d="M404.91,-402.18C405.11,-388.29 405.35,-370.71 405.5,-360.19"/>
<polygon fill="#9a32cd" stroke="#9a32cd" points="401.42,-402.03 404.78,-412.07 408.42,-402.12 401.42,-402.03"/>
</a>
</g>
<text xml:space="preserve" text-anchor="start" x="408.24" y="-383.5" font-family="Helvetica,sans-Serif" font-size="10.00" fill="grey">irep</text>
</g>
<!-- Node7&#45;&gt;Node7 -->
<g id="edge10_Node000007_Node000007" class="edge">
<title>Node7&#45;&gt;Node7</title>
<g id="a_edge10_Node000007_Node000007"><a xlink:title=" ">
<path fill="none" stroke="#9a32cd" stroke-dasharray="5,2" d="M442.94,-429.71C446.87,-428.59 449.38,-426.68 449.38,-424 449.38,-419.23 441.44,-416.92 431.71,-417.07"/>
<polygon fill="#9a32cd" stroke="#9a32cd" points="442.78,-426.21 433.22,-430.77 443.54,-433.17 442.78,-426.21"/>
</a>
</g>
<text xml:space="preserve" text-anchor="start" x="452.38" y="-420.5" font-family="Helvetica,sans-Serif" font-size="10.00" fill="grey">reps</text>
</g>
<!-- Node8 -->
<g id="Node000008" class="node">
<title>Node8</title>
<g id="a_Node000008"><a xlink:href="structmrb__pool__value.html" target="_top" xlink:title=" ">
<polygon fill="white" stroke="#bfbfbf" points="518.75,-524 434.5,-524 434.5,-504 518.75,-504 518.75,-524"/>
<text xml:space="preserve" text-anchor="middle" x="476.62" y="-510.5" font-family="Helvetica,sans-Serif" font-size="10.00">mrb_pool_value</text>
</a>
</g>
</g>
<!-- Node8&#45;&gt;Node7 -->
<g id="edge8_Node000007_Node000008" class="edge">
<title>Node8&#45;&gt;Node7</title>
<g id="a_edge8_Node000007_Node000008"><a xlink:title=" ">
<path fill="none" stroke="#9a32cd" stroke-dasharray="5,2" d="M465.04,-494.52C456.88,-482.02 445.34,-465.42 433.62,-452 428.2,-445.78 421.49,-439.46 415.89,-434.5"/>
<polygon fill="#9a32cd" stroke="#9a32cd" points="461.89,-496.08 470.23,-502.61 467.78,-492.3 461.89,-496.08"/>
</a>
</g>
<text xml:space="preserve" text-anchor="start" x="462.25" y="-465.5" font-family="Helvetica,sans-Serif" font-size="10.00" fill="grey">pool</text>
</g>
<!-- Node9 -->
<g id="Node000009" class="node">
<title>Node9</title>
<g id="a_Node000009"><a xlink:href="classmrb__sym.html" target="_top" xlink:title=" ">
<polygon fill="white" stroke="#666666" points="416.88,-524 360.38,-524 360.38,-504 416.88,-504 416.88,-524"/>
<text xml:space="preserve" text-anchor="middle" x="388.62" y="-510.5" font-family="Helvetica,sans-Serif" font-size="10.00">mrb_sym</text>
</a>
</g>
</g>
<!-- Node9&#45;&gt;Node7 -->
<g id="edge9_Node000007_Node000009" class="edge">
<title>Node9&#45;&gt;Node7</title>
<g id="a_edge9_Node000007_Node000009"><a xlink:title=" ">
<path fill="none" stroke="#9a32cd" stroke-dasharray="5,2" d="M392.38,-492.35C395.71,-474.02 400.43,-448.07 402.93,-434.35"/>
<polygon fill="#9a32cd" stroke="#9a32cd" points="388.95,-491.63 390.61,-502.09 395.84,-492.88 388.95,-491.63"/>
</a>
</g>
<text xml:space="preserve" text-anchor="start" x="402.45" y="-473.5" font-family="Helvetica,sans-Serif" font-size="10.00" fill="grey">lv</text>
<text xml:space="preserve" text-anchor="start" x="402.45" y="-457.5" font-family="Helvetica,sans-Serif" font-size="10.00" fill="grey">syms</text>
</g>
<!-- Node10 -->
<g id="Node000010" class="node">
<title>Node10</title>
<g id="a_Node000010"><a xlink:href="structmrb__irep__debug__info.html" target="_top" xlink:title=" ">
<polygon fill="white" stroke="#bfbfbf" points="304.62,-524 198.62,-524 198.62,-504 304.62,-504 304.62,-524"/>
<text xml:space="preserve" text-anchor="middle" x="251.62" y="-510.5" font-family="Helvetica,sans-Serif" font-size="10.00">mrb_irep_debug_info</text>
</a>
</g>
</g>
<!-- Node10&#45;&gt;Node7 -->
<g id="edge11_Node000007_Node000010" class="edge">
<title>Node10&#45;&gt;Node7</title>
<g id="a_edge11_Node000007_Node000010"><a xlink:title=" ">
<path fill="none" stroke="#9a32cd" stroke-dasharray="5,2" d="M271.59,-496.45C288.2,-483.24 312.84,-464.87 336.38,-452 349.46,-444.85 364.84,-438.59 377.68,-433.91"/>
<polygon fill="#9a32cd" stroke="#9a32cd" points="269.56,-493.59 263.99,-502.6 273.96,-499.03 269.56,-493.59"/>
</a>
</g>
<text xml:space="preserve" text-anchor="start" x="339.38" y="-465.5" font-family="Helvetica,sans-Serif" font-size="10.00" fill="grey">debug_info</text>
</g>
<!-- Node11 -->
<g id="Node000011" class="node">
<title>Node11</title>
<g id="a_Node000011"><a xlink:href="structmrb__irep__debug__info__file.html" target="_top" xlink:title=" ">
<polygon fill="white" stroke="#bfbfbf" points="313.62,-614 189.62,-614 189.62,-594 313.62,-594 313.62,-614"/>
<text xml:space="preserve" text-anchor="middle" x="251.62" y="-600.5" font-family="Helvetica,sans-Serif" font-size="10.00">mrb_irep_debug_info_file</text>
</a>
</g>
</g>
<!-- Node11&#45;&gt;Node10 -->
<g id="edge12_Node000010_Node000011" class="edge">
<title>Node11&#45;&gt;Node10</title>
<g id="a_edge12_Node000010_Node000011"><a xlink:title=" ">
<path fill="none" stroke="#9a32cd" stroke-dasharray="5,2" d="M251.62,-582.09C251.62,-563.77 251.62,-538.01 251.62,-524.35"/>
<polygon fill="#9a32cd" stroke="#9a32cd" points="248.13,-582.07 251.63,-592.07 255.13,-582.07 248.13,-582.07"/>
</a>
</g>
<text xml:space="preserve" text-anchor="start" x="254.62" y="-555.5" font-family="Helvetica,sans-Serif" font-size="10.00" fill="grey">files</text>
</g>
<!-- Node12 -->
<g id="Node000012" class="node">
<title>Node12</title>
<g id="a_Node000012"><a xlink:href="structmrb__irep__debug__info__line.html" target="_top" xlink:title=" ">
<polygon fill="white" stroke="#bfbfbf" points="314.75,-688 188.5,-688 188.5,-668 314.75,-668 314.75,-688"/>
<text xml:space="preserve" text-anchor="middle" x="251.62" y="-674.5" font-family="Helvetica,sans-Serif" font-size="10.00">mrb_irep_debug_info_line</text>
</a>
</g>
</g>
<!-- Node12&#45;&gt;Node11 -->
<g id="edge13_Node000011_Node000012" class="edge">
<title>Node12&#45;&gt;Node11</title>
<g id="a_edge13_Node000011_Node000012"><a xlink:title=" ">
<path fill="none" stroke="#9a32cd" stroke-dasharray="5,2" d="M251.62,-656.18C251.62,-642.29 251.62,-624.71 251.62,-614.19"/>
<polygon fill="#9a32cd" stroke="#9a32cd" points="248.13,-656.07 251.63,-666.07 255.13,-656.07 248.13,-656.07"/>
</a>
</g>
<text xml:space="preserve" text-anchor="start" x="254.62" y="-637.5" font-family="Helvetica,sans-Serif" font-size="10.00" fill="grey">flat_map</text>
</g>
<!-- Node13 -->
<g id="Node000013" class="node">
<title>Node13</title>
<g id="a_Node000013"><a xlink:href="structRClass.html" target="_top" xlink:title=" ">
<polygon fill="white" stroke="#666666" points="480.12,-94 431.12,-94 431.12,-74 480.12,-74 480.12,-94"/>
<text xml:space="preserve" text-anchor="middle" x="455.62" y="-80.5" font-family="Helvetica,sans-Serif" font-size="10.00">RClass</text>
</a>
</g>
</g>
<!-- Node13&#45;&gt;Node5 -->
<g id="edge29_Node000005_Node000013" class="edge">
<title>Node13&#45;&gt;Node5</title>
<g id="a_edge29_Node000005_Node000013"><a xlink:title=" ">
<path fill="none" stroke="#9a32cd" stroke-dasharray="5,2" d="M433.76,-66.94C414.3,-52.64 386.51,-32.22 370.44,-20.42"/>
<polygon fill="#9a32cd" stroke="#9a32cd" points="431.46,-69.59 441.59,-72.69 435.61,-63.95 431.46,-69.59"/>
</a>
</g>
<text xml:space="preserve" text-anchor="start" x="421.28" y="-43.5" font-family="Helvetica,sans-Serif" font-size="10.00" fill="grey">target_class</text>
</g>
<!-- Node13&#45;&gt;Node6 -->
<g id="edge16_Node000006_Node000013" class="edge">
<title>Node13&#45;&gt;Node6</title>
<g id="a_edge16_Node000006_Node000013"><a xlink:title=" ">
<path fill="none" stroke="#9a32cd" stroke-dasharray="5,2" d="M458.9,-105.41C464.76,-148.3 473.16,-249.8 435.62,-322 432.01,-328.96 425.81,-335 419.99,-339.59"/>
<polygon fill="#9a32cd" stroke="#9a32cd" points="462.4,-105.17 457.47,-95.79 455.48,-106.19 462.4,-105.17"/>
</a>
</g>
<text xml:space="preserve" text-anchor="start" x="466.64" y="-205.5" font-family="Helvetica,sans-Serif" font-size="10.00" fill="grey">target_class</text>
</g>
<!-- Node13&#45;&gt;Node13 -->
<g id="edge23_Node000013_Node000013" class="edge">
<title>Node13&#45;&gt;Node13</title>
<g id="a_edge23_Node000013_Node000013"><a xlink:title=" ">
<path fill="none" stroke="#9a32cd" stroke-dasharray="5,2" d="M491.67,-89.81C495.59,-88.7 498.12,-86.76 498.12,-84 498.12,-79.09 490.13,-76.78 480.51,-77.09"/>
<polygon fill="#9a32cd" stroke="#9a32cd" points="491.62,-86.3 482.01,-90.76 492.31,-93.27 491.62,-86.3"/>
</a>
</g>
<text xml:space="preserve" text-anchor="start" x="501.12" y="-80.5" font-family="Helvetica,sans-Serif" font-size="10.00" fill="grey">super</text>
</g>
<!-- Node14&#45;&gt;Node13 -->
<g id="edge17_Node000013_Node000014" class="edge">
<title>Node14&#45;&gt;Node13</title>
<g id="a_edge17_Node000013_Node000014"><a xlink:title=" ">
<path fill="none" stroke="#9a32cd" stroke-dasharray="5,2" d="M584.83,-447.39C582.88,-431.26 580.62,-408.24 580.62,-388 580.62,-388 580.62,-388 580.62,-164 580.62,-117.15 517.1,-96.95 480.62,-89.21"/>
<polygon fill="#9a32cd" stroke="#9a32cd" points="581.34,-447.69 586.08,-457.16 588.28,-446.8 581.34,-447.69"/>
</a>
</g>
<text xml:space="preserve" text-anchor="start" x="583.62" y="-309.5" font-family="Helvetica,sans-Serif" font-size="10.00" fill="grey">iv</text>
</g>
<!-- Node15 -->
<g id="Node000015" class="node">
<title>Node15</title>
<g id="a_Node000015"><a xlink:href="structmt__tbl.html" target="_top" xlink:title=" ">
<polygon fill="white" stroke="#bfbfbf" points="443.12,-175 400.12,-175 400.12,-155 443.12,-155 443.12,-175"/>
<text xml:space="preserve" text-anchor="middle" x="421.62" y="-161.5" font-family="Helvetica,sans-Serif" font-size="10.00">mt_tbl</text>
</a>
</g>
</g>
<!-- Node15&#45;&gt;Node13 -->
<g id="edge19_Node000013_Node000015" class="edge">
<title>Node15&#45;&gt;Node13</title>
<g id="a_edge19_Node000013_Node000015"><a xlink:title=" ">
<path fill="none" stroke="#9a32cd" stroke-dasharray="5,2" d="M427.98,-143.94C431.3,-134.15 435.65,-122.29 440.38,-112 443.16,-105.93 446.82,-99.41 449.86,-94.29"/>
<polygon fill="#9a32cd" stroke="#9a32cd" points="424.74,-142.58 424.96,-153.17 431.39,-144.75 424.74,-142.58"/>
</a>
</g>
<text xml:space="preserve" text-anchor="start" x="443.38" y="-117.5" font-family="Helvetica,sans-Serif" font-size="10.00" fill="grey">mt</text>
</g>
<!-- Node16&#45;&gt;Node15 -->
<g id="edge20_Node000015_Node000016" class="edge">
<title>Node16&#45;&gt;Node15</title>
<g id="a_edge20_Node000015_Node000016"><a xlink:title=" ">
<path fill="none" stroke="#9a32cd" stroke-dasharray="5,2" d="M410.69,-239.4C413.66,-219.46 418.03,-190.14 420.24,-175.32"/>
<polygon fill="#9a32cd" stroke="#9a32cd" points="407.25,-238.74 409.24,-249.15 414.18,-239.77 407.25,-238.74"/>
</a>
</g>
<text xml:space="preserve" text-anchor="start" x="419.29" y="-205.5" font-family="Helvetica,sans-Serif" font-size="10.00" fill="grey">ptr</text>
</g>
<!-- Node17&#45;&gt;Node5 -->
<g id="edge28_Node000005_Node000017" class="edge">
<title>Node17&#45;&gt;Node5</title>
<g id="a_edge28_Node000005_Node000017"><a xlink:title=" ">
<path fill="none" stroke="#9a32cd" stroke-dasharray="5,2" d="M170.71,-402.79C174.48,-388.47 178.62,-368.73 178.62,-351 178.62,-351 178.62,-351 178.62,-83 178.62,-21.37 271.1,-11.14 323.11,-10.26"/>
<polygon fill="#9a32cd" stroke="#9a32cd" points="167.36,-401.76 168.01,-412.33 174.1,-403.67 167.36,-401.76"/>
</a>
</g>
<text xml:space="preserve" text-anchor="start" x="181.62" y="-205.5" font-family="Helvetica,sans-Serif" font-size="10.00" fill="grey">env</text>
</g>
<!-- Node17&#45;&gt;Node6 -->
<g id="edge24_Node000006_Node000017" class="edge">
<title>Node17&#45;&gt;Node6</title>
<g id="a_edge24_Node000006_Node000017"><a xlink:title=" ">
<path fill="none" stroke="#9a32cd" stroke-dasharray="5,2" d="M196.16,-413.58C245.66,-398.79 340.38,-370.49 383.39,-357.64"/>
<polygon fill="#9a32cd" stroke="#9a32cd" points="195.2,-410.21 186.62,-416.43 197.21,-416.92 195.2,-410.21"/>
</a>
</g>
<text xml:space="preserve" text-anchor="start" x="316.8" y="-383.5" font-family="Helvetica,sans-Serif" font-size="10.00" fill="grey">env</text>
</g>
</g>
</svg>
