<?xml version="1.0" encoding="UTF-8" standalone="no"?>
<!DOCTYPE svg PUBLIC "-//W3C//DTD SVG 1.1//EN"
 "http://www.w3.org/Graphics/SVG/1.1/DTD/svg11.dtd">
<!-- Generated by graphviz version 14.0.5 (0)
 -->
<!-- Title: h2load::Client Pages: 1 -->
<svg width="562pt" height="224pt"
 viewBox="0.00 0.00 562.00 224.00" xmlns="http://www.w3.org/2000/svg" xmlns:xlink="http://www.w3.org/1999/xlink">
<g id="graph0" class="graph" transform="scale(1 1) rotate(0) translate(4 220.42)">
<title>h2load::Client</title>
<!-- Node1 -->
<g id="Node000001" class="node">
<title>Node1</title>
<g id="a_Node000001"><a xlink:title=" ">
<polygon fill="#999999" stroke="#666666" points="554.25,-120 478.25,-120 478.25,-100 554.25,-100 554.25,-120"/>
<text xml:space="preserve" text-anchor="middle" x="516.25" y="-106.5" font-family="Helvetica,sans-Serif" font-size="10.00">h2load::Client</text>
</a>
</g>
</g>
<!-- Node2 -->
<g id="Node000002" class="node">
<title>Node2</title>
<g id="a_Node000002"><a xlink:href="structnghttp2_1_1Memchunks.html" target="_top" xlink:title=" ">
<polygon fill="white" stroke="#bfbfbf" points="392,-191 284.5,-191 284.5,-159 392,-159 392,-191"/>
<text xml:space="preserve" text-anchor="start" x="292.5" y="-177.5" font-family="Helvetica,sans-Serif" font-size="10.00">nghttp2::Memchunks</text>
<text xml:space="preserve" text-anchor="middle" x="338.25" y="-165.5" font-family="Helvetica,sans-Serif" font-size="10.00">&lt; Memchunk16K &gt;</text>
</a>
</g>
</g>
<!-- Node2&#45;&gt;Node1 -->
<g id="edge1_Node000001_Node000002" class="edge">
<title>Node2&#45;&gt;Node1</title>
<g id="a_edge1_Node000001_Node000002"><a xlink:title=" ">
<path fill="none" stroke="#9a32cd" stroke-dasharray="5,2" d="M403.33,-162.42C422.07,-157.72 442.32,-151.63 460.25,-144 475.12,-137.67 490.67,-127.7 501.42,-120.2"/>
<polygon fill="#9a32cd" stroke="#9a32cd" points="402.58,-159 393.68,-164.74 404.22,-165.8 402.58,-159"/>
</a>
</g>
<text xml:space="preserve" text-anchor="start" x="428.75" y="-165.78" font-family="Helvetica,sans-Serif" font-size="10.00" fill="grey">wb</text>
</g>
<!-- Node3 -->
<g id="Node000003" class="node">
<title>Node3</title>
<g id="a_Node000003"><a xlink:href="structh2load_1_1ClientStat.html" target="_top" xlink:title=" ">
<polygon fill="white" stroke="#bfbfbf" points="385.25,-141 291.25,-141 291.25,-121 385.25,-121 385.25,-141"/>
<text xml:space="preserve" text-anchor="middle" x="338.25" y="-127.5" font-family="Helvetica,sans-Serif" font-size="10.00">h2load::ClientStat</text>
</a>
</g>
</g>
<!-- Node3&#45;&gt;Node1 -->
<g id="edge2_Node000001_Node000003" class="edge">
<title>Node3&#45;&gt;Node1</title>
<g id="a_edge2_Node000001_Node000003"><a xlink:title=" ">
<path fill="none" stroke="#9a32cd" stroke-dasharray="5,2" d="M396.63,-124.15C423.32,-120.97 454.29,-117.27 477.89,-114.46"/>
<polygon fill="#9a32cd" stroke="#9a32cd" points="396.51,-120.64 386.99,-125.3 397.34,-127.59 396.51,-120.64"/>
</a>
</g>
<text xml:space="preserve" text-anchor="start" x="424.25" y="-127.88" font-family="Helvetica,sans-Serif" font-size="10.00" fill="grey">cstat</text>
</g>
<!-- Node4 -->
<g id="Node000004" class="node">
<title>Node4</title>
<g id="a_Node000004"><a xlink:href="structh2load_1_1Worker.html" target="_top" xlink:title=" ">
<polygon fill="white" stroke="#bfbfbf" points="378.88,-102 297.62,-102 297.62,-82 378.88,-82 378.88,-102"/>
<text xml:space="preserve" text-anchor="middle" x="338.25" y="-88.5" font-family="Helvetica,sans-Serif" font-size="10.00">h2load::Worker</text>
</a>
</g>
</g>
<!-- Node4&#45;&gt;Node1 -->
<g id="edge3_Node000001_Node000004" class="edge">
<title>Node4&#45;&gt;Node1</title>
<g id="a_edge3_Node000001_Node000004"><a xlink:title=" ">
<path fill="none" stroke="#9a32cd" stroke-dasharray="5,2" d="M390.58,-87.65C412.22,-86.83 437.6,-87.2 460.25,-91 470.51,-92.72 481.42,-96.13 490.79,-99.6"/>
<polygon fill="#9a32cd" stroke="#9a32cd" points="390.64,-84.14 380.82,-88.12 390.98,-91.13 390.64,-84.14"/>
</a>
</g>
<text xml:space="preserve" text-anchor="start" x="420.5" y="-96.5" font-family="Helvetica,sans-Serif" font-size="10.00" fill="grey">worker</text>
</g>
<!-- Node5 -->
<g id="Node000005" class="node">
<title>Node5</title>
<g id="a_Node000005"><a xlink:href="structnghttp2_1_1Pool.html" target="_top" xlink:title=" ">
<polygon fill="white" stroke="#bfbfbf" points="157,-200 0,-200 0,-180 157,-180 157,-200"/>
<text xml:space="preserve" text-anchor="middle" x="78.5" y="-186.5" font-family="Helvetica,sans-Serif" font-size="10.00">nghttp2::Pool&lt; Memchunk16K &gt;</text>
</a>
</g>
</g>
<!-- Node5&#45;&gt;Node4 -->
<g id="edge4_Node000004_Node000005" class="edge">
<title>Node5&#45;&gt;Node4</title>
<g id="a_edge4_Node000004_Node000005"><a xlink:title=" ">
<path fill="none" stroke="#9a32cd" stroke-dasharray="5,2" d="M168.43,-198.9C202.45,-197.7 239.51,-190.2 266.5,-168 286.69,-151.39 266.5,-130.95 284.5,-112 288.21,-108.09 292.76,-104.94 297.62,-102.4"/>
<polygon fill="#9a32cd" stroke="#9a32cd" points="168.49,-195.4 158.55,-199.05 168.6,-202.4 168.49,-195.4"/>
</a>
</g>
<text xml:space="preserve" text-anchor="start" x="205" y="-203.92" font-family="Helvetica,sans-Serif" font-size="10.00" fill="grey">mcpool</text>
</g>
<!-- Node6 -->
<g id="Node000006" class="node">
<title>Node6</title>
<g id="a_Node000006"><a xlink:href="structh2load_1_1Stats.html" target="_top" xlink:title=" ">
<polygon fill="white" stroke="#bfbfbf" points="115.38,-159 41.62,-159 41.62,-139 115.38,-139 115.38,-159"/>
<text xml:space="preserve" text-anchor="middle" x="78.5" y="-145.5" font-family="Helvetica,sans-Serif" font-size="10.00">h2load::Stats</text>
</a>
</g>
</g>
<!-- Node6&#45;&gt;Node4 -->
<g id="edge5_Node000004_Node000006" class="edge">
<title>Node6&#45;&gt;Node4</title>
<g id="a_edge5_Node000004_Node000006"><a xlink:title=" ">
<path fill="none" stroke="#9a32cd" stroke-dasharray="5,2" d="M127.14,-150.76C166.13,-150.5 221.9,-146.17 266.5,-127 276.07,-122.89 275.51,-117.25 284.5,-112 290.76,-108.35 297.81,-105.13 304.66,-102.41"/>
<polygon fill="#9a32cd" stroke="#9a32cd" points="127.39,-147.26 117.38,-150.73 127.37,-154.26 127.39,-147.26"/>
</a>
</g>
<text xml:space="preserve" text-anchor="start" x="209.88" y="-153.62" font-family="Helvetica,sans-Serif" font-size="10.00" fill="grey">stats</text>
</g>
<!-- Node7 -->
<g id="Node000007" class="node">
<title>Node7</title>
<g id="a_Node000007"><a xlink:href="structh2load_1_1Sampling.html" target="_top" xlink:title=" ">
<polygon fill="white" stroke="#bfbfbf" points="124,-102 33,-102 33,-82 124,-82 124,-102"/>
<text xml:space="preserve" text-anchor="middle" x="78.5" y="-88.5" font-family="Helvetica,sans-Serif" font-size="10.00">h2load::Sampling</text>
</a>
</g>
</g>
<!-- Node7&#45;&gt;Node4 -->
<g id="edge6_Node000004_Node000007" class="edge">
<title>Node7&#45;&gt;Node4</title>
<g id="a_edge6_Node000004_Node000007"><a xlink:title=" ">
<path fill="none" stroke="#9a32cd" stroke-dasharray="5,2" d="M135.73,-92C184.62,-92 254.22,-92 297.52,-92"/>
<polygon fill="#9a32cd" stroke="#9a32cd" points="135.91,-88.5 125.91,-92 135.91,-95.5 135.91,-88.5"/>
</a>
</g>
<text xml:space="preserve" text-anchor="start" x="178" y="-113.5" font-family="Helvetica,sans-Serif" font-size="10.00" fill="grey">client_smp</text>
<text xml:space="preserve" text-anchor="start" x="178" y="-97.5" font-family="Helvetica,sans-Serif" font-size="10.00" fill="grey">request_times_smp</text>
</g>
<!-- Node8 -->
<g id="Node000008" class="node">
<title>Node8</title>
<g id="a_Node000008"><a xlink:href="structh2load_1_1Config.html" target="_top" xlink:title=" ">
<polygon fill="white" stroke="#bfbfbf" points="118,-61 39,-61 39,-41 118,-41 118,-61"/>
<text xml:space="preserve" text-anchor="middle" x="78.5" y="-47.5" font-family="Helvetica,sans-Serif" font-size="10.00">h2load::Config</text>
</a>
</g>
</g>
<!-- Node8&#45;&gt;Node4 -->
<g id="edge7_Node000004_Node000008" class="edge">
<title>Node8&#45;&gt;Node4</title>
<g id="a_edge7_Node000004_Node000008"><a xlink:title=" ">
<path fill="none" stroke="#9a32cd" stroke-dasharray="5,2" d="M129.41,-53.35C167.31,-55.79 220.57,-60.62 266.5,-70 280.49,-72.86 295.65,-77.37 308.33,-81.57"/>
<polygon fill="#9a32cd" stroke="#9a32cd" points="129.87,-49.87 119.67,-52.76 129.44,-56.86 129.87,-49.87"/>
</a>
</g>
<text xml:space="preserve" text-anchor="start" x="207.62" y="-75.5" font-family="Helvetica,sans-Serif" font-size="10.00" fill="grey">config</text>
</g>
<!-- Node9 -->
<g id="Node000009" class="node">
<title>Node9</title>
<g id="a_Node000009"><a xlink:href="structnghttp2_1_1Address.html" target="_top" xlink:title=" ">
<polygon fill="white" stroke="#bfbfbf" points="383.38,-31 293.12,-31 293.12,-11 383.38,-11 383.38,-31"/>
<text xml:space="preserve" text-anchor="middle" x="338.25" y="-17.5" font-family="Helvetica,sans-Serif" font-size="10.00">nghttp2::Address</text>
</a>
</g>
</g>
<!-- Node9&#45;&gt;Node1 -->
<g id="edge8_Node000001_Node000009" class="edge">
<title>Node9&#45;&gt;Node1</title>
<g id="a_edge8_Node000001_Node000009"><a xlink:title=" ">
<path fill="none" stroke="#9a32cd" stroke-dasharray="5,2" d="M388.76,-34.82C411.35,-42.17 437.96,-52.32 460.25,-65 477.19,-74.64 494.17,-89.52 504.69,-99.5"/>
<polygon fill="#9a32cd" stroke="#9a32cd" points="390.07,-31.57 379.48,-31.9 387.97,-38.24 390.07,-31.57"/>
</a>
</g>
<text xml:space="preserve" text-anchor="start" x="413" y="-70.5" font-family="Helvetica,sans-Serif" font-size="10.00" fill="grey">local_addr</text>
</g>
<!-- Node10 -->
<g id="Node000010" class="node">
<title>Node10</title>
<g id="a_Node000010"><a xlink:href="unionnghttp2_1_1sockaddr__union.html" target="_top" xlink:title=" ">
<polygon fill="white" stroke="#bfbfbf" points="139.75,-20 17.25,-20 17.25,0 139.75,0 139.75,-20"/>
<text xml:space="preserve" text-anchor="middle" x="78.5" y="-6.5" font-family="Helvetica,sans-Serif" font-size="10.00">nghttp2::sockaddr_union</text>
</a>
</g>
</g>
<!-- Node10&#45;&gt;Node9 -->
<g id="edge9_Node000009_Node000010" class="edge">
<title>Node10&#45;&gt;Node9</title>
<g id="a_edge9_Node000009_Node000010"><a xlink:title=" ">
<path fill="none" stroke="#9a32cd" stroke-dasharray="5,2" d="M151.7,-8.12C186.45,-7.79 228.68,-8.24 266.5,-11 275.04,-11.62 284.11,-12.64 292.81,-13.79"/>
<polygon fill="#9a32cd" stroke="#9a32cd" points="151.69,-4.62 141.73,-8.24 151.77,-11.62 151.69,-4.62"/>
</a>
</g>
<text xml:space="preserve" text-anchor="start" x="215.5" y="-16.5" font-family="Helvetica,sans-Serif" font-size="10.00" fill="grey">su</text>
</g>
</g>
</svg>
