<?xml version="1.0" encoding="UTF-8" standalone="no"?>
<!DOCTYPE svg PUBLIC "-//W3C//DTD SVG 1.1//EN"
 "http://www.w3.org/Graphics/SVG/1.1/DTD/svg11.dtd">
<!-- Generated by graphviz version 14.0.5 (0)
 -->
<!-- Title: mrb_parser_heredoc_info Pages: 1 -->
<svg width="147pt" height="132pt"
 viewBox="0.00 0.00 147.00 132.00" xmlns="http://www.w3.org/2000/svg" xmlns:xlink="http://www.w3.org/1999/xlink">
<g id="graph0" class="graph" transform="scale(1 1) rotate(0) translate(4 128)">
<title>mrb_parser_heredoc_info</title>
<!-- Node1 -->
<g id="Node000001" class="node">
<title>Node1</title>
<g id="a_Node000001"><a xlink:title=" ">
<polygon fill="#999999" stroke="#666666" points="125.5,-20 0,-20 0,0 125.5,0 125.5,-20"/>
<text xml:space="preserve" text-anchor="middle" x="62.75" y="-6.5" font-family="Helvetica,sans-Serif" font-size="10.00">mrb_parser_heredoc_info</text>
</a>
</g>
</g>
<!-- Node2 -->
<g id="Node000002" class="node">
<title>Node2</title>
<g id="a_Node000002"><a xlink:href="structmrb__ast__node.html" target="_top" xlink:title=" ">
<polygon fill="white" stroke="#bfbfbf" points="101.5,-117 24,-117 24,-97 101.5,-97 101.5,-117"/>
<text xml:space="preserve" text-anchor="middle" x="62.75" y="-103.5" font-family="Helvetica,sans-Serif" font-size="10.00">mrb_ast_node</text>
</a>
</g>
</g>
<!-- Node2&#45;&gt;Node1 -->
<g id="edge1_Node000001_Node000002" class="edge">
<title>Node2&#45;&gt;Node1</title>
<g id="a_edge1_Node000001_Node000002"><a xlink:title=" ">
<path fill="none" stroke="#9a32cd" stroke-dasharray="5,2" d="M62.75,-85.18C62.75,-65.03 62.75,-35.4 62.75,-20.42"/>
<polygon fill="#9a32cd" stroke="#9a32cd" points="59.25,-85.03 62.75,-95.03 66.25,-85.03 59.25,-85.03"/>
</a>
</g>
<text xml:space="preserve" text-anchor="start" x="65.75" y="-59.5" font-family="Helvetica,sans-Serif" font-size="10.00" fill="grey">doc</text>
<text xml:space="preserve" text-anchor="start" x="65.75" y="-43.5" font-family="Helvetica,sans-Serif" font-size="10.00" fill="grey">indented</text>
</g>
<!-- Node2&#45;&gt;Node2 -->
<g id="edge2_Node000002_Node000002" class="edge">
<title>Node2&#45;&gt;Node2</title>
<g id="a_edge2_Node000002_Node000002"><a xlink:title=" ">
<path fill="none" stroke="#9a32cd" stroke-dasharray="5,2" d="M112.84,-114.5C116.95,-112.88 119.5,-110.38 119.5,-107 119.5,-101.16 111.87,-97.94 101.74,-97.35"/>
<polygon fill="#9a32cd" stroke="#9a32cd" points="112.38,-111.02 103.23,-116.36 113.71,-117.89 112.38,-111.02"/>
</a>
</g>
<text xml:space="preserve" text-anchor="start" x="122.5" y="-111.5" font-family="Helvetica,sans-Serif" font-size="10.00" fill="grey">car</text>
<text xml:space="preserve" text-anchor="start" x="122.5" y="-95.5" font-family="Helvetica,sans-Serif" font-size="10.00" fill="grey">cdr</text>
</g>
</g>
</svg>
