<?xml version="1.0" encoding="UTF-8" standalone="no"?>
<!DOCTYPE svg PUBLIC "-//W3C//DTD SVG 1.1//EN"
 "http://www.w3.org/Graphics/SVG/1.1/DTD/svg11.dtd">
<!-- Generated by graphviz version 14.0.5 (0)
 -->
<!-- Title: shrpx::DownstreamAddrGroupConfig Pages: 1 -->
<svg width="239pt" height="218pt"
 viewBox="0.00 0.00 239.00 218.00" xmlns="http://www.w3.org/2000/svg" xmlns:xlink="http://www.w3.org/1999/xlink">
<g id="graph0" class="graph" transform="scale(1 1) rotate(0) translate(4 214)">
<title>shrpx::DownstreamAddrGroupConfig</title>
<!-- Node1 -->
<g id="Node000001" class="node">
<title>Node1</title>
<g id="a_Node000001"><a xlink:title=" ">
<polygon fill="#999999" stroke="#666666" points="148,-32 0,-32 0,0 148,0 148,-32"/>
<text xml:space="preserve" text-anchor="start" x="8" y="-18.5" font-family="Helvetica,sans-Serif" font-size="10.00">shrpx::DownstreamAddrGroup</text>
<text xml:space="preserve" text-anchor="middle" x="74" y="-6.5" font-family="Helvetica,sans-Serif" font-size="10.00">Config</text>
</a>
</g>
</g>
<!-- Node2 -->
<g id="Node000002" class="node">
<title>Node2</title>
<g id="a_Node000002"><a xlink:href="classnghttp2_1_1StringRef.html" target="_top" xlink:title=" ">
<polygon fill="white" stroke="#bfbfbf" points="121.75,-210 26.25,-210 26.25,-190 121.75,-190 121.75,-210"/>
<text xml:space="preserve" text-anchor="middle" x="74" y="-196.5" font-family="Helvetica,sans-Serif" font-size="10.00">nghttp2::StringRef</text>
</a>
</g>
</g>
<!-- Node2&#45;&gt;Node1 -->
<g id="edge1_Node000001_Node000002" class="edge">
<title>Node2&#45;&gt;Node1</title>
<g id="a_edge1_Node000001_Node000002"><a xlink:title=" ">
<path fill="none" stroke="#9a32cd" stroke-dasharray="5,2" d="M71.34,-178.43C68.73,-155.79 65.37,-118.31 67,-86 67.94,-67.48 70.28,-46.27 72,-32.31"/>
<polygon fill="#9a32cd" stroke="#9a32cd" points="67.83,-178.63 72.52,-188.13 74.78,-177.77 67.83,-178.63"/>
</a>
</g>
<text xml:space="preserve" text-anchor="start" x="70" y="-107.5" font-family="Helvetica,sans-Serif" font-size="10.00" fill="grey">mruby_file</text>
<text xml:space="preserve" text-anchor="start" x="70" y="-91.5" font-family="Helvetica,sans-Serif" font-size="10.00" fill="grey">pattern</text>
</g>
<!-- Node3 -->
<g id="Node000003" class="node">
<title>Node3</title>
<g id="a_Node000003"><a xlink:href="structshrpx_1_1AffinityConfig.html" target="_top" xlink:title=" ">
<polygon fill="white" stroke="#bfbfbf" points="231.25,-113 126.75,-113 126.75,-93 231.25,-93 231.25,-113"/>
<text xml:space="preserve" text-anchor="middle" x="179" y="-99.5" font-family="Helvetica,sans-Serif" font-size="10.00">shrpx::AffinityConfig</text>
</a>
</g>
</g>
<!-- Node2&#45;&gt;Node3 -->
<g id="edge3_Node000003_Node000002" class="edge">
<title>Node2&#45;&gt;Node3</title>
<g id="a_edge3_Node000003_Node000002"><a xlink:title=" ">
<path fill="none" stroke="#9a32cd" stroke-dasharray="5,2" d="M92.73,-182.06C114.87,-162.03 150.93,-129.4 168.59,-113.42"/>
<polygon fill="#9a32cd" stroke="#9a32cd" points="90.64,-179.22 85.57,-188.53 95.34,-184.41 90.64,-179.22"/>
</a>
</g>
<text xml:space="preserve" text-anchor="start" x="141.99" y="-159.5" font-family="Helvetica,sans-Serif" font-size="10.00" fill="grey">name</text>
<text xml:space="preserve" text-anchor="start" x="141.99" y="-143.5" font-family="Helvetica,sans-Serif" font-size="10.00" fill="grey">path</text>
</g>
<!-- Node3&#45;&gt;Node1 -->
<g id="edge2_Node000001_Node000003" class="edge">
<title>Node3&#45;&gt;Node1</title>
<g id="a_edge2_Node000001_Node000003"><a xlink:title=" ">
<path fill="none" stroke="#9a32cd" stroke-dasharray="5,2" d="M158.57,-85.46C139.5,-70.02 111.28,-47.18 92.77,-32.19"/>
<polygon fill="#9a32cd" stroke="#9a32cd" points="156.21,-88.05 166.19,-91.63 160.62,-82.61 156.21,-88.05"/>
</a>
</g>
<text xml:space="preserve" text-anchor="start" x="138.9" y="-55.5" font-family="Helvetica,sans-Serif" font-size="10.00" fill="grey">affinity</text>
</g>
</g>
</svg>
