<?xml version="1.0" encoding="UTF-8" standalone="no"?>
<!DOCTYPE svg PUBLIC "-//W3C//DTD SVG 1.1//EN"
 "http://www.w3.org/Graphics/SVG/1.1/DTD/svg11.dtd">
<!-- Generated by graphviz version 14.0.5 (0)
 -->
<!-- Title: RClass Pages: 1 -->
<svg width="715pt" height="626pt"
 viewBox="0.00 0.00 715.00 626.00" xmlns="http://www.w3.org/2000/svg" xmlns:xlink="http://www.w3.org/1999/xlink">
<g id="graph0" class="graph" transform="scale(1 1) rotate(0) translate(4 622)">
<title>RClass</title>
<!-- Node1 -->
<g id="Node000001" class="node">
<title>Node1</title>
<g id="a_Node000001"><a xlink:title=" ">
<polygon fill="#999999" stroke="#666666" points="213.5,-380 164.5,-380 164.5,-360 213.5,-360 213.5,-380"/>
<text xml:space="preserve" text-anchor="middle" x="189" y="-366.5" font-family="Helvetica,sans-Serif" font-size="10.00">RClass</text>
</a>
</g>
</g>
<!-- Node1&#45;&gt;Node1 -->
<g id="edge30_Node000001_Node000001" class="edge">
<title>Node1&#45;&gt;Node1</title>
<g id="a_edge30_Node000001_Node000001"><a xlink:title=" ">
<path fill="none" stroke="#9a32cd" stroke-dasharray="5,2" d="M225.04,-377.07C228.97,-375.72 231.5,-373.36 231.5,-370 231.5,-364.02 223.5,-361.22 213.88,-361.6"/>
<polygon fill="#9a32cd" stroke="#9a32cd" points="224.9,-373.56 215.39,-378.23 225.73,-380.51 224.9,-373.56"/>
</a>
</g>
<text xml:space="preserve" text-anchor="start" x="234.5" y="-366.5" font-family="Helvetica,sans-Serif" font-size="10.00" fill="grey">super</text>
</g>
<!-- Node7 -->
<g id="Node000007" class="node">
<title>Node7</title>
<g id="a_Node000007"><a xlink:href="structRProc.html" target="_top" xlink:title=" ">
<polygon fill="white" stroke="#bfbfbf" points="286.88,-290 243.12,-290 243.12,-270 286.88,-270 286.88,-290"/>
<text xml:space="preserve" text-anchor="middle" x="265" y="-276.5" font-family="Helvetica,sans-Serif" font-size="10.00">RProc</text>
</a>
</g>
</g>
<!-- Node1&#45;&gt;Node7 -->
<g id="edge16_Node000007_Node000001" class="edge">
<title>Node1&#45;&gt;Node7</title>
<g id="a_edge16_Node000007_Node000001"><a xlink:title=" ">
<path fill="none" stroke="#9a32cd" stroke-dasharray="5,2" d="M195.66,-349.22C200.73,-336.35 208.73,-319.83 219.75,-308 226.48,-300.77 235.59,-294.83 243.87,-290.39"/>
<polygon fill="#9a32cd" stroke="#9a32cd" points="192.47,-347.75 192.34,-358.34 199.05,-350.14 192.47,-347.75"/>
</a>
</g>
<text xml:space="preserve" text-anchor="start" x="222.75" y="-321.5" font-family="Helvetica,sans-Serif" font-size="10.00" fill="grey">target_class</text>
</g>
<!-- Node16 -->
<g id="Node000016" class="node">
<title>Node16</title>
<g id="a_Node000016"><a xlink:href="structmrb__callinfo.html" target="_top" xlink:title=" ">
<polygon fill="white" stroke="#bfbfbf" points="162.25,-200 93.75,-200 93.75,-180 162.25,-180 162.25,-200"/>
<text xml:space="preserve" text-anchor="middle" x="128" y="-186.5" font-family="Helvetica,sans-Serif" font-size="10.00">mrb_callinfo</text>
</a>
</g>
</g>
<!-- Node1&#45;&gt;Node16 -->
<g id="edge26_Node000016_Node000001" class="edge">
<title>Node1&#45;&gt;Node16</title>
<g id="a_edge26_Node000016_Node000001"><a xlink:title=" ">
<path fill="none" stroke="#9a32cd" stroke-dasharray="5,2" d="M175.28,-351.02C164.31,-335.67 149.54,-312.55 141.75,-290 130.82,-258.34 128.56,-218.15 128.1,-200.28"/>
<polygon fill="#9a32cd" stroke="#9a32cd" points="172.17,-352.71 180.92,-358.69 177.81,-348.56 172.17,-352.71"/>
</a>
</g>
<text xml:space="preserve" text-anchor="start" x="144.75" y="-276.5" font-family="Helvetica,sans-Serif" font-size="10.00" fill="grey">target_class</text>
</g>
<!-- Node2 -->
<g id="Node000002" class="node">
<title>Node2</title>
<g id="a_Node000002"><a xlink:href="structiv__tbl.html" target="_top" xlink:title=" ">
<polygon fill="white" stroke="#bfbfbf" points="251.62,-470 212.38,-470 212.38,-450 251.62,-450 251.62,-470"/>
<text xml:space="preserve" text-anchor="middle" x="232" y="-456.5" font-family="Helvetica,sans-Serif" font-size="10.00">iv_tbl</text>
</a>
</g>
</g>
<!-- Node2&#45;&gt;Node1 -->
<g id="edge1_Node000001_Node000002" class="edge">
<title>Node2&#45;&gt;Node1</title>
<g id="a_edge1_Node000001_Node000002"><a xlink:title=" ">
<path fill="none" stroke="#9a32cd" stroke-dasharray="5,2" d="M222.42,-439.4C213.44,-421.02 200.4,-394.34 193.57,-380.35"/>
<polygon fill="#9a32cd" stroke="#9a32cd" points="219.2,-440.77 226.73,-448.22 225.49,-437.7 219.2,-440.77"/>
</a>
</g>
<text xml:space="preserve" text-anchor="start" x="221.09" y="-411.5" font-family="Helvetica,sans-Serif" font-size="10.00" fill="grey">iv</text>
</g>
<!-- Node3 -->
<g id="Node000003" class="node">
<title>Node3</title>
<g id="a_Node000003"><a xlink:href="structmrb__value.html" target="_top" xlink:title=" ">
<polygon fill="white" stroke="#bfbfbf" points="293.5,-544 232.5,-544 232.5,-524 293.5,-524 293.5,-544"/>
<text xml:space="preserve" text-anchor="middle" x="263" y="-530.5" font-family="Helvetica,sans-Serif" font-size="10.00">mrb_value</text>
</a>
</g>
</g>
<!-- Node3&#45;&gt;Node2 -->
<g id="edge2_Node000002_Node000003" class="edge">
<title>Node3&#45;&gt;Node2</title>
<g id="a_edge2_Node000002_Node000003"><a xlink:title=" ">
<path fill="none" stroke="#9a32cd" stroke-dasharray="5,2" d="M254.4,-513.02C248.37,-499.01 240.58,-480.93 235.96,-470.19"/>
<polygon fill="#9a32cd" stroke="#9a32cd" points="251.18,-514.4 258.35,-522.2 257.61,-511.63 251.18,-514.4"/>
</a>
</g>
<text xml:space="preserve" text-anchor="start" x="254.19" y="-493.5" font-family="Helvetica,sans-Serif" font-size="10.00" fill="grey">ptr</text>
</g>
<!-- Node6 -->
<g id="Node000006" class="node">
<title>Node6</title>
<g id="a_Node000006"><a xlink:href="unionmt__ptr.html" target="_top" xlink:title=" ">
<polygon fill="white" stroke="#bfbfbf" points="308.88,-200 265.12,-200 265.12,-180 308.88,-180 308.88,-200"/>
<text xml:space="preserve" text-anchor="middle" x="287" y="-186.5" font-family="Helvetica,sans-Serif" font-size="10.00">mt_ptr</text>
</a>
</g>
</g>
<!-- Node3&#45;&gt;Node6 -->
<g id="edge29_Node000006_Node000003" class="edge">
<title>Node3&#45;&gt;Node6</title>
<g id="a_edge29_Node000006_Node000003"><a xlink:title=" ">
<path fill="none" stroke="#9a32cd" stroke-dasharray="5,2" d="M280.47,-515.13C282.85,-512.21 285.11,-509.12 287,-506 327.33,-439.33 334.99,-418.65 349,-342 354.77,-310.45 355.35,-300 344,-270 334.14,-243.94 325.59,-240.38 309,-218 304.53,-211.98 299.23,-205.45 294.95,-200.33"/>
<polygon fill="#9a32cd" stroke="#9a32cd" points="277.89,-512.77 273.83,-522.56 283.11,-517.43 277.89,-512.77"/>
</a>
</g>
<text xml:space="preserve" text-anchor="start" x="348.41" y="-366.5" font-family="Helvetica,sans-Serif" font-size="10.00" fill="grey">func</text>
</g>
<!-- Node3&#45;&gt;Node7 -->
<g id="edge14_Node000007_Node000003" class="edge">
<title>Node3&#45;&gt;Node7</title>
<g id="a_edge14_Node000007_Node000003"><a xlink:title=" ">
<path fill="none" stroke="#9a32cd" stroke-dasharray="5,2" d="M270.38,-512.89C271.02,-510.59 271.58,-508.26 272,-506 285.22,-434.25 277.44,-414.94 279,-342 279.32,-326.89 282.58,-322.68 279,-308 277.45,-301.64 274.12,-295.11 271.09,-290.06"/>
<polygon fill="#9a32cd" stroke="#9a32cd" points="267.11,-511.64 267.3,-522.24 273.75,-513.83 267.11,-511.64"/>
</a>
</g>
<text xml:space="preserve" text-anchor="start" x="282.88" y="-411.5" font-family="Helvetica,sans-Serif" font-size="10.00" fill="grey">func</text>
</g>
<!-- Node14 -->
<g id="Node000014" class="node">
<title>Node14</title>
<g id="a_Node000014"><a xlink:href="structREnv.html" target="_top" xlink:title=" ">
<polygon fill="white" stroke="#666666" points="194.38,-20 153.62,-20 153.62,0 194.38,0 194.38,-20"/>
<text xml:space="preserve" text-anchor="middle" x="174" y="-6.5" font-family="Helvetica,sans-Serif" font-size="10.00">REnv</text>
</a>
</g>
</g>
<!-- Node3&#45;&gt;Node14 -->
<g id="edge18_Node000014_Node000003" class="edge">
<title>Node3&#45;&gt;Node14</title>
<g id="a_edge18_Node000014_Node000003"><a xlink:title=" ">
<path fill="none" stroke="#9a32cd" stroke-dasharray="5,2" d="M304.98,-531.32C393.82,-527.56 595.13,-517.84 624,-506 652.59,-494.27 677,-491.9 677,-461 677,-461 677,-461 677,-83 677,-33.43 289.31,-15.4 194.66,-11.74"/>
<polygon fill="#9a32cd" stroke="#9a32cd" points="305.07,-527.81 295.23,-531.73 305.36,-534.81 305.07,-527.81"/>
</a>
</g>
<text xml:space="preserve" text-anchor="start" x="680" y="-276.5" font-family="Helvetica,sans-Serif" font-size="10.00" fill="grey">stack</text>
</g>
<!-- Node15 -->
<g id="Node000015" class="node">
<title>Node15</title>
<g id="a_Node000015"><a xlink:href="structmrb__context.html" target="_top" xlink:title=" ">
<polygon fill="white" stroke="#bfbfbf" points="70,-94 0,-94 0,-74 70,-74 70,-94"/>
<text xml:space="preserve" text-anchor="middle" x="35" y="-80.5" font-family="Helvetica,sans-Serif" font-size="10.00">mrb_context</text>
</a>
</g>
</g>
<!-- Node3&#45;&gt;Node15 -->
<g id="edge21_Node000015_Node000003" class="edge">
<title>Node3&#45;&gt;Node15</title>
<g id="a_edge21_Node000015_Node000003"><a xlink:title=" ">
<path fill="none" stroke="#9a32cd" stroke-dasharray="5,2" d="M221.02,-532.58C184.47,-530.83 130.77,-524.85 88,-506 58.78,-493.13 32,-492.93 32,-461 32,-461 32,-461 32,-189 32,-154.14 33.71,-112.73 34.54,-94.46"/>
<polygon fill="#9a32cd" stroke="#9a32cd" points="220.62,-536.07 230.74,-532.95 220.89,-529.07 220.62,-536.07"/>
</a>
</g>
<text xml:space="preserve" text-anchor="start" x="35" y="-329.5" font-family="Helvetica,sans-Serif" font-size="10.00" fill="grey">stbase</text>
<text xml:space="preserve" text-anchor="start" x="35" y="-313.5" font-family="Helvetica,sans-Serif" font-size="10.00" fill="grey">stend</text>
</g>
<!-- Node3&#45;&gt;Node16 -->
<g id="edge24_Node000016_Node000003" class="edge">
<title>Node3&#45;&gt;Node16</title>
<g id="a_edge24_Node000016_Node000003"><a xlink:title=" ">
<path fill="none" stroke="#9a32cd" stroke-dasharray="5,2" d="M221.09,-533.74C167.63,-532.24 82,-520.55 82,-461 82,-461 82,-461 82,-279 82,-247.28 105.76,-215.7 119.13,-200.44"/>
<polygon fill="#9a32cd" stroke="#9a32cd" points="220.73,-537.23 230.78,-533.9 220.84,-530.24 220.73,-537.23"/>
</a>
</g>
<text xml:space="preserve" text-anchor="start" x="85" y="-366.5" font-family="Helvetica,sans-Serif" font-size="10.00" fill="grey">stack</text>
</g>
<!-- Node4 -->
<g id="Node000004" class="node">
<title>Node4</title>
<g id="a_Node000004"><a xlink:href="unionmrb__value__union.html" target="_top" xlink:title=" ">
<polygon fill="white" stroke="#bfbfbf" points="307.75,-618 218.25,-618 218.25,-598 307.75,-598 307.75,-618"/>
<text xml:space="preserve" text-anchor="middle" x="263" y="-604.5" font-family="Helvetica,sans-Serif" font-size="10.00">mrb_value_union</text>
</a>
</g>
</g>
<!-- Node4&#45;&gt;Node3 -->
<g id="edge3_Node000003_Node000004" class="edge">
<title>Node4&#45;&gt;Node3</title>
<g id="a_edge3_Node000003_Node000004"><a xlink:title=" ">
<path fill="none" stroke="#9a32cd" stroke-dasharray="5,2" d="M263,-586.18C263,-572.29 263,-554.71 263,-544.19"/>
<polygon fill="#9a32cd" stroke="#9a32cd" points="259.5,-586.07 263,-596.07 266.5,-586.07 259.5,-586.07"/>
</a>
</g>
<text xml:space="preserve" text-anchor="start" x="266" y="-567.5" font-family="Helvetica,sans-Serif" font-size="10.00" fill="grey">value</text>
</g>
<!-- Node5 -->
<g id="Node000005" class="node">
<title>Node5</title>
<g id="a_Node000005"><a xlink:href="structmt__tbl.html" target="_top" xlink:title=" ">
<polygon fill="white" stroke="#bfbfbf" points="285.5,-94 242.5,-94 242.5,-74 285.5,-74 285.5,-94"/>
<text xml:space="preserve" text-anchor="middle" x="264" y="-80.5" font-family="Helvetica,sans-Serif" font-size="10.00">mt_tbl</text>
</a>
</g>
</g>
<!-- Node5&#45;&gt;Node1 -->
<g id="edge4_Node000001_Node000005" class="edge">
<title>Node5&#45;&gt;Node1</title>
<g id="a_edge4_Node000001_Node000005"><a xlink:title=" ">
<path fill="none" stroke="#9a32cd" stroke-dasharray="5,2" d="M257.5,-105.05C245.09,-143.9 217.65,-232.25 200,-308 195.75,-326.24 192.2,-347.86 190.35,-359.85"/>
<polygon fill="#9a32cd" stroke="#9a32cd" points="260.78,-106.29 260.51,-95.7 254.12,-104.15 260.78,-106.29"/>
</a>
</g>
<text xml:space="preserve" text-anchor="start" x="225.83" y="-231.5" font-family="Helvetica,sans-Serif" font-size="10.00" fill="grey">mt</text>
</g>
<!-- Node6&#45;&gt;Node5 -->
<g id="edge5_Node000005_Node000006" class="edge">
<title>Node6&#45;&gt;Node5</title>
<g id="a_edge5_Node000005_Node000006"><a xlink:title=" ">
<path fill="none" stroke="#9a32cd" stroke-dasharray="5,2" d="M282.54,-168.82C277.57,-146.37 269.76,-111.06 266.07,-94.36"/>
<polygon fill="#9a32cd" stroke="#9a32cd" points="279.06,-169.28 284.63,-178.29 285.89,-167.77 279.06,-169.28"/>
</a>
</g>
<text xml:space="preserve" text-anchor="start" x="283.83" y="-133.5" font-family="Helvetica,sans-Serif" font-size="10.00" fill="grey">ptr</text>
</g>
<!-- Node7&#45;&gt;Node6 -->
<g id="edge6_Node000006_Node000007" class="edge">
<title>Node7&#45;&gt;Node6</title>
<g id="a_edge6_Node000006_Node000007"><a xlink:title=" ">
<path fill="none" stroke="#9a32cd" stroke-dasharray="5,2" d="M270.1,-258.61C274.68,-240.27 281.22,-214.14 284.66,-200.35"/>
<polygon fill="#9a32cd" stroke="#9a32cd" points="266.75,-257.56 267.72,-268.11 273.54,-259.26 266.75,-257.56"/>
</a>
</g>
<text xml:space="preserve" text-anchor="start" x="282.88" y="-231.5" font-family="Helvetica,sans-Serif" font-size="10.00" fill="grey">proc</text>
</g>
<!-- Node7&#45;&gt;Node7 -->
<g id="edge15_Node000007_Node000007" class="edge">
<title>Node7&#45;&gt;Node7</title>
<g id="a_edge15_Node000007_Node000007"><a xlink:title=" ">
<path fill="none" stroke="#9a32cd" stroke-dasharray="5,2" d="M298.32,-287.24C302.29,-285.93 304.88,-283.51 304.88,-280 304.88,-273.76 296.7,-270.98 287.14,-271.66"/>
<polygon fill="#9a32cd" stroke="#9a32cd" points="298.26,-283.73 288.65,-288.19 298.94,-290.7 298.26,-283.73"/>
</a>
</g>
<text xml:space="preserve" text-anchor="start" x="307.88" y="-276.5" font-family="Helvetica,sans-Serif" font-size="10.00" fill="grey">upper</text>
</g>
<!-- Node7&#45;&gt;Node16 -->
<g id="edge23_Node000016_Node000007" class="edge">
<title>Node7&#45;&gt;Node16</title>
<g id="a_edge23_Node000016_Node000007"><a xlink:title=" ">
<path fill="none" stroke="#9a32cd" stroke-dasharray="5,2" d="M231.44,-276.87C209.79,-273.99 182.07,-267.32 162.25,-252 153.22,-245.02 138.98,-215.39 132.05,-200.15"/>
<polygon fill="#9a32cd" stroke="#9a32cd" points="230.93,-280.33 241.25,-277.94 231.7,-273.37 230.93,-280.33"/>
</a>
</g>
<text xml:space="preserve" text-anchor="start" x="165.25" y="-239.5" font-family="Helvetica,sans-Serif" font-size="10.00" fill="grey">blk</text>
<text xml:space="preserve" text-anchor="start" x="165.25" y="-223.5" font-family="Helvetica,sans-Serif" font-size="10.00" fill="grey">proc</text>
</g>
<!-- Node8 -->
<g id="Node000008" class="node">
<title>Node8</title>
<g id="a_Node000008"><a xlink:href="structmrb__irep.html" target="_top" xlink:title=" ">
<polygon fill="white" stroke="#bfbfbf" points="480.75,-380 427.25,-380 427.25,-360 480.75,-360 480.75,-380"/>
<text xml:space="preserve" text-anchor="middle" x="454" y="-366.5" font-family="Helvetica,sans-Serif" font-size="10.00">mrb_irep</text>
</a>
</g>
</g>
<!-- Node8&#45;&gt;Node7 -->
<g id="edge7_Node000007_Node000008" class="edge">
<title>Node8&#45;&gt;Node7</title>
<g id="a_edge7_Node000007_Node000008"><a xlink:title=" ">
<path fill="none" stroke="#9a32cd" stroke-dasharray="5,2" d="M423.6,-354.84C384.76,-336.76 318.62,-305.97 285.37,-290.48"/>
<polygon fill="#9a32cd" stroke="#9a32cd" points="421.86,-357.9 432.4,-358.94 424.81,-351.55 421.86,-357.9"/>
</a>
</g>
<text xml:space="preserve" text-anchor="start" x="395.87" y="-321.5" font-family="Helvetica,sans-Serif" font-size="10.00" fill="grey">irep</text>
</g>
<!-- Node8&#45;&gt;Node8 -->
<g id="edge10_Node000008_Node000008" class="edge">
<title>Node8&#45;&gt;Node8</title>
<g id="a_edge10_Node000008_Node000008"><a xlink:title=" ">
<path fill="none" stroke="#9a32cd" stroke-dasharray="5,2" d="M492.31,-376.95C496.24,-375.58 498.75,-373.26 498.75,-370 498.75,-364.2 490.82,-361.39 481.09,-361.57"/>
<polygon fill="#9a32cd" stroke="#9a32cd" points="492.05,-373.45 482.59,-378.23 492.96,-380.39 492.05,-373.45"/>
</a>
</g>
<text xml:space="preserve" text-anchor="start" x="501.75" y="-366.5" font-family="Helvetica,sans-Serif" font-size="10.00" fill="grey">reps</text>
</g>
<!-- Node9 -->
<g id="Node000009" class="node">
<title>Node9</title>
<g id="a_Node000009"><a xlink:href="structmrb__pool__value.html" target="_top" xlink:title=" ">
<polygon fill="white" stroke="#bfbfbf" points="525.12,-470 440.88,-470 440.88,-450 525.12,-450 525.12,-470"/>
<text xml:space="preserve" text-anchor="middle" x="483" y="-456.5" font-family="Helvetica,sans-Serif" font-size="10.00">mrb_pool_value</text>
</a>
</g>
</g>
<!-- Node9&#45;&gt;Node8 -->
<g id="edge8_Node000008_Node000009" class="edge">
<title>Node9&#45;&gt;Node8</title>
<g id="a_edge8_Node000008_Node000009"><a xlink:title=" ">
<path fill="none" stroke="#9a32cd" stroke-dasharray="5,2" d="M476.37,-438.88C470.32,-420.52 461.65,-394.2 457.08,-380.35"/>
<polygon fill="#9a32cd" stroke="#9a32cd" points="472.97,-439.74 479.42,-448.14 479.62,-437.55 472.97,-439.74"/>
</a>
</g>
<text xml:space="preserve" text-anchor="start" x="476.62" y="-411.5" font-family="Helvetica,sans-Serif" font-size="10.00" fill="grey">pool</text>
</g>
<!-- Node10 -->
<g id="Node000010" class="node">
<title>Node10</title>
<g id="a_Node000010"><a xlink:href="classmrb__sym.html" target="_top" xlink:title=" ">
<polygon fill="white" stroke="#666666" points="423.25,-470 366.75,-470 366.75,-450 423.25,-450 423.25,-470"/>
<text xml:space="preserve" text-anchor="middle" x="395" y="-456.5" font-family="Helvetica,sans-Serif" font-size="10.00">mrb_sym</text>
</a>
</g>
</g>
<!-- Node10&#45;&gt;Node8 -->
<g id="edge9_Node000008_Node000010" class="edge">
<title>Node10&#45;&gt;Node8</title>
<g id="a_edge9_Node000008_Node000010"><a xlink:title=" ">
<path fill="none" stroke="#9a32cd" stroke-dasharray="5,2" d="M404.2,-439.81C410.49,-427.43 419.41,-411.22 429,-398 433.65,-391.59 439.66,-385.05 444.62,-380.02"/>
<polygon fill="#9a32cd" stroke="#9a32cd" points="401.17,-438.04 399.88,-448.55 407.45,-441.14 401.17,-438.04"/>
</a>
</g>
<text xml:space="preserve" text-anchor="start" x="432" y="-419.5" font-family="Helvetica,sans-Serif" font-size="10.00" fill="grey">lv</text>
<text xml:space="preserve" text-anchor="start" x="432" y="-403.5" font-family="Helvetica,sans-Serif" font-size="10.00" fill="grey">syms</text>
</g>
<!-- Node11 -->
<g id="Node000011" class="node">
<title>Node11</title>
<g id="a_Node000011"><a xlink:href="structmrb__irep__debug__info.html" target="_top" xlink:title=" ">
<polygon fill="white" stroke="#bfbfbf" points="649,-470 543,-470 543,-450 649,-450 649,-470"/>
<text xml:space="preserve" text-anchor="middle" x="596" y="-456.5" font-family="Helvetica,sans-Serif" font-size="10.00">mrb_irep_debug_info</text>
</a>
</g>
</g>
<!-- Node11&#45;&gt;Node8 -->
<g id="edge11_Node000008_Node000011" class="edge">
<title>Node11&#45;&gt;Node8</title>
<g id="a_edge11_Node000008_Node000011"><a xlink:title=" ">
<path fill="none" stroke="#9a32cd" stroke-dasharray="5,2" d="M572.62,-443.24C553.76,-430.67 526.44,-412.78 502,-398 492.02,-391.96 480.65,-385.55 471.48,-380.49"/>
<polygon fill="#9a32cd" stroke="#9a32cd" points="570.65,-446.13 580.9,-448.78 574.54,-440.31 570.65,-446.13"/>
</a>
</g>
<text xml:space="preserve" text-anchor="start" x="556.5" y="-411.5" font-family="Helvetica,sans-Serif" font-size="10.00" fill="grey">debug_info</text>
</g>
<!-- Node12 -->
<g id="Node000012" class="node">
<title>Node12</title>
<g id="a_Node000012"><a xlink:href="structmrb__irep__debug__info__file.html" target="_top" xlink:title=" ">
<polygon fill="white" stroke="#bfbfbf" points="658,-544 534,-544 534,-524 658,-524 658,-544"/>
<text xml:space="preserve" text-anchor="middle" x="596" y="-530.5" font-family="Helvetica,sans-Serif" font-size="10.00">mrb_irep_debug_info_file</text>
</a>
</g>
</g>
<!-- Node12&#45;&gt;Node11 -->
<g id="edge12_Node000011_Node000012" class="edge">
<title>Node12&#45;&gt;Node11</title>
<g id="a_edge12_Node000011_Node000012"><a xlink:title=" ">
<path fill="none" stroke="#9a32cd" stroke-dasharray="5,2" d="M596,-512.18C596,-498.29 596,-480.71 596,-470.19"/>
<polygon fill="#9a32cd" stroke="#9a32cd" points="592.5,-512.07 596,-522.07 599.5,-512.07 592.5,-512.07"/>
</a>
</g>
<text xml:space="preserve" text-anchor="start" x="599" y="-493.5" font-family="Helvetica,sans-Serif" font-size="10.00" fill="grey">files</text>
</g>
<!-- Node13 -->
<g id="Node000013" class="node">
<title>Node13</title>
<g id="a_Node000013"><a xlink:href="structmrb__irep__debug__info__line.html" target="_top" xlink:title=" ">
<polygon fill="white" stroke="#bfbfbf" points="659.12,-618 532.88,-618 532.88,-598 659.12,-598 659.12,-618"/>
<text xml:space="preserve" text-anchor="middle" x="596" y="-604.5" font-family="Helvetica,sans-Serif" font-size="10.00">mrb_irep_debug_info_line</text>
</a>
</g>
</g>
<!-- Node13&#45;&gt;Node12 -->
<g id="edge13_Node000012_Node000013" class="edge">
<title>Node13&#45;&gt;Node12</title>
<g id="a_edge13_Node000012_Node000013"><a xlink:title=" ">
<path fill="none" stroke="#9a32cd" stroke-dasharray="5,2" d="M596,-586.18C596,-572.29 596,-554.71 596,-544.19"/>
<polygon fill="#9a32cd" stroke="#9a32cd" points="592.5,-586.07 596,-596.07 599.5,-586.07 592.5,-586.07"/>
</a>
</g>
<text xml:space="preserve" text-anchor="start" x="599" y="-567.5" font-family="Helvetica,sans-Serif" font-size="10.00" fill="grey">flat_map</text>
</g>
<!-- Node14&#45;&gt;Node7 -->
<g id="edge17_Node000007_Node000014" class="edge">
<title>Node14&#45;&gt;Node7</title>
<g id="a_edge17_Node000007_Node000014"><a xlink:title=" ">
<path fill="none" stroke="#9a32cd" stroke-dasharray="5,2" d="M177.84,-31.55C178.24,-33.73 178.63,-35.91 179,-38 195.78,-132.98 158.87,-173.57 215,-252 221.72,-261.39 232.74,-267.83 242.73,-272.07"/>
<polygon fill="#9a32cd" stroke="#9a32cd" points="181.33,-31.17 176.07,-21.98 174.45,-32.45 181.33,-31.17"/>
</a>
</g>
<text xml:space="preserve" text-anchor="start" x="186.51" y="-133.5" font-family="Helvetica,sans-Serif" font-size="10.00" fill="grey">env</text>
</g>
<!-- Node14&#45;&gt;Node16 -->
<g id="edge25_Node000016_Node000014" class="edge">
<title>Node14&#45;&gt;Node16</title>
<g id="a_edge25_Node000016_Node000014"><a xlink:title=" ">
<path fill="none" stroke="#9a32cd" stroke-dasharray="5,2" d="M168.78,-31.24C161.3,-60.21 147.11,-115.19 135,-162 133.5,-167.81 131.81,-174.33 130.46,-179.5"/>
<polygon fill="#9a32cd" stroke="#9a32cd" points="172.14,-32.22 171.25,-21.66 165.36,-30.47 172.14,-32.22"/>
</a>
</g>
<text xml:space="preserve" text-anchor="start" x="160.33" y="-80.5" font-family="Helvetica,sans-Serif" font-size="10.00" fill="grey">env</text>
</g>
<!-- Node15&#45;&gt;Node14 -->
<g id="edge19_Node000014_Node000015" class="edge">
<title>Node15&#45;&gt;Node14</title>
<g id="a_edge19_Node000014_Node000015"><a xlink:title=" ">
<path fill="none" stroke="#9a32cd" stroke-dasharray="5,2" d="M60.38,-68.15C76.09,-59.12 96.77,-47.54 115.5,-38 127.86,-31.71 141.97,-25.17 153.24,-20.11"/>
<polygon fill="#9a32cd" stroke="#9a32cd" points="59.05,-64.87 52.15,-72.91 62.56,-70.93 59.05,-64.87"/>
</a>
</g>
<text xml:space="preserve" text-anchor="start" x="118.5" y="-43.5" font-family="Helvetica,sans-Serif" font-size="10.00" fill="grey">cxt</text>
</g>
<!-- Node15&#45;&gt;Node15 -->
<g id="edge20_Node000015_Node000015" class="edge">
<title>Node15&#45;&gt;Node15</title>
<g id="a_edge20_Node000015_Node000015"><a xlink:title=" ">
<path fill="none" stroke="#9a32cd" stroke-dasharray="5,2" d="M81.27,-89.48C85.41,-88.33 88,-86.51 88,-84 88,-79.66 80.24,-77.36 70.17,-77.09"/>
<polygon fill="#9a32cd" stroke="#9a32cd" points="81.14,-85.97 71.67,-90.72 82.03,-92.91 81.14,-85.97"/>
</a>
</g>
<text xml:space="preserve" text-anchor="start" x="91" y="-80.5" font-family="Helvetica,sans-Serif" font-size="10.00" fill="grey">prev</text>
</g>
<!-- Node17 -->
<g id="Node000017" class="node">
<title>Node17</title>
<g id="a_Node000017"><a xlink:href="structRFiber.html" target="_top" xlink:title=" ">
<polygon fill="white" stroke="#bfbfbf" points="46.62,-20 1.38,-20 1.38,0 46.62,0 46.62,-20"/>
<text xml:space="preserve" text-anchor="middle" x="24" y="-6.5" font-family="Helvetica,sans-Serif" font-size="10.00">RFiber</text>
</a>
</g>
</g>
<!-- Node15&#45;&gt;Node17 -->
<g id="edge28_Node000017_Node000015" class="edge">
<title>Node15&#45;&gt;Node17</title>
<g id="a_edge28_Node000017_Node000015"><a xlink:title=" ">
<path fill="none" stroke="#9a32cd" stroke-dasharray="5,2" d="M11.32,-66.04C8.56,-63.02 6.15,-59.66 4.5,-56 1.22,-48.71 2.04,-45.61 4.5,-38 6.63,-31.4 11.05,-25.05 15.14,-20.17"/>
<polygon fill="#9a32cd" stroke="#9a32cd" points="8.79,-68.46 18.55,-72.58 13.48,-63.27 8.79,-68.46"/>
</a>
</g>
<text xml:space="preserve" text-anchor="start" x="7.5" y="-43.5" font-family="Helvetica,sans-Serif" font-size="10.00" fill="grey">cxt</text>
</g>
<!-- Node16&#45;&gt;Node15 -->
<g id="edge22_Node000015_Node000016" class="edge">
<title>Node16&#45;&gt;Node15</title>
<g id="a_edge22_Node000015_Node000016"><a xlink:title=" ">
<path fill="none" stroke="#9a32cd" stroke-dasharray="5,2" d="M110,-171.78C106.78,-168.58 103.5,-165.23 100.5,-162 78.49,-138.37 54.28,-108.93 42.41,-94.24"/>
<polygon fill="#9a32cd" stroke="#9a32cd" points="107.43,-174.17 117.03,-178.65 112.32,-169.16 107.43,-174.17"/>
</a>
</g>
<text xml:space="preserve" text-anchor="start" x="103.5" y="-149.5" font-family="Helvetica,sans-Serif" font-size="10.00" fill="grey">ci</text>
<text xml:space="preserve" text-anchor="start" x="103.5" y="-133.5" font-family="Helvetica,sans-Serif" font-size="10.00" fill="grey">cibase</text>
<text xml:space="preserve" text-anchor="start" x="103.5" y="-117.5" font-family="Helvetica,sans-Serif" font-size="10.00" fill="grey">ciend</text>
</g>
<!-- Node17&#45;&gt;Node15 -->
<g id="edge27_Node000015_Node000017" class="edge">
<title>Node17&#45;&gt;Node15</title>
<g id="a_edge27_Node000015_Node000017"><a xlink:title=" ">
<path fill="none" stroke="#9a32cd" stroke-dasharray="5,2" d="M27.14,-31.53C29.25,-45.36 31.94,-62.96 33.56,-73.59"/>
<polygon fill="#9a32cd" stroke="#9a32cd" points="30.6,-31.04 25.63,-21.68 23.68,-32.1 30.6,-31.04"/>
</a>
</g>
<text xml:space="preserve" text-anchor="start" x="33.81" y="-43.5" font-family="Helvetica,sans-Serif" font-size="10.00" fill="grey">fib</text>
</g>
</g>
</svg>
