<?xml version="1.0" encoding="UTF-8" standalone="no"?>
<!DOCTYPE svg PUBLIC "-//W3C//DTD SVG 1.1//EN"
 "http://www.w3.org/Graphics/SVG/1.1/DTD/svg11.dtd">
<!-- Generated by graphviz version 14.0.5 (0)
 -->
<!-- Title: nghttp2_map Pages: 1 -->
<svg width="208pt" height="102pt"
 viewBox="0.00 0.00 208.00 102.00" xmlns="http://www.w3.org/2000/svg" xmlns:xlink="http://www.w3.org/1999/xlink">
<g id="graph0" class="graph" transform="scale(1 1) rotate(0) translate(4 98)">
<title>nghttp2_map</title>
<!-- Node1 -->
<g id="Node000001" class="node">
<title>Node1</title>
<g id="a_Node000001"><a xlink:title=" ">
<polygon fill="#999999" stroke="#666666" points="143.5,-20 71.25,-20 71.25,0 143.5,0 143.5,-20"/>
<text xml:space="preserve" text-anchor="middle" x="107.38" y="-6.5" font-family="Helvetica,sans-Serif" font-size="10.00">nghttp2_map</text>
</a>
</g>
</g>
<!-- Node2 -->
<g id="Node000002" class="node">
<title>Node2</title>
<g id="a_Node000002"><a xlink:href="structnghttp2__map__bucket.html" target="_top" xlink:title=" ">
<polygon fill="white" stroke="#bfbfbf" points="106.75,-94 0,-94 0,-74 106.75,-74 106.75,-94"/>
<text xml:space="preserve" text-anchor="middle" x="53.38" y="-80.5" font-family="Helvetica,sans-Serif" font-size="10.00">nghttp2_map_bucket</text>
</a>
</g>
</g>
<!-- Node2&#45;&gt;Node1 -->
<g id="edge1_Node000001_Node000002" class="edge">
<title>Node2&#45;&gt;Node1</title>
<g id="a_edge1_Node000001_Node000002"><a xlink:title=" ">
<path fill="none" stroke="#9a32cd" stroke-dasharray="5,2" d="M67.11,-64.68C77.77,-50.47 92.11,-31.36 100.48,-20.19"/>
<polygon fill="#9a32cd" stroke="#9a32cd" points="64.54,-62.28 61.34,-72.38 70.14,-66.48 64.54,-62.28"/>
</a>
</g>
<text xml:space="preserve" text-anchor="start" x="89.8" y="-43.5" font-family="Helvetica,sans-Serif" font-size="10.00" fill="grey">table</text>
</g>
<!-- Node3 -->
<g id="Node000003" class="node">
<title>Node3</title>
<g id="a_Node000003"><a xlink:href="structnghttp2__mem.html" target="_top" xlink:title=" ">
<polygon fill="white" stroke="#666666" points="200,-94 124.75,-94 124.75,-74 200,-74 200,-94"/>
<text xml:space="preserve" text-anchor="middle" x="162.38" y="-80.5" font-family="Helvetica,sans-Serif" font-size="10.00">nghttp2_mem</text>
</a>
</g>
</g>
<!-- Node3&#45;&gt;Node1 -->
<g id="edge2_Node000001_Node000003" class="edge">
<title>Node3&#45;&gt;Node1</title>
<g id="a_edge2_Node000001_Node000003"><a xlink:title=" ">
<path fill="none" stroke="#9a32cd" stroke-dasharray="5,2" d="M148.38,-64.68C137.52,-50.47 122.92,-31.36 114.39,-20.19"/>
<polygon fill="#9a32cd" stroke="#9a32cd" points="145.41,-66.56 154.27,-72.38 150.98,-62.31 145.41,-66.56"/>
</a>
</g>
<text xml:space="preserve" text-anchor="start" x="144.42" y="-43.5" font-family="Helvetica,sans-Serif" font-size="10.00" fill="grey">mem</text>
</g>
</g>
</svg>
