<?xml version="1.0" encoding="UTF-8" standalone="no"?>
<!DOCTYPE svg PUBLIC "-//W3C//DTD SVG 1.1//EN"
 "http://www.w3.org/Graphics/SVG/1.1/DTD/svg11.dtd">
<!-- Generated by graphviz version 14.0.5 (0)
 -->
<!-- Title: MunitSuite_ Pages: 1 -->
<svg width="222pt" height="192pt"
 viewBox="0.00 0.00 222.00 192.00" xmlns="http://www.w3.org/2000/svg" xmlns:xlink="http://www.w3.org/1999/xlink">
<g id="graph0" class="graph" transform="scale(1 1) rotate(0) translate(4 188)">
<title>MunitSuite_</title>
<!-- Node1 -->
<g id="Node000001" class="node">
<title>Node1</title>
<g id="a_Node000001"><a xlink:title=" ">
<polygon fill="#999999" stroke="#666666" points="134.38,-20 66.62,-20 66.62,0 134.38,0 134.38,-20"/>
<text xml:space="preserve" text-anchor="middle" x="100.5" y="-6.5" font-family="Helvetica,sans-Serif" font-size="10.00">MunitSuite_</text>
</a>
</g>
</g>
<!-- Node1&#45;&gt;Node1 -->
<g id="edge4_Node000001_Node000001" class="edge">
<title>Node1&#45;&gt;Node1</title>
<g id="a_edge4_Node000001_Node000001"><a xlink:title=" ">
<path fill="none" stroke="#9a32cd" stroke-dasharray="5,2" d="M145.58,-15.54C149.75,-14.39 152.38,-12.55 152.38,-10 152.38,-5.59 144.52,-3.28 134.43,-3.08"/>
<polygon fill="#9a32cd" stroke="#9a32cd" points="145.42,-12.03 135.93,-16.74 146.28,-18.98 145.42,-12.03"/>
</a>
</g>
<text xml:space="preserve" text-anchor="start" x="155.38" y="-6.5" font-family="Helvetica,sans-Serif" font-size="10.00" fill="grey">suites</text>
</g>
<!-- Node2 -->
<g id="Node000002" class="node">
<title>Node2</title>
<g id="a_Node000002"><a xlink:href="structMunitTest.html" target="_top" xlink:title=" ">
<polygon fill="white" stroke="#bfbfbf" points="129.88,-94 71.12,-94 71.12,-74 129.88,-74 129.88,-94"/>
<text xml:space="preserve" text-anchor="middle" x="100.5" y="-80.5" font-family="Helvetica,sans-Serif" font-size="10.00">MunitTest</text>
</a>
</g>
</g>
<!-- Node2&#45;&gt;Node1 -->
<g id="edge1_Node000001_Node000002" class="edge">
<title>Node2&#45;&gt;Node1</title>
<g id="a_edge1_Node000001_Node000002"><a xlink:title=" ">
<path fill="none" stroke="#9a32cd" stroke-dasharray="5,2" d="M100.5,-62.18C100.5,-48.29 100.5,-30.71 100.5,-20.19"/>
<polygon fill="#9a32cd" stroke="#9a32cd" points="97,-62.07 100.5,-72.07 104,-62.07 97,-62.07"/>
</a>
</g>
<text xml:space="preserve" text-anchor="start" x="103.5" y="-43.5" font-family="Helvetica,sans-Serif" font-size="10.00" fill="grey">tests</text>
</g>
<!-- Node3 -->
<g id="Node000003" class="node">
<title>Node3</title>
<g id="a_Node000003"><a xlink:href="structMunitParameter.html" target="_top" xlink:title=" ">
<polygon fill="white" stroke="#bfbfbf" points="85,-184 0,-184 0,-164 85,-164 85,-184"/>
<text xml:space="preserve" text-anchor="middle" x="42.5" y="-170.5" font-family="Helvetica,sans-Serif" font-size="10.00">MunitParameter</text>
</a>
</g>
</g>
<!-- Node3&#45;&gt;Node2 -->
<g id="edge2_Node000002_Node000003" class="edge">
<title>Node3&#45;&gt;Node2</title>
<g id="a_edge2_Node000002_Node000003"><a xlink:title=" ">
<path fill="none" stroke="#9a32cd" stroke-dasharray="5,2" d="M54.91,-154.18C67.03,-135.78 84.99,-108.53 94.34,-94.35"/>
<polygon fill="#9a32cd" stroke="#9a32cd" points="52.12,-152.04 49.54,-162.32 57.97,-155.9 52.12,-152.04"/>
</a>
</g>
<text xml:space="preserve" text-anchor="start" x="84.74" y="-133.5" font-family="Helvetica,sans-Serif" font-size="10.00" fill="grey">setup</text>
<text xml:space="preserve" text-anchor="start" x="84.74" y="-117.5" font-family="Helvetica,sans-Serif" font-size="10.00" fill="grey">test</text>
</g>
<!-- Node4 -->
<g id="Node000004" class="node">
<title>Node4</title>
<g id="a_Node000004"><a xlink:href="structMunitParameterEnum.html" target="_top" xlink:title=" ">
<polygon fill="white" stroke="#bfbfbf" points="213.75,-184 103.25,-184 103.25,-164 213.75,-164 213.75,-184"/>
<text xml:space="preserve" text-anchor="middle" x="158.5" y="-170.5" font-family="Helvetica,sans-Serif" font-size="10.00">MunitParameterEnum</text>
</a>
</g>
</g>
<!-- Node4&#45;&gt;Node2 -->
<g id="edge3_Node000002_Node000004" class="edge">
<title>Node4&#45;&gt;Node2</title>
<g id="a_edge3_Node000002_Node000004"><a xlink:title=" ">
<path fill="none" stroke="#9a32cd" stroke-dasharray="5,2" d="M146.09,-154.18C133.97,-135.78 116.01,-108.53 106.66,-94.35"/>
<polygon fill="#9a32cd" stroke="#9a32cd" points="143.03,-155.9 151.46,-162.32 148.88,-152.04 143.03,-155.9"/>
</a>
</g>
<text xml:space="preserve" text-anchor="start" x="142.74" y="-125.5" font-family="Helvetica,sans-Serif" font-size="10.00" fill="grey">parameters</text>
</g>
</g>
</svg>
