<?xml version="1.0" encoding="UTF-8" standalone="no"?>
<!DOCTYPE svg PUBLIC "-//W3C//DTD SVG 1.1//EN"
 "http://www.w3.org/Graphics/SVG/1.1/DTD/svg11.dtd">
<!-- Generated by graphviz version 14.0.5 (0)
 -->
<!-- Title: RHash Pages: 1 -->
<svg width="180pt" height="342pt"
 viewBox="0.00 0.00 180.00 342.00" xmlns="http://www.w3.org/2000/svg" xmlns:xlink="http://www.w3.org/1999/xlink">
<g id="graph0" class="graph" transform="scale(1 1) rotate(0) translate(4 338)">
<title>RHash</title>
<!-- Node1 -->
<g id="Node000001" class="node">
<title>Node1</title>
<g id="a_Node000001"><a xlink:title=" ">
<polygon fill="#999999" stroke="#666666" points="98.12,-20 51.38,-20 51.38,0 98.12,0 98.12,-20"/>
<text xml:space="preserve" text-anchor="middle" x="74.75" y="-6.5" font-family="Helvetica,sans-Serif" font-size="10.00">RHash</text>
</a>
</g>
</g>
<!-- Node2 -->
<g id="Node000002" class="node">
<title>Node2</title>
<g id="a_Node000002"><a xlink:href="structiv__tbl.html" target="_top" xlink:title=" ">
<polygon fill="white" stroke="#bfbfbf" points="44.38,-132 5.12,-132 5.12,-112 44.38,-112 44.38,-132"/>
<text xml:space="preserve" text-anchor="middle" x="24.75" y="-118.5" font-family="Helvetica,sans-Serif" font-size="10.00">iv_tbl</text>
</a>
</g>
</g>
<!-- Node2&#45;&gt;Node1 -->
<g id="edge1_Node000001_Node000002" class="edge">
<title>Node2&#45;&gt;Node1</title>
<g id="a_edge1_Node000001_Node000002"><a xlink:title=" ">
<path fill="none" stroke="#9a32cd" stroke-dasharray="5,2" d="M29.98,-100.73C32.41,-92.31 35.58,-82.54 39.25,-74 47.78,-54.16 60.87,-32.54 68.55,-20.49"/>
<polygon fill="#9a32cd" stroke="#9a32cd" points="26.61,-99.75 27.37,-110.32 33.37,-101.59 26.61,-99.75"/>
</a>
</g>
<text xml:space="preserve" text-anchor="start" x="42.25" y="-80.5" font-family="Helvetica,sans-Serif" font-size="10.00" fill="grey">iv</text>
</g>
<!-- Node3 -->
<g id="Node000003" class="node">
<title>Node3</title>
<g id="a_Node000003"><a xlink:href="structmrb__value.html" target="_top" xlink:title=" ">
<polygon fill="white" stroke="#bfbfbf" points="75.25,-260 14.25,-260 14.25,-240 75.25,-240 75.25,-260"/>
<text xml:space="preserve" text-anchor="middle" x="44.75" y="-246.5" font-family="Helvetica,sans-Serif" font-size="10.00">mrb_value</text>
</a>
</g>
</g>
<!-- Node3&#45;&gt;Node2 -->
<g id="edge2_Node000002_Node000003" class="edge">
<title>Node3&#45;&gt;Node2</title>
<g id="a_edge2_Node000002_Node000003"><a xlink:title=" ">
<path fill="none" stroke="#9a32cd" stroke-dasharray="5,2" d="M38.16,-228.83C37.54,-226.54 36.97,-224.23 36.5,-222 29.66,-189.48 26.47,-150.05 25.3,-132.37"/>
<polygon fill="#9a32cd" stroke="#9a32cd" points="34.74,-229.61 40.99,-238.16 41.44,-227.58 34.74,-229.61"/>
</a>
</g>
<text xml:space="preserve" text-anchor="start" x="39.5" y="-201.5" font-family="Helvetica,sans-Serif" font-size="10.00" fill="grey">ptr</text>
</g>
<!-- Node5 -->
<g id="Node000005" class="node">
<title>Node5</title>
<g id="a_Node000005"><a xlink:href="structhash__entry.html" target="_top" xlink:title=" ">
<polygon fill="white" stroke="#bfbfbf" points="116.75,-170 52.75,-170 52.75,-150 116.75,-150 116.75,-170"/>
<text xml:space="preserve" text-anchor="middle" x="84.75" y="-156.5" font-family="Helvetica,sans-Serif" font-size="10.00">hash_entry</text>
</a>
</g>
</g>
<!-- Node3&#45;&gt;Node5 -->
<g id="edge5_Node000005_Node000003" class="edge">
<title>Node3&#45;&gt;Node5</title>
<g id="a_edge5_Node000005_Node000003"><a xlink:title=" ">
<path fill="none" stroke="#9a32cd" stroke-dasharray="5,2" d="M53.78,-229.14C62.13,-210.77 74.17,-184.27 80.5,-170.35"/>
<polygon fill="#9a32cd" stroke="#9a32cd" points="50.61,-227.65 49.66,-238.2 56.98,-230.55 50.61,-227.65"/>
</a>
</g>
<text xml:space="preserve" text-anchor="start" x="74.81" y="-209.5" font-family="Helvetica,sans-Serif" font-size="10.00" fill="grey">key</text>
<text xml:space="preserve" text-anchor="start" x="74.81" y="-193.5" font-family="Helvetica,sans-Serif" font-size="10.00" fill="grey">val</text>
</g>
<!-- Node4 -->
<g id="Node000004" class="node">
<title>Node4</title>
<g id="a_Node000004"><a xlink:href="unionmrb__value__union.html" target="_top" xlink:title=" ">
<polygon fill="white" stroke="#bfbfbf" points="89.5,-334 0,-334 0,-314 89.5,-314 89.5,-334"/>
<text xml:space="preserve" text-anchor="middle" x="44.75" y="-320.5" font-family="Helvetica,sans-Serif" font-size="10.00">mrb_value_union</text>
</a>
</g>
</g>
<!-- Node4&#45;&gt;Node3 -->
<g id="edge3_Node000003_Node000004" class="edge">
<title>Node4&#45;&gt;Node3</title>
<g id="a_edge3_Node000003_Node000004"><a xlink:title=" ">
<path fill="none" stroke="#9a32cd" stroke-dasharray="5,2" d="M44.75,-302.18C44.75,-288.29 44.75,-270.71 44.75,-260.19"/>
<polygon fill="#9a32cd" stroke="#9a32cd" points="41.25,-302.07 44.75,-312.07 48.25,-302.07 41.25,-302.07"/>
</a>
</g>
<text xml:space="preserve" text-anchor="start" x="47.75" y="-283.5" font-family="Helvetica,sans-Serif" font-size="10.00" fill="grey">value</text>
</g>
<!-- Node5&#45;&gt;Node1 -->
<g id="edge4_Node000001_Node000005" class="edge">
<title>Node5&#45;&gt;Node1</title>
<g id="a_edge4_Node000001_Node000005"><a xlink:title=" ">
<path fill="none" stroke="#9a32cd" stroke-dasharray="5,2" d="M83.37,-138.51C81.17,-105.96 76.96,-43.71 75.38,-20.25"/>
<polygon fill="#9a32cd" stroke="#9a32cd" points="79.86,-138.49 84.02,-148.23 86.84,-138.02 79.86,-138.49"/>
</a>
</g>
<text xml:space="preserve" text-anchor="start" x="83.25" y="-80.5" font-family="Helvetica,sans-Serif" font-size="10.00" fill="grey">ea</text>
</g>
<!-- Node6 -->
<g id="Node000006" class="node">
<title>Node6</title>
<g id="a_Node000006"><a xlink:href="structhash__table.html" target="_top" xlink:title=" ">
<polygon fill="white" stroke="#bfbfbf" points="172.38,-94 109.12,-94 109.12,-74 172.38,-74 172.38,-94"/>
<text xml:space="preserve" text-anchor="middle" x="140.75" y="-80.5" font-family="Helvetica,sans-Serif" font-size="10.00">hash_table</text>
</a>
</g>
</g>
<!-- Node5&#45;&gt;Node6 -->
<g id="edge7_Node000006_Node000005" class="edge">
<title>Node5&#45;&gt;Node6</title>
<g id="a_edge7_Node000006_Node000005"><a xlink:title=" ">
<path fill="none" stroke="#9a32cd" stroke-dasharray="5,2" d="M98.51,-140.82C109.73,-125.99 125.12,-105.65 133.89,-94.06"/>
<polygon fill="#9a32cd" stroke="#9a32cd" points="96,-138.33 92.76,-148.42 101.58,-142.56 96,-138.33"/>
</a>
</g>
<text xml:space="preserve" text-anchor="start" x="122.41" y="-118.5" font-family="Helvetica,sans-Serif" font-size="10.00" fill="grey">ea</text>
</g>
<!-- Node6&#45;&gt;Node1 -->
<g id="edge6_Node000001_Node000006" class="edge">
<title>Node6&#45;&gt;Node1</title>
<g id="a_edge6_Node000001_Node000006"><a xlink:title=" ">
<path fill="none" stroke="#9a32cd" stroke-dasharray="5,2" d="M124.71,-65.5C111.61,-51.21 93.61,-31.57 83.17,-20.19"/>
<polygon fill="#9a32cd" stroke="#9a32cd" points="121.76,-67.47 131.1,-72.47 126.92,-62.73 121.76,-67.47"/>
</a>
</g>
<text xml:space="preserve" text-anchor="start" x="118.6" y="-43.5" font-family="Helvetica,sans-Serif" font-size="10.00" fill="grey">ht</text>
</g>
</g>
</svg>
