<?xml version="1.0" encoding="UTF-8" standalone="no"?>
<!DOCTYPE svg PUBLIC "-//W3C//DTD SVG 1.1//EN"
 "http://www.w3.org/Graphics/SVG/1.1/DTD/svg11.dtd">
<!-- Generated by graphviz version 14.0.5 (0)
 -->
<!-- Title: RException Pages: 1 -->
<svg width="130pt" height="340pt"
 viewBox="0.00 0.00 130.00 340.00" xmlns="http://www.w3.org/2000/svg" xmlns:xlink="http://www.w3.org/1999/xlink">
<g id="graph0" class="graph" transform="scale(1 1) rotate(0) translate(4 336)">
<title>RException</title>
<!-- Node1 -->
<g id="Node000001" class="node">
<title>Node1</title>
<g id="a_Node000001"><a xlink:title=" ">
<polygon fill="#999999" stroke="#666666" points="78.25,-20 11.25,-20 11.25,0 78.25,0 78.25,-20"/>
<text xml:space="preserve" text-anchor="middle" x="44.75" y="-6.5" font-family="Helvetica,sans-Serif" font-size="10.00">RException</text>
</a>
</g>
</g>
<!-- Node2 -->
<g id="Node000002" class="node">
<title>Node2</title>
<g id="a_Node000002"><a xlink:href="structiv__tbl.html" target="_top" xlink:title=" ">
<polygon fill="white" stroke="#bfbfbf" points="64.38,-184 25.12,-184 25.12,-164 64.38,-164 64.38,-184"/>
<text xml:space="preserve" text-anchor="middle" x="44.75" y="-170.5" font-family="Helvetica,sans-Serif" font-size="10.00">iv_tbl</text>
</a>
</g>
</g>
<!-- Node2&#45;&gt;Node1 -->
<g id="edge1_Node000001_Node000002" class="edge">
<title>Node2&#45;&gt;Node1</title>
<g id="a_edge1_Node000001_Node000002"><a xlink:title=" ">
<path fill="none" stroke="#9a32cd" stroke-dasharray="5,2" d="M42.08,-152.37C40.63,-140.09 38.98,-124.18 38.25,-110 36.55,-76.97 41.06,-37.8 43.42,-20.28"/>
<polygon fill="#9a32cd" stroke="#9a32cd" points="38.59,-152.64 43.29,-162.13 45.53,-151.77 38.59,-152.64"/>
</a>
</g>
<text xml:space="preserve" text-anchor="start" x="41.25" y="-96.5" font-family="Helvetica,sans-Serif" font-size="10.00" fill="grey">iv</text>
</g>
<!-- Node5 -->
<g id="Node000005" class="node">
<title>Node5</title>
<g id="a_Node000005"><a xlink:href="structRObject.html" target="_top" xlink:title=" ">
<polygon fill="white" stroke="#bfbfbf" points="112.75,-110 60.75,-110 60.75,-90 112.75,-90 112.75,-110"/>
<text xml:space="preserve" text-anchor="middle" x="86.75" y="-96.5" font-family="Helvetica,sans-Serif" font-size="10.00">RObject</text>
</a>
</g>
</g>
<!-- Node2&#45;&gt;Node5 -->
<g id="edge5_Node000005_Node000002" class="edge">
<title>Node2&#45;&gt;Node5</title>
<g id="a_edge5_Node000005_Node000002"><a xlink:title=" ">
<path fill="none" stroke="#9a32cd" stroke-dasharray="5,2" d="M55.92,-153.86C64.15,-139.74 75,-121.14 81.39,-110.19"/>
<polygon fill="#9a32cd" stroke="#9a32cd" points="53.02,-151.88 51,-162.28 59.07,-155.41 53.02,-151.88"/>
</a>
</g>
<text xml:space="preserve" text-anchor="start" x="73.75" y="-133.5" font-family="Helvetica,sans-Serif" font-size="10.00" fill="grey">iv</text>
</g>
<!-- Node3 -->
<g id="Node000003" class="node">
<title>Node3</title>
<g id="a_Node000003"><a xlink:href="structmrb__value.html" target="_top" xlink:title=" ">
<polygon fill="white" stroke="#bfbfbf" points="75.25,-258 14.25,-258 14.25,-238 75.25,-238 75.25,-258"/>
<text xml:space="preserve" text-anchor="middle" x="44.75" y="-244.5" font-family="Helvetica,sans-Serif" font-size="10.00">mrb_value</text>
</a>
</g>
</g>
<!-- Node3&#45;&gt;Node2 -->
<g id="edge2_Node000002_Node000003" class="edge">
<title>Node3&#45;&gt;Node2</title>
<g id="a_edge2_Node000002_Node000003"><a xlink:title=" ">
<path fill="none" stroke="#9a32cd" stroke-dasharray="5,2" d="M44.75,-226.18C44.75,-212.29 44.75,-194.71 44.75,-184.19"/>
<polygon fill="#9a32cd" stroke="#9a32cd" points="41.25,-226.07 44.75,-236.07 48.25,-226.07 41.25,-226.07"/>
</a>
</g>
<text xml:space="preserve" text-anchor="start" x="47.75" y="-207.5" font-family="Helvetica,sans-Serif" font-size="10.00" fill="grey">ptr</text>
</g>
<!-- Node4 -->
<g id="Node000004" class="node">
<title>Node4</title>
<g id="a_Node000004"><a xlink:href="unionmrb__value__union.html" target="_top" xlink:title=" ">
<polygon fill="white" stroke="#bfbfbf" points="89.5,-332 0,-332 0,-312 89.5,-312 89.5,-332"/>
<text xml:space="preserve" text-anchor="middle" x="44.75" y="-318.5" font-family="Helvetica,sans-Serif" font-size="10.00">mrb_value_union</text>
</a>
</g>
</g>
<!-- Node4&#45;&gt;Node3 -->
<g id="edge3_Node000003_Node000004" class="edge">
<title>Node4&#45;&gt;Node3</title>
<g id="a_edge3_Node000003_Node000004"><a xlink:title=" ">
<path fill="none" stroke="#9a32cd" stroke-dasharray="5,2" d="M44.75,-300.18C44.75,-286.29 44.75,-268.71 44.75,-258.19"/>
<polygon fill="#9a32cd" stroke="#9a32cd" points="41.25,-300.07 44.75,-310.07 48.25,-300.07 41.25,-300.07"/>
</a>
</g>
<text xml:space="preserve" text-anchor="start" x="47.75" y="-281.5" font-family="Helvetica,sans-Serif" font-size="10.00" fill="grey">value</text>
</g>
<!-- Node5&#45;&gt;Node1 -->
<g id="edge4_Node000001_Node000005" class="edge">
<title>Node5&#45;&gt;Node1</title>
<g id="a_edge4_Node000001_Node000005"><a xlink:title=" ">
<path fill="none" stroke="#9a32cd" stroke-dasharray="5,2" d="M77.4,-79.4C68.62,-61.02 55.89,-34.34 49.21,-20.35"/>
<polygon fill="#9a32cd" stroke="#9a32cd" points="74.14,-80.7 81.6,-88.22 80.45,-77.68 74.14,-80.7"/>
</a>
</g>
<text xml:space="preserve" text-anchor="start" x="76.16" y="-59.5" font-family="Helvetica,sans-Serif" font-size="10.00" fill="grey">backtrace</text>
<text xml:space="preserve" text-anchor="start" x="76.16" y="-43.5" font-family="Helvetica,sans-Serif" font-size="10.00" fill="grey">mesg</text>
</g>
</g>
</svg>
