<?xml version="1.0" encoding="UTF-8" standalone="no"?>
<!DOCTYPE svg PUBLIC "-//W3C//DTD SVG 1.1//EN"
 "http://www.w3.org/Graphics/SVG/1.1/DTD/svg11.dtd">
<!-- Generated by graphviz version 14.0.5 (0)
 -->
<!-- Title: os_each_object_data Pages: 1 -->
<svg width="811pt" height="626pt"
 viewBox="0.00 0.00 811.00 626.00" xmlns="http://www.w3.org/2000/svg" xmlns:xlink="http://www.w3.org/1999/xlink">
<g id="graph0" class="graph" transform="scale(1 1) rotate(0) translate(4 622)">
<title>os_each_object_data</title>
<!-- Node1 -->
<g id="Node000001" class="node">
<title>Node1</title>
<g id="a_Node000001"><a xlink:title=" ">
<polygon fill="#999999" stroke="#666666" points="590.25,-290 482,-290 482,-270 590.25,-270 590.25,-290"/>
<text xml:space="preserve" text-anchor="middle" x="536.12" y="-276.5" font-family="Helvetica,sans-Serif" font-size="10.00">os_each_object_data</text>
</a>
</g>
</g>
<!-- Node2 -->
<g id="Node000002" class="node">
<title>Node2</title>
<g id="a_Node000002"><a xlink:href="structRClass.html" target="_top" xlink:title=" ">
<polygon fill="white" stroke="#666666" points="429.62,-380 380.62,-380 380.62,-360 429.62,-360 429.62,-380"/>
<text xml:space="preserve" text-anchor="middle" x="405.12" y="-366.5" font-family="Helvetica,sans-Serif" font-size="10.00">RClass</text>
</a>
</g>
</g>
<!-- Node2&#45;&gt;Node1 -->
<g id="edge1_Node000001_Node000002" class="edge">
<title>Node2&#45;&gt;Node1</title>
<g id="a_edge1_Node000001_Node000002"><a xlink:title=" ">
<path fill="none" stroke="#9a32cd" stroke-dasharray="5,2" d="M416.35,-350.04C425.2,-336.58 438.69,-319.01 454.62,-308 465.91,-300.21 479.61,-294.53 492.53,-290.45"/>
<polygon fill="#9a32cd" stroke="#9a32cd" points="413.41,-348.13 411.08,-358.47 419.35,-351.84 413.41,-348.13"/>
</a>
</g>
<text xml:space="preserve" text-anchor="start" x="457.62" y="-321.5" font-family="Helvetica,sans-Serif" font-size="10.00" fill="grey">target_module</text>
</g>
<!-- Node2&#45;&gt;Node2 -->
<g id="edge31_Node000002_Node000002" class="edge">
<title>Node2&#45;&gt;Node2</title>
<g id="a_edge31_Node000002_Node000002"><a xlink:title=" ">
<path fill="none" stroke="#9a32cd" stroke-dasharray="5,2" d="M441.17,-377.07C445.09,-375.72 447.62,-373.36 447.62,-370 447.62,-364.02 439.63,-361.22 430.01,-361.6"/>
<polygon fill="#9a32cd" stroke="#9a32cd" points="441.03,-373.56 431.51,-378.23 441.86,-380.51 441.03,-373.56"/>
</a>
</g>
<text xml:space="preserve" text-anchor="start" x="450.62" y="-366.5" font-family="Helvetica,sans-Serif" font-size="10.00" fill="grey">super</text>
</g>
<!-- Node8 -->
<g id="Node000008" class="node">
<title>Node8</title>
<g id="a_Node000008"><a xlink:href="structRProc.html" target="_top" xlink:title=" ">
<polygon fill="white" stroke="#bfbfbf" points="283,-290 239.25,-290 239.25,-270 283,-270 283,-290"/>
<text xml:space="preserve" text-anchor="middle" x="261.12" y="-276.5" font-family="Helvetica,sans-Serif" font-size="10.00">RProc</text>
</a>
</g>
</g>
<!-- Node2&#45;&gt;Node8 -->
<g id="edge17_Node000008_Node000002" class="edge">
<title>Node2&#45;&gt;Node8</title>
<g id="a_edge17_Node000008_Node000002"><a xlink:title=" ">
<path fill="none" stroke="#9a32cd" stroke-dasharray="5,2" d="M369.24,-362.33C344.25,-357.16 313.57,-349.63 302.88,-342 288.07,-331.44 290.41,-322.99 280.12,-308 276.1,-302.14 271.52,-295.62 267.86,-290.46"/>
<polygon fill="#9a32cd" stroke="#9a32cd" points="368.25,-365.7 378.74,-364.23 369.62,-358.83 368.25,-365.7"/>
</a>
</g>
<text xml:space="preserve" text-anchor="start" x="305.88" y="-321.5" font-family="Helvetica,sans-Serif" font-size="10.00" fill="grey">target_class</text>
</g>
<!-- Node17 -->
<g id="Node000017" class="node">
<title>Node17</title>
<g id="a_Node000017"><a xlink:href="structmrb__callinfo.html" target="_top" xlink:title=" ">
<polygon fill="white" stroke="#bfbfbf" points="615.38,-200 546.88,-200 546.88,-180 615.38,-180 615.38,-200"/>
<text xml:space="preserve" text-anchor="middle" x="581.12" y="-186.5" font-family="Helvetica,sans-Serif" font-size="10.00">mrb_callinfo</text>
</a>
</g>
</g>
<!-- Node2&#45;&gt;Node17 -->
<g id="edge27_Node000017_Node000002" class="edge">
<title>Node2&#45;&gt;Node17</title>
<g id="a_edge27_Node000017_Node000002"><a xlink:title=" ">
<path fill="none" stroke="#9a32cd" stroke-dasharray="5,2" d="M401.38,-348.43C398.64,-326.9 397.79,-293.07 413.88,-270 444.82,-225.61 507.49,-205.43 546.71,-196.82"/>
<polygon fill="#9a32cd" stroke="#9a32cd" points="397.88,-348.68 402.87,-358.02 404.8,-347.6 397.88,-348.68"/>
</a>
</g>
<text xml:space="preserve" text-anchor="start" x="416.88" y="-276.5" font-family="Helvetica,sans-Serif" font-size="10.00" fill="grey">target_class</text>
</g>
<!-- Node3 -->
<g id="Node000003" class="node">
<title>Node3</title>
<g id="a_Node000003"><a xlink:href="structiv__tbl.html" target="_top" xlink:title=" ">
<polygon fill="white" stroke="#bfbfbf" points="489.75,-470 450.5,-470 450.5,-450 489.75,-450 489.75,-470"/>
<text xml:space="preserve" text-anchor="middle" x="470.12" y="-456.5" font-family="Helvetica,sans-Serif" font-size="10.00">iv_tbl</text>
</a>
</g>
</g>
<!-- Node3&#45;&gt;Node2 -->
<g id="edge2_Node000002_Node000003" class="edge">
<title>Node3&#45;&gt;Node2</title>
<g id="a_edge2_Node000002_Node000003"><a xlink:title=" ">
<path fill="none" stroke="#9a32cd" stroke-dasharray="5,2" d="M456.41,-440.43C442.82,-422.03 422.56,-394.6 412.03,-380.35"/>
<polygon fill="#9a32cd" stroke="#9a32cd" points="453.51,-442.4 462.27,-448.37 459.14,-438.24 453.51,-442.4"/>
</a>
</g>
<text xml:space="preserve" text-anchor="start" x="452.1" y="-411.5" font-family="Helvetica,sans-Serif" font-size="10.00" fill="grey">iv</text>
</g>
<!-- Node4 -->
<g id="Node000004" class="node">
<title>Node4</title>
<g id="a_Node000004"><a xlink:href="structmrb__value.html" target="_top" xlink:title=" ">
<polygon fill="white" stroke="#bfbfbf" points="566.62,-544 505.62,-544 505.62,-524 566.62,-524 566.62,-544"/>
<text xml:space="preserve" text-anchor="middle" x="536.12" y="-530.5" font-family="Helvetica,sans-Serif" font-size="10.00">mrb_value</text>
</a>
</g>
</g>
<!-- Node4&#45;&gt;Node1 -->
<g id="edge32_Node000001_Node000004" class="edge">
<title>Node4&#45;&gt;Node1</title>
<g id="a_edge32_Node000001_Node000004"><a xlink:title=" ">
<path fill="none" stroke="#9a32cd" stroke-dasharray="5,2" d="M536.12,-512.48C536.12,-460.82 536.12,-326.93 536.12,-290.35"/>
<polygon fill="#9a32cd" stroke="#9a32cd" points="532.63,-512.22 536.13,-522.22 539.63,-512.22 532.63,-512.22"/>
</a>
</g>
<text xml:space="preserve" text-anchor="start" x="539.12" y="-411.5" font-family="Helvetica,sans-Serif" font-size="10.00" fill="grey">block</text>
</g>
<!-- Node4&#45;&gt;Node3 -->
<g id="edge3_Node000003_Node000004" class="edge">
<title>Node4&#45;&gt;Node3</title>
<g id="a_edge3_Node000003_Node000004"><a xlink:title=" ">
<path fill="none" stroke="#9a32cd" stroke-dasharray="5,2" d="M515.35,-516.08C511.74,-512.86 508.11,-509.42 504.88,-506 494.02,-494.53 483.16,-479.82 476.54,-470.4"/>
<polygon fill="#9a32cd" stroke="#9a32cd" points="513.02,-518.7 522.89,-522.54 517.57,-513.38 513.02,-518.7"/>
</a>
</g>
<text xml:space="preserve" text-anchor="start" x="507.88" y="-493.5" font-family="Helvetica,sans-Serif" font-size="10.00" fill="grey">ptr</text>
</g>
<!-- Node7 -->
<g id="Node000007" class="node">
<title>Node7</title>
<g id="a_Node000007"><a xlink:href="unionmt__ptr.html" target="_top" xlink:title=" ">
<polygon fill="white" stroke="#bfbfbf" points="302,-200 258.25,-200 258.25,-180 302,-180 302,-200"/>
<text xml:space="preserve" text-anchor="middle" x="280.12" y="-186.5" font-family="Helvetica,sans-Serif" font-size="10.00">mt_ptr</text>
</a>
</g>
</g>
<!-- Node4&#45;&gt;Node7 -->
<g id="edge30_Node000007_Node000004" class="edge">
<title>Node4&#45;&gt;Node7</title>
<g id="a_edge30_Node000007_Node000004"><a xlink:title=" ">
<path fill="none" stroke="#9a32cd" stroke-dasharray="5,2" d="M494.06,-529.65C392.87,-521.04 144.12,-496.28 144.12,-461 144.12,-461 144.12,-461 144.12,-279 144.12,-225.43 219.43,-202.86 257.97,-194.81"/>
<polygon fill="#9a32cd" stroke="#9a32cd" points="493.6,-533.13 503.86,-530.47 494.18,-526.15 493.6,-533.13"/>
</a>
</g>
<text xml:space="preserve" text-anchor="start" x="147.12" y="-366.5" font-family="Helvetica,sans-Serif" font-size="10.00" fill="grey">func</text>
</g>
<!-- Node4&#45;&gt;Node8 -->
<g id="edge15_Node000008_Node000004" class="edge">
<title>Node4&#45;&gt;Node8</title>
<g id="a_edge15_Node000008_Node000004"><a xlink:title=" ">
<path fill="none" stroke="#9a32cd" stroke-dasharray="5,2" d="M506.36,-518.42C453.63,-491.1 343.69,-427.19 283.12,-342 271.64,-325.85 265.55,-303.07 262.86,-290.42"/>
<polygon fill="#9a32cd" stroke="#9a32cd" points="504.56,-521.43 515.06,-522.85 507.74,-515.19 504.56,-521.43"/>
</a>
</g>
<text xml:space="preserve" text-anchor="start" x="374.19" y="-411.5" font-family="Helvetica,sans-Serif" font-size="10.00" fill="grey">func</text>
</g>
<!-- Node15 -->
<g id="Node000015" class="node">
<title>Node15</title>
<g id="a_Node000015"><a xlink:href="structREnv.html" target="_top" xlink:title=" ">
<polygon fill="white" stroke="#666666" points="642.5,-20 601.75,-20 601.75,0 642.5,0 642.5,-20"/>
<text xml:space="preserve" text-anchor="middle" x="622.12" y="-6.5" font-family="Helvetica,sans-Serif" font-size="10.00">REnv</text>
</a>
</g>
</g>
<!-- Node4&#45;&gt;Node15 -->
<g id="edge19_Node000015_Node000004" class="edge">
<title>Node4&#45;&gt;Node15</title>
<g id="a_edge19_Node000015_Node000004"><a xlink:title=" ">
<path fill="none" stroke="#9a32cd" stroke-dasharray="5,2" d="M578.26,-527.09C615.56,-519.2 664.12,-501.2 664.12,-461 664.12,-461 664.12,-461 664.12,-189 664.12,-122.96 636.4,-46.73 626,-20.46"/>
<polygon fill="#9a32cd" stroke="#9a32cd" points="577.76,-523.62 568.6,-528.94 579.08,-530.5 577.76,-523.62"/>
</a>
</g>
<text xml:space="preserve" text-anchor="start" x="667.12" y="-276.5" font-family="Helvetica,sans-Serif" font-size="10.00" fill="grey">stack</text>
</g>
<!-- Node16 -->
<g id="Node000016" class="node">
<title>Node16</title>
<g id="a_Node000016"><a xlink:href="structmrb__context.html" target="_top" xlink:title=" ">
<polygon fill="white" stroke="#bfbfbf" points="760.12,-94 690.12,-94 690.12,-74 760.12,-74 760.12,-94"/>
<text xml:space="preserve" text-anchor="middle" x="725.12" y="-80.5" font-family="Helvetica,sans-Serif" font-size="10.00">mrb_context</text>
</a>
</g>
</g>
<!-- Node4&#45;&gt;Node16 -->
<g id="edge22_Node000016_Node000004" class="edge">
<title>Node4&#45;&gt;Node16</title>
<g id="a_edge22_Node000016_Node000004"><a xlink:title=" ">
<path fill="none" stroke="#9a32cd" stroke-dasharray="5,2" d="M578.09,-531.51C607.56,-528.96 647.09,-522.42 678.12,-506 703.13,-492.77 723.12,-489.28 723.12,-461 723.12,-461 723.12,-461 723.12,-189 723.12,-154.15 724.26,-112.73 724.82,-94.46"/>
<polygon fill="#9a32cd" stroke="#9a32cd" points="578.16,-527.99 568.44,-532.22 578.67,-534.98 578.16,-527.99"/>
</a>
</g>
<text xml:space="preserve" text-anchor="start" x="726.12" y="-329.5" font-family="Helvetica,sans-Serif" font-size="10.00" fill="grey">stbase</text>
<text xml:space="preserve" text-anchor="start" x="726.12" y="-313.5" font-family="Helvetica,sans-Serif" font-size="10.00" fill="grey">stend</text>
</g>
<!-- Node4&#45;&gt;Node17 -->
<g id="edge25_Node000017_Node000004" class="edge">
<title>Node4&#45;&gt;Node17</title>
<g id="a_edge25_Node000017_Node000004"><a xlink:title=" ">
<path fill="none" stroke="#9a32cd" stroke-dasharray="5,2" d="M546.88,-513.53C548.06,-511.04 549.18,-508.48 550.12,-506 566.68,-462.65 599,-291.21 599.12,-290 602.59,-256.81 590.87,-218.04 584.69,-200.49"/>
<polygon fill="#9a32cd" stroke="#9a32cd" points="543.77,-511.91 542.29,-522.4 549.99,-515.13 543.77,-511.91"/>
</a>
</g>
<text xml:space="preserve" text-anchor="start" x="588.28" y="-366.5" font-family="Helvetica,sans-Serif" font-size="10.00" fill="grey">stack</text>
</g>
<!-- Node5 -->
<g id="Node000005" class="node">
<title>Node5</title>
<g id="a_Node000005"><a xlink:href="unionmrb__value__union.html" target="_top" xlink:title=" ">
<polygon fill="white" stroke="#bfbfbf" points="580.88,-618 491.38,-618 491.38,-598 580.88,-598 580.88,-618"/>
<text xml:space="preserve" text-anchor="middle" x="536.12" y="-604.5" font-family="Helvetica,sans-Serif" font-size="10.00">mrb_value_union</text>
</a>
</g>
</g>
<!-- Node5&#45;&gt;Node4 -->
<g id="edge4_Node000004_Node000005" class="edge">
<title>Node5&#45;&gt;Node4</title>
<g id="a_edge4_Node000004_Node000005"><a xlink:title=" ">
<path fill="none" stroke="#9a32cd" stroke-dasharray="5,2" d="M536.12,-586.18C536.12,-572.29 536.12,-554.71 536.12,-544.19"/>
<polygon fill="#9a32cd" stroke="#9a32cd" points="532.63,-586.07 536.13,-596.07 539.63,-586.07 532.63,-586.07"/>
</a>
</g>
<text xml:space="preserve" text-anchor="start" x="539.12" y="-567.5" font-family="Helvetica,sans-Serif" font-size="10.00" fill="grey">value</text>
</g>
<!-- Node6 -->
<g id="Node000006" class="node">
<title>Node6</title>
<g id="a_Node000006"><a xlink:href="structmt__tbl.html" target="_top" xlink:title=" ">
<polygon fill="white" stroke="#bfbfbf" points="360.62,-94 317.62,-94 317.62,-74 360.62,-74 360.62,-94"/>
<text xml:space="preserve" text-anchor="middle" x="339.12" y="-80.5" font-family="Helvetica,sans-Serif" font-size="10.00">mt_tbl</text>
</a>
</g>
</g>
<!-- Node6&#45;&gt;Node2 -->
<g id="edge5_Node000002_Node000006" class="edge">
<title>Node6&#45;&gt;Node2</title>
<g id="a_edge5_Node000002_Node000006"><a xlink:title=" ">
<path fill="none" stroke="#9a32cd" stroke-dasharray="5,2" d="M342.92,-105.5C351.19,-149.27 372.05,-255.01 396.12,-342 397.76,-347.9 399.92,-354.42 401.72,-359.58"/>
<polygon fill="#9a32cd" stroke="#9a32cd" points="346.41,-105.09 341.13,-95.91 339.53,-106.38 346.41,-105.09"/>
</a>
</g>
<text xml:space="preserve" text-anchor="start" x="376.11" y="-231.5" font-family="Helvetica,sans-Serif" font-size="10.00" fill="grey">mt</text>
</g>
<!-- Node7&#45;&gt;Node6 -->
<g id="edge6_Node000006_Node000007" class="edge">
<title>Node7&#45;&gt;Node6</title>
<g id="a_edge6_Node000006_Node000007"><a xlink:title=" ">
<path fill="none" stroke="#9a32cd" stroke-dasharray="5,2" d="M290.87,-170.05C303.56,-147.68 324.16,-111.37 333.82,-94.36"/>
<polygon fill="#9a32cd" stroke="#9a32cd" points="288,-168.03 286.11,-178.45 294.09,-171.48 288,-168.03"/>
</a>
</g>
<text xml:space="preserve" text-anchor="start" x="326.3" y="-133.5" font-family="Helvetica,sans-Serif" font-size="10.00" fill="grey">ptr</text>
</g>
<!-- Node8&#45;&gt;Node7 -->
<g id="edge7_Node000007_Node000008" class="edge">
<title>Node8&#45;&gt;Node7</title>
<g id="a_edge7_Node000007_Node000008"><a xlink:title=" ">
<path fill="none" stroke="#9a32cd" stroke-dasharray="5,2" d="M259.83,-258.19C259.68,-246.2 260.49,-230.98 264.38,-218 266.24,-211.76 269.82,-205.44 273.09,-200.48"/>
<polygon fill="#9a32cd" stroke="#9a32cd" points="256.33,-258.31 260.22,-268.16 263.33,-258.03 256.33,-258.31"/>
</a>
</g>
<text xml:space="preserve" text-anchor="start" x="267.38" y="-231.5" font-family="Helvetica,sans-Serif" font-size="10.00" fill="grey">proc</text>
</g>
<!-- Node8&#45;&gt;Node8 -->
<g id="edge16_Node000008_Node000008" class="edge">
<title>Node8&#45;&gt;Node8</title>
<g id="a_edge16_Node000008_Node000008"><a xlink:title=" ">
<path fill="none" stroke="#9a32cd" stroke-dasharray="5,2" d="M294.45,-287.24C298.41,-285.93 301,-283.51 301,-280 301,-273.76 292.82,-270.98 283.27,-271.66"/>
<polygon fill="#9a32cd" stroke="#9a32cd" points="294.39,-283.73 284.77,-288.19 295.07,-290.7 294.39,-283.73"/>
</a>
</g>
<text xml:space="preserve" text-anchor="start" x="304" y="-276.5" font-family="Helvetica,sans-Serif" font-size="10.00" fill="grey">upper</text>
</g>
<!-- Node8&#45;&gt;Node17 -->
<g id="edge24_Node000017_Node000008" class="edge">
<title>Node8&#45;&gt;Node17</title>
<g id="a_edge24_Node000017_Node000008"><a xlink:title=" ">
<path fill="none" stroke="#9a32cd" stroke-dasharray="5,2" d="M279.92,-261.91C283.11,-258.72 286.3,-255.34 289.12,-252 300.94,-238.02 296.63,-227.34 312.38,-218 351.09,-195.03 482.9,-191.33 546.39,-190.91"/>
<polygon fill="#9a32cd" stroke="#9a32cd" points="277.65,-259.24 272.83,-268.68 282.48,-264.3 277.65,-259.24"/>
</a>
</g>
<text xml:space="preserve" text-anchor="start" x="315.38" y="-239.5" font-family="Helvetica,sans-Serif" font-size="10.00" fill="grey">blk</text>
<text xml:space="preserve" text-anchor="start" x="315.38" y="-223.5" font-family="Helvetica,sans-Serif" font-size="10.00" fill="grey">proc</text>
</g>
<!-- Node9 -->
<g id="Node000009" class="node">
<title>Node9</title>
<g id="a_Node000009"><a xlink:href="structmrb__irep.html" target="_top" xlink:title=" ">
<polygon fill="white" stroke="#bfbfbf" points="242.88,-380 189.38,-380 189.38,-360 242.88,-360 242.88,-380"/>
<text xml:space="preserve" text-anchor="middle" x="216.12" y="-366.5" font-family="Helvetica,sans-Serif" font-size="10.00">mrb_irep</text>
</a>
</g>
</g>
<!-- Node9&#45;&gt;Node8 -->
<g id="edge8_Node000008_Node000009" class="edge">
<title>Node9&#45;&gt;Node8</title>
<g id="a_edge8_Node000008_Node000009"><a xlink:title=" ">
<path fill="none" stroke="#9a32cd" stroke-dasharray="5,2" d="M219.11,-348.71C221.59,-336.31 225.94,-320.48 233.38,-308 237.37,-301.3 243.44,-295.13 248.89,-290.38"/>
<polygon fill="#9a32cd" stroke="#9a32cd" points="215.72,-347.79 217.48,-358.24 222.62,-348.97 215.72,-347.79"/>
</a>
</g>
<text xml:space="preserve" text-anchor="start" x="236.38" y="-321.5" font-family="Helvetica,sans-Serif" font-size="10.00" fill="grey">irep</text>
</g>
<!-- Node9&#45;&gt;Node9 -->
<g id="edge11_Node000009_Node000009" class="edge">
<title>Node9&#45;&gt;Node9</title>
<g id="a_edge11_Node000009_Node000009"><a xlink:title=" ">
<path fill="none" stroke="#9a32cd" stroke-dasharray="5,2" d="M254.44,-376.95C258.37,-375.58 260.88,-373.26 260.88,-370 260.88,-364.2 252.94,-361.39 243.21,-361.57"/>
<polygon fill="#9a32cd" stroke="#9a32cd" points="254.17,-373.45 244.71,-378.23 255.09,-380.39 254.17,-373.45"/>
</a>
</g>
<text xml:space="preserve" text-anchor="start" x="263.88" y="-366.5" font-family="Helvetica,sans-Serif" font-size="10.00" fill="grey">reps</text>
</g>
<!-- Node10 -->
<g id="Node000010" class="node">
<title>Node10</title>
<g id="a_Node000010"><a xlink:href="structmrb__pool__value.html" target="_top" xlink:title=" ">
<polygon fill="white" stroke="#bfbfbf" points="330.25,-470 246,-470 246,-450 330.25,-450 330.25,-470"/>
<text xml:space="preserve" text-anchor="middle" x="288.12" y="-456.5" font-family="Helvetica,sans-Serif" font-size="10.00">mrb_pool_value</text>
</a>
</g>
</g>
<!-- Node10&#45;&gt;Node9 -->
<g id="edge9_Node000009_Node000010" class="edge">
<title>Node10&#45;&gt;Node9</title>
<g id="a_edge9_Node000009_Node000010"><a xlink:title=" ">
<path fill="none" stroke="#9a32cd" stroke-dasharray="5,2" d="M276.54,-440.52C268.38,-428.02 256.84,-411.42 245.12,-398 239.7,-391.78 232.99,-385.46 227.39,-380.5"/>
<polygon fill="#9a32cd" stroke="#9a32cd" points="273.39,-442.08 281.73,-448.61 279.28,-438.3 273.39,-442.08"/>
</a>
</g>
<text xml:space="preserve" text-anchor="start" x="273.75" y="-411.5" font-family="Helvetica,sans-Serif" font-size="10.00" fill="grey">pool</text>
</g>
<!-- Node11 -->
<g id="Node000011" class="node">
<title>Node11</title>
<g id="a_Node000011"><a xlink:href="classmrb__sym.html" target="_top" xlink:title=" ">
<polygon fill="white" stroke="#666666" points="228.38,-470 171.88,-470 171.88,-450 228.38,-450 228.38,-470"/>
<text xml:space="preserve" text-anchor="middle" x="200.12" y="-456.5" font-family="Helvetica,sans-Serif" font-size="10.00">mrb_sym</text>
</a>
</g>
</g>
<!-- Node11&#45;&gt;Node9 -->
<g id="edge10_Node000009_Node000011" class="edge">
<title>Node11&#45;&gt;Node9</title>
<g id="a_edge10_Node000009_Node000011"><a xlink:title=" ">
<path fill="none" stroke="#9a32cd" stroke-dasharray="5,2" d="M203.88,-438.35C207.21,-420.02 211.93,-394.07 214.43,-380.35"/>
<polygon fill="#9a32cd" stroke="#9a32cd" points="200.45,-437.63 202.11,-448.09 207.34,-438.88 200.45,-437.63"/>
</a>
</g>
<text xml:space="preserve" text-anchor="start" x="213.95" y="-419.5" font-family="Helvetica,sans-Serif" font-size="10.00" fill="grey">lv</text>
<text xml:space="preserve" text-anchor="start" x="213.95" y="-403.5" font-family="Helvetica,sans-Serif" font-size="10.00" fill="grey">syms</text>
</g>
<!-- Node12 -->
<g id="Node000012" class="node">
<title>Node12</title>
<g id="a_Node000012"><a xlink:href="structmrb__irep__debug__info.html" target="_top" xlink:title=" ">
<polygon fill="white" stroke="#bfbfbf" points="116.12,-470 10.12,-470 10.12,-450 116.12,-450 116.12,-470"/>
<text xml:space="preserve" text-anchor="middle" x="63.12" y="-456.5" font-family="Helvetica,sans-Serif" font-size="10.00">mrb_irep_debug_info</text>
</a>
</g>
</g>
<!-- Node12&#45;&gt;Node9 -->
<g id="edge12_Node000009_Node000012" class="edge">
<title>Node12&#45;&gt;Node9</title>
<g id="a_edge12_Node000009_Node000012"><a xlink:title=" ">
<path fill="none" stroke="#9a32cd" stroke-dasharray="5,2" d="M83.09,-442.45C99.7,-429.24 124.34,-410.87 147.88,-398 160.96,-390.85 176.34,-384.59 189.18,-379.91"/>
<polygon fill="#9a32cd" stroke="#9a32cd" points="81.06,-439.59 75.49,-448.6 85.46,-445.03 81.06,-439.59"/>
</a>
</g>
<text xml:space="preserve" text-anchor="start" x="150.88" y="-411.5" font-family="Helvetica,sans-Serif" font-size="10.00" fill="grey">debug_info</text>
</g>
<!-- Node13 -->
<g id="Node000013" class="node">
<title>Node13</title>
<g id="a_Node000013"><a xlink:href="structmrb__irep__debug__info__file.html" target="_top" xlink:title=" ">
<polygon fill="white" stroke="#bfbfbf" points="125.12,-544 1.12,-544 1.12,-524 125.12,-524 125.12,-544"/>
<text xml:space="preserve" text-anchor="middle" x="63.12" y="-530.5" font-family="Helvetica,sans-Serif" font-size="10.00">mrb_irep_debug_info_file</text>
</a>
</g>
</g>
<!-- Node13&#45;&gt;Node12 -->
<g id="edge13_Node000012_Node000013" class="edge">
<title>Node13&#45;&gt;Node12</title>
<g id="a_edge13_Node000012_Node000013"><a xlink:title=" ">
<path fill="none" stroke="#9a32cd" stroke-dasharray="5,2" d="M63.12,-512.18C63.12,-498.29 63.12,-480.71 63.12,-470.19"/>
<polygon fill="#9a32cd" stroke="#9a32cd" points="59.63,-512.07 63.13,-522.07 66.63,-512.07 59.63,-512.07"/>
</a>
</g>
<text xml:space="preserve" text-anchor="start" x="66.12" y="-493.5" font-family="Helvetica,sans-Serif" font-size="10.00" fill="grey">files</text>
</g>
<!-- Node14 -->
<g id="Node000014" class="node">
<title>Node14</title>
<g id="a_Node000014"><a xlink:href="structmrb__irep__debug__info__line.html" target="_top" xlink:title=" ">
<polygon fill="white" stroke="#bfbfbf" points="126.25,-618 0,-618 0,-598 126.25,-598 126.25,-618"/>
<text xml:space="preserve" text-anchor="middle" x="63.12" y="-604.5" font-family="Helvetica,sans-Serif" font-size="10.00">mrb_irep_debug_info_line</text>
</a>
</g>
</g>
<!-- Node14&#45;&gt;Node13 -->
<g id="edge14_Node000013_Node000014" class="edge">
<title>Node14&#45;&gt;Node13</title>
<g id="a_edge14_Node000013_Node000014"><a xlink:title=" ">
<path fill="none" stroke="#9a32cd" stroke-dasharray="5,2" d="M63.12,-586.18C63.12,-572.29 63.12,-554.71 63.12,-544.19"/>
<polygon fill="#9a32cd" stroke="#9a32cd" points="59.63,-586.07 63.13,-596.07 66.63,-586.07 59.63,-586.07"/>
</a>
</g>
<text xml:space="preserve" text-anchor="start" x="66.12" y="-567.5" font-family="Helvetica,sans-Serif" font-size="10.00" fill="grey">flat_map</text>
</g>
<!-- Node15&#45;&gt;Node8 -->
<g id="edge18_Node000008_Node000015" class="edge">
<title>Node15&#45;&gt;Node8</title>
<g id="a_edge18_Node000008_Node000015"><a xlink:title=" ">
<path fill="none" stroke="#9a32cd" stroke-dasharray="5,2" d="M590.23,-11.53C531.3,-13.73 402.84,-24.36 309.12,-74 254.31,-103.03 244.98,-138.11 249.12,-200 250.83,-225.47 256.28,-255.14 259.22,-269.81"/>
<polygon fill="#9a32cd" stroke="#9a32cd" points="589.98,-15.04 599.87,-11.23 589.77,-8.04 589.98,-15.04"/>
</a>
</g>
<text xml:space="preserve" text-anchor="start" x="266.68" y="-133.5" font-family="Helvetica,sans-Serif" font-size="10.00" fill="grey">env</text>
</g>
<!-- Node15&#45;&gt;Node17 -->
<g id="edge26_Node000017_Node000015" class="edge">
<title>Node15&#45;&gt;Node17</title>
<g id="a_edge26_Node000017_Node000015"><a xlink:title=" ">
<path fill="none" stroke="#9a32cd" stroke-dasharray="5,2" d="M617.44,-31.34C608.55,-69.96 589.53,-152.5 583.21,-179.93"/>
<polygon fill="#9a32cd" stroke="#9a32cd" points="620.82,-32.27 619.65,-21.74 614,-30.7 620.82,-32.27"/>
</a>
</g>
<text xml:space="preserve" text-anchor="start" x="610.03" y="-80.5" font-family="Helvetica,sans-Serif" font-size="10.00" fill="grey">env</text>
</g>
<!-- Node16&#45;&gt;Node15 -->
<g id="edge20_Node000015_Node000016" class="edge">
<title>Node16&#45;&gt;Node15</title>
<g id="a_edge20_Node000015_Node000016"><a xlink:title=" ">
<path fill="none" stroke="#9a32cd" stroke-dasharray="5,2" d="M707.36,-65.85C697.67,-56.96 685.22,-46.28 673.12,-38 663.37,-31.32 651.77,-25.07 642.1,-20.26"/>
<polygon fill="#9a32cd" stroke="#9a32cd" points="704.91,-68.34 714.59,-72.64 709.7,-63.24 704.91,-68.34"/>
</a>
</g>
<text xml:space="preserve" text-anchor="start" x="698.48" y="-43.5" font-family="Helvetica,sans-Serif" font-size="10.00" fill="grey">cxt</text>
</g>
<!-- Node16&#45;&gt;Node16 -->
<g id="edge21_Node000016_Node000016" class="edge">
<title>Node16&#45;&gt;Node16</title>
<g id="a_edge21_Node000016_Node000016"><a xlink:title=" ">
<path fill="none" stroke="#9a32cd" stroke-dasharray="5,2" d="M771.4,-89.48C775.53,-88.33 778.12,-86.51 778.12,-84 778.12,-79.66 770.36,-77.36 760.29,-77.09"/>
<polygon fill="#9a32cd" stroke="#9a32cd" points="771.27,-85.97 761.79,-90.72 772.16,-92.91 771.27,-85.97"/>
</a>
</g>
<text xml:space="preserve" text-anchor="start" x="781.12" y="-80.5" font-family="Helvetica,sans-Serif" font-size="10.00" fill="grey">prev</text>
</g>
<!-- Node18 -->
<g id="Node000018" class="node">
<title>Node18</title>
<g id="a_Node000018"><a xlink:href="structRFiber.html" target="_top" xlink:title=" ">
<polygon fill="white" stroke="#bfbfbf" points="781.75,-20 736.5,-20 736.5,0 781.75,0 781.75,-20"/>
<text xml:space="preserve" text-anchor="middle" x="759.12" y="-6.5" font-family="Helvetica,sans-Serif" font-size="10.00">RFiber</text>
</a>
</g>
</g>
<!-- Node16&#45;&gt;Node18 -->
<g id="edge29_Node000018_Node000016" class="edge">
<title>Node16&#45;&gt;Node18</title>
<g id="a_edge29_Node000018_Node000016"><a xlink:title=" ">
<path fill="none" stroke="#9a32cd" stroke-dasharray="5,2" d="M727.77,-62.33C729.33,-54.42 731.79,-45.5 735.62,-38 739.02,-31.36 744.4,-25.01 749.15,-20.14"/>
<polygon fill="#9a32cd" stroke="#9a32cd" points="724.33,-61.66 726.22,-72.09 731.25,-62.76 724.33,-61.66"/>
</a>
</g>
<text xml:space="preserve" text-anchor="start" x="738.62" y="-43.5" font-family="Helvetica,sans-Serif" font-size="10.00" fill="grey">cxt</text>
</g>
<!-- Node17&#45;&gt;Node16 -->
<g id="edge23_Node000016_Node000017" class="edge">
<title>Node17&#45;&gt;Node16</title>
<g id="a_edge23_Node000016_Node000017"><a xlink:title=" ">
<path fill="none" stroke="#9a32cd" stroke-dasharray="5,2" d="M599.76,-171.77C618.04,-155.34 647.1,-130.43 674.62,-112 684.37,-105.47 695.86,-99.23 705.42,-94.39"/>
<polygon fill="#9a32cd" stroke="#9a32cd" points="597.41,-169.17 592.37,-178.49 602.12,-174.35 597.41,-169.17"/>
</a>
</g>
<text xml:space="preserve" text-anchor="start" x="677.62" y="-149.5" font-family="Helvetica,sans-Serif" font-size="10.00" fill="grey">ci</text>
<text xml:space="preserve" text-anchor="start" x="677.62" y="-133.5" font-family="Helvetica,sans-Serif" font-size="10.00" fill="grey">cibase</text>
<text xml:space="preserve" text-anchor="start" x="677.62" y="-117.5" font-family="Helvetica,sans-Serif" font-size="10.00" fill="grey">ciend</text>
</g>
<!-- Node18&#45;&gt;Node16 -->
<g id="edge28_Node000016_Node000018" class="edge">
<title>Node18&#45;&gt;Node16</title>
<g id="a_edge28_Node000016_Node000018"><a xlink:title=" ">
<path fill="none" stroke="#9a32cd" stroke-dasharray="5,2" d="M762.85,-31.79C763.33,-39.72 762.69,-48.61 759.12,-56 755.59,-63.33 748.98,-69.28 742.53,-73.71"/>
<polygon fill="#9a32cd" stroke="#9a32cd" points="766.34,-31.47 761.61,-21.99 759.39,-32.35 766.34,-31.47"/>
</a>
</g>
<text xml:space="preserve" text-anchor="start" x="765.96" y="-43.5" font-family="Helvetica,sans-Serif" font-size="10.00" fill="grey">fib</text>
</g>
</g>
</svg>
