<?xml version="1.0" encoding="UTF-8" standalone="no"?>
<!DOCTYPE svg PUBLIC "-//W3C//DTD SVG 1.1//EN"
 "http://www.w3.org/Graphics/SVG/1.1/DTD/svg11.dtd">
<!-- Generated by graphviz version 14.0.5 (0)
 -->
<!-- Title: nghttp2_settings Pages: 1 -->
<svg width="236pt" height="102pt"
 viewBox="0.00 0.00 236.00 102.00" xmlns="http://www.w3.org/2000/svg" xmlns:xlink="http://www.w3.org/1999/xlink">
<g id="graph0" class="graph" transform="scale(1 1) rotate(0) translate(4 98)">
<title>nghttp2_settings</title>
<!-- Node1 -->
<g id="Node000001" class="node">
<title>Node1</title>
<g id="a_Node000001"><a xlink:title=" ">
<polygon fill="#999999" stroke="#666666" points="152,-20 64,-20 64,0 152,0 152,-20"/>
<text xml:space="preserve" text-anchor="middle" x="108" y="-6.5" font-family="Helvetica,sans-Serif" font-size="10.00">nghttp2_settings</text>
</a>
</g>
</g>
<!-- Node2 -->
<g id="Node000002" class="node">
<title>Node2</title>
<g id="a_Node000002"><a xlink:href="structnghttp2__frame__hd.html" target="_top" xlink:title=" ">
<polygon fill="white" stroke="#666666" points="94,-94 0,-94 0,-74 94,-74 94,-94"/>
<text xml:space="preserve" text-anchor="middle" x="47" y="-80.5" font-family="Helvetica,sans-Serif" font-size="10.00">nghttp2_frame_hd</text>
</a>
</g>
</g>
<!-- Node2&#45;&gt;Node1 -->
<g id="edge1_Node000001_Node000002" class="edge">
<title>Node2&#45;&gt;Node1</title>
<g id="a_edge1_Node000001_Node000002"><a xlink:title=" ">
<path fill="none" stroke="#9a32cd" stroke-dasharray="5,2" d="M62.17,-65.09C74.25,-50.84 90.66,-31.46 100.22,-20.19"/>
<polygon fill="#9a32cd" stroke="#9a32cd" points="59.75,-62.54 55.95,-72.43 65.09,-67.07 59.75,-62.54"/>
</a>
</g>
<text xml:space="preserve" text-anchor="start" x="87.76" y="-43.5" font-family="Helvetica,sans-Serif" font-size="10.00" fill="grey">hd</text>
</g>
<!-- Node3 -->
<g id="Node000003" class="node">
<title>Node3</title>
<g id="a_Node000003"><a xlink:href="structnghttp2__settings__entry.html" target="_top" xlink:title=" ">
<polygon fill="white" stroke="#666666" points="227.5,-94 112.5,-94 112.5,-74 227.5,-74 227.5,-94"/>
<text xml:space="preserve" text-anchor="middle" x="170" y="-80.5" font-family="Helvetica,sans-Serif" font-size="10.00">nghttp2_settings_entry</text>
</a>
</g>
</g>
<!-- Node3&#45;&gt;Node1 -->
<g id="edge2_Node000001_Node000003" class="edge">
<title>Node3&#45;&gt;Node1</title>
<g id="a_edge2_Node000001_Node000003"><a xlink:title=" ">
<path fill="none" stroke="#9a32cd" stroke-dasharray="5,2" d="M154.58,-65.09C142.3,-50.84 125.62,-31.46 115.91,-20.19"/>
<polygon fill="#9a32cd" stroke="#9a32cd" points="151.73,-67.15 160.91,-72.44 157.03,-62.58 151.73,-67.15"/>
</a>
</g>
<text xml:space="preserve" text-anchor="start" x="149.38" y="-43.5" font-family="Helvetica,sans-Serif" font-size="10.00" fill="grey">iv</text>
</g>
</g>
</svg>
