<?xml version="1.0" encoding="UTF-8" standalone="no"?>
<!DOCTYPE svg PUBLIC "-//W3C//DTD SVG 1.1//EN"
 "http://www.w3.org/Graphics/SVG/1.1/DTD/svg11.dtd">
<!-- Generated by graphviz version 14.0.5 (0)
 -->
<!-- Title: RProc Pages: 1 -->
<svg width="574pt" height="832pt"
 viewBox="0.00 0.00 574.00 832.00" xmlns="http://www.w3.org/2000/svg" xmlns:xlink="http://www.w3.org/1999/xlink">
<g id="graph0" class="graph" transform="scale(1 1) rotate(0) translate(4 828)">
<title>RProc</title>
<!-- Node1 -->
<g id="Node000001" class="node">
<title>Node1</title>
<g id="a_Node000001"><a xlink:title=" ">
<polygon fill="#999999" stroke="#666666" points="271.88,-512 228.12,-512 228.12,-492 271.88,-492 271.88,-512"/>
<text xml:space="preserve" text-anchor="middle" x="250" y="-498.5" font-family="Helvetica,sans-Serif" font-size="10.00">RProc</text>
</a>
</g>
</g>
<!-- Node1&#45;&gt;Node1 -->
<g id="edge10_Node000001_Node000001" class="edge">
<title>Node1&#45;&gt;Node1</title>
<g id="a_edge10_Node000001_Node000001"><a xlink:title=" ">
<path fill="none" stroke="#9a32cd" stroke-dasharray="5,2" d="M283.32,-507.96C287.29,-506.87 289.88,-504.89 289.88,-502 289.88,-496.87 281.7,-494.58 272.14,-495.15"/>
<polygon fill="#9a32cd" stroke="#9a32cd" points="283.34,-504.44 273.65,-508.73 283.9,-511.42 283.34,-504.44"/>
</a>
</g>
<text xml:space="preserve" text-anchor="start" x="292.88" y="-498.5" font-family="Helvetica,sans-Serif" font-size="10.00" fill="grey">upper</text>
</g>
<!-- Node13 -->
<g id="Node000013" class="node">
<title>Node13</title>
<g id="a_Node000013"><a xlink:href="unionmt__ptr.html" target="_top" xlink:title=" ">
<polygon fill="white" stroke="#bfbfbf" points="187.88,-436 144.12,-436 144.12,-416 187.88,-416 187.88,-436"/>
<text xml:space="preserve" text-anchor="middle" x="166" y="-422.5" font-family="Helvetica,sans-Serif" font-size="10.00">mt_ptr</text>
</a>
</g>
</g>
<!-- Node1&#45;&gt;Node13 -->
<g id="edge16_Node000013_Node000001" class="edge">
<title>Node1&#45;&gt;Node13</title>
<g id="a_edge16_Node000013_Node000001"><a xlink:title=" ">
<path fill="none" stroke="#9a32cd" stroke-dasharray="5,2" d="M216.98,-494.42C204.34,-490.41 190.7,-484.04 181.25,-474 171.49,-463.63 167.98,-446.95 166.71,-436.5"/>
<polygon fill="#9a32cd" stroke="#9a32cd" points="215.67,-497.69 226.24,-496.97 217.53,-490.94 215.67,-497.69"/>
</a>
</g>
<text xml:space="preserve" text-anchor="start" x="184.25" y="-460.5" font-family="Helvetica,sans-Serif" font-size="10.00" fill="grey">proc</text>
</g>
<!-- Node16 -->
<g id="Node000016" class="node">
<title>Node16</title>
<g id="a_Node000016"><a xlink:href="structmrb__callinfo.html" target="_top" xlink:title=" ">
<polygon fill="white" stroke="#bfbfbf" points="200.25,-200 131.75,-200 131.75,-180 200.25,-180 200.25,-200"/>
<text xml:space="preserve" text-anchor="middle" x="166" y="-186.5" font-family="Helvetica,sans-Serif" font-size="10.00">mrb_callinfo</text>
</a>
</g>
</g>
<!-- Node1&#45;&gt;Node16 -->
<g id="edge25_Node000016_Node000001" class="edge">
<title>Node1&#45;&gt;Node16</title>
<g id="a_edge25_Node000016_Node000001"><a xlink:title=" ">
<path fill="none" stroke="#9a32cd" stroke-dasharray="5,2" d="M256.62,-480.99C263.05,-460.44 272.35,-427.39 276,-398 282.66,-344.44 256.66,-277.56 248,-254 241.76,-237.02 242.3,-230.27 229,-218 220.6,-210.25 209.64,-204.52 199.23,-200.38"/>
<polygon fill="#9a32cd" stroke="#9a32cd" points="253.35,-479.74 253.61,-490.33 260.01,-481.89 253.35,-479.74"/>
</a>
</g>
<text xml:space="preserve" text-anchor="start" x="279.22" y="-349.5" font-family="Helvetica,sans-Serif" font-size="10.00" fill="grey">blk</text>
<text xml:space="preserve" text-anchor="start" x="279.22" y="-333.5" font-family="Helvetica,sans-Serif" font-size="10.00" fill="grey">proc</text>
</g>
<!-- Node2 -->
<g id="Node000002" class="node">
<title>Node2</title>
<g id="a_Node000002"><a xlink:href="structmrb__irep.html" target="_top" xlink:title=" ">
<polygon fill="white" stroke="#bfbfbf" points="437.75,-586 384.25,-586 384.25,-566 437.75,-566 437.75,-586"/>
<text xml:space="preserve" text-anchor="middle" x="411" y="-572.5" font-family="Helvetica,sans-Serif" font-size="10.00">mrb_irep</text>
</a>
</g>
</g>
<!-- Node2&#45;&gt;Node1 -->
<g id="edge1_Node000001_Node000002" class="edge">
<title>Node2&#45;&gt;Node1</title>
<g id="a_edge1_Node000001_Node000002"><a xlink:title=" ">
<path fill="none" stroke="#9a32cd" stroke-dasharray="5,2" d="M379.79,-561.04C347.75,-546.72 298.78,-524.81 271.05,-512.42"/>
<polygon fill="#9a32cd" stroke="#9a32cd" points="378.01,-564.08 388.57,-564.97 380.87,-557.69 378.01,-564.08"/>
</a>
</g>
<text xml:space="preserve" text-anchor="start" x="352.66" y="-535.5" font-family="Helvetica,sans-Serif" font-size="10.00" fill="grey">irep</text>
</g>
<!-- Node2&#45;&gt;Node2 -->
<g id="edge4_Node000002_Node000002" class="edge">
<title>Node2&#45;&gt;Node2</title>
<g id="a_edge4_Node000002_Node000002"><a xlink:title=" ">
<path fill="none" stroke="#9a32cd" stroke-dasharray="5,2" d="M449.31,-581.71C453.24,-580.59 455.75,-578.68 455.75,-576 455.75,-571.23 447.82,-568.92 438.09,-569.07"/>
<polygon fill="#9a32cd" stroke="#9a32cd" points="449.16,-578.21 439.59,-582.77 449.91,-585.17 449.16,-578.21"/>
</a>
</g>
<text xml:space="preserve" text-anchor="start" x="458.75" y="-572.5" font-family="Helvetica,sans-Serif" font-size="10.00" fill="grey">reps</text>
</g>
<!-- Node3 -->
<g id="Node000003" class="node">
<title>Node3</title>
<g id="a_Node000003"><a xlink:href="structmrb__pool__value.html" target="_top" xlink:title=" ">
<polygon fill="white" stroke="#bfbfbf" points="566.12,-676 481.88,-676 481.88,-656 566.12,-656 566.12,-676"/>
<text xml:space="preserve" text-anchor="middle" x="524" y="-662.5" font-family="Helvetica,sans-Serif" font-size="10.00">mrb_pool_value</text>
</a>
</g>
</g>
<!-- Node3&#45;&gt;Node2 -->
<g id="edge2_Node000002_Node000003" class="edge">
<title>Node3&#45;&gt;Node2</title>
<g id="a_edge2_Node000002_Node000003"><a xlink:title=" ">
<path fill="none" stroke="#9a32cd" stroke-dasharray="5,2" d="M510.32,-646.65C499.83,-633.52 484.41,-616.1 468,-604 458.39,-596.92 446.63,-590.97 436.3,-586.48"/>
<polygon fill="#9a32cd" stroke="#9a32cd" points="507.5,-648.72 516.38,-654.49 513.04,-644.44 507.5,-648.72"/>
</a>
</g>
<text xml:space="preserve" text-anchor="start" x="504.89" y="-617.5" font-family="Helvetica,sans-Serif" font-size="10.00" fill="grey">pool</text>
</g>
<!-- Node4 -->
<g id="Node000004" class="node">
<title>Node4</title>
<g id="a_Node000004"><a xlink:href="classmrb__sym.html" target="_top" xlink:title=" ">
<polygon fill="white" stroke="#666666" points="340.25,-676 283.75,-676 283.75,-656 340.25,-656 340.25,-676"/>
<text xml:space="preserve" text-anchor="middle" x="312" y="-662.5" font-family="Helvetica,sans-Serif" font-size="10.00">mrb_sym</text>
</a>
</g>
</g>
<!-- Node4&#45;&gt;Node2 -->
<g id="edge3_Node000002_Node000004" class="edge">
<title>Node4&#45;&gt;Node2</title>
<g id="a_edge3_Node000002_Node000004"><a xlink:title=" ">
<path fill="none" stroke="#9a32cd" stroke-dasharray="5,2" d="M329.47,-647.86C342.35,-635.41 360.44,-618.3 377,-604 384.07,-597.89 392.27,-591.36 398.85,-586.26"/>
<polygon fill="#9a32cd" stroke="#9a32cd" points="327.27,-645.11 322.55,-654.6 332.16,-650.13 327.27,-645.11"/>
</a>
</g>
<text xml:space="preserve" text-anchor="start" x="380" y="-625.5" font-family="Helvetica,sans-Serif" font-size="10.00" fill="grey">lv</text>
<text xml:space="preserve" text-anchor="start" x="380" y="-609.5" font-family="Helvetica,sans-Serif" font-size="10.00" fill="grey">syms</text>
</g>
<!-- Node5 -->
<g id="Node000005" class="node">
<title>Node5</title>
<g id="a_Node000005"><a xlink:href="structmrb__irep__debug__info.html" target="_top" xlink:title=" ">
<polygon fill="white" stroke="#bfbfbf" points="464,-676 358,-676 358,-656 464,-656 464,-676"/>
<text xml:space="preserve" text-anchor="middle" x="411" y="-662.5" font-family="Helvetica,sans-Serif" font-size="10.00">mrb_irep_debug_info</text>
</a>
</g>
</g>
<!-- Node5&#45;&gt;Node2 -->
<g id="edge5_Node000002_Node000005" class="edge">
<title>Node5&#45;&gt;Node2</title>
<g id="a_edge5_Node000002_Node000005"><a xlink:title=" ">
<path fill="none" stroke="#9a32cd" stroke-dasharray="5,2" d="M411,-644.09C411,-625.77 411,-600.01 411,-586.35"/>
<polygon fill="#9a32cd" stroke="#9a32cd" points="407.5,-644.07 411,-654.07 414.5,-644.07 407.5,-644.07"/>
</a>
</g>
<text xml:space="preserve" text-anchor="start" x="414" y="-617.5" font-family="Helvetica,sans-Serif" font-size="10.00" fill="grey">debug_info</text>
</g>
<!-- Node6 -->
<g id="Node000006" class="node">
<title>Node6</title>
<g id="a_Node000006"><a xlink:href="structmrb__irep__debug__info__file.html" target="_top" xlink:title=" ">
<polygon fill="white" stroke="#bfbfbf" points="473,-750 349,-750 349,-730 473,-730 473,-750"/>
<text xml:space="preserve" text-anchor="middle" x="411" y="-736.5" font-family="Helvetica,sans-Serif" font-size="10.00">mrb_irep_debug_info_file</text>
</a>
</g>
</g>
<!-- Node6&#45;&gt;Node5 -->
<g id="edge6_Node000005_Node000006" class="edge">
<title>Node6&#45;&gt;Node5</title>
<g id="a_edge6_Node000005_Node000006"><a xlink:title=" ">
<path fill="none" stroke="#9a32cd" stroke-dasharray="5,2" d="M411,-718.18C411,-704.29 411,-686.71 411,-676.19"/>
<polygon fill="#9a32cd" stroke="#9a32cd" points="407.5,-718.07 411,-728.07 414.5,-718.07 407.5,-718.07"/>
</a>
</g>
<text xml:space="preserve" text-anchor="start" x="414" y="-699.5" font-family="Helvetica,sans-Serif" font-size="10.00" fill="grey">files</text>
</g>
<!-- Node7 -->
<g id="Node000007" class="node">
<title>Node7</title>
<g id="a_Node000007"><a xlink:href="structmrb__irep__debug__info__line.html" target="_top" xlink:title=" ">
<polygon fill="white" stroke="#bfbfbf" points="474.12,-824 347.88,-824 347.88,-804 474.12,-804 474.12,-824"/>
<text xml:space="preserve" text-anchor="middle" x="411" y="-810.5" font-family="Helvetica,sans-Serif" font-size="10.00">mrb_irep_debug_info_line</text>
</a>
</g>
</g>
<!-- Node7&#45;&gt;Node6 -->
<g id="edge7_Node000006_Node000007" class="edge">
<title>Node7&#45;&gt;Node6</title>
<g id="a_edge7_Node000006_Node000007"><a xlink:title=" ">
<path fill="none" stroke="#9a32cd" stroke-dasharray="5,2" d="M411,-792.18C411,-778.29 411,-760.71 411,-750.19"/>
<polygon fill="#9a32cd" stroke="#9a32cd" points="407.5,-792.07 411,-802.07 414.5,-792.07 407.5,-792.07"/>
</a>
</g>
<text xml:space="preserve" text-anchor="start" x="414" y="-773.5" font-family="Helvetica,sans-Serif" font-size="10.00" fill="grey">flat_map</text>
</g>
<!-- Node8 -->
<g id="Node000008" class="node">
<title>Node8</title>
<g id="a_Node000008"><a xlink:href="structmrb__value.html" target="_top" xlink:title=" ">
<polygon fill="white" stroke="#bfbfbf" points="154.5,-586 93.5,-586 93.5,-566 154.5,-566 154.5,-586"/>
<text xml:space="preserve" text-anchor="middle" x="124" y="-572.5" font-family="Helvetica,sans-Serif" font-size="10.00">mrb_value</text>
</a>
</g>
</g>
<!-- Node8&#45;&gt;Node1 -->
<g id="edge8_Node000001_Node000008" class="edge">
<title>Node8&#45;&gt;Node1</title>
<g id="a_edge8_Node000001_Node000008"><a xlink:title=" ">
<path fill="none" stroke="#9a32cd" stroke-dasharray="5,2" d="M150.41,-559.91C175.49,-545.58 212.39,-524.49 233.52,-512.42"/>
<polygon fill="#9a32cd" stroke="#9a32cd" points="148.73,-556.84 141.79,-564.84 152.21,-562.91 148.73,-556.84"/>
</a>
</g>
<text xml:space="preserve" text-anchor="start" x="204.99" y="-535.5" font-family="Helvetica,sans-Serif" font-size="10.00" fill="grey">func</text>
</g>
<!-- Node11 -->
<g id="Node000011" class="node">
<title>Node11</title>
<g id="a_Node000011"><a xlink:href="structiv__tbl.html" target="_top" xlink:title=" ">
<polygon fill="white" stroke="#bfbfbf" points="126.62,-474 87.38,-474 87.38,-454 126.62,-454 126.62,-474"/>
<text xml:space="preserve" text-anchor="middle" x="107" y="-460.5" font-family="Helvetica,sans-Serif" font-size="10.00">iv_tbl</text>
</a>
</g>
</g>
<!-- Node8&#45;&gt;Node11 -->
<g id="edge13_Node000011_Node000008" class="edge">
<title>Node8&#45;&gt;Node11</title>
<g id="a_edge13_Node000011_Node000008"><a xlink:title=" ">
<path fill="none" stroke="#9a32cd" stroke-dasharray="5,2" d="M117.38,-554.84C116.77,-552.55 116.2,-550.23 115.75,-548 110.37,-521.59 108.19,-489.74 107.4,-474.3"/>
<polygon fill="#9a32cd" stroke="#9a32cd" points="113.96,-555.61 120.21,-564.17 120.66,-553.58 113.96,-555.61"/>
</a>
</g>
<text xml:space="preserve" text-anchor="start" x="118.75" y="-535.5" font-family="Helvetica,sans-Serif" font-size="10.00" fill="grey">ptr</text>
</g>
<!-- Node8&#45;&gt;Node13 -->
<g id="edge17_Node000013_Node000008" class="edge">
<title>Node8&#45;&gt;Node13</title>
<g id="a_edge17_Node000013_Node000008"><a xlink:title=" ">
<path fill="none" stroke="#9a32cd" stroke-dasharray="5,2" d="M130.88,-554.77C131.61,-552.49 132.33,-550.2 133,-548 145.49,-506.74 158.4,-456.92 163.61,-436.46"/>
<polygon fill="#9a32cd" stroke="#9a32cd" points="127.61,-553.51 127.77,-564.11 134.25,-555.72 127.61,-553.51"/>
</a>
</g>
<text xml:space="preserve" text-anchor="start" x="151.73" y="-498.5" font-family="Helvetica,sans-Serif" font-size="10.00" fill="grey">func</text>
</g>
<!-- Node14 -->
<g id="Node000014" class="node">
<title>Node14</title>
<g id="a_Node000014"><a xlink:href="structREnv.html" target="_top" xlink:title=" ">
<polygon fill="white" stroke="#666666" points="323.38,-20 282.62,-20 282.62,0 323.38,0 323.38,-20"/>
<text xml:space="preserve" text-anchor="middle" x="303" y="-6.5" font-family="Helvetica,sans-Serif" font-size="10.00">REnv</text>
</a>
</g>
</g>
<!-- Node8&#45;&gt;Node14 -->
<g id="edge20_Node000014_Node000008" class="edge">
<title>Node8&#45;&gt;Node14</title>
<g id="a_edge20_Node000014_Node000008"><a xlink:title=" ">
<path fill="none" stroke="#9a32cd" stroke-dasharray="5,2" d="M166.3,-571.76C238.54,-565.05 378,-546.47 378,-503 378,-503 378,-503 378,-83 378,-52.68 345.7,-31.14 323.49,-19.92"/>
<polygon fill="#9a32cd" stroke="#9a32cd" points="166.05,-568.27 156.4,-572.64 166.67,-575.24 166.05,-568.27"/>
</a>
</g>
<text xml:space="preserve" text-anchor="start" x="381" y="-297.5" font-family="Helvetica,sans-Serif" font-size="10.00" fill="grey">stack</text>
</g>
<!-- Node15 -->
<g id="Node000015" class="node">
<title>Node15</title>
<g id="a_Node000015"><a xlink:href="structmrb__context.html" target="_top" xlink:title=" ">
<polygon fill="white" stroke="#bfbfbf" points="199,-94 129,-94 129,-74 199,-74 199,-94"/>
<text xml:space="preserve" text-anchor="middle" x="164" y="-80.5" font-family="Helvetica,sans-Serif" font-size="10.00">mrb_context</text>
</a>
</g>
</g>
<!-- Node8&#45;&gt;Node15 -->
<g id="edge23_Node000015_Node000008" class="edge">
<title>Node8&#45;&gt;Node15</title>
<g id="a_edge23_Node000015_Node000008"><a xlink:title=" ">
<path fill="none" stroke="#9a32cd" stroke-dasharray="5,2" d="M81.78,-568.35C45.84,-559.99 0,-541.75 0,-503 0,-503 0,-503 0,-189 0,-128.48 80.63,-101.7 128.82,-91.1"/>
<polygon fill="#9a32cd" stroke="#9a32cd" points="81.04,-571.77 91.55,-570.41 82.49,-564.92 81.04,-571.77"/>
</a>
</g>
<text xml:space="preserve" text-anchor="start" x="3" y="-349.5" font-family="Helvetica,sans-Serif" font-size="10.00" fill="grey">stbase</text>
<text xml:space="preserve" text-anchor="start" x="3" y="-333.5" font-family="Helvetica,sans-Serif" font-size="10.00" fill="grey">stend</text>
</g>
<!-- Node8&#45;&gt;Node16 -->
<g id="edge26_Node000016_Node000008" class="edge">
<title>Node8&#45;&gt;Node16</title>
<g id="a_edge26_Node000016_Node000008"><a xlink:title=" ">
<path fill="none" stroke="#9a32cd" stroke-dasharray="5,2" d="M98.99,-559.11C82.15,-546.27 63,-526.5 63,-503 63,-503 63,-503 63,-263 63,-228.86 101.49,-209.55 131.42,-199.7"/>
<polygon fill="#9a32cd" stroke="#9a32cd" points="96.57,-561.68 106.74,-564.63 100.63,-555.98 96.57,-561.68"/>
</a>
</g>
<text xml:space="preserve" text-anchor="start" x="66" y="-385.5" font-family="Helvetica,sans-Serif" font-size="10.00" fill="grey">stack</text>
</g>
<!-- Node9 -->
<g id="Node000009" class="node">
<title>Node9</title>
<g id="a_Node000009"><a xlink:href="unionmrb__value__union.html" target="_top" xlink:title=" ">
<polygon fill="white" stroke="#bfbfbf" points="168.75,-676 79.25,-676 79.25,-656 168.75,-656 168.75,-676"/>
<text xml:space="preserve" text-anchor="middle" x="124" y="-662.5" font-family="Helvetica,sans-Serif" font-size="10.00">mrb_value_union</text>
</a>
</g>
</g>
<!-- Node9&#45;&gt;Node8 -->
<g id="edge9_Node000008_Node000009" class="edge">
<title>Node9&#45;&gt;Node8</title>
<g id="a_edge9_Node000008_Node000009"><a xlink:title=" ">
<path fill="none" stroke="#9a32cd" stroke-dasharray="5,2" d="M124,-644.09C124,-625.77 124,-600.01 124,-586.35"/>
<polygon fill="#9a32cd" stroke="#9a32cd" points="120.5,-644.07 124,-654.07 127.5,-644.07 120.5,-644.07"/>
</a>
</g>
<text xml:space="preserve" text-anchor="start" x="127" y="-617.5" font-family="Helvetica,sans-Serif" font-size="10.00" fill="grey">value</text>
</g>
<!-- Node10 -->
<g id="Node000010" class="node">
<title>Node10</title>
<g id="a_Node000010"><a xlink:href="structRClass.html" target="_top" xlink:title=" ">
<polygon fill="white" stroke="#666666" points="190.5,-274 141.5,-274 141.5,-254 190.5,-254 190.5,-274"/>
<text xml:space="preserve" text-anchor="middle" x="166" y="-260.5" font-family="Helvetica,sans-Serif" font-size="10.00">RClass</text>
</a>
</g>
</g>
<!-- Node10&#45;&gt;Node1 -->
<g id="edge11_Node000001_Node000010" class="edge">
<title>Node10&#45;&gt;Node1</title>
<g id="a_edge11_Node000001_Node000010"><a xlink:title=" ">
<path fill="none" stroke="#9a32cd" stroke-dasharray="5,2" d="M181.66,-283.22C183.64,-286.04 185.5,-289.02 187,-292 209.04,-335.68 202.62,-351.15 216.75,-398 227.22,-432.72 240.8,-473.63 246.85,-491.66"/>
<polygon fill="#9a32cd" stroke="#9a32cd" points="184.6,-281.31 175.7,-275.57 179.08,-285.61 184.6,-281.31"/>
</a>
</g>
<text xml:space="preserve" text-anchor="start" x="219.75" y="-385.5" font-family="Helvetica,sans-Serif" font-size="10.00" fill="grey">target_class</text>
</g>
<!-- Node10&#45;&gt;Node10 -->
<g id="edge18_Node000010_Node000010" class="edge">
<title>Node10&#45;&gt;Node10</title>
<g id="a_edge18_Node000010_Node000010"><a xlink:title=" ">
<path fill="none" stroke="#9a32cd" stroke-dasharray="5,2" d="M202.04,-269.81C205.97,-268.7 208.5,-266.76 208.5,-264 208.5,-259.09 200.5,-256.78 190.88,-257.09"/>
<polygon fill="#9a32cd" stroke="#9a32cd" points="202,-266.3 192.39,-270.76 202.68,-273.27 202,-266.3"/>
</a>
</g>
<text xml:space="preserve" text-anchor="start" x="211.5" y="-260.5" font-family="Helvetica,sans-Serif" font-size="10.00" fill="grey">super</text>
</g>
<!-- Node10&#45;&gt;Node16 -->
<g id="edge28_Node000016_Node000010" class="edge">
<title>Node10&#45;&gt;Node16</title>
<g id="a_edge28_Node000016_Node000010"><a xlink:title=" ">
<path fill="none" stroke="#9a32cd" stroke-dasharray="5,2" d="M166,-242.18C166,-228.29 166,-210.71 166,-200.19"/>
<polygon fill="#9a32cd" stroke="#9a32cd" points="162.5,-242.07 166,-252.07 169.5,-242.07 162.5,-242.07"/>
</a>
</g>
<text xml:space="preserve" text-anchor="start" x="169" y="-223.5" font-family="Helvetica,sans-Serif" font-size="10.00" fill="grey">target_class</text>
</g>
<!-- Node11&#45;&gt;Node10 -->
<g id="edge12_Node000010_Node000011" class="edge">
<title>Node11&#45;&gt;Node10</title>
<g id="a_edge12_Node000010_Node000011"><a xlink:title=" ">
<path fill="none" stroke="#9a32cd" stroke-dasharray="5,2" d="M109.64,-442.26C113.43,-415.38 121.5,-367.3 135,-328 141.81,-308.17 153.46,-286.55 160.38,-274.49"/>
<polygon fill="#9a32cd" stroke="#9a32cd" points="106.18,-441.74 108.32,-452.12 113.12,-442.67 106.18,-441.74"/>
</a>
</g>
<text xml:space="preserve" text-anchor="start" x="123.53" y="-385.5" font-family="Helvetica,sans-Serif" font-size="10.00" fill="grey">iv</text>
</g>
<!-- Node12 -->
<g id="Node000012" class="node">
<title>Node12</title>
<g id="a_Node000012"><a xlink:href="structmt__tbl.html" target="_top" xlink:title=" ">
<polygon fill="white" stroke="#bfbfbf" points="187.5,-355 144.5,-355 144.5,-335 187.5,-335 187.5,-355"/>
<text xml:space="preserve" text-anchor="middle" x="166" y="-341.5" font-family="Helvetica,sans-Serif" font-size="10.00">mt_tbl</text>
</a>
</g>
</g>
<!-- Node12&#45;&gt;Node10 -->
<g id="edge14_Node000010_Node000012" class="edge">
<title>Node12&#45;&gt;Node10</title>
<g id="a_edge14_Node000010_Node000012"><a xlink:title=" ">
<path fill="none" stroke="#9a32cd" stroke-dasharray="5,2" d="M166,-323.32C166,-307.48 166,-286.35 166,-274.36"/>
<polygon fill="#9a32cd" stroke="#9a32cd" points="162.5,-323.11 166,-333.11 169.5,-323.11 162.5,-323.11"/>
</a>
</g>
<text xml:space="preserve" text-anchor="start" x="169" y="-297.5" font-family="Helvetica,sans-Serif" font-size="10.00" fill="grey">mt</text>
</g>
<!-- Node13&#45;&gt;Node12 -->
<g id="edge15_Node000012_Node000013" class="edge">
<title>Node13&#45;&gt;Node12</title>
<g id="a_edge15_Node000012_Node000013"><a xlink:title=" ">
<path fill="none" stroke="#9a32cd" stroke-dasharray="5,2" d="M166,-404.32C166,-388.48 166,-367.35 166,-355.36"/>
<polygon fill="#9a32cd" stroke="#9a32cd" points="162.5,-404.11 166,-414.11 169.5,-404.11 162.5,-404.11"/>
</a>
</g>
<text xml:space="preserve" text-anchor="start" x="169" y="-385.5" font-family="Helvetica,sans-Serif" font-size="10.00" fill="grey">ptr</text>
</g>
<!-- Node14&#45;&gt;Node1 -->
<g id="edge19_Node000001_Node000014" class="edge">
<title>Node14&#45;&gt;Node1</title>
<g id="a_edge19_Node000001_Node000014"><a xlink:title=" ">
<path fill="none" stroke="#9a32cd" stroke-dasharray="5,2" d="M313.68,-30.4C320.47,-44.55 328,-64.42 328,-83 328,-427 328,-427 328,-427 328,-458.17 294.81,-480.17 271.73,-491.69"/>
<polygon fill="#9a32cd" stroke="#9a32cd" points="316.93,-29.06 309.24,-21.77 310.7,-32.26 316.93,-29.06"/>
</a>
</g>
<text xml:space="preserve" text-anchor="start" x="331" y="-260.5" font-family="Helvetica,sans-Serif" font-size="10.00" fill="grey">env</text>
</g>
<!-- Node14&#45;&gt;Node16 -->
<g id="edge27_Node000016_Node000014" class="edge">
<title>Node14&#45;&gt;Node16</title>
<g id="a_edge27_Node000016_Node000014"><a xlink:title=" ">
<path fill="none" stroke="#9a32cd" stroke-dasharray="5,2" d="M293.41,-30.6C277.77,-61.2 244.42,-121.05 204,-162 197.41,-168.68 188.98,-174.85 181.75,-179.6"/>
<polygon fill="#9a32cd" stroke="#9a32cd" points="296.49,-32.26 297.84,-21.76 290.23,-29.13 296.49,-32.26"/>
</a>
</g>
<text xml:space="preserve" text-anchor="start" x="271.48" y="-80.5" font-family="Helvetica,sans-Serif" font-size="10.00" fill="grey">env</text>
</g>
<!-- Node15&#45;&gt;Node14 -->
<g id="edge21_Node000014_Node000015" class="edge">
<title>Node15&#45;&gt;Node14</title>
<g id="a_edge21_Node000014_Node000015"><a xlink:title=" ">
<path fill="none" stroke="#9a32cd" stroke-dasharray="5,2" d="M189.38,-68.15C205.09,-59.12 225.77,-47.54 244.5,-38 256.86,-31.71 270.97,-25.17 282.24,-20.11"/>
<polygon fill="#9a32cd" stroke="#9a32cd" points="188.05,-64.87 181.15,-72.91 191.56,-70.93 188.05,-64.87"/>
</a>
</g>
<text xml:space="preserve" text-anchor="start" x="247.5" y="-43.5" font-family="Helvetica,sans-Serif" font-size="10.00" fill="grey">cxt</text>
</g>
<!-- Node15&#45;&gt;Node15 -->
<g id="edge22_Node000015_Node000015" class="edge">
<title>Node15&#45;&gt;Node15</title>
<g id="a_edge22_Node000015_Node000015"><a xlink:title=" ">
<path fill="none" stroke="#9a32cd" stroke-dasharray="5,2" d="M210.27,-89.48C214.41,-88.33 217,-86.51 217,-84 217,-79.66 209.24,-77.36 199.17,-77.09"/>
<polygon fill="#9a32cd" stroke="#9a32cd" points="210.14,-85.97 200.67,-90.72 211.03,-92.91 210.14,-85.97"/>
</a>
</g>
<text xml:space="preserve" text-anchor="start" x="220" y="-80.5" font-family="Helvetica,sans-Serif" font-size="10.00" fill="grey">prev</text>
</g>
<!-- Node17 -->
<g id="Node000017" class="node">
<title>Node17</title>
<g id="a_Node000017"><a xlink:href="structRFiber.html" target="_top" xlink:title=" ">
<polygon fill="white" stroke="#bfbfbf" points="175.62,-20 130.38,-20 130.38,0 175.62,0 175.62,-20"/>
<text xml:space="preserve" text-anchor="middle" x="153" y="-6.5" font-family="Helvetica,sans-Serif" font-size="10.00">RFiber</text>
</a>
</g>
</g>
<!-- Node15&#45;&gt;Node17 -->
<g id="edge30_Node000017_Node000015" class="edge">
<title>Node15&#45;&gt;Node17</title>
<g id="a_edge30_Node000017_Node000015"><a xlink:title=" ">
<path fill="none" stroke="#9a32cd" stroke-dasharray="5,2" d="M140.32,-66.04C137.56,-63.02 135.15,-59.66 133.5,-56 130.22,-48.71 131.04,-45.61 133.5,-38 135.63,-31.4 140.05,-25.05 144.14,-20.17"/>
<polygon fill="#9a32cd" stroke="#9a32cd" points="137.79,-68.46 147.55,-72.58 142.48,-63.27 137.79,-68.46"/>
</a>
</g>
<text xml:space="preserve" text-anchor="start" x="136.5" y="-43.5" font-family="Helvetica,sans-Serif" font-size="10.00" fill="grey">cxt</text>
</g>
<!-- Node16&#45;&gt;Node15 -->
<g id="edge24_Node000015_Node000016" class="edge">
<title>Node16&#45;&gt;Node15</title>
<g id="a_edge24_Node000015_Node000016"><a xlink:title=" ">
<path fill="none" stroke="#9a32cd" stroke-dasharray="5,2" d="M165.61,-168.51C165.17,-146.04 164.5,-110.99 164.18,-94.36"/>
<polygon fill="#9a32cd" stroke="#9a32cd" points="162.1,-168.33 165.79,-178.26 169.1,-168.19 162.1,-168.33"/>
</a>
</g>
<text xml:space="preserve" text-anchor="start" x="168.46" y="-149.5" font-family="Helvetica,sans-Serif" font-size="10.00" fill="grey">ci</text>
<text xml:space="preserve" text-anchor="start" x="168.46" y="-133.5" font-family="Helvetica,sans-Serif" font-size="10.00" fill="grey">cibase</text>
<text xml:space="preserve" text-anchor="start" x="168.46" y="-117.5" font-family="Helvetica,sans-Serif" font-size="10.00" fill="grey">ciend</text>
</g>
<!-- Node17&#45;&gt;Node15 -->
<g id="edge29_Node000015_Node000017" class="edge">
<title>Node17&#45;&gt;Node15</title>
<g id="a_edge29_Node000015_Node000017"><a xlink:title=" ">
<path fill="none" stroke="#9a32cd" stroke-dasharray="5,2" d="M156.14,-31.53C158.25,-45.36 160.94,-62.96 162.56,-73.59"/>
<polygon fill="#9a32cd" stroke="#9a32cd" points="159.6,-31.04 154.63,-21.68 152.68,-32.1 159.6,-31.04"/>
</a>
</g>
<text xml:space="preserve" text-anchor="start" x="162.81" y="-43.5" font-family="Helvetica,sans-Serif" font-size="10.00" fill="grey">fib</text>
</g>
</g>
</svg>
