<?xml version="1.0" encoding="UTF-8" standalone="no"?>
<!DOCTYPE svg PUBLIC "-//W3C//DTD SVG 1.1//EN"
 "http://www.w3.org/Graphics/SVG/1.1/DTD/svg11.dtd">
<!-- Generated by graphviz version 14.0.5 (0)
 -->
<!-- Title: MunitTestRunner Pages: 1 -->
<svg width="292pt" height="266pt"
 viewBox="0.00 0.00 292.00 266.00" xmlns="http://www.w3.org/2000/svg" xmlns:xlink="http://www.w3.org/1999/xlink">
<g id="graph0" class="graph" transform="scale(1 1) rotate(0) translate(4 262)">
<title>MunitTestRunner</title>
<!-- Node1 -->
<g id="Node000001" class="node">
<title>Node1</title>
<g id="a_Node000001"><a xlink:title=" ">
<polygon fill="#999999" stroke="#666666" points="157.62,-20 67.38,-20 67.38,0 157.62,0 157.62,-20"/>
<text xml:space="preserve" text-anchor="middle" x="112.5" y="-6.5" font-family="Helvetica,sans-Serif" font-size="10.00">MunitTestRunner</text>
</a>
</g>
</g>
<!-- Node2 -->
<g id="Node000002" class="node">
<title>Node2</title>
<g id="a_Node000002"><a xlink:href="structMunitSuite__.html" target="_top" xlink:title=" ">
<polygon fill="white" stroke="#bfbfbf" points="146.38,-94 78.62,-94 78.62,-74 146.38,-74 146.38,-94"/>
<text xml:space="preserve" text-anchor="middle" x="112.5" y="-80.5" font-family="Helvetica,sans-Serif" font-size="10.00">MunitSuite_</text>
</a>
</g>
</g>
<!-- Node2&#45;&gt;Node1 -->
<g id="edge1_Node000001_Node000002" class="edge">
<title>Node2&#45;&gt;Node1</title>
<g id="a_edge1_Node000001_Node000002"><a xlink:title=" ">
<path fill="none" stroke="#9a32cd" stroke-dasharray="5,2" d="M112.5,-62.18C112.5,-48.29 112.5,-30.71 112.5,-20.19"/>
<polygon fill="#9a32cd" stroke="#9a32cd" points="109,-62.07 112.5,-72.07 116,-62.07 109,-62.07"/>
</a>
</g>
<text xml:space="preserve" text-anchor="start" x="115.5" y="-43.5" font-family="Helvetica,sans-Serif" font-size="10.00" fill="grey">suite</text>
</g>
<!-- Node2&#45;&gt;Node2 -->
<g id="edge5_Node000002_Node000002" class="edge">
<title>Node2&#45;&gt;Node2</title>
<g id="a_edge5_Node000002_Node000002"><a xlink:title=" ">
<path fill="none" stroke="#9a32cd" stroke-dasharray="5,2" d="M157.58,-89.54C161.75,-88.39 164.38,-86.55 164.38,-84 164.38,-79.59 156.52,-77.28 146.43,-77.08"/>
<polygon fill="#9a32cd" stroke="#9a32cd" points="157.42,-86.03 147.93,-90.74 158.28,-92.98 157.42,-86.03"/>
</a>
</g>
<text xml:space="preserve" text-anchor="start" x="167.38" y="-80.5" font-family="Helvetica,sans-Serif" font-size="10.00" fill="grey">suites</text>
</g>
<!-- Node3 -->
<g id="Node000003" class="node">
<title>Node3</title>
<g id="a_Node000003"><a xlink:href="structMunitTest.html" target="_top" xlink:title=" ">
<polygon fill="white" stroke="#bfbfbf" points="149.88,-168 91.12,-168 91.12,-148 149.88,-148 149.88,-168"/>
<text xml:space="preserve" text-anchor="middle" x="120.5" y="-154.5" font-family="Helvetica,sans-Serif" font-size="10.00">MunitTest</text>
</a>
</g>
</g>
<!-- Node3&#45;&gt;Node2 -->
<g id="edge2_Node000002_Node000003" class="edge">
<title>Node3&#45;&gt;Node2</title>
<g id="a_edge2_Node000002_Node000003"><a xlink:title=" ">
<path fill="none" stroke="#9a32cd" stroke-dasharray="5,2" d="M118.19,-136.18C116.64,-122.29 114.69,-104.71 113.52,-94.19"/>
<polygon fill="#9a32cd" stroke="#9a32cd" points="114.7,-136.53 119.29,-146.08 121.66,-135.76 114.7,-136.53"/>
</a>
</g>
<text xml:space="preserve" text-anchor="start" x="120.45" y="-117.5" font-family="Helvetica,sans-Serif" font-size="10.00" fill="grey">tests</text>
</g>
<!-- Node4 -->
<g id="Node000004" class="node">
<title>Node4</title>
<g id="a_Node000004"><a xlink:href="structMunitParameter.html" target="_top" xlink:title=" ">
<polygon fill="white" stroke="#bfbfbf" points="85,-258 0,-258 0,-238 85,-238 85,-258"/>
<text xml:space="preserve" text-anchor="middle" x="42.5" y="-244.5" font-family="Helvetica,sans-Serif" font-size="10.00">MunitParameter</text>
</a>
</g>
</g>
<!-- Node4&#45;&gt;Node1 -->
<g id="edge6_Node000001_Node000004" class="edge">
<title>Node4&#45;&gt;Node1</title>
<g id="a_edge6_Node000001_Node000004"><a xlink:title=" ">
<path fill="none" stroke="#9a32cd" stroke-dasharray="5,2" d="M41.8,-226.29C41.5,-192.57 44.41,-124.46 69.5,-74 79.64,-53.6 95.56,-32.18 104.92,-20.31"/>
<polygon fill="#9a32cd" stroke="#9a32cd" points="38.3,-226.35 42.02,-236.27 45.3,-226.2 38.3,-226.35"/>
</a>
</g>
<text xml:space="preserve" text-anchor="start" x="57.81" y="-117.5" font-family="Helvetica,sans-Serif" font-size="10.00" fill="grey">parameters</text>
</g>
<!-- Node4&#45;&gt;Node3 -->
<g id="edge3_Node000003_Node000004" class="edge">
<title>Node4&#45;&gt;Node3</title>
<g id="a_edge3_Node000003_Node000004"><a xlink:title=" ">
<path fill="none" stroke="#9a32cd" stroke-dasharray="5,2" d="M58.28,-229.19C74.59,-210.8 99.41,-182.8 112.21,-168.35"/>
<polygon fill="#9a32cd" stroke="#9a32cd" points="55.87,-226.64 51.85,-236.45 61.1,-231.29 55.87,-226.64"/>
</a>
</g>
<text xml:space="preserve" text-anchor="start" x="98.27" y="-207.5" font-family="Helvetica,sans-Serif" font-size="10.00" fill="grey">setup</text>
<text xml:space="preserve" text-anchor="start" x="98.27" y="-191.5" font-family="Helvetica,sans-Serif" font-size="10.00" fill="grey">test</text>
</g>
<!-- Node5 -->
<g id="Node000005" class="node">
<title>Node5</title>
<g id="a_Node000005"><a xlink:href="structMunitParameterEnum.html" target="_top" xlink:title=" ">
<polygon fill="white" stroke="#bfbfbf" points="213.75,-258 103.25,-258 103.25,-238 213.75,-238 213.75,-258"/>
<text xml:space="preserve" text-anchor="middle" x="158.5" y="-244.5" font-family="Helvetica,sans-Serif" font-size="10.00">MunitParameterEnum</text>
</a>
</g>
</g>
<!-- Node5&#45;&gt;Node3 -->
<g id="edge4_Node000003_Node000005" class="edge">
<title>Node5&#45;&gt;Node3</title>
<g id="a_edge4_Node000003_Node000005"><a xlink:title=" ">
<path fill="none" stroke="#9a32cd" stroke-dasharray="5,2" d="M149.92,-227.14C141.99,-208.77 130.55,-182.27 124.54,-168.35"/>
<polygon fill="#9a32cd" stroke="#9a32cd" points="146.66,-228.4 153.83,-236.19 153.08,-225.62 146.66,-228.4"/>
</a>
</g>
<text xml:space="preserve" text-anchor="start" x="149.21" y="-199.5" font-family="Helvetica,sans-Serif" font-size="10.00" fill="grey">parameters</text>
</g>
<!-- Node6 -->
<g id="Node000006" class="node">
<title>Node6</title>
<g id="a_Node000006"><a xlink:href="structMunitReport.html" target="_top" xlink:title=" ">
<polygon fill="white" stroke="#bfbfbf" points="284.12,-94 214.88,-94 214.88,-74 284.12,-74 284.12,-94"/>
<text xml:space="preserve" text-anchor="middle" x="249.5" y="-80.5" font-family="Helvetica,sans-Serif" font-size="10.00">MunitReport</text>
</a>
</g>
</g>
<!-- Node6&#45;&gt;Node1 -->
<g id="edge7_Node000001_Node000006" class="edge">
<title>Node6&#45;&gt;Node1</title>
<g id="a_edge7_Node000001_Node000006"><a xlink:title=" ">
<path fill="none" stroke="#9a32cd" stroke-dasharray="5,2" d="M221.51,-68.29C194.24,-53.96 153.6,-32.6 130.41,-20.42"/>
<polygon fill="#9a32cd" stroke="#9a32cd" points="219.77,-71.33 230.25,-72.88 223.03,-65.13 219.77,-71.33"/>
</a>
</g>
<text xml:space="preserve" text-anchor="start" x="200.3" y="-43.5" font-family="Helvetica,sans-Serif" font-size="10.00" fill="grey">report</text>
</g>
</g>
</svg>
