<?xml version="1.0" encoding="UTF-8" standalone="no"?>
<!DOCTYPE svg PUBLIC "-//W3C//DTD SVG 1.1//EN"
 "http://www.w3.org/Graphics/SVG/1.1/DTD/svg11.dtd">
<!-- Generated by graphviz version 14.0.5 (0)
 -->
<!-- Title: nghttp2_hd_entry Pages: 1 -->
<svg width="181pt" height="192pt"
 viewBox="0.00 0.00 181.00 192.00" xmlns="http://www.w3.org/2000/svg" xmlns:xlink="http://www.w3.org/1999/xlink">
<g id="graph0" class="graph" transform="scale(1 1) rotate(0) translate(4 188)">
<title>nghttp2_hd_entry</title>
<!-- Node1 -->
<g id="Node000001" class="node">
<title>Node1</title>
<g id="a_Node000001"><a xlink:title=" ">
<polygon fill="#999999" stroke="#666666" points="130.38,-20 39.38,-20 39.38,0 130.38,0 130.38,-20"/>
<text xml:space="preserve" text-anchor="middle" x="84.88" y="-6.5" font-family="Helvetica,sans-Serif" font-size="10.00">nghttp2_hd_entry</text>
</a>
</g>
</g>
<!-- Node1&#45;&gt;Node1 -->
<g id="edge4_Node000001_Node000001" class="edge">
<title>Node1&#45;&gt;Node1</title>
<g id="a_edge4_Node000001_Node000001"><a xlink:title=" ">
<path fill="none" stroke="#9a32cd" stroke-dasharray="5,2" d="M142.18,-14.99C146.04,-13.84 148.38,-12.17 148.38,-10 148.38,-6.13 140.98,-3.88 130.83,-3.25"/>
<polygon fill="#9a32cd" stroke="#9a32cd" points="141.67,-11.53 132.32,-16.52 142.74,-18.45 141.67,-11.53"/>
</a>
</g>
<text xml:space="preserve" text-anchor="start" x="151.38" y="-6.5" font-family="Helvetica,sans-Serif" font-size="10.00" fill="grey">next</text>
</g>
<!-- Node2 -->
<g id="Node000002" class="node">
<title>Node2</title>
<g id="a_Node000002"><a xlink:href="structnghttp2__hd__nv.html" target="_top" xlink:title=" ">
<polygon fill="white" stroke="#bfbfbf" points="79.75,-94 0,-94 0,-74 79.75,-74 79.75,-94"/>
<text xml:space="preserve" text-anchor="middle" x="39.88" y="-80.5" font-family="Helvetica,sans-Serif" font-size="10.00">nghttp2_hd_nv</text>
</a>
</g>
</g>
<!-- Node2&#45;&gt;Node1 -->
<g id="edge1_Node000001_Node000002" class="edge">
<title>Node2&#45;&gt;Node1</title>
<g id="a_edge1_Node000001_Node000002"><a xlink:title=" ">
<path fill="none" stroke="#9a32cd" stroke-dasharray="5,2" d="M51.84,-63.86C60.67,-49.74 72.29,-31.14 79.13,-20.19"/>
<polygon fill="#9a32cd" stroke="#9a32cd" points="48.89,-61.97 46.56,-72.3 54.83,-65.68 48.89,-61.97"/>
</a>
</g>
<text xml:space="preserve" text-anchor="start" x="70.73" y="-43.5" font-family="Helvetica,sans-Serif" font-size="10.00" fill="grey">nv</text>
</g>
<!-- Node3 -->
<g id="Node000003" class="node">
<title>Node3</title>
<g id="a_Node000003"><a xlink:href="structnghttp2__rcbuf.html" target="_top" xlink:title=" ">
<polygon fill="white" stroke="#bfbfbf" points="77.5,-184 2.25,-184 2.25,-164 77.5,-164 77.5,-184"/>
<text xml:space="preserve" text-anchor="middle" x="39.88" y="-170.5" font-family="Helvetica,sans-Serif" font-size="10.00">nghttp2_rcbuf</text>
</a>
</g>
</g>
<!-- Node3&#45;&gt;Node2 -->
<g id="edge2_Node000002_Node000003" class="edge">
<title>Node3&#45;&gt;Node2</title>
<g id="a_edge2_Node000002_Node000003"><a xlink:title=" ">
<path fill="none" stroke="#9a32cd" stroke-dasharray="5,2" d="M39.88,-152.09C39.88,-133.77 39.88,-108.01 39.88,-94.35"/>
<polygon fill="#9a32cd" stroke="#9a32cd" points="36.38,-152.07 39.88,-162.07 43.38,-152.07 36.38,-152.07"/>
</a>
</g>
<text xml:space="preserve" text-anchor="start" x="42.88" y="-133.5" font-family="Helvetica,sans-Serif" font-size="10.00" fill="grey">name</text>
<text xml:space="preserve" text-anchor="start" x="42.88" y="-117.5" font-family="Helvetica,sans-Serif" font-size="10.00" fill="grey">value</text>
</g>
<!-- Node4 -->
<g id="Node000004" class="node">
<title>Node4</title>
<g id="a_Node000004"><a xlink:href="structnghttp2__nv.html" target="_top" xlink:title=" ">
<polygon fill="white" stroke="#666666" points="161.88,-94 97.88,-94 97.88,-74 161.88,-74 161.88,-94"/>
<text xml:space="preserve" text-anchor="middle" x="129.88" y="-80.5" font-family="Helvetica,sans-Serif" font-size="10.00">nghttp2_nv</text>
</a>
</g>
</g>
<!-- Node4&#45;&gt;Node1 -->
<g id="edge3_Node000001_Node000004" class="edge">
<title>Node4&#45;&gt;Node1</title>
<g id="a_edge3_Node000001_Node000004"><a xlink:title=" ">
<path fill="none" stroke="#9a32cd" stroke-dasharray="5,2" d="M117.91,-63.86C109.08,-49.74 97.46,-31.14 90.62,-20.19"/>
<polygon fill="#9a32cd" stroke="#9a32cd" points="114.92,-65.68 123.19,-72.3 120.86,-61.97 114.92,-65.68"/>
</a>
</g>
<text xml:space="preserve" text-anchor="start" x="115.73" y="-43.5" font-family="Helvetica,sans-Serif" font-size="10.00" fill="grey">cnv</text>
</g>
</g>
</svg>
