<?xml version="1.0" encoding="UTF-8" standalone="no"?>
<!DOCTYPE svg PUBLIC "-//W3C//DTD SVG 1.1//EN"
 "http://www.w3.org/Graphics/SVG/1.1/DTD/svg11.dtd">
<!-- Generated by graphviz version 14.0.5 (0)
 -->
<!-- Title: nghttp2_hd_deflater Pages: 1 -->
<svg width="280pt" height="416pt"
 viewBox="0.00 0.00 280.00 416.00" xmlns="http://www.w3.org/2000/svg" xmlns:xlink="http://www.w3.org/1999/xlink">
<g id="graph0" class="graph" transform="scale(1 1) rotate(0) translate(4 412)">
<title>nghttp2_hd_deflater</title>
<!-- Node1 -->
<g id="Node000001" class="node">
<title>Node1</title>
<g id="a_Node000001"><a xlink:title=" ">
<polygon fill="#999999" stroke="#666666" points="235,-20 133.5,-20 133.5,0 235,0 235,-20"/>
<text xml:space="preserve" text-anchor="middle" x="184.25" y="-6.5" font-family="Helvetica,sans-Serif" font-size="10.00">nghttp2_hd_deflater</text>
</a>
</g>
</g>
<!-- Node2 -->
<g id="Node000002" class="node">
<title>Node2</title>
<g id="a_Node000002"><a xlink:href="structnghttp2__hd__context.html" target="_top" xlink:title=" ">
<polygon fill="white" stroke="#bfbfbf" points="192,-94 90.5,-94 90.5,-74 192,-74 192,-94"/>
<text xml:space="preserve" text-anchor="middle" x="141.25" y="-80.5" font-family="Helvetica,sans-Serif" font-size="10.00">nghttp2_hd_context</text>
</a>
</g>
</g>
<!-- Node2&#45;&gt;Node1 -->
<g id="edge1_Node000001_Node000002" class="edge">
<title>Node2&#45;&gt;Node1</title>
<g id="a_edge1_Node000001_Node000002"><a xlink:title=" ">
<path fill="none" stroke="#9a32cd" stroke-dasharray="5,2" d="M152.68,-63.86C161.12,-49.74 172.22,-31.14 178.76,-20.19"/>
<polygon fill="#9a32cd" stroke="#9a32cd" points="149.77,-61.91 147.65,-72.29 155.78,-65.5 149.77,-61.91"/>
</a>
</g>
<text xml:space="preserve" text-anchor="start" x="170.87" y="-43.5" font-family="Helvetica,sans-Serif" font-size="10.00" fill="grey">ctx</text>
</g>
<!-- Node3 -->
<g id="Node000003" class="node">
<title>Node3</title>
<g id="a_Node000003"><a xlink:href="structnghttp2__hd__ringbuf.html" target="_top" xlink:title=" ">
<polygon fill="white" stroke="#bfbfbf" points="98.5,-170 0,-170 0,-150 98.5,-150 98.5,-170"/>
<text xml:space="preserve" text-anchor="middle" x="49.25" y="-156.5" font-family="Helvetica,sans-Serif" font-size="10.00">nghttp2_hd_ringbuf</text>
</a>
</g>
</g>
<!-- Node3&#45;&gt;Node2 -->
<g id="edge2_Node000002_Node000003" class="edge">
<title>Node3&#45;&gt;Node2</title>
<g id="a_edge2_Node000002_Node000003"><a xlink:title=" ">
<path fill="none" stroke="#9a32cd" stroke-dasharray="5,2" d="M65.33,-141.58C74.34,-132.28 86.04,-120.94 97.5,-112 105.8,-105.52 115.75,-99.28 124.06,-94.43"/>
<polygon fill="#9a32cd" stroke="#9a32cd" points="62.99,-138.96 58.65,-148.63 68.07,-143.77 62.99,-138.96"/>
</a>
</g>
<text xml:space="preserve" text-anchor="start" x="100.5" y="-118.5" font-family="Helvetica,sans-Serif" font-size="10.00" fill="grey">hd_table</text>
</g>
<!-- Node4 -->
<g id="Node000004" class="node">
<title>Node4</title>
<g id="a_Node000004"><a xlink:href="structnghttp2__hd__entry.html" target="_top" xlink:title=" ">
<polygon fill="white" stroke="#bfbfbf" points="184.75,-244 93.75,-244 93.75,-224 184.75,-224 184.75,-244"/>
<text xml:space="preserve" text-anchor="middle" x="139.25" y="-230.5" font-family="Helvetica,sans-Serif" font-size="10.00">nghttp2_hd_entry</text>
</a>
</g>
</g>
<!-- Node4&#45;&gt;Node3 -->
<g id="edge3_Node000003_Node000004" class="edge">
<title>Node4&#45;&gt;Node3</title>
<g id="a_edge3_Node000003_Node000004"><a xlink:title=" ">
<path fill="none" stroke="#9a32cd" stroke-dasharray="5,2" d="M118.93,-216.74C101.07,-202.46 75.71,-182.17 61.02,-170.42"/>
<polygon fill="#9a32cd" stroke="#9a32cd" points="116.31,-219.13 126.3,-222.64 120.68,-213.66 116.31,-219.13"/>
</a>
</g>
<text xml:space="preserve" text-anchor="start" x="107.96" y="-193.5" font-family="Helvetica,sans-Serif" font-size="10.00" fill="grey">buffer</text>
</g>
<!-- Node4&#45;&gt;Node4 -->
<g id="edge7_Node000004_Node000004" class="edge">
<title>Node4&#45;&gt;Node4</title>
<g id="a_edge7_Node000004_Node000004"><a xlink:title=" ">
<path fill="none" stroke="#9a32cd" stroke-dasharray="5,2" d="M196.56,-238.99C200.41,-237.84 202.75,-236.17 202.75,-234 202.75,-230.13 195.35,-227.88 185.2,-227.25"/>
<polygon fill="#9a32cd" stroke="#9a32cd" points="196.04,-235.53 186.7,-240.52 197.11,-242.45 196.04,-235.53"/>
</a>
</g>
<text xml:space="preserve" text-anchor="start" x="205.75" y="-230.5" font-family="Helvetica,sans-Serif" font-size="10.00" fill="grey">next</text>
</g>
<!-- Node9 -->
<g id="Node000009" class="node">
<title>Node9</title>
<g id="a_Node000009"><a xlink:href="structnghttp2__hd__map.html" target="_top" xlink:title=" ">
<polygon fill="white" stroke="#bfbfbf" points="272.25,-132 184.25,-132 184.25,-112 272.25,-112 272.25,-132"/>
<text xml:space="preserve" text-anchor="middle" x="228.25" y="-118.5" font-family="Helvetica,sans-Serif" font-size="10.00">nghttp2_hd_map</text>
</a>
</g>
</g>
<!-- Node4&#45;&gt;Node9 -->
<g id="edge10_Node000009_Node000004" class="edge">
<title>Node4&#45;&gt;Node9</title>
<g id="a_edge10_Node000009_Node000004"><a xlink:title=" ">
<path fill="none" stroke="#9a32cd" stroke-dasharray="5,2" d="M157.97,-216.39C171,-204.29 188.28,-187.08 201.25,-170 210.47,-157.86 218.83,-142.26 223.73,-132.45"/>
<polygon fill="#9a32cd" stroke="#9a32cd" points="155.89,-213.55 150.86,-222.87 160.61,-218.72 155.89,-213.55"/>
</a>
</g>
<text xml:space="preserve" text-anchor="start" x="188.68" y="-193.5" font-family="Helvetica,sans-Serif" font-size="10.00" fill="grey">table</text>
</g>
<!-- Node5 -->
<g id="Node000005" class="node">
<title>Node5</title>
<g id="a_Node000005"><a xlink:href="structnghttp2__hd__nv.html" target="_top" xlink:title=" ">
<polygon fill="white" stroke="#bfbfbf" points="134.12,-318 54.38,-318 54.38,-298 134.12,-298 134.12,-318"/>
<text xml:space="preserve" text-anchor="middle" x="94.25" y="-304.5" font-family="Helvetica,sans-Serif" font-size="10.00">nghttp2_hd_nv</text>
</a>
</g>
</g>
<!-- Node5&#45;&gt;Node4 -->
<g id="edge4_Node000004_Node000005" class="edge">
<title>Node5&#45;&gt;Node4</title>
<g id="a_edge4_Node000004_Node000005"><a xlink:title=" ">
<path fill="none" stroke="#9a32cd" stroke-dasharray="5,2" d="M106.21,-287.86C115.04,-273.74 126.66,-255.14 133.51,-244.19"/>
<polygon fill="#9a32cd" stroke="#9a32cd" points="103.27,-285.97 100.94,-296.3 109.2,-289.68 103.27,-285.97"/>
</a>
</g>
<text xml:space="preserve" text-anchor="start" x="125.1" y="-267.5" font-family="Helvetica,sans-Serif" font-size="10.00" fill="grey">nv</text>
</g>
<!-- Node6 -->
<g id="Node000006" class="node">
<title>Node6</title>
<g id="a_Node000006"><a xlink:href="structnghttp2__rcbuf.html" target="_top" xlink:title=" ">
<polygon fill="white" stroke="#bfbfbf" points="131.88,-408 56.62,-408 56.62,-388 131.88,-388 131.88,-408"/>
<text xml:space="preserve" text-anchor="middle" x="94.25" y="-394.5" font-family="Helvetica,sans-Serif" font-size="10.00">nghttp2_rcbuf</text>
</a>
</g>
</g>
<!-- Node6&#45;&gt;Node5 -->
<g id="edge5_Node000005_Node000006" class="edge">
<title>Node6&#45;&gt;Node5</title>
<g id="a_edge5_Node000005_Node000006"><a xlink:title=" ">
<path fill="none" stroke="#9a32cd" stroke-dasharray="5,2" d="M94.25,-376.09C94.25,-357.77 94.25,-332.01 94.25,-318.35"/>
<polygon fill="#9a32cd" stroke="#9a32cd" points="90.75,-376.07 94.25,-386.07 97.75,-376.07 90.75,-376.07"/>
</a>
</g>
<text xml:space="preserve" text-anchor="start" x="97.25" y="-357.5" font-family="Helvetica,sans-Serif" font-size="10.00" fill="grey">name</text>
<text xml:space="preserve" text-anchor="start" x="97.25" y="-341.5" font-family="Helvetica,sans-Serif" font-size="10.00" fill="grey">value</text>
</g>
<!-- Node7 -->
<g id="Node000007" class="node">
<title>Node7</title>
<g id="a_Node000007"><a xlink:href="structnghttp2__nv.html" target="_top" xlink:title=" ">
<polygon fill="white" stroke="#666666" points="216.25,-318 152.25,-318 152.25,-298 216.25,-298 216.25,-318"/>
<text xml:space="preserve" text-anchor="middle" x="184.25" y="-304.5" font-family="Helvetica,sans-Serif" font-size="10.00">nghttp2_nv</text>
</a>
</g>
</g>
<!-- Node7&#45;&gt;Node4 -->
<g id="edge6_Node000004_Node000007" class="edge">
<title>Node7&#45;&gt;Node4</title>
<g id="a_edge6_Node000004_Node000007"><a xlink:title=" ">
<path fill="none" stroke="#9a32cd" stroke-dasharray="5,2" d="M172.29,-287.86C163.46,-273.74 151.84,-255.14 144.99,-244.19"/>
<polygon fill="#9a32cd" stroke="#9a32cd" points="169.3,-289.68 177.56,-296.3 175.23,-285.97 169.3,-289.68"/>
</a>
</g>
<text xml:space="preserve" text-anchor="start" x="170.1" y="-267.5" font-family="Helvetica,sans-Serif" font-size="10.00" fill="grey">cnv</text>
</g>
<!-- Node8 -->
<g id="Node000008" class="node">
<title>Node8</title>
<g id="a_Node000008"><a xlink:href="structnghttp2__mem.html" target="_top" xlink:title=" ">
<polygon fill="white" stroke="#666666" points="191.88,-170 116.62,-170 116.62,-150 191.88,-150 191.88,-170"/>
<text xml:space="preserve" text-anchor="middle" x="154.25" y="-156.5" font-family="Helvetica,sans-Serif" font-size="10.00">nghttp2_mem</text>
</a>
</g>
</g>
<!-- Node8&#45;&gt;Node2 -->
<g id="edge8_Node000002_Node000008" class="edge">
<title>Node8&#45;&gt;Node2</title>
<g id="a_edge8_Node000002_Node000008"><a xlink:title=" ">
<path fill="none" stroke="#9a32cd" stroke-dasharray="5,2" d="M148.87,-138.5C148.37,-136.31 147.9,-134.11 147.5,-132 145.03,-119.06 143.21,-103.94 142.19,-94.41"/>
<polygon fill="#9a32cd" stroke="#9a32cd" points="145.44,-139.23 151.25,-148.09 152.24,-137.54 145.44,-139.23"/>
</a>
</g>
<text xml:space="preserve" text-anchor="start" x="150.5" y="-118.5" font-family="Helvetica,sans-Serif" font-size="10.00" fill="grey">mem</text>
</g>
<!-- Node9&#45;&gt;Node1 -->
<g id="edge9_Node000001_Node000009" class="edge">
<title>Node9&#45;&gt;Node1</title>
<g id="a_edge9_Node000001_Node000009"><a xlink:title=" ">
<path fill="none" stroke="#9a32cd" stroke-dasharray="5,2" d="M220.24,-100.97C210.68,-77.07 195.1,-38.11 187.99,-20.35"/>
<polygon fill="#9a32cd" stroke="#9a32cd" points="216.97,-102.23 223.94,-110.22 223.47,-99.63 216.97,-102.23"/>
</a>
</g>
<text xml:space="preserve" text-anchor="start" x="220.12" y="-80.5" font-family="Helvetica,sans-Serif" font-size="10.00" fill="grey">map</text>
</g>
</g>
</svg>
