<?xml version="1.0" encoding="UTF-8" standalone="no"?>
<!DOCTYPE svg PUBLIC "-//W3C//DTD SVG 1.1//EN"
 "http://www.w3.org/Graphics/SVG/1.1/DTD/svg11.dtd">
<!-- Generated by graphviz version 14.0.5 (0)
 -->
<!-- Title: nghttp2::Memchunks&lt; Memchunk &gt; Pages: 1 -->
<svg width="216pt" height="248pt"
 viewBox="0.00 0.00 216.00 248.00" xmlns="http://www.w3.org/2000/svg" xmlns:xlink="http://www.w3.org/1999/xlink">
<g id="graph0" class="graph" transform="scale(1 1) rotate(0) translate(4 244)">
<title>nghttp2::Memchunks&lt; Memchunk &gt;</title>
<!-- Node1 -->
<g id="Node000001" class="node">
<title>Node1</title>
<g id="a_Node000001"><a xlink:title=" ">
<polygon fill="#999999" stroke="#666666" points="135.62,-32 28.12,-32 28.12,0 135.62,0 135.62,-32"/>
<text xml:space="preserve" text-anchor="start" x="36.12" y="-18.5" font-family="Helvetica,sans-Serif" font-size="10.00">nghttp2::Memchunks</text>
<text xml:space="preserve" text-anchor="middle" x="81.88" y="-6.5" font-family="Helvetica,sans-Serif" font-size="10.00">&lt; Memchunk &gt;</text>
</a>
</g>
</g>
<!-- Node2 -->
<g id="Node000002" class="node">
<title>Node2</title>
<g id="a_Node000002"><a xlink:href="structnghttp2_1_1Pool.html" target="_top" xlink:title=" ">
<polygon fill="white" stroke="#bfbfbf" points="208.38,-127 93.38,-127 93.38,-95 208.38,-95 208.38,-127"/>
<text xml:space="preserve" text-anchor="start" x="101.38" y="-113.5" font-family="Helvetica,sans-Serif" font-size="10.00">nghttp2::Pool&lt; nghttp2</text>
<text xml:space="preserve" text-anchor="middle" x="150.88" y="-101.5" font-family="Helvetica,sans-Serif" font-size="10.00">::Memchunk &gt;</text>
</a>
</g>
</g>
<!-- Node2&#45;&gt;Node1 -->
<g id="edge1_Node000001_Node000002" class="edge">
<title>Node2&#45;&gt;Node1</title>
<g id="a_edge1_Node000001_Node000002"><a xlink:title=" ">
<path fill="none" stroke="#9a32cd" stroke-dasharray="5,2" d="M132.63,-85.4C120.14,-68.58 103.98,-46.79 93.29,-32.38"/>
<polygon fill="#9a32cd" stroke="#9a32cd" points="129.81,-87.48 138.58,-93.43 135.43,-83.31 129.81,-87.48"/>
</a>
</g>
<text xml:space="preserve" text-anchor="start" x="121.44" y="-55.5" font-family="Helvetica,sans-Serif" font-size="10.00" fill="grey">pool</text>
</g>
<!-- Node3 -->
<g id="Node000003" class="node">
<title>Node3</title>
<g id="a_Node000003"><a xlink:href="structnghttp2_1_1Memchunk.html" target="_top" xlink:title=" ">
<polygon fill="white" stroke="#bfbfbf" points="127.75,-233 0,-233 0,-213 127.75,-213 127.75,-233"/>
<text xml:space="preserve" text-anchor="middle" x="63.88" y="-219.5" font-family="Helvetica,sans-Serif" font-size="10.00">nghttp2::Memchunk&lt; N &gt;</text>
</a>
</g>
</g>
<!-- Node3&#45;&gt;Node1 -->
<g id="edge4_Node000001_Node000003" class="edge">
<title>Node3&#45;&gt;Node1</title>
<g id="a_edge4_Node000001_Node000003"><a xlink:title=" ">
<path fill="none" stroke="#9a32cd" stroke-dasharray="5,2" d="M60.04,-201.36C55.7,-174.56 50.09,-126.43 57.12,-86 60.44,-66.94 68.54,-46.19 74.58,-32.47"/>
<polygon fill="#9a32cd" stroke="#9a32cd" points="56.59,-201.94 61.75,-211.19 63.48,-200.74 56.59,-201.94"/>
</a>
</g>
<text xml:space="preserve" text-anchor="start" x="60.12" y="-123.5" font-family="Helvetica,sans-Serif" font-size="10.00" fill="grey">head</text>
<text xml:space="preserve" text-anchor="start" x="60.12" y="-107.5" font-family="Helvetica,sans-Serif" font-size="10.00" fill="grey">mark</text>
<text xml:space="preserve" text-anchor="start" x="60.12" y="-91.5" font-family="Helvetica,sans-Serif" font-size="10.00" fill="grey">tail</text>
</g>
<!-- Node3&#45;&gt;Node2 -->
<g id="edge2_Node000002_Node000003" class="edge">
<title>Node3&#45;&gt;Node2</title>
<g id="a_edge2_Node000002_Node000003"><a xlink:title=" ">
<path fill="none" stroke="#9a32cd" stroke-dasharray="5,2" d="M78.22,-203.87C95.14,-182.47 122.96,-147.29 138.82,-127.24"/>
<polygon fill="#9a32cd" stroke="#9a32cd" points="75.69,-201.42 72.23,-211.43 81.18,-205.76 75.69,-201.42"/>
</a>
</g>
<text xml:space="preserve" text-anchor="start" x="118.17" y="-175.5" font-family="Helvetica,sans-Serif" font-size="10.00" fill="grey">freelist</text>
<text xml:space="preserve" text-anchor="start" x="118.17" y="-159.5" font-family="Helvetica,sans-Serif" font-size="10.00" fill="grey">pool</text>
</g>
<!-- Node3&#45;&gt;Node3 -->
<g id="edge3_Node000003_Node000003" class="edge">
<title>Node3&#45;&gt;Node3</title>
<g id="a_edge3_Node000003_Node000003"><a xlink:title=" ">
<path fill="none" stroke="#9a32cd" stroke-dasharray="5,2" d="M139.29,-229.47C143.34,-227.89 145.75,-225.73 145.75,-223 145.75,-218.28 138.55,-215.27 128.06,-213.98"/>
<polygon fill="#9a32cd" stroke="#9a32cd" points="138.52,-226.06 129.54,-231.69 140.07,-232.88 138.52,-226.06"/>
</a>
</g>
<text xml:space="preserve" text-anchor="start" x="148.75" y="-227.5" font-family="Helvetica,sans-Serif" font-size="10.00" fill="grey">knext</text>
<text xml:space="preserve" text-anchor="start" x="148.75" y="-211.5" font-family="Helvetica,sans-Serif" font-size="10.00" fill="grey">next</text>
</g>
</g>
</svg>
