<?xml version="1.0" encoding="UTF-8" standalone="no"?>
<!DOCTYPE svg PUBLIC "-//W3C//DTD SVG 1.1//EN"
 "http://www.w3.org/Graphics/SVG/1.1/DTD/svg11.dtd">
<!-- Generated by graphviz version 14.0.5 (0)
 -->
<!-- Title: nghttp2_push_promise Pages: 1 -->
<svg width="184pt" height="102pt"
 viewBox="0.00 0.00 184.00 102.00" xmlns="http://www.w3.org/2000/svg" xmlns:xlink="http://www.w3.org/1999/xlink">
<g id="graph0" class="graph" transform="scale(1 1) rotate(0) translate(4 98)">
<title>nghttp2_push_promise</title>
<!-- Node1 -->
<g id="Node000001" class="node">
<title>Node1</title>
<g id="a_Node000001"><a xlink:title=" ">
<polygon fill="#999999" stroke="#666666" points="152.12,-20 37.88,-20 37.88,0 152.12,0 152.12,-20"/>
<text xml:space="preserve" text-anchor="middle" x="95" y="-6.5" font-family="Helvetica,sans-Serif" font-size="10.00">nghttp2_push_promise</text>
</a>
</g>
</g>
<!-- Node2 -->
<g id="Node000002" class="node">
<title>Node2</title>
<g id="a_Node000002"><a xlink:href="structnghttp2__frame__hd.html" target="_top" xlink:title=" ">
<polygon fill="white" stroke="#666666" points="94,-94 0,-94 0,-74 94,-74 94,-94"/>
<text xml:space="preserve" text-anchor="middle" x="47" y="-80.5" font-family="Helvetica,sans-Serif" font-size="10.00">nghttp2_frame_hd</text>
</a>
</g>
</g>
<!-- Node2&#45;&gt;Node1 -->
<g id="edge1_Node000001_Node000002" class="edge">
<title>Node2&#45;&gt;Node1</title>
<g id="a_edge1_Node000001_Node000002"><a xlink:title=" ">
<path fill="none" stroke="#9a32cd" stroke-dasharray="5,2" d="M59.48,-64.27C68.93,-50.1 81.5,-31.25 88.88,-20.19"/>
<polygon fill="#9a32cd" stroke="#9a32cd" points="56.75,-62.07 54.11,-72.33 62.57,-65.95 56.75,-62.07"/>
</a>
</g>
<text xml:space="preserve" text-anchor="start" x="79.71" y="-43.5" font-family="Helvetica,sans-Serif" font-size="10.00" fill="grey">hd</text>
</g>
<!-- Node3 -->
<g id="Node000003" class="node">
<title>Node3</title>
<g id="a_Node000003"><a xlink:href="structnghttp2__nv.html" target="_top" xlink:title=" ">
<polygon fill="white" stroke="#666666" points="176,-94 112,-94 112,-74 176,-74 176,-94"/>
<text xml:space="preserve" text-anchor="middle" x="144" y="-80.5" font-family="Helvetica,sans-Serif" font-size="10.00">nghttp2_nv</text>
</a>
</g>
</g>
<!-- Node3&#45;&gt;Node1 -->
<g id="edge2_Node000001_Node000003" class="edge">
<title>Node3&#45;&gt;Node1</title>
<g id="a_edge2_Node000001_Node000003"><a xlink:title=" ">
<path fill="none" stroke="#9a32cd" stroke-dasharray="5,2" d="M131.26,-64.27C121.61,-50.1 108.78,-31.25 101.25,-20.19"/>
<polygon fill="#9a32cd" stroke="#9a32cd" points="128.22,-66.04 136.74,-72.34 134.01,-62.1 128.22,-66.04"/>
</a>
</g>
<text xml:space="preserve" text-anchor="start" x="128.33" y="-43.5" font-family="Helvetica,sans-Serif" font-size="10.00" fill="grey">nva</text>
</g>
</g>
</svg>
