<?xml version="1.0" encoding="UTF-8" standalone="no"?>
<!DOCTYPE svg PUBLIC "-//W3C//DTD SVG 1.1//EN"
 "http://www.w3.org/Graphics/SVG/1.1/DTD/svg11.dtd">
<!-- Generated by graphviz version 14.0.5 (0)
 -->
<!-- Title: MunitTest Pages: 1 -->
<svg width="222pt" height="118pt"
 viewBox="0.00 0.00 222.00 118.00" xmlns="http://www.w3.org/2000/svg" xmlns:xlink="http://www.w3.org/1999/xlink">
<g id="graph0" class="graph" transform="scale(1 1) rotate(0) translate(4 114)">
<title>MunitTest</title>
<!-- Node1 -->
<g id="Node000001" class="node">
<title>Node1</title>
<g id="a_Node000001"><a xlink:title=" ">
<polygon fill="#999999" stroke="#666666" points="129.88,-20 71.12,-20 71.12,0 129.88,0 129.88,-20"/>
<text xml:space="preserve" text-anchor="middle" x="100.5" y="-6.5" font-family="Helvetica,sans-Serif" font-size="10.00">MunitTest</text>
</a>
</g>
</g>
<!-- Node2 -->
<g id="Node000002" class="node">
<title>Node2</title>
<g id="a_Node000002"><a xlink:href="structMunitParameter.html" target="_top" xlink:title=" ">
<polygon fill="white" stroke="#bfbfbf" points="85,-110 0,-110 0,-90 85,-90 85,-110"/>
<text xml:space="preserve" text-anchor="middle" x="42.5" y="-96.5" font-family="Helvetica,sans-Serif" font-size="10.00">MunitParameter</text>
</a>
</g>
</g>
<!-- Node2&#45;&gt;Node1 -->
<g id="edge1_Node000001_Node000002" class="edge">
<title>Node2&#45;&gt;Node1</title>
<g id="a_edge1_Node000001_Node000002"><a xlink:title=" ">
<path fill="none" stroke="#9a32cd" stroke-dasharray="5,2" d="M54.91,-80.18C67.03,-61.78 84.99,-34.53 94.34,-20.35"/>
<polygon fill="#9a32cd" stroke="#9a32cd" points="52.12,-78.04 49.54,-88.32 57.97,-81.9 52.12,-78.04"/>
</a>
</g>
<text xml:space="preserve" text-anchor="start" x="84.74" y="-59.5" font-family="Helvetica,sans-Serif" font-size="10.00" fill="grey">setup</text>
<text xml:space="preserve" text-anchor="start" x="84.74" y="-43.5" font-family="Helvetica,sans-Serif" font-size="10.00" fill="grey">test</text>
</g>
<!-- Node3 -->
<g id="Node000003" class="node">
<title>Node3</title>
<g id="a_Node000003"><a xlink:href="structMunitParameterEnum.html" target="_top" xlink:title=" ">
<polygon fill="white" stroke="#bfbfbf" points="213.75,-110 103.25,-110 103.25,-90 213.75,-90 213.75,-110"/>
<text xml:space="preserve" text-anchor="middle" x="158.5" y="-96.5" font-family="Helvetica,sans-Serif" font-size="10.00">MunitParameterEnum</text>
</a>
</g>
</g>
<!-- Node3&#45;&gt;Node1 -->
<g id="edge2_Node000001_Node000003" class="edge">
<title>Node3&#45;&gt;Node1</title>
<g id="a_edge2_Node000001_Node000003"><a xlink:title=" ">
<path fill="none" stroke="#9a32cd" stroke-dasharray="5,2" d="M146.09,-80.18C133.97,-61.78 116.01,-34.53 106.66,-20.35"/>
<polygon fill="#9a32cd" stroke="#9a32cd" points="143.03,-81.9 151.46,-88.32 148.88,-78.04 143.03,-81.9"/>
</a>
</g>
<text xml:space="preserve" text-anchor="start" x="142.74" y="-51.5" font-family="Helvetica,sans-Serif" font-size="10.00" fill="grey">parameters</text>
</g>
</g>
</svg>
