<?xml version="1.0" encoding="UTF-8" standalone="no"?>
<!DOCTYPE svg PUBLIC "-//W3C//DTD SVG 1.1//EN"
 "http://www.w3.org/Graphics/SVG/1.1/DTD/svg11.dtd">
<!-- Generated by graphviz version 14.0.5 (0)
 -->
<!-- Title: hash_table Pages: 1 -->
<svg width="98pt" height="266pt"
 viewBox="0.00 0.00 98.00 266.00" xmlns="http://www.w3.org/2000/svg" xmlns:xlink="http://www.w3.org/1999/xlink">
<g id="graph0" class="graph" transform="scale(1 1) rotate(0) translate(4 262)">
<title>hash_table</title>
<!-- Node1 -->
<g id="Node000001" class="node">
<title>Node1</title>
<g id="a_Node000001"><a xlink:title=" ">
<polygon fill="#999999" stroke="#666666" points="76.38,-20 13.12,-20 13.12,0 76.38,0 76.38,-20"/>
<text xml:space="preserve" text-anchor="middle" x="44.75" y="-6.5" font-family="Helvetica,sans-Serif" font-size="10.00">hash_table</text>
</a>
</g>
</g>
<!-- Node2 -->
<g id="Node000002" class="node">
<title>Node2</title>
<g id="a_Node000002"><a xlink:href="structhash__entry.html" target="_top" xlink:title=" ">
<polygon fill="white" stroke="#bfbfbf" points="76.75,-94 12.75,-94 12.75,-74 76.75,-74 76.75,-94"/>
<text xml:space="preserve" text-anchor="middle" x="44.75" y="-80.5" font-family="Helvetica,sans-Serif" font-size="10.00">hash_entry</text>
</a>
</g>
</g>
<!-- Node2&#45;&gt;Node1 -->
<g id="edge1_Node000001_Node000002" class="edge">
<title>Node2&#45;&gt;Node1</title>
<g id="a_edge1_Node000001_Node000002"><a xlink:title=" ">
<path fill="none" stroke="#9a32cd" stroke-dasharray="5,2" d="M44.75,-62.18C44.75,-48.29 44.75,-30.71 44.75,-20.19"/>
<polygon fill="#9a32cd" stroke="#9a32cd" points="41.25,-62.07 44.75,-72.07 48.25,-62.07 41.25,-62.07"/>
</a>
</g>
<text xml:space="preserve" text-anchor="start" x="47.75" y="-43.5" font-family="Helvetica,sans-Serif" font-size="10.00" fill="grey">ea</text>
</g>
<!-- Node3 -->
<g id="Node000003" class="node">
<title>Node3</title>
<g id="a_Node000003"><a xlink:href="structmrb__value.html" target="_top" xlink:title=" ">
<polygon fill="white" stroke="#bfbfbf" points="75.25,-184 14.25,-184 14.25,-164 75.25,-164 75.25,-184"/>
<text xml:space="preserve" text-anchor="middle" x="44.75" y="-170.5" font-family="Helvetica,sans-Serif" font-size="10.00">mrb_value</text>
</a>
</g>
</g>
<!-- Node3&#45;&gt;Node2 -->
<g id="edge2_Node000002_Node000003" class="edge">
<title>Node3&#45;&gt;Node2</title>
<g id="a_edge2_Node000002_Node000003"><a xlink:title=" ">
<path fill="none" stroke="#9a32cd" stroke-dasharray="5,2" d="M44.75,-152.09C44.75,-133.77 44.75,-108.01 44.75,-94.35"/>
<polygon fill="#9a32cd" stroke="#9a32cd" points="41.25,-152.07 44.75,-162.07 48.25,-152.07 41.25,-152.07"/>
</a>
</g>
<text xml:space="preserve" text-anchor="start" x="47.75" y="-133.5" font-family="Helvetica,sans-Serif" font-size="10.00" fill="grey">key</text>
<text xml:space="preserve" text-anchor="start" x="47.75" y="-117.5" font-family="Helvetica,sans-Serif" font-size="10.00" fill="grey">val</text>
</g>
<!-- Node4 -->
<g id="Node000004" class="node">
<title>Node4</title>
<g id="a_Node000004"><a xlink:href="unionmrb__value__union.html" target="_top" xlink:title=" ">
<polygon fill="white" stroke="#bfbfbf" points="89.5,-258 0,-258 0,-238 89.5,-238 89.5,-258"/>
<text xml:space="preserve" text-anchor="middle" x="44.75" y="-244.5" font-family="Helvetica,sans-Serif" font-size="10.00">mrb_value_union</text>
</a>
</g>
</g>
<!-- Node4&#45;&gt;Node3 -->
<g id="edge3_Node000003_Node000004" class="edge">
<title>Node4&#45;&gt;Node3</title>
<g id="a_edge3_Node000003_Node000004"><a xlink:title=" ">
<path fill="none" stroke="#9a32cd" stroke-dasharray="5,2" d="M44.75,-226.18C44.75,-212.29 44.75,-194.71 44.75,-184.19"/>
<polygon fill="#9a32cd" stroke="#9a32cd" points="41.25,-226.07 44.75,-236.07 48.25,-226.07 41.25,-226.07"/>
</a>
</g>
<text xml:space="preserve" text-anchor="start" x="47.75" y="-207.5" font-family="Helvetica,sans-Serif" font-size="10.00" fill="grey">value</text>
</g>
</g>
</svg>
