<?xml version="1.0" encoding="UTF-8" standalone="no"?>
<!DOCTYPE svg PUBLIC "-//W3C//DTD SVG 1.1//EN"
 "http://www.w3.org/Graphics/SVG/1.1/DTD/svg11.dtd">
<!-- Generated by graphviz version 14.0.5 (0)
 -->
<!-- Title: nghttp2_bufs Pages: 1 -->
<svg width="239pt" height="192pt"
 viewBox="0.00 0.00 239.00 192.00" xmlns="http://www.w3.org/2000/svg" xmlns:xlink="http://www.w3.org/1999/xlink">
<g id="graph0" class="graph" transform="scale(1 1) rotate(0) translate(4 188)">
<title>nghttp2_bufs</title>
<!-- Node1 -->
<g id="Node000001" class="node">
<title>Node1</title>
<g id="a_Node000001"><a xlink:title=" ">
<polygon fill="#999999" stroke="#666666" points="192.88,-20 120.62,-20 120.62,0 192.88,0 192.88,-20"/>
<text xml:space="preserve" text-anchor="middle" x="156.75" y="-6.5" font-family="Helvetica,sans-Serif" font-size="10.00">nghttp2_bufs</text>
</a>
</g>
</g>
<!-- Node2 -->
<g id="Node000002" class="node">
<title>Node2</title>
<g id="a_Node000002"><a xlink:href="structnghttp2__buf__chain.html" target="_top" xlink:title=" ">
<polygon fill="white" stroke="#bfbfbf" points="95.5,-110 0,-110 0,-90 95.5,-90 95.5,-110"/>
<text xml:space="preserve" text-anchor="middle" x="47.75" y="-96.5" font-family="Helvetica,sans-Serif" font-size="10.00">nghttp2_buf_chain</text>
</a>
</g>
</g>
<!-- Node2&#45;&gt;Node1 -->
<g id="edge1_Node000001_Node000002" class="edge">
<title>Node2&#45;&gt;Node1</title>
<g id="a_edge1_Node000001_Node000002"><a xlink:title=" ">
<path fill="none" stroke="#9a32cd" stroke-dasharray="5,2" d="M68.27,-82.44C91,-64.08 126.87,-35.13 145.17,-20.35"/>
<polygon fill="#9a32cd" stroke="#9a32cd" points="66.17,-79.63 60.59,-88.63 70.57,-85.07 66.17,-79.63"/>
</a>
</g>
<text xml:space="preserve" text-anchor="start" x="124.49" y="-59.5" font-family="Helvetica,sans-Serif" font-size="10.00" fill="grey">cur</text>
<text xml:space="preserve" text-anchor="start" x="124.49" y="-43.5" font-family="Helvetica,sans-Serif" font-size="10.00" fill="grey">head</text>
</g>
<!-- Node2&#45;&gt;Node2 -->
<g id="edge2_Node000002_Node000002" class="edge">
<title>Node2&#45;&gt;Node2</title>
<g id="a_edge2_Node000002_Node000002"><a xlink:title=" ">
<path fill="none" stroke="#9a32cd" stroke-dasharray="5,2" d="M106.98,-105.02C111.04,-103.87 113.5,-102.19 113.5,-100 113.5,-96.21 106.13,-93.97 95.91,-93.29"/>
<polygon fill="#9a32cd" stroke="#9a32cd" points="106.77,-101.51 97.41,-106.48 107.83,-108.43 106.77,-101.51"/>
</a>
</g>
<text xml:space="preserve" text-anchor="start" x="116.5" y="-96.5" font-family="Helvetica,sans-Serif" font-size="10.00" fill="grey">next</text>
</g>
<!-- Node3 -->
<g id="Node000003" class="node">
<title>Node3</title>
<g id="a_Node000003"><a xlink:href="structnghttp2__buf.html" target="_top" xlink:title=" ">
<polygon fill="white" stroke="#bfbfbf" points="81.25,-184 14.25,-184 14.25,-164 81.25,-164 81.25,-184"/>
<text xml:space="preserve" text-anchor="middle" x="47.75" y="-170.5" font-family="Helvetica,sans-Serif" font-size="10.00">nghttp2_buf</text>
</a>
</g>
</g>
<!-- Node3&#45;&gt;Node2 -->
<g id="edge3_Node000002_Node000003" class="edge">
<title>Node3&#45;&gt;Node2</title>
<g id="a_edge3_Node000002_Node000003"><a xlink:title=" ">
<path fill="none" stroke="#9a32cd" stroke-dasharray="5,2" d="M47.75,-152.18C47.75,-138.29 47.75,-120.71 47.75,-110.19"/>
<polygon fill="#9a32cd" stroke="#9a32cd" points="44.25,-152.07 47.75,-162.07 51.25,-152.07 44.25,-152.07"/>
</a>
</g>
<text xml:space="preserve" text-anchor="start" x="50.75" y="-133.5" font-family="Helvetica,sans-Serif" font-size="10.00" fill="grey">buf</text>
</g>
<!-- Node4 -->
<g id="Node000004" class="node">
<title>Node4</title>
<g id="a_Node000004"><a xlink:href="structnghttp2__mem.html" target="_top" xlink:title=" ">
<polygon fill="white" stroke="#666666" points="231.38,-110 156.12,-110 156.12,-90 231.38,-90 231.38,-110"/>
<text xml:space="preserve" text-anchor="middle" x="193.75" y="-96.5" font-family="Helvetica,sans-Serif" font-size="10.00">nghttp2_mem</text>
</a>
</g>
</g>
<!-- Node4&#45;&gt;Node1 -->
<g id="edge4_Node000001_Node000004" class="edge">
<title>Node4&#45;&gt;Node1</title>
<g id="a_edge4_Node000001_Node000004"><a xlink:title=" ">
<path fill="none" stroke="#9a32cd" stroke-dasharray="5,2" d="M185.4,-79.14C177.68,-60.77 166.53,-34.27 160.68,-20.35"/>
<polygon fill="#9a32cd" stroke="#9a32cd" points="182.1,-80.33 189.2,-88.19 188.55,-77.61 182.1,-80.33"/>
</a>
</g>
<text xml:space="preserve" text-anchor="start" x="184.78" y="-51.5" font-family="Helvetica,sans-Serif" font-size="10.00" fill="grey">mem</text>
</g>
</g>
</svg>
