<?xml version="1.0" encoding="UTF-8" standalone="no"?>
<!DOCTYPE svg PUBLIC "-//W3C//DTD SVG 1.1//EN"
 "http://www.w3.org/Graphics/SVG/1.1/DTD/svg11.dtd">
<!-- Generated by graphviz version 14.0.5 (0)
 -->
<!-- Title: shrpx::TLSConnection Pages: 1 -->
<svg width="431pt" height="177pt"
 viewBox="0.00 0.00 431.00 177.00" xmlns="http://www.w3.org/2000/svg" xmlns:xlink="http://www.w3.org/1999/xlink">
<g id="graph0" class="graph" transform="scale(1 1) rotate(0) translate(4 172.63)">
<title>shrpx::TLSConnection</title>
<!-- Node1 -->
<g id="Node000001" class="node">
<title>Node1</title>
<g id="a_Node000001"><a xlink:title=" ">
<polygon fill="#999999" stroke="#666666" points="422.75,-82 309.25,-82 309.25,-62 422.75,-62 422.75,-82"/>
<text xml:space="preserve" text-anchor="middle" x="366" y="-68.5" font-family="Helvetica,sans-Serif" font-size="10.00">shrpx::TLSConnection</text>
</a>
</g>
</g>
<!-- Node2 -->
<g id="Node000002" class="node">
<title>Node2</title>
<g id="a_Node000002"><a xlink:href="structnghttp2_1_1Memchunks.html" target="_top" xlink:title=" ">
<polygon fill="white" stroke="#bfbfbf" points="125.88,-159 18.38,-159 18.38,-127 125.88,-127 125.88,-159"/>
<text xml:space="preserve" text-anchor="start" x="26.38" y="-145.5" font-family="Helvetica,sans-Serif" font-size="10.00">nghttp2::Memchunks</text>
<text xml:space="preserve" text-anchor="middle" x="72.12" y="-133.5" font-family="Helvetica,sans-Serif" font-size="10.00">&lt; Memchunk16K &gt;</text>
</a>
</g>
</g>
<!-- Node2&#45;&gt;Node1 -->
<g id="edge1_Node000001_Node000002" class="edge">
<title>Node2&#45;&gt;Node1</title>
<g id="a_edge1_Node000001_Node000002"><a xlink:title=" ">
<path fill="none" stroke="#9a32cd" stroke-dasharray="5,2" d="M137.56,-137.7C181.61,-132.86 240.9,-123.94 291.25,-108 311.35,-101.64 332.86,-90.6 347.43,-82.42"/>
<polygon fill="#9a32cd" stroke="#9a32cd" points="137.22,-134.21 127.64,-138.74 137.95,-141.17 137.22,-134.21"/>
</a>
</g>
<text xml:space="preserve" text-anchor="start" x="209.5" y="-156.13" font-family="Helvetica,sans-Serif" font-size="10.00" fill="grey">earlybuf</text>
<text xml:space="preserve" text-anchor="start" x="209.5" y="-140.13" font-family="Helvetica,sans-Serif" font-size="10.00" fill="grey">wbuf</text>
</g>
<!-- Node3 -->
<g id="Node000003" class="node">
<title>Node3</title>
<g id="a_Node000003"><a xlink:href="structnghttp2_1_1PeekMemchunks.html" target="_top" xlink:title=" ">
<polygon fill="white" stroke="#bfbfbf" points="137.12,-109 7.12,-109 7.12,-77 137.12,-77 137.12,-109"/>
<text xml:space="preserve" text-anchor="start" x="15.12" y="-95.5" font-family="Helvetica,sans-Serif" font-size="10.00">nghttp2::PeekMemchunks</text>
<text xml:space="preserve" text-anchor="middle" x="72.12" y="-83.5" font-family="Helvetica,sans-Serif" font-size="10.00">&lt; Memchunk16K &gt;</text>
</a>
</g>
</g>
<!-- Node3&#45;&gt;Node1 -->
<g id="edge2_Node000001_Node000003" class="edge">
<title>Node3&#45;&gt;Node1</title>
<g id="a_edge2_Node000001_Node000003"><a xlink:title=" ">
<path fill="none" stroke="#9a32cd" stroke-dasharray="5,2" d="M148.97,-87.54C199.09,-83.94 263.66,-79.29 309.11,-76.02"/>
<polygon fill="#9a32cd" stroke="#9a32cd" points="148.77,-84.05 139.05,-88.26 149.27,-91.03 148.77,-84.05"/>
</a>
</g>
<text xml:space="preserve" text-anchor="start" x="218.5" y="-91.71" font-family="Helvetica,sans-Serif" font-size="10.00" fill="grey">rbuf</text>
</g>
<!-- Node4 -->
<g id="Node000004" class="node">
<title>Node4</title>
<g id="a_Node000004"><a xlink:href="structshrpx_1_1MemcachedRequest.html" target="_top" xlink:title=" ">
<polygon fill="white" stroke="#bfbfbf" points="140.12,-59 4.12,-59 4.12,-39 140.12,-39 140.12,-59"/>
<text xml:space="preserve" text-anchor="middle" x="72.12" y="-45.5" font-family="Helvetica,sans-Serif" font-size="10.00">shrpx::MemcachedRequest</text>
</a>
</g>
</g>
<!-- Node4&#45;&gt;Node1 -->
<g id="edge3_Node000001_Node000004" class="edge">
<title>Node4&#45;&gt;Node1</title>
<g id="a_edge3_Node000001_Node000004"><a xlink:title=" ">
<path fill="none" stroke="#9a32cd" stroke-dasharray="5,2" d="M151.65,-48.09C193.27,-48.47 245.19,-50.31 291.25,-56 301.65,-57.28 312.76,-59.33 323.11,-61.53"/>
<polygon fill="#9a32cd" stroke="#9a32cd" points="151.73,-44.59 141.71,-48.02 151.69,-51.59 151.73,-44.59"/>
</a>
</g>
<text xml:space="preserve" text-anchor="start" x="165.25" y="-61.5" font-family="Helvetica,sans-Serif" font-size="10.00" fill="grey">cached_session_lookup_req</text>
</g>
<!-- Node5 -->
<g id="Node000005" class="node">
<title>Node5</title>
<g id="a_Node000005"><a xlink:href="structshrpx_1_1tls_1_1TLSSessionCache.html" target="_top" xlink:title=" ">
<polygon fill="white" stroke="#bfbfbf" points="144.25,-20 0,-20 0,0 144.25,0 144.25,-20"/>
<text xml:space="preserve" text-anchor="middle" x="72.12" y="-6.5" font-family="Helvetica,sans-Serif" font-size="10.00">shrpx::tls::TLSSessionCache</text>
</a>
</g>
</g>
<!-- Node5&#45;&gt;Node1 -->
<g id="edge4_Node000001_Node000005" class="edge">
<title>Node5&#45;&gt;Node1</title>
<g id="a_edge4_Node000001_Node000005"><a xlink:title=" ">
<path fill="none" stroke="#9a32cd" stroke-dasharray="5,2" d="M155.99,-6.78C197.52,-7.48 248.03,-11.89 291.25,-26 314.92,-33.72 338.72,-50.6 352.64,-61.62"/>
<polygon fill="#9a32cd" stroke="#9a32cd" points="156.08,-3.29 146.05,-6.69 156.01,-10.28 156.08,-3.29"/>
</a>
</g>
<text xml:space="preserve" text-anchor="start" x="179.88" y="-31.5" font-family="Helvetica,sans-Serif" font-size="10.00" fill="grey">client_session_cache</text>
</g>
</g>
</svg>
