<?xml version="1.0" encoding="UTF-8" standalone="no"?>
<!DOCTYPE svg PUBLIC "-//W3C//DTD SVG 1.1//EN"
 "http://www.w3.org/Graphics/SVG/1.1/DTD/svg11.dtd">
<!-- Generated by graphviz version 14.0.5 (0)
 -->
<!-- Title: shrpx::DownstreamParams Pages: 1 -->
<svg width="215pt" height="222pt"
 viewBox="0.00 0.00 215.00 222.00" xmlns="http://www.w3.org/2000/svg" xmlns:xlink="http://www.w3.org/1999/xlink">
<g id="graph0" class="graph" transform="scale(1 1) rotate(0) translate(4 218)">
<title>shrpx::DownstreamParams</title>
<!-- Node1 -->
<g id="Node000001" class="node">
<title>Node1</title>
<g id="a_Node000001"><a xlink:title=" ">
<polygon fill="#999999" stroke="#666666" points="135.25,-20 0,-20 0,0 135.25,0 135.25,-20"/>
<text xml:space="preserve" text-anchor="middle" x="67.62" y="-6.5" font-family="Helvetica,sans-Serif" font-size="10.00">shrpx::DownstreamParams</text>
</a>
</g>
</g>
<!-- Node2 -->
<g id="Node000002" class="node">
<title>Node2</title>
<g id="a_Node000002"><a xlink:href="classnghttp2_1_1StringRef.html" target="_top" xlink:title=" ">
<polygon fill="white" stroke="#bfbfbf" points="115.38,-214 19.88,-214 19.88,-194 115.38,-194 115.38,-214"/>
<text xml:space="preserve" text-anchor="middle" x="67.62" y="-200.5" font-family="Helvetica,sans-Serif" font-size="10.00">nghttp2::StringRef</text>
</a>
</g>
</g>
<!-- Node2&#45;&gt;Node1 -->
<g id="edge1_Node000001_Node000002" class="edge">
<title>Node2&#45;&gt;Node1</title>
<g id="a_edge1_Node000001_Node000002"><a xlink:title=" ">
<path fill="none" stroke="#9a32cd" stroke-dasharray="5,2" d="M65.13,-182.49C62.34,-157.04 58.5,-112.32 60.62,-74 61.68,-54.88 64.54,-32.65 66.26,-20.37"/>
<polygon fill="#9a32cd" stroke="#9a32cd" points="61.61,-182.58 66.24,-192.11 68.57,-181.77 61.61,-182.58"/>
</a>
</g>
<text xml:space="preserve" text-anchor="start" x="63.62" y="-111.5" font-family="Helvetica,sans-Serif" font-size="10.00" fill="grey">group</text>
<text xml:space="preserve" text-anchor="start" x="63.62" y="-95.5" font-family="Helvetica,sans-Serif" font-size="10.00" fill="grey">mruby</text>
<text xml:space="preserve" text-anchor="start" x="63.62" y="-79.5" font-family="Helvetica,sans-Serif" font-size="10.00" fill="grey">sni</text>
</g>
<!-- Node3 -->
<g id="Node000003" class="node">
<title>Node3</title>
<g id="a_Node000003"><a xlink:href="structshrpx_1_1AffinityConfig.html" target="_top" xlink:title=" ">
<polygon fill="white" stroke="#bfbfbf" points="206.88,-109 102.38,-109 102.38,-89 206.88,-89 206.88,-109"/>
<text xml:space="preserve" text-anchor="middle" x="154.62" y="-95.5" font-family="Helvetica,sans-Serif" font-size="10.00">shrpx::AffinityConfig</text>
</a>
</g>
</g>
<!-- Node2&#45;&gt;Node3 -->
<g id="edge3_Node000003_Node000002" class="edge">
<title>Node2&#45;&gt;Node3</title>
<g id="a_edge3_Node000003_Node000002"><a xlink:title=" ">
<path fill="none" stroke="#9a32cd" stroke-dasharray="5,2" d="M82.71,-185.14C101.36,-163.07 132.37,-126.35 146.8,-109.27"/>
<polygon fill="#9a32cd" stroke="#9a32cd" points="80.1,-182.81 76.32,-192.7 85.45,-187.32 80.1,-182.81"/>
</a>
</g>
<text xml:space="preserve" text-anchor="start" x="121.92" y="-163.5" font-family="Helvetica,sans-Serif" font-size="10.00" fill="grey">name</text>
<text xml:space="preserve" text-anchor="start" x="121.92" y="-147.5" font-family="Helvetica,sans-Serif" font-size="10.00" fill="grey">path</text>
</g>
<!-- Node3&#45;&gt;Node1 -->
<g id="edge2_Node000001_Node000003" class="edge">
<title>Node3&#45;&gt;Node1</title>
<g id="a_edge2_Node000001_Node000003"><a xlink:title=" ">
<path fill="none" stroke="#9a32cd" stroke-dasharray="5,2" d="M137.27,-80.64C119.09,-62.46 91.22,-34.59 76.87,-20.24"/>
<polygon fill="#9a32cd" stroke="#9a32cd" points="134.7,-83.02 144.24,-87.62 139.65,-78.07 134.7,-83.02"/>
</a>
</g>
<text xml:space="preserve" text-anchor="start" x="114.12" y="-43.5" font-family="Helvetica,sans-Serif" font-size="10.00" fill="grey">affinity</text>
</g>
</g>
</svg>
