<?xml version="1.0" encoding="UTF-8" standalone="no"?>
<!DOCTYPE svg PUBLIC "-//W3C//DTD SVG 1.1//EN"
 "http://www.w3.org/Graphics/SVG/1.1/DTD/svg11.dtd">
<!-- Generated by graphviz version 14.0.5 (0)
 -->
<!-- Title: sfparse_value Pages: 1 -->
<svg width="182pt" height="102pt"
 viewBox="0.00 0.00 182.00 102.00" xmlns="http://www.w3.org/2000/svg" xmlns:xlink="http://www.w3.org/1999/xlink">
<g id="graph0" class="graph" transform="scale(1 1) rotate(0) translate(4 98)">
<title>sfparse_value</title>
<!-- Node1 -->
<g id="Node000001" class="node">
<title>Node1</title>
<g id="a_Node000001"><a xlink:title=" ">
<polygon fill="#999999" stroke="#666666" points="130,-20 53.25,-20 53.25,0 130,0 130,-20"/>
<text xml:space="preserve" text-anchor="middle" x="91.62" y="-6.5" font-family="Helvetica,sans-Serif" font-size="10.00">sfparse_value</text>
</a>
</g>
</g>
<!-- Node2 -->
<g id="Node000002" class="node">
<title>Node2</title>
<g id="a_Node000002"><a xlink:href="structsfparse__decimal.html" target="_top" xlink:title=" ">
<polygon fill="white" stroke="#666666" points="87.25,-94 0,-94 0,-74 87.25,-74 87.25,-94"/>
<text xml:space="preserve" text-anchor="middle" x="43.62" y="-80.5" font-family="Helvetica,sans-Serif" font-size="10.00">sfparse_decimal</text>
</a>
</g>
</g>
<!-- Node2&#45;&gt;Node1 -->
<g id="edge1_Node000001_Node000002" class="edge">
<title>Node2&#45;&gt;Node1</title>
<g id="a_edge1_Node000001_Node000002"><a xlink:title=" ">
<path fill="none" stroke="#9a32cd" stroke-dasharray="5,2" d="M56.11,-64.27C65.56,-50.1 78.13,-31.25 85.5,-20.19"/>
<polygon fill="#9a32cd" stroke="#9a32cd" points="53.37,-62.07 50.74,-72.33 59.2,-65.95 53.37,-62.07"/>
</a>
</g>
<text xml:space="preserve" text-anchor="start" x="76.34" y="-43.5" font-family="Helvetica,sans-Serif" font-size="10.00" fill="grey">decimal</text>
</g>
<!-- Node3 -->
<g id="Node000003" class="node">
<title>Node3</title>
<g id="a_Node000003"><a xlink:href="structsfparse__vec.html" target="_top" xlink:title=" ">
<polygon fill="white" stroke="#666666" points="174.25,-94 105,-94 105,-74 174.25,-74 174.25,-94"/>
<text xml:space="preserve" text-anchor="middle" x="139.62" y="-80.5" font-family="Helvetica,sans-Serif" font-size="10.00">sfparse_vec</text>
</a>
</g>
</g>
<!-- Node3&#45;&gt;Node1 -->
<g id="edge2_Node000001_Node000003" class="edge">
<title>Node3&#45;&gt;Node1</title>
<g id="a_edge2_Node000001_Node000003"><a xlink:title=" ">
<path fill="none" stroke="#9a32cd" stroke-dasharray="5,2" d="M130.97,-63.23C127.06,-55.12 122.09,-45.82 116.62,-38 112.24,-31.72 106.47,-25.39 101.58,-20.44"/>
<polygon fill="#9a32cd" stroke="#9a32cd" points="127.76,-64.61 135.11,-72.24 134.12,-61.69 127.76,-64.61"/>
</a>
</g>
<text xml:space="preserve" text-anchor="start" x="130.27" y="-43.5" font-family="Helvetica,sans-Serif" font-size="10.00" fill="grey">vec</text>
</g>
</g>
</svg>
