<?xml version="1.0" encoding="UTF-8" standalone="no"?>
<!DOCTYPE svg PUBLIC "-//W3C//DTD SVG 1.1//EN"
 "http://www.w3.org/Graphics/SVG/1.1/DTD/svg11.dtd">
<!-- Generated by graphviz version 14.0.5 (0)
 -->
<!-- Title: nghttp2::MemchunkBuffer&lt; Memchunk &gt; Pages: 1 -->
<svg width="221pt" height="230pt"
 viewBox="0.00 0.00 221.00 230.00" xmlns="http://www.w3.org/2000/svg" xmlns:xlink="http://www.w3.org/1999/xlink">
<g id="graph0" class="graph" transform="scale(1 1) rotate(0) translate(4 226)">
<title>nghttp2::MemchunkBuffer&lt; Memchunk &gt;</title>
<!-- Node1 -->
<g id="Node000001" class="node">
<title>Node1</title>
<g id="a_Node000001"><a xlink:title=" ">
<polygon fill="#999999" stroke="#666666" points="146.75,-32 19,-32 19,0 146.75,0 146.75,-32"/>
<text xml:space="preserve" text-anchor="start" x="27" y="-18.5" font-family="Helvetica,sans-Serif" font-size="10.00">nghttp2::MemchunkBuffer</text>
<text xml:space="preserve" text-anchor="middle" x="82.88" y="-6.5" font-family="Helvetica,sans-Serif" font-size="10.00">&lt; Memchunk &gt;</text>
</a>
</g>
</g>
<!-- Node2 -->
<g id="Node000002" class="node">
<title>Node2</title>
<g id="a_Node000002"><a xlink:href="structnghttp2_1_1Pool.html" target="_top" xlink:title=" ">
<polygon fill="white" stroke="#bfbfbf" points="213.38,-118 98.38,-118 98.38,-86 213.38,-86 213.38,-118"/>
<text xml:space="preserve" text-anchor="start" x="106.38" y="-104.5" font-family="Helvetica,sans-Serif" font-size="10.00">nghttp2::Pool&lt; nghttp2</text>
<text xml:space="preserve" text-anchor="middle" x="155.88" y="-92.5" font-family="Helvetica,sans-Serif" font-size="10.00">::Memchunk &gt;</text>
</a>
</g>
</g>
<!-- Node2&#45;&gt;Node1 -->
<g id="edge1_Node000001_Node000002" class="edge">
<title>Node2&#45;&gt;Node1</title>
<g id="a_edge1_Node000001_Node000002"><a xlink:title=" ">
<path fill="none" stroke="#9a32cd" stroke-dasharray="5,2" d="M135.16,-77.16C122.64,-62.76 107.06,-44.83 96.18,-32.31"/>
<polygon fill="#9a32cd" stroke="#9a32cd" points="132.29,-79.2 141.49,-84.45 137.58,-74.61 132.29,-79.2"/>
</a>
</g>
<text xml:space="preserve" text-anchor="start" x="128.91" y="-55.5" font-family="Helvetica,sans-Serif" font-size="10.00" fill="grey">pool</text>
</g>
<!-- Node3 -->
<g id="Node000003" class="node">
<title>Node3</title>
<g id="a_Node000003"><a xlink:href="structnghttp2_1_1Memchunk.html" target="_top" xlink:title=" ">
<polygon fill="white" stroke="#bfbfbf" points="127.75,-215 0,-215 0,-195 127.75,-195 127.75,-215"/>
<text xml:space="preserve" text-anchor="middle" x="63.88" y="-201.5" font-family="Helvetica,sans-Serif" font-size="10.00">nghttp2::Memchunk&lt; N &gt;</text>
</a>
</g>
</g>
<!-- Node3&#45;&gt;Node1 -->
<g id="edge4_Node000001_Node000003" class="edge">
<title>Node3&#45;&gt;Node1</title>
<g id="a_edge4_Node000001_Node000003"><a xlink:title=" ">
<path fill="none" stroke="#9a32cd" stroke-dasharray="5,2" d="M60.02,-183.72C56.17,-160.07 51.62,-119.9 57.62,-86 61.01,-66.91 69.28,-46.16 75.43,-32.46"/>
<polygon fill="#9a32cd" stroke="#9a32cd" points="56.52,-184 61.7,-193.24 63.41,-182.79 56.52,-184"/>
</a>
</g>
<text xml:space="preserve" text-anchor="start" x="60.62" y="-98.5" font-family="Helvetica,sans-Serif" font-size="10.00" fill="grey">chunk</text>
</g>
<!-- Node3&#45;&gt;Node2 -->
<g id="edge2_Node000002_Node000003" class="edge">
<title>Node3&#45;&gt;Node2</title>
<g id="a_edge2_Node000002_Node000003"><a xlink:title=" ">
<path fill="none" stroke="#9a32cd" stroke-dasharray="5,2" d="M80.09,-186.2C97.69,-166.88 125.49,-136.36 142.08,-118.15"/>
<polygon fill="#9a32cd" stroke="#9a32cd" points="77.53,-183.81 73.38,-193.56 82.71,-188.52 77.53,-183.81"/>
</a>
</g>
<text xml:space="preserve" text-anchor="start" x="126.49" y="-157.5" font-family="Helvetica,sans-Serif" font-size="10.00" fill="grey">freelist</text>
<text xml:space="preserve" text-anchor="start" x="126.49" y="-141.5" font-family="Helvetica,sans-Serif" font-size="10.00" fill="grey">pool</text>
</g>
<!-- Node3&#45;&gt;Node3 -->
<g id="edge3_Node000003_Node000003" class="edge">
<title>Node3&#45;&gt;Node3</title>
<g id="a_edge3_Node000003_Node000003"><a xlink:title=" ">
<path fill="none" stroke="#9a32cd" stroke-dasharray="5,2" d="M139.29,-211.47C143.34,-209.89 145.75,-207.73 145.75,-205 145.75,-200.28 138.55,-197.27 128.06,-195.98"/>
<polygon fill="#9a32cd" stroke="#9a32cd" points="138.52,-208.06 129.54,-213.69 140.07,-214.88 138.52,-208.06"/>
</a>
</g>
<text xml:space="preserve" text-anchor="start" x="148.75" y="-209.5" font-family="Helvetica,sans-Serif" font-size="10.00" fill="grey">knext</text>
<text xml:space="preserve" text-anchor="start" x="148.75" y="-193.5" font-family="Helvetica,sans-Serif" font-size="10.00" fill="grey">next</text>
</g>
</g>
</svg>
