<?xml version="1.0" encoding="UTF-8" standalone="no"?>
<!DOCTYPE svg PUBLIC "-//W3C//DTD SVG 1.1//EN"
 "http://www.w3.org/Graphics/SVG/1.1/DTD/svg11.dtd">
<!-- Generated by graphviz version 14.0.5 (0)
 -->
<!-- Title: nghttp2::Memchunk&lt; N &gt; Pages: 1 -->
<svg width="184pt" height="132pt"
 viewBox="0.00 0.00 184.00 132.00" xmlns="http://www.w3.org/2000/svg" xmlns:xlink="http://www.w3.org/1999/xlink">
<g id="graph0" class="graph" transform="scale(1 1) rotate(0) translate(4 128)">
<title>nghttp2::Memchunk&lt; N &gt;</title>
<!-- Node1 -->
<g id="Node000001" class="node">
<title>Node1</title>
<g id="a_Node000001"><a xlink:title=" ">
<polygon fill="#999999" stroke="#666666" points="127.75,-20 0,-20 0,0 127.75,0 127.75,-20"/>
<text xml:space="preserve" text-anchor="middle" x="63.88" y="-6.5" font-family="Helvetica,sans-Serif" font-size="10.00">nghttp2::Memchunk&lt; N &gt;</text>
</a>
</g>
</g>
<!-- Node2 -->
<g id="Node000002" class="node">
<title>Node2</title>
<g id="a_Node000002"><a xlink:href="structnghttp2_1_1Memchunk.html" target="_top" xlink:title=" ">
<polygon fill="white" stroke="#bfbfbf" points="127.75,-117 0,-117 0,-97 127.75,-97 127.75,-117"/>
<text xml:space="preserve" text-anchor="middle" x="63.88" y="-103.5" font-family="Helvetica,sans-Serif" font-size="10.00">nghttp2::Memchunk&lt; N &gt;</text>
</a>
</g>
</g>
<!-- Node2&#45;&gt;Node1 -->
<g id="edge1_Node000001_Node000002" class="edge">
<title>Node2&#45;&gt;Node1</title>
<g id="a_edge1_Node000001_Node000002"><a xlink:title=" ">
<path fill="none" stroke="#9a32cd" stroke-dasharray="5,2" d="M63.88,-85.18C63.88,-65.03 63.88,-35.4 63.88,-20.42"/>
<polygon fill="#9a32cd" stroke="#9a32cd" points="60.38,-85.03 63.88,-95.03 67.38,-85.03 60.38,-85.03"/>
</a>
</g>
<text xml:space="preserve" text-anchor="start" x="66.88" y="-59.5" font-family="Helvetica,sans-Serif" font-size="10.00" fill="grey">knext</text>
<text xml:space="preserve" text-anchor="start" x="66.88" y="-43.5" font-family="Helvetica,sans-Serif" font-size="10.00" fill="grey">next</text>
</g>
<!-- Node2&#45;&gt;Node2 -->
<g id="edge2_Node000002_Node000002" class="edge">
<title>Node2&#45;&gt;Node2</title>
<g id="a_edge2_Node000002_Node000002"><a xlink:title=" ">
<path fill="none" stroke="#9a32cd" stroke-dasharray="5,2" d="M139.29,-113.47C143.34,-111.89 145.75,-109.73 145.75,-107 145.75,-102.28 138.55,-99.27 128.06,-97.98"/>
<polygon fill="#9a32cd" stroke="#9a32cd" points="138.52,-110.06 129.54,-115.69 140.07,-116.88 138.52,-110.06"/>
</a>
</g>
<text xml:space="preserve" text-anchor="start" x="148.75" y="-111.5" font-family="Helvetica,sans-Serif" font-size="10.00" fill="grey">knext</text>
<text xml:space="preserve" text-anchor="start" x="148.75" y="-95.5" font-family="Helvetica,sans-Serif" font-size="10.00" fill="grey">next</text>
</g>
</g>
</svg>
