<?xml version="1.0" encoding="UTF-8" standalone="no"?>
<!DOCTYPE svg PUBLIC "-//W3C//DTD SVG 1.1//EN"
 "http://www.w3.org/Graphics/SVG/1.1/DTD/svg11.dtd">
<!-- Generated by graphviz version 14.0.5 (0)
 -->
<!-- Title: subclass_args Pages: 1 -->
<svg width="797pt" height="626pt"
 viewBox="0.00 0.00 797.00 626.00" xmlns="http://www.w3.org/2000/svg" xmlns:xlink="http://www.w3.org/1999/xlink">
<g id="graph0" class="graph" transform="scale(1 1) rotate(0) translate(4 622)">
<title>subclass_args</title>
<!-- Node1 -->
<g id="Node000001" class="node">
<title>Node1</title>
<g id="a_Node000001"><a xlink:title=" ">
<polygon fill="#999999" stroke="#666666" points="575.62,-290 496.62,-290 496.62,-270 575.62,-270 575.62,-290"/>
<text xml:space="preserve" text-anchor="middle" x="536.12" y="-276.5" font-family="Helvetica,sans-Serif" font-size="10.00">subclass_args</text>
</a>
</g>
</g>
<!-- Node2 -->
<g id="Node000002" class="node">
<title>Node2</title>
<g id="a_Node000002"><a xlink:href="structRClass.html" target="_top" xlink:title=" ">
<polygon fill="white" stroke="#666666" points="443.62,-380 394.62,-380 394.62,-360 443.62,-360 443.62,-380"/>
<text xml:space="preserve" text-anchor="middle" x="419.12" y="-366.5" font-family="Helvetica,sans-Serif" font-size="10.00">RClass</text>
</a>
</g>
</g>
<!-- Node2&#45;&gt;Node1 -->
<g id="edge1_Node000001_Node000002" class="edge">
<title>Node2&#45;&gt;Node1</title>
<g id="a_edge1_Node000001_Node000002"><a xlink:title=" ">
<path fill="none" stroke="#9a32cd" stroke-dasharray="5,2" d="M440.82,-352.68C465.21,-334.34 503.96,-305.19 523.69,-290.35"/>
<polygon fill="#9a32cd" stroke="#9a32cd" points="438.74,-349.86 432.86,-358.67 442.95,-355.46 438.74,-349.86"/>
</a>
</g>
<text xml:space="preserve" text-anchor="start" x="501.28" y="-321.5" font-family="Helvetica,sans-Serif" font-size="10.00" fill="grey">c</text>
</g>
<!-- Node2&#45;&gt;Node2 -->
<g id="edge31_Node000002_Node000002" class="edge">
<title>Node2&#45;&gt;Node2</title>
<g id="a_edge31_Node000002_Node000002"><a xlink:title=" ">
<path fill="none" stroke="#9a32cd" stroke-dasharray="5,2" d="M455.17,-377.07C459.09,-375.72 461.62,-373.36 461.62,-370 461.62,-364.02 453.63,-361.22 444.01,-361.6"/>
<polygon fill="#9a32cd" stroke="#9a32cd" points="455.03,-373.56 445.51,-378.23 455.86,-380.51 455.03,-373.56"/>
</a>
</g>
<text xml:space="preserve" text-anchor="start" x="464.62" y="-366.5" font-family="Helvetica,sans-Serif" font-size="10.00" fill="grey">super</text>
</g>
<!-- Node8 -->
<g id="Node000008" class="node">
<title>Node8</title>
<g id="a_Node000008"><a xlink:href="structRProc.html" target="_top" xlink:title=" ">
<polygon fill="white" stroke="#bfbfbf" points="297,-290 253.25,-290 253.25,-270 297,-270 297,-290"/>
<text xml:space="preserve" text-anchor="middle" x="275.12" y="-276.5" font-family="Helvetica,sans-Serif" font-size="10.00">RProc</text>
</a>
</g>
</g>
<!-- Node2&#45;&gt;Node8 -->
<g id="edge17_Node000008_Node000002" class="edge">
<title>Node2&#45;&gt;Node8</title>
<g id="a_edge17_Node000008_Node000002"><a xlink:title=" ">
<path fill="none" stroke="#9a32cd" stroke-dasharray="5,2" d="M382.95,-366.18C361.5,-363.01 334.73,-356.27 314.88,-342 312.42,-340.24 291.5,-307.15 281.04,-290.46"/>
<polygon fill="#9a32cd" stroke="#9a32cd" points="382.37,-369.64 392.73,-367.42 383.25,-362.7 382.37,-369.64"/>
</a>
</g>
<text xml:space="preserve" text-anchor="start" x="317.88" y="-321.5" font-family="Helvetica,sans-Serif" font-size="10.00" fill="grey">target_class</text>
</g>
<!-- Node17 -->
<g id="Node000017" class="node">
<title>Node17</title>
<g id="a_Node000017"><a xlink:href="structmrb__callinfo.html" target="_top" xlink:title=" ">
<polygon fill="white" stroke="#bfbfbf" points="601.38,-200 532.88,-200 532.88,-180 601.38,-180 601.38,-200"/>
<text xml:space="preserve" text-anchor="middle" x="567.12" y="-186.5" font-family="Helvetica,sans-Serif" font-size="10.00">mrb_callinfo</text>
</a>
</g>
</g>
<!-- Node2&#45;&gt;Node17 -->
<g id="edge27_Node000017_Node000002" class="edge">
<title>Node2&#45;&gt;Node17</title>
<g id="a_edge27_Node000017_Node000002"><a xlink:title=" ">
<path fill="none" stroke="#9a32cd" stroke-dasharray="5,2" d="M415.96,-348.35C413.8,-326.99 413.64,-293.52 428.88,-270 452.85,-233 500.62,-211.44 533.22,-200.44"/>
<polygon fill="#9a32cd" stroke="#9a32cd" points="412.47,-348.65 417.21,-358.13 419.41,-347.77 412.47,-348.65"/>
</a>
</g>
<text xml:space="preserve" text-anchor="start" x="431.88" y="-276.5" font-family="Helvetica,sans-Serif" font-size="10.00" fill="grey">target_class</text>
</g>
<!-- Node3 -->
<g id="Node000003" class="node">
<title>Node3</title>
<g id="a_Node000003"><a xlink:href="structiv__tbl.html" target="_top" xlink:title=" ">
<polygon fill="white" stroke="#bfbfbf" points="493.75,-470 454.5,-470 454.5,-450 493.75,-450 493.75,-470"/>
<text xml:space="preserve" text-anchor="middle" x="474.12" y="-456.5" font-family="Helvetica,sans-Serif" font-size="10.00">iv_tbl</text>
</a>
</g>
</g>
<!-- Node3&#45;&gt;Node2 -->
<g id="edge2_Node000002_Node000003" class="edge">
<title>Node3&#45;&gt;Node2</title>
<g id="a_edge2_Node000002_Node000003"><a xlink:title=" ">
<path fill="none" stroke="#9a32cd" stroke-dasharray="5,2" d="M462.2,-439.92C450.7,-421.53 433.79,-394.47 424.97,-380.35"/>
<polygon fill="#9a32cd" stroke="#9a32cd" points="459.17,-441.67 467.44,-448.3 465.1,-437.96 459.17,-441.67"/>
</a>
</g>
<text xml:space="preserve" text-anchor="start" x="459.33" y="-411.5" font-family="Helvetica,sans-Serif" font-size="10.00" fill="grey">iv</text>
</g>
<!-- Node4 -->
<g id="Node000004" class="node">
<title>Node4</title>
<g id="a_Node000004"><a xlink:href="structmrb__value.html" target="_top" xlink:title=" ">
<polygon fill="white" stroke="#bfbfbf" points="566.62,-544 505.62,-544 505.62,-524 566.62,-524 566.62,-544"/>
<text xml:space="preserve" text-anchor="middle" x="536.12" y="-530.5" font-family="Helvetica,sans-Serif" font-size="10.00">mrb_value</text>
</a>
</g>
</g>
<!-- Node4&#45;&gt;Node1 -->
<g id="edge32_Node000001_Node000004" class="edge">
<title>Node4&#45;&gt;Node1</title>
<g id="a_edge32_Node000001_Node000004"><a xlink:title=" ">
<path fill="none" stroke="#9a32cd" stroke-dasharray="5,2" d="M536.12,-512.48C536.12,-460.82 536.12,-326.93 536.12,-290.35"/>
<polygon fill="#9a32cd" stroke="#9a32cd" points="532.63,-512.22 536.13,-522.22 539.63,-512.22 532.63,-512.22"/>
</a>
</g>
<text xml:space="preserve" text-anchor="start" x="539.12" y="-411.5" font-family="Helvetica,sans-Serif" font-size="10.00" fill="grey">ary</text>
</g>
<!-- Node4&#45;&gt;Node3 -->
<g id="edge3_Node000003_Node000004" class="edge">
<title>Node4&#45;&gt;Node3</title>
<g id="a_edge3_Node000003_Node000004"><a xlink:title=" ">
<path fill="none" stroke="#9a32cd" stroke-dasharray="5,2" d="M515.18,-516.24C511.59,-512.99 508.01,-509.51 504.88,-506 494.79,-494.71 485.3,-479.95 479.6,-470.47"/>
<polygon fill="#9a32cd" stroke="#9a32cd" points="512.86,-518.86 522.74,-522.69 517.41,-513.53 512.86,-518.86"/>
</a>
</g>
<text xml:space="preserve" text-anchor="start" x="507.88" y="-493.5" font-family="Helvetica,sans-Serif" font-size="10.00" fill="grey">ptr</text>
</g>
<!-- Node7 -->
<g id="Node000007" class="node">
<title>Node7</title>
<g id="a_Node000007"><a xlink:href="unionmt__ptr.html" target="_top" xlink:title=" ">
<polygon fill="white" stroke="#bfbfbf" points="316,-200 272.25,-200 272.25,-180 316,-180 316,-200"/>
<text xml:space="preserve" text-anchor="middle" x="294.12" y="-186.5" font-family="Helvetica,sans-Serif" font-size="10.00">mt_ptr</text>
</a>
</g>
</g>
<!-- Node4&#45;&gt;Node7 -->
<g id="edge30_Node000007_Node000004" class="edge">
<title>Node4&#45;&gt;Node7</title>
<g id="a_edge30_Node000007_Node000004"><a xlink:title=" ">
<path fill="none" stroke="#9a32cd" stroke-dasharray="5,2" d="M494.06,-529.65C392.87,-521.04 144.12,-496.28 144.12,-461 144.12,-461 144.12,-461 144.12,-279 144.12,-220.43 230.27,-200.09 271.99,-193.68"/>
<polygon fill="#9a32cd" stroke="#9a32cd" points="493.6,-533.13 503.86,-530.47 494.18,-526.15 493.6,-533.13"/>
</a>
</g>
<text xml:space="preserve" text-anchor="start" x="147.12" y="-366.5" font-family="Helvetica,sans-Serif" font-size="10.00" fill="grey">func</text>
</g>
<!-- Node4&#45;&gt;Node8 -->
<g id="edge15_Node000008_Node000004" class="edge">
<title>Node4&#45;&gt;Node8</title>
<g id="a_edge15_Node000008_Node000004"><a xlink:title=" ">
<path fill="none" stroke="#9a32cd" stroke-dasharray="5,2" d="M507.58,-518.26C456.98,-490.65 351.59,-426.26 295.12,-342 284.21,-325.7 278.85,-302.98 276.56,-290.37"/>
<polygon fill="#9a32cd" stroke="#9a32cd" points="505.71,-521.22 516.17,-522.87 509.01,-515.06 505.71,-521.22"/>
</a>
</g>
<text xml:space="preserve" text-anchor="start" x="381.28" y="-411.5" font-family="Helvetica,sans-Serif" font-size="10.00" fill="grey">func</text>
</g>
<!-- Node15 -->
<g id="Node000015" class="node">
<title>Node15</title>
<g id="a_Node000015"><a xlink:href="structREnv.html" target="_top" xlink:title=" ">
<polygon fill="white" stroke="#666666" points="628.5,-20 587.75,-20 587.75,0 628.5,0 628.5,-20"/>
<text xml:space="preserve" text-anchor="middle" x="608.12" y="-6.5" font-family="Helvetica,sans-Serif" font-size="10.00">REnv</text>
</a>
</g>
</g>
<!-- Node4&#45;&gt;Node15 -->
<g id="edge19_Node000015_Node000004" class="edge">
<title>Node4&#45;&gt;Node15</title>
<g id="a_edge19_Node000015_Node000004"><a xlink:title=" ">
<path fill="none" stroke="#9a32cd" stroke-dasharray="5,2" d="M578.1,-524.39C610.61,-514.98 650.12,-496.28 650.12,-461 650.12,-461 650.12,-461 650.12,-189 650.12,-122.96 622.4,-46.73 612,-20.46"/>
<polygon fill="#9a32cd" stroke="#9a32cd" points="577.21,-521 568.44,-526.95 579,-527.77 577.21,-521"/>
</a>
</g>
<text xml:space="preserve" text-anchor="start" x="653.12" y="-276.5" font-family="Helvetica,sans-Serif" font-size="10.00" fill="grey">stack</text>
</g>
<!-- Node16 -->
<g id="Node000016" class="node">
<title>Node16</title>
<g id="a_Node000016"><a xlink:href="structmrb__context.html" target="_top" xlink:title=" ">
<polygon fill="white" stroke="#bfbfbf" points="746.12,-94 676.12,-94 676.12,-74 746.12,-74 746.12,-94"/>
<text xml:space="preserve" text-anchor="middle" x="711.12" y="-80.5" font-family="Helvetica,sans-Serif" font-size="10.00">mrb_context</text>
</a>
</g>
</g>
<!-- Node4&#45;&gt;Node16 -->
<g id="edge22_Node000016_Node000004" class="edge">
<title>Node4&#45;&gt;Node16</title>
<g id="a_edge22_Node000016_Node000004"><a xlink:title=" ">
<path fill="none" stroke="#9a32cd" stroke-dasharray="5,2" d="M578.46,-532.97C629.67,-530.45 709.12,-517.44 709.12,-461 709.12,-461 709.12,-461 709.12,-189 709.12,-154.15 710.26,-112.73 710.82,-94.46"/>
<polygon fill="#9a32cd" stroke="#9a32cd" points="578.43,-529.47 568.57,-533.33 578.69,-536.47 578.43,-529.47"/>
</a>
</g>
<text xml:space="preserve" text-anchor="start" x="712.12" y="-329.5" font-family="Helvetica,sans-Serif" font-size="10.00" fill="grey">stbase</text>
<text xml:space="preserve" text-anchor="start" x="712.12" y="-313.5" font-family="Helvetica,sans-Serif" font-size="10.00" fill="grey">stend</text>
</g>
<!-- Node4&#45;&gt;Node17 -->
<g id="edge25_Node000017_Node000004" class="edge">
<title>Node4&#45;&gt;Node17</title>
<g id="a_edge25_Node000017_Node000004"><a xlink:title=" ">
<path fill="none" stroke="#9a32cd" stroke-dasharray="5,2" d="M547.1,-513.61C548.24,-511.1 549.29,-508.53 550.12,-506 583.43,-405.33 596.98,-375.37 585.12,-270 582.23,-244.28 574.2,-214.72 569.91,-200.13"/>
<polygon fill="#9a32cd" stroke="#9a32cd" points="543.99,-511.99 542.51,-522.48 550.21,-515.21 543.99,-511.99"/>
</a>
</g>
<text xml:space="preserve" text-anchor="start" x="591.33" y="-366.5" font-family="Helvetica,sans-Serif" font-size="10.00" fill="grey">stack</text>
</g>
<!-- Node5 -->
<g id="Node000005" class="node">
<title>Node5</title>
<g id="a_Node000005"><a xlink:href="unionmrb__value__union.html" target="_top" xlink:title=" ">
<polygon fill="white" stroke="#bfbfbf" points="580.88,-618 491.38,-618 491.38,-598 580.88,-598 580.88,-618"/>
<text xml:space="preserve" text-anchor="middle" x="536.12" y="-604.5" font-family="Helvetica,sans-Serif" font-size="10.00">mrb_value_union</text>
</a>
</g>
</g>
<!-- Node5&#45;&gt;Node4 -->
<g id="edge4_Node000004_Node000005" class="edge">
<title>Node5&#45;&gt;Node4</title>
<g id="a_edge4_Node000004_Node000005"><a xlink:title=" ">
<path fill="none" stroke="#9a32cd" stroke-dasharray="5,2" d="M536.12,-586.18C536.12,-572.29 536.12,-554.71 536.12,-544.19"/>
<polygon fill="#9a32cd" stroke="#9a32cd" points="532.63,-586.07 536.13,-596.07 539.63,-586.07 532.63,-586.07"/>
</a>
</g>
<text xml:space="preserve" text-anchor="start" x="539.12" y="-567.5" font-family="Helvetica,sans-Serif" font-size="10.00" fill="grey">value</text>
</g>
<!-- Node6 -->
<g id="Node000006" class="node">
<title>Node6</title>
<g id="a_Node000006"><a xlink:href="structmt__tbl.html" target="_top" xlink:title=" ">
<polygon fill="white" stroke="#bfbfbf" points="374.62,-94 331.62,-94 331.62,-74 374.62,-74 374.62,-94"/>
<text xml:space="preserve" text-anchor="middle" x="353.12" y="-80.5" font-family="Helvetica,sans-Serif" font-size="10.00">mt_tbl</text>
</a>
</g>
</g>
<!-- Node6&#45;&gt;Node2 -->
<g id="edge5_Node000002_Node000006" class="edge">
<title>Node6&#45;&gt;Node2</title>
<g id="a_edge5_Node000002_Node000006"><a xlink:title=" ">
<path fill="none" stroke="#9a32cd" stroke-dasharray="5,2" d="M357.26,-105.43C366.19,-149.08 388.34,-254.58 411.12,-342 412.65,-347.87 414.58,-354.38 416.16,-359.55"/>
<polygon fill="#9a32cd" stroke="#9a32cd" points="360.74,-104.97 355.31,-95.87 353.88,-106.37 360.74,-104.97"/>
</a>
</g>
<text xml:space="preserve" text-anchor="start" x="391.66" y="-231.5" font-family="Helvetica,sans-Serif" font-size="10.00" fill="grey">mt</text>
</g>
<!-- Node7&#45;&gt;Node6 -->
<g id="edge6_Node000006_Node000007" class="edge">
<title>Node7&#45;&gt;Node6</title>
<g id="a_edge6_Node000006_Node000007"><a xlink:title=" ">
<path fill="none" stroke="#9a32cd" stroke-dasharray="5,2" d="M304.87,-170.05C317.56,-147.68 338.16,-111.37 347.82,-94.36"/>
<polygon fill="#9a32cd" stroke="#9a32cd" points="302,-168.03 300.11,-178.45 308.09,-171.48 302,-168.03"/>
</a>
</g>
<text xml:space="preserve" text-anchor="start" x="340.3" y="-133.5" font-family="Helvetica,sans-Serif" font-size="10.00" fill="grey">ptr</text>
</g>
<!-- Node8&#45;&gt;Node7 -->
<g id="edge7_Node000007_Node000008" class="edge">
<title>Node8&#45;&gt;Node7</title>
<g id="a_edge7_Node000007_Node000008"><a xlink:title=" ">
<path fill="none" stroke="#9a32cd" stroke-dasharray="5,2" d="M273.83,-258.19C273.68,-246.2 274.49,-230.98 278.38,-218 280.24,-211.76 283.82,-205.44 287.09,-200.48"/>
<polygon fill="#9a32cd" stroke="#9a32cd" points="270.33,-258.31 274.22,-268.16 277.33,-258.03 270.33,-258.31"/>
</a>
</g>
<text xml:space="preserve" text-anchor="start" x="281.38" y="-231.5" font-family="Helvetica,sans-Serif" font-size="10.00" fill="grey">proc</text>
</g>
<!-- Node8&#45;&gt;Node8 -->
<g id="edge16_Node000008_Node000008" class="edge">
<title>Node8&#45;&gt;Node8</title>
<g id="a_edge16_Node000008_Node000008"><a xlink:title=" ">
<path fill="none" stroke="#9a32cd" stroke-dasharray="5,2" d="M308.45,-287.24C312.41,-285.93 315,-283.51 315,-280 315,-273.76 306.82,-270.98 297.27,-271.66"/>
<polygon fill="#9a32cd" stroke="#9a32cd" points="308.39,-283.73 298.77,-288.19 309.07,-290.7 308.39,-283.73"/>
</a>
</g>
<text xml:space="preserve" text-anchor="start" x="318" y="-276.5" font-family="Helvetica,sans-Serif" font-size="10.00" fill="grey">upper</text>
</g>
<!-- Node8&#45;&gt;Node17 -->
<g id="edge24_Node000017_Node000008" class="edge">
<title>Node8&#45;&gt;Node17</title>
<g id="a_edge24_Node000017_Node000008"><a xlink:title=" ">
<path fill="none" stroke="#9a32cd" stroke-dasharray="5,2" d="M293.92,-261.91C297.11,-258.72 300.3,-255.34 303.12,-252 314.94,-238.02 310.69,-227.43 326.38,-218 360.35,-197.57 474.82,-192.59 532.82,-191.38"/>
<polygon fill="#9a32cd" stroke="#9a32cd" points="291.65,-259.24 286.83,-268.68 296.48,-264.3 291.65,-259.24"/>
</a>
</g>
<text xml:space="preserve" text-anchor="start" x="329.38" y="-239.5" font-family="Helvetica,sans-Serif" font-size="10.00" fill="grey">blk</text>
<text xml:space="preserve" text-anchor="start" x="329.38" y="-223.5" font-family="Helvetica,sans-Serif" font-size="10.00" fill="grey">proc</text>
</g>
<!-- Node9 -->
<g id="Node000009" class="node">
<title>Node9</title>
<g id="a_Node000009"><a xlink:href="structmrb__irep.html" target="_top" xlink:title=" ">
<polygon fill="white" stroke="#bfbfbf" points="247.88,-380 194.38,-380 194.38,-360 247.88,-360 247.88,-380"/>
<text xml:space="preserve" text-anchor="middle" x="221.12" y="-366.5" font-family="Helvetica,sans-Serif" font-size="10.00">mrb_irep</text>
</a>
</g>
</g>
<!-- Node9&#45;&gt;Node8 -->
<g id="edge8_Node000008_Node000009" class="edge">
<title>Node9&#45;&gt;Node8</title>
<g id="a_edge8_Node000008_Node000009"><a xlink:title=" ">
<path fill="none" stroke="#9a32cd" stroke-dasharray="5,2" d="M226.53,-349.02C230.5,-336.53 236.72,-320.49 245.38,-308 249.98,-301.35 256.52,-295.18 262.3,-290.43"/>
<polygon fill="#9a32cd" stroke="#9a32cd" points="223.28,-347.65 223.83,-358.23 230,-349.62 223.28,-347.65"/>
</a>
</g>
<text xml:space="preserve" text-anchor="start" x="248.38" y="-321.5" font-family="Helvetica,sans-Serif" font-size="10.00" fill="grey">irep</text>
</g>
<!-- Node9&#45;&gt;Node9 -->
<g id="edge11_Node000009_Node000009" class="edge">
<title>Node9&#45;&gt;Node9</title>
<g id="a_edge11_Node000009_Node000009"><a xlink:title=" ">
<path fill="none" stroke="#9a32cd" stroke-dasharray="5,2" d="M259.44,-376.95C263.37,-375.58 265.88,-373.26 265.88,-370 265.88,-364.2 257.94,-361.39 248.21,-361.57"/>
<polygon fill="#9a32cd" stroke="#9a32cd" points="259.17,-373.45 249.71,-378.23 260.09,-380.39 259.17,-373.45"/>
</a>
</g>
<text xml:space="preserve" text-anchor="start" x="268.88" y="-366.5" font-family="Helvetica,sans-Serif" font-size="10.00" fill="grey">reps</text>
</g>
<!-- Node10 -->
<g id="Node000010" class="node">
<title>Node10</title>
<g id="a_Node000010"><a xlink:href="structmrb__pool__value.html" target="_top" xlink:title=" ">
<polygon fill="white" stroke="#bfbfbf" points="330.25,-470 246,-470 246,-450 330.25,-450 330.25,-470"/>
<text xml:space="preserve" text-anchor="middle" x="288.12" y="-456.5" font-family="Helvetica,sans-Serif" font-size="10.00">mrb_pool_value</text>
</a>
</g>
</g>
<!-- Node10&#45;&gt;Node9 -->
<g id="edge9_Node000009_Node000010" class="edge">
<title>Node10&#45;&gt;Node9</title>
<g id="a_edge9_Node000009_Node000010"><a xlink:title=" ">
<path fill="none" stroke="#9a32cd" stroke-dasharray="5,2" d="M277.18,-440.2C269.62,-427.77 259,-411.37 248.12,-398 243.02,-391.73 236.65,-385.3 231.38,-380.29"/>
<polygon fill="#9a32cd" stroke="#9a32cd" points="274.07,-441.81 282.19,-448.62 280.09,-438.23 274.07,-441.81"/>
</a>
</g>
<text xml:space="preserve" text-anchor="start" x="275.04" y="-411.5" font-family="Helvetica,sans-Serif" font-size="10.00" fill="grey">pool</text>
</g>
<!-- Node11 -->
<g id="Node000011" class="node">
<title>Node11</title>
<g id="a_Node000011"><a xlink:href="classmrb__sym.html" target="_top" xlink:title=" ">
<polygon fill="white" stroke="#666666" points="228.38,-470 171.88,-470 171.88,-450 228.38,-450 228.38,-470"/>
<text xml:space="preserve" text-anchor="middle" x="200.12" y="-456.5" font-family="Helvetica,sans-Serif" font-size="10.00">mrb_sym</text>
</a>
</g>
</g>
<!-- Node11&#45;&gt;Node9 -->
<g id="edge10_Node000009_Node000011" class="edge">
<title>Node11&#45;&gt;Node9</title>
<g id="a_edge10_Node000009_Node000011"><a xlink:title=" ">
<path fill="none" stroke="#9a32cd" stroke-dasharray="5,2" d="M204.99,-438.61C209.37,-420.27 215.6,-394.14 218.89,-380.35"/>
<polygon fill="#9a32cd" stroke="#9a32cd" points="201.64,-437.57 202.72,-448.11 208.45,-439.2 201.64,-437.57"/>
</a>
</g>
<text xml:space="preserve" text-anchor="start" x="217.33" y="-419.5" font-family="Helvetica,sans-Serif" font-size="10.00" fill="grey">lv</text>
<text xml:space="preserve" text-anchor="start" x="217.33" y="-403.5" font-family="Helvetica,sans-Serif" font-size="10.00" fill="grey">syms</text>
</g>
<!-- Node12 -->
<g id="Node000012" class="node">
<title>Node12</title>
<g id="a_Node000012"><a xlink:href="structmrb__irep__debug__info.html" target="_top" xlink:title=" ">
<polygon fill="white" stroke="#bfbfbf" points="116.12,-470 10.12,-470 10.12,-450 116.12,-450 116.12,-470"/>
<text xml:space="preserve" text-anchor="middle" x="63.12" y="-456.5" font-family="Helvetica,sans-Serif" font-size="10.00">mrb_irep_debug_info</text>
</a>
</g>
</g>
<!-- Node12&#45;&gt;Node9 -->
<g id="edge12_Node000009_Node000012" class="edge">
<title>Node12&#45;&gt;Node9</title>
<g id="a_edge12_Node000009_Node000012"><a xlink:title=" ">
<path fill="none" stroke="#9a32cd" stroke-dasharray="5,2" d="M83.58,-442.4C100.58,-429.15 125.81,-410.76 149.88,-398 163.9,-390.56 180.43,-384.17 194.04,-379.47"/>
<polygon fill="#9a32cd" stroke="#9a32cd" points="81.44,-439.63 75.77,-448.58 85.78,-445.11 81.44,-439.63"/>
</a>
</g>
<text xml:space="preserve" text-anchor="start" x="152.88" y="-411.5" font-family="Helvetica,sans-Serif" font-size="10.00" fill="grey">debug_info</text>
</g>
<!-- Node13 -->
<g id="Node000013" class="node">
<title>Node13</title>
<g id="a_Node000013"><a xlink:href="structmrb__irep__debug__info__file.html" target="_top" xlink:title=" ">
<polygon fill="white" stroke="#bfbfbf" points="125.12,-544 1.12,-544 1.12,-524 125.12,-524 125.12,-544"/>
<text xml:space="preserve" text-anchor="middle" x="63.12" y="-530.5" font-family="Helvetica,sans-Serif" font-size="10.00">mrb_irep_debug_info_file</text>
</a>
</g>
</g>
<!-- Node13&#45;&gt;Node12 -->
<g id="edge13_Node000012_Node000013" class="edge">
<title>Node13&#45;&gt;Node12</title>
<g id="a_edge13_Node000012_Node000013"><a xlink:title=" ">
<path fill="none" stroke="#9a32cd" stroke-dasharray="5,2" d="M63.12,-512.18C63.12,-498.29 63.12,-480.71 63.12,-470.19"/>
<polygon fill="#9a32cd" stroke="#9a32cd" points="59.63,-512.07 63.13,-522.07 66.63,-512.07 59.63,-512.07"/>
</a>
</g>
<text xml:space="preserve" text-anchor="start" x="66.12" y="-493.5" font-family="Helvetica,sans-Serif" font-size="10.00" fill="grey">files</text>
</g>
<!-- Node14 -->
<g id="Node000014" class="node">
<title>Node14</title>
<g id="a_Node000014"><a xlink:href="structmrb__irep__debug__info__line.html" target="_top" xlink:title=" ">
<polygon fill="white" stroke="#bfbfbf" points="126.25,-618 0,-618 0,-598 126.25,-598 126.25,-618"/>
<text xml:space="preserve" text-anchor="middle" x="63.12" y="-604.5" font-family="Helvetica,sans-Serif" font-size="10.00">mrb_irep_debug_info_line</text>
</a>
</g>
</g>
<!-- Node14&#45;&gt;Node13 -->
<g id="edge14_Node000013_Node000014" class="edge">
<title>Node14&#45;&gt;Node13</title>
<g id="a_edge14_Node000013_Node000014"><a xlink:title=" ">
<path fill="none" stroke="#9a32cd" stroke-dasharray="5,2" d="M63.12,-586.18C63.12,-572.29 63.12,-554.71 63.12,-544.19"/>
<polygon fill="#9a32cd" stroke="#9a32cd" points="59.63,-586.07 63.13,-596.07 66.63,-586.07 59.63,-586.07"/>
</a>
</g>
<text xml:space="preserve" text-anchor="start" x="66.12" y="-567.5" font-family="Helvetica,sans-Serif" font-size="10.00" fill="grey">flat_map</text>
</g>
<!-- Node15&#45;&gt;Node8 -->
<g id="edge18_Node000008_Node000015" class="edge">
<title>Node15&#45;&gt;Node8</title>
<g id="a_edge18_Node000008_Node000015"><a xlink:title=" ">
<path fill="none" stroke="#9a32cd" stroke-dasharray="5,2" d="M576.03,-12.38C521.08,-15.94 406.79,-28.66 323.12,-74 268.59,-103.55 258.98,-138.11 263.12,-200 264.83,-225.47 270.28,-255.14 273.22,-269.81"/>
<polygon fill="#9a32cd" stroke="#9a32cd" points="576.15,-15.88 585.93,-11.8 575.75,-8.89 576.15,-15.88"/>
</a>
</g>
<text xml:space="preserve" text-anchor="start" x="280.8" y="-133.5" font-family="Helvetica,sans-Serif" font-size="10.00" fill="grey">env</text>
</g>
<!-- Node15&#45;&gt;Node17 -->
<g id="edge26_Node000017_Node000015" class="edge">
<title>Node15&#45;&gt;Node17</title>
<g id="a_edge26_Node000017_Node000015"><a xlink:title=" ">
<path fill="none" stroke="#9a32cd" stroke-dasharray="5,2" d="M603.44,-31.34C594.55,-69.96 575.53,-152.5 569.21,-179.93"/>
<polygon fill="#9a32cd" stroke="#9a32cd" points="606.82,-32.27 605.65,-21.74 600,-30.7 606.82,-32.27"/>
</a>
</g>
<text xml:space="preserve" text-anchor="start" x="596.03" y="-80.5" font-family="Helvetica,sans-Serif" font-size="10.00" fill="grey">env</text>
</g>
<!-- Node16&#45;&gt;Node15 -->
<g id="edge20_Node000015_Node000016" class="edge">
<title>Node16&#45;&gt;Node15</title>
<g id="a_edge20_Node000015_Node000016"><a xlink:title=" ">
<path fill="none" stroke="#9a32cd" stroke-dasharray="5,2" d="M693.36,-65.85C683.67,-56.96 671.22,-46.28 659.12,-38 649.37,-31.32 637.77,-25.07 628.1,-20.26"/>
<polygon fill="#9a32cd" stroke="#9a32cd" points="690.91,-68.34 700.59,-72.64 695.7,-63.24 690.91,-68.34"/>
</a>
</g>
<text xml:space="preserve" text-anchor="start" x="684.48" y="-43.5" font-family="Helvetica,sans-Serif" font-size="10.00" fill="grey">cxt</text>
</g>
<!-- Node16&#45;&gt;Node16 -->
<g id="edge21_Node000016_Node000016" class="edge">
<title>Node16&#45;&gt;Node16</title>
<g id="a_edge21_Node000016_Node000016"><a xlink:title=" ">
<path fill="none" stroke="#9a32cd" stroke-dasharray="5,2" d="M757.4,-89.48C761.53,-88.33 764.12,-86.51 764.12,-84 764.12,-79.66 756.36,-77.36 746.29,-77.09"/>
<polygon fill="#9a32cd" stroke="#9a32cd" points="757.27,-85.97 747.79,-90.72 758.16,-92.91 757.27,-85.97"/>
</a>
</g>
<text xml:space="preserve" text-anchor="start" x="767.12" y="-80.5" font-family="Helvetica,sans-Serif" font-size="10.00" fill="grey">prev</text>
</g>
<!-- Node18 -->
<g id="Node000018" class="node">
<title>Node18</title>
<g id="a_Node000018"><a xlink:href="structRFiber.html" target="_top" xlink:title=" ">
<polygon fill="white" stroke="#bfbfbf" points="767.75,-20 722.5,-20 722.5,0 767.75,0 767.75,-20"/>
<text xml:space="preserve" text-anchor="middle" x="745.12" y="-6.5" font-family="Helvetica,sans-Serif" font-size="10.00">RFiber</text>
</a>
</g>
</g>
<!-- Node16&#45;&gt;Node18 -->
<g id="edge29_Node000018_Node000016" class="edge">
<title>Node16&#45;&gt;Node18</title>
<g id="a_edge29_Node000018_Node000016"><a xlink:title=" ">
<path fill="none" stroke="#9a32cd" stroke-dasharray="5,2" d="M713.77,-62.33C715.33,-54.42 717.79,-45.5 721.62,-38 725.02,-31.36 730.4,-25.01 735.15,-20.14"/>
<polygon fill="#9a32cd" stroke="#9a32cd" points="710.33,-61.66 712.22,-72.09 717.25,-62.76 710.33,-61.66"/>
</a>
</g>
<text xml:space="preserve" text-anchor="start" x="724.62" y="-43.5" font-family="Helvetica,sans-Serif" font-size="10.00" fill="grey">cxt</text>
</g>
<!-- Node17&#45;&gt;Node16 -->
<g id="edge23_Node000016_Node000017" class="edge">
<title>Node17&#45;&gt;Node16</title>
<g id="a_edge23_Node000016_Node000017"><a xlink:title=" ">
<path fill="none" stroke="#9a32cd" stroke-dasharray="5,2" d="M585.76,-171.77C604.04,-155.34 633.1,-130.43 660.62,-112 670.37,-105.47 681.86,-99.23 691.42,-94.39"/>
<polygon fill="#9a32cd" stroke="#9a32cd" points="583.41,-169.17 578.37,-178.49 588.12,-174.35 583.41,-169.17"/>
</a>
</g>
<text xml:space="preserve" text-anchor="start" x="663.62" y="-149.5" font-family="Helvetica,sans-Serif" font-size="10.00" fill="grey">ci</text>
<text xml:space="preserve" text-anchor="start" x="663.62" y="-133.5" font-family="Helvetica,sans-Serif" font-size="10.00" fill="grey">cibase</text>
<text xml:space="preserve" text-anchor="start" x="663.62" y="-117.5" font-family="Helvetica,sans-Serif" font-size="10.00" fill="grey">ciend</text>
</g>
<!-- Node18&#45;&gt;Node16 -->
<g id="edge28_Node000016_Node000018" class="edge">
<title>Node18&#45;&gt;Node16</title>
<g id="a_edge28_Node000016_Node000018"><a xlink:title=" ">
<path fill="none" stroke="#9a32cd" stroke-dasharray="5,2" d="M748.85,-31.79C749.33,-39.72 748.69,-48.61 745.12,-56 741.59,-63.33 734.98,-69.28 728.53,-73.71"/>
<polygon fill="#9a32cd" stroke="#9a32cd" points="752.34,-31.47 747.61,-21.99 745.39,-32.35 752.34,-31.47"/>
</a>
</g>
<text xml:space="preserve" text-anchor="start" x="751.96" y="-43.5" font-family="Helvetica,sans-Serif" font-size="10.00" fill="grey">fib</text>
</g>
</g>
</svg>
