<?xml version="1.0" encoding="UTF-8" standalone="no"?>
<!DOCTYPE svg PUBLIC "-//W3C//DTD SVG 1.1//EN"
 "http://www.w3.org/Graphics/SVG/1.1/DTD/svg11.dtd">
<!-- Generated by graphviz version 14.0.5 (0)
 -->
<!-- Title: http2_stream_data Pages: 1 -->
<svg width="148pt" height="116pt"
 viewBox="0.00 0.00 148.00 116.00" xmlns="http://www.w3.org/2000/svg" xmlns:xlink="http://www.w3.org/1999/xlink">
<g id="graph0" class="graph" transform="scale(1 1) rotate(0) translate(4 112)">
<title>http2_stream_data</title>
<!-- Node1 -->
<g id="Node000001" class="node">
<title>Node1</title>
<g id="a_Node000001"><a xlink:title=" ">
<polygon fill="#999999" stroke="#666666" points="97,-27 0,-27 0,-7 97,-7 97,-27"/>
<text xml:space="preserve" text-anchor="middle" x="48.5" y="-13.5" font-family="Helvetica,sans-Serif" font-size="10.00">http2_stream_data</text>
</a>
</g>
</g>
<!-- Node1&#45;&gt;Node1 -->
<g id="edge2_Node000001_Node000001" class="edge">
<title>Node1&#45;&gt;Node1</title>
<g id="a_edge2_Node000001_Node000001"><a xlink:title=" ">
<path fill="none" stroke="#9a32cd" stroke-dasharray="5,2" d="M108.41,-22.97C112.51,-21.6 115,-19.61 115,-17 115,-12.49 107.54,-9.83 97.21,-9.02"/>
<polygon fill="#9a32cd" stroke="#9a32cd" points="107.93,-19.5 98.7,-24.72 109.17,-26.39 107.93,-19.5"/>
</a>
</g>
<text xml:space="preserve" text-anchor="start" x="118" y="-21.5" font-family="Helvetica,sans-Serif" font-size="10.00" fill="grey">next</text>
<text xml:space="preserve" text-anchor="start" x="118" y="-5.5" font-family="Helvetica,sans-Serif" font-size="10.00" fill="grey">prev</text>
</g>
<!-- Node2 -->
<g id="Node000002" class="node">
<title>Node2</title>
<g id="a_Node000002"><a xlink:href="structurlparse__url.html" target="_top" xlink:title=" ">
<polygon fill="white" stroke="#666666" points="81.62,-108 15.38,-108 15.38,-88 81.62,-88 81.62,-108"/>
<text xml:space="preserve" text-anchor="middle" x="48.5" y="-94.5" font-family="Helvetica,sans-Serif" font-size="10.00">urlparse_url</text>
</a>
</g>
</g>
<!-- Node2&#45;&gt;Node1 -->
<g id="edge1_Node000001_Node000002" class="edge">
<title>Node2&#45;&gt;Node1</title>
<g id="a_edge1_Node000001_Node000002"><a xlink:title=" ">
<path fill="none" stroke="#9a32cd" stroke-dasharray="5,2" d="M48.5,-76.32C48.5,-60.48 48.5,-39.35 48.5,-27.36"/>
<polygon fill="#9a32cd" stroke="#9a32cd" points="45,-76.11 48.5,-86.11 52,-76.11 45,-76.11"/>
</a>
</g>
<text xml:space="preserve" text-anchor="start" x="51.5" y="-57.5" font-family="Helvetica,sans-Serif" font-size="10.00" fill="grey">u</text>
</g>
</g>
</svg>
