<?xml version="1.0" encoding="UTF-8" standalone="no"?>
<!DOCTYPE svg PUBLIC "-//W3C//DTD SVG 1.1//EN"
 "http://www.w3.org/Graphics/SVG/1.1/DTD/svg11.dtd">
<!-- Generated by graphviz version 14.0.5 (0)
 -->
<!-- Title: mrb_kwargs Pages: 1 -->
<svg width="158pt" height="192pt"
 viewBox="0.00 0.00 158.00 192.00" xmlns="http://www.w3.org/2000/svg" xmlns:xlink="http://www.w3.org/1999/xlink">
<g id="graph0" class="graph" transform="scale(1 1) rotate(0) translate(4 188)">
<title>mrb_kwargs</title>
<!-- Node1 -->
<g id="Node000001" class="node">
<title>Node1</title>
<g id="a_Node000001"><a xlink:title=" ">
<polygon fill="#999999" stroke="#666666" points="87.88,-20 18.62,-20 18.62,0 87.88,0 87.88,-20"/>
<text xml:space="preserve" text-anchor="middle" x="53.25" y="-6.5" font-family="Helvetica,sans-Serif" font-size="10.00">mrb_kwargs</text>
</a>
</g>
</g>
<!-- Node2 -->
<g id="Node000002" class="node">
<title>Node2</title>
<g id="a_Node000002"><a xlink:href="classmrb__sym.html" target="_top" xlink:title=" ">
<polygon fill="white" stroke="#666666" points="56.5,-110 0,-110 0,-90 56.5,-90 56.5,-110"/>
<text xml:space="preserve" text-anchor="middle" x="28.25" y="-96.5" font-family="Helvetica,sans-Serif" font-size="10.00">mrb_sym</text>
</a>
</g>
</g>
<!-- Node2&#45;&gt;Node1 -->
<g id="edge1_Node000001_Node000002" class="edge">
<title>Node2&#45;&gt;Node1</title>
<g id="a_edge1_Node000001_Node000002"><a xlink:title=" ">
<path fill="none" stroke="#9a32cd" stroke-dasharray="5,2" d="M32.04,-78.76C34.49,-66.78 38.02,-51.38 42.25,-38 44.14,-32.02 46.78,-25.49 49,-20.36"/>
<polygon fill="#9a32cd" stroke="#9a32cd" points="28.66,-77.81 30.18,-88.3 35.53,-79.15 28.66,-77.81"/>
</a>
</g>
<text xml:space="preserve" text-anchor="start" x="45.25" y="-51.5" font-family="Helvetica,sans-Serif" font-size="10.00" fill="grey">table</text>
</g>
<!-- Node3 -->
<g id="Node000003" class="node">
<title>Node3</title>
<g id="a_Node000003"><a xlink:href="structmrb__value.html" target="_top" xlink:title=" ">
<polygon fill="white" stroke="#bfbfbf" points="135.75,-110 74.75,-110 74.75,-90 135.75,-90 135.75,-110"/>
<text xml:space="preserve" text-anchor="middle" x="105.25" y="-96.5" font-family="Helvetica,sans-Serif" font-size="10.00">mrb_value</text>
</a>
</g>
</g>
<!-- Node3&#45;&gt;Node1 -->
<g id="edge2_Node000001_Node000003" class="edge">
<title>Node3&#45;&gt;Node1</title>
<g id="a_edge2_Node000001_Node000003"><a xlink:title=" ">
<path fill="none" stroke="#9a32cd" stroke-dasharray="5,2" d="M94.1,-80.1C87,-68.04 77.59,-52.1 69.25,-38 65.81,-32.18 61.95,-25.67 58.88,-20.49"/>
<polygon fill="#9a32cd" stroke="#9a32cd" points="91.02,-81.76 99.12,-88.6 97.05,-78.21 91.02,-81.76"/>
</a>
</g>
<text xml:space="preserve" text-anchor="start" x="91.84" y="-59.5" font-family="Helvetica,sans-Serif" font-size="10.00" fill="grey">rest</text>
<text xml:space="preserve" text-anchor="start" x="91.84" y="-43.5" font-family="Helvetica,sans-Serif" font-size="10.00" fill="grey">values</text>
</g>
<!-- Node4 -->
<g id="Node000004" class="node">
<title>Node4</title>
<g id="a_Node000004"><a xlink:href="unionmrb__value__union.html" target="_top" xlink:title=" ">
<polygon fill="white" stroke="#bfbfbf" points="150,-184 60.5,-184 60.5,-164 150,-164 150,-184"/>
<text xml:space="preserve" text-anchor="middle" x="105.25" y="-170.5" font-family="Helvetica,sans-Serif" font-size="10.00">mrb_value_union</text>
</a>
</g>
</g>
<!-- Node4&#45;&gt;Node3 -->
<g id="edge3_Node000003_Node000004" class="edge">
<title>Node4&#45;&gt;Node3</title>
<g id="a_edge3_Node000003_Node000004"><a xlink:title=" ">
<path fill="none" stroke="#9a32cd" stroke-dasharray="5,2" d="M105.25,-152.18C105.25,-138.29 105.25,-120.71 105.25,-110.19"/>
<polygon fill="#9a32cd" stroke="#9a32cd" points="101.75,-152.07 105.25,-162.07 108.75,-152.07 101.75,-152.07"/>
</a>
</g>
<text xml:space="preserve" text-anchor="start" x="108.25" y="-133.5" font-family="Helvetica,sans-Serif" font-size="10.00" fill="grey">value</text>
</g>
</g>
</svg>
