<?xml version="1.0" encoding="UTF-8" standalone="no"?>
<!DOCTYPE svg PUBLIC "-//W3C//DTD SVG 1.1//EN"
 "http://www.w3.org/Graphics/SVG/1.1/DTD/svg11.dtd">
<!-- Generated by graphviz version 14.0.5 (0)
 -->
<!-- Title: shrpx::StreamData Pages: 1 -->
<svg width="283pt" height="275pt"
 viewBox="0.00 0.00 283.00 275.00" xmlns="http://www.w3.org/2000/svg" xmlns:xlink="http://www.w3.org/1999/xlink">
<g id="graph0" class="graph" transform="scale(1 1) rotate(0) translate(4 271)">
<title>shrpx::StreamData</title>
<!-- Node1 -->
<g id="Node000001" class="node">
<title>Node1</title>
<g id="a_Node000001"><a xlink:title=" ">
<polygon fill="#999999" stroke="#666666" points="154.88,-27 56.38,-27 56.38,-7 154.88,-7 154.88,-27"/>
<text xml:space="preserve" text-anchor="middle" x="105.62" y="-13.5" font-family="Helvetica,sans-Serif" font-size="10.00">shrpx::StreamData</text>
</a>
</g>
</g>
<!-- Node1&#45;&gt;Node1 -->
<g id="edge1_Node000001_Node000001" class="edge">
<title>Node1&#45;&gt;Node1</title>
<g id="a_edge1_Node000001_Node000001"><a xlink:title=" ">
<path fill="none" stroke="#9a32cd" stroke-dasharray="5,2" d="M166.33,-22.93C170.4,-21.56 172.88,-19.58 172.88,-17 172.88,-12.53 165.48,-9.88 155.19,-9.04"/>
<polygon fill="#9a32cd" stroke="#9a32cd" points="165.89,-19.45 156.68,-24.69 167.14,-26.34 165.89,-19.45"/>
</a>
</g>
<text xml:space="preserve" text-anchor="start" x="175.88" y="-21.5" font-family="Helvetica,sans-Serif" font-size="10.00" fill="grey">dlnext</text>
<text xml:space="preserve" text-anchor="start" x="175.88" y="-5.5" font-family="Helvetica,sans-Serif" font-size="10.00" fill="grey">dlprev</text>
</g>
<!-- Node2 -->
<g id="Node000002" class="node">
<title>Node2</title>
<g id="a_Node000002"><a xlink:href="classshrpx_1_1Http2DownstreamConnection.html" target="_top" xlink:title=" ">
<polygon fill="white" stroke="#bfbfbf" points="193.12,-115 18.12,-115 18.12,-95 193.12,-95 193.12,-115"/>
<text xml:space="preserve" text-anchor="middle" x="105.62" y="-101.5" font-family="Helvetica,sans-Serif" font-size="10.00">shrpx::Http2DownstreamConnection</text>
</a>
</g>
</g>
<!-- Node2&#45;&gt;Node1 -->
<g id="edge2_Node000001_Node000002" class="edge">
<title>Node2&#45;&gt;Node1</title>
<g id="a_edge2_Node000001_Node000002"><a xlink:title=" ">
<path fill="none" stroke="#9a32cd" stroke-dasharray="5,2" d="M105.62,-83.37C105.62,-65.6 105.62,-40.76 105.62,-27.4"/>
<polygon fill="#9a32cd" stroke="#9a32cd" points="102.13,-83.28 105.63,-93.28 109.13,-83.28 102.13,-83.28"/>
</a>
</g>
<text xml:space="preserve" text-anchor="start" x="108.62" y="-57.5" font-family="Helvetica,sans-Serif" font-size="10.00" fill="grey">dconn</text>
</g>
<!-- Node2&#45;&gt;Node2 -->
<g id="edge7_Node000002_Node000002" class="edge">
<title>Node2&#45;&gt;Node2</title>
<g id="a_edge7_Node000002_Node000002"><a xlink:title=" ">
<path fill="none" stroke="#9a32cd" stroke-dasharray="5,2" d="M204.71,-108.98C208.77,-107.95 211.12,-106.62 211.12,-105 211.12,-102.19 204.08,-100.27 193.34,-99.24"/>
<polygon fill="#9a32cd" stroke="#9a32cd" points="204.18,-105.52 194.84,-110.52 205.26,-112.44 204.18,-105.52"/>
</a>
</g>
<text xml:space="preserve" text-anchor="start" x="214.12" y="-109.5" font-family="Helvetica,sans-Serif" font-size="10.00" fill="grey">dlnext</text>
<text xml:space="preserve" text-anchor="start" x="214.12" y="-93.5" font-family="Helvetica,sans-Serif" font-size="10.00" fill="grey">dlprev</text>
</g>
<!-- Node3 -->
<g id="Node000003" class="node">
<title>Node3</title>
<g id="a_Node000003"><a xlink:href="classshrpx_1_1DownstreamConnection.html" target="_top" xlink:title=" ">
<polygon fill="white" stroke="#bfbfbf" points="181.12,-179 30.12,-179 30.12,-159 181.12,-159 181.12,-179"/>
<text xml:space="preserve" text-anchor="middle" x="105.62" y="-165.5" font-family="Helvetica,sans-Serif" font-size="10.00">shrpx::DownstreamConnection</text>
</a>
</g>
</g>
<!-- Node3&#45;&gt;Node2 -->
<g id="edge3_Node000002_Node000003" class="edge">
<title>Node3&#45;&gt;Node2</title>
<g id="a_edge3_Node000002_Node000003"><a xlink:title=" ">
<path fill="none" stroke="#63b8ff" d="M105.62,-147.4C105.62,-136.46 105.62,-123.56 105.62,-115.1"/>
<polygon fill="#63b8ff" stroke="#63b8ff" points="102.13,-147.07 105.63,-157.07 109.13,-147.07 102.13,-147.07"/>
</a>
</g>
</g>
<!-- Node4 -->
<g id="Node000004" class="node">
<title>Node4</title>
<g id="a_Node000004"><a xlink:href="classshrpx_1_1ClientHandler.html" target="_top" xlink:title=" ">
<polygon fill="white" stroke="#bfbfbf" points="105.25,-260 0,-260 0,-240 105.25,-240 105.25,-260"/>
<text xml:space="preserve" text-anchor="middle" x="52.62" y="-246.5" font-family="Helvetica,sans-Serif" font-size="10.00">shrpx::ClientHandler</text>
</a>
</g>
</g>
<!-- Node4&#45;&gt;Node3 -->
<g id="edge4_Node000003_Node000004" class="edge">
<title>Node4&#45;&gt;Node3</title>
<g id="a_edge4_Node000003_Node000004"><a xlink:title=" ">
<path fill="none" stroke="#9a32cd" stroke-dasharray="5,2" d="M54.64,-228.54C56.45,-218.33 59.88,-206.23 66.38,-197 71.52,-189.7 79.31,-183.75 86.59,-179.31"/>
<polygon fill="#9a32cd" stroke="#9a32cd" points="51.2,-227.86 53.34,-238.23 58.14,-228.79 51.2,-227.86"/>
</a>
</g>
<text xml:space="preserve" text-anchor="start" x="69.38" y="-202.5" font-family="Helvetica,sans-Serif" font-size="10.00" fill="grey">client_handler_</text>
</g>
<!-- Node5 -->
<g id="Node000005" class="node">
<title>Node5</title>
<g id="a_Node000005"><a xlink:href="classshrpx_1_1Downstream.html" target="_top" xlink:title=" ">
<polygon fill="white" stroke="#bfbfbf" points="224.38,-260 122.88,-260 122.88,-240 224.38,-240 224.38,-260"/>
<text xml:space="preserve" text-anchor="middle" x="173.62" y="-246.5" font-family="Helvetica,sans-Serif" font-size="10.00">shrpx::Downstream</text>
</a>
</g>
</g>
<!-- Node5&#45;&gt;Node3 -->
<g id="edge5_Node000003_Node000005" class="edge">
<title>Node5&#45;&gt;Node3</title>
<g id="a_edge5_Node000003_Node000005"><a xlink:title=" ">
<path fill="none" stroke="#9a32cd" stroke-dasharray="5,2" d="M162.2,-229.99C155.61,-219.73 146.83,-207.13 137.62,-197 131.76,-190.55 124.36,-184.21 118.16,-179.3"/>
<polygon fill="#9a32cd" stroke="#9a32cd" points="159.14,-231.7 167.39,-238.34 165.08,-228 159.14,-231.7"/>
</a>
</g>
<text xml:space="preserve" text-anchor="start" x="154.74" y="-202.5" font-family="Helvetica,sans-Serif" font-size="10.00" fill="grey">downstream_</text>
</g>
<!-- Node5&#45;&gt;Node5 -->
<g id="edge6_Node000005_Node000005" class="edge">
<title>Node5&#45;&gt;Node5</title>
<g id="a_edge6_Node000005_Node000005"><a xlink:title=" ">
<path fill="none" stroke="#9a32cd" stroke-dasharray="5,2" d="M235.8,-255.89C239.9,-254.52 242.38,-252.56 242.38,-250 242.38,-245.57 234.96,-242.93 224.59,-242.06"/>
<polygon fill="#9a32cd" stroke="#9a32cd" points="235.29,-252.43 226.08,-257.66 236.55,-259.31 235.29,-252.43"/>
</a>
</g>
<text xml:space="preserve" text-anchor="start" x="245.38" y="-254.5" font-family="Helvetica,sans-Serif" font-size="10.00" fill="grey">dlnext</text>
<text xml:space="preserve" text-anchor="start" x="245.38" y="-238.5" font-family="Helvetica,sans-Serif" font-size="10.00" fill="grey">dlprev</text>
</g>
</g>
</svg>
