<?xml version="1.0" encoding="UTF-8" standalone="no"?>
<!DOCTYPE svg PUBLIC "-//W3C//DTD SVG 1.1//EN"
 "http://www.w3.org/Graphics/SVG/1.1/DTD/svg11.dtd">
<!-- Generated by graphviz version 14.0.5 (0)
 -->
<!-- Title: shrpx::HttpProxy Pages: 1 -->
<svg width="228pt" height="192pt"
 viewBox="0.00 0.00 228.00 192.00" xmlns="http://www.w3.org/2000/svg" xmlns:xlink="http://www.w3.org/1999/xlink">
<g id="graph0" class="graph" transform="scale(1 1) rotate(0) translate(4 188)">
<title>shrpx::HttpProxy</title>
<!-- Node1 -->
<g id="Node000001" class="node">
<title>Node1</title>
<g id="a_Node000001"><a xlink:title=" ">
<polygon fill="#999999" stroke="#666666" points="162.38,-20 72.12,-20 72.12,0 162.38,0 162.38,-20"/>
<text xml:space="preserve" text-anchor="middle" x="117.25" y="-6.5" font-family="Helvetica,sans-Serif" font-size="10.00">shrpx::HttpProxy</text>
</a>
</g>
</g>
<!-- Node2 -->
<g id="Node000002" class="node">
<title>Node2</title>
<g id="a_Node000002"><a xlink:href="structnghttp2_1_1Address.html" target="_top" xlink:title=" ">
<polygon fill="white" stroke="#bfbfbf" points="106.38,-110 16.12,-110 16.12,-90 106.38,-90 106.38,-110"/>
<text xml:space="preserve" text-anchor="middle" x="61.25" y="-96.5" font-family="Helvetica,sans-Serif" font-size="10.00">nghttp2::Address</text>
</a>
</g>
</g>
<!-- Node2&#45;&gt;Node1 -->
<g id="edge1_Node000001_Node000002" class="edge">
<title>Node2&#45;&gt;Node1</title>
<g id="a_edge1_Node000001_Node000002"><a xlink:title=" ">
<path fill="none" stroke="#9a32cd" stroke-dasharray="5,2" d="M73.39,-79.92C85.1,-61.53 102.32,-34.47 111.3,-20.35"/>
<polygon fill="#9a32cd" stroke="#9a32cd" points="70.47,-77.99 68.06,-88.31 76.38,-81.75 70.47,-77.99"/>
</a>
</g>
<text xml:space="preserve" text-anchor="start" x="102.14" y="-51.5" font-family="Helvetica,sans-Serif" font-size="10.00" fill="grey">addr</text>
</g>
<!-- Node3 -->
<g id="Node000003" class="node">
<title>Node3</title>
<g id="a_Node000003"><a xlink:href="unionnghttp2_1_1sockaddr__union.html" target="_top" xlink:title=" ">
<polygon fill="white" stroke="#bfbfbf" points="122.5,-184 0,-184 0,-164 122.5,-164 122.5,-184"/>
<text xml:space="preserve" text-anchor="middle" x="61.25" y="-170.5" font-family="Helvetica,sans-Serif" font-size="10.00">nghttp2::sockaddr_union</text>
</a>
</g>
</g>
<!-- Node3&#45;&gt;Node2 -->
<g id="edge2_Node000002_Node000003" class="edge">
<title>Node3&#45;&gt;Node2</title>
<g id="a_edge2_Node000002_Node000003"><a xlink:title=" ">
<path fill="none" stroke="#9a32cd" stroke-dasharray="5,2" d="M61.25,-152.18C61.25,-138.29 61.25,-120.71 61.25,-110.19"/>
<polygon fill="#9a32cd" stroke="#9a32cd" points="57.75,-152.07 61.25,-162.07 64.75,-152.07 57.75,-152.07"/>
</a>
</g>
<text xml:space="preserve" text-anchor="start" x="64.25" y="-133.5" font-family="Helvetica,sans-Serif" font-size="10.00" fill="grey">su</text>
</g>
<!-- Node4 -->
<g id="Node000004" class="node">
<title>Node4</title>
<g id="a_Node000004"><a xlink:href="classnghttp2_1_1StringRef.html" target="_top" xlink:title=" ">
<polygon fill="white" stroke="#bfbfbf" points="220,-110 124.5,-110 124.5,-90 220,-90 220,-110"/>
<text xml:space="preserve" text-anchor="middle" x="172.25" y="-96.5" font-family="Helvetica,sans-Serif" font-size="10.00">nghttp2::StringRef</text>
</a>
</g>
</g>
<!-- Node4&#45;&gt;Node1 -->
<g id="edge3_Node000001_Node000004" class="edge">
<title>Node4&#45;&gt;Node1</title>
<g id="a_edge3_Node000001_Node000004"><a xlink:title=" ">
<path fill="none" stroke="#9a32cd" stroke-dasharray="5,2" d="M160.32,-79.92C148.83,-61.53 131.92,-34.47 123.09,-20.35"/>
<polygon fill="#9a32cd" stroke="#9a32cd" points="157.29,-81.67 165.56,-88.3 163.23,-77.96 157.29,-81.67"/>
</a>
</g>
<text xml:space="preserve" text-anchor="start" x="157.46" y="-59.5" font-family="Helvetica,sans-Serif" font-size="10.00" fill="grey">host</text>
<text xml:space="preserve" text-anchor="start" x="157.46" y="-43.5" font-family="Helvetica,sans-Serif" font-size="10.00" fill="grey">userinfo</text>
</g>
</g>
</svg>
