<?xml version="1.0" encoding="UTF-8" standalone="no"?>
<!DOCTYPE svg PUBLIC "-//W3C//DTD SVG 1.1//EN"
 "http://www.w3.org/Graphics/SVG/1.1/DTD/svg11.dtd">
<!-- Generated by graphviz version 14.0.5 (0)
 -->
<!-- Title: RObject Pages: 1 -->
<svg width="98pt" height="250pt"
 viewBox="0.00 0.00 98.00 250.00" xmlns="http://www.w3.org/2000/svg" xmlns:xlink="http://www.w3.org/1999/xlink">
<g id="graph0" class="graph" transform="scale(1 1) rotate(0) translate(4 246)">
<title>RObject</title>
<!-- Node1 -->
<g id="Node000001" class="node">
<title>Node1</title>
<g id="a_Node000001"><a xlink:title=" ">
<polygon fill="#999999" stroke="#666666" points="70.75,-20 18.75,-20 18.75,0 70.75,0 70.75,-20"/>
<text xml:space="preserve" text-anchor="middle" x="44.75" y="-6.5" font-family="Helvetica,sans-Serif" font-size="10.00">RObject</text>
</a>
</g>
</g>
<!-- Node2 -->
<g id="Node000002" class="node">
<title>Node2</title>
<g id="a_Node000002"><a xlink:href="structiv__tbl.html" target="_top" xlink:title=" ">
<polygon fill="white" stroke="#bfbfbf" points="64.38,-94 25.12,-94 25.12,-74 64.38,-74 64.38,-94"/>
<text xml:space="preserve" text-anchor="middle" x="44.75" y="-80.5" font-family="Helvetica,sans-Serif" font-size="10.00">iv_tbl</text>
</a>
</g>
</g>
<!-- Node2&#45;&gt;Node1 -->
<g id="edge1_Node000001_Node000002" class="edge">
<title>Node2&#45;&gt;Node1</title>
<g id="a_edge1_Node000001_Node000002"><a xlink:title=" ">
<path fill="none" stroke="#9a32cd" stroke-dasharray="5,2" d="M44.75,-62.18C44.75,-48.29 44.75,-30.71 44.75,-20.19"/>
<polygon fill="#9a32cd" stroke="#9a32cd" points="41.25,-62.07 44.75,-72.07 48.25,-62.07 41.25,-62.07"/>
</a>
</g>
<text xml:space="preserve" text-anchor="start" x="47.75" y="-43.5" font-family="Helvetica,sans-Serif" font-size="10.00" fill="grey">iv</text>
</g>
<!-- Node3 -->
<g id="Node000003" class="node">
<title>Node3</title>
<g id="a_Node000003"><a xlink:href="structmrb__value.html" target="_top" xlink:title=" ">
<polygon fill="white" stroke="#bfbfbf" points="75.25,-168 14.25,-168 14.25,-148 75.25,-148 75.25,-168"/>
<text xml:space="preserve" text-anchor="middle" x="44.75" y="-154.5" font-family="Helvetica,sans-Serif" font-size="10.00">mrb_value</text>
</a>
</g>
</g>
<!-- Node3&#45;&gt;Node2 -->
<g id="edge2_Node000002_Node000003" class="edge">
<title>Node3&#45;&gt;Node2</title>
<g id="a_edge2_Node000002_Node000003"><a xlink:title=" ">
<path fill="none" stroke="#9a32cd" stroke-dasharray="5,2" d="M44.75,-136.18C44.75,-122.29 44.75,-104.71 44.75,-94.19"/>
<polygon fill="#9a32cd" stroke="#9a32cd" points="41.25,-136.07 44.75,-146.07 48.25,-136.07 41.25,-136.07"/>
</a>
</g>
<text xml:space="preserve" text-anchor="start" x="47.75" y="-117.5" font-family="Helvetica,sans-Serif" font-size="10.00" fill="grey">ptr</text>
</g>
<!-- Node4 -->
<g id="Node000004" class="node">
<title>Node4</title>
<g id="a_Node000004"><a xlink:href="unionmrb__value__union.html" target="_top" xlink:title=" ">
<polygon fill="white" stroke="#bfbfbf" points="89.5,-242 0,-242 0,-222 89.5,-222 89.5,-242"/>
<text xml:space="preserve" text-anchor="middle" x="44.75" y="-228.5" font-family="Helvetica,sans-Serif" font-size="10.00">mrb_value_union</text>
</a>
</g>
</g>
<!-- Node4&#45;&gt;Node3 -->
<g id="edge3_Node000003_Node000004" class="edge">
<title>Node4&#45;&gt;Node3</title>
<g id="a_edge3_Node000003_Node000004"><a xlink:title=" ">
<path fill="none" stroke="#9a32cd" stroke-dasharray="5,2" d="M44.75,-210.18C44.75,-196.29 44.75,-178.71 44.75,-168.19"/>
<polygon fill="#9a32cd" stroke="#9a32cd" points="41.25,-210.07 44.75,-220.07 48.25,-210.07 41.25,-210.07"/>
</a>
</g>
<text xml:space="preserve" text-anchor="start" x="47.75" y="-191.5" font-family="Helvetica,sans-Serif" font-size="10.00" fill="grey">value</text>
</g>
</g>
</svg>
