<?xml version="1.0" encoding="UTF-8" standalone="no"?>
<!DOCTYPE svg PUBLIC "-//W3C//DTD SVG 1.1//EN"
 "http://www.w3.org/Graphics/SVG/1.1/DTD/svg11.dtd">
<!-- Generated by graphviz version 14.0.5 (0)
 -->
<!-- Title: nghttp2_hd_inflater Pages: 1 -->
<svg width="392pt" height="490pt"
 viewBox="0.00 0.00 392.00 490.00" xmlns="http://www.w3.org/2000/svg" xmlns:xlink="http://www.w3.org/1999/xlink">
<g id="graph0" class="graph" transform="scale(1 1) rotate(0) translate(4 486)">
<title>nghttp2_hd_inflater</title>
<!-- Node1 -->
<g id="Node000001" class="node">
<title>Node1</title>
<g id="a_Node000001"><a xlink:title=" ">
<polygon fill="#999999" stroke="#666666" points="254.88,-20 156.38,-20 156.38,0 254.88,0 254.88,-20"/>
<text xml:space="preserve" text-anchor="middle" x="205.62" y="-6.5" font-family="Helvetica,sans-Serif" font-size="10.00">nghttp2_hd_inflater</text>
</a>
</g>
</g>
<!-- Node2 -->
<g id="Node000002" class="node">
<title>Node2</title>
<g id="a_Node000002"><a xlink:href="structnghttp2__hd__context.html" target="_top" xlink:title=" ">
<polygon fill="white" stroke="#bfbfbf" points="159.38,-116 57.88,-116 57.88,-96 159.38,-96 159.38,-116"/>
<text xml:space="preserve" text-anchor="middle" x="108.62" y="-102.5" font-family="Helvetica,sans-Serif" font-size="10.00">nghttp2_hd_context</text>
</a>
</g>
</g>
<!-- Node2&#45;&gt;Node1 -->
<g id="edge1_Node000001_Node000002" class="edge">
<title>Node2&#45;&gt;Node1</title>
<g id="a_edge1_Node000001_Node000002"><a xlink:title=" ">
<path fill="none" stroke="#9a32cd" stroke-dasharray="5,2" d="M126.47,-87.7C146.97,-67.84 179.84,-35.99 196.01,-20.32"/>
<polygon fill="#9a32cd" stroke="#9a32cd" points="124.11,-85.12 119.37,-94.59 128.98,-90.14 124.11,-85.12"/>
</a>
</g>
<text xml:space="preserve" text-anchor="start" x="179.96" y="-51.5" font-family="Helvetica,sans-Serif" font-size="10.00" fill="grey">ctx</text>
</g>
<!-- Node3 -->
<g id="Node000003" class="node">
<title>Node3</title>
<g id="a_Node000003"><a xlink:href="structnghttp2__hd__ringbuf.html" target="_top" xlink:title=" ">
<polygon fill="white" stroke="#bfbfbf" points="157.88,-196 59.38,-196 59.38,-176 157.88,-176 157.88,-196"/>
<text xml:space="preserve" text-anchor="middle" x="108.62" y="-182.5" font-family="Helvetica,sans-Serif" font-size="10.00">nghttp2_hd_ringbuf</text>
</a>
</g>
</g>
<!-- Node3&#45;&gt;Node2 -->
<g id="edge2_Node000002_Node000003" class="edge">
<title>Node3&#45;&gt;Node2</title>
<g id="a_edge2_Node000002_Node000003"><a xlink:title=" ">
<path fill="none" stroke="#9a32cd" stroke-dasharray="5,2" d="M108.62,-164.59C108.62,-148.94 108.62,-128.08 108.62,-116.24"/>
<polygon fill="#9a32cd" stroke="#9a32cd" points="105.13,-164.23 108.63,-174.23 112.13,-164.23 105.13,-164.23"/>
</a>
</g>
<text xml:space="preserve" text-anchor="start" x="111.62" y="-145.5" font-family="Helvetica,sans-Serif" font-size="10.00" fill="grey">hd_table</text>
</g>
<!-- Node4 -->
<g id="Node000004" class="node">
<title>Node4</title>
<g id="a_Node000004"><a xlink:href="structnghttp2__hd__entry.html" target="_top" xlink:title=" ">
<polygon fill="white" stroke="#bfbfbf" points="162.12,-318 71.12,-318 71.12,-298 162.12,-298 162.12,-318"/>
<text xml:space="preserve" text-anchor="middle" x="116.62" y="-304.5" font-family="Helvetica,sans-Serif" font-size="10.00">nghttp2_hd_entry</text>
</a>
</g>
</g>
<!-- Node4&#45;&gt;Node3 -->
<g id="edge3_Node000003_Node000004" class="edge">
<title>Node4&#45;&gt;Node3</title>
<g id="a_edge3_Node000003_Node000004"><a xlink:title=" ">
<path fill="none" stroke="#9a32cd" stroke-dasharray="5,2" d="M115.24,-286.29C113.49,-259.96 110.53,-215.61 109.25,-196.37"/>
<polygon fill="#9a32cd" stroke="#9a32cd" points="111.74,-286.33 115.9,-296.07 118.72,-285.86 111.74,-286.33"/>
</a>
</g>
<text xml:space="preserve" text-anchor="start" x="117.69" y="-243.5" font-family="Helvetica,sans-Serif" font-size="10.00" fill="grey">buffer</text>
</g>
<!-- Node4&#45;&gt;Node4 -->
<g id="edge7_Node000004_Node000004" class="edge">
<title>Node4&#45;&gt;Node4</title>
<g id="a_edge7_Node000004_Node000004"><a xlink:title=" ">
<path fill="none" stroke="#9a32cd" stroke-dasharray="5,2" d="M173.93,-312.99C177.79,-311.84 180.12,-310.17 180.12,-308 180.12,-304.13 172.73,-301.88 162.58,-301.25"/>
<polygon fill="#9a32cd" stroke="#9a32cd" points="173.42,-309.53 164.07,-314.52 174.49,-316.45 173.42,-309.53"/>
</a>
</g>
<text xml:space="preserve" text-anchor="start" x="183.12" y="-304.5" font-family="Helvetica,sans-Serif" font-size="10.00" fill="grey">next</text>
</g>
<!-- Node5 -->
<g id="Node000005" class="node">
<title>Node5</title>
<g id="a_Node000005"><a xlink:href="structnghttp2__hd__nv.html" target="_top" xlink:title=" ">
<polygon fill="white" stroke="#bfbfbf" points="129.5,-392 49.75,-392 49.75,-372 129.5,-372 129.5,-392"/>
<text xml:space="preserve" text-anchor="middle" x="89.62" y="-378.5" font-family="Helvetica,sans-Serif" font-size="10.00">nghttp2_hd_nv</text>
</a>
</g>
</g>
<!-- Node5&#45;&gt;Node4 -->
<g id="edge4_Node000004_Node000005" class="edge">
<title>Node5&#45;&gt;Node4</title>
<g id="a_edge4_Node000004_Node000005"><a xlink:title=" ">
<path fill="none" stroke="#9a32cd" stroke-dasharray="5,2" d="M97.12,-361.02C102.37,-347.01 109.15,-328.93 113.18,-318.19"/>
<polygon fill="#9a32cd" stroke="#9a32cd" points="93.92,-359.58 93.69,-370.17 100.47,-362.04 93.92,-359.58"/>
</a>
</g>
<text xml:space="preserve" text-anchor="start" x="109.34" y="-341.5" font-family="Helvetica,sans-Serif" font-size="10.00" fill="grey">nv</text>
</g>
<!-- Node6 -->
<g id="Node000006" class="node">
<title>Node6</title>
<g id="a_Node000006"><a xlink:href="structnghttp2__rcbuf.html" target="_top" xlink:title=" ">
<polygon fill="white" stroke="#bfbfbf" points="75.25,-482 0,-482 0,-462 75.25,-462 75.25,-482"/>
<text xml:space="preserve" text-anchor="middle" x="37.62" y="-468.5" font-family="Helvetica,sans-Serif" font-size="10.00">nghttp2_rcbuf</text>
</a>
</g>
</g>
<!-- Node6&#45;&gt;Node1 -->
<g id="edge11_Node000001_Node000006" class="edge">
<title>Node6&#45;&gt;Node1</title>
<g id="a_edge11_Node000001_Node000006"><a xlink:title=" ">
<path fill="none" stroke="#9a32cd" stroke-dasharray="5,2" d="M31.78,-450.64C27.21,-432.92 21.62,-406.48 21.62,-383 21.62,-383 21.62,-383 21.62,-105 21.62,-44.38 101.81,-22.83 156.32,-15.19"/>
<polygon fill="#9a32cd" stroke="#9a32cd" points="28.36,-451.41 34.37,-460.14 35.11,-449.57 28.36,-451.41"/>
</a>
</g>
<text xml:space="preserve" text-anchor="start" x="24.62" y="-267.5" font-family="Helvetica,sans-Serif" font-size="10.00" fill="grey">namercbuf</text>
<text xml:space="preserve" text-anchor="start" x="24.62" y="-251.5" font-family="Helvetica,sans-Serif" font-size="10.00" fill="grey">nv_name_keep</text>
<text xml:space="preserve" text-anchor="start" x="24.62" y="-235.5" font-family="Helvetica,sans-Serif" font-size="10.00" fill="grey">nv_value_keep</text>
<text xml:space="preserve" text-anchor="start" x="24.62" y="-219.5" font-family="Helvetica,sans-Serif" font-size="10.00" fill="grey">valuercbuf</text>
</g>
<!-- Node6&#45;&gt;Node5 -->
<g id="edge5_Node000005_Node000006" class="edge">
<title>Node6&#45;&gt;Node5</title>
<g id="a_edge5_Node000005_Node000006"><a xlink:title=" ">
<path fill="none" stroke="#9a32cd" stroke-dasharray="5,2" d="M48.9,-451.92C59.77,-433.53 75.76,-406.47 84.1,-392.35"/>
<polygon fill="#9a32cd" stroke="#9a32cd" points="46.03,-449.89 43.96,-460.28 52.06,-453.45 46.03,-449.89"/>
</a>
</g>
<text xml:space="preserve" text-anchor="start" x="75.81" y="-431.5" font-family="Helvetica,sans-Serif" font-size="10.00" fill="grey">name</text>
<text xml:space="preserve" text-anchor="start" x="75.81" y="-415.5" font-family="Helvetica,sans-Serif" font-size="10.00" fill="grey">value</text>
</g>
<!-- Node7 -->
<g id="Node000007" class="node">
<title>Node7</title>
<g id="a_Node000007"><a xlink:href="structnghttp2__nv.html" target="_top" xlink:title=" ">
<polygon fill="white" stroke="#666666" points="211.62,-392 147.62,-392 147.62,-372 211.62,-372 211.62,-392"/>
<text xml:space="preserve" text-anchor="middle" x="179.62" y="-378.5" font-family="Helvetica,sans-Serif" font-size="10.00">nghttp2_nv</text>
</a>
</g>
</g>
<!-- Node7&#45;&gt;Node4 -->
<g id="edge6_Node000004_Node000007" class="edge">
<title>Node7&#45;&gt;Node4</title>
<g id="a_edge6_Node000004_Node000007"><a xlink:title=" ">
<path fill="none" stroke="#9a32cd" stroke-dasharray="5,2" d="M163.96,-363.09C151.48,-348.84 134.53,-329.46 124.66,-318.19"/>
<polygon fill="#9a32cd" stroke="#9a32cd" points="161.17,-365.23 170.39,-370.45 166.44,-360.62 161.17,-365.23"/>
</a>
</g>
<text xml:space="preserve" text-anchor="start" x="158.62" y="-341.5" font-family="Helvetica,sans-Serif" font-size="10.00" fill="grey">cnv</text>
</g>
<!-- Node8 -->
<g id="Node000008" class="node">
<title>Node8</title>
<g id="a_Node000008"><a xlink:href="structnghttp2__mem.html" target="_top" xlink:title=" ">
<polygon fill="white" stroke="#666666" points="251.25,-196 176,-196 176,-176 251.25,-176 251.25,-196"/>
<text xml:space="preserve" text-anchor="middle" x="213.62" y="-182.5" font-family="Helvetica,sans-Serif" font-size="10.00">nghttp2_mem</text>
</a>
</g>
</g>
<!-- Node8&#45;&gt;Node2 -->
<g id="edge8_Node000002_Node000008" class="edge">
<title>Node8&#45;&gt;Node2</title>
<g id="a_edge8_Node000002_Node000008"><a xlink:title=" ">
<path fill="none" stroke="#9a32cd" stroke-dasharray="5,2" d="M192.92,-168.55C181.94,-159.92 168.15,-149.25 155.62,-140 144.56,-131.83 131.76,-122.88 122.32,-116.36"/>
<polygon fill="#9a32cd" stroke="#9a32cd" points="190.55,-171.14 200.57,-174.59 194.89,-165.64 190.55,-171.14"/>
</a>
</g>
<text xml:space="preserve" text-anchor="start" x="181.15" y="-145.5" font-family="Helvetica,sans-Serif" font-size="10.00" fill="grey">mem</text>
</g>
<!-- Node9 -->
<g id="Node000009" class="node">
<title>Node9</title>
<g id="a_Node000009"><a xlink:href="structnghttp2__hd__huff__decode__context.html" target="_top" xlink:title=" ">
<polygon fill="white" stroke="#bfbfbf" points="299.5,-122 177.75,-122 177.75,-90 299.5,-90 299.5,-122"/>
<text xml:space="preserve" text-anchor="start" x="185.75" y="-108.5" font-family="Helvetica,sans-Serif" font-size="10.00">nghttp2_hd_huff_decode</text>
<text xml:space="preserve" text-anchor="middle" x="238.62" y="-96.5" font-family="Helvetica,sans-Serif" font-size="10.00">_context</text>
</a>
</g>
</g>
<!-- Node9&#45;&gt;Node1 -->
<g id="edge9_Node000001_Node000009" class="edge">
<title>Node9&#45;&gt;Node1</title>
<g id="a_edge9_Node000001_Node000009"><a xlink:title=" ">
<path fill="none" stroke="#9a32cd" stroke-dasharray="5,2" d="M229.58,-79.25C222.72,-59.7 213.68,-33.96 208.91,-20.35"/>
<polygon fill="#9a32cd" stroke="#9a32cd" points="226.21,-80.19 232.82,-88.47 232.81,-77.87 226.21,-80.19"/>
</a>
</g>
<text xml:space="preserve" text-anchor="start" x="230.01" y="-51.5" font-family="Helvetica,sans-Serif" font-size="10.00" fill="grey">huff_decode_ctx</text>
</g>
<!-- Node10 -->
<g id="Node000010" class="node">
<title>Node10</title>
<g id="a_Node000010"><a xlink:href="structnghttp2__buf.html" target="_top" xlink:title=" ">
<polygon fill="white" stroke="#bfbfbf" points="384.12,-116 317.12,-116 317.12,-96 384.12,-96 384.12,-116"/>
<text xml:space="preserve" text-anchor="middle" x="350.62" y="-102.5" font-family="Helvetica,sans-Serif" font-size="10.00">nghttp2_buf</text>
</a>
</g>
</g>
<!-- Node10&#45;&gt;Node1 -->
<g id="edge10_Node000001_Node000010" class="edge">
<title>Node10&#45;&gt;Node1</title>
<g id="a_edge10_Node000001_Node000010"><a xlink:title=" ">
<path fill="none" stroke="#9a32cd" stroke-dasharray="5,2" d="M343.06,-85.29C336.26,-70.16 324.85,-49.92 308.62,-38 293.21,-26.67 273.42,-20.09 255.32,-16.27"/>
<polygon fill="#9a32cd" stroke="#9a32cd" points="339.71,-86.34 346.78,-94.23 346.17,-83.66 339.71,-86.34"/>
</a>
</g>
<text xml:space="preserve" text-anchor="start" x="338.64" y="-59.5" font-family="Helvetica,sans-Serif" font-size="10.00" fill="grey">namebuf</text>
<text xml:space="preserve" text-anchor="start" x="338.64" y="-43.5" font-family="Helvetica,sans-Serif" font-size="10.00" fill="grey">valuebuf</text>
</g>
</g>
</svg>
