<?xml version="1.0" encoding="UTF-8" standalone="no"?>
<!DOCTYPE svg PUBLIC "-//W3C//DTD SVG 1.1//EN"
 "http://www.w3.org/Graphics/SVG/1.1/DTD/svg11.dtd">
<!-- Generated by graphviz version 14.0.5 (0)
 -->
<!-- Title: nghttp2_frame Pages: 1 -->
<svg width="511pt" height="620pt"
 viewBox="0.00 0.00 511.00 620.00" xmlns="http://www.w3.org/2000/svg" xmlns:xlink="http://www.w3.org/1999/xlink">
<g id="graph0" class="graph" transform="scale(1 1) rotate(0) translate(4 616.46)">
<title>nghttp2_frame</title>
<!-- Node1 -->
<g id="Node000001" class="node">
<title>Node1</title>
<g id="a_Node000001"><a xlink:title=" ">
<polygon fill="#999999" stroke="#666666" points="502.5,-266 424.25,-266 424.25,-246 502.5,-246 502.5,-266"/>
<text xml:space="preserve" text-anchor="middle" x="463.38" y="-252.5" font-family="Helvetica,sans-Serif" font-size="10.00">nghttp2_frame</text>
</a>
</g>
</g>
<!-- Node2 -->
<g id="Node000002" class="node">
<title>Node2</title>
<g id="a_Node000002"><a xlink:href="structnghttp2__frame__hd.html" target="_top" xlink:title=" ">
<polygon fill="white" stroke="#666666" points="104.5,-266 10.5,-266 10.5,-246 104.5,-246 104.5,-266"/>
<text xml:space="preserve" text-anchor="middle" x="57.5" y="-252.5" font-family="Helvetica,sans-Serif" font-size="10.00">nghttp2_frame_hd</text>
</a>
</g>
</g>
<!-- Node2&#45;&gt;Node1 -->
<g id="edge1_Node000001_Node000002" class="edge">
<title>Node2&#45;&gt;Node1</title>
<g id="a_edge1_Node000001_Node000002"><a xlink:title=" ">
<path fill="none" stroke="#9a32cd" stroke-dasharray="5,2" d="M79.91,-273.3C94.1,-283.77 113.61,-296.34 133,-303 158.66,-311.81 166.65,-307.67 193.75,-309 288.08,-313.65 318.53,-342.01 406.25,-307 427.28,-298.61 445.39,-278.47 455.01,-266.16"/>
<polygon fill="#9a32cd" stroke="#9a32cd" points="82.27,-270.7 72.2,-267.41 78.02,-276.26 82.27,-270.7"/>
</a>
</g>
<text xml:space="preserve" text-anchor="start" x="249" y="-329.4" font-family="Helvetica,sans-Serif" font-size="10.00" fill="grey">hd</text>
</g>
<!-- Node3 -->
<g id="Node000003" class="node">
<title>Node3</title>
<g id="a_Node000003"><a xlink:href="structnghttp2__data.html" target="_top" xlink:title=" ">
<polygon fill="white" stroke="#666666" points="290.38,-300 218.12,-300 218.12,-280 290.38,-280 290.38,-300"/>
<text xml:space="preserve" text-anchor="middle" x="254.25" y="-286.5" font-family="Helvetica,sans-Serif" font-size="10.00">nghttp2_data</text>
</a>
</g>
</g>
<!-- Node2&#45;&gt;Node3 -->
<g id="edge3_Node000003_Node000002" class="edge">
<title>Node2&#45;&gt;Node3</title>
<g id="a_edge3_Node000003_Node000002"><a xlink:title=" ">
<path fill="none" stroke="#9a32cd" stroke-dasharray="5,2" d="M106.93,-269.29C115.57,-271.39 124.52,-273.4 133,-275 161.32,-280.36 193.77,-284.28 217.81,-286.76"/>
<polygon fill="#9a32cd" stroke="#9a32cd" points="107.83,-265.91 97.28,-266.86 106.13,-272.69 107.83,-265.91"/>
</a>
</g>
<text xml:space="preserve" text-anchor="start" x="149.12" y="-286.84" font-family="Helvetica,sans-Serif" font-size="10.00" fill="grey">hd</text>
</g>
<!-- Node4 -->
<g id="Node000004" class="node">
<title>Node4</title>
<g id="a_Node000004"><a xlink:href="structnghttp2__headers.html" target="_top" xlink:title=" ">
<polygon fill="white" stroke="#666666" points="298.25,-463 210.25,-463 210.25,-443 298.25,-443 298.25,-463"/>
<text xml:space="preserve" text-anchor="middle" x="254.25" y="-449.5" font-family="Helvetica,sans-Serif" font-size="10.00">nghttp2_headers</text>
</a>
</g>
</g>
<!-- Node2&#45;&gt;Node4 -->
<g id="edge5_Node000004_Node000002" class="edge">
<title>Node2&#45;&gt;Node4</title>
<g id="a_edge5_Node000004_Node000002"><a xlink:title=" ">
<path fill="none" stroke="#9a32cd" stroke-dasharray="5,2" d="M66.16,-276.94C77.15,-304.36 99.77,-352.41 133,-382 148.53,-395.83 157.55,-390.95 175.75,-401 199.01,-413.85 224.27,-431.57 239.43,-442.66"/>
<polygon fill="#9a32cd" stroke="#9a32cd" points="69.45,-275.74 62.6,-267.66 62.92,-278.25 69.45,-275.74"/>
</a>
</g>
<text xml:space="preserve" text-anchor="start" x="149.12" y="-406.5" font-family="Helvetica,sans-Serif" font-size="10.00" fill="grey">hd</text>
</g>
<!-- Node7 -->
<g id="Node000007" class="node">
<title>Node7</title>
<g id="a_Node000007"><a xlink:href="structnghttp2__priority.html" target="_top" xlink:title=" ">
<polygon fill="white" stroke="#bfbfbf" points="295.62,-392 212.88,-392 212.88,-372 295.62,-372 295.62,-392"/>
<text xml:space="preserve" text-anchor="middle" x="254.25" y="-378.5" font-family="Helvetica,sans-Serif" font-size="10.00">nghttp2_priority</text>
</a>
</g>
</g>
<!-- Node2&#45;&gt;Node7 -->
<g id="edge9_Node000007_Node000002" class="edge">
<title>Node2&#45;&gt;Node7</title>
<g id="a_edge9_Node000007_Node000002"><a xlink:title=" ">
<path fill="none" stroke="#9a32cd" stroke-dasharray="5,2" d="M71.22,-275.76C84.51,-294.93 107.01,-323.61 133,-341 157.01,-357.07 187.94,-367.43 212.41,-373.72"/>
<polygon fill="#9a32cd" stroke="#9a32cd" points="74.31,-274.07 65.83,-267.72 68.5,-277.97 74.31,-274.07"/>
</a>
</g>
<text xml:space="preserve" text-anchor="start" x="149.12" y="-366.79" font-family="Helvetica,sans-Serif" font-size="10.00" fill="grey">hd</text>
</g>
<!-- Node8 -->
<g id="Node000008" class="node">
<title>Node8</title>
<g id="a_Node000008"><a xlink:href="structnghttp2__rst__stream.html" target="_top" xlink:title=" ">
<polygon fill="white" stroke="#666666" points="304.25,-143 204.25,-143 204.25,-123 304.25,-123 304.25,-143"/>
<text xml:space="preserve" text-anchor="middle" x="254.25" y="-129.5" font-family="Helvetica,sans-Serif" font-size="10.00">nghttp2_rst_stream</text>
</a>
</g>
</g>
<!-- Node2&#45;&gt;Node8 -->
<g id="edge12_Node000008_Node000002" class="edge">
<title>Node2&#45;&gt;Node8</title>
<g id="a_edge12_Node000008_Node000002"><a xlink:title=" ">
<path fill="none" stroke="#9a32cd" stroke-dasharray="5,2" d="M69.94,-235.97C82.72,-215.39 105.29,-183.9 133,-166 154.18,-152.31 180.99,-144.25 203.92,-139.53"/>
<polygon fill="#9a32cd" stroke="#9a32cd" points="67.08,-233.93 64.95,-244.31 73.09,-237.52 67.08,-233.93"/>
</a>
</g>
<text xml:space="preserve" text-anchor="start" x="149.12" y="-171.5" font-family="Helvetica,sans-Serif" font-size="10.00" fill="grey">hd</text>
</g>
<!-- Node9 -->
<g id="Node000009" class="node">
<title>Node9</title>
<g id="a_Node000009"><a xlink:href="structnghttp2__settings.html" target="_top" xlink:title=" ">
<polygon fill="white" stroke="#666666" points="298.25,-61 210.25,-61 210.25,-41 298.25,-41 298.25,-61"/>
<text xml:space="preserve" text-anchor="middle" x="254.25" y="-47.5" font-family="Helvetica,sans-Serif" font-size="10.00">nghttp2_settings</text>
</a>
</g>
</g>
<!-- Node2&#45;&gt;Node9 -->
<g id="edge14_Node000009_Node000002" class="edge">
<title>Node2&#45;&gt;Node9</title>
<g id="a_edge14_Node000009_Node000002"><a xlink:title=" ">
<path fill="none" stroke="#9a32cd" stroke-dasharray="5,2" d="M61.64,-234.28C68.13,-197.52 86.5,-123.14 133,-83 154.26,-64.65 184.94,-56.68 209.98,-53.29"/>
<polygon fill="#9a32cd" stroke="#9a32cd" points="58.19,-233.67 60.06,-244.1 65.11,-234.79 58.19,-233.67"/>
</a>
</g>
<text xml:space="preserve" text-anchor="start" x="149.12" y="-88.5" font-family="Helvetica,sans-Serif" font-size="10.00" fill="grey">hd</text>
</g>
<!-- Node11 -->
<g id="Node000011" class="node">
<title>Node11</title>
<g id="a_Node000011"><a xlink:href="structnghttp2__push__promise.html" target="_top" xlink:title=" ">
<polygon fill="white" stroke="#666666" points="311.38,-537 197.12,-537 197.12,-517 311.38,-517 311.38,-537"/>
<text xml:space="preserve" text-anchor="middle" x="254.25" y="-523.5" font-family="Helvetica,sans-Serif" font-size="10.00">nghttp2_push_promise</text>
</a>
</g>
</g>
<!-- Node2&#45;&gt;Node11 -->
<g id="edge17_Node000011_Node000002" class="edge">
<title>Node2&#45;&gt;Node11</title>
<g id="a_edge17_Node000011_Node000002"><a xlink:title=" ">
<path fill="none" stroke="#9a32cd" stroke-dasharray="5,2" d="M64.72,-277.16C81.21,-332.93 125.26,-480.24 133,-488 149.97,-505.02 174.42,-514.61 196.85,-520.02"/>
<polygon fill="#9a32cd" stroke="#9a32cd" points="68.18,-276.5 61.99,-267.9 61.47,-278.48 68.18,-276.5"/>
</a>
</g>
<text xml:space="preserve" text-anchor="start" x="149.12" y="-518.29" font-family="Helvetica,sans-Serif" font-size="10.00" fill="grey">hd</text>
</g>
<!-- Node12 -->
<g id="Node000012" class="node">
<title>Node12</title>
<g id="a_Node000012"><a xlink:href="structnghttp2__ping.html" target="_top" xlink:title=" ">
<polygon fill="white" stroke="#666666" points="290,-262 218.5,-262 218.5,-242 290,-242 290,-262"/>
<text xml:space="preserve" text-anchor="middle" x="254.25" y="-248.5" font-family="Helvetica,sans-Serif" font-size="10.00">nghttp2_ping</text>
</a>
</g>
</g>
<!-- Node2&#45;&gt;Node12 -->
<g id="edge20_Node000012_Node000002" class="edge">
<title>Node2&#45;&gt;Node12</title>
<g id="a_edge20_Node000012_Node000002"><a xlink:title=" ">
<path fill="none" stroke="#9a32cd" stroke-dasharray="5,2" d="M116.02,-254.82C149.14,-254.14 189.69,-253.31 218.09,-252.72"/>
<polygon fill="#9a32cd" stroke="#9a32cd" points="116.09,-251.32 106.17,-255.02 116.24,-258.31 116.09,-251.32"/>
</a>
</g>
<text xml:space="preserve" text-anchor="start" x="149.12" y="-259.86" font-family="Helvetica,sans-Serif" font-size="10.00" fill="grey">hd</text>
</g>
<!-- Node13 -->
<g id="Node000013" class="node">
<title>Node13</title>
<g id="a_Node000013"><a xlink:href="structnghttp2__goaway.html" target="_top" xlink:title=" ">
<polygon fill="white" stroke="#666666" points="297.88,-224 210.62,-224 210.62,-204 297.88,-204 297.88,-224"/>
<text xml:space="preserve" text-anchor="middle" x="254.25" y="-210.5" font-family="Helvetica,sans-Serif" font-size="10.00">nghttp2_goaway</text>
</a>
</g>
</g>
<!-- Node2&#45;&gt;Node13 -->
<g id="edge22_Node000013_Node000002" class="edge">
<title>Node2&#45;&gt;Node13</title>
<g id="a_edge22_Node000013_Node000002"><a xlink:title=" ">
<path fill="none" stroke="#9a32cd" stroke-dasharray="5,2" d="M97.99,-241.96C109.2,-238.33 121.49,-234.7 133,-232 158.38,-226.05 187.26,-221.66 210.35,-218.7"/>
<polygon fill="#9a32cd" stroke="#9a32cd" points="97.02,-238.59 88.64,-245.07 99.23,-245.23 97.02,-238.59"/>
</a>
</g>
<text xml:space="preserve" text-anchor="start" x="149.12" y="-237.5" font-family="Helvetica,sans-Serif" font-size="10.00" fill="grey">hd</text>
</g>
<!-- Node14 -->
<g id="Node000014" class="node">
<title>Node14</title>
<g id="a_Node000014"><a xlink:href="structnghttp2__window__update.html" target="_top" xlink:title=" ">
<polygon fill="white" stroke="#666666" points="314.75,-184 193.75,-184 193.75,-164 314.75,-164 314.75,-184"/>
<text xml:space="preserve" text-anchor="middle" x="254.25" y="-170.5" font-family="Helvetica,sans-Serif" font-size="10.00">nghttp2_window_update</text>
</a>
</g>
</g>
<!-- Node2&#45;&gt;Node14 -->
<g id="edge24_Node000014_Node000002" class="edge">
<title>Node2&#45;&gt;Node14</title>
<g id="a_edge24_Node000014_Node000002"><a xlink:title=" ">
<path fill="none" stroke="#9a32cd" stroke-dasharray="5,2" d="M78.16,-238.36C92.44,-226.44 112.73,-211.25 133,-202 151.82,-193.41 173.54,-187.32 193.29,-183.07"/>
<polygon fill="#9a32cd" stroke="#9a32cd" points="76.16,-235.47 70.86,-244.64 80.72,-240.78 76.16,-235.47"/>
</a>
</g>
<text xml:space="preserve" text-anchor="start" x="149.12" y="-207.5" font-family="Helvetica,sans-Serif" font-size="10.00" fill="grey">hd</text>
</g>
<!-- Node15 -->
<g id="Node000015" class="node">
<title>Node15</title>
<g id="a_Node000015"><a xlink:href="structnghttp2__extension.html" target="_top" xlink:title=" ">
<polygon fill="white" stroke="#666666" points="302,-102 206.5,-102 206.5,-82 302,-82 302,-102"/>
<text xml:space="preserve" text-anchor="middle" x="254.25" y="-88.5" font-family="Helvetica,sans-Serif" font-size="10.00">nghttp2_extension</text>
</a>
</g>
</g>
<!-- Node2&#45;&gt;Node15 -->
<g id="edge26_Node000015_Node000002" class="edge">
<title>Node2&#45;&gt;Node15</title>
<g id="a_edge26_Node000015_Node000002"><a xlink:title=" ">
<path fill="none" stroke="#9a32cd" stroke-dasharray="5,2" d="M64.93,-234.9C74.84,-206 96.58,-154.44 133,-126 153.86,-109.71 182.15,-101.22 206.05,-96.8"/>
<polygon fill="#9a32cd" stroke="#9a32cd" points="61.63,-233.74 61.87,-244.33 68.29,-235.9 61.63,-233.74"/>
</a>
</g>
<text xml:space="preserve" text-anchor="start" x="149.12" y="-131.5" font-family="Helvetica,sans-Serif" font-size="10.00" fill="grey">hd</text>
</g>
<!-- Node3&#45;&gt;Node1 -->
<g id="edge2_Node000001_Node000003" class="edge">
<title>Node3&#45;&gt;Node1</title>
<g id="a_edge2_Node000001_Node000003"><a xlink:title=" ">
<path fill="none" stroke="#9a32cd" stroke-dasharray="5,2" d="M302.11,-288.09C332.14,-286.2 371.81,-282.44 406.25,-275 416,-272.89 426.42,-269.66 435.6,-266.45"/>
<polygon fill="#9a32cd" stroke="#9a32cd" points="301.98,-284.6 292.2,-288.67 302.39,-291.58 301.98,-284.6"/>
</a>
</g>
<text xml:space="preserve" text-anchor="start" x="360.12" y="-290.85" font-family="Helvetica,sans-Serif" font-size="10.00" fill="grey">data</text>
</g>
<!-- Node4&#45;&gt;Node1 -->
<g id="edge4_Node000001_Node000004" class="edge">
<title>Node4&#45;&gt;Node1</title>
<g id="a_edge4_Node000001_Node000004"><a xlink:title=" ">
<path fill="none" stroke="#9a32cd" stroke-dasharray="5,2" d="M309.34,-445.53C341.12,-438.59 380.07,-425.3 406.25,-400 445.8,-361.77 458,-292.43 461.29,-266.32"/>
<polygon fill="#9a32cd" stroke="#9a32cd" points="309.03,-442.02 299.92,-447.43 310.41,-448.89 309.03,-442.02"/>
</a>
</g>
<text xml:space="preserve" text-anchor="start" x="352.25" y="-444.3" font-family="Helvetica,sans-Serif" font-size="10.00" fill="grey">headers</text>
</g>
<!-- Node5 -->
<g id="Node000005" class="node">
<title>Node5</title>
<g id="a_Node000005"><a xlink:href="structnghttp2__priority__spec.html" target="_top" xlink:title=" ">
<polygon fill="white" stroke="#bfbfbf" points="112,-476 3,-476 3,-456 112,-456 112,-476"/>
<text xml:space="preserve" text-anchor="middle" x="57.5" y="-462.5" font-family="Helvetica,sans-Serif" font-size="10.00">nghttp2_priority_spec</text>
</a>
</g>
</g>
<!-- Node5&#45;&gt;Node4 -->
<g id="edge6_Node000004_Node000005" class="edge">
<title>Node5&#45;&gt;Node4</title>
<g id="a_edge6_Node000004_Node000005"><a xlink:title=" ">
<path fill="none" stroke="#9a32cd" stroke-dasharray="5,2" d="M123.77,-466.32C140.71,-466.01 158.93,-465.33 175.75,-464 186.86,-463.12 198.8,-461.68 209.91,-460.12"/>
<polygon fill="#9a32cd" stroke="#9a32cd" points="123.73,-462.82 113.78,-466.46 123.83,-469.82 123.73,-462.82"/>
</a>
</g>
<text xml:space="preserve" text-anchor="start" x="136" y="-471.59" font-family="Helvetica,sans-Serif" font-size="10.00" fill="grey">pri_spec</text>
</g>
<!-- Node5&#45;&gt;Node7 -->
<g id="edge10_Node000007_Node000005" class="edge">
<title>Node5&#45;&gt;Node7</title>
<g id="a_edge10_Node000007_Node000005"><a xlink:title=" ">
<path fill="none" stroke="#9a32cd" stroke-dasharray="5,2" d="M101.44,-451.82C123.87,-444.02 151.61,-433.75 175.75,-423 196.61,-413.71 219.63,-401.23 235.12,-392.49"/>
<polygon fill="#9a32cd" stroke="#9a32cd" points="100.32,-448.5 91.99,-455.06 102.59,-455.12 100.32,-448.5"/>
</a>
</g>
<text xml:space="preserve" text-anchor="start" x="136" y="-445.36" font-family="Helvetica,sans-Serif" font-size="10.00" fill="grey">pri_spec</text>
</g>
<!-- Node6 -->
<g id="Node000006" class="node">
<title>Node6</title>
<g id="a_Node000006"><a xlink:href="structnghttp2__nv.html" target="_top" xlink:title=" ">
<polygon fill="white" stroke="#666666" points="89.5,-598 25.5,-598 25.5,-578 89.5,-578 89.5,-598"/>
<text xml:space="preserve" text-anchor="middle" x="57.5" y="-584.5" font-family="Helvetica,sans-Serif" font-size="10.00">nghttp2_nv</text>
</a>
</g>
</g>
<!-- Node6&#45;&gt;Node4 -->
<g id="edge7_Node000004_Node000006" class="edge">
<title>Node6&#45;&gt;Node4</title>
<g id="a_edge7_Node000004_Node000006"><a xlink:title=" ">
<path fill="none" stroke="#9a32cd" stroke-dasharray="5,2" d="M100.59,-574.67C131.77,-564.5 169.84,-551.36 175.75,-546 189.6,-533.45 182.69,-523.06 193.75,-508 206.91,-490.09 226.49,-473.33 239.55,-463.13"/>
<polygon fill="#9a32cd" stroke="#9a32cd" points="99.78,-571.25 91.35,-577.66 101.94,-577.91 99.78,-571.25"/>
</a>
</g>
<text xml:space="preserve" text-anchor="start" x="146.5" y="-569.16" font-family="Helvetica,sans-Serif" font-size="10.00" fill="grey">nva</text>
</g>
<!-- Node6&#45;&gt;Node11 -->
<g id="edge18_Node000011_Node000006" class="edge">
<title>Node6&#45;&gt;Node11</title>
<g id="a_edge18_Node000011_Node000006"><a xlink:title=" ">
<path fill="none" stroke="#9a32cd" stroke-dasharray="5,2" d="M101.14,-594.09C123.88,-595.76 152,-595.23 175.75,-587 204.69,-576.97 231.25,-551.38 244.47,-537.07"/>
<polygon fill="#9a32cd" stroke="#9a32cd" points="101.57,-590.62 91.29,-593.19 100.93,-597.59 101.57,-590.62"/>
</a>
</g>
<text xml:space="preserve" text-anchor="start" x="146.5" y="-599.96" font-family="Helvetica,sans-Serif" font-size="10.00" fill="grey">nva</text>
</g>
<!-- Node7&#45;&gt;Node1 -->
<g id="edge8_Node000001_Node000007" class="edge">
<title>Node7&#45;&gt;Node1</title>
<g id="a_edge8_Node000001_Node000007"><a xlink:title=" ">
<path fill="none" stroke="#9a32cd" stroke-dasharray="5,2" d="M307.09,-381.22C338.34,-378.41 377.52,-370.54 406.25,-350 436.09,-328.67 452.84,-286.07 459.27,-266.4"/>
<polygon fill="#9a32cd" stroke="#9a32cd" points="307.2,-377.7 297.48,-381.92 307.71,-384.68 307.2,-377.7"/>
</a>
</g>
<text xml:space="preserve" text-anchor="start" x="354.88" y="-383.33" font-family="Helvetica,sans-Serif" font-size="10.00" fill="grey">priority</text>
</g>
<!-- Node8&#45;&gt;Node1 -->
<g id="edge11_Node000001_Node000008" class="edge">
<title>Node8&#45;&gt;Node1</title>
<g id="a_edge11_Node000001_Node000008"><a xlink:title=" ">
<path fill="none" stroke="#9a32cd" stroke-dasharray="5,2" d="M315.95,-129.24C345.5,-130.28 380.17,-136.05 406.25,-154 438.88,-176.47 454.44,-224.32 459.95,-245.52"/>
<polygon fill="#9a32cd" stroke="#9a32cd" points="316.06,-125.74 306,-129.08 315.94,-132.74 316.06,-125.74"/>
</a>
</g>
<text xml:space="preserve" text-anchor="start" x="346.25" y="-159.5" font-family="Helvetica,sans-Serif" font-size="10.00" fill="grey">rst_stream</text>
</g>
<!-- Node9&#45;&gt;Node1 -->
<g id="edge13_Node000001_Node000009" class="edge">
<title>Node9&#45;&gt;Node1</title>
<g id="a_edge13_Node000001_Node000009"><a xlink:title=" ">
<path fill="none" stroke="#9a32cd" stroke-dasharray="5,2" d="M309.69,-41.17C341.2,-38.65 379.74,-41.4 406.25,-63 464.15,-110.16 464.47,-213.34 463.01,-245.93"/>
<polygon fill="#9a32cd" stroke="#9a32cd" points="309.54,-37.67 299.95,-42.16 310.25,-44.63 309.54,-37.67"/>
</a>
</g>
<text xml:space="preserve" text-anchor="start" x="352.25" y="-68.5" font-family="Helvetica,sans-Serif" font-size="10.00" fill="grey">settings</text>
</g>
<!-- Node10 -->
<g id="Node000010" class="node">
<title>Node10</title>
<g id="a_Node000010"><a xlink:href="structnghttp2__settings__entry.html" target="_top" xlink:title=" ">
<polygon fill="white" stroke="#666666" points="115,-20 0,-20 0,0 115,0 115,-20"/>
<text xml:space="preserve" text-anchor="middle" x="57.5" y="-6.5" font-family="Helvetica,sans-Serif" font-size="10.00">nghttp2_settings_entry</text>
</a>
</g>
</g>
<!-- Node10&#45;&gt;Node9 -->
<g id="edge15_Node000009_Node000010" class="edge">
<title>Node10&#45;&gt;Node9</title>
<g id="a_edge15_Node000009_Node000010"><a xlink:title=" ">
<path fill="none" stroke="#9a32cd" stroke-dasharray="5,2" d="M126.37,-5.23C142.73,-5.54 160.02,-7.11 175.75,-11 199.12,-16.78 223.36,-30.81 238.37,-40.61"/>
<polygon fill="#9a32cd" stroke="#9a32cd" points="126.75,-1.73 116.74,-5.2 126.73,-8.73 126.75,-1.73"/>
</a>
</g>
<text xml:space="preserve" text-anchor="start" x="150.62" y="-16.5" font-family="Helvetica,sans-Serif" font-size="10.00" fill="grey">iv</text>
</g>
<!-- Node11&#45;&gt;Node1 -->
<g id="edge16_Node000001_Node000011" class="edge">
<title>Node11&#45;&gt;Node1</title>
<g id="a_edge16_Node000001_Node000011"><a xlink:title=" ">
<path fill="none" stroke="#9a32cd" stroke-dasharray="5,2" d="M317.21,-513.41C348,-503.66 383.4,-487.42 406.25,-461 457.66,-401.55 462.37,-299.11 462.51,-266.38"/>
<polygon fill="#9a32cd" stroke="#9a32cd" points="316.57,-509.95 307.99,-516.16 318.58,-516.65 316.57,-509.95"/>
</a>
</g>
<text xml:space="preserve" text-anchor="start" x="339.12" y="-512.13" font-family="Helvetica,sans-Serif" font-size="10.00" fill="grey">push_promise</text>
</g>
<!-- Node12&#45;&gt;Node1 -->
<g id="edge19_Node000001_Node000012" class="edge">
<title>Node12&#45;&gt;Node1</title>
<g id="a_edge19_Node000001_Node000012"><a xlink:title=" ">
<path fill="none" stroke="#9a32cd" stroke-dasharray="5,2" d="M301.81,-252.9C338.61,-253.61 389.37,-254.59 423.9,-255.26"/>
<polygon fill="#9a32cd" stroke="#9a32cd" points="301.96,-249.4 291.9,-252.71 301.83,-256.4 301.96,-249.4"/>
</a>
</g>
<text xml:space="preserve" text-anchor="start" x="360.5" y="-260.32" font-family="Helvetica,sans-Serif" font-size="10.00" fill="grey">ping</text>
</g>
<!-- Node13&#45;&gt;Node1 -->
<g id="edge21_Node000001_Node000013" class="edge">
<title>Node13&#45;&gt;Node1</title>
<g id="a_edge21_Node000001_Node000013"><a xlink:title=" ">
<path fill="none" stroke="#9a32cd" stroke-dasharray="5,2" d="M309.35,-216.7C338.45,-219.08 374.73,-223.57 406.25,-232 418.43,-235.26 431.42,-240.67 441.82,-245.54"/>
<polygon fill="#9a32cd" stroke="#9a32cd" points="309.91,-213.23 299.68,-215.97 309.39,-220.21 309.91,-213.23"/>
</a>
</g>
<text xml:space="preserve" text-anchor="start" x="352.62" y="-237.5" font-family="Helvetica,sans-Serif" font-size="10.00" fill="grey">goaway</text>
</g>
<!-- Node14&#45;&gt;Node1 -->
<g id="edge23_Node000001_Node000014" class="edge">
<title>Node14&#45;&gt;Node1</title>
<g id="a_edge23_Node000001_Node000014"><a xlink:title=" ">
<path fill="none" stroke="#9a32cd" stroke-dasharray="5,2" d="M326.47,-175.27C352.73,-178.15 381.98,-184.34 406.25,-197 428.31,-208.51 446.57,-232.08 455.82,-245.69"/>
<polygon fill="#9a32cd" stroke="#9a32cd" points="326.82,-171.79 316.53,-174.34 326.16,-178.76 326.82,-171.79"/>
</a>
</g>
<text xml:space="preserve" text-anchor="start" x="335.75" y="-202.5" font-family="Helvetica,sans-Serif" font-size="10.00" fill="grey">window_update</text>
</g>
<!-- Node15&#45;&gt;Node1 -->
<g id="edge25_Node000001_Node000015" class="edge">
<title>Node15&#45;&gt;Node1</title>
<g id="a_edge25_Node000001_Node000015"><a xlink:title=" ">
<path fill="none" stroke="#9a32cd" stroke-dasharray="5,2" d="M313.54,-84.45C344.05,-83.65 380.34,-88.01 406.25,-108 451.29,-142.74 460.19,-218.06 461.94,-245.63"/>
<polygon fill="#9a32cd" stroke="#9a32cd" points="313.5,-80.95 303.67,-84.92 313.83,-87.94 313.5,-80.95"/>
</a>
</g>
<text xml:space="preserve" text-anchor="start" x="362.75" y="-113.5" font-family="Helvetica,sans-Serif" font-size="10.00" fill="grey">ext</text>
</g>
</g>
</svg>
