<?xml version="1.0" encoding="UTF-8" standalone="no"?>
<!DOCTYPE svg PUBLIC "-//W3C//DTD SVG 1.1//EN"
 "http://www.w3.org/Graphics/SVG/1.1/DTD/svg11.dtd">
<!-- Generated by graphviz version 14.0.5 (0)
 -->
<!-- Title: YYSTYPE Pages: 1 -->
<svg width="99pt" height="176pt"
 viewBox="0.00 0.00 99.00 176.00" xmlns="http://www.w3.org/2000/svg" xmlns:xlink="http://www.w3.org/1999/xlink">
<g id="graph0" class="graph" transform="scale(1 1) rotate(0) translate(4 172)">
<title>YYSTYPE</title>
<!-- Node1 -->
<g id="Node000001" class="node">
<title>Node1</title>
<g id="a_Node000001"><a xlink:title=" ">
<polygon fill="#999999" stroke="#666666" points="76.75,-20 14.25,-20 14.25,0 76.75,0 76.75,-20"/>
<text xml:space="preserve" text-anchor="middle" x="45.5" y="-6.5" font-family="Helvetica,sans-Serif" font-size="10.00">YYSTYPE</text>
</a>
</g>
</g>
<!-- Node2 -->
<g id="Node000002" class="node">
<title>Node2</title>
<g id="a_Node000002"><a xlink:href="structnode.html" target="_top" xlink:title=" ">
<polygon fill="white" stroke="#bfbfbf" points="64,-94 27,-94 27,-74 64,-74 64,-94"/>
<text xml:space="preserve" text-anchor="middle" x="45.5" y="-80.5" font-family="Helvetica,sans-Serif" font-size="10.00">node</text>
</a>
</g>
</g>
<!-- Node2&#45;&gt;Node1 -->
<g id="edge1_Node000001_Node000002" class="edge">
<title>Node2&#45;&gt;Node1</title>
<g id="a_edge1_Node000001_Node000002"><a xlink:title=" ">
<path fill="none" stroke="#9a32cd" stroke-dasharray="5,2" d="M45.5,-62.18C45.5,-48.29 45.5,-30.71 45.5,-20.19"/>
<polygon fill="#9a32cd" stroke="#9a32cd" points="42,-62.07 45.5,-72.07 49,-62.07 42,-62.07"/>
</a>
</g>
<text xml:space="preserve" text-anchor="start" x="48.5" y="-43.5" font-family="Helvetica,sans-Serif" font-size="10.00" fill="grey">nd</text>
</g>
<!-- Node3 -->
<g id="Node000003" class="node">
<title>Node3</title>
<g id="a_Node000003"><a xlink:href="structnghttp2__pq__entry.html" target="_top" xlink:title=" ">
<polygon fill="white" stroke="#bfbfbf" points="91,-168 0,-168 0,-148 91,-148 91,-168"/>
<text xml:space="preserve" text-anchor="middle" x="45.5" y="-154.5" font-family="Helvetica,sans-Serif" font-size="10.00">nghttp2_pq_entry</text>
</a>
</g>
</g>
<!-- Node3&#45;&gt;Node2 -->
<g id="edge2_Node000002_Node000003" class="edge">
<title>Node3&#45;&gt;Node2</title>
<g id="a_edge2_Node000002_Node000003"><a xlink:title=" ">
<path fill="none" stroke="#9a32cd" stroke-dasharray="5,2" d="M45.5,-136.18C45.5,-122.29 45.5,-104.71 45.5,-94.19"/>
<polygon fill="#9a32cd" stroke="#9a32cd" points="42,-136.07 45.5,-146.07 49,-136.07 42,-136.07"/>
</a>
</g>
<text xml:space="preserve" text-anchor="start" x="48.5" y="-117.5" font-family="Helvetica,sans-Serif" font-size="10.00" fill="grey">ent</text>
</g>
</g>
</svg>
