<?xml version="1.0" encoding="UTF-8" standalone="no"?>
<!DOCTYPE svg PUBLIC "-//W3C//DTD SVG 1.1//EN"
 "http://www.w3.org/Graphics/SVG/1.1/DTD/svg11.dtd">
<!-- Generated by graphviz version 14.0.5 (0)
 -->
<!-- Title: yyalloc Pages: 1 -->
<svg width="106pt" height="250pt"
 viewBox="0.00 0.00 106.00 250.00" xmlns="http://www.w3.org/2000/svg" xmlns:xlink="http://www.w3.org/1999/xlink">
<g id="graph0" class="graph" transform="scale(1 1) rotate(0) translate(4 246)">
<title>yyalloc</title>
<!-- Node1 -->
<g id="Node000001" class="node">
<title>Node1</title>
<g id="a_Node000001"><a xlink:title=" ">
<polygon fill="#999999" stroke="#666666" points="68.88,-20 22.12,-20 22.12,0 68.88,0 68.88,-20"/>
<text xml:space="preserve" text-anchor="middle" x="45.5" y="-6.5" font-family="Helvetica,sans-Serif" font-size="10.00">yyalloc</text>
</a>
</g>
</g>
<!-- Node2 -->
<g id="Node000002" class="node">
<title>Node2</title>
<g id="a_Node000002"><a xlink:href="unionYYSTYPE.html" target="_top" xlink:title=" ">
<polygon fill="white" stroke="#bfbfbf" points="76.75,-94 14.25,-94 14.25,-74 76.75,-74 76.75,-94"/>
<text xml:space="preserve" text-anchor="middle" x="45.5" y="-80.5" font-family="Helvetica,sans-Serif" font-size="10.00">YYSTYPE</text>
</a>
</g>
</g>
<!-- Node2&#45;&gt;Node1 -->
<g id="edge1_Node000001_Node000002" class="edge">
<title>Node2&#45;&gt;Node1</title>
<g id="a_edge1_Node000001_Node000002"><a xlink:title=" ">
<path fill="none" stroke="#9a32cd" stroke-dasharray="5,2" d="M45.5,-62.18C45.5,-48.29 45.5,-30.71 45.5,-20.19"/>
<polygon fill="#9a32cd" stroke="#9a32cd" points="42,-62.07 45.5,-72.07 49,-62.07 42,-62.07"/>
</a>
</g>
<text xml:space="preserve" text-anchor="start" x="48.5" y="-43.5" font-family="Helvetica,sans-Serif" font-size="10.00" fill="grey">yyvs_alloc</text>
</g>
<!-- Node3 -->
<g id="Node000003" class="node">
<title>Node3</title>
<g id="a_Node000003"><a xlink:href="structnode.html" target="_top" xlink:title=" ">
<polygon fill="white" stroke="#bfbfbf" points="64,-168 27,-168 27,-148 64,-148 64,-168"/>
<text xml:space="preserve" text-anchor="middle" x="45.5" y="-154.5" font-family="Helvetica,sans-Serif" font-size="10.00">node</text>
</a>
</g>
</g>
<!-- Node3&#45;&gt;Node2 -->
<g id="edge2_Node000002_Node000003" class="edge">
<title>Node3&#45;&gt;Node2</title>
<g id="a_edge2_Node000002_Node000003"><a xlink:title=" ">
<path fill="none" stroke="#9a32cd" stroke-dasharray="5,2" d="M45.5,-136.18C45.5,-122.29 45.5,-104.71 45.5,-94.19"/>
<polygon fill="#9a32cd" stroke="#9a32cd" points="42,-136.07 45.5,-146.07 49,-136.07 42,-136.07"/>
</a>
</g>
<text xml:space="preserve" text-anchor="start" x="48.5" y="-117.5" font-family="Helvetica,sans-Serif" font-size="10.00" fill="grey">nd</text>
</g>
<!-- Node4 -->
<g id="Node000004" class="node">
<title>Node4</title>
<g id="a_Node000004"><a xlink:href="structnghttp2__pq__entry.html" target="_top" xlink:title=" ">
<polygon fill="white" stroke="#bfbfbf" points="91,-242 0,-242 0,-222 91,-222 91,-242"/>
<text xml:space="preserve" text-anchor="middle" x="45.5" y="-228.5" font-family="Helvetica,sans-Serif" font-size="10.00">nghttp2_pq_entry</text>
</a>
</g>
</g>
<!-- Node4&#45;&gt;Node3 -->
<g id="edge3_Node000003_Node000004" class="edge">
<title>Node4&#45;&gt;Node3</title>
<g id="a_edge3_Node000003_Node000004"><a xlink:title=" ">
<path fill="none" stroke="#9a32cd" stroke-dasharray="5,2" d="M45.5,-210.18C45.5,-196.29 45.5,-178.71 45.5,-168.19"/>
<polygon fill="#9a32cd" stroke="#9a32cd" points="42,-210.07 45.5,-220.07 49,-210.07 42,-210.07"/>
</a>
</g>
<text xml:space="preserve" text-anchor="start" x="48.5" y="-191.5" font-family="Helvetica,sans-Serif" font-size="10.00" fill="grey">ent</text>
</g>
</g>
</svg>
