<?xml version="1.0" encoding="UTF-8" standalone="no"?>
<!DOCTYPE svg PUBLIC "-//W3C//DTD SVG 1.1//EN"
 "http://www.w3.org/Graphics/SVG/1.1/DTD/svg11.dtd">
<!-- Generated by graphviz version 14.0.5 (0)
 -->
<!-- Title: nghttp2_ext_frame_payload Pages: 1 -->
<svg width="340pt" height="188pt"
 viewBox="0.00 0.00 340.00 188.00" xmlns="http://www.w3.org/2000/svg" xmlns:xlink="http://www.w3.org/1999/xlink">
<g id="graph0" class="graph" transform="scale(1 1) rotate(0) translate(4 184)">
<title>nghttp2_ext_frame_payload</title>
<!-- Node1 -->
<g id="Node000001" class="node">
<title>Node1</title>
<g id="a_Node000001"><a xlink:title=" ">
<polygon fill="#999999" stroke="#666666" points="232.25,-20 96.25,-20 96.25,0 232.25,0 232.25,-20"/>
<text xml:space="preserve" text-anchor="middle" x="164.25" y="-6.5" font-family="Helvetica,sans-Serif" font-size="10.00">nghttp2_ext_frame_payload</text>
</a>
</g>
</g>
<!-- Node2 -->
<g id="Node000002" class="node">
<title>Node2</title>
<g id="a_Node000002"><a xlink:href="structnghttp2__ext__altsvc.html" target="_top" xlink:title=" ">
<polygon fill="white" stroke="#666666" points="98.5,-100 0,-100 0,-80 98.5,-80 98.5,-100"/>
<text xml:space="preserve" text-anchor="middle" x="49.25" y="-86.5" font-family="Helvetica,sans-Serif" font-size="10.00">nghttp2_ext_altsvc</text>
</a>
</g>
</g>
<!-- Node2&#45;&gt;Node1 -->
<g id="edge1_Node000001_Node000002" class="edge">
<title>Node2&#45;&gt;Node1</title>
<g id="a_edge1_Node000001_Node000002"><a xlink:title=" ">
<path fill="none" stroke="#9a32cd" stroke-dasharray="5,2" d="M72.37,-73.32C95.68,-57.51 130.9,-33.62 150.27,-20.49"/>
<polygon fill="#9a32cd" stroke="#9a32cd" points="70.46,-70.39 64.15,-78.9 74.39,-76.18 70.46,-70.39"/>
</a>
</g>
<text xml:space="preserve" text-anchor="start" x="126.77" y="-43.5" font-family="Helvetica,sans-Serif" font-size="10.00" fill="grey">altsvc</text>
</g>
<!-- Node3 -->
<g id="Node000003" class="node">
<title>Node3</title>
<g id="a_Node000003"><a xlink:href="structnghttp2__ext__origin.html" target="_top" xlink:title=" ">
<polygon fill="white" stroke="#666666" points="212,-100 116.5,-100 116.5,-80 212,-80 212,-100"/>
<text xml:space="preserve" text-anchor="middle" x="164.25" y="-86.5" font-family="Helvetica,sans-Serif" font-size="10.00">nghttp2_ext_origin</text>
</a>
</g>
</g>
<!-- Node3&#45;&gt;Node1 -->
<g id="edge2_Node000001_Node000003" class="edge">
<title>Node3&#45;&gt;Node1</title>
<g id="a_edge2_Node000001_Node000003"><a xlink:title=" ">
<path fill="none" stroke="#9a32cd" stroke-dasharray="5,2" d="M164.25,-68.59C164.25,-52.94 164.25,-32.08 164.25,-20.24"/>
<polygon fill="#9a32cd" stroke="#9a32cd" points="160.75,-68.23 164.25,-78.23 167.75,-68.23 160.75,-68.23"/>
</a>
</g>
<text xml:space="preserve" text-anchor="start" x="167.25" y="-43.5" font-family="Helvetica,sans-Serif" font-size="10.00" fill="grey">origin</text>
</g>
<!-- Node4 -->
<g id="Node000004" class="node">
<title>Node4</title>
<g id="a_Node000004"><a xlink:href="structnghttp2__origin__entry.html" target="_top" xlink:title=" ">
<polygon fill="white" stroke="#666666" points="216.12,-180 112.38,-180 112.38,-160 216.12,-160 216.12,-180"/>
<text xml:space="preserve" text-anchor="middle" x="164.25" y="-166.5" font-family="Helvetica,sans-Serif" font-size="10.00">nghttp2_origin_entry</text>
</a>
</g>
</g>
<!-- Node4&#45;&gt;Node3 -->
<g id="edge3_Node000003_Node000004" class="edge">
<title>Node4&#45;&gt;Node3</title>
<g id="a_edge3_Node000003_Node000004"><a xlink:title=" ">
<path fill="none" stroke="#9a32cd" stroke-dasharray="5,2" d="M164.25,-148.59C164.25,-132.94 164.25,-112.08 164.25,-100.24"/>
<polygon fill="#9a32cd" stroke="#9a32cd" points="160.75,-148.23 164.25,-158.23 167.75,-148.23 160.75,-148.23"/>
</a>
</g>
<text xml:space="preserve" text-anchor="start" x="167.25" y="-129.5" font-family="Helvetica,sans-Serif" font-size="10.00" fill="grey">ov</text>
</g>
<!-- Node5 -->
<g id="Node000005" class="node">
<title>Node5</title>
<g id="a_Node000005"><a xlink:href="structnghttp2__ext__priority__update.html" target="_top" xlink:title=" ">
<polygon fill="white" stroke="#666666" points="332,-106 230.5,-106 230.5,-74 332,-74 332,-106"/>
<text xml:space="preserve" text-anchor="start" x="238.5" y="-92.5" font-family="Helvetica,sans-Serif" font-size="10.00">nghttp2_ext_priority</text>
<text xml:space="preserve" text-anchor="middle" x="281.25" y="-80.5" font-family="Helvetica,sans-Serif" font-size="10.00">_update</text>
</a>
</g>
</g>
<!-- Node5&#45;&gt;Node1 -->
<g id="edge4_Node000001_Node000005" class="edge">
<title>Node5&#45;&gt;Node1</title>
<g id="a_edge4_Node000001_Node000005"><a xlink:title=" ">
<path fill="none" stroke="#9a32cd" stroke-dasharray="5,2" d="M248.72,-67.31C225.65,-51.93 195.82,-32.05 178.48,-20.49"/>
<polygon fill="#9a32cd" stroke="#9a32cd" points="246.61,-70.12 256.88,-72.75 250.5,-64.29 246.61,-70.12"/>
</a>
</g>
<text xml:space="preserve" text-anchor="start" x="232.76" y="-43.5" font-family="Helvetica,sans-Serif" font-size="10.00" fill="grey">priority_update</text>
</g>
</g>
</svg>
