<?xml version="1.0" encoding="UTF-8" standalone="no"?>
<!DOCTYPE svg PUBLIC "-//W3C//DTD SVG 1.1//EN"
 "http://www.w3.org/Graphics/SVG/1.1/DTD/svg11.dtd">
<!-- Generated by graphviz version 14.0.5 (0)
 -->
<!-- Title: mrb_value_ Pages: 1 -->
<svg width="221pt" height="176pt"
 viewBox="0.00 0.00 221.00 176.00" xmlns="http://www.w3.org/2000/svg" xmlns:xlink="http://www.w3.org/1999/xlink">
<g id="graph0" class="graph" transform="scale(1 1) rotate(0) translate(4 172)">
<title>mrb_value_</title>
<!-- Node1 -->
<g id="Node000001" class="node">
<title>Node1</title>
<g id="a_Node000001"><a xlink:title=" ">
<polygon fill="#999999" stroke="#666666" points="126.25,-20 60,-20 60,0 126.25,0 126.25,-20"/>
<text xml:space="preserve" text-anchor="middle" x="93.12" y="-6.5" font-family="Helvetica,sans-Serif" font-size="10.00">mrb_value_</text>
</a>
</g>
</g>
<!-- Node2 -->
<g id="Node000002" class="node">
<title>Node2</title>
<g id="a_Node000002"><a xlink:href="structRBasic.html" target="_top" xlink:title=" ">
<polygon fill="white" stroke="#bfbfbf" points="48.25,-94 0,-94 0,-74 48.25,-74 48.25,-94"/>
<text xml:space="preserve" text-anchor="middle" x="24.12" y="-80.5" font-family="Helvetica,sans-Serif" font-size="10.00">RBasic</text>
</a>
</g>
</g>
<!-- Node2&#45;&gt;Node1 -->
<g id="edge1_Node000001_Node000002" class="edge">
<title>Node2&#45;&gt;Node1</title>
<g id="a_edge1_Node000001_Node000002"><a xlink:title=" ">
<path fill="none" stroke="#9a32cd" stroke-dasharray="5,2" d="M40.9,-65.5C54.59,-51.21 73.41,-31.57 84.32,-20.19"/>
<polygon fill="#9a32cd" stroke="#9a32cd" points="38.58,-62.85 34.19,-72.49 43.64,-67.7 38.58,-62.85"/>
</a>
</g>
<text xml:space="preserve" text-anchor="start" x="69.83" y="-43.5" font-family="Helvetica,sans-Serif" font-size="10.00" fill="grey">bp</text>
</g>
<!-- Node3 -->
<g id="Node000003" class="node">
<title>Node3</title>
<g id="a_Node000003"><a xlink:href="structRInteger.html" target="_top" xlink:title=" ">
<polygon fill="white" stroke="#bfbfbf" points="119.88,-94 66.38,-94 66.38,-74 119.88,-74 119.88,-94"/>
<text xml:space="preserve" text-anchor="middle" x="93.12" y="-80.5" font-family="Helvetica,sans-Serif" font-size="10.00">RInteger</text>
</a>
</g>
</g>
<!-- Node3&#45;&gt;Node1 -->
<g id="edge2_Node000001_Node000003" class="edge">
<title>Node3&#45;&gt;Node1</title>
<g id="a_edge2_Node000001_Node000003"><a xlink:title=" ">
<path fill="none" stroke="#9a32cd" stroke-dasharray="5,2" d="M93.12,-62.18C93.12,-48.29 93.12,-30.71 93.12,-20.19"/>
<polygon fill="#9a32cd" stroke="#9a32cd" points="89.63,-62.07 93.13,-72.07 96.63,-62.07 89.63,-62.07"/>
</a>
</g>
<text xml:space="preserve" text-anchor="start" x="96.12" y="-43.5" font-family="Helvetica,sans-Serif" font-size="10.00" fill="grey">ip</text>
</g>
<!-- Node4 -->
<g id="Node000004" class="node">
<title>Node4</title>
<g id="a_Node000004"><a xlink:href="structmrb__value.html" target="_top" xlink:title=" ">
<polygon fill="white" stroke="#bfbfbf" points="198.62,-94 137.62,-94 137.62,-74 198.62,-74 198.62,-94"/>
<text xml:space="preserve" text-anchor="middle" x="168.12" y="-80.5" font-family="Helvetica,sans-Serif" font-size="10.00">mrb_value</text>
</a>
</g>
</g>
<!-- Node4&#45;&gt;Node1 -->
<g id="edge3_Node000001_Node000004" class="edge">
<title>Node4&#45;&gt;Node1</title>
<g id="a_edge3_Node000001_Node000004"><a xlink:title=" ">
<path fill="none" stroke="#9a32cd" stroke-dasharray="5,2" d="M150.32,-65.9C135.39,-51.58 114.66,-31.68 102.7,-20.19"/>
<polygon fill="#9a32cd" stroke="#9a32cd" points="147.59,-68.14 157.23,-72.54 152.44,-63.09 147.59,-68.14"/>
</a>
</g>
<text xml:space="preserve" text-anchor="start" x="142.55" y="-43.5" font-family="Helvetica,sans-Serif" font-size="10.00" fill="grey">value</text>
</g>
<!-- Node5 -->
<g id="Node000005" class="node">
<title>Node5</title>
<g id="a_Node000005"><a xlink:href="unionmrb__value__union.html" target="_top" xlink:title=" ">
<polygon fill="white" stroke="#bfbfbf" points="212.88,-168 123.38,-168 123.38,-148 212.88,-148 212.88,-168"/>
<text xml:space="preserve" text-anchor="middle" x="168.12" y="-154.5" font-family="Helvetica,sans-Serif" font-size="10.00">mrb_value_union</text>
</a>
</g>
</g>
<!-- Node5&#45;&gt;Node4 -->
<g id="edge4_Node000004_Node000005" class="edge">
<title>Node5&#45;&gt;Node4</title>
<g id="a_edge4_Node000004_Node000005"><a xlink:title=" ">
<path fill="none" stroke="#9a32cd" stroke-dasharray="5,2" d="M168.12,-136.18C168.12,-122.29 168.12,-104.71 168.12,-94.19"/>
<polygon fill="#9a32cd" stroke="#9a32cd" points="164.63,-136.07 168.13,-146.07 171.63,-136.07 164.63,-136.07"/>
</a>
</g>
<text xml:space="preserve" text-anchor="start" x="171.12" y="-117.5" font-family="Helvetica,sans-Serif" font-size="10.00" fill="grey">value</text>
</g>
</g>
</svg>
