<?xml version="1.0" encoding="UTF-8" standalone="no"?>
<!DOCTYPE svg PUBLIC "-//W3C//DTD SVG 1.1//EN"
 "http://www.w3.org/Graphics/SVG/1.1/DTD/svg11.dtd">
<!-- Generated by graphviz version 14.0.5 (0)
 -->
<!-- Title: mt_ptr Pages: 1 -->
<svg width="649pt" height="700pt"
 viewBox="0.00 0.00 649.00 700.00" xmlns="http://www.w3.org/2000/svg" xmlns:xlink="http://www.w3.org/1999/xlink">
<g id="graph0" class="graph" transform="scale(1 1) rotate(0) translate(4 696)">
<title>mt_ptr</title>
<!-- Node1 -->
<g id="Node000001" class="node">
<title>Node1</title>
<g id="a_Node000001"><a xlink:title=" ">
<polygon fill="#999999" stroke="#666666" points="180.88,-544 137.12,-544 137.12,-524 180.88,-524 180.88,-544"/>
<text xml:space="preserve" text-anchor="middle" x="159" y="-530.5" font-family="Helvetica,sans-Serif" font-size="10.00">mt_ptr</text>
</a>
</g>
</g>
<!-- Node13 -->
<g id="Node000013" class="node">
<title>Node13</title>
<g id="a_Node000013"><a xlink:href="structmt__tbl.html" target="_top" xlink:title=" ">
<polygon fill="white" stroke="#bfbfbf" points="134.5,-468 91.5,-468 91.5,-448 134.5,-448 134.5,-468"/>
<text xml:space="preserve" text-anchor="middle" x="113" y="-454.5" font-family="Helvetica,sans-Serif" font-size="10.00">mt_tbl</text>
</a>
</g>
</g>
<!-- Node1&#45;&gt;Node13 -->
<g id="edge16_Node000013_Node000001" class="edge">
<title>Node1&#45;&gt;Node13</title>
<g id="a_edge16_Node000013_Node000001"><a xlink:title=" ">
<path fill="none" stroke="#9a32cd" stroke-dasharray="5,2" d="M139.54,-515.74C136.7,-512.68 133.99,-509.38 131.75,-506 123.8,-493.99 118.34,-478.08 115.44,-468.19"/>
<polygon fill="#9a32cd" stroke="#9a32cd" points="136.9,-518.06 146.48,-522.57 141.81,-513.07 136.9,-518.06"/>
</a>
</g>
<text xml:space="preserve" text-anchor="start" x="134.75" y="-492.5" font-family="Helvetica,sans-Serif" font-size="10.00" fill="grey">ptr</text>
</g>
<!-- Node2 -->
<g id="Node000002" class="node">
<title>Node2</title>
<g id="a_Node000002"><a xlink:href="structRProc.html" target="_top" xlink:title=" ">
<polygon fill="white" stroke="#bfbfbf" points="238.88,-290 195.12,-290 195.12,-270 238.88,-270 238.88,-290"/>
<text xml:space="preserve" text-anchor="middle" x="217" y="-276.5" font-family="Helvetica,sans-Serif" font-size="10.00">RProc</text>
</a>
</g>
</g>
<!-- Node2&#45;&gt;Node1 -->
<g id="edge1_Node000001_Node000002" class="edge">
<title>Node2&#45;&gt;Node1</title>
<g id="a_edge1_Node000001_Node000002"><a xlink:title=" ">
<path fill="none" stroke="#9a32cd" stroke-dasharray="5,2" d="M212.98,-301.61C209.09,-321.27 202.93,-351.72 197,-378 184.5,-433.41 167.65,-499.47 161.44,-523.59"/>
<polygon fill="#9a32cd" stroke="#9a32cd" points="216.4,-302.36 214.89,-291.87 209.53,-301.01 216.4,-302.36"/>
</a>
</g>
<text xml:space="preserve" text-anchor="start" x="195.53" y="-409.5" font-family="Helvetica,sans-Serif" font-size="10.00" fill="grey">proc</text>
</g>
<!-- Node2&#45;&gt;Node2 -->
<g id="edge11_Node000002_Node000002" class="edge">
<title>Node2&#45;&gt;Node2</title>
<g id="a_edge11_Node000002_Node000002"><a xlink:title=" ">
<path fill="none" stroke="#9a32cd" stroke-dasharray="5,2" d="M250.32,-285.96C254.29,-284.87 256.88,-282.89 256.88,-280 256.88,-274.87 248.7,-272.58 239.14,-273.15"/>
<polygon fill="#9a32cd" stroke="#9a32cd" points="250.34,-282.44 240.65,-286.73 250.9,-289.42 250.34,-282.44"/>
</a>
</g>
<text xml:space="preserve" text-anchor="start" x="259.88" y="-276.5" font-family="Helvetica,sans-Serif" font-size="10.00" fill="grey">upper</text>
</g>
<!-- Node16 -->
<g id="Node000016" class="node">
<title>Node16</title>
<g id="a_Node000016"><a xlink:href="structmrb__callinfo.html" target="_top" xlink:title=" ">
<polygon fill="white" stroke="#bfbfbf" points="144.25,-200 75.75,-200 75.75,-180 144.25,-180 144.25,-200"/>
<text xml:space="preserve" text-anchor="middle" x="110" y="-186.5" font-family="Helvetica,sans-Serif" font-size="10.00">mrb_callinfo</text>
</a>
</g>
</g>
<!-- Node2&#45;&gt;Node16 -->
<g id="edge24_Node000016_Node000002" class="edge">
<title>Node2&#45;&gt;Node16</title>
<g id="a_edge24_Node000016_Node000002"><a xlink:title=" ">
<path fill="none" stroke="#9a32cd" stroke-dasharray="5,2" d="M193.38,-263.22C188.3,-259.64 183.03,-255.78 178.25,-252 156.56,-234.85 132.82,-212.83 119.84,-200.49"/>
<polygon fill="#9a32cd" stroke="#9a32cd" points="191.25,-266 201.47,-268.79 195.22,-260.24 191.25,-266"/>
</a>
</g>
<text xml:space="preserve" text-anchor="start" x="181.25" y="-239.5" font-family="Helvetica,sans-Serif" font-size="10.00" fill="grey">blk</text>
<text xml:space="preserve" text-anchor="start" x="181.25" y="-223.5" font-family="Helvetica,sans-Serif" font-size="10.00" fill="grey">proc</text>
</g>
<!-- Node3 -->
<g id="Node000003" class="node">
<title>Node3</title>
<g id="a_Node000003"><a xlink:href="structmrb__irep.html" target="_top" xlink:title=" ">
<polygon fill="white" stroke="#bfbfbf" points="393.75,-371 340.25,-371 340.25,-351 393.75,-351 393.75,-371"/>
<text xml:space="preserve" text-anchor="middle" x="367" y="-357.5" font-family="Helvetica,sans-Serif" font-size="10.00">mrb_irep</text>
</a>
</g>
</g>
<!-- Node3&#45;&gt;Node2 -->
<g id="edge2_Node000002_Node000003" class="edge">
<title>Node3&#45;&gt;Node2</title>
<g id="a_edge2_Node000002_Node000003"><a xlink:title=" ">
<path fill="none" stroke="#9a32cd" stroke-dasharray="5,2" d="M340.64,-344.9C321.91,-334.3 296.1,-319.94 273,-308 261.3,-301.95 248.04,-295.54 237.35,-290.48"/>
<polygon fill="#9a32cd" stroke="#9a32cd" points="338.77,-347.86 349.2,-349.76 342.23,-341.78 338.77,-347.86"/>
</a>
</g>
<text xml:space="preserve" text-anchor="start" x="307.28" y="-313.5" font-family="Helvetica,sans-Serif" font-size="10.00" fill="grey">irep</text>
</g>
<!-- Node3&#45;&gt;Node3 -->
<g id="edge5_Node000003_Node000003" class="edge">
<title>Node3&#45;&gt;Node3</title>
<g id="a_edge5_Node000003_Node000003"><a xlink:title=" ">
<path fill="none" stroke="#9a32cd" stroke-dasharray="5,2" d="M405.31,-367.8C409.24,-366.46 411.75,-364.19 411.75,-361 411.75,-355.33 403.82,-352.58 394.09,-352.76"/>
<polygon fill="#9a32cd" stroke="#9a32cd" points="405.06,-364.3 395.59,-369.05 405.96,-371.24 405.06,-364.3"/>
</a>
</g>
<text xml:space="preserve" text-anchor="start" x="414.75" y="-357.5" font-family="Helvetica,sans-Serif" font-size="10.00" fill="grey">reps</text>
</g>
<!-- Node4 -->
<g id="Node000004" class="node">
<title>Node4</title>
<g id="a_Node000004"><a xlink:href="structmrb__pool__value.html" target="_top" xlink:title=" ">
<polygon fill="white" stroke="#bfbfbf" points="386.12,-468 301.88,-468 301.88,-448 386.12,-448 386.12,-468"/>
<text xml:space="preserve" text-anchor="middle" x="344" y="-454.5" font-family="Helvetica,sans-Serif" font-size="10.00">mrb_pool_value</text>
</a>
</g>
</g>
<!-- Node4&#45;&gt;Node3 -->
<g id="edge3_Node000003_Node000004" class="edge">
<title>Node4&#45;&gt;Node3</title>
<g id="a_edge3_Node000003_Node000004"><a xlink:title=" ">
<path fill="none" stroke="#9a32cd" stroke-dasharray="5,2" d="M348.97,-436.47C353.85,-416.31 361.07,-386.47 364.72,-371.42"/>
<polygon fill="#9a32cd" stroke="#9a32cd" points="345.6,-435.53 346.65,-446.07 352.4,-437.18 345.6,-435.53"/>
</a>
</g>
<text xml:space="preserve" text-anchor="start" x="361.24" y="-409.5" font-family="Helvetica,sans-Serif" font-size="10.00" fill="grey">pool</text>
</g>
<!-- Node5 -->
<g id="Node000005" class="node">
<title>Node5</title>
<g id="a_Node000005"><a xlink:href="classmrb__sym.html" target="_top" xlink:title=" ">
<polygon fill="white" stroke="#666666" points="460.25,-468 403.75,-468 403.75,-448 460.25,-448 460.25,-468"/>
<text xml:space="preserve" text-anchor="middle" x="432" y="-454.5" font-family="Helvetica,sans-Serif" font-size="10.00">mrb_sym</text>
</a>
</g>
</g>
<!-- Node5&#45;&gt;Node3 -->
<g id="edge4_Node000003_Node000005" class="edge">
<title>Node5&#45;&gt;Node3</title>
<g id="a_edge4_Node000003_Node000005"><a xlink:title=" ">
<path fill="none" stroke="#9a32cd" stroke-dasharray="5,2" d="M419.1,-438.15C405.32,-418.01 384.04,-386.9 373.44,-371.42"/>
<polygon fill="#9a32cd" stroke="#9a32cd" points="416.14,-440.02 424.68,-446.29 421.92,-436.07 416.14,-440.02"/>
</a>
</g>
<text xml:space="preserve" text-anchor="start" x="415.79" y="-417.5" font-family="Helvetica,sans-Serif" font-size="10.00" fill="grey">lv</text>
<text xml:space="preserve" text-anchor="start" x="415.79" y="-401.5" font-family="Helvetica,sans-Serif" font-size="10.00" fill="grey">syms</text>
</g>
<!-- Node6 -->
<g id="Node000006" class="node">
<title>Node6</title>
<g id="a_Node000006"><a xlink:href="structmrb__irep__debug__info.html" target="_top" xlink:title=" ">
<polygon fill="white" stroke="#bfbfbf" points="626,-468 520,-468 520,-448 626,-448 626,-468"/>
<text xml:space="preserve" text-anchor="middle" x="573" y="-454.5" font-family="Helvetica,sans-Serif" font-size="10.00">mrb_irep_debug_info</text>
</a>
</g>
</g>
<!-- Node6&#45;&gt;Node3 -->
<g id="edge6_Node000003_Node000006" class="edge">
<title>Node6&#45;&gt;Node3</title>
<g id="a_edge6_Node000003_Node000006"><a xlink:title=" ">
<path fill="none" stroke="#9a32cd" stroke-dasharray="5,2" d="M544.29,-442.6C518.87,-429.98 480.69,-411.3 447,-396 427.9,-387.32 405.96,-378.05 389.89,-371.38"/>
<polygon fill="#9a32cd" stroke="#9a32cd" points="542.48,-445.61 553,-446.94 545.61,-439.35 542.48,-445.61"/>
</a>
</g>
<text xml:space="preserve" text-anchor="start" x="518.82" y="-409.5" font-family="Helvetica,sans-Serif" font-size="10.00" fill="grey">debug_info</text>
</g>
<!-- Node7 -->
<g id="Node000007" class="node">
<title>Node7</title>
<g id="a_Node000007"><a xlink:href="structmrb__irep__debug__info__file.html" target="_top" xlink:title=" ">
<polygon fill="white" stroke="#bfbfbf" points="640,-544 516,-544 516,-524 640,-524 640,-544"/>
<text xml:space="preserve" text-anchor="middle" x="578" y="-530.5" font-family="Helvetica,sans-Serif" font-size="10.00">mrb_irep_debug_info_file</text>
</a>
</g>
</g>
<!-- Node7&#45;&gt;Node6 -->
<g id="edge7_Node000006_Node000007" class="edge">
<title>Node7&#45;&gt;Node6</title>
<g id="a_edge7_Node000006_Node000007"><a xlink:title=" ">
<path fill="none" stroke="#9a32cd" stroke-dasharray="5,2" d="M576.6,-512.23C575.61,-497.69 574.35,-478.99 573.61,-468.06"/>
<polygon fill="#9a32cd" stroke="#9a32cd" points="573.1,-512.38 577.26,-522.12 580.08,-511.9 573.1,-512.38"/>
</a>
</g>
<text xml:space="preserve" text-anchor="start" x="579.09" y="-492.5" font-family="Helvetica,sans-Serif" font-size="10.00" fill="grey">files</text>
</g>
<!-- Node8 -->
<g id="Node000008" class="node">
<title>Node8</title>
<g id="a_Node000008"><a xlink:href="structmrb__irep__debug__info__line.html" target="_top" xlink:title=" ">
<polygon fill="white" stroke="#bfbfbf" points="641.12,-618 514.88,-618 514.88,-598 641.12,-598 641.12,-618"/>
<text xml:space="preserve" text-anchor="middle" x="578" y="-604.5" font-family="Helvetica,sans-Serif" font-size="10.00">mrb_irep_debug_info_line</text>
</a>
</g>
</g>
<!-- Node8&#45;&gt;Node7 -->
<g id="edge8_Node000007_Node000008" class="edge">
<title>Node8&#45;&gt;Node7</title>
<g id="a_edge8_Node000007_Node000008"><a xlink:title=" ">
<path fill="none" stroke="#9a32cd" stroke-dasharray="5,2" d="M578,-586.18C578,-572.29 578,-554.71 578,-544.19"/>
<polygon fill="#9a32cd" stroke="#9a32cd" points="574.5,-586.07 578,-596.07 581.5,-586.07 574.5,-586.07"/>
</a>
</g>
<text xml:space="preserve" text-anchor="start" x="581" y="-567.5" font-family="Helvetica,sans-Serif" font-size="10.00" fill="grey">flat_map</text>
</g>
<!-- Node9 -->
<g id="Node000009" class="node">
<title>Node9</title>
<g id="a_Node000009"><a xlink:href="structmrb__value.html" target="_top" xlink:title=" ">
<polygon fill="white" stroke="#bfbfbf" points="215.5,-618 154.5,-618 154.5,-598 215.5,-598 215.5,-618"/>
<text xml:space="preserve" text-anchor="middle" x="185" y="-604.5" font-family="Helvetica,sans-Serif" font-size="10.00">mrb_value</text>
</a>
</g>
</g>
<!-- Node9&#45;&gt;Node1 -->
<g id="edge30_Node000001_Node000009" class="edge">
<title>Node9&#45;&gt;Node1</title>
<g id="a_edge30_Node000001_Node000009"><a xlink:title=" ">
<path fill="none" stroke="#9a32cd" stroke-dasharray="5,2" d="M167.23,-588.88C165.25,-586.08 163.51,-583.09 162.25,-580 157.53,-568.39 157.44,-553.71 158.04,-544.34"/>
<polygon fill="#9a32cd" stroke="#9a32cd" points="164.37,-590.92 173.46,-596.35 169.74,-586.43 164.37,-590.92"/>
</a>
</g>
<text xml:space="preserve" text-anchor="start" x="165.25" y="-567.5" font-family="Helvetica,sans-Serif" font-size="10.00" fill="grey">func</text>
</g>
<!-- Node9&#45;&gt;Node2 -->
<g id="edge9_Node000002_Node000009" class="edge">
<title>Node9&#45;&gt;Node2</title>
<g id="a_edge9_Node000002_Node000009"><a xlink:title=" ">
<path fill="none" stroke="#9a32cd" stroke-dasharray="5,2" d="M215.95,-592.03C236.23,-579.82 259,-560.45 259,-535 259,-535 259,-535 259,-360 259,-332.04 238.24,-304.34 225.91,-290.36"/>
<polygon fill="#9a32cd" stroke="#9a32cd" points="214.34,-588.92 207.33,-596.85 217.76,-595.02 214.34,-588.92"/>
</a>
</g>
<text xml:space="preserve" text-anchor="start" x="262" y="-454.5" font-family="Helvetica,sans-Serif" font-size="10.00" fill="grey">func</text>
</g>
<!-- Node12 -->
<g id="Node000012" class="node">
<title>Node12</title>
<g id="a_Node000012"><a xlink:href="structiv__tbl.html" target="_top" xlink:title=" ">
<polygon fill="white" stroke="#bfbfbf" points="228.62,-506 189.38,-506 189.38,-486 228.62,-486 228.62,-506"/>
<text xml:space="preserve" text-anchor="middle" x="209" y="-492.5" font-family="Helvetica,sans-Serif" font-size="10.00">iv_tbl</text>
</a>
</g>
</g>
<!-- Node9&#45;&gt;Node12 -->
<g id="edge14_Node000012_Node000009" class="edge">
<title>Node9&#45;&gt;Node12</title>
<g id="a_edge14_Node000012_Node000009"><a xlink:title=" ">
<path fill="none" stroke="#9a32cd" stroke-dasharray="5,2" d="M189.44,-586.64C194.66,-562.72 203.1,-524.03 206.96,-506.35"/>
<polygon fill="#9a32cd" stroke="#9a32cd" points="186.08,-585.63 187.37,-596.14 192.92,-587.12 186.08,-585.63"/>
</a>
</g>
<text xml:space="preserve" text-anchor="start" x="197.45" y="-567.5" font-family="Helvetica,sans-Serif" font-size="10.00" fill="grey">ptr</text>
</g>
<!-- Node14 -->
<g id="Node000014" class="node">
<title>Node14</title>
<g id="a_Node000014"><a xlink:href="structREnv.html" target="_top" xlink:title=" ">
<polygon fill="white" stroke="#666666" points="212.38,-20 171.62,-20 171.62,0 212.38,0 212.38,-20"/>
<text xml:space="preserve" text-anchor="middle" x="192" y="-6.5" font-family="Helvetica,sans-Serif" font-size="10.00">REnv</text>
</a>
</g>
</g>
<!-- Node9&#45;&gt;Node14 -->
<g id="edge19_Node000014_Node000009" class="edge">
<title>Node9&#45;&gt;Node14</title>
<g id="a_edge19_Node000014_Node000009"><a xlink:title=" ">
<path fill="none" stroke="#9a32cd" stroke-dasharray="5,2" d="M227.04,-605.72C310.26,-602.05 488,-588.01 488,-535 488,-535 488,-535 488,-83 488,-26.28 280.19,-14.06 212.81,-11.59"/>
<polygon fill="#9a32cd" stroke="#9a32cd" points="227.08,-602.22 217.23,-606.12 227.37,-609.21 227.08,-602.22"/>
</a>
</g>
<text xml:space="preserve" text-anchor="start" x="491" y="-313.5" font-family="Helvetica,sans-Serif" font-size="10.00" fill="grey">stack</text>
</g>
<!-- Node15 -->
<g id="Node000015" class="node">
<title>Node15</title>
<g id="a_Node000015"><a xlink:href="structmrb__context.html" target="_top" xlink:title=" ">
<polygon fill="white" stroke="#bfbfbf" points="88,-94 18,-94 18,-74 88,-74 88,-94"/>
<text xml:space="preserve" text-anchor="middle" x="53" y="-80.5" font-family="Helvetica,sans-Serif" font-size="10.00">mrb_context</text>
</a>
</g>
</g>
<!-- Node9&#45;&gt;Node15 -->
<g id="edge22_Node000015_Node000009" class="edge">
<title>Node9&#45;&gt;Node15</title>
<g id="a_edge22_Node000015_Node000009"><a xlink:title=" ">
<path fill="none" stroke="#9a32cd" stroke-dasharray="5,2" d="M142.94,-599.36C88.35,-588.22 0,-565.49 0,-535 0,-535 0,-535 0,-189 0,-150.5 29.19,-111.86 44.25,-94.5"/>
<polygon fill="#9a32cd" stroke="#9a32cd" points="142.06,-602.75 152.55,-601.27 143.42,-595.89 142.06,-602.75"/>
</a>
</g>
<text xml:space="preserve" text-anchor="start" x="3" y="-365.5" font-family="Helvetica,sans-Serif" font-size="10.00" fill="grey">stbase</text>
<text xml:space="preserve" text-anchor="start" x="3" y="-349.5" font-family="Helvetica,sans-Serif" font-size="10.00" fill="grey">stend</text>
</g>
<!-- Node9&#45;&gt;Node16 -->
<g id="edge25_Node000016_Node000009" class="edge">
<title>Node9&#45;&gt;Node16</title>
<g id="a_edge25_Node000016_Node000009"><a xlink:title=" ">
<path fill="none" stroke="#9a32cd" stroke-dasharray="5,2" d="M143.15,-600.06C107.84,-591.52 63,-573.17 63,-535 63,-535 63,-535 63,-279 63,-247.13 87.28,-215.61 100.94,-200.4"/>
<polygon fill="#9a32cd" stroke="#9a32cd" points="142.22,-603.43 152.74,-602.17 143.72,-596.6 142.22,-603.43"/>
</a>
</g>
<text xml:space="preserve" text-anchor="start" x="66" y="-409.5" font-family="Helvetica,sans-Serif" font-size="10.00" fill="grey">stack</text>
</g>
<!-- Node10 -->
<g id="Node000010" class="node">
<title>Node10</title>
<g id="a_Node000010"><a xlink:href="unionmrb__value__union.html" target="_top" xlink:title=" ">
<polygon fill="white" stroke="#bfbfbf" points="229.75,-692 140.25,-692 140.25,-672 229.75,-672 229.75,-692"/>
<text xml:space="preserve" text-anchor="middle" x="185" y="-678.5" font-family="Helvetica,sans-Serif" font-size="10.00">mrb_value_union</text>
</a>
</g>
</g>
<!-- Node10&#45;&gt;Node9 -->
<g id="edge10_Node000009_Node000010" class="edge">
<title>Node10&#45;&gt;Node9</title>
<g id="a_edge10_Node000009_Node000010"><a xlink:title=" ">
<path fill="none" stroke="#9a32cd" stroke-dasharray="5,2" d="M185,-660.18C185,-646.29 185,-628.71 185,-618.19"/>
<polygon fill="#9a32cd" stroke="#9a32cd" points="181.5,-660.07 185,-670.07 188.5,-660.07 181.5,-660.07"/>
</a>
</g>
<text xml:space="preserve" text-anchor="start" x="188" y="-641.5" font-family="Helvetica,sans-Serif" font-size="10.00" fill="grey">value</text>
</g>
<!-- Node11 -->
<g id="Node000011" class="node">
<title>Node11</title>
<g id="a_Node000011"><a xlink:href="structRClass.html" target="_top" xlink:title=" ">
<polygon fill="white" stroke="#666666" points="140.5,-371 91.5,-371 91.5,-351 140.5,-351 140.5,-371"/>
<text xml:space="preserve" text-anchor="middle" x="116" y="-357.5" font-family="Helvetica,sans-Serif" font-size="10.00">RClass</text>
</a>
</g>
</g>
<!-- Node11&#45;&gt;Node2 -->
<g id="edge12_Node000002_Node000011" class="edge">
<title>Node11&#45;&gt;Node2</title>
<g id="a_edge12_Node000002_Node000011"><a xlink:title=" ">
<path fill="none" stroke="#9a32cd" stroke-dasharray="5,2" d="M122.65,-340.02C127.12,-329.26 134.01,-316.49 143.75,-308 158.16,-295.44 178.91,-288.53 194.66,-284.85"/>
<polygon fill="#9a32cd" stroke="#9a32cd" points="119.44,-338.6 119.24,-349.19 126,-341.04 119.44,-338.6"/>
</a>
</g>
<text xml:space="preserve" text-anchor="start" x="146.75" y="-313.5" font-family="Helvetica,sans-Serif" font-size="10.00" fill="grey">target_class</text>
</g>
<!-- Node11&#45;&gt;Node11 -->
<g id="edge17_Node000011_Node000011" class="edge">
<title>Node11&#45;&gt;Node11</title>
<g id="a_edge17_Node000011_Node000011"><a xlink:title=" ">
<path fill="none" stroke="#9a32cd" stroke-dasharray="5,2" d="M152.04,-367.91C155.97,-366.59 158.5,-364.29 158.5,-361 158.5,-355.16 150.5,-352.42 140.88,-352.78"/>
<polygon fill="#9a32cd" stroke="#9a32cd" points="151.91,-364.41 142.39,-369.04 152.72,-371.36 151.91,-364.41"/>
</a>
</g>
<text xml:space="preserve" text-anchor="start" x="161.5" y="-357.5" font-family="Helvetica,sans-Serif" font-size="10.00" fill="grey">super</text>
</g>
<!-- Node11&#45;&gt;Node16 -->
<g id="edge27_Node000016_Node000011" class="edge">
<title>Node11&#45;&gt;Node16</title>
<g id="a_edge27_Node000016_Node000011"><a xlink:title=" ">
<path fill="none" stroke="#9a32cd" stroke-dasharray="5,2" d="M115.28,-339.68C113.97,-302.85 111.26,-226.44 110.32,-200.13"/>
<polygon fill="#9a32cd" stroke="#9a32cd" points="111.77,-339.53 115.62,-349.4 118.77,-339.28 111.77,-339.53"/>
</a>
</g>
<text xml:space="preserve" text-anchor="start" x="116.5" y="-276.5" font-family="Helvetica,sans-Serif" font-size="10.00" fill="grey">target_class</text>
</g>
<!-- Node12&#45;&gt;Node11 -->
<g id="edge13_Node000011_Node000012" class="edge">
<title>Node12&#45;&gt;Node11</title>
<g id="a_edge13_Node000011_Node000012"><a xlink:title=" ">
<path fill="none" stroke="#9a32cd" stroke-dasharray="5,2" d="M211.58,-474.53C213.17,-452.82 212.27,-418.6 195,-396 181.95,-378.91 158.58,-370.29 140.64,-366.02"/>
<polygon fill="#9a32cd" stroke="#9a32cd" points="208.12,-473.88 210.61,-484.18 215.09,-474.58 208.12,-473.88"/>
</a>
</g>
<text xml:space="preserve" text-anchor="start" x="215.12" y="-454.5" font-family="Helvetica,sans-Serif" font-size="10.00" fill="grey">iv</text>
</g>
<!-- Node13&#45;&gt;Node11 -->
<g id="edge15_Node000011_Node000013" class="edge">
<title>Node13&#45;&gt;Node11</title>
<g id="a_edge15_Node000011_Node000013"><a xlink:title=" ">
<path fill="none" stroke="#9a32cd" stroke-dasharray="5,2" d="M113.66,-436.18C114.29,-416.03 115.23,-386.4 115.7,-371.42"/>
<polygon fill="#9a32cd" stroke="#9a32cd" points="110.16,-435.93 113.35,-446.03 117.16,-436.15 110.16,-435.93"/>
</a>
</g>
<text xml:space="preserve" text-anchor="start" x="117.86" y="-409.5" font-family="Helvetica,sans-Serif" font-size="10.00" fill="grey">mt</text>
</g>
<!-- Node14&#45;&gt;Node2 -->
<g id="edge18_Node000002_Node000014" class="edge">
<title>Node14&#45;&gt;Node2</title>
<g id="a_edge18_Node000002_Node000014"><a xlink:title=" ">
<path fill="none" stroke="#9a32cd" stroke-dasharray="5,2" d="M194.36,-31.84C194.58,-33.92 194.8,-36 195,-38 204.14,-128.29 213.52,-237.79 216.23,-269.8"/>
<polygon fill="#9a32cd" stroke="#9a32cd" points="197.85,-31.55 193.27,-22 190.89,-32.32 197.85,-31.55"/>
</a>
</g>
<text xml:space="preserve" text-anchor="start" x="209.77" y="-133.5" font-family="Helvetica,sans-Serif" font-size="10.00" fill="grey">env</text>
</g>
<!-- Node14&#45;&gt;Node16 -->
<g id="edge26_Node000016_Node000014" class="edge">
<title>Node14&#45;&gt;Node16</title>
<g id="a_edge26_Node000016_Node000014"><a xlink:title=" ">
<path fill="none" stroke="#9a32cd" stroke-dasharray="5,2" d="M186.4,-31.4C177.66,-61.37 159.04,-118.46 133,-162 129.21,-168.34 123.92,-174.67 119.37,-179.61"/>
<polygon fill="#9a32cd" stroke="#9a32cd" points="189.76,-32.37 189.12,-21.79 183.03,-30.46 189.76,-32.37"/>
</a>
</g>
<text xml:space="preserve" text-anchor="start" x="175.07" y="-80.5" font-family="Helvetica,sans-Serif" font-size="10.00" fill="grey">env</text>
</g>
<!-- Node15&#45;&gt;Node14 -->
<g id="edge20_Node000014_Node000015" class="edge">
<title>Node15&#45;&gt;Node14</title>
<g id="a_edge20_Node000014_Node000015"><a xlink:title=" ">
<path fill="none" stroke="#9a32cd" stroke-dasharray="5,2" d="M78.38,-68.15C94.09,-59.12 114.77,-47.54 133.5,-38 145.86,-31.71 159.97,-25.17 171.24,-20.11"/>
<polygon fill="#9a32cd" stroke="#9a32cd" points="77.05,-64.87 70.15,-72.91 80.56,-70.93 77.05,-64.87"/>
</a>
</g>
<text xml:space="preserve" text-anchor="start" x="136.5" y="-43.5" font-family="Helvetica,sans-Serif" font-size="10.00" fill="grey">cxt</text>
</g>
<!-- Node15&#45;&gt;Node15 -->
<g id="edge21_Node000015_Node000015" class="edge">
<title>Node15&#45;&gt;Node15</title>
<g id="a_edge21_Node000015_Node000015"><a xlink:title=" ">
<path fill="none" stroke="#9a32cd" stroke-dasharray="5,2" d="M99.27,-89.48C103.41,-88.33 106,-86.51 106,-84 106,-79.66 98.24,-77.36 88.17,-77.09"/>
<polygon fill="#9a32cd" stroke="#9a32cd" points="99.14,-85.97 89.67,-90.72 100.03,-92.91 99.14,-85.97"/>
</a>
</g>
<text xml:space="preserve" text-anchor="start" x="109" y="-80.5" font-family="Helvetica,sans-Serif" font-size="10.00" fill="grey">prev</text>
</g>
<!-- Node17 -->
<g id="Node000017" class="node">
<title>Node17</title>
<g id="a_Node000017"><a xlink:href="structRFiber.html" target="_top" xlink:title=" ">
<polygon fill="white" stroke="#bfbfbf" points="64.62,-20 19.38,-20 19.38,0 64.62,0 64.62,-20"/>
<text xml:space="preserve" text-anchor="middle" x="42" y="-6.5" font-family="Helvetica,sans-Serif" font-size="10.00">RFiber</text>
</a>
</g>
</g>
<!-- Node15&#45;&gt;Node17 -->
<g id="edge29_Node000017_Node000015" class="edge">
<title>Node15&#45;&gt;Node17</title>
<g id="a_edge29_Node000017_Node000015"><a xlink:title=" ">
<path fill="none" stroke="#9a32cd" stroke-dasharray="5,2" d="M49.88,-62.6C47.75,-48.65 45.03,-30.82 43.4,-20.19"/>
<polygon fill="#9a32cd" stroke="#9a32cd" points="46.36,-62.73 51.33,-72.09 53.28,-61.68 46.36,-62.73"/>
</a>
</g>
<text xml:space="preserve" text-anchor="start" x="51.81" y="-43.5" font-family="Helvetica,sans-Serif" font-size="10.00" fill="grey">cxt</text>
</g>
<!-- Node16&#45;&gt;Node15 -->
<g id="edge23_Node000015_Node000016" class="edge">
<title>Node16&#45;&gt;Node15</title>
<g id="a_edge23_Node000015_Node000016"><a xlink:title=" ">
<path fill="none" stroke="#9a32cd" stroke-dasharray="5,2" d="M99.45,-169.75C87.18,-147.35 67.41,-111.3 58.13,-94.36"/>
<polygon fill="#9a32cd" stroke="#9a32cd" points="96.34,-171.36 104.21,-178.44 102.48,-167.99 96.34,-171.36"/>
</a>
</g>
<text xml:space="preserve" text-anchor="start" x="97.71" y="-149.5" font-family="Helvetica,sans-Serif" font-size="10.00" fill="grey">ci</text>
<text xml:space="preserve" text-anchor="start" x="97.71" y="-133.5" font-family="Helvetica,sans-Serif" font-size="10.00" fill="grey">cibase</text>
<text xml:space="preserve" text-anchor="start" x="97.71" y="-117.5" font-family="Helvetica,sans-Serif" font-size="10.00" fill="grey">ciend</text>
</g>
<!-- Node17&#45;&gt;Node15 -->
<g id="edge28_Node000015_Node000017" class="edge">
<title>Node17&#45;&gt;Node15</title>
<g id="a_edge28_Node000015_Node000017"><a xlink:title=" ">
<path fill="none" stroke="#9a32cd" stroke-dasharray="5,2" d="M27.29,-29.68C22.7,-37.8 19.72,-47.41 23.5,-56 26.63,-63.12 32.67,-69.17 38.47,-73.74"/>
<polygon fill="#9a32cd" stroke="#9a32cd" points="30.04,-31.87 32.73,-21.62 24.24,-27.95 30.04,-31.87"/>
</a>
</g>
<text xml:space="preserve" text-anchor="start" x="26.5" y="-43.5" font-family="Helvetica,sans-Serif" font-size="10.00" fill="grey">fib</text>
</g>
</g>
</svg>
