<?xml version="1.0" encoding="UTF-8" standalone="no"?>
<!DOCTYPE svg PUBLIC "-//W3C//DTD SVG 1.1//EN"
 "http://www.w3.org/Graphics/SVG/1.1/DTD/svg11.dtd">
<!-- Generated by graphviz version 14.0.5 (0)
 -->
<!-- Title: managed_components/espressif__nghttp/nghttp2/third&#45;party/mruby/include/mruby/value.h Pages: 1 -->
<svg width="1743pt" height="536pt"
 viewBox="0.00 0.00 1743.00 536.00" xmlns="http://www.w3.org/2000/svg" xmlns:xlink="http://www.w3.org/1999/xlink">
<g id="graph0" class="graph" transform="scale(1 1) rotate(0) translate(4 532)">
<title>managed_components/espressif__nghttp/nghttp2/third&#45;party/mruby/include/mruby/value.h</title>
<!-- Node1 -->
<g id="Node000001" class="node">
<title>Node1</title>
<g id="a_Node000001"><a xlink:title=" ">
<polygon fill="#999999" stroke="#666666" points="986.5,-528 855,-528 855,-472 986.5,-472 986.5,-528"/>
<text xml:space="preserve" text-anchor="start" x="863" y="-514.5" font-family="Helvetica,sans-Serif" font-size="10.00">managed_components</text>
<text xml:space="preserve" text-anchor="start" x="863" y="-502.5" font-family="Helvetica,sans-Serif" font-size="10.00">/espressif__nghttp/nghttp2</text>
<text xml:space="preserve" text-anchor="start" x="863" y="-490.5" font-family="Helvetica,sans-Serif" font-size="10.00">/third&#45;party/mruby/include</text>
<text xml:space="preserve" text-anchor="middle" x="920.75" y="-478.5" font-family="Helvetica,sans-Serif" font-size="10.00">/mruby/value.h</text>
</a>
</g>
</g>
<!-- Node2 -->
<g id="Node000002" class="node">
<title>Node2</title>
<g id="a_Node000002"><a xlink:href="mruby_8h.html" target="_top" xlink:title=" ">
<polygon fill="white" stroke="#666666" points="986.5,-436 855,-436 855,-380 986.5,-380 986.5,-436"/>
<text xml:space="preserve" text-anchor="start" x="863" y="-422.5" font-family="Helvetica,sans-Serif" font-size="10.00">managed_components</text>
<text xml:space="preserve" text-anchor="start" x="863" y="-410.5" font-family="Helvetica,sans-Serif" font-size="10.00">/espressif__nghttp/nghttp2</text>
<text xml:space="preserve" text-anchor="start" x="863" y="-398.5" font-family="Helvetica,sans-Serif" font-size="10.00">/third&#45;party/mruby/include</text>
<text xml:space="preserve" text-anchor="middle" x="920.75" y="-386.5" font-family="Helvetica,sans-Serif" font-size="10.00">/mruby.h</text>
</a>
</g>
</g>
<!-- Node1&#45;&gt;Node2 -->
<g id="edge1_Node000001_Node000002" class="edge">
<title>Node1&#45;&gt;Node2</title>
<g id="a_edge1_Node000001_Node000002"><a xlink:title=" ">
<path fill="none" stroke="#63b8ff" d="M920.75,-460.09C920.75,-452.08 920.75,-443.81 920.75,-436.32"/>
<polygon fill="#63b8ff" stroke="#63b8ff" points="917.25,-459.99 920.75,-469.99 924.25,-459.99 917.25,-459.99"/>
</a>
</g>
</g>
<!-- Node3 -->
<g id="Node000003" class="node">
<title>Node3</title>
<g id="a_Node000003"><a xlink:href="shrpx__mruby_8h_source.html" target="_top" xlink:title=" ">
<polygon fill="white" stroke="#666666" points="291.5,-44 160,-44 160,0 291.5,0 291.5,-44"/>
<text xml:space="preserve" text-anchor="start" x="168" y="-30.5" font-family="Helvetica,sans-Serif" font-size="10.00">managed_components</text>
<text xml:space="preserve" text-anchor="start" x="168" y="-18.5" font-family="Helvetica,sans-Serif" font-size="10.00">/espressif__nghttp/nghttp2</text>
<text xml:space="preserve" text-anchor="middle" x="225.75" y="-6.5" font-family="Helvetica,sans-Serif" font-size="10.00">/src/shrpx_mruby.h</text>
</a>
</g>
</g>
<!-- Node2&#45;&gt;Node3 -->
<g id="edge2_Node000002_Node000003" class="edge">
<title>Node2&#45;&gt;Node3</title>
<g id="a_edge2_Node000002_Node000003"><a xlink:title=" ">
<path fill="none" stroke="#63b8ff" d="M843.3,-403.37C698.95,-395.87 400.31,-376.58 366.75,-344 281.69,-261.43 396.09,-177.56 328.75,-80 318.19,-64.69 302.12,-53.07 285.79,-44.44"/>
<polygon fill="#63b8ff" stroke="#63b8ff" points="843,-406.86 853.16,-403.88 843.36,-399.87 843,-406.86"/>
</a>
</g>
</g>
<!-- Node4 -->
<g id="Node000004" class="node">
<title>Node4</title>
<g id="a_Node000004"><a xlink:href="shrpx__mruby__module_8h_source.html" target="_top" xlink:title=" ">
<polygon fill="white" stroke="#666666" points="512.12,-332 375.38,-332 375.38,-288 512.12,-288 512.12,-332"/>
<text xml:space="preserve" text-anchor="start" x="383.38" y="-318.5" font-family="Helvetica,sans-Serif" font-size="10.00">managed_components</text>
<text xml:space="preserve" text-anchor="start" x="383.38" y="-306.5" font-family="Helvetica,sans-Serif" font-size="10.00">/espressif__nghttp/nghttp2</text>
<text xml:space="preserve" text-anchor="middle" x="443.75" y="-294.5" font-family="Helvetica,sans-Serif" font-size="10.00">/src/shrpx_mruby_module.h</text>
</a>
</g>
</g>
<!-- Node2&#45;&gt;Node4 -->
<g id="edge3_Node000002_Node000004" class="edge">
<title>Node2&#45;&gt;Node4</title>
<g id="a_edge3_Node000002_Node000004"><a xlink:title=" ">
<path fill="none" stroke="#63b8ff" d="M843.37,-400.56C761.88,-392.46 630.43,-375.6 520.75,-344 510.13,-340.94 499.03,-336.79 488.67,-332.46"/>
<polygon fill="#63b8ff" stroke="#63b8ff" points="842.74,-404.02 853.03,-401.5 843.41,-397.05 842.74,-404.02"/>
</a>
</g>
</g>
<!-- Node5 -->
<g id="Node000005" class="node">
<title>Node5</title>
<g id="a_Node000005"><a xlink:href="shrpx__mruby__module__env_8h_source.html" target="_top" xlink:title=" ">
<polygon fill="white" stroke="#666666" points="687.25,-332 530.25,-332 530.25,-288 687.25,-288 687.25,-332"/>
<text xml:space="preserve" text-anchor="start" x="538.25" y="-318.5" font-family="Helvetica,sans-Serif" font-size="10.00">managed_components</text>
<text xml:space="preserve" text-anchor="start" x="538.25" y="-306.5" font-family="Helvetica,sans-Serif" font-size="10.00">/espressif__nghttp/nghttp2</text>
<text xml:space="preserve" text-anchor="middle" x="608.75" y="-294.5" font-family="Helvetica,sans-Serif" font-size="10.00">/src/shrpx_mruby_module_env.h</text>
</a>
</g>
</g>
<!-- Node2&#45;&gt;Node5 -->
<g id="edge4_Node000002_Node000005" class="edge">
<title>Node2&#45;&gt;Node5</title>
<g id="a_edge4_Node000002_Node000005"><a xlink:title=" ">
<path fill="none" stroke="#63b8ff" d="M843.68,-387.25C800,-375.6 744.49,-360.03 695.75,-344 685.01,-340.47 673.64,-336.4 662.78,-332.35"/>
<polygon fill="#63b8ff" stroke="#63b8ff" points="842.78,-390.63 853.35,-389.81 844.58,-383.87 842.78,-390.63"/>
</a>
</g>
</g>
<!-- Node6 -->
<g id="Node000006" class="node">
<title>Node6</title>
<g id="a_Node000006"><a xlink:href="shrpx__mruby__module__request_8h_source.html" target="_top" xlink:title=" ">
<polygon fill="white" stroke="#666666" points="836.5,-338 705,-338 705,-282 836.5,-282 836.5,-338"/>
<text xml:space="preserve" text-anchor="start" x="713" y="-324.5" font-family="Helvetica,sans-Serif" font-size="10.00">managed_components</text>
<text xml:space="preserve" text-anchor="start" x="713" y="-312.5" font-family="Helvetica,sans-Serif" font-size="10.00">/espressif__nghttp/nghttp2</text>
<text xml:space="preserve" text-anchor="start" x="713" y="-300.5" font-family="Helvetica,sans-Serif" font-size="10.00">/src/shrpx_mruby_module</text>
<text xml:space="preserve" text-anchor="middle" x="770.75" y="-288.5" font-family="Helvetica,sans-Serif" font-size="10.00">_request.h</text>
</a>
</g>
</g>
<!-- Node2&#45;&gt;Node6 -->
<g id="edge5_Node000002_Node000006" class="edge">
<title>Node2&#45;&gt;Node6</title>
<g id="a_edge5_Node000002_Node000006"><a xlink:title=" ">
<path fill="none" stroke="#63b8ff" d="M868.95,-373.85C850.93,-362.31 830.92,-349.51 813.7,-338.49"/>
<polygon fill="#63b8ff" stroke="#63b8ff" points="866.58,-376.49 876.89,-378.93 870.36,-370.59 866.58,-376.49"/>
</a>
</g>
</g>
<!-- Node7 -->
<g id="Node000007" class="node">
<title>Node7</title>
<g id="a_Node000007"><a xlink:href="shrpx__mruby__module__response_8h_source.html" target="_top" xlink:title=" ">
<polygon fill="white" stroke="#666666" points="986.5,-338 855,-338 855,-282 986.5,-282 986.5,-338"/>
<text xml:space="preserve" text-anchor="start" x="863" y="-324.5" font-family="Helvetica,sans-Serif" font-size="10.00">managed_components</text>
<text xml:space="preserve" text-anchor="start" x="863" y="-312.5" font-family="Helvetica,sans-Serif" font-size="10.00">/espressif__nghttp/nghttp2</text>
<text xml:space="preserve" text-anchor="start" x="863" y="-300.5" font-family="Helvetica,sans-Serif" font-size="10.00">/src/shrpx_mruby_module</text>
<text xml:space="preserve" text-anchor="middle" x="920.75" y="-288.5" font-family="Helvetica,sans-Serif" font-size="10.00">_response.h</text>
</a>
</g>
</g>
<!-- Node2&#45;&gt;Node7 -->
<g id="edge6_Node000002_Node000007" class="edge">
<title>Node2&#45;&gt;Node7</title>
<g id="a_edge6_Node000002_Node000007"><a xlink:title=" ">
<path fill="none" stroke="#63b8ff" d="M920.75,-368.32C920.75,-358.27 920.75,-347.65 920.75,-338.32"/>
<polygon fill="#63b8ff" stroke="#63b8ff" points="917.25,-368.23 920.75,-378.23 924.25,-368.23 917.25,-368.23"/>
</a>
</g>
</g>
<!-- Node8 -->
<g id="Node000008" class="node">
<title>Node8</title>
<g id="a_Node000008"><a xlink:href="compile_8h.html" target="_top" xlink:title=" ">
<polygon fill="white" stroke="#666666" points="281.5,-338 150,-338 150,-282 281.5,-282 281.5,-338"/>
<text xml:space="preserve" text-anchor="start" x="158" y="-324.5" font-family="Helvetica,sans-Serif" font-size="10.00">managed_components</text>
<text xml:space="preserve" text-anchor="start" x="158" y="-312.5" font-family="Helvetica,sans-Serif" font-size="10.00">/espressif__nghttp/nghttp2</text>
<text xml:space="preserve" text-anchor="start" x="158" y="-300.5" font-family="Helvetica,sans-Serif" font-size="10.00">/third&#45;party/mruby/include</text>
<text xml:space="preserve" text-anchor="middle" x="215.75" y="-288.5" font-family="Helvetica,sans-Serif" font-size="10.00">/mruby/compile.h</text>
</a>
</g>
</g>
<!-- Node2&#45;&gt;Node8 -->
<g id="edge7_Node000002_Node000008" class="edge">
<title>Node2&#45;&gt;Node8</title>
<g id="a_edge7_Node000002_Node000008"><a xlink:title=" ">
<path fill="none" stroke="#63b8ff" d="M843.73,-406.39C724.51,-403.85 488.91,-392.47 295.75,-344 289.63,-342.46 283.36,-340.54 277.17,-338.41"/>
<polygon fill="#63b8ff" stroke="#63b8ff" points="843.32,-409.88 853.38,-406.58 843.45,-402.88 843.32,-409.88"/>
</a>
</g>
</g>
<!-- Node10 -->
<g id="Node000010" class="node">
<title>Node10</title>
<g id="a_Node000010"><a xlink:href="dump_8h.html" target="_top" xlink:title=" ">
<polygon fill="white" stroke="#666666" points="319.5,-136 188,-136 188,-80 319.5,-80 319.5,-136"/>
<text xml:space="preserve" text-anchor="start" x="196" y="-122.5" font-family="Helvetica,sans-Serif" font-size="10.00">managed_components</text>
<text xml:space="preserve" text-anchor="start" x="196" y="-110.5" font-family="Helvetica,sans-Serif" font-size="10.00">/espressif__nghttp/nghttp2</text>
<text xml:space="preserve" text-anchor="start" x="196" y="-98.5" font-family="Helvetica,sans-Serif" font-size="10.00">/third&#45;party/mruby/include</text>
<text xml:space="preserve" text-anchor="middle" x="253.75" y="-86.5" font-family="Helvetica,sans-Serif" font-size="10.00">/mruby/dump.h</text>
</a>
</g>
</g>
<!-- Node2&#45;&gt;Node10 -->
<g id="edge12_Node000002_Node000010" class="edge">
<title>Node2&#45;&gt;Node10</title>
<g id="a_edge12_Node000002_Node000010"><a xlink:title=" ">
<path fill="none" stroke="#63b8ff" d="M843.17,-403.57C692.44,-396.2 371.44,-376.82 333.75,-344 274.32,-292.26 320.56,-244.94 290.75,-172 285.76,-159.79 278.72,-147.1 272.11,-136.34"/>
<polygon fill="#63b8ff" stroke="#63b8ff" points="842.92,-407.06 853.08,-404.05 843.26,-400.07 842.92,-407.06"/>
</a>
</g>
</g>
<!-- Node12 -->
<g id="Node000012" class="node">
<title>Node12</title>
<g id="a_Node000012"><a xlink:href="khash_8h.html" target="_top" xlink:title=" ">
<polygon fill="white" stroke="#666666" points="131.5,-234 0,-234 0,-178 131.5,-178 131.5,-234"/>
<text xml:space="preserve" text-anchor="start" x="8" y="-220.5" font-family="Helvetica,sans-Serif" font-size="10.00">managed_components</text>
<text xml:space="preserve" text-anchor="start" x="8" y="-208.5" font-family="Helvetica,sans-Serif" font-size="10.00">/espressif__nghttp/nghttp2</text>
<text xml:space="preserve" text-anchor="start" x="8" y="-196.5" font-family="Helvetica,sans-Serif" font-size="10.00">/third&#45;party/mruby/include</text>
<text xml:space="preserve" text-anchor="middle" x="65.75" y="-184.5" font-family="Helvetica,sans-Serif" font-size="10.00">/mruby/khash.h</text>
</a>
</g>
</g>
<!-- Node2&#45;&gt;Node12 -->
<g id="edge13_Node000002_Node000012" class="edge">
<title>Node2&#45;&gt;Node12</title>
<g id="a_edge13_Node000002_Node000012"><a xlink:title=" ">
<path fill="none" stroke="#63b8ff" d="M843.41,-404.89C657.92,-399.25 198.78,-381.62 140.75,-344 101.96,-318.85 81.57,-266.43 72.28,-234.22"/>
<polygon fill="#63b8ff" stroke="#63b8ff" points="843.09,-408.38 853.19,-405.18 843.3,-401.39 843.09,-408.38"/>
</a>
</g>
</g>
<!-- Node13 -->
<g id="Node000013" class="node">
<title>Node13</title>
<g id="a_Node000013"><a xlink:href="apibreak_8h_source.html" target="_top" xlink:title=" ">
<polygon fill="white" stroke="#666666" points="1033.75,-240 897.75,-240 897.75,-172 1033.75,-172 1033.75,-240"/>
<text xml:space="preserve" text-anchor="start" x="905.75" y="-226.5" font-family="Helvetica,sans-Serif" font-size="10.00">managed_components</text>
<text xml:space="preserve" text-anchor="start" x="905.75" y="-214.5" font-family="Helvetica,sans-Serif" font-size="10.00">/espressif__nghttp/nghttp2</text>
<text xml:space="preserve" text-anchor="start" x="905.75" y="-202.5" font-family="Helvetica,sans-Serif" font-size="10.00">/third&#45;party/mruby/mrbgems</text>
<text xml:space="preserve" text-anchor="start" x="905.75" y="-190.5" font-family="Helvetica,sans-Serif" font-size="10.00">/mruby&#45;bin&#45;debugger/tools</text>
<text xml:space="preserve" text-anchor="middle" x="965.75" y="-178.5" font-family="Helvetica,sans-Serif" font-size="10.00">/mrdb/apibreak.h</text>
</a>
</g>
</g>
<!-- Node2&#45;&gt;Node13 -->
<g id="edge15_Node000002_Node000013" class="edge">
<title>Node2&#45;&gt;Node13</title>
<g id="a_edge15_Node000002_Node000013"><a xlink:title=" ">
<path fill="none" stroke="#63b8ff" d="M974.42,-372.27C983.07,-364.1 990.8,-354.63 995.75,-344 1011.28,-310.67 998.05,-269 984.59,-240.42"/>
<polygon fill="#63b8ff" stroke="#63b8ff" points="972.28,-369.5 967.05,-378.71 976.89,-374.77 972.28,-369.5"/>
</a>
</g>
</g>
<!-- Node14 -->
<g id="Node000014" class="node">
<title>Node14</title>
<g id="a_Node000014"><a xlink:href="apilist_8h_source.html" target="_top" xlink:title=" ">
<polygon fill="white" stroke="#666666" points="1187.75,-240 1051.75,-240 1051.75,-172 1187.75,-172 1187.75,-240"/>
<text xml:space="preserve" text-anchor="start" x="1059.75" y="-226.5" font-family="Helvetica,sans-Serif" font-size="10.00">managed_components</text>
<text xml:space="preserve" text-anchor="start" x="1059.75" y="-214.5" font-family="Helvetica,sans-Serif" font-size="10.00">/espressif__nghttp/nghttp2</text>
<text xml:space="preserve" text-anchor="start" x="1059.75" y="-202.5" font-family="Helvetica,sans-Serif" font-size="10.00">/third&#45;party/mruby/mrbgems</text>
<text xml:space="preserve" text-anchor="start" x="1059.75" y="-190.5" font-family="Helvetica,sans-Serif" font-size="10.00">/mruby&#45;bin&#45;debugger/tools</text>
<text xml:space="preserve" text-anchor="middle" x="1119.75" y="-178.5" font-family="Helvetica,sans-Serif" font-size="10.00">/mrdb/apilist.h</text>
</a>
</g>
</g>
<!-- Node2&#45;&gt;Node14 -->
<g id="edge16_Node000002_Node000014" class="edge">
<title>Node2&#45;&gt;Node14</title>
<g id="a_edge16_Node000002_Node000014"><a xlink:title=" ">
<path fill="none" stroke="#63b8ff" d="M975.57,-373.53C988.36,-364.65 1001.51,-354.56 1012.75,-344 1030.84,-327.01 1069.86,-275.28 1095.45,-240.48"/>
<polygon fill="#63b8ff" stroke="#63b8ff" points="973.92,-370.42 967.61,-378.93 977.85,-376.22 973.92,-370.42"/>
</a>
</g>
</g>
<!-- Node15 -->
<g id="Node000015" class="node">
<title>Node15</title>
<g id="a_Node000015"><a xlink:href="apiprint_8h_source.html" target="_top" xlink:title=" ">
<polygon fill="white" stroke="#666666" points="1341.75,-240 1205.75,-240 1205.75,-172 1341.75,-172 1341.75,-240"/>
<text xml:space="preserve" text-anchor="start" x="1213.75" y="-226.5" font-family="Helvetica,sans-Serif" font-size="10.00">managed_components</text>
<text xml:space="preserve" text-anchor="start" x="1213.75" y="-214.5" font-family="Helvetica,sans-Serif" font-size="10.00">/espressif__nghttp/nghttp2</text>
<text xml:space="preserve" text-anchor="start" x="1213.75" y="-202.5" font-family="Helvetica,sans-Serif" font-size="10.00">/third&#45;party/mruby/mrbgems</text>
<text xml:space="preserve" text-anchor="start" x="1213.75" y="-190.5" font-family="Helvetica,sans-Serif" font-size="10.00">/mruby&#45;bin&#45;debugger/tools</text>
<text xml:space="preserve" text-anchor="middle" x="1273.75" y="-178.5" font-family="Helvetica,sans-Serif" font-size="10.00">/mrdb/apiprint.h</text>
</a>
</g>
</g>
<!-- Node2&#45;&gt;Node15 -->
<g id="edge17_Node000002_Node000015" class="edge">
<title>Node2&#45;&gt;Node15</title>
<g id="a_edge17_Node000002_Node000015"><a xlink:title=" ">
<path fill="none" stroke="#63b8ff" d="M998.12,-399.7C1077.02,-390.77 1192.44,-373.14 1225.75,-344 1241.54,-330.19 1257.1,-276.39 1266.04,-240.46"/>
<polygon fill="#63b8ff" stroke="#63b8ff" points="997.81,-396.21 988.26,-400.79 998.58,-403.17 997.81,-396.21"/>
</a>
</g>
</g>
<!-- Node16 -->
<g id="Node000016" class="node">
<title>Node16</title>
<g id="a_Node000016"><a xlink:href="apistring_8h_source.html" target="_top" xlink:title=" ">
<polygon fill="white" stroke="#666666" points="1408.75,-344 1272.75,-344 1272.75,-276 1408.75,-276 1408.75,-344"/>
<text xml:space="preserve" text-anchor="start" x="1280.75" y="-330.5" font-family="Helvetica,sans-Serif" font-size="10.00">managed_components</text>
<text xml:space="preserve" text-anchor="start" x="1280.75" y="-318.5" font-family="Helvetica,sans-Serif" font-size="10.00">/espressif__nghttp/nghttp2</text>
<text xml:space="preserve" text-anchor="start" x="1280.75" y="-306.5" font-family="Helvetica,sans-Serif" font-size="10.00">/third&#45;party/mruby/mrbgems</text>
<text xml:space="preserve" text-anchor="start" x="1280.75" y="-294.5" font-family="Helvetica,sans-Serif" font-size="10.00">/mruby&#45;bin&#45;debugger/tools</text>
<text xml:space="preserve" text-anchor="middle" x="1340.75" y="-282.5" font-family="Helvetica,sans-Serif" font-size="10.00">/mrdb/apistring.h</text>
</a>
</g>
</g>
<!-- Node2&#45;&gt;Node16 -->
<g id="edge18_Node000002_Node000016" class="edge">
<title>Node2&#45;&gt;Node16</title>
<g id="a_edge18_Node000002_Node000016"><a xlink:title=" ">
<path fill="none" stroke="#63b8ff" d="M997.99,-397.06C1067.16,-387.11 1170.94,-369.58 1258.75,-344 1263.32,-342.67 1267.98,-341.18 1272.65,-339.58"/>
<polygon fill="#63b8ff" stroke="#63b8ff" points="997.67,-393.57 988.26,-398.44 998.65,-400.5 997.67,-393.57"/>
</a>
</g>
</g>
<!-- Node17 -->
<g id="Node000017" class="node">
<title>Node17</title>
<g id="a_Node000017"><a xlink:href="mrdb_8h_source.html" target="_top" xlink:title=" ">
<polygon fill="white" stroke="#666666" points="1216.75,-344 1080.75,-344 1080.75,-276 1216.75,-276 1216.75,-344"/>
<text xml:space="preserve" text-anchor="start" x="1088.75" y="-330.5" font-family="Helvetica,sans-Serif" font-size="10.00">managed_components</text>
<text xml:space="preserve" text-anchor="start" x="1088.75" y="-318.5" font-family="Helvetica,sans-Serif" font-size="10.00">/espressif__nghttp/nghttp2</text>
<text xml:space="preserve" text-anchor="start" x="1088.75" y="-306.5" font-family="Helvetica,sans-Serif" font-size="10.00">/third&#45;party/mruby/mrbgems</text>
<text xml:space="preserve" text-anchor="start" x="1088.75" y="-294.5" font-family="Helvetica,sans-Serif" font-size="10.00">/mruby&#45;bin&#45;debugger/tools</text>
<text xml:space="preserve" text-anchor="middle" x="1148.75" y="-282.5" font-family="Helvetica,sans-Serif" font-size="10.00">/mrdb/mrdb.h</text>
</a>
</g>
</g>
<!-- Node2&#45;&gt;Node17 -->
<g id="edge19_Node000002_Node000017" class="edge">
<title>Node2&#45;&gt;Node17</title>
<g id="a_edge19_Node000002_Node000017"><a xlink:title=" ">
<path fill="none" stroke="#63b8ff" d="M996.04,-375.3C1023.27,-363.83 1053.85,-350.96 1080.45,-339.76"/>
<polygon fill="#63b8ff" stroke="#63b8ff" points="995.03,-371.93 987.18,-379.03 997.75,-378.38 995.03,-371.93"/>
</a>
</g>
</g>
<!-- Node18 -->
<g id="Node000018" class="node">
<title>Node18</title>
<g id="a_Node000018"><a xlink:href="io_8h_source.html" target="_top" xlink:title=" ">
<polygon fill="white" stroke="#666666" points="1582.5,-338 1427,-338 1427,-282 1582.5,-282 1582.5,-338"/>
<text xml:space="preserve" text-anchor="start" x="1435" y="-324.5" font-family="Helvetica,sans-Serif" font-size="10.00">managed_components</text>
<text xml:space="preserve" text-anchor="start" x="1435" y="-312.5" font-family="Helvetica,sans-Serif" font-size="10.00">/espressif__nghttp/nghttp2</text>
<text xml:space="preserve" text-anchor="start" x="1435" y="-300.5" font-family="Helvetica,sans-Serif" font-size="10.00">/third&#45;party/mruby/mrbgems</text>
<text xml:space="preserve" text-anchor="middle" x="1504.75" y="-288.5" font-family="Helvetica,sans-Serif" font-size="10.00">/mruby&#45;io/include/mruby/ext/io.h</text>
</a>
</g>
</g>
<!-- Node2&#45;&gt;Node18 -->
<g id="edge23_Node000002_Node000018" class="edge">
<title>Node2&#45;&gt;Node18</title>
<g id="a_edge23_Node000002_Node000018"><a xlink:title=" ">
<path fill="none" stroke="#63b8ff" d="M998.14,-402.87C1096.79,-396.31 1272.04,-380.33 1417.75,-344 1424.02,-342.44 1430.45,-340.56 1436.85,-338.5"/>
<polygon fill="#63b8ff" stroke="#63b8ff" points="998.05,-399.36 988.3,-403.5 998.5,-406.35 998.05,-399.36"/>
</a>
</g>
</g>
<!-- Node19 -->
<g id="Node000019" class="node">
<title>Node19</title>
<g id="a_Node000019"><a xlink:href="value__array_8h_source.html" target="_top" xlink:title=" ">
<polygon fill="white" stroke="#666666" points="1735.38,-338 1600.12,-338 1600.12,-282 1735.38,-282 1735.38,-338"/>
<text xml:space="preserve" text-anchor="start" x="1608.12" y="-324.5" font-family="Helvetica,sans-Serif" font-size="10.00">managed_components</text>
<text xml:space="preserve" text-anchor="start" x="1608.12" y="-312.5" font-family="Helvetica,sans-Serif" font-size="10.00">/espressif__nghttp/nghttp2</text>
<text xml:space="preserve" text-anchor="start" x="1608.12" y="-300.5" font-family="Helvetica,sans-Serif" font-size="10.00">/third&#45;party/mruby/src/value</text>
<text xml:space="preserve" text-anchor="middle" x="1667.75" y="-288.5" font-family="Helvetica,sans-Serif" font-size="10.00">_array.h</text>
</a>
</g>
</g>
<!-- Node2&#45;&gt;Node19 -->
<g id="edge24_Node000002_Node000019" class="edge">
<title>Node2&#45;&gt;Node19</title>
<g id="a_edge24_Node000002_Node000019"><a xlink:title=" ">
<path fill="none" stroke="#63b8ff" d="M998.14,-407.59C1124.44,-406.82 1381.86,-397.96 1591.75,-344 1597.6,-342.5 1603.58,-340.6 1609.48,-338.47"/>
<polygon fill="#63b8ff" stroke="#63b8ff" points="998.19,-404.09 988.21,-407.63 998.23,-411.09 998.19,-404.09"/>
</a>
</g>
</g>
<!-- Node9 -->
<g id="Node000009" class="node">
<title>Node9</title>
<g id="a_Node000009"><a xlink:href="irep_8h.html" target="_top" xlink:title=" ">
<polygon fill="white" stroke="#666666" points="281.5,-234 150,-234 150,-178 281.5,-178 281.5,-234"/>
<text xml:space="preserve" text-anchor="start" x="158" y="-220.5" font-family="Helvetica,sans-Serif" font-size="10.00">managed_components</text>
<text xml:space="preserve" text-anchor="start" x="158" y="-208.5" font-family="Helvetica,sans-Serif" font-size="10.00">/espressif__nghttp/nghttp2</text>
<text xml:space="preserve" text-anchor="start" x="158" y="-196.5" font-family="Helvetica,sans-Serif" font-size="10.00">/third&#45;party/mruby/include</text>
<text xml:space="preserve" text-anchor="middle" x="215.75" y="-184.5" font-family="Helvetica,sans-Serif" font-size="10.00">/mruby/irep.h</text>
</a>
</g>
</g>
<!-- Node8&#45;&gt;Node9 -->
<g id="edge8_Node000008_Node000009" class="edge">
<title>Node8&#45;&gt;Node9</title>
<g id="a_edge8_Node000008_Node000009"><a xlink:title=" ">
<path fill="none" stroke="#63b8ff" d="M215.75,-270.17C215.75,-258.25 215.75,-245.39 215.75,-234.41"/>
<polygon fill="#63b8ff" stroke="#63b8ff" points="212.25,-270.15 215.75,-280.15 219.25,-270.15 212.25,-270.15"/>
</a>
</g>
</g>
<!-- Node9&#45;&gt;Node10 -->
<g id="edge9_Node000009_Node000010" class="edge">
<title>Node9&#45;&gt;Node10</title>
<g id="a_edge9_Node000009_Node000010"><a xlink:title=" ">
<path fill="none" stroke="#63b8ff" d="M230.67,-167.3C234.76,-156.96 239.12,-145.95 242.94,-136.32"/>
<polygon fill="#63b8ff" stroke="#63b8ff" points="227.52,-165.75 227.09,-176.34 234.03,-168.33 227.52,-165.75"/>
</a>
</g>
</g>
<!-- Node11 -->
<g id="Node000011" class="node">
<title>Node11</title>
<g id="a_Node000011"><a xlink:href="proc_8h.html" target="_top" xlink:title=" ">
<polygon fill="white" stroke="#666666" points="169.5,-136 38,-136 38,-80 169.5,-80 169.5,-136"/>
<text xml:space="preserve" text-anchor="start" x="46" y="-122.5" font-family="Helvetica,sans-Serif" font-size="10.00">managed_components</text>
<text xml:space="preserve" text-anchor="start" x="46" y="-110.5" font-family="Helvetica,sans-Serif" font-size="10.00">/espressif__nghttp/nghttp2</text>
<text xml:space="preserve" text-anchor="start" x="46" y="-98.5" font-family="Helvetica,sans-Serif" font-size="10.00">/third&#45;party/mruby/include</text>
<text xml:space="preserve" text-anchor="middle" x="103.75" y="-86.5" font-family="Helvetica,sans-Serif" font-size="10.00">/mruby/proc.h</text>
</a>
</g>
</g>
<!-- Node9&#45;&gt;Node11 -->
<g id="edge10_Node000009_Node000011" class="edge">
<title>Node9&#45;&gt;Node11</title>
<g id="a_edge10_Node000009_Node000011"><a xlink:title=" ">
<path fill="none" stroke="#63b8ff" d="M175.55,-170.54C162.43,-159.3 148.05,-146.97 135.62,-136.32"/>
<polygon fill="#63b8ff" stroke="#63b8ff" points="172.94,-172.91 182.81,-176.76 177.49,-167.6 172.94,-172.91"/>
</a>
</g>
</g>
<!-- Node11&#45;&gt;Node3 -->
<g id="edge11_Node000011_Node000003" class="edge">
<title>Node11&#45;&gt;Node3</title>
<g id="a_edge11_Node000011_Node000003"><a xlink:title=" ">
<path fill="none" stroke="#63b8ff" d="M152.56,-73.39C166.83,-63.57 182.01,-53.11 194.84,-44.28"/>
<polygon fill="#63b8ff" stroke="#63b8ff" points="150.86,-70.32 144.61,-78.87 154.83,-76.08 150.86,-70.32"/>
</a>
</g>
</g>
<!-- Node12&#45;&gt;Node11 -->
<g id="edge14_Node000012_Node000011" class="edge">
<title>Node12&#45;&gt;Node11</title>
<g id="a_edge14_Node000012_Node000011"><a xlink:title=" ">
<path fill="none" stroke="#63b8ff" d="M80.67,-167.3C84.76,-156.96 89.12,-145.95 92.94,-136.32"/>
<polygon fill="#63b8ff" stroke="#63b8ff" points="77.52,-165.75 77.09,-176.34 84.03,-168.33 77.52,-165.75"/>
</a>
</g>
</g>
<!-- Node17&#45;&gt;Node13 -->
<g id="edge20_Node000017_Node000013" class="edge">
<title>Node17&#45;&gt;Node13</title>
<g id="a_edge20_Node000017_Node000013"><a xlink:title=" ">
<path fill="none" stroke="#63b8ff" d="M1079.2,-270.23C1061.61,-260.43 1042.88,-249.99 1025.81,-240.47"/>
<polygon fill="#63b8ff" stroke="#63b8ff" points="1077.07,-273.05 1087.51,-274.86 1080.48,-266.94 1077.07,-273.05"/>
</a>
</g>
</g>
<!-- Node17&#45;&gt;Node14 -->
<g id="edge21_Node000017_Node000014" class="edge">
<title>Node17&#45;&gt;Node14</title>
<g id="a_edge21_Node000017_Node000014"><a xlink:title=" ">
<path fill="none" stroke="#63b8ff" d="M1136.16,-264.73C1133.85,-256.6 1131.47,-248.23 1129.27,-240.47"/>
<polygon fill="#63b8ff" stroke="#63b8ff" points="1132.74,-265.48 1138.84,-274.15 1139.47,-263.57 1132.74,-265.48"/>
</a>
</g>
</g>
<!-- Node17&#45;&gt;Node15 -->
<g id="edge22_Node000017_Node000015" class="edge">
<title>Node17&#45;&gt;Node15</title>
<g id="a_edge22_Node000017_Node000015"><a xlink:title=" ">
<path fill="none" stroke="#63b8ff" d="M1198.27,-268.59C1209.69,-259.27 1221.72,-249.46 1232.73,-240.47"/>
<polygon fill="#63b8ff" stroke="#63b8ff" points="1196.39,-265.61 1190.85,-274.64 1200.81,-271.03 1196.39,-265.61"/>
</a>
</g>
</g>
</g>
</svg>
