<?xml version="1.0" encoding="UTF-8" standalone="no"?>
<!DOCTYPE svg PUBLIC "-//W3C//DTD SVG 1.1//EN"
 "http://www.w3.org/Graphics/SVG/1.1/DTD/svg11.dtd">
<!-- Generated by graphviz version 14.0.5 (0)
 -->
<!-- Title: managed_components/espressif__nghttp/nghttp2/third&#45;party/mruby/include/mruby/value.h Pages: 1 -->
<svg width="335pt" height="176pt"
 viewBox="0.00 0.00 335.00 176.00" xmlns="http://www.w3.org/2000/svg" xmlns:xlink="http://www.w3.org/1999/xlink">
<g id="graph0" class="graph" transform="scale(1 1) rotate(0) translate(4 172)">
<title>managed_components/espressif__nghttp/nghttp2/third&#45;party/mruby/include/mruby/value.h</title>
<!-- Node1 -->
<g id="Node000001" class="node">
<title>Node1</title>
<g id="a_Node000001"><a xlink:title=" ">
<polygon fill="#999999" stroke="#666666" points="221.25,-168 89.75,-168 89.75,-112 221.25,-112 221.25,-168"/>
<text xml:space="preserve" text-anchor="start" x="97.75" y="-154.5" font-family="Helvetica,sans-Serif" font-size="10.00">managed_components</text>
<text xml:space="preserve" text-anchor="start" x="97.75" y="-142.5" font-family="Helvetica,sans-Serif" font-size="10.00">/espressif__nghttp/nghttp2</text>
<text xml:space="preserve" text-anchor="start" x="97.75" y="-130.5" font-family="Helvetica,sans-Serif" font-size="10.00">/third&#45;party/mruby/include</text>
<text xml:space="preserve" text-anchor="middle" x="155.5" y="-118.5" font-family="Helvetica,sans-Serif" font-size="10.00">/mruby/value.h</text>
</a>
</g>
</g>
<!-- Node2 -->
<g id="Node000002" class="node">
<title>Node2</title>
<g id="a_Node000002"><a xlink:href="common_8h.html" target="_top" xlink:title=" ">
<polygon fill="white" stroke="#666666" points="64.38,-76 2.62,-76 2.62,-56 64.38,-56 64.38,-76"/>
<text xml:space="preserve" text-anchor="middle" x="33.5" y="-62.5" font-family="Helvetica,sans-Serif" font-size="10.00">common.h</text>
</a>
</g>
</g>
<!-- Node1&#45;&gt;Node2 -->
<g id="edge1_Node000001_Node000002" class="edge">
<title>Node1&#45;&gt;Node2</title>
<g id="a_edge1_Node000001_Node000002"><a xlink:title=" ">
<path fill="none" stroke="#63b8ff" d="M109.03,-111.57C92.12,-101.6 73.64,-90.69 59.18,-82.16"/>
<polygon fill="#63b8ff" stroke="#63b8ff" points="61.15,-79.25 50.76,-77.18 57.59,-85.28 61.15,-79.25"/>
</a>
</g>
</g>
<!-- Node4 -->
<g id="Node000004" class="node">
<title>Node4</title>
<g id="a_Node000004"><a xlink:title=" ">
<polygon fill="#e0e0e0" stroke="#999999" points="140.88,-76 82.12,-76 82.12,-56 140.88,-56 140.88,-76"/>
<text xml:space="preserve" text-anchor="middle" x="111.5" y="-62.5" font-family="Helvetica,sans-Serif" font-size="10.00">inttypes.h</text>
</a>
</g>
</g>
<!-- Node1&#45;&gt;Node4 -->
<g id="edge3_Node000001_Node000004" class="edge">
<title>Node1&#45;&gt;Node4</title>
<g id="a_edge3_Node000001_Node000004"><a xlink:title=" ">
<path fill="none" stroke="#63b8ff" d="M138.87,-111.78C133.65,-103.24 128,-93.99 123.19,-86.13"/>
<polygon fill="#63b8ff" stroke="#63b8ff" points="126.28,-84.47 118.08,-77.76 120.31,-88.12 126.28,-84.47"/>
</a>
</g>
</g>
<!-- Node5 -->
<g id="Node000005" class="node">
<title>Node5</title>
<g id="a_Node000005"><a xlink:href="object_8h.html" target="_top" xlink:title=" ">
<polygon fill="white" stroke="#666666" points="239.75,-76 159.25,-76 159.25,-56 239.75,-56 239.75,-76"/>
<text xml:space="preserve" text-anchor="middle" x="199.5" y="-62.5" font-family="Helvetica,sans-Serif" font-size="10.00">mruby/object.h</text>
</a>
</g>
</g>
<!-- Node1&#45;&gt;Node5 -->
<g id="edge4_Node000001_Node000005" class="edge">
<title>Node1&#45;&gt;Node5</title>
<g id="a_edge4_Node000001_Node000005"><a xlink:title=" ">
<path fill="none" stroke="#63b8ff" d="M172.13,-111.78C177.35,-103.24 183,-93.99 187.81,-86.13"/>
<polygon fill="#63b8ff" stroke="#63b8ff" points="190.69,-88.12 192.92,-77.76 184.72,-84.47 190.69,-88.12"/>
</a>
</g>
</g>
<!-- Node6 -->
<g id="Node000006" class="node">
<title>Node6</title>
<g id="a_Node000006"><a xlink:href="boxing__no_8h.html" target="_top" xlink:title=" ">
<polygon fill="white" stroke="#666666" points="326.75,-76 258.25,-76 258.25,-56 326.75,-56 326.75,-76"/>
<text xml:space="preserve" text-anchor="middle" x="292.5" y="-62.5" font-family="Helvetica,sans-Serif" font-size="10.00">boxing_no.h</text>
</a>
</g>
</g>
<!-- Node1&#45;&gt;Node6 -->
<g id="edge5_Node000001_Node000006" class="edge">
<title>Node1&#45;&gt;Node6</title>
<g id="a_edge5_Node000001_Node000006"><a xlink:title=" ">
<path fill="none" stroke="#63b8ff" d="M207.68,-111.57C227.04,-101.4 248.24,-90.26 264.6,-81.66"/>
<polygon fill="#63b8ff" stroke="#63b8ff" points="266.02,-84.87 273.25,-77.12 262.77,-78.67 266.02,-84.87"/>
</a>
</g>
</g>
<!-- Node3 -->
<g id="Node000003" class="node">
<title>Node3</title>
<g id="a_Node000003"><a xlink:title=" ">
<polygon fill="#e0e0e0" stroke="#999999" points="67,-20 0,-20 0,0 67,0 67,-20"/>
<text xml:space="preserve" text-anchor="middle" x="33.5" y="-6.5" font-family="Helvetica,sans-Serif" font-size="10.00">sys/types.h</text>
</a>
</g>
</g>
<!-- Node2&#45;&gt;Node3 -->
<g id="edge2_Node000002_Node000003" class="edge">
<title>Node2&#45;&gt;Node3</title>
<g id="a_edge2_Node000002_Node000003"><a xlink:title=" ">
<path fill="none" stroke="#63b8ff" d="M33.5,-55.59C33.5,-49.01 33.5,-39.96 33.5,-31.73"/>
<polygon fill="#63b8ff" stroke="#63b8ff" points="37,-31.81 33.5,-21.81 30,-31.81 37,-31.81"/>
</a>
</g>
</g>
</g>
</svg>
