%TF.GenerationSoftware,KiCad,Pcbnew,9.0.4*%
%TF.CreationDate,2025-12-06T22:06:25+01:00*%
%TF.ProjectId,bluebox,626c7565-626f-4782-9e6b-696361645f70,rev?*%
%TF.SameCoordinates,Original*%
%TF.FileFunction,Soldermask,Bot*%
%TF.FilePolarity,Negative*%
%FSLAX46Y46*%
G04 Gerber Fmt 4.6, Leading zero omitted, Abs format (unit mm)*
G04 Created by KiCad (PCBNEW 9.0.4) date 2025-12-06 22:06:25*
%MOMM*%
%LPD*%
G01*
G04 APERTURE LIST*
G04 Aperture macros list*
%AMRoundRect*
0 Rectangle with rounded corners*
0 $1 Rounding radius*
0 $2 $3 $4 $5 $6 $7 $8 $9 X,Y pos of 4 corners*
0 Add a 4 corners polygon primitive as box body*
4,1,4,$2,$3,$4,$5,$6,$7,$8,$9,$2,$3,0*
0 Add four circle primitives for the rounded corners*
1,1,$1+$1,$2,$3*
1,1,$1+$1,$4,$5*
1,1,$1+$1,$6,$7*
1,1,$1+$1,$8,$9*
0 Add four rect primitives between the rounded corners*
20,1,$1+$1,$2,$3,$4,$5,0*
20,1,$1+$1,$4,$5,$6,$7,0*
20,1,$1+$1,$6,$7,$8,$9,0*
20,1,$1+$1,$8,$9,$2,$3,0*%
G04 Aperture macros list end*
%ADD10C,1.600000*%
%ADD11RoundRect,0.249999X0.850001X0.850001X-0.850001X0.850001X-0.850001X-0.850001X0.850001X-0.850001X0*%
%ADD12C,2.200000*%
%ADD13C,5.600000*%
%ADD14C,3.500000*%
%ADD15R,2.000000X1.905000*%
%ADD16O,2.000000X1.905000*%
%ADD17RoundRect,0.200000X-0.200000X-0.450000X0.200000X-0.450000X0.200000X0.450000X-0.200000X0.450000X0*%
%ADD18O,0.800000X1.300000*%
%ADD19RoundRect,0.250000X-0.550000X0.550000X-0.550000X-0.550000X0.550000X-0.550000X0.550000X0.550000X0*%
%ADD20C,2.000000*%
%ADD21RoundRect,0.200000X0.200000X0.450000X-0.200000X0.450000X-0.200000X-0.450000X0.200000X-0.450000X0*%
%ADD22RoundRect,0.249999X0.850001X-0.850001X0.850001X0.850001X-0.850001X0.850001X-0.850001X-0.850001X0*%
%ADD23RoundRect,0.250000X-0.750000X0.600000X-0.750000X-0.600000X0.750000X-0.600000X0.750000X0.600000X0*%
%ADD24O,2.000000X1.700000*%
%ADD25R,1.200000X2.000000*%
%ADD26O,1.200000X2.000000*%
G04 APERTURE END LIST*
D10*
%TO.C,C202*%
X136500000Y-92250000D03*
X141500000Y-92250000D03*
%TD*%
D11*
%TO.C,D202*%
X157480000Y-92250000D03*
D12*
X147320000Y-92250000D03*
%TD*%
D13*
%TO.C,H102*%
X135000000Y-80000000D03*
%TD*%
D14*
%TO.C,U201*%
X158900000Y-99995000D03*
D15*
X142240000Y-102535000D03*
D16*
X142240000Y-99995000D03*
X142240000Y-97455000D03*
%TD*%
D17*
%TO.C,J303*%
X176500000Y-119300000D03*
D18*
X177750000Y-119300000D03*
X179000000Y-119300000D03*
X180250000Y-119300000D03*
X181500000Y-119300000D03*
X182750000Y-119300000D03*
%TD*%
D19*
%TO.C,C302*%
X165250000Y-77597349D03*
D10*
X165250000Y-82597349D03*
%TD*%
D17*
%TO.C,J302*%
X167125000Y-119300000D03*
D18*
X168375000Y-119300000D03*
X169625000Y-119300000D03*
X170875000Y-119300000D03*
X172125000Y-119300000D03*
%TD*%
D20*
%TO.C,TP202*%
X141350000Y-109250000D03*
%TD*%
D21*
%TO.C,J301*%
X182750000Y-81700000D03*
D18*
X181500000Y-81700000D03*
X180250000Y-81700000D03*
X179000000Y-81700000D03*
X177750000Y-81700000D03*
X176500000Y-81700000D03*
X175250000Y-81700000D03*
%TD*%
D10*
%TO.C,C304*%
X162600000Y-117400000D03*
X162600000Y-122400000D03*
%TD*%
%TO.C,C303*%
X186600000Y-116000000D03*
X186600000Y-121000000D03*
%TD*%
%TO.C,C201*%
X139184088Y-104991196D03*
X139184088Y-99991196D03*
%TD*%
D13*
%TO.C,H103*%
X195000000Y-120000000D03*
%TD*%
%TO.C,H101*%
X135000000Y-120000000D03*
%TD*%
%TO.C,H104*%
X195000000Y-80000000D03*
%TD*%
D20*
%TO.C,TP201*%
X159000000Y-120000000D03*
%TD*%
D22*
%TO.C,D201*%
X135950000Y-108280000D03*
D12*
X135950000Y-98120000D03*
%TD*%
D10*
%TO.C,C301*%
X171500000Y-77000000D03*
X171500000Y-82000000D03*
%TD*%
D23*
%TO.C,J201*%
X158000000Y-79500000D03*
D24*
X158000000Y-82000000D03*
%TD*%
D25*
%TO.C,U301*%
X192000000Y-112700000D03*
D26*
X189460000Y-112700000D03*
X186920000Y-112700000D03*
X184380000Y-112700000D03*
X181840000Y-112700000D03*
X179300000Y-112700000D03*
X176760000Y-112700000D03*
X174220000Y-112700000D03*
X171680000Y-112700000D03*
X169140000Y-112700000D03*
X166600000Y-112700000D03*
X164060000Y-112700000D03*
X161520000Y-112700000D03*
X158980000Y-112700000D03*
X156440000Y-112700000D03*
X153900000Y-112700000D03*
X151360000Y-112700000D03*
X148820000Y-112700000D03*
X146280000Y-112700000D03*
X146282720Y-87303680D03*
X148822720Y-87303680D03*
X151360000Y-87300000D03*
X153900000Y-87300000D03*
X156440000Y-87300000D03*
X158980000Y-87300000D03*
X161520000Y-87300000D03*
X164060000Y-87300000D03*
X166600000Y-87300000D03*
X169140000Y-87300000D03*
X171680000Y-87300000D03*
X174220000Y-87300000D03*
X176760000Y-87300000D03*
X179300000Y-87300000D03*
X181840000Y-87300000D03*
X184380000Y-87300000D03*
X186920000Y-87300000D03*
X189460000Y-87300000D03*
X192000000Y-87300000D03*
%TD*%
M02*
