%TF.GenerationSoftware,KiCad,Pcbnew,9.0.4*%
%TF.CreationDate,2025-12-06T22:06:24+01:00*%
%TF.ProjectId,bluebox,626c7565-626f-4782-9e6b-696361645f70,rev?*%
%TF.SameCoordinates,Original*%
%TF.FileFunction,Legend,Bot*%
%TF.FilePolarity,Positive*%
%FSLAX46Y46*%
G04 Gerber Fmt 4.6, Leading zero omitted, Abs format (unit mm)*
G04 Created by KiCad (PCBNEW 9.0.4) date 2025-12-06 22:06:24*
%MOMM*%
%LPD*%
G01*
G04 APERTURE LIST*
%ADD10C,0.150000*%
%ADD11C,0.200000*%
%ADD12C,0.120000*%
G04 APERTURE END LIST*
D10*
X146590819Y-80297788D02*
X146590819Y-79726360D01*
X146590819Y-80012074D02*
X145590819Y-80012074D01*
X145590819Y-80012074D02*
X145733676Y-79916836D01*
X145733676Y-79916836D02*
X145828914Y-79821598D01*
X145828914Y-79821598D02*
X145876533Y-79726360D01*
X145686057Y-80678741D02*
X145638438Y-80726360D01*
X145638438Y-80726360D02*
X145590819Y-80821598D01*
X145590819Y-80821598D02*
X145590819Y-81059693D01*
X145590819Y-81059693D02*
X145638438Y-81154931D01*
X145638438Y-81154931D02*
X145686057Y-81202550D01*
X145686057Y-81202550D02*
X145781295Y-81250169D01*
X145781295Y-81250169D02*
X145876533Y-81250169D01*
X145876533Y-81250169D02*
X146019390Y-81202550D01*
X146019390Y-81202550D02*
X146590819Y-80631122D01*
X146590819Y-80631122D02*
X146590819Y-81250169D01*
X145590819Y-81535884D02*
X146590819Y-81869217D01*
X146590819Y-81869217D02*
X145590819Y-82202550D01*
D11*
X148130326Y-79266378D02*
X147368422Y-79266378D01*
X147749374Y-79647331D02*
X147749374Y-78885426D01*
X148130326Y-82486266D02*
X147368422Y-82486266D01*
D10*
X149895214Y-76719619D02*
X149895214Y-77433904D01*
X149895214Y-77433904D02*
X149942833Y-77576761D01*
X149942833Y-77576761D02*
X150038071Y-77672000D01*
X150038071Y-77672000D02*
X150180928Y-77719619D01*
X150180928Y-77719619D02*
X150276166Y-77719619D01*
X149466642Y-76814857D02*
X149419023Y-76767238D01*
X149419023Y-76767238D02*
X149323785Y-76719619D01*
X149323785Y-76719619D02*
X149085690Y-76719619D01*
X149085690Y-76719619D02*
X148990452Y-76767238D01*
X148990452Y-76767238D02*
X148942833Y-76814857D01*
X148942833Y-76814857D02*
X148895214Y-76910095D01*
X148895214Y-76910095D02*
X148895214Y-77005333D01*
X148895214Y-77005333D02*
X148942833Y-77148190D01*
X148942833Y-77148190D02*
X149514261Y-77719619D01*
X149514261Y-77719619D02*
X148895214Y-77719619D01*
X148276166Y-76719619D02*
X148180928Y-76719619D01*
X148180928Y-76719619D02*
X148085690Y-76767238D01*
X148085690Y-76767238D02*
X148038071Y-76814857D01*
X148038071Y-76814857D02*
X147990452Y-76910095D01*
X147990452Y-76910095D02*
X147942833Y-77100571D01*
X147942833Y-77100571D02*
X147942833Y-77338666D01*
X147942833Y-77338666D02*
X147990452Y-77529142D01*
X147990452Y-77529142D02*
X148038071Y-77624380D01*
X148038071Y-77624380D02*
X148085690Y-77672000D01*
X148085690Y-77672000D02*
X148180928Y-77719619D01*
X148180928Y-77719619D02*
X148276166Y-77719619D01*
X148276166Y-77719619D02*
X148371404Y-77672000D01*
X148371404Y-77672000D02*
X148419023Y-77624380D01*
X148419023Y-77624380D02*
X148466642Y-77529142D01*
X148466642Y-77529142D02*
X148514261Y-77338666D01*
X148514261Y-77338666D02*
X148514261Y-77100571D01*
X148514261Y-77100571D02*
X148466642Y-76910095D01*
X148466642Y-76910095D02*
X148419023Y-76814857D01*
X148419023Y-76814857D02*
X148371404Y-76767238D01*
X148371404Y-76767238D02*
X148276166Y-76719619D01*
X146990452Y-77719619D02*
X147561880Y-77719619D01*
X147276166Y-77719619D02*
X147276166Y-76719619D01*
X147276166Y-76719619D02*
X147371404Y-76862476D01*
X147371404Y-76862476D02*
X147466642Y-76957714D01*
X147466642Y-76957714D02*
X147561880Y-77005333D01*
X181454819Y-98279284D02*
X182264342Y-98279284D01*
X182264342Y-98279284D02*
X182359580Y-98326903D01*
X182359580Y-98326903D02*
X182407200Y-98374522D01*
X182407200Y-98374522D02*
X182454819Y-98469760D01*
X182454819Y-98469760D02*
X182454819Y-98660236D01*
X182454819Y-98660236D02*
X182407200Y-98755474D01*
X182407200Y-98755474D02*
X182359580Y-98803093D01*
X182359580Y-98803093D02*
X182264342Y-98850712D01*
X182264342Y-98850712D02*
X181454819Y-98850712D01*
X181454819Y-99231665D02*
X181454819Y-99850712D01*
X181454819Y-99850712D02*
X181835771Y-99517379D01*
X181835771Y-99517379D02*
X181835771Y-99660236D01*
X181835771Y-99660236D02*
X181883390Y-99755474D01*
X181883390Y-99755474D02*
X181931009Y-99803093D01*
X181931009Y-99803093D02*
X182026247Y-99850712D01*
X182026247Y-99850712D02*
X182264342Y-99850712D01*
X182264342Y-99850712D02*
X182359580Y-99803093D01*
X182359580Y-99803093D02*
X182407200Y-99755474D01*
X182407200Y-99755474D02*
X182454819Y-99660236D01*
X182454819Y-99660236D02*
X182454819Y-99374522D01*
X182454819Y-99374522D02*
X182407200Y-99279284D01*
X182407200Y-99279284D02*
X182359580Y-99231665D01*
X181454819Y-100469760D02*
X181454819Y-100564998D01*
X181454819Y-100564998D02*
X181502438Y-100660236D01*
X181502438Y-100660236D02*
X181550057Y-100707855D01*
X181550057Y-100707855D02*
X181645295Y-100755474D01*
X181645295Y-100755474D02*
X181835771Y-100803093D01*
X181835771Y-100803093D02*
X182073866Y-100803093D01*
X182073866Y-100803093D02*
X182264342Y-100755474D01*
X182264342Y-100755474D02*
X182359580Y-100707855D01*
X182359580Y-100707855D02*
X182407200Y-100660236D01*
X182407200Y-100660236D02*
X182454819Y-100564998D01*
X182454819Y-100564998D02*
X182454819Y-100469760D01*
X182454819Y-100469760D02*
X182407200Y-100374522D01*
X182407200Y-100374522D02*
X182359580Y-100326903D01*
X182359580Y-100326903D02*
X182264342Y-100279284D01*
X182264342Y-100279284D02*
X182073866Y-100231665D01*
X182073866Y-100231665D02*
X181835771Y-100231665D01*
X181835771Y-100231665D02*
X181645295Y-100279284D01*
X181645295Y-100279284D02*
X181550057Y-100326903D01*
X181550057Y-100326903D02*
X181502438Y-100374522D01*
X181502438Y-100374522D02*
X181454819Y-100469760D01*
X182454819Y-101755474D02*
X182454819Y-101184046D01*
X182454819Y-101469760D02*
X181454819Y-101469760D01*
X181454819Y-101469760D02*
X181597676Y-101374522D01*
X181597676Y-101374522D02*
X181692914Y-101279284D01*
X181692914Y-101279284D02*
X181740533Y-101184046D01*
X174745237Y-106531009D02*
X174411904Y-106531009D01*
X174269047Y-107054819D02*
X174745237Y-107054819D01*
X174745237Y-107054819D02*
X174745237Y-106054819D01*
X174745237Y-106054819D02*
X174269047Y-106054819D01*
X173888094Y-107007200D02*
X173745237Y-107054819D01*
X173745237Y-107054819D02*
X173507142Y-107054819D01*
X173507142Y-107054819D02*
X173411904Y-107007200D01*
X173411904Y-107007200D02*
X173364285Y-106959580D01*
X173364285Y-106959580D02*
X173316666Y-106864342D01*
X173316666Y-106864342D02*
X173316666Y-106769104D01*
X173316666Y-106769104D02*
X173364285Y-106673866D01*
X173364285Y-106673866D02*
X173411904Y-106626247D01*
X173411904Y-106626247D02*
X173507142Y-106578628D01*
X173507142Y-106578628D02*
X173697618Y-106531009D01*
X173697618Y-106531009D02*
X173792856Y-106483390D01*
X173792856Y-106483390D02*
X173840475Y-106435771D01*
X173840475Y-106435771D02*
X173888094Y-106340533D01*
X173888094Y-106340533D02*
X173888094Y-106245295D01*
X173888094Y-106245295D02*
X173840475Y-106150057D01*
X173840475Y-106150057D02*
X173792856Y-106102438D01*
X173792856Y-106102438D02*
X173697618Y-106054819D01*
X173697618Y-106054819D02*
X173459523Y-106054819D01*
X173459523Y-106054819D02*
X173316666Y-106102438D01*
X172888094Y-107054819D02*
X172888094Y-106054819D01*
X172888094Y-106054819D02*
X172507142Y-106054819D01*
X172507142Y-106054819D02*
X172411904Y-106102438D01*
X172411904Y-106102438D02*
X172364285Y-106150057D01*
X172364285Y-106150057D02*
X172316666Y-106245295D01*
X172316666Y-106245295D02*
X172316666Y-106388152D01*
X172316666Y-106388152D02*
X172364285Y-106483390D01*
X172364285Y-106483390D02*
X172411904Y-106531009D01*
X172411904Y-106531009D02*
X172507142Y-106578628D01*
X172507142Y-106578628D02*
X172888094Y-106578628D01*
X171983332Y-106054819D02*
X171364285Y-106054819D01*
X171364285Y-106054819D02*
X171697618Y-106435771D01*
X171697618Y-106435771D02*
X171554761Y-106435771D01*
X171554761Y-106435771D02*
X171459523Y-106483390D01*
X171459523Y-106483390D02*
X171411904Y-106531009D01*
X171411904Y-106531009D02*
X171364285Y-106626247D01*
X171364285Y-106626247D02*
X171364285Y-106864342D01*
X171364285Y-106864342D02*
X171411904Y-106959580D01*
X171411904Y-106959580D02*
X171459523Y-107007200D01*
X171459523Y-107007200D02*
X171554761Y-107054819D01*
X171554761Y-107054819D02*
X171840475Y-107054819D01*
X171840475Y-107054819D02*
X171935713Y-107007200D01*
X171935713Y-107007200D02*
X171983332Y-106959580D01*
X170983332Y-106150057D02*
X170935713Y-106102438D01*
X170935713Y-106102438D02*
X170840475Y-106054819D01*
X170840475Y-106054819D02*
X170602380Y-106054819D01*
X170602380Y-106054819D02*
X170507142Y-106102438D01*
X170507142Y-106102438D02*
X170459523Y-106150057D01*
X170459523Y-106150057D02*
X170411904Y-106245295D01*
X170411904Y-106245295D02*
X170411904Y-106340533D01*
X170411904Y-106340533D02*
X170459523Y-106483390D01*
X170459523Y-106483390D02*
X171030951Y-107054819D01*
X171030951Y-107054819D02*
X170411904Y-107054819D01*
X169983332Y-106673866D02*
X169221428Y-106673866D01*
X168745237Y-107054819D02*
X168745237Y-106054819D01*
X168745237Y-106054819D02*
X168507142Y-106054819D01*
X168507142Y-106054819D02*
X168364285Y-106102438D01*
X168364285Y-106102438D02*
X168269047Y-106197676D01*
X168269047Y-106197676D02*
X168221428Y-106292914D01*
X168221428Y-106292914D02*
X168173809Y-106483390D01*
X168173809Y-106483390D02*
X168173809Y-106626247D01*
X168173809Y-106626247D02*
X168221428Y-106816723D01*
X168221428Y-106816723D02*
X168269047Y-106911961D01*
X168269047Y-106911961D02*
X168364285Y-107007200D01*
X168364285Y-107007200D02*
X168507142Y-107054819D01*
X168507142Y-107054819D02*
X168745237Y-107054819D01*
X167364285Y-107007200D02*
X167459523Y-107054819D01*
X167459523Y-107054819D02*
X167649999Y-107054819D01*
X167649999Y-107054819D02*
X167745237Y-107007200D01*
X167745237Y-107007200D02*
X167792856Y-106911961D01*
X167792856Y-106911961D02*
X167792856Y-106531009D01*
X167792856Y-106531009D02*
X167745237Y-106435771D01*
X167745237Y-106435771D02*
X167649999Y-106388152D01*
X167649999Y-106388152D02*
X167459523Y-106388152D01*
X167459523Y-106388152D02*
X167364285Y-106435771D01*
X167364285Y-106435771D02*
X167316666Y-106531009D01*
X167316666Y-106531009D02*
X167316666Y-106626247D01*
X167316666Y-106626247D02*
X167792856Y-106721485D01*
X166983332Y-106388152D02*
X166745237Y-107054819D01*
X166745237Y-107054819D02*
X166507142Y-106388152D01*
X166126189Y-107054819D02*
X166126189Y-106054819D01*
X165554761Y-107054819D02*
X165983332Y-106483390D01*
X165554761Y-106054819D02*
X166126189Y-106626247D01*
X165126189Y-107054819D02*
X165126189Y-106388152D01*
X165126189Y-106054819D02*
X165173808Y-106102438D01*
X165173808Y-106102438D02*
X165126189Y-106150057D01*
X165126189Y-106150057D02*
X165078570Y-106102438D01*
X165078570Y-106102438D02*
X165126189Y-106054819D01*
X165126189Y-106054819D02*
X165126189Y-106150057D01*
X164792856Y-106388152D02*
X164411904Y-106388152D01*
X164649999Y-106054819D02*
X164649999Y-106911961D01*
X164649999Y-106911961D02*
X164602380Y-107007200D01*
X164602380Y-107007200D02*
X164507142Y-107054819D01*
X164507142Y-107054819D02*
X164411904Y-107054819D01*
X163507142Y-106959580D02*
X163554761Y-107007200D01*
X163554761Y-107007200D02*
X163697618Y-107054819D01*
X163697618Y-107054819D02*
X163792856Y-107054819D01*
X163792856Y-107054819D02*
X163935713Y-107007200D01*
X163935713Y-107007200D02*
X164030951Y-106911961D01*
X164030951Y-106911961D02*
X164078570Y-106816723D01*
X164078570Y-106816723D02*
X164126189Y-106626247D01*
X164126189Y-106626247D02*
X164126189Y-106483390D01*
X164126189Y-106483390D02*
X164078570Y-106292914D01*
X164078570Y-106292914D02*
X164030951Y-106197676D01*
X164030951Y-106197676D02*
X163935713Y-106102438D01*
X163935713Y-106102438D02*
X163792856Y-106054819D01*
X163792856Y-106054819D02*
X163697618Y-106054819D01*
X163697618Y-106054819D02*
X163554761Y-106102438D01*
X163554761Y-106102438D02*
X163507142Y-106150057D01*
D12*
%TO.C,J201*%
X151190000Y-76890000D02*
X159610000Y-76890000D01*
X151190000Y-84610000D02*
X151190000Y-76890000D01*
X152410000Y-78110000D02*
X152410000Y-76890000D01*
X152410000Y-83390000D02*
X152410000Y-84610000D01*
X152910000Y-79500000D02*
X152990000Y-79180000D01*
X152910000Y-82000000D02*
X152990000Y-81680000D01*
X152990000Y-79180000D02*
X156410000Y-79180000D01*
X152990000Y-79820000D02*
X152910000Y-79500000D01*
X152990000Y-81680000D02*
X156410000Y-81680000D01*
X152990000Y-82320000D02*
X152910000Y-82000000D01*
X156410000Y-79180000D02*
X156410000Y-79500000D01*
X156410000Y-79500000D02*
X156410000Y-79820000D01*
X156410000Y-79820000D02*
X152990000Y-79820000D01*
X156410000Y-81680000D02*
X156410000Y-82000000D01*
X156410000Y-82000000D02*
X156410000Y-82320000D01*
X156410000Y-82320000D02*
X152990000Y-82320000D01*
X156410000Y-83390000D02*
X156410000Y-78110000D01*
X157410000Y-76890000D02*
X157410000Y-78110000D01*
X157410000Y-78110000D02*
X152410000Y-78110000D01*
X157410000Y-80830000D02*
X157410000Y-80670000D01*
X157410000Y-83390000D02*
X152410000Y-83390000D01*
X157410000Y-83390000D02*
X159610000Y-83390000D01*
X157410000Y-84610000D02*
X157410000Y-83390000D01*
X159500000Y-79500000D02*
X160100000Y-79800000D01*
X159610000Y-76890000D02*
X159610000Y-78110000D01*
X159610000Y-78110000D02*
X157410000Y-78110000D01*
X159610000Y-83390000D02*
X159610000Y-84610000D01*
X159610000Y-84610000D02*
X151190000Y-84610000D01*
X160100000Y-79200000D02*
X159500000Y-79500000D01*
X160100000Y-79800000D02*
X160100000Y-79200000D01*
%TO.C,U301*%
X145180000Y-85800001D02*
X193100000Y-85800000D01*
X145180000Y-114200000D02*
X145180000Y-85800001D01*
X193100000Y-85800000D02*
X193100000Y-114199999D01*
X193100000Y-114199999D02*
X145180000Y-114200000D01*
X193120320Y-108969880D02*
X199013120Y-108969880D01*
X199013120Y-90986680D02*
X193120320Y-90986680D01*
X199013120Y-108969880D02*
X199013120Y-90986680D01*
%TD*%
M02*
