M48
; DRILL file {KiCad 9.0.4} date 2025-12-07T20:14:16+0100
; FORMAT={-:-/ absolute / inch / decimal}
; #@! TF.CreationDate,2025-12-07T20:14:16+01:00
; #@! TF.GenerationSoftware,Kicad,Pcbnew,9.0.4
; #@! TF.FileFunction,Plated,1,2,PTH
FMAT,2
INCH
; #@! TA.AperFunction,Plated,PTH,ViaDrill
T1C0.0157
; #@! TA.AperFunction,Plated,PTH,ComponentDrill
T2C0.0197
; #@! TA.AperFunction,Plated,PTH,ViaDrill
T3C0.0315
; #@! TA.AperFunction,Plated,PTH,ComponentDrill
T4C0.0315
; #@! TA.AperFunction,Plated,PTH,ComponentDrill
T5C0.0394
; #@! TA.AperFunction,Plated,PTH,ComponentDrill
T6C0.0433
; #@! TA.AperFunction,Plated,PTH,ComponentDrill
T7C0.1260
%
G90
G05
T1
X6.2697Y-4.8819
X7.0091Y-3.5157
T2
X6.5797Y-4.6969
X6.6289Y-4.6969
X6.6781Y-4.6969
X6.7274Y-4.6969
X6.7766Y-4.6969
X6.8996Y-3.2165
X6.9488Y-3.2165
X6.9488Y-4.6969
X6.998Y-3.2165
X6.998Y-4.6969
X7.0472Y-3.2165
X7.0472Y-4.6969
X7.0965Y-3.2165
X7.0965Y-4.6969
X7.1457Y-3.2165
X7.1457Y-4.6969
X7.1949Y-3.2165
X7.1949Y-4.6969
T3
X5.3524Y-4.1535
X5.6181Y-3.6476
X6.0591Y-3.6457
X6.4213Y-4.5669
X7.3465Y-4.5689
T4
X5.7591Y-4.437
X5.7592Y-3.4372
X5.8591Y-4.437
X5.8592Y-3.4372
X5.9591Y-3.437
X5.9591Y-4.437
X6.0591Y-3.437
X6.0591Y-4.437
X6.1591Y-3.437
X6.1591Y-4.437
X6.2591Y-3.437
X6.2591Y-4.437
X6.3591Y-3.437
X6.3591Y-4.437
X6.4591Y-3.437
X6.4591Y-4.437
X6.5059Y-3.055
X6.5059Y-3.2519
X6.5591Y-3.437
X6.5591Y-4.437
X6.6591Y-3.437
X6.6591Y-4.437
X6.7591Y-3.437
X6.7591Y-4.437
X6.8591Y-3.437
X6.8591Y-4.437
X6.9591Y-3.437
X6.9591Y-4.437
X7.0591Y-3.437
X7.0591Y-4.437
X7.1591Y-3.437
X7.1591Y-4.437
X7.2591Y-3.437
X7.2591Y-4.437
X7.3591Y-3.437
X7.3591Y-4.437
X7.4591Y-3.437
X7.4591Y-4.437
X7.5591Y-3.437
X7.5591Y-4.437
T5
X5.565Y-4.3012
X6.2205Y-3.1299
X6.2205Y-3.2283
X6.2598Y-4.7244
T6
X5.6Y-3.8368
X5.6Y-3.9368
X5.6Y-4.0368
T7
X5.315Y-3.1496
X5.315Y-4.7244
X7.6772Y-3.1496
X7.6772Y-4.7244
M30
