%TF.GenerationSoftware,KiCad,Pcbnew,9.0.4*%
%TF.CreationDate,2025-12-07T20:14:19+01:00*%
%TF.ProjectId,bluebox,626c7565-626f-4782-9e6b-696361645f70,rev?*%
%TF.SameCoordinates,Original*%
%TF.FileFunction,Copper,L1,Top*%
%TF.FilePolarity,Positive*%
%FSLAX46Y46*%
G04 Gerber Fmt 4.6, Leading zero omitted, Abs format (unit mm)*
G04 Created by KiCad (PCBNEW 9.0.4) date 2025-12-07 20:14:19*
%MOMM*%
%LPD*%
G01*
G04 APERTURE LIST*
G04 Aperture macros list*
%AMRoundRect*
0 Rectangle with rounded corners*
0 $1 Rounding radius*
0 $2 $3 $4 $5 $6 $7 $8 $9 X,Y pos of 4 corners*
0 Add a 4 corners polygon primitive as box body*
4,1,4,$2,$3,$4,$5,$6,$7,$8,$9,$2,$3,0*
0 Add four circle primitives for the rounded corners*
1,1,$1+$1,$2,$3*
1,1,$1+$1,$4,$5*
1,1,$1+$1,$6,$7*
1,1,$1+$1,$8,$9*
0 Add four rect primitives between the rounded corners*
20,1,$1+$1,$2,$3,$4,$5,0*
20,1,$1+$1,$4,$5,$6,$7,0*
20,1,$1+$1,$6,$7,$8,$9,0*
20,1,$1+$1,$8,$9,$2,$3,0*%
G04 Aperture macros list end*
%TA.AperFunction,SMDPad,CuDef*%
%ADD10RoundRect,0.200000X-0.200000X-0.275000X0.200000X-0.275000X0.200000X0.275000X-0.200000X0.275000X0*%
%TD*%
%TA.AperFunction,SMDPad,CuDef*%
%ADD11RoundRect,0.112500X0.187500X0.112500X-0.187500X0.112500X-0.187500X-0.112500X0.187500X-0.112500X0*%
%TD*%
%TA.AperFunction,ComponentPad*%
%ADD12C,5.600000*%
%TD*%
%TA.AperFunction,SMDPad,CuDef*%
%ADD13RoundRect,0.250000X-0.300000X-0.300000X0.300000X-0.300000X0.300000X0.300000X-0.300000X0.300000X0*%
%TD*%
%TA.AperFunction,SMDPad,CuDef*%
%ADD14RoundRect,0.200000X-0.275000X0.200000X-0.275000X-0.200000X0.275000X-0.200000X0.275000X0.200000X0*%
%TD*%
%TA.AperFunction,ComponentPad*%
%ADD15R,2.000000X1.905000*%
%TD*%
%TA.AperFunction,ComponentPad*%
%ADD16O,2.000000X1.905000*%
%TD*%
%TA.AperFunction,ComponentPad*%
%ADD17RoundRect,0.200000X-0.200000X-0.450000X0.200000X-0.450000X0.200000X0.450000X-0.200000X0.450000X0*%
%TD*%
%TA.AperFunction,ComponentPad*%
%ADD18O,0.800000X1.300000*%
%TD*%
%TA.AperFunction,ComponentPad*%
%ADD19RoundRect,0.250000X-0.550000X0.550000X-0.550000X-0.550000X0.550000X-0.550000X0.550000X0.550000X0*%
%TD*%
%TA.AperFunction,ComponentPad*%
%ADD20C,1.600000*%
%TD*%
%TA.AperFunction,SMDPad,CuDef*%
%ADD21RoundRect,0.250000X-0.250000X-0.475000X0.250000X-0.475000X0.250000X0.475000X-0.250000X0.475000X0*%
%TD*%
%TA.AperFunction,ComponentPad*%
%ADD22C,2.000000*%
%TD*%
%TA.AperFunction,ComponentPad*%
%ADD23RoundRect,0.200000X0.200000X0.450000X-0.200000X0.450000X-0.200000X-0.450000X0.200000X-0.450000X0*%
%TD*%
%TA.AperFunction,SMDPad,CuDef*%
%ADD24RoundRect,0.225000X-0.250000X0.225000X-0.250000X-0.225000X0.250000X-0.225000X0.250000X0.225000X0*%
%TD*%
%TA.AperFunction,SMDPad,CuDef*%
%ADD25RoundRect,0.200000X0.200000X0.275000X-0.200000X0.275000X-0.200000X-0.275000X0.200000X-0.275000X0*%
%TD*%
%TA.AperFunction,SMDPad,CuDef*%
%ADD26RoundRect,0.250000X0.250000X0.475000X-0.250000X0.475000X-0.250000X-0.475000X0.250000X-0.475000X0*%
%TD*%
%TA.AperFunction,SMDPad,CuDef*%
%ADD27RoundRect,0.225000X-0.225000X-0.250000X0.225000X-0.250000X0.225000X0.250000X-0.225000X0.250000X0*%
%TD*%
%TA.AperFunction,SMDPad,CuDef*%
%ADD28RoundRect,0.112500X0.112500X-0.187500X0.112500X0.187500X-0.112500X0.187500X-0.112500X-0.187500X0*%
%TD*%
%TA.AperFunction,ComponentPad*%
%ADD29RoundRect,0.250000X-0.750000X0.600000X-0.750000X-0.600000X0.750000X-0.600000X0.750000X0.600000X0*%
%TD*%
%TA.AperFunction,ComponentPad*%
%ADD30O,2.000000X1.700000*%
%TD*%
%TA.AperFunction,ComponentPad*%
%ADD31R,1.200000X2.000000*%
%TD*%
%TA.AperFunction,ComponentPad*%
%ADD32O,1.200000X2.000000*%
%TD*%
%TA.AperFunction,ViaPad*%
%ADD33C,1.200000*%
%TD*%
%TA.AperFunction,ViaPad*%
%ADD34C,0.800000*%
%TD*%
%TA.AperFunction,Conductor*%
%ADD35C,2.000000*%
%TD*%
%TA.AperFunction,Conductor*%
%ADD36C,1.000000*%
%TD*%
%TA.AperFunction,Conductor*%
%ADD37C,0.800000*%
%TD*%
%TA.AperFunction,Conductor*%
%ADD38C,0.370000*%
%TD*%
G04 APERTURE END LIST*
D10*
%TO.P,R302,1*%
%TO.N,Net-(U301-32K_XN{slash}GPIO33{slash}ADC1_CH5)*%
X174225000Y-115900000D03*
%TO.P,R302,2*%
%TO.N,Net-(J303-Pin_2)*%
X175875000Y-115900000D03*
%TD*%
D11*
%TO.P,D202,1,K*%
%TO.N,GND*%
X149500000Y-91250000D03*
%TO.P,D202,2,A*%
%TO.N,Net-(D202-A)*%
X147400000Y-91250000D03*
%TD*%
D12*
%TO.P,H102,1,1*%
%TO.N,unconnected-(H102-Pad1)*%
X135000000Y-80000000D03*
%TD*%
D13*
%TO.P,D203,1,K*%
%TO.N,Net-(D203-K)*%
X150450000Y-79500000D03*
%TO.P,D203,2,A*%
%TO.N,Net-(D203-A)*%
X153250000Y-79500000D03*
%TD*%
D14*
%TO.P,R303,1*%
%TO.N,Net-(U301-MTCK{slash}GPIO13{slash}ADC2_CH4)*%
X156500000Y-115525000D03*
%TO.P,R303,2*%
%TO.N,Net-(J303-Pin_4)*%
X156500000Y-117175000D03*
%TD*%
D15*
%TO.P,U201,1,IN*%
%TO.N,Net-(D203-K)*%
X142240000Y-102535000D03*
D16*
%TO.P,U201,2,GND*%
%TO.N,Net-(D202-A)*%
X142240000Y-99995000D03*
%TO.P,U201,3,OUT*%
%TO.N,Net-(D201-A)*%
X142240000Y-97455000D03*
%TD*%
D10*
%TO.P,R301,1*%
%TO.N,Net-(U301-32K_XP{slash}GPIO32{slash}ADC1_CH4)*%
X177350000Y-115900000D03*
%TO.P,R301,2*%
%TO.N,Net-(J303-Pin_3)*%
X179000000Y-115900000D03*
%TD*%
D17*
%TO.P,J303,1,Pin_1*%
%TO.N,GND*%
X176500000Y-119300000D03*
D18*
%TO.P,J303,2,Pin_2*%
%TO.N,Net-(J303-Pin_2)*%
X177750000Y-119300000D03*
%TO.P,J303,3,Pin_3*%
%TO.N,Net-(J303-Pin_3)*%
X179000000Y-119300000D03*
%TO.P,J303,4,Pin_4*%
%TO.N,Net-(J303-Pin_4)*%
X180250000Y-119300000D03*
%TO.P,J303,5,Pin_5*%
%TO.N,Net-(J303-Pin_5)*%
X181500000Y-119300000D03*
%TO.P,J303,6,Pin_6*%
%TO.N,Net-(J301-Pin_6)*%
X182750000Y-119300000D03*
%TD*%
D19*
%TO.P,C302,1*%
%TO.N,Net-(J301-Pin_6)*%
X165250000Y-77597349D03*
D20*
%TO.P,C302,2*%
%TO.N,GND*%
X165250000Y-82597349D03*
%TD*%
D21*
%TO.P,C203,1*%
%TO.N,Net-(D203-K)*%
X135350000Y-95100000D03*
%TO.P,C203,2*%
%TO.N,GND*%
X137250000Y-95100000D03*
%TD*%
D17*
%TO.P,J302,1,Pin_1*%
%TO.N,Net-(J301-Pin_6)*%
X167125000Y-119300000D03*
D18*
%TO.P,J302,2,Pin_2*%
%TO.N,Net-(J302-Pin_2)*%
X168375000Y-119300000D03*
%TO.P,J302,3,Pin_3*%
%TO.N,Net-(J302-Pin_3)*%
X169625000Y-119300000D03*
%TO.P,J302,4,Pin_4*%
%TO.N,Net-(J302-Pin_4)*%
X170875000Y-119300000D03*
%TO.P,J302,5,Pin_5*%
%TO.N,GND*%
X172125000Y-119300000D03*
%TD*%
D22*
%TO.P,TP202,1,1*%
%TO.N,/MPU/MCU5V*%
X141350000Y-109250000D03*
%TD*%
D23*
%TO.P,J301,1,Pin_1*%
%TO.N,Net-(J301-Pin_1)*%
X182750000Y-81700000D03*
D18*
%TO.P,J301,2,Pin_2*%
%TO.N,Net-(J301-Pin_2)*%
X181500000Y-81700000D03*
%TO.P,J301,3,Pin_3*%
%TO.N,Net-(J301-Pin_3)*%
X180250000Y-81700000D03*
%TO.P,J301,4,Pin_4*%
%TO.N,Net-(J301-Pin_4)*%
X179000000Y-81700000D03*
%TO.P,J301,5,Pin_5*%
%TO.N,Net-(J301-Pin_5)*%
X177750000Y-81700000D03*
%TO.P,J301,6,Pin_6*%
%TO.N,Net-(J301-Pin_6)*%
X176500000Y-81700000D03*
%TO.P,J301,7,Pin_7*%
%TO.N,GND*%
X175250000Y-81700000D03*
%TD*%
D24*
%TO.P,C304,1*%
%TO.N,Net-(J301-Pin_6)*%
X163100000Y-117900000D03*
%TO.P,C304,2*%
%TO.N,GND*%
X163100000Y-119450000D03*
%TD*%
%TO.P,C303,1*%
%TO.N,Net-(J301-Pin_6)*%
X186700000Y-118850000D03*
%TO.P,C303,2*%
%TO.N,GND*%
X186700000Y-120400000D03*
%TD*%
D25*
%TO.P,R201,1*%
%TO.N,Net-(D202-A)*%
X150675000Y-106250000D03*
%TO.P,R201,2*%
%TO.N,Net-(D201-A)*%
X149025000Y-106250000D03*
%TD*%
D12*
%TO.P,H103,1,1*%
%TO.N,unconnected-(H103-Pad1)*%
X195000000Y-120000000D03*
%TD*%
%TO.P,H101,1,1*%
%TO.N,GND*%
X135000000Y-120000000D03*
%TD*%
%TO.P,H104,1,1*%
%TO.N,unconnected-(H104-Pad1)*%
X195000000Y-80000000D03*
%TD*%
D26*
%TO.P,C207,1*%
%TO.N,GND*%
X149450000Y-93500000D03*
%TO.P,C207,2*%
%TO.N,Net-(D202-A)*%
X147550000Y-93500000D03*
%TD*%
D22*
%TO.P,TP201,1,1*%
%TO.N,GND*%
X159000000Y-120000000D03*
%TD*%
D27*
%TO.P,C204,1*%
%TO.N,Net-(D201-A)*%
X149075000Y-108300000D03*
%TO.P,C204,2*%
%TO.N,Net-(D202-A)*%
X150625000Y-108300000D03*
%TD*%
D28*
%TO.P,D201,1,K*%
%TO.N,/MPU/MCU5V*%
X135950000Y-109250000D03*
%TO.P,D201,2,A*%
%TO.N,Net-(D201-A)*%
X135950000Y-107150000D03*
%TD*%
D24*
%TO.P,C301,1*%
%TO.N,Net-(J301-Pin_6)*%
X171500000Y-78825000D03*
%TO.P,C301,2*%
%TO.N,GND*%
X171500000Y-80375000D03*
%TD*%
D29*
%TO.P,J201,1,Pin_1*%
%TO.N,Net-(D203-A)*%
X158000000Y-79500000D03*
D30*
%TO.P,J201,2,Pin_2*%
%TO.N,GND*%
X158000000Y-82000000D03*
%TD*%
D31*
%TO.P,U301,1,3V3*%
%TO.N,Net-(J301-Pin_6)*%
X192000000Y-112700000D03*
D32*
%TO.P,U301,2,CHIP_PU*%
%TO.N,unconnected-(U301-CHIP_PU-Pad2)*%
X189460000Y-112700000D03*
%TO.P,U301,3,SENSOR_VP/GPIO36/ADC1_CH0*%
%TO.N,unconnected-(U301-SENSOR_VP{slash}GPIO36{slash}ADC1_CH0-Pad3)*%
X186920000Y-112700000D03*
%TO.P,U301,4,SENSOR_VN/GPIO39/ADC1_CH3*%
%TO.N,unconnected-(U301-SENSOR_VN{slash}GPIO39{slash}ADC1_CH3-Pad4)*%
X184380000Y-112700000D03*
%TO.P,U301,5,VDET_1/GPIO34/ADC1_CH6*%
%TO.N,unconnected-(U301-VDET_1{slash}GPIO34{slash}ADC1_CH6-Pad5)*%
X181840000Y-112700000D03*
%TO.P,U301,6,VDET_2/GPIO35/ADC1_CH7*%
%TO.N,unconnected-(U301-VDET_2{slash}GPIO35{slash}ADC1_CH7-Pad6)*%
X179300000Y-112700000D03*
%TO.P,U301,7,32K_XP/GPIO32/ADC1_CH4*%
%TO.N,Net-(U301-32K_XP{slash}GPIO32{slash}ADC1_CH4)*%
X176760000Y-112700000D03*
%TO.P,U301,8,32K_XN/GPIO33/ADC1_CH5*%
%TO.N,Net-(U301-32K_XN{slash}GPIO33{slash}ADC1_CH5)*%
X174220000Y-112700000D03*
%TO.P,U301,9,DAC_1/ADC2_CH8/GPIO25*%
%TO.N,Net-(J302-Pin_4)*%
X171680000Y-112700000D03*
%TO.P,U301,10,DAC_2/ADC2_CH9/GPIO26*%
%TO.N,Net-(J302-Pin_3)*%
X169140000Y-112700000D03*
%TO.P,U301,11,ADC2_CH7/GPIO27*%
%TO.N,Net-(J302-Pin_2)*%
X166600000Y-112700000D03*
%TO.P,U301,12,MTMS/GPIO14/ADC2_CH6*%
%TO.N,Net-(J303-Pin_5)*%
X164060000Y-112700000D03*
%TO.P,U301,13,MTDI/GPIO12/ADC2_CH5*%
%TO.N,unconnected-(U301-MTDI{slash}GPIO12{slash}ADC2_CH5-Pad13)*%
X161520000Y-112700000D03*
%TO.P,U301,14,GND*%
%TO.N,GND*%
X158980000Y-112700000D03*
%TO.P,U301,15,MTCK/GPIO13/ADC2_CH4*%
%TO.N,Net-(U301-MTCK{slash}GPIO13{slash}ADC2_CH4)*%
X156440000Y-112700000D03*
%TO.P,U301,16,SD_DATA2/GPIO9*%
%TO.N,unconnected-(U301-SD_DATA2{slash}GPIO9-Pad16)*%
X153900000Y-112700000D03*
%TO.P,U301,17,SD_DATA3/GPIO10*%
%TO.N,unconnected-(U301-SD_DATA3{slash}GPIO10-Pad17)*%
X151360000Y-112700000D03*
%TO.P,U301,18,CMD*%
%TO.N,unconnected-(U301-CMD-Pad18)*%
X148820000Y-112700000D03*
%TO.P,U301,19,5V*%
%TO.N,/MPU/MCU5V*%
X146280000Y-112700000D03*
%TO.P,U301,20,SD_CLK/GPIO6*%
%TO.N,unconnected-(U301-SD_CLK{slash}GPIO6-Pad20)*%
X146282720Y-87303680D03*
%TO.P,U301,21,SD_DATA0/GPIO7*%
%TO.N,unconnected-(U301-SD_DATA0{slash}GPIO7-Pad21)*%
X148822720Y-87303680D03*
%TO.P,U301,22,SD_DATA1/GPIO8*%
%TO.N,unconnected-(U301-SD_DATA1{slash}GPIO8-Pad22)*%
X151360000Y-87300000D03*
%TO.P,U301,23,MTDO/GPIO15/ADC2_CH3*%
%TO.N,unconnected-(U301-MTDO{slash}GPIO15{slash}ADC2_CH3-Pad23)*%
X153900000Y-87300000D03*
%TO.P,U301,24,ADC2_CH2/GPIO2*%
%TO.N,unconnected-(U301-ADC2_CH2{slash}GPIO2-Pad24)*%
X156440000Y-87300000D03*
%TO.P,U301,25,GPIO0/BOOT/ADC2_CH1*%
%TO.N,unconnected-(U301-GPIO0{slash}BOOT{slash}ADC2_CH1-Pad25)*%
X158980000Y-87300000D03*
%TO.P,U301,26,ADC2_CH0/GPIO4*%
%TO.N,unconnected-(U301-ADC2_CH0{slash}GPIO4-Pad26)*%
X161520000Y-87300000D03*
%TO.P,U301,27,GPIO16*%
%TO.N,unconnected-(U301-GPIO16-Pad27)*%
X164060000Y-87300000D03*
%TO.P,U301,28,GPIO17*%
%TO.N,unconnected-(U301-GPIO17-Pad28)*%
X166600000Y-87300000D03*
%TO.P,U301,29,GPIO5*%
%TO.N,Net-(J301-Pin_1)*%
X169140000Y-87300000D03*
%TO.P,U301,30,GPIO18*%
%TO.N,Net-(J301-Pin_5)*%
X171680000Y-87300000D03*
%TO.P,U301,31,GPIO19*%
%TO.N,unconnected-(U301-GPIO19-Pad31)*%
X174220000Y-87300000D03*
%TO.P,U301,32,GND*%
%TO.N,GND*%
X176760000Y-87300000D03*
%TO.P,U301,33,GPIO21*%
%TO.N,Net-(J301-Pin_2)*%
X179300000Y-87300000D03*
%TO.P,U301,34,U0RXD/GPIO3*%
%TO.N,unconnected-(U301-U0RXD{slash}GPIO3-Pad34)*%
X181840000Y-87300000D03*
%TO.P,U301,35,U0TXD/GPIO1*%
%TO.N,unconnected-(U301-U0TXD{slash}GPIO1-Pad35)*%
X184380000Y-87300000D03*
%TO.P,U301,36,GPIO22*%
%TO.N,Net-(J301-Pin_3)*%
X186920000Y-87300000D03*
%TO.P,U301,37,GPIO23*%
%TO.N,Net-(J301-Pin_4)*%
X189460000Y-87300000D03*
%TO.P,U301,38,GND*%
%TO.N,GND*%
X192000000Y-87300000D03*
%TD*%
D33*
%TO.N,GND*%
X142700000Y-92650000D03*
X153900000Y-92600000D03*
%TO.N,Net-(J301-Pin_6)*%
X186600000Y-116050000D03*
D34*
X178030000Y-89300000D03*
D33*
X163100000Y-116000000D03*
D34*
%TO.N,Net-(J303-Pin_4)*%
X159250000Y-124000000D03*
D33*
%TO.N,Net-(D201-A)*%
X135950000Y-105500000D03*
%TD*%
D35*
%TO.N,Net-(D203-K)*%
X145500000Y-79500000D02*
X133250000Y-91750000D01*
X133250000Y-91750000D02*
X133250000Y-95100000D01*
D36*
%TO.N,GND*%
X175250000Y-81700000D02*
X175250000Y-83782110D01*
D37*
X149500000Y-91250000D02*
X152550000Y-91250000D01*
D38*
X172125000Y-120875000D02*
X172000000Y-121000000D01*
X165250000Y-83766055D02*
X165500000Y-84016055D01*
D35*
X171500000Y-84016055D02*
X171500000Y-82000000D01*
X162600000Y-120000000D02*
X162600000Y-121200000D01*
X139184088Y-89815912D02*
X144983945Y-84016055D01*
X191016055Y-84016055D02*
X192000000Y-85000000D01*
X171500000Y-84016055D02*
X165500000Y-84016055D01*
D37*
X176760000Y-84026055D02*
X176750000Y-84016055D01*
D35*
X142700000Y-92650000D02*
X139484088Y-92650000D01*
D36*
X165500000Y-84016055D02*
X166000000Y-84016055D01*
D35*
X153850000Y-104850000D02*
X153850000Y-93700000D01*
D38*
X166000000Y-84016055D02*
X166277489Y-84016055D01*
D35*
X192000000Y-87300000D02*
X192000000Y-85000000D01*
X153850000Y-93700000D02*
X153850000Y-92550000D01*
X176750000Y-84016055D02*
X191016055Y-84016055D01*
X158000000Y-84016055D02*
X165500000Y-84016055D01*
D37*
X171500000Y-80375000D02*
X171500000Y-82000000D01*
D36*
X176760000Y-87300000D02*
X176760000Y-84026055D01*
D37*
X152550000Y-91250000D02*
X152800000Y-91500000D01*
X176760000Y-86240000D02*
X176760000Y-87300000D01*
D36*
X176500000Y-119300000D02*
X176500000Y-121000000D01*
D35*
X153850000Y-92550000D02*
X152800000Y-91500000D01*
X158980000Y-109980000D02*
X158980000Y-112700000D01*
X144983945Y-84016055D02*
X158000000Y-84016055D01*
D37*
X149450000Y-93500000D02*
X153650000Y-93500000D01*
D35*
X171500000Y-84016055D02*
X175016055Y-84016055D01*
D36*
X137250000Y-95100000D02*
X139684088Y-95100000D01*
D38*
X166277489Y-84016055D02*
X166268356Y-84006922D01*
D35*
X139184088Y-92950000D02*
X139184088Y-89815912D01*
X139184088Y-94600000D02*
X139184088Y-92950000D01*
X162800000Y-121200000D02*
X186400000Y-121200000D01*
D37*
X139484088Y-92650000D02*
X139184088Y-92950000D01*
D35*
X175016055Y-84016055D02*
X176750000Y-84016055D01*
D37*
X162800000Y-121000000D02*
X162600000Y-121200000D01*
D35*
X159000000Y-120000000D02*
X162600000Y-120000000D01*
X186400000Y-121200000D02*
X186600000Y-121000000D01*
X158000000Y-84016055D02*
X158000000Y-82000000D01*
D36*
X172125000Y-119300000D02*
X172125000Y-120875000D01*
D37*
X192000000Y-85000000D02*
X191500000Y-84500000D01*
D35*
X153850000Y-104850000D02*
X158980000Y-109980000D01*
X165250000Y-82597349D02*
X165250000Y-83766055D01*
%TO.N,Net-(D203-K)*%
X136635000Y-102535000D02*
X133250000Y-99150000D01*
X133250000Y-95100000D02*
X133250000Y-98650000D01*
D36*
X135350000Y-95100000D02*
X133250000Y-95100000D01*
D35*
X139200000Y-102535000D02*
X136635000Y-102535000D01*
D38*
X133250000Y-99150000D02*
X133250000Y-98650000D01*
D35*
X142240000Y-102535000D02*
X139200000Y-102535000D01*
D36*
X150450000Y-79500000D02*
X145500000Y-79500000D01*
D35*
%TO.N,Net-(J301-Pin_6)*%
X186600000Y-118000000D02*
X186600000Y-116050000D01*
X186600000Y-116050000D02*
X186600000Y-116000000D01*
D37*
X185650000Y-114693000D02*
X185650000Y-111800000D01*
D35*
X190400000Y-116000000D02*
X192000000Y-114400000D01*
X190400000Y-116000000D02*
X186600000Y-116000000D01*
D36*
X186600000Y-116000000D02*
X186600000Y-115600000D01*
D37*
X185650000Y-111800000D02*
X185650000Y-110507000D01*
D35*
X167652651Y-77597349D02*
X168250000Y-77000000D01*
D36*
X185300000Y-119300000D02*
X186600000Y-118000000D01*
D35*
X186250000Y-98750000D02*
X186250000Y-109950000D01*
D36*
X163000000Y-117400000D02*
X166500000Y-117400000D01*
X167125000Y-118025000D02*
X167125000Y-119300000D01*
D37*
X185750000Y-118850000D02*
X185300000Y-119300000D01*
D35*
X192000000Y-114400000D02*
X192000000Y-112700000D01*
D37*
X186700000Y-118850000D02*
X185750000Y-118850000D01*
D35*
X174500000Y-77000000D02*
X171500000Y-77000000D01*
X178000000Y-89300000D02*
X178000000Y-90500000D01*
D36*
X185693000Y-110507000D02*
X186000000Y-110200000D01*
D35*
X176500000Y-79000000D02*
X174500000Y-77000000D01*
D37*
X163100000Y-117900000D02*
X163100000Y-116000000D01*
D36*
X166500000Y-117400000D02*
X167125000Y-118025000D01*
D35*
X165250000Y-77597349D02*
X167652651Y-77597349D01*
X168250000Y-77000000D02*
X171500000Y-77000000D01*
X186250000Y-109950000D02*
X186000000Y-110200000D01*
D36*
X186600000Y-115600000D02*
X185693000Y-114693000D01*
X176500000Y-81700000D02*
X176500000Y-79000000D01*
D35*
X178000000Y-90500000D02*
X186250000Y-98750000D01*
D37*
X171500000Y-78825000D02*
X171500000Y-77000000D01*
D36*
X182750000Y-119300000D02*
X185300000Y-119300000D01*
D37*
%TO.N,/MPU/MCU5V*%
X135950000Y-109250000D02*
X141350000Y-109250000D01*
X146347114Y-112632886D02*
X146280000Y-112700000D01*
D35*
X146280000Y-112700000D02*
X146280000Y-109250000D01*
X146280000Y-109250000D02*
X141350000Y-109250000D01*
D37*
%TO.N,Net-(J302-Pin_2)*%
X166600000Y-115000000D02*
X166600000Y-112700000D01*
X168375000Y-116775000D02*
X166600000Y-115000000D01*
X168375000Y-119300000D02*
X168375000Y-116775000D01*
%TO.N,Net-(J302-Pin_3)*%
X169140000Y-115840000D02*
X169140000Y-112700000D01*
X169625000Y-119300000D02*
X169625000Y-116325000D01*
X169625000Y-116325000D02*
X169140000Y-115840000D01*
%TO.N,Net-(J303-Pin_2)*%
X177750000Y-118050000D02*
X177750000Y-119300000D01*
X175875000Y-116175000D02*
X177750000Y-118050000D01*
X175875000Y-115900000D02*
X175875000Y-116175000D01*
%TO.N,Net-(J303-Pin_4)*%
X158200000Y-124000000D02*
X156500000Y-122300000D01*
X156500000Y-122300000D02*
X156500000Y-117175000D01*
X159250000Y-124000000D02*
X158200000Y-124000000D01*
%TO.N,Net-(J303-Pin_3)*%
X179000000Y-119300000D02*
X179000000Y-115975000D01*
%TO.N,Net-(J302-Pin_4)*%
X171680000Y-116020000D02*
X171680000Y-112700000D01*
X170875000Y-116825000D02*
X171680000Y-116020000D01*
X170875000Y-119300000D02*
X170875000Y-116825000D01*
%TO.N,Net-(J303-Pin_5)*%
X180570000Y-111000000D02*
X180570000Y-115300000D01*
X165000000Y-110000000D02*
X179600000Y-110000000D01*
X164060000Y-112700000D02*
X164060000Y-110940000D01*
X164060000Y-110940000D02*
X165000000Y-110000000D01*
X181500000Y-116200000D02*
X181500000Y-119300000D01*
X180600000Y-115300000D02*
X181500000Y-116200000D01*
X179600000Y-110030000D02*
X180570000Y-111000000D01*
X180570000Y-115300000D02*
X180600000Y-115300000D01*
X179600000Y-110000000D02*
X179600000Y-110030000D01*
%TO.N,Net-(D201-A)*%
X148850000Y-105500000D02*
X149025000Y-105675000D01*
X149025000Y-105675000D02*
X149025000Y-106250000D01*
X135950000Y-107150000D02*
X135950000Y-105500000D01*
X149025000Y-106250000D02*
X149025000Y-108250000D01*
D35*
X135950000Y-105500000D02*
X147350000Y-105500000D01*
D37*
X149025000Y-108250000D02*
X149075000Y-108300000D01*
X147350000Y-105500000D02*
X148850000Y-105500000D01*
%TO.N,Net-(D202-A)*%
X150675000Y-108250000D02*
X150625000Y-108300000D01*
X150675000Y-105575000D02*
X150675000Y-102675000D01*
X150675000Y-106250000D02*
X150675000Y-108250000D01*
X145350000Y-100050000D02*
X144900000Y-100050000D01*
X146100000Y-91250000D02*
X147400000Y-91250000D01*
X147550000Y-93500000D02*
X145350000Y-93500000D01*
X145350000Y-93500000D02*
X145350000Y-92000000D01*
X150675000Y-106250000D02*
X150675000Y-105575000D01*
X145350000Y-100050000D02*
X145350000Y-93500000D01*
X150675000Y-102675000D02*
X148050000Y-100050000D01*
X144900000Y-100050000D02*
X142295000Y-100050000D01*
X142295000Y-100050000D02*
X142240000Y-99995000D01*
X148050000Y-100050000D02*
X144900000Y-100050000D01*
X145350000Y-92000000D02*
X146100000Y-91250000D01*
D36*
%TO.N,Net-(D203-A)*%
X153250000Y-79500000D02*
X158000000Y-79500000D01*
D37*
%TO.N,Net-(U301-32K_XP{slash}GPIO32{slash}ADC1_CH4)*%
X177350000Y-115900000D02*
X177350000Y-115050000D01*
X176760000Y-112700000D02*
X176760000Y-114460000D01*
X177350000Y-115050000D02*
X176760000Y-114460000D01*
%TO.N,Net-(U301-32K_XN{slash}GPIO33{slash}ADC1_CH5)*%
X174220000Y-112700000D02*
X174220000Y-115895000D01*
X174220000Y-115895000D02*
X174225000Y-115900000D01*
%TO.N,Net-(U301-MTCK{slash}GPIO13{slash}ADC2_CH4)*%
X156500000Y-115525000D02*
X156500000Y-112760000D01*
X156500000Y-112760000D02*
X156440000Y-112700000D01*
%TD*%
M02*
